<svg width="200" height="200" viewBox="0 0 200 200" fill="none" xmlns="http://www.w3.org/2000/svg">
<g clip-path="url(#clip0_1552_29970)">
<path d="M64.0971 0H135.903C158.191 0 166.273 2.32064 174.421 6.67832C182.569 11.036 188.964 17.4307 193.322 25.5789C197.679 33.727 200 41.8092 200 64.0971V135.903C200 158.191 197.679 166.273 193.322 174.421C188.964 182.569 182.569 188.964 174.421 193.322C166.273 197.679 158.191 200 135.903 200H64.0971C41.8092 200 33.727 197.679 25.5789 193.322C17.4307 188.964 11.036 182.569 6.67832 174.421C2.32064 166.273 0 158.191 0 135.903V64.0971C0 41.8092 2.32064 33.727 6.67832 25.5789C11.036 17.4307 17.4307 11.036 25.5789 6.67832C33.727 2.32064 41.8092 0 64.0971 0Z" fill="url(#paint0_linear_1552_29970)"/>
<mask id="mask0_1552_29970" style="mask-type:alpha" maskUnits="userSpaceOnUse" x="0" y="0" width="200" height="200">
<path d="M64.0971 0H135.903C158.191 0 166.273 2.32064 174.421 6.67832C182.569 11.036 188.964 17.4307 193.322 25.5789C197.679 33.727 200 41.8092 200 64.0971V135.903C200 158.191 197.679 166.273 193.322 174.421C188.964 182.569 182.569 188.964 174.421 193.322C166.273 197.679 158.191 200 135.903 200H64.0971C41.8092 200 33.727 197.679 25.5789 193.322C17.4307 188.964 11.036 182.569 6.67832 174.421C2.32064 166.273 0 158.191 0 135.903V64.0971C0 41.8092 2.32064 33.727 6.67832 25.5789C11.036 17.4307 17.4307 11.036 25.5789 6.67832C33.727 2.32064 41.8092 0 64.0971 0Z" fill="white"/>
</mask>
<g mask="url(#mask0_1552_29970)">
<path fill-rule="evenodd" clip-rule="evenodd" d="M51.6257 79.4946C55.5132 79.4946 59.2755 79.7871 62.9431 80.2987L48.5858 96.6107C39.9912 97.0275 32.127 99.2116 25.013 103.204C17.0634 107.669 10.8317 113.818 6.31785 121.658C1.80265 129.498 -0.453611 138.264 -0.453611 147.95C-0.453611 157.639 1.80265 166.403 6.31785 174.242C10.8317 182.082 17.0634 188.235 25.013 192.695C32.9599 197.158 41.8304 199.386 51.6257 199.386C61.4158 199.386 70.2249 197.158 78.0466 192.695C85.8669 188.235 92.0359 182.082 96.5511 174.242C99.4138 169.267 101.358 163.914 102.404 158.194L122.1 141.145C122.298 143.372 122.399 145.639 122.399 147.95C122.399 160.953 119.348 172.649 113.243 183.038C107.138 193.43 98.6795 201.586 87.8713 207.514C77.0604 213.442 64.9781 216.406 51.6257 216.406C38.1441 216.406 25.9965 213.442 15.1883 207.514C4.37877 201.586 -4.11188 193.396 -10.2783 182.942C-16.4487 172.49 -19.5312 160.827 -19.5312 147.95C-19.5312 135.076 -16.4487 123.41 -10.2783 112.957C-4.11188 102.506 4.37877 94.313 15.1883 88.3873C25.9965 82.4588 38.1441 79.4946 51.6257 79.4946ZM198.088 38.3934L103.228 144.738C102.891 138.42 101.542 132.515 99.2019 127.017L198.088 38.3934ZM202.344 0L94.6534 118.619C91.7987 114.365 88.387 110.682 84.4369 107.547L202.344 0ZM142.76 25.5947L76.1541 102.208C71.3724 99.7486 66.2375 98.0895 60.7494 97.2305L142.76 25.5947Z" fill="white"/>
</g>
</g>
<defs>
<linearGradient id="paint0_linear_1552_29970" x1="199.999" y1="199.999" x2="199.999" y2="-7.15253e-05" gradientUnits="userSpaceOnUse">
<stop stop-color="#29B6F5"/>
<stop offset="1" stop-color="#1CC47C"/>
</linearGradient>
<clipPath id="clip0_1552_29970">
<rect width="200" height="200" fill="white"/>
</clipPath>
</defs>
</svg>
