<svg xmlns="http://www.w3.org/2000/svg" width="16" height="16" viewBox="0 0 16 16">
  <path fill="#141414" fill-rule="evenodd" d="M0,12.4444444 L0,14.2222222 L5.33333333,14.2222222 L5.33333333,12.4444444 L0,12.4444444 M0,1.77777778 L0,3.55555556 L8.88888889,3.55555556 L8.88888889,1.77777778 L0,1.77777778 M8.88888889,16 L8.88888889,14.2222222 L16,14.2222222 L16,12.4444444 L8.88888889,12.4444444 L8.88888889,10.6666667 L7.11111111,10.6666667 L7.11111111,16 L8.88888889,16 M3.55555556,5.33333333 L3.55555556,7.11111111 L0,7.11111111 L0,8.88888889 L3.55555556,8.88888889 L3.55555556,10.6666667 L5.33333333,10.6666667 L5.33333333,5.33333333 L3.55555556,5.33333333 M16,8.88888889 L16,7.11111111 L7.11111111,7.11111111 L7.11111111,8.88888889 L16,8.88888889 M10.6666667,5.33333333 L12.4444444,5.33333333 L12.4444444,3.55555556 L16,3.55555556 L16,1.77777778 L12.4444444,1.77777778 L12.4444444,0 L10.6666667,0 L10.6666667,5.33333333 Z"/>
</svg>
