<svg width="16" height="16" viewBox="0 0 16 16" fill="none" xmlns="http://www.w3.org/2000/svg">
<path d="M6.66665 11V5L10.6666 8M7.99998 1.33333C7.1245 1.33333 6.25759 1.50577 5.44876 1.8408C4.63992 2.17584 3.90499 2.6669 3.28593 3.28596C2.03569 4.5362 1.33331 6.23189 1.33331 8C1.33331 9.76811 2.03569 11.4638 3.28593 12.714C3.90499 13.3331 4.63992 13.8242 5.44876 14.1592C6.25759 14.4942 7.1245 14.6667 7.99998 14.6667C9.76809 14.6667 11.4638 13.9643 12.714 12.714C13.9643 11.4638 14.6666 9.76811 14.6666 8C14.6666 7.12452 14.4942 6.25761 14.1592 5.44878C13.8241 4.63994 13.3331 3.90501 12.714 3.28596C12.095 2.6669 11.36 2.17584 10.5512 1.8408C9.74237 1.50577 8.87546 1.33333 7.99998 1.33333Z" fill="black"/>
</svg>
