<?xml version="1.0" encoding="UTF-8"?>
<svg width="32px" height="47px" viewBox="0 0 32 47" version="1.1" xmlns="http://www.w3.org/2000/svg" xmlns:xlink="http://www.w3.org/1999/xlink">
    <title>Path</title>
    <g id="Welcome" stroke="none" stroke-width="1" fill="none" fill-rule="evenodd">
        <g id="Desktop-HD" transform="translate(-805.000000, -538.000000)" fill="#FFFFFF">
            <path d="M820.999,538 L821.317988,538.003966 C829.996904,538.195725 836.974631,545.201631 837,553.827558 L837,553.827558 L837,569.563188 C836.96735,576.913354 831.842589,583.281946 824.608908,584.96173 L824.608908,584.96173 L824.608875,583.352934 C830.968906,581.724857 835.421453,576.061876 835.451115,569.563188 L835.451115,569.563188 L835.451115,553.827562 C835.451115,545.932449 828.981131,539.532195 821,539.532195 C813.018872,539.532195 806.54889,545.932446 806.548888,553.827558 L806.548888,553.827558 L806.54889,569.563188 C806.560286,576.128449 811.088475,581.842987 817.530496,583.421874 L817.530496,583.421874 L817.530357,585 C810.224055,583.376886 805.023977,576.970581 805,569.563188 L805,569.563188 L805,553.827556 C805.025522,545.096715 812.174038,538.025245 821,538 L820.999,538 Z" id="Path"></path>
        </g>
    </g>
</svg>