<svg viewBox="0 0 24 24" xmlns="http://www.w3.org/2000/svg" id="root">
    <path fill-rule="evenodd" clip-rule="evenodd" d="M1.5 6C1.5 5.58579 1.83579 5.25 2.25 5.25H21.75C22.1642 5.25 22.5 5.58579 22.5 6C22.5 6.41421 22.1642 6.75 21.75 6.75H2.25C1.83579 6.75 1.5 6.41421 1.5 6ZM1.5 12C1.5 11.5858 1.83579 11.25 2.25 11.25H21.75C22.1642 11.25 22.5 11.5858 22.5 12C22.5 12.4142 22.1642 12.75 21.75 12.75H2.25C1.83579 12.75 1.5 12.4142 1.5 12ZM2.25 17.25C1.83579 17.25 1.5 17.5858 1.5 18C1.5 18.4142 1.83579 18.75 2.25 18.75H21.75C22.1642 18.75 22.5 18.4142 22.5 18C22.5 17.5858 22.1642 17.25 21.75 17.25H2.25Z" fill="currentColor"/>
</svg>
