<svg viewBox="0 0 24 24" xmlns="http://www.w3.org/2000/svg" id="root">
    <path fill-rule="evenodd" clip-rule="evenodd" d="M20.0303 3.96967C20.3232 4.26256 20.3232 4.73744 20.0303 5.03033L5.03033 20.0303C4.73744 20.3232 4.26256 20.3232 3.96967 20.0303C3.67678 19.7374 3.67678 19.2626 3.96967 18.9697L18.9697 3.96967C19.2626 3.67678 19.7374 3.67678 20.0303 3.96967Z" fill="currentColor"/>
    <path fill-rule="evenodd" clip-rule="evenodd" d="M3.96967 3.96967C3.67678 4.26256 3.67678 4.73744 3.96967 5.03033L18.9697 20.0303C19.2626 20.3232 19.7374 20.3232 20.0303 20.0303C20.3232 19.7374 20.3232 19.2626 20.0303 18.9697L5.03033 3.96967C4.73744 3.67678 4.26256 3.67678 3.96967 3.96967Z" fill="currentColor"/>
</svg>
