<svg width="16" height="16" viewBox="0 0 16 16" fill="none" xmlns="http://www.w3.org/2000/svg">
<g clip-path="url(#clip0_1249_19505)">
<path fill-rule="evenodd" clip-rule="evenodd" d="M8 0C9.59267 0 11.1172 0.466835 12.4165 1.32859C12.6466 1.48122 12.7094 1.79151 12.5568 2.02163C12.4042 2.25176 12.0939 2.31458 11.8638 2.16195C10.7271 1.40805 9.39453 1 8 1C4.13401 1 1 4.13401 1 8C1 11.866 4.13401 15 8 15C11.866 15 15 11.866 15 8C15 7.72386 15.2239 7.5 15.5 7.5C15.7761 7.5 16 7.72386 16 8C16 12.4183 12.4183 16 8 16C3.58172 16 0 12.4183 0 8C0 3.58172 3.58172 0 8 0ZM15.7843 3.08859L15.8536 3.14645C16.0271 3.32001 16.0464 3.58944 15.9114 3.78431L15.8536 3.85355L8.35355 11.3536C8.17999 11.5271 7.91056 11.5464 7.71569 11.4114L7.64645 11.3536L4.14645 7.85355C3.95118 7.65829 3.95118 7.34171 4.14645 7.14645C4.32001 6.97288 4.58944 6.9536 4.78431 7.08859L4.85355 7.14645L8 10.293L15.1464 3.14645C15.32 2.97288 15.5894 2.9536 15.7843 3.08859Z" fill="#242424"/>
</g>
<defs>
<clipPath id="clip0_1249_19505">
<rect width="16" height="16" fill="white"/>
</clipPath>
</defs>
</svg>
