<svg width="16" height="16" viewBox="0 0 16 16" fill="none" xmlns="http://www.w3.org/2000/svg">
<path fill-rule="evenodd" clip-rule="evenodd" d="M8 0C6.067 0 4.5 1.567 4.5 3.5C4.5 5.433 6.067 7 8 7C9.933 7 11.5 5.433 11.5 3.5C11.5 1.567 9.933 0 8 0ZM8 1C9.38071 1 10.5 2.11929 10.5 3.5C10.5 4.88071 9.38071 6 8 6C6.61929 6 5.5 4.88071 5.5 3.5C5.5 2.11929 6.61929 1 8 1ZM12.9948 11.308C12.8951 9.46428 11.3686 8 9.5 8H8H6.5L6.30796 8.00518C4.46428 8.10487 3 9.63144 3 11.5V15.5L3.00806 15.5899C3.05039 15.8231 3.25454 16 3.5 16H10L10.0899 15.9919C10.3231 15.9496 10.5 15.7455 10.5 15.5L10.4919 15.4101C10.4496 15.1769 10.2455 15 10 15H4V11.5L4.00532 11.3356C4.08996 10.0315 5.17452 9 6.5 9H9.5L9.66438 9.00532C10.9685 9.08996 12 10.1745 12 11.5V15.5L12.0081 15.5899C12.0504 15.8231 12.2545 16 12.5 16C12.7761 16 13 15.7761 13 15.5V11.5L12.9948 11.308Z" fill="#242424"/>
</svg>
