<svg xmlns="http://www.w3.org/2000/svg" width="16" height="16" viewBox="0 0 16 16"><path fill="#242424" fill-rule="evenodd" d="M8,1 C11.8659932,1 15,4.13400675 15,8 C15,11.8659932 11.8659932,15 8,15 C4.13400675,15 1,11.8659932 1,8 C1,4.13400675 4.13400675,1 8,1 Z M8,4 C7.72385763,4 7.5,4.22385763 7.5,4.5 L7.5,4.5 L7.5,7.499 L4.5,7.5 C4.25454011,7.5 4.05039163,7.67687516 4.00805567,7.91012437 L4,8 C4,8.27614237 4.22385763,8.5 4.5,8.5 L4.5,8.5 L7.5,8.499 L7.5,11.5 C7.5,11.7454599 7.67687516,11.9496084 7.91012437,11.9919443 L8,12 C8.27614237,12 8.5,11.7761424 8.5,11.5 L8.5,11.5 L8.5,8.499 L11.5,8.5 C11.7454599,8.5 11.9496084,8.32312484 11.9919443,8.08987563 L12,8 C12,7.72385763 11.7761424,7.5 11.5,7.5 L11.5,7.5 L8.5,7.499 L8.5,4.5 C8.5,4.25454011 8.32312484,4.05039163 8.08987563,4.00805567 Z"/></svg>