<svg width="16" height="16" viewBox="0 0 16 16" fill="none" xmlns="http://www.w3.org/2000/svg">
<path fill-rule="evenodd" clip-rule="evenodd" d="M8 16C12.4183 16 16 12.4182 16 8C16 3.58175 12.4183 0 8 0C3.58172 0 0 3.58175 0 8C0 12.4182 3.58172 16 8 16ZM7.42857 4C7.42857 3.68443 7.68441 3.42857 8 3.42857C8.31559 3.42857 8.57143 3.68443 8.57143 4V7.42857H12C12.3156 7.42857 12.5714 7.68443 12.5714 8C12.5714 8.31557 12.3156 8.57143 12 8.57143H8.57143V12C8.57143 12.3156 8.31559 12.5714 8 12.5714C7.68441 12.5714 7.42857 12.3156 7.42857 12V8.57143H4C3.68441 8.57143 3.42857 8.31557 3.42857 8C3.42857 7.68443 3.68441 7.42857 4 7.42857H7.42857V4Z" fill="#242424"/>
</svg>