<svg width="16" height="16" viewBox="0 0 16 16" fill="none" xmlns="http://www.w3.org/2000/svg">
<path fill-rule="evenodd" clip-rule="evenodd" d="M6.79351 1.59521C6.7087 1.53371 6.60609 1.5 6.5 1.5H0.5L0.410124 1.50806C0.176875 1.55039 0 1.75454 0 2V13L0.00805567 13.0899C0.0503916 13.3231 0.25454 13.5 0.5 13.5H8L8.08988 13.4919C8.32312 13.4496 8.5 13.2455 8.5 13L8.49194 12.9101C8.44961 12.6769 8.24546 12.5 8 12.5H1V2.5H6.293L8.14645 4.35355L8.20649 4.40479C8.2913 4.46629 8.39391 4.5 8.5 4.5H15V9.5C15 9.77614 15.2239 10 15.5 10C15.7761 10 16 9.77614 16 9.5V4.5V4L15.9919 3.91012C15.9496 3.67688 15.7455 3.5 15.5 3.5H8.707L6.85355 1.64645L6.79351 1.59521ZM13.5 10.5C13.5 10.2239 13.2761 10 13 10C12.7239 10 12.5 10.2239 12.5 10.5V12.5H10.5C10.2239 12.5 10 12.7239 10 13C10 13.2761 10.2239 13.5 10.5 13.5H12.5V15.5C12.5 15.7761 12.7239 16 13 16C13.2761 16 13.5 15.7761 13.5 15.5V13.5H15.5C15.7761 13.5 16 13.2761 16 13C16 12.7239 15.7761 12.5 15.5 12.5H13.5V10.5Z" fill="#242424"/>
</svg>
