<svg width="16" height="16" fill="none" viewBox="0 0 16 16">
  <path fill="#242424" d="M7.154 1.725a3 3 0 0 0-.121 4.115l.121.128.708.706-6.112 6.112a.5.5 0 0 0 .638.766l.069-.058.253-.253 1.767 1.768a.5.5 0 0 0 .765-.638l-.058-.07-1.767-1.768.909-.908 1.06 1.06a.5.5 0 0 0 .765-.637l-.058-.07-1.06-1.06 3.536-3.536.706.707a3 3 0 0 0 4.243-4.242.5.5 0 1 0-.707.707 2 2 0 0 1-2.72 2.93l-.109-.102-2.12-2.121a2 2 0 0 1 2.718-2.93l.11.101.665.665a.5.5 0 0 0 .764-.637l-.057-.07-.665-.665a3 3 0 0 0-4.243 0Z"/>
</svg>
