<svg width="16" height="16" viewBox="0 0 16 16" fill="none" xmlns="http://www.w3.org/2000/svg">
<path d="M8.12193 1.58559C6.9922 2.71532 6.95185 4.52191 8.00089 5.69999L8.12193 5.82823L8.82974 6.53463L2.71761 12.6468C2.52235 12.842 2.52235 13.1586 2.71761 13.3539C2.89118 13.5274 3.1606 13.5467 3.35547 13.4117L3.42472 13.3539L3.67776 13.1008L5.44503 14.8691C5.64029 15.0644 5.95687 15.0644 6.15213 14.8691C6.3257 14.6955 6.34498 14.4261 6.20999 14.2312L6.15213 14.162L4.38487 12.3937L5.2935 11.4851L6.35416 12.5457C6.54943 12.741 6.86601 12.741 7.06127 12.5457C7.23484 12.3722 7.25412 12.1028 7.11912 11.9079L7.06127 11.8386L6.00061 10.778L9.53685 7.24174L10.2432 7.94955C11.4148 9.12112 13.3143 9.12112 14.4859 7.94955C15.6575 6.77798 15.6575 4.87848 14.4859 3.70691C14.2906 3.51165 13.974 3.51165 13.7788 3.70691C13.5835 3.90217 13.5835 4.21875 13.7788 4.41402C14.5598 5.19506 14.5598 6.46139 13.7788 7.24244C13.0332 7.98799 11.8455 8.02188 11.0598 7.34411L10.9504 7.24244L8.82904 5.12112C8.04799 4.34007 8.04799 3.07374 8.82904 2.2927C9.57458 1.54715 10.7623 1.51326 11.548 2.19103L11.6575 2.2927L12.3224 2.95764C12.5177 3.1529 12.8343 3.1529 13.0295 2.95764C13.2031 2.78408 13.2224 2.51465 13.0874 2.31978L13.0295 2.25053L12.3646 1.58559C11.193 0.414016 9.2935 0.414016 8.12193 1.58559Z" fill="#242424"/>
</svg>
