<svg width="16" height="16" viewBox="0 0 16 16" fill="none" xmlns="http://www.w3.org/2000/svg">
<path fill-rule="evenodd" clip-rule="evenodd" d="M4.99999 3C4.99999 3.55006 5.14802 4.06555 5.40643 4.50879C5.31119 4.52684 5.22018 4.57273 5.14646 4.64645L3.00002 6.79289L3.00003 11.0858L0.853553 8.93934C0.658291 8.74408 0.341709 8.74408 0.146447 8.93934C-0.0488155 9.1346 -0.0488155 9.45118 0.146447 9.64645L3.5 13L6.85355 9.64645C7.04882 9.45118 7.04882 9.1346 6.85355 8.93934C6.65829 8.74408 6.34171 8.74408 6.14645 8.93934L4.00003 11.0858L4.00002 7.20711L5.85357 5.35355C5.89952 5.30761 5.93465 5.25494 5.95898 5.19872C6.49438 5.69595 7.21167 6 7.99998 6C8.78831 6 9.50561 5.69594 10.041 5.19869C10.0653 5.25493 10.1005 5.3076 10.1464 5.35355L12 7.20711L12 14.0858L9.85355 11.9393C9.65829 11.7441 9.34171 11.7441 9.14645 11.9393C8.95118 12.1346 8.95118 12.4512 9.14645 12.6464L12.5 16L15.8536 12.6464C16.0488 12.4512 16.0488 12.1346 15.8536 11.9393C15.6583 11.7441 15.3417 11.7441 15.1464 11.9393L13 14.0858L13 6.79289L10.8535 4.64645C10.7798 4.57272 10.6888 4.52683 10.5935 4.50878C10.8519 4.06554 11 3.55006 11 3C11 1.34315 9.65684 0 7.99998 0C6.34313 0 4.99999 1.34315 4.99999 3ZM5.99999 3C5.99999 4.10457 6.89542 5 7.99998 5C9.10455 5 9.99998 4.10457 9.99998 3C9.99998 1.89543 9.10455 1 7.99998 1C6.89542 1 5.99999 1.89543 5.99999 3Z" fill="#242424"/>
</svg>
