<svg width="16" height="17" viewBox="0 0 16 17" fill="none" xmlns="http://www.w3.org/2000/svg">
<path fill-rule="evenodd" clip-rule="evenodd" d="M7.49998 0.516129C7.49998 0.231079 7.72384 0 7.99998 0H13.2342L15.882 3.27983C15.9372 3.3473 15.976 3.4296 15.9919 3.52013L16 3.6129L16 15.5161C16 15.7695 15.8231 15.9802 15.5899 16.0239L15.5 16.0323H0.5C0.25454 16.0323 0.0503916 15.8497 0.00805566 15.6089L0 15.5161V3.6129C0 3.47038 0.0559621 3.34135 0.146441 3.24795L1.64642 1.69955C1.84169 1.49798 2.15827 1.49798 2.35353 1.69955C2.54879 1.90111 2.54879 2.2279 2.35353 2.42946L1.70707 3.09677H14.4325L12.7658 1.03226H7.99998C7.72384 1.03226 7.49998 0.801179 7.49998 0.516129ZM10.65 5.79827C10.2091 6.62069 9.36704 7.22581 7.99999 7.22581C6.63294 7.22581 5.79085 6.62069 5.35 5.79827C5.05766 5.2529 4.95961 4.64652 4.96006 4.12903H1V15H15V4.12903H11.0399C11.0404 4.64652 10.9423 5.2529 10.65 5.79827ZM10.0401 4.12903H5.95988C5.95952 4.50572 6.03049 4.93567 6.22498 5.2985C6.4758 5.7664 6.96704 6.19355 7.99999 6.19355C9.03294 6.19355 9.52418 5.7664 9.775 5.2985C9.96949 4.93567 10.0405 4.50572 10.0401 4.12903ZM3 9.5C3 9.22386 3.22386 9 3.5 9H12.5C12.7761 9 13 9.22386 13 9.5C13 9.77614 12.7761 10 12.5 10H3.5C3.22386 10 3 9.77614 3 9.5ZM3.5 12C3.22386 12 3 12.2239 3 12.5C3 12.7761 3.22386 13 3.5 13H12.5C12.7761 13 13 12.7761 13 12.5C13 12.2239 12.7761 12 12.5 12H3.5Z" fill="#242424"/>
</svg>
