<svg width="16" height="16" viewBox="0 0 16 16" fill="none" xmlns="http://www.w3.org/2000/svg">
<path d="M2.14645 3.97786L2.08859 3.90638C1.95359 3.70523 1.97288 3.42711 2.14645 3.24794L2.21569 3.18822C2.41056 3.04887 2.67999 3.06878 2.85355 3.24794L4 4.43045L4 0.516129L4.00806 0.423354C4.05039 0.18258 4.25454 -4.92218e-07 4.5 0C4.77614 0 5 0.231079 5 0.516129L5 4.43045L6.14645 3.24794L6.21569 3.18822C6.41056 3.04887 6.67999 3.06878 6.85355 3.24794C7.04882 3.44951 7.04882 3.7763 6.85355 3.97786L4.5 6.40734L2.14645 3.97786Z" fill="#242424"/>
<path fill-rule="evenodd" clip-rule="evenodd" d="M7.49998 5.16129C7.49998 4.87624 7.72384 4.64516 7.99998 4.64516H13.2342L15.882 7.925C15.9372 7.99246 15.976 8.07476 15.9919 8.16529L16 8.25806V15.4839C16 15.7372 15.8231 15.948 15.5899 15.9917L15.5 16H0.5C0.25454 16 0.0503916 15.8174 0.00805566 15.5766L0 15.4839V8.25806C0 8.11554 0.0559621 7.98651 0.146441 7.89311L1.64642 6.34471C1.84169 6.14315 2.15827 6.14315 2.35353 6.34471C2.54879 6.54627 2.54879 6.87306 2.35353 7.07462L1.70707 7.74194H14.4325L12.7658 5.67742H7.99998C7.72384 5.67742 7.49998 5.44634 7.49998 5.16129ZM10.65 10.4434C10.2091 11.2659 9.36704 11.871 7.99999 11.871C6.63294 11.871 5.79085 11.2659 5.35 10.4434C5.05766 9.89807 4.95961 9.29168 4.96006 8.77419H1V14.9677H15V8.77419H11.0399C11.0404 9.29168 10.9423 9.89806 10.65 10.4434ZM10.0401 8.77419H5.95988C5.95952 9.15088 6.03049 9.58083 6.22498 9.94366C6.4758 10.4116 6.96704 10.8387 7.99999 10.8387C9.03294 10.8387 9.52418 10.4116 9.775 9.94366C9.96949 9.58083 10.0405 9.15088 10.0401 8.77419Z" fill="#242424"/>
</svg>
