<svg width="16" height="18" fill="none" viewBox="0 0 16 18">
  <path fill="#242424" fill-rule="evenodd" d="M3 10.484a.5.5 0 0 1 .5-.5h9a.5.5 0 1 1 0 1h-9a.5.5 0 0 1-.5-.5Zm.5 2.5a.5.5 0 1 0 0 1h9a.5.5 0 0 0 0-1h-9Z M7.5 1.5c0-.285.224-.516.5-.516h5.234l2.648 3.28c.055.067.094.15.11.24l.008.093V16.5a.512.512 0 0 1-.41.508l-.09.008H.5a.505.505 0 0 1-.492-.423L0 16.5V4.597c0-.143.056-.272.146-.365l1.5-1.549a.489.489 0 0 1 .708 0 .528.528 0 0 1 0 .73l-.647.668h12.726l-1.667-2.065H8a.508.508 0 0 1-.5-.516Zm3.15 5.282C10.21 7.605 9.367 8.21 8 8.21s-2.21-.605-2.65-1.428c-.292-.545-.39-1.152-.39-1.67H1v10.872h14V5.113h-3.96c0 .517-.098 1.124-.39 1.67Zm-.61-1.67H5.96c0 .378.07.808.265 1.17.25.468.742.895 1.775.895s1.524-.427 1.775-.895c.194-.362.265-.792.265-1.17Z" clip-rule="evenodd"/>
</svg>
