<svg width="16" height="16" viewBox="0 0 16 16" fill="none" xmlns="http://www.w3.org/2000/svg">
<path d="M10.1464 2.64645C10.32 2.47288 10.5894 2.4536 10.7843 2.58859L10.8536 2.64645L15.8536 7.64645C16.1475 7.94043 15.9728 8.42918 15.586 8.49304L15.5 8.5H0.5C0.223858 8.5 0 8.27614 0 8C0 7.75454 0.176875 7.55039 0.410124 7.50806L0.5 7.5H14.293L10.1464 3.35355C9.97288 3.17999 9.9536 2.91056 10.0886 2.71569L10.1464 2.64645Z" fill="#242424"/>
<path d="M13.1464 9.64645C13.3417 9.45118 13.6583 9.45118 13.8536 9.64645C14.0271 9.82001 14.0464 10.0894 13.9114 10.2843L13.8536 10.3536L10.8536 13.3536C10.6583 13.5488 10.3417 13.5488 10.1464 13.3536C9.97288 13.18 9.9536 12.9106 10.0886 12.7157L10.1464 12.6464L13.1464 9.64645Z" fill="#242424"/>
</svg>
