<svg width="16" height="16" viewBox="0 0 16 16" fill="none" xmlns="http://www.w3.org/2000/svg">
<path fill-rule="evenodd" clip-rule="evenodd" d="M2.14745 6.35355C1.97388 6.17999 1.9546 5.91056 2.08959 5.71569L2.14745 5.64645L5.14745 2.64645C5.34271 2.45118 5.65929 2.45118 5.85456 2.64645C6.02812 2.82001 6.04741 3.08944 5.91241 3.28431L5.85456 3.35355L2.85456 6.35355C2.65929 6.54882 2.34271 6.54882 2.14745 6.35355ZM5.2167 13.4114L5.14745 13.3536L0.147449 8.35355C-0.146535 8.05957 0.0281969 7.57082 0.41497 7.50696L0.501002 7.5H15.501C15.7771 7.5 16.001 7.72386 16.001 8C16.001 8.24546 15.8241 8.44961 15.5909 8.49194L15.501 8.5H1.708L5.85456 12.6464C6.02812 12.82 6.04741 13.0894 5.91241 13.2843L5.85456 13.3536C5.68099 13.5271 5.41156 13.5464 5.2167 13.4114Z" fill="#242424"/>
</svg>
