<svg width="16" height="16" viewBox="0 0 16 16" fill="none" xmlns="http://www.w3.org/2000/svg">
<path fill-rule="evenodd" clip-rule="evenodd" d="M6.35404 13.8531C6.18048 14.0266 5.91105 14.0459 5.71618 13.9109L5.64693 13.8531L2.64693 10.8531C2.45167 10.6578 2.45167 10.3412 2.64693 10.1459C2.8205 9.97238 3.08993 9.95309 3.28479 10.0881L3.35404 10.1459L6.35404 13.1459C6.5493 13.3412 6.5493 13.6578 6.35404 13.8531ZM13.4119 10.7838L13.354 10.8531L8.35404 15.8531C8.06006 16.147 7.5713 15.9723 7.50744 15.5855L7.50049 15.4995V0.499496C7.50049 0.223354 7.72435 -0.00050354 8.00049 -0.00050354C8.24595 -0.00050354 8.4501 0.176372 8.49243 0.409621L8.50049 0.499496V14.2925L12.6469 10.1459C12.8205 9.97238 13.0899 9.95309 13.2848 10.0881L13.354 10.1459C13.5276 10.3195 13.5469 10.5889 13.4119 10.7838Z" fill="#242424"/>
</svg>
