<svg width="16" height="16" viewBox="0 0 16 16" fill="none" xmlns="http://www.w3.org/2000/svg">
<path fill-rule="evenodd" clip-rule="evenodd" d="M9.64693 2.14695C9.8205 1.97338 10.0899 1.95409 10.2848 2.08909L10.354 2.14695L13.354 5.14695C13.5493 5.34221 13.5493 5.65879 13.354 5.85405C13.1805 6.02762 12.9111 6.0469 12.7162 5.91191L12.6469 5.85405L9.64693 2.85405C9.45167 2.65879 9.45167 2.34221 9.64693 2.14695ZM2.58908 5.21619L2.64693 5.14695L7.64693 0.146945C7.94092 -0.147038 8.42967 0.0276934 8.49353 0.414467L8.50049 0.500499V15.5005C8.50049 15.7766 8.27663 16.0005 8.00049 16.0005C7.75503 16.0005 7.55088 15.8236 7.50854 15.5904L7.50049 15.5005V1.7075L3.35404 5.85405C3.18048 6.02762 2.91105 6.0469 2.71618 5.91191L2.64693 5.85405C2.47337 5.68049 2.45408 5.41106 2.58908 5.21619Z" fill="#242424"/>
</svg>
