<svg xmlns="http://www.w3.org/2000/svg" width="16" height="16" viewBox="0 0 16 16"><path fill="#242424" fill-rule="evenodd" d="M15.5,0 C15.7454599,0 15.9496084,0.176875161 15.9919443,0.410124368 L16,0.5 L16,15.5 C16,15.7761424 15.7761424,16 15.5,16 C15.2545401,16 15.0503916,15.8231248 15.0080557,15.5898756 L15,15.5 L15,0.5 C15,0.223857625 15.2238576,0 15.5,0 Z M11.8535534,9.64644661 C12.0271197,9.82001296 12.0464049,10.0894374 11.9114088,10.2843055 L11.8535534,10.3535534 L8.85355339,13.3535534 C8.65829124,13.5488155 8.34170876,13.5488155 8.14644661,13.3535534 C7.97288026,13.179987 7.95359511,12.9105626 8.08859116,12.7156945 L8.14644661,12.6464466 L11.1464466,9.64644661 C11.3417088,9.45118446 11.6582912,9.45118446 11.8535534,9.64644661 Z M8.7843055,2.58859116 L8.85355339,2.64644661 L13.8535534,7.64644661 C14.147537,7.94043021 13.9728055,8.42918427 13.586032,8.49304488 L13.5,8.5 L0.5,8.5 C0.223857625,8.5 0,8.27614237 0,8 C0,7.75454011 0.176875161,7.55039163 0.410124368,7.50805567 L0.5,7.5 L12.293,7.5 L8.14644661,3.35355339 C7.97288026,3.17998704 7.95359511,2.91056264 8.08859116,2.7156945 L8.14644661,2.64644661 C8.32001296,2.47288026 8.58943736,2.45359511 8.7843055,2.58859116 Z"/></svg>