<svg xmlns="http://www.w3.org/2000/svg" width="16" height="16" viewBox="0 0 16 16"><path fill="#242424" fill-rule="evenodd" d="M0.5,0 C0.745459889,0 0.94960837,0.176875161 0.991944331,0.410124368 L1,0.5 L1,15.5 C1,15.7761424 0.776142375,16 0.5,16 C0.254540111,16 0.0503916296,15.8231248 0.00805566941,15.5898756 L0,15.5 L0,0.5 C0,0.223857625 0.223857625,0 0.5,0 Z M7.85455577,2.64644661 C8.02812212,2.82001296 8.04740727,3.08943736 7.91241122,3.2843055 L7.85455577,3.35355339 L4.85455577,6.35355339 C4.65929362,6.54881554 4.34271113,6.54881554 4.14744899,6.35355339 C3.97388263,6.17998704 3.95459748,5.91056264 4.08959354,5.7156945 L4.14744899,5.64644661 L7.14744899,2.64644661 C7.34271113,2.45118446 7.65929362,2.45118446 7.85455577,2.64644661 Z M2.00546187,7.92608223 L2.01109223,7.89477235 L2.01109223,7.89477235 C2.01439613,7.87952575 2.01844802,7.86416529 2.02324135,7.84898836 L2.03779224,7.80896344 L2.03779224,7.80896344 C2.04335147,7.79546114 2.04974961,7.78172431 2.05680497,7.76824181 C2.06329334,7.75595333 2.07001934,7.74431753 2.07718801,7.73298968 C2.08460935,7.72116536 2.09277454,7.70939085 2.10150261,7.69790749 C2.11192025,7.68424576 2.1229392,7.67118132 2.13458875,7.65871357 L2.15871357,7.63458875 L2.17785636,7.61759373 L2.17785636,7.61759373 L2.18833775,7.60896102 L2.18833775,7.60896102 L2.14644661,7.64644661 L2.193,7.605 L2.23319348,7.57700705 L2.23319348,7.57700705 C2.24431753,7.57001934 2.25595333,7.56329334 2.26787276,7.55703434 C2.28172431,7.54974961 2.29546114,7.54335147 2.3094049,7.53761056 C2.32197493,7.53240845 2.33526315,7.5275581 2.34880083,7.52326842 C2.36416529,7.51844802 2.37952575,7.51439613 2.39501295,7.51108568 C2.39986139,7.51000217 2.40497916,7.50898955 2.41012437,7.50805567 L2.42608223,7.50546187 C2.44709424,7.5023382 2.46826702,7.50055436 2.48946265,7.50011036 L15.5,7.5 C15.7761424,7.5 16,7.72385763 16,8 C16,8.24545989 15.8231248,8.44960837 15.5898756,8.49194433 L15.5,8.5 L3.707,8.5 L7.80330086,12.5961941 C7.998563,12.7914562 7.998563,13.1080387 7.80330086,13.3033009 C7.62973451,13.4768672 7.36031011,13.4961524 7.16544197,13.3611563 L7.09619408,13.3033009 L2.13458875,8.34128643 L2.11759373,8.32214364 L2.11759373,8.32214364 L2.10896102,8.31166225 L2.10896102,8.31166225 L2.135,8.341 L2.105,8.306 L2.07700705,8.26680652 L2.07700705,8.26680652 C2.07001934,8.25568247 2.06329334,8.24404667 2.05703434,8.23212724 C2.04974961,8.21827569 2.04335147,8.20453886 2.03761056,8.1905951 C2.03240845,8.17802507 2.0275581,8.16473685 2.02326842,8.15119917 C2.01844802,8.13583471 2.01439613,8.12047425 2.01108568,8.10498705 L2.00544807,8.07406693 L2.00544807,8.07406693 C2.0023875,8.05323734 2.000611,8.03240118 2.00013238,8.01154077 L2,8 L2.00546187,7.92608223 L2.00546187,7.92608223 Z"/></svg>