<svg width="16" height="16" fill="none" viewBox="0 0 16 16">
  <path fill="#242424" d="M3.2 1.85 2.525.027 1.85 1.851l-1.825.675 1.825.675.675 1.825.675-1.825 1.825-.675L3.2 1.851Zm8.886 8.116-4.89-4.89-2.12 2.122 8.778 8.778 2.12-2.121-1.767-1.768a.5.5 0 0 0-.707.707l1.06 1.06-.706.708L6.49 7.198l.707-.707 4.182 4.182a.5.5 0 1 0 .707-.707Zm-9.561-2.94L3.2 8.851l1.825.675-1.825.675-.675 1.825-.675-1.825-1.825-.675 1.825-.675.675-1.825ZM10.2 1.85 9.525.027 8.85 1.851l-1.825.675 1.825.675.675 1.825.675-1.825 1.825-.675-1.825-.675Z"/>
</svg>
