<svg width="16" height="16" viewBox="0 0 16 16" fill="none" xmlns="http://www.w3.org/2000/svg">
<path d="M3.17523 1.82477L2.5 0L1.82477 1.82477L0 2.5L1.82477 3.17523L2.5 5L3.17523 3.17523L5 2.5L3.17523 1.82477Z" fill="#242424"/>
<path d="M12.0607 9.93938L7.17157 5.05029L5.05025 7.17161L13.8284 15.9498L15.9497 13.8285L14.182 12.0607C13.9867 11.8654 13.6701 11.8654 13.4749 12.0607C13.2796 12.256 13.2796 12.5725 13.4749 12.7678L14.5355 13.8285L13.8284 14.5356L6.46446 7.17161L7.17157 6.46451L11.3535 10.6465C11.5488 10.8417 11.8654 10.8417 12.0607 10.6465C12.2559 10.4512 12.2559 10.1346 12.0607 9.93938Z" fill="#242424"/>
<path d="M2.5 7L3.17523 8.82477L5 9.5L3.17523 10.1752L2.5 12L1.82477 10.1752L0 9.5L1.82477 8.82477L2.5 7Z" fill="#242424"/>
<path d="M10.1752 1.82477L9.5 0L8.82477 1.82477L7 2.5L8.82477 3.17523L9.5 5L10.1752 3.17523L12 2.5L10.1752 1.82477Z" fill="#242424"/>
</svg>
