<svg width="16" height="16" viewBox="0 0 16 16" fill="none" xmlns="http://www.w3.org/2000/svg">
<path fill-rule="evenodd" clip-rule="evenodd" d="M11 2.5C11 2.22386 10.7761 2 10.5 2H2.5C2.22386 2 2 2.22386 2 2.5V11.5C2 11.7761 2.22386 12 2.5 12H15.5C15.7761 12 16 11.7761 16 11.5V4.5C16 4.22386 15.7761 4 15.5 4H11V2.5ZM3 3H10V5H15V11H3V3ZM0.5 4C0.776142 4 1 4.22386 1 4.5V13H13.5C13.7761 13 14 13.2239 14 13.5C14 13.7761 13.7761 14 13.5 14H0.5C0.223857 14 0 13.7761 0 13.5V4.5C0 4.22386 0.223858 4 0.5 4ZM4 10L6.5 5L9 10H4ZM10 10L12 7L14 10H10Z" fill="#242424"/>
</svg>
