<svg width="16" height="16" viewBox="0 0 16 16" fill="none" xmlns="http://www.w3.org/2000/svg">
<path fill-rule="evenodd" clip-rule="evenodd" d="M15.032 2.72626C16.228 3.93245 16.3226 5.80892 15.2776 7.00068L15.1568 7.13021L7.55709 14.7952C5.89773 16.4688 3.12825 16.389 1.37129 14.6169C-0.334005 12.897 -0.458702 10.215 1.05265 8.52852L1.19455 8.378L9.14614 0.358112C9.34174 0.160829 9.66066 0.16083 9.85626 0.358112L9.90069 0.402925C10.0939 0.597836 10.0939 0.912091 9.90069 1.107L1.94308 9.13296C0.674163 10.4128 0.734672 12.5488 2.07824 13.9039C3.37547 15.2123 5.3945 15.3143 6.67433 14.1678L6.80855 14.0402L14.4083 6.37525C15.1891 5.58767 15.1519 4.27319 14.3251 3.43928C13.5359 2.64327 12.3125 2.57287 11.5237 3.25311L11.4141 3.35539L3.46094 11.3769C3.16812 11.6722 3.18208 12.1652 3.49213 12.4779C3.77635 12.7645 4.2107 12.8003 4.50667 12.5767L4.58375 12.5093L10.4145 6.6285C10.6101 6.43122 10.929 6.43122 11.1246 6.6285L11.169 6.67332C11.3623 6.86823 11.3623 7.18248 11.169 7.37739L5.33228 13.2643C4.64901 13.9534 3.50864 13.9206 2.78518 13.1909C2.0979 12.4977 2.03413 11.425 2.61529 10.7286L2.71241 10.6219L10.6656 2.60043C11.8369 1.41906 13.7918 1.47539 15.032 2.72626Z" fill="#242424"/>
</svg>
