<svg width="16" height="16" viewBox="0 0 16 16" fill="none" xmlns="http://www.w3.org/2000/svg">
<path fill-rule="evenodd" clip-rule="evenodd" d="M10 3.00001V4.5L9 5.1V3.90101L2.443 7.99901L6.56579 10.5765L6.63774 10.631C6.8131 10.7905 6.85489 11.0574 6.72479 11.2655C6.57844 11.4997 6.26996 11.5709 6.0358 11.4245L1.235 8.42401L1.16319 8.36992C0.923842 8.15393 0.947778 7.75552 1.235 7.57601L9.235 2.57601L9.30768 2.53815C9.62753 2.40285 10 2.63534 10 3.00001ZM14.3077 2.53815C14.6275 2.40285 15 2.63534 15 3.00001V13L14.9919 13.0899C14.9496 13.3231 14.7455 13.5 14.5 13.5L14.4101 13.492C14.1769 13.4496 14 13.2455 14 13V3.90101L7.443 7.99901L11.5658 10.5765L11.6377 10.631C11.8131 10.7905 11.8549 11.0574 11.7248 11.2655C11.5784 11.4997 11.27 11.5709 11.0358 11.4245L6.235 8.42401L6.16319 8.36992C5.92384 8.15393 5.94778 7.75552 6.235 7.57601L14.235 2.57601L14.3077 2.53815Z" fill="#242424"/>
</svg>
