<svg xmlns="http://www.w3.org/2000/svg" width="16" height="16" viewBox="0 0 16 16"><path fill="#0F0F0F" fill-rule="evenodd" d="M12.8535534,10.3971984 C13.0271197,10.5707647 13.0464049,10.8401891 12.9114088,11.0350573 L12.8535534,11.1043052 L10.8535534,13.1043052 C10.6582912,13.2995673 10.3417088,13.2995673 10.1464466,13.1043052 C9.97288026,12.9307388 9.95359511,12.6613144 10.0885912,12.4664463 L10.1464466,12.3971984 L12.1464466,10.3971984 C12.3417088,10.2019362 12.6582912,10.2019362 12.8535534,10.3971984 Z M1.5,9.25 L1.492,9.249 L1.41012437,9.24269611 C1.17687516,9.20036015 1,8.99621167 1,8.75075178 L1,2.75 C1,2.47385763 1.22385763,2.25 1.5,2.25 C1.77614237,2.25 2,2.47385763 2,2.75 L1.999,8.25 L13.293,8.25075178 L10.1464466,5.10430517 C9.97288026,4.93073882 9.95359511,4.66131442 10.0885912,4.46644628 L10.1464466,4.39719839 C10.320013,4.22363204 10.5894374,4.20434689 10.7843055,4.33934294 L10.8535534,4.39719839 L14.8535534,8.39719839 C15.147537,8.69118199 14.9728055,9.17993605 14.586032,9.24379666 L14.5,9.25075178 L1.5,9.25 L1.5,9.25 Z"/></svg>