<svg xmlns="http://www.w3.org/2000/svg" width="16" height="16" viewBox="0 0 16 16"><path fill="#242424" d="M7.99568298,-1.13686838e-13 C8.27182535,-1.13686838e-13 8.49568298,0.223857625 8.49568298,0.5 C8.49568298,0.745459889 8.31880782,0.94960837 8.08555861,0.991944331 L7.99568298,1 L3.5,0.999 L3.5,14.999 L8.5,14.999 L8.5,12.5 C8.5,12.2545401 8.67687516,12.0503916 8.91012437,12.0080557 L9,12 L11,12 C11.2761424,12 11.5,12.2238576 11.5,12.5 L11.5,12.5 L11.5,14.999 L12.5,14.999 L12.5,0.999 L11,1 C10.7545401,1 10.5503916,0.823124839 10.5080557,0.589875632 L10.5,0.5 C10.5,0.254540111 10.6768752,0.0503916296 10.9101244,0.00805566941 L11,-1.13686838e-13 L13,-1.13686838e-13 C13.2454599,-1.13686838e-13 13.4496084,0.176875161 13.4919443,0.410124368 L13.5,0.5 L13.5,15 L15.5,15 C15.7761424,15 16,15.2238576 16,15.5 C16,15.7454599 15.8231248,15.9496084 15.5898756,15.9919443 L15.5,16 L0.5,16 C0.223857625,16 0,15.7761424 0,15.5 C0,15.2545401 0.176875161,15.0503916 0.410124368,15.0080557 L0.5,15 L2.5,15 L2.5,0.5 C2.5,0.254540111 2.67687516,0.0503916296 2.91012437,0.00805566941 L3,-1.13686838e-13 L7.99568298,-1.13686838e-13 Z M10.5,13 L9.5,13 L9.5,14.999 L10.5,14.999 L10.5,13 Z M6.5,12 C6.77614237,12 7,12.2238576 7,12.5 C7,12.7454599 6.82312484,12.9496084 6.58987563,12.9919443 L6.5,13 L5.5,13 C5.22385763,13 5,12.7761424 5,12.5 C5,12.2545401 5.17687516,12.0503916 5.41012437,12.0080557 L5.5,12 L6.5,12 Z M6.5,9 C6.77614237,9 7,9.22385763 7,9.5 C7,9.74545989 6.82312484,9.94960837 6.58987563,9.99194433 L6.5,10 L5.5,10 C5.22385763,10 5,9.77614237 5,9.5 C5,9.25454011 5.17687516,9.05039163 5.41012437,9.00805567 L5.5,9 L6.5,9 Z M10.5,9 C10.7761424,9 11,9.22385763 11,9.5 C11,9.74545989 10.8231248,9.94960837 10.5898756,9.99194433 L10.5,10 L9.5,10 C9.22385763,10 9,9.77614237 9,9.5 C9,9.25454011 9.17687516,9.05039163 9.41012437,9.00805567 L9.5,9 L10.5,9 Z M6.5,6 C6.77614237,6 7,6.22385763 7,6.5 C7,6.74545989 6.82312484,6.94960837 6.58987563,6.99194433 L6.5,7 L5.5,7 C5.22385763,7 5,6.77614237 5,6.5 C5,6.25454011 5.17687516,6.05039163 5.41012437,6.00805567 L5.5,6 L6.5,6 Z M10.5,6 C10.7761424,6 11,6.22385763 11,6.5 C11,6.74545989 10.8231248,6.94960837 10.5898756,6.99194433 L10.5,7 L9.5,7 C9.22385763,7 9,6.77614237 9,6.5 C9,6.25454011 9.17687516,6.05039163 9.41012437,6.00805567 L9.5,6 L10.5,6 Z M6.5,3 C6.77614237,3 7,3.22385763 7,3.5 C7,3.74545989 6.82312484,3.94960837 6.58987563,3.99194433 L6.5,4 L5.5,4 C5.22385763,4 5,3.77614237 5,3.5 C5,3.25454011 5.17687516,3.05039163 5.41012437,3.00805567 L5.5,3 L6.5,3 Z M10.5,3 C10.7761424,3 11,3.22385763 11,3.5 C11,3.74545989 10.8231248,3.94960837 10.5898756,3.99194433 L10.5,4 L9.5,4 C9.22385763,4 9,3.77614237 9,3.5 C9,3.25454011 9.17687516,3.05039163 9.41012437,3.00805567 L9.5,3 L10.5,3 Z"/></svg>