<svg width="16" height="16" viewBox="0 0 16 16" fill="none" xmlns="http://www.w3.org/2000/svg">
<path fill-rule="evenodd" clip-rule="evenodd" d="M8 12.5C7.44772 12.5 7 12.9477 7 13.5C7 14.0523 7.44772 14.5 8 14.5C8.55228 14.5 9 14.0523 9 13.5C9 12.9477 8.55228 12.5 8 12.5ZM6 13.5C6 12.3954 6.89543 11.5 8 11.5C9.10457 11.5 10 12.3954 10 13.5C10 14.6046 9.10457 15.5 8 15.5C6.89543 15.5 6 14.6046 6 13.5Z" fill="#242424"/>
<path fill-rule="evenodd" clip-rule="evenodd" d="M8 2C7.44772 2 7 2.44772 7 3C7 3.55228 7.44772 4 8 4C8.55228 4 9 3.55228 9 3C9 2.44772 8.55228 2 8 2ZM6 3C6 1.89543 6.89543 1 8 1C9.10457 1 10 1.89543 10 3C10 4.10457 9.10457 5 8 5C6.89543 5 6 4.10457 6 3Z" fill="#242424"/>
<path fill-rule="evenodd" clip-rule="evenodd" d="M2.5 12.5C1.94772 12.5 1.5 12.9477 1.5 13.5C1.5 14.0523 1.94772 14.5 2.5 14.5C3.05228 14.5 3.5 14.0523 3.5 13.5C3.5 12.9477 3.05228 12.5 2.5 12.5ZM0.5 13.5C0.5 12.3954 1.39543 11.5 2.5 11.5C3.60457 11.5 4.5 12.3954 4.5 13.5C4.5 14.6046 3.60457 15.5 2.5 15.5C1.39543 15.5 0.5 14.6046 0.5 13.5Z" fill="#242424"/>
<path fill-rule="evenodd" clip-rule="evenodd" d="M13.5 12.5C12.9477 12.5 12.5 12.9477 12.5 13.5C12.5 14.0523 12.9477 14.5 13.5 14.5C14.0523 14.5 14.5 14.0523 14.5 13.5C14.5 12.9477 14.0523 12.5 13.5 12.5ZM11.5 13.5C11.5 12.3954 12.3954 11.5 13.5 11.5C14.6046 11.5 15.5 12.3954 15.5 13.5C15.5 14.6046 14.6046 15.5 13.5 15.5C12.3954 15.5 11.5 14.6046 11.5 13.5Z" fill="#242424"/>
<path fill-rule="evenodd" clip-rule="evenodd" d="M8 5.5C8.27614 5.5 8.5 5.72386 8.5 6V9.08333H12.3333C13.2538 9.08333 14 9.82952 14 10.75V11.5C14 11.7761 13.7761 12 13.5 12C13.2239 12 13 11.7761 13 11.5V10.75C13 10.3818 12.7015 10.0833 12.3333 10.0833H8.5V11.5C8.5 11.7761 8.27614 12 8 12C7.72386 12 7.5 11.7761 7.5 11.5V10.0833H3.66667C3.29848 10.0833 3 10.3818 3 10.75V11.5C3 11.7761 2.77614 12 2.5 12C2.22386 12 2 11.7761 2 11.5V10.75C2 9.82952 2.74619 9.08333 3.66667 9.08333H7.5V6C7.5 5.72386 7.72386 5.5 8 5.5Z" fill="#242424"/>
</svg>
