<svg width="16" height="16" fill="none" viewBox="0 0 16 16">
  <path fill="#242424" d="M0 9.5a.5.5 0 0 0 .41.492L.5 10h7a.5.5 0 0 0 .09-.992L7.5 9H1V1h14v8.5a.5.5 0 0 0 .41.492l.09.008a.5.5 0 0 0 .492-.41L16 9.5v-9a.5.5 0 0 0-.41-.492L15.5 0H.5a.5.5 0 0 0-.492.41L0 .5v9Z M10.5 2a3.5 3.5 0 0 1 3.033 5.247.5.5 0 1 1-.866-.5 2.5 2.5 0 1 0-4.328.01.5.5 0 0 1-.864.505A3.5 3.5 0 0 1 10.5 2Z M9.698 16h5.3a1 1 0 0 0 1-1v-2.7a2 2 0 0 0-1.188-1.828L11.498 9V5.9a.9.9 0 0 0-1.8 0v7.415l-1.688-.924a2.237 2.237 0 0 0-1.511-.232l-.316.063a.25.25 0 0 0-.12.43L9.697 16Z"/>
</svg>
