<svg width="16" height="16" viewBox="0 0 16 16" fill="none" xmlns="http://www.w3.org/2000/svg">
<path fill-rule="evenodd" clip-rule="evenodd" d="M0 9.5C0 9.74546 0.176875 9.94961 0.410124 9.99194L0.5 10H7.5C7.77614 10 8 9.77614 8 9.5C8 9.25454 7.82312 9.05039 7.58988 9.00806L7.5 9H1V1H15V9.5C15 9.74546 15.1769 9.94961 15.4101 9.99194L15.5 10C15.7455 10 15.9496 9.82312 15.9919 9.58988L16 9.5V0.5C16 0.25454 15.8231 0.0503916 15.5899 0.00805567L15.5 0H0.5C0.25454 0 0.0503916 0.176875 0.00805567 0.410124L0 0.5V9.5ZM10.5 2C12.433 2 14 3.567 14 5.5C14 6.12131 13.8375 6.72009 13.5333 7.24715C13.3953 7.48633 13.0895 7.56834 12.8503 7.43032C12.6112 7.2923 12.5292 6.98652 12.6672 6.74735C12.8842 6.37126 13 5.94466 13 5.5C13 4.11929 11.8807 3 10.5 3C9.11929 3 8 4.11929 8 5.5C8 5.94875 8.11795 6.37908 8.33878 6.7576C8.47793 6.99612 8.39738 7.30228 8.15886 7.44143C7.92034 7.58059 7.61417 7.50003 7.47502 7.26152C7.16556 6.73107 7 6.12703 7 5.5C7 3.567 8.567 2 10.5 2ZM9.69827 16H14.9983C15.5506 16 15.9983 15.5523 15.9983 15V12.2997C15.9983 11.5094 15.5328 10.7931 14.8105 10.4721L11.4983 9V5.9C11.4983 5.40294 11.0953 5 10.5983 5C10.1012 5 9.69827 5.40294 9.69827 5.9L9.69765 13.315L8.01048 12.391C7.54946 12.1384 7.01421 12.0563 6.49868 12.159L6.1828 12.2219C6.13088 12.2323 6.08358 12.2588 6.04772 12.2978C5.95421 12.3994 5.96074 12.5575 6.06232 12.6511L9.69827 16Z" fill="#242424"/>
</svg>
