<svg xmlns="http://www.w3.org/2000/svg" width="16" height="16" viewBox="0 0 16 16"><path fill="#0F0F0F" fill-rule="evenodd" d="M10.5982665,5 C11.0953227,5 11.4982665,5.40294373 11.4982665,5.9 L11.4982665,9 L14.8105434,10.4721231 C15.5327994,10.7931258 15.9982665,11.5093687 15.9982665,12.2997462 L15.9982665,15 C15.9982665,15.5522847 15.5505512,16 14.9982665,16 L9.69826647,16 L6.06232241,12.65105 C5.96074337,12.5575335 5.95420744,12.3993772 6.04772402,12.2977982 C6.08358189,12.2588488 6.13087887,12.2322884 6.18280022,12.2219438 L6.49867688,12.1590097 C7.01421412,12.0562961 7.54945691,12.1384218 8.01048318,12.3909758 L9.69764782,13.315 L9.69826647,5.9 C9.69826647,5.40294373 10.1012102,5 10.5982665,5 Z M15.5,-2.21156427e-13 L15.5898756,0.00805566941 C15.8231248,0.0503916296 16,0.254540111 16,0.5 L16,0.5 L16,9.5 L15.9919443,9.58987563 C15.9496084,9.82312484 15.7454599,10 15.5,10 L15.5,10 L15.4101244,9.99194433 C15.1768752,9.94960837 15,9.74545989 15,9.5 L15,9.5 L15,1 L1,1 L1,9 L7.5,9 L7.58987563,9.00805567 C7.82312484,9.05039163 8,9.25454011 8,9.5 C8,9.77614237 7.77614237,10 7.5,10 L7.5,10 L0.5,10 L0.410124368,9.99194433 C0.176875161,9.94960837 0,9.74545989 0,9.5 L0,9.5 L0,0.5 L0.00805566941,0.410124368 C0.0503916296,0.176875161 0.254540111,-2.21156427e-13 0.5,-2.21156427e-13 L0.5,-2.21156427e-13 L15.5,-2.21156427e-13 Z M10.5,2 C12.4329966,2 14,3.56700338 14,5.5 C14,6.12130599 13.8374542,6.720092 13.5333103,7.24715415 C13.395292,7.48633102 13.089515,7.56833628 12.8503381,7.43031802 C12.6111612,7.29229977 12.529156,6.98652271 12.6671742,6.74734585 C12.8841966,6.37125991 13,5.94466331 13,5.5 C13,4.11928813 11.8807119,3 10.5,3 C9.11928813,3 8,4.11928813 8,5.5 C8,5.948749 8.11794806,6.37908301 8.33877572,6.75760042 C8.477928,6.99611929 8.39737547,7.30228226 8.15885659,7.44143454 C7.92033772,7.58058683 7.61417475,7.50003429 7.47502247,7.26151542 C7.16555825,6.73106738 7,6.12702741 7,5.5 C7,3.56700338 8.56700338,2 10.5,2 Z"/></svg>