<svg width="16" height="16" fill="none" viewBox="0 0 16 16">
  <path fill="#242424" fill-rule="evenodd" d="M12 1a.5.5 0 0 1 .5.5V3h2a.5.5 0 0 1 .5.5v11a.5.5 0 0 1-.5.5h-13a.5.5 0 0 1-.5-.5v-11a.5.5 0 0 1 .5-.5h2V1.5a.5.5 0 0 1 1 0V3h7V1.5A.5.5 0 0 1 12 1Zm2 5H2v8h12V6ZM9.146 9.146a.5.5 0 0 1 .708 0L11 10.293l1.146-1.147a.5.5 0 0 1 .765.638l-.057.07L11.707 11l1.147 1.146.057.07a.5.5 0 0 1-.765.638L11 11.707l-1.146 1.147a.5.5 0 0 1-.765-.638l.057-.07L10.293 11 9.146 9.854l-.057-.07a.5.5 0 0 1 .057-.638Z" clip-rule="evenodd"/>
</svg>
