<svg width="16" height="16" viewBox="0 0 16 16" fill="none" xmlns="http://www.w3.org/2000/svg">
<path fill-rule="evenodd" clip-rule="evenodd" d="M12 1C12.2761 1 12.5 1.22386 12.5 1.5V3H14.5C14.7761 3 15 3.22386 15 3.5V14.5C15 14.7761 14.7761 15 14.5 15H1.5C1.22386 15 1 14.7761 1 14.5V3.5C1 3.22386 1.22386 3 1.5 3H3.5V1.5C3.5 1.22386 3.72386 1 4 1C4.27614 1 4.5 1.22386 4.5 1.5V3H11.5V1.5C11.5 1.22386 11.7239 1 12 1ZM14 6H2V14H14V6ZM9.14645 9.14645C9.34171 8.95118 9.65829 8.95118 9.85355 9.14645L11 10.293L12.1464 9.14645C12.3417 8.95118 12.6583 8.95118 12.8536 9.14645C13.0271 9.32001 13.0464 9.58944 12.9114 9.78431L12.8536 9.85355L11.707 11L12.8536 12.1464L12.9114 12.2157C13.0464 12.4106 13.0271 12.68 12.8536 12.8536C12.6583 13.0488 12.3417 13.0488 12.1464 12.8536L11 11.707L9.85355 12.8536C9.65829 13.0488 9.34171 13.0488 9.14645 12.8536C8.97288 12.68 8.9536 12.4106 9.08859 12.2157L9.14645 12.1464L10.293 11L9.14645 9.85355L9.08859 9.78431C8.9536 9.58944 8.97288 9.32001 9.14645 9.14645Z" fill="#242424"/>
</svg>
