<svg xmlns="http://www.w3.org/2000/svg" width="16" height="16" viewBox="0 0 16 16"><path fill="#242424" fill-rule="evenodd" d="M11.5,1.5 C11.5,1.22385763 11.7238576,1 12,1 C12.2761424,1 12.5,1.22385763 12.5,1.5 L12.5,3 L14.5,3 C14.7761424,3 15,3.22385763 15,3.5 L15,14.5 C15,14.7761424 14.7761424,15 14.5,15 L1.5,15 C1.22385763,15 1,14.7761424 1,14.5 L1,3.5 C1,3.22385763 1.22385763,3 1.5,3 L3.5,3 L3.5,1.5 C3.5,1.22385763 3.72385763,1 4,1 C4.27614237,1 4.5,1.22385763 4.5,1.5 L4.5,3 L11.5,3 L11.5,1.5 Z M14,6 L2,6 L2,14 L14,14 L14,6 Z M12.5,9 C12.7761424,9 13,9.22385763 13,9.5 L13,12.5 C13,12.7761424 12.7761424,13 12.5,13 L9.5,13 C9.22385763,13 9,12.7761424 9,12.5 L9,9.5 C9,9.22385763 9.22385763,9 9.5,9 L12.5,9 Z M12,10 L10,10 L10,12 L12,12 L12,10 Z"/></svg>