<svg width="16" height="16" viewBox="0 0 16 16" fill="none" xmlns="http://www.w3.org/2000/svg">
<path fill-rule="evenodd" clip-rule="evenodd" d="M4 1C4.27614 1 4.5 1.22386 4.5 1.5V3H11.5V1.5C11.5 1.22386 11.7239 1 12 1C12.2761 1 12.5 1.22386 12.5 1.5V3H14.5C14.7761 3 15 3.22386 15 3.5V6V14.5C15 14.7761 14.7761 15 14.5 15H1.5C1.22386 15 1 14.7761 1 14.5V6V3.5C1 3.22386 1.22386 3 1.5 3H3.5V1.5C3.5 1.22386 3.72386 1 4 1ZM2 6H14V14H2V6ZM13 9.5C13 9.22386 12.7761 9 12.5 9H9.5C9.22386 9 9 9.22386 9 9.5V12.5C9 12.7761 9.22386 13 9.5 13H12.5C12.7761 13 13 12.7761 13 12.5V9.5ZM10 10H12V12H10V10Z" fill="#242424"/>
</svg>
