<svg width="16" height="16" fill="none" viewBox="0 0 16 16">
  <path fill="#242424" fill-rule="evenodd" d="M4.44 6.976 2.317 4.855l-.036-.04-.043-.063-.03-.06-.025-.08-.01-.068-.002-.043.003-.056.014-.074.02-.062.03-.06.048-.068.031-.034 2.121-2.12a.5.5 0 0 1 .765.637l-.058.07L3.88 4.001 8.33 4a.5.5 0 0 1 .09.992L8.328 5h-4.45l1.268 1.27a.5.5 0 0 1 .058.638l-.058.069a.5.5 0 0 1-.637.058l-.07-.058Zm7.156 2.05 2.121 2.121.036.04.043.063.03.06.026.08.01.068.002.043-.003.056-.014.074-.021.062-.03.06-.048.068-.03.034-2.122 2.12a.5.5 0 0 1-.765-.637l.058-.07L12.156 12l-4.449.001a.5.5 0 0 1-.09-.992l.09-.008h4.45l-1.268-1.268a.5.5 0 0 1-.058-.638l.058-.069a.5.5 0 0 1 .638-.058l.07.058ZM5.5 9.001h-5a.5.5 0 0 0-.5.5v4a.5.5 0 0 0 .5.5h5a.5.5 0 0 0 .5-.5v-4a.5.5 0 0 0-.5-.5Zm-.5 1v3H1v-3h4Zm10.5-8h-5a.5.5 0 0 0-.5.5v4a.5.5 0 0 0 .5.5h5a.5.5 0 0 0 .5-.5v-4a.5.5 0 0 0-.5-.5Zm-.5 1v3h-4v-3h4Z" clip-rule="evenodd"/>
</svg>
