<svg width="16" height="16" viewBox="0 0 16 16" fill="none" xmlns="http://www.w3.org/2000/svg">
<path fill-rule="evenodd" clip-rule="evenodd" d="M4.43934 6.97486L2.31802 4.85354L2.28224 4.81376L2.23915 4.75118L2.20966 4.69173L2.18379 4.61015L2.17338 4.54261L2.17157 4.49998L2.17469 4.44385L2.18861 4.37024L2.20984 4.30779L2.23916 4.24878L2.28712 4.18028L2.31802 4.14643L4.43934 2.02511C4.6346 1.82985 4.95118 1.82985 5.14645 2.02511C5.32001 2.19868 5.3393 2.4681 5.2043 2.66297L5.14645 2.73222L3.87931 4.00077L8.32843 3.99998C8.60457 3.99998 8.82843 4.22384 8.82843 4.49998C8.82843 4.74544 8.65155 4.94959 8.4183 4.99193L8.32843 4.99998L3.87931 5.00061L5.14645 6.26775C5.32001 6.44132 5.3393 6.71074 5.2043 6.90561L5.14645 6.97486C4.97288 7.14842 4.70346 7.16771 4.50859 7.03271L4.43934 6.97486ZM11.5962 9.02511L13.7175 11.1464L13.7533 11.1862L13.7964 11.2488L13.8259 11.3082L13.8517 11.3898L13.8622 11.4574L13.864 11.5L13.8608 11.5561L13.8469 11.6297L13.8257 11.6922L13.7964 11.7512L13.7484 11.8197L13.7175 11.8535L11.5962 13.9749C11.4009 14.1701 11.0843 14.1701 10.8891 13.9749C10.7155 13.8013 10.6962 13.5319 10.8312 13.337L10.8891 13.2677L12.1562 11.9992L7.70711 12C7.43096 12 7.20711 11.7761 7.20711 11.5C7.20711 11.2545 7.38398 11.0504 7.61723 11.008L7.70711 11L12.1562 10.9994L10.8891 9.73222C10.7155 9.55865 10.6962 9.28922 10.8312 9.09436L10.8891 9.02511C11.0627 8.85154 11.3321 8.83226 11.5269 8.96725L11.5962 9.02511ZM5.5 8.99998H0.5C0.223858 8.99998 0 9.22384 0 9.49998V13.5C0 13.7761 0.223858 14 0.5 14H5.5C5.77614 14 6 13.7761 6 13.5V9.49998C6 9.22384 5.77614 8.99998 5.5 8.99998ZM5 9.99998V13H1V9.99998H5ZM15.5 1.99998H10.5C10.2239 1.99998 10 2.22384 10 2.49998V6.49998C10 6.77612 10.2239 6.99998 10.5 6.99998H15.5C15.7761 6.99998 16 6.77612 16 6.49998V2.49998C16 2.22384 15.7761 1.99998 15.5 1.99998ZM15 2.99998V5.99998H11V2.99998H15Z" fill="#242424"/>
</svg>
