<svg width="16" height="16" viewBox="0 0 16 16" fill="none" xmlns="http://www.w3.org/2000/svg">
<path d="M7.00001 7C7.00001 7.41421 6.66422 7.75 6.25001 7.75C5.83579 7.75 5.50001 7.41421 5.50001 7C5.50001 6.58579 5.83579 6.25 6.25001 6.25C6.66422 6.25 7.00001 6.58579 7.00001 7Z" fill="#242424"/>
<path d="M5.66897 8.87528C5.87592 8.69246 6.19189 8.71201 6.37472 8.91896C6.65724 9.23875 7.16412 9.61419 7.74061 9.72042C8.27402 9.81871 8.93407 9.70138 9.62529 8.91896C9.80812 8.71201 10.1241 8.69246 10.331 8.87528C10.538 9.05811 10.5576 9.37409 10.3747 9.58104C9.46595 10.6097 8.45933 10.8697 7.5594 10.7039C6.70256 10.546 6.00944 10.0159 5.62529 9.58104C5.44246 9.37409 5.46202 9.05811 5.66897 8.87528Z" fill="#242424"/>
<path d="M9.75001 7.75C10.1642 7.75 10.5 7.41421 10.5 7C10.5 6.58579 10.1642 6.25 9.75001 6.25C9.33579 6.25 9.00001 6.58579 9.00001 7C9.00001 7.41421 9.33579 7.75 9.75001 7.75Z" fill="#242424"/>
<path fill-rule="evenodd" clip-rule="evenodd" d="M8.5 3.42753C9.22287 3.21239 9.75 2.54276 9.75 1.75C9.75 0.783502 8.9665 0 8 0C7.0335 0 6.25 0.783502 6.25 1.75C6.25 2.54276 6.77713 3.21239 7.5 3.42753V4H4C2.89543 4 2 4.89543 2 6C1.44772 6 1 6.44772 1 7V10C1 10.5523 1.44772 11 2 11C2 12.1046 2.89543 13 4 13H5V16L9 13H12C13.1046 13 14 12.1046 14 11C14.5523 11 15 10.5523 15 10V7C15 6.44772 14.5523 6 14 6C14 4.89543 13.1046 4 12 4H8.5V3.42753ZM8.75 1.75C8.75 2.16421 8.41421 2.5 8 2.5C7.58579 2.5 7.25 2.16421 7.25 1.75C7.25 1.33579 7.58579 1 8 1C8.41421 1 8.75 1.33579 8.75 1.75ZM8.66667 12L6 14V12H4C3.44772 12 3 11.5523 3 11V6C3 5.44772 3.44772 5 4 5H12C12.5523 5 13 5.44772 13 6V11C13 11.5523 12.5523 12 12 12H8.66667Z" fill="#242424"/>
</svg>
