<svg width="16" height="16" viewBox="0 0 16 16" fill="none" xmlns="http://www.w3.org/2000/svg">
<path fill-rule="evenodd" clip-rule="evenodd" d="M2 10V13L6 10V11C6 12.1046 6.89543 13 8 13H10L14 16V13C15.1046 13 16 12.1046 16 11V7C16 5.89543 15.1046 5 14 5H12V3C12 1.89543 11.1046 1 10 1H2C0.895431 1 0 1.89543 0 3V8C0 9.10457 0.895431 10 2 10ZM5.66667 9L3 11V9H2C1.44772 9 1 8.55228 1 8V3C1 2.44772 1.44772 2 2 2H10C10.5523 2 11 2.44772 11 3V8C11 8.55228 10.5523 9 10 9H5.66667ZM12 6V8C12 9.10457 11.1046 10 10 10H7V11C7 11.5523 7.44772 12 8 12H10.3333L13 14V12H14C14.5523 12 15 11.5523 15 11V7C15 6.44772 14.5523 6 14 6H12Z" fill="#242424"/>
</svg>
