<svg width="16" height="16" viewBox="0 0 16 16" fill="none" xmlns="http://www.w3.org/2000/svg">
<path fill-rule="evenodd" clip-rule="evenodd" d="M8 16C12.4183 16 16 12.4183 16 8C16 3.58172 12.4183 0 8 0C3.58172 0 0 3.58172 0 8C0 12.4183 3.58172 16 8 16ZM3.64645 8.14645C3.82001 7.97288 4.08944 7.9536 4.28431 8.08859L4.35355 8.14645L6.5 10.293L11.6464 5.14645C11.82 4.97288 12.0894 4.9536 12.2843 5.08859L12.3536 5.14645C12.5271 5.32001 12.5464 5.58944 12.4114 5.78431L12.3536 5.85355L6.85355 11.3536C6.67999 11.5271 6.41056 11.5464 6.21569 11.4114L6.14645 11.3536L3.64645 8.85355C3.45118 8.65829 3.45118 8.34171 3.64645 8.14645Z" fill="#242424"/>
</svg>
