<svg width="16" height="16" viewBox="0 0 16 16" fill="none" xmlns="http://www.w3.org/2000/svg">
<path d="M14.9859 4.09882C13.5813 1.58861 10.9296 0 8 0C3.58172 0 0 3.58172 0 8C0 12.4183 3.58172 16 8 16C12.4183 16 16 12.4183 16 8C16 7.72386 15.7761 7.5 15.5 7.5C15.2239 7.5 15 7.72386 15 8C15 11.866 11.866 15 8 15C4.13401 15 1 11.866 1 8C1 4.13401 4.13401 1 8 1C10.5639 1 12.8837 2.38979 14.1132 4.58713C14.248 4.82812 14.5527 4.91416 14.7937 4.77931C15.0347 4.64447 15.1207 4.3398 14.9859 4.09882Z" fill="#242424"/>
<path d="M4.28431 8.08859C4.08944 7.9536 3.82001 7.97288 3.64645 8.14645C3.45118 8.34171 3.45118 8.65829 3.64645 8.85355L6.14645 11.3536L6.21569 11.4114C6.41056 11.5464 6.67999 11.5271 6.85355 11.3536L12.3536 5.85355L12.4114 5.78431C12.5464 5.58944 12.5271 5.32001 12.3536 5.14645L12.2843 5.08859C12.0894 4.9536 11.82 4.97288 11.6464 5.14645L6.5 10.293L4.35355 8.14645L4.28431 8.08859Z" fill="#242424"/>
</svg>
