<svg xmlns="http://www.w3.org/2000/svg" width="16" height="16" viewBox="0 0 16 16"><path fill="#242424" fill-rule="evenodd" d="M8,0 C12.418278,0 16,3.581722 16,8 C16,12.418278 12.418278,16 8,16 C3.581722,16 0,12.418278 0,8 C0,3.581722 3.581722,0 8,0 Z M4.86167237,4.14783961 C4.66455289,3.95072013 4.34495908,3.95072013 4.14783961,4.14783961 C3.95072013,4.34495908 3.95072013,4.66455289 4.14783961,4.86167237 L4.14783961,4.86167237 L7.28564792,7.99937289 L4.14783961,11.1383276 C3.95072013,11.3354471 3.95072013,11.6550409 4.14783961,11.8521604 C4.34495908,12.0492799 4.66455289,12.0492799 4.86167237,11.8521604 L4.86167237,11.8521604 L7.99937289,8.71309785 L11.1383276,11.8521604 C11.3354471,12.0492799 11.6550409,12.0492799 11.8521604,11.8521604 C12.0492799,11.6550409 12.0492799,11.3354471 11.8521604,11.1383276 L11.8521604,11.1383276 L8.71309785,7.99937289 L11.8521604,4.86167237 C12.0492799,4.66455289 12.0492799,4.34495908 11.8521604,4.14783961 C11.6550409,3.95072013 11.3354471,3.95072013 11.1383276,4.14783961 L11.1383276,4.14783961 L7.99937289,7.28564792 Z"/></svg>