<svg width="16" height="16" viewBox="0 0 16 16" fill="none" xmlns="http://www.w3.org/2000/svg">
<path fill-rule="evenodd" clip-rule="evenodd" d="M8 16C12.4183 16 16 12.4183 16 8C16 3.58172 12.4183 0 8 0C3.58172 0 0 3.58172 0 8C0 12.4183 3.58172 16 8 16ZM7.99937 7.28565L4.86167 4.14784C4.66455 3.95072 4.34496 3.95072 4.14784 4.14784C3.95072 4.34496 3.95072 4.66455 4.14784 4.86167L7.28565 7.99937L4.14784 11.1383C3.95072 11.3354 3.95072 11.655 4.14784 11.8522C4.34496 12.0493 4.66455 12.0493 4.86167 11.8522L7.99937 8.7131L11.1383 11.8522C11.3354 12.0493 11.655 12.0493 11.8522 11.8522C12.0493 11.655 12.0493 11.3354 11.8522 11.1383L8.7131 7.99937L11.8522 4.86167C12.0493 4.66455 12.0493 4.34496 11.8522 4.14784C11.655 3.95072 11.3354 3.95072 11.1383 4.14784L7.99937 7.28565Z" fill="#242424"/>
</svg>
