<svg width="16" height="16" viewBox="0 0 16 16" fill="none" xmlns="http://www.w3.org/2000/svg">
<path fill-rule="evenodd" clip-rule="evenodd" d="M1.86167 1.14784L7.99937 7.28565L14.1383 1.14784C14.3354 0.95072 14.655 0.95072 14.8522 1.14784C15.0493 1.34496 15.0493 1.66455 14.8522 1.86167L8.7131 7.99937L14.8522 14.1383C15.0493 14.3354 15.0493 14.655 14.8522 14.8522C14.655 15.0493 14.3354 15.0493 14.1383 14.8522L7.99937 8.7131L1.86167 14.8522C1.66455 15.0493 1.34496 15.0493 1.14784 14.8522C0.95072 14.655 0.95072 14.3354 1.14784 14.1383L7.28565 7.99937L1.14784 1.86167C0.95072 1.66455 0.95072 1.34496 1.14784 1.14784C1.34496 0.95072 1.66455 0.95072 1.86167 1.14784Z" fill="#242424"/>
</svg>
