<svg width="16" height="16" viewBox="0 0 16 16" fill="none" xmlns="http://www.w3.org/2000/svg">
<path fill-rule="evenodd" clip-rule="evenodd" d="M9 2.5C9 2.25454 9.17688 2.05039 9.41012 2.00806L9.5 2H12.5C12.7761 2 13 2.22386 13 2.5C13 2.74546 12.8231 2.94961 12.5899 2.99194L12.5 3H10V13H15V2.5C15 2.25454 15.1769 2.05039 15.4101 2.00806L15.5 2C15.7455 2 15.9496 2.17688 15.9919 2.41012L16 2.5V13.5C16 13.7455 15.8231 13.9496 15.5899 13.9919L15.5 14H9.5C9.25454 14 9.05039 13.8231 9.00806 13.5899L9 13.5V2.5ZM0 2.5C0 2.25454 0.176875 2.05039 0.410124 2.00806L0.5 2H3.5C3.77614 2 4 2.22386 4 2.5C4 2.74546 3.82312 2.94961 3.58988 2.99194L3.5 3H1V13H6V2.5C6 2.25454 6.17688 2.05039 6.41012 2.00806L6.5 2C6.74546 2 6.94961 2.17688 6.99194 2.41012L7 2.5V13.5C7 13.7455 6.82312 13.9496 6.58988 13.9919L6.5 14H0.5C0.25454 14 0.0503916 13.8231 0.00805567 13.5899L0 13.5V2.5Z" fill="#242424"/>
</svg>
