<svg width="16" height="16" viewBox="0 0 16 16" fill="none" xmlns="http://www.w3.org/2000/svg">
<path d="M1.25 1C0.835786 1 0.5 1.33579 0.5 1.75V14.25C0.5 14.6642 0.835786 15 1.25 15H2.75C3.16421 15 3.5 14.6642 3.5 14.25V4.5C3.5 4.22386 3.27614 4 3 4C2.72386 4 2.5 4.22386 2.5 4.5V14H1.5V2H3C3.27614 2 3.5 1.77614 3.5 1.5C3.5 1.22386 3.27614 1 3 1H1.25Z" fill="#242424"/>
<path d="M5.25 1C4.83579 1 4.5 1.33579 4.5 1.75V14.25C4.5 14.6642 4.83579 15 5.25 15H6.75C7.16421 15 7.5 14.6642 7.5 14.25V4.5C7.5 4.22386 7.27614 4 7 4C6.72386 4 6.5 4.22386 6.5 4.5V14H5.5V2H7C7.27614 2 7.5 1.77614 7.5 1.5C7.5 1.22386 7.27614 1 7 1H5.25Z" fill="#242424"/>
<path d="M8.5 1.75C8.5 1.33579 8.83579 1 9.25 1H11C11.2761 1 11.5 1.22386 11.5 1.5C11.5 1.77614 11.2761 2 11 2H9.5V14H10.5V4.5C10.5 4.22386 10.7239 4 11 4C11.2761 4 11.5 4.22386 11.5 4.5V14.25C11.5 14.6642 11.1642 15 10.75 15H9.25C8.83579 15 8.5 14.6642 8.5 14.25V1.75Z" fill="#242424"/>
<path d="M13.25 1C12.8358 1 12.5 1.33579 12.5 1.75V14.25C12.5 14.6642 12.8358 15 13.25 15H14.75C15.1642 15 15.5 14.6642 15.5 14.25V4.5C15.5 4.22386 15.2761 4 15 4C14.7239 4 14.5 4.22386 14.5 4.5V14H13.5V2H15C15.2761 2 15.5 1.77614 15.5 1.5C15.5 1.22386 15.2761 1 15 1H13.25Z" fill="#242424"/>
</svg>
