<svg width="16" height="16" viewBox="0 0 16 16" fill="none" xmlns="http://www.w3.org/2000/svg">
<path fill-rule="evenodd" clip-rule="evenodd" d="M3 2.5C3 2.25454 3.17688 2.05039 3.41012 2.00806L3.5 2H9.5C9.77614 2 10 2.22386 10 2.5C10 2.74546 9.82312 2.94961 9.58988 2.99194L9.5 3H4V13H12V2.5C12 2.25454 12.1769 2.05039 12.4101 2.00806L12.5 2C12.7455 2 12.9496 2.17688 12.9919 2.41012L13 2.5V13.5C13 13.7455 12.8231 13.9496 12.5899 13.9919L12.5 14H3.5C3.25454 14 3.05039 13.8231 3.00806 13.5899L3 13.5V2.5Z" fill="#242424"/>
</svg>
