<svg width="16" height="16" fill="none" viewBox="0 0 16 16">
  <path fill="#242424" fill-rule="evenodd" d="M12 2.501a.5.5 0 0 1 .41-.492l.09-.008h1a.5.5 0 0 1 .09.992L13.5 3H13v10h2V2.5a.5.5 0 0 1 .41-.492L15.5 2a.5.5 0 0 1 .492.41L16 2.5v11a.5.5 0 0 1-.41.492L15.5 14h-3a.5.5 0 0 1-.492-.41L12 13.5v-11Zm-6 0a.5.5 0 0 1 .41-.492l.09-.008h1a.5.5 0 0 1 .09.992L7.5 3H7v10h2V2.5a.5.5 0 0 1 .41-.492L9.5 2a.5.5 0 0 1 .492.41L10 2.5v11a.5.5 0 0 1-.41.492L9.5 14h-3a.5.5 0 0 1-.492-.41L6 13.5v-11Zm-6 0a.5.5 0 0 1 .41-.492l.09-.008h1a.5.5 0 0 1 .09.992L1.5 3H1v10h2V2.5a.5.5 0 0 1 .41-.492L3.5 2a.5.5 0 0 1 .492.41L4 2.5v11a.5.5 0 0 1-.41.492L3.5 14h-3a.5.5 0 0 1-.492-.41L0 13.5v-11Z" clip-rule="evenodd"/>
</svg>
