<svg width="16" height="16" fill="none" viewBox="0 0 16 16">
  <path fill="#242424" fill-rule="evenodd" d="M9 2.501a.5.5 0 0 1 .41-.492l.09-.008h3a.5.5 0 0 1 .09.992L12.5 3H10v10h5V2.5a.5.5 0 0 1 .41-.492L15.5 2a.5.5 0 0 1 .492.41L16 2.5v11a.5.5 0 0 1-.41.492L15.5 14h-6a.5.5 0 0 1-.492-.41L9 13.5v-11Zm-9 0a.5.5 0 0 1 .41-.492l.09-.008h3a.5.5 0 0 1 .09.992L3.5 3H1v10h5V2.5a.5.5 0 0 1 .41-.492L6.5 2a.5.5 0 0 1 .492.41L7 2.5v11a.5.5 0 0 1-.41.492L6.5 14h-6a.5.5 0 0 1-.492-.41L0 13.5v-11Z" clip-rule="evenodd"/>
</svg>
