<svg width="16" height="16" fill="none" viewBox="0 0 16 16" xmlns="http://www.w3.org/2000/svg">
  <path fill="#242424" d="M1.25 1.001a.75.75 0 0 0-.75.75v12.5c0 .414.336.75.75.75h1.5a.75.75 0 0 0 .75-.75v-9.75a.5.5 0 1 0-1 0v9.5h-1v-12H3a.5.5 0 0 0 0-1H1.25Zm4 0a.75.75 0 0 0-.75.75v12.5c0 .414.336.75.75.75h1.5a.75.75 0 0 0 .75-.75v-9.75a.5.5 0 1 0-1 0v9.5h-1v-12H7a.5.5 0 0 0 0-1H5.25Zm3.25.75a.75.75 0 0 1 .75-.75H11a.5.5 0 0 1 0 1H9.5v12h1v-9.5a.5.5 0 0 1 1 0v9.75a.75.75 0 0 1-.75.75h-1.5a.75.75 0 0 1-.75-.75v-12.5Zm4.75-.75a.75.75 0 0 0-.75.75v12.5c0 .414.336.75.75.75h1.5a.75.75 0 0 0 .75-.75v-9.75a.5.5 0 0 0-1 0v9.5h-1v-12H15a.5.5 0 0 0 0-1h-1.75Z"/>
</svg>

