<svg width="16" height="16" viewBox="0 0 16 16" fill="none" xmlns="http://www.w3.org/2000/svg">
<path fill-rule="evenodd" clip-rule="evenodd" d="M12 2.5C12 2.25454 12.1769 2.05039 12.4101 2.00806L12.5 2H13.5C13.7761 2 14 2.22386 14 2.5C14 2.74546 13.8231 2.94961 13.5899 2.99194L13.5 3H13V13H15V2.5C15 2.25454 15.1769 2.05039 15.4101 2.00806L15.5 2C15.7455 2 15.9496 2.17688 15.9919 2.41012L16 2.5V13.5C16 13.7455 15.8231 13.9496 15.5899 13.9919L15.5 14H12.5C12.2545 14 12.0504 13.8231 12.0081 13.5899L12 13.5V2.5ZM6 2.5C6 2.25454 6.17688 2.05039 6.41012 2.00806L6.5 2H7.5C7.77614 2 8 2.22386 8 2.5C8 2.74546 7.82312 2.94961 7.58988 2.99194L7.5 3H7V13H9V2.5C9 2.25454 9.17688 2.05039 9.41012 2.00806L9.5 2C9.74546 2 9.94961 2.17688 9.99194 2.41012L10 2.5V13.5C10 13.7455 9.82312 13.9496 9.58988 13.9919L9.5 14H6.5C6.25454 14 6.05039 13.8231 6.00806 13.5899L6 13.5V2.5ZM0 2.5C0 2.25454 0.176875 2.05039 0.410124 2.00806L0.5 2H1.5C1.77614 2 2 2.22386 2 2.5C2 2.74546 1.82312 2.94961 1.58988 2.99194L1.5 3H1V13H3V2.5C3 2.25454 3.17688 2.05039 3.41012 2.00806L3.5 2C3.74546 2 3.94961 2.17688 3.99194 2.41012L4 2.5V13.5C4 13.7455 3.82312 13.9496 3.58988 13.9919L3.5 14H0.5C0.25454 14 0.0503916 13.8231 0.00805567 13.5899L0 13.5V2.5Z" fill="#242424"/>
</svg>
