<svg width="16" height="16" viewBox="0 0 16 16" fill="none" xmlns="http://www.w3.org/2000/svg">
<g clip-path="url(#clip0_6992_220)">
<path fill-rule="evenodd" clip-rule="evenodd" d="M5.03544 6.4239C4.74204 6.38297 4.44106 6.35957 4.13006 6.35957C3.05153 6.35957 2.07972 6.5967 1.21507 7.07098C0.758257 7.3214 0.353214 7.62243 0 7.97397L0 5.12777C0 3.34473 0.185651 2.69816 0.534265 2.04631C0.88288 1.39446 1.39446 0.88288 2.04631 0.534265C2.69816 0.185651 3.34473 0 5.12777 0H10.8722C12.6553 0 13.3018 0.185651 13.9537 0.534265C14.2948 0.716696 14.5975 0.943754 14.8585 1.21219L6.75495 8.60378C7.07096 8.8546 7.3439 9.14923 7.57227 9.48949L14.974 1.33666C15.1627 1.55008 15.3271 1.7871 15.4657 2.04631C15.6286 2.35088 15.7559 2.65429 15.8453 3.07302L7.93615 10.1614C8.12337 10.6012 8.23127 11.0736 8.25824 11.5791L15.8453 3.07302C15.9473 3.55043 16 4.17804 16 5.12777V10.8722C16 12.6553 15.8143 13.3018 15.4657 13.9537C15.1171 14.6055 14.6055 15.1171 13.9537 15.4657C13.3018 15.8143 12.6553 16 10.8722 16H7.91403C8.37032 15.6184 8.75216 15.1661 9.05946 14.6431C9.54787 13.812 9.79191 12.8762 9.79191 11.836C9.79191 11.6511 9.78381 11.4697 9.76803 11.2916L8.19235 12.6555C8.10866 13.1131 7.9531 13.5414 7.72409 13.9393C7.36288 14.5665 6.86935 15.0588 6.24373 15.4156C5.61799 15.7726 4.91326 15.9509 4.13006 15.9509C3.34643 15.9509 2.63679 15.7726 2.00104 15.4156C1.53149 15.1522 1.13686 14.8149 0.817147 14.404C0.713436 14.2624 0.619033 14.1122 0.534265 13.9537C0.209903 13.3472 0.0266189 12.7453 0.00268774 11.2282C0.0735649 10.6902 0.241117 10.1916 0.505428 9.73262C0.866537 9.10541 1.36507 8.6135 2.00104 8.25635C2.57016 7.93693 3.1993 7.7622 3.88687 7.72886L5.03544 6.4239ZM6.09233 8.17663L11.4208 2.04758L4.85995 7.77844C5.299 7.84716 5.70979 7.97989 6.09233 8.17663Z" fill="#242424"/>
</g>
<defs>
<clipPath id="clip0_6992_220">
<rect width="16" height="16" fill="white"/>
</clipPath>
</defs>
</svg>
