<svg width="16" height="16" viewBox="0 0 16 16" fill="none" xmlns="http://www.w3.org/2000/svg">
<g clip-path="url(#clip0_7221_31833)">
<path fill-rule="evenodd" clip-rule="evenodd" d="M5.13132 5.87743C5.41166 5.87743 5.68296 5.89906 5.94744 5.93689L4.91211 7.14291C4.29233 7.17373 3.72521 7.33521 3.21221 7.63042C2.63894 7.96049 2.18955 8.41511 1.86405 8.99477C1.53844 9.57442 1.37574 10.2225 1.37574 10.9387C1.37574 11.655 1.53844 12.303 1.86405 12.8826C2.18955 13.4622 2.63894 13.9171 3.21221 14.2469C3.78528 14.5769 4.42495 14.7416 5.13132 14.7416C5.83731 14.7416 6.47256 14.5769 7.0366 14.2469C7.60054 13.9171 8.04541 13.4622 8.37101 12.8826C8.57745 12.5148 8.71766 12.119 8.79311 11.6961L10.2134 10.4356C10.2277 10.6002 10.235 10.7678 10.235 10.9387C10.235 11.9 10.015 12.7648 9.57473 13.5329C9.13447 14.3012 8.52449 14.9043 7.74508 15.3425C6.96548 15.7808 6.0942 16 5.13132 16C4.15913 16 3.28313 15.7808 2.50372 15.3425C1.72422 14.9043 1.11193 14.2988 0.667255 13.5258C0.22229 12.7531 0 11.8908 0 10.9387C0 9.98686 0.22229 9.12435 0.667255 8.35151C1.11193 7.57877 1.72422 6.97304 2.50372 6.53491C3.28313 6.09659 4.15913 5.87743 5.13132 5.87743ZM15.6931 2.83862L8.8525 10.7012C8.82818 10.2341 8.73093 9.79753 8.56217 9.39101L15.6931 2.83862ZM16 0L8.23416 8.77007C8.0283 8.4556 7.78228 8.18331 7.49742 7.95151L16 0ZM11.7033 1.89235L6.90013 7.55674C6.55531 7.37491 6.18501 7.25225 5.78925 7.18874L11.7033 1.89235Z" fill="#242424"/>
</g>
<defs>
<clipPath id="clip0_7221_31833">
<rect width="16" height="16" fill="white"/>
</clipPath>
</defs>
</svg>
