<svg width="16" height="16" fill="none" viewBox="0 0 16 16">
  <path fill="#242424" d="M7.996 0a.5.5 0 0 1 .09.992L7.996 1 3.5.999v14h5V12.5a.5.5 0 0 1 .41-.492L9 12h2a.5.5 0 0 1 .5.5v2.499h1v-14L11 1a.5.5 0 0 1-.492-.41L10.5.5a.5.5 0 0 1 .41-.492L11 0h2a.5.5 0 0 1 .492.41L13.5.5V15h2a.5.5 0 0 1 .09.992L15.5 16H.5a.5.5 0 0 1-.09-.992L.5 15h2V.5a.5.5 0 0 1 .41-.492L3 0h4.996ZM10.5 13h-1v1.999h1V13Zm-4-1a.5.5 0 0 1 .09.992L6.5 13h-1a.5.5 0 0 1-.09-.992L5.5 12h1Zm0-3a.5.5 0 0 1 .09.992L6.5 10h-1a.5.5 0 0 1-.09-.992L5.5 9h1Zm4 0a.5.5 0 0 1 .09.992L10.5 10h-1a.5.5 0 0 1-.09-.992L9.5 9h1Zm-4-3a.5.5 0 0 1 .09.992L6.5 7h-1a.5.5 0 0 1-.09-.992L5.5 6h1Zm4 0a.5.5 0 0 1 .09.992L10.5 7h-1a.5.5 0 0 1-.09-.992L9.5 6h1Zm-4-3a.5.5 0 0 1 .09.992L6.5 4h-1a.5.5 0 0 1-.09-.992L5.5 3h1Zm4 0a.5.5 0 0 1 .09.992L10.5 4h-1a.5.5 0 0 1-.09-.992L9.5 3h1Z"/>
</svg>
