<svg width="16" height="16" viewBox="0 0 16 16" fill="none" xmlns="http://www.w3.org/2000/svg">
<g clip-path="url(#clip0_1249_19503)">
<path d="M7.99568 0C8.27183 0 8.49568 0.223858 8.49568 0.5C8.49568 0.74546 8.31881 0.949608 8.08556 0.991944L7.99568 1L3.5 0.999V14.999H8.5V12.5C8.5 12.2545 8.67688 12.0504 8.91012 12.0081L9 12H11C11.2761 12 11.5 12.2239 11.5 12.5V14.999H12.5V0.999L11 1C10.7545 1 10.5504 0.823125 10.5081 0.589876L10.5 0.5C10.5 0.25454 10.6769 0.0503916 10.9101 0.00805567L11 0H13C13.2455 0 13.4496 0.176875 13.4919 0.410124L13.5 0.5V15H15.5C15.7761 15 16 15.2239 16 15.5C16 15.7455 15.8231 15.9496 15.5899 15.9919L15.5 16H0.5C0.223858 16 0 15.7761 0 15.5C0 15.2545 0.176875 15.0504 0.410124 15.0081L0.5 15H2.5V0.5C2.5 0.25454 2.67688 0.0503916 2.91012 0.00805567L3 0H7.99568ZM10.5 13H9.5V14.999H10.5V13ZM6.5 12C6.77614 12 7 12.2239 7 12.5C7 12.7455 6.82312 12.9496 6.58988 12.9919L6.5 13H5.5C5.22386 13 5 12.7761 5 12.5C5 12.2545 5.17688 12.0504 5.41012 12.0081L5.5 12H6.5ZM6.5 9C6.77614 9 7 9.22386 7 9.5C7 9.74546 6.82312 9.94961 6.58988 9.99194L6.5 10H5.5C5.22386 10 5 9.77614 5 9.5C5 9.25454 5.17688 9.05039 5.41012 9.00806L5.5 9H6.5ZM10.5 9C10.7761 9 11 9.22386 11 9.5C11 9.74546 10.8231 9.94961 10.5899 9.99194L10.5 10H9.5C9.22386 10 9 9.77614 9 9.5C9 9.25454 9.17688 9.05039 9.41012 9.00806L9.5 9H10.5ZM6.5 6C6.77614 6 7 6.22386 7 6.5C7 6.74546 6.82312 6.94961 6.58988 6.99194L6.5 7H5.5C5.22386 7 5 6.77614 5 6.5C5 6.25454 5.17688 6.05039 5.41012 6.00806L5.5 6H6.5ZM10.5 6C10.7761 6 11 6.22386 11 6.5C11 6.74546 10.8231 6.94961 10.5899 6.99194L10.5 7H9.5C9.22386 7 9 6.77614 9 6.5C9 6.25454 9.17688 6.05039 9.41012 6.00806L9.5 6H10.5ZM6.5 3C6.77614 3 7 3.22386 7 3.5C7 3.74546 6.82312 3.94961 6.58988 3.99194L6.5 4H5.5C5.22386 4 5 3.77614 5 3.5C5 3.25454 5.17688 3.05039 5.41012 3.00806L5.5 3H6.5ZM10.5 3C10.7761 3 11 3.22386 11 3.5C11 3.74546 10.8231 3.94961 10.5899 3.99194L10.5 4H9.5C9.22386 4 9 3.77614 9 3.5C9 3.25454 9.17688 3.05039 9.41012 3.00806L9.5 3H10.5Z" fill="#242424"/>
</g>
<defs>
<clipPath id="clip0_1249_19503">
<rect width="16" height="16" fill="white"/>
</clipPath>
</defs>
</svg>
