<svg width="16" height="16" fill="none" viewBox="0 0 16 16">
  <path fill="#242424" fill-rule="evenodd" d="M14.68 1.333a.332.332 0 0 0-.468-.052L9.72 4.898 5.23 1.28a.332.332 0 0 0-.416.517L9.72 5.75l4.907-3.952a.332.332 0 0 0 .052-.465Zm-2.647 3.993c.13-.13.34-.13.47 0l2.177 2.191a.332.332 0 1 1-.47.468l-2.177-2.192a.332.332 0 0 1 0-.467Zm-4.624 0a.332.332 0 0 0-.47 0L4.761 7.517a.332.332 0 1 0 .47.468L7.41 5.793a.332.332 0 0 0 0-.467Z M15.5 0a.5.5 0 0 1 .5.5v8.317a.5.5 0 0 1-.5.5H4.33c.06.08.124.162.194.247l.21.247c.19.214.414.45.69.728l.16.16c.626.62 1.036.957 1.494 1.248l.234.142c.08.047.162.093.249.141l.138.077a.119.119 0 0 0 .154-.035l.729-.943a.914.914 0 0 1 1.23-.199l2.496 1.675c.406.273.529.82.277 1.242l-.621 1.043a1.67 1.67 0 0 1-.989.77c-1.944.538-4.408-.449-7.4-3.46C.585 9.387-.395 6.907.14 4.943c.117-.416.39-.77.755-.984l1.044-.631a.913.913 0 0 1 1.233.28l.27.406V.5a.5.5 0 0 1 .5-.5H15.5ZM4.102 8.652V7.78l.535-.418a.929.929 0 0 0 .201-1.239l-.736-1.11V.666H15.34v7.986H4.102Zm.185-2.161L2.622 3.978a.255.255 0 0 0-.344-.078l-1.043.63a1.01 1.01 0 0 0-.478.669l-.033.15-.027.159c-.011.081-.02.166-.025.253l-.007.18c0 .06 0 .123.003.187l.012.197c.117 1.302.92 3.144 3.362 5.604 2.192 2.207 3.89 3.085 5.152 3.326l.211.036c.035.005.07.01.103.013l.2.018c.227.015.437.009.63-.014l.162-.023.154-.03.145-.037c.25-.071.462-.237.593-.463l.625-1.05a.258.258 0 0 0-.077-.346l-2.496-1.675a.256.256 0 0 0-.343.056l-.727.94a.776.776 0 0 1-.998.208l-.323-.18-.205-.12-.148-.093-.16-.107-.174-.124-.188-.144-.205-.166-.223-.191a13.382 13.382 0 0 1-.243-.22l-.264-.25a20.56 20.56 0 0 1-.287-.283l-.282-.29-.249-.265-.217-.245a11.27 11.27 0 0 1-.099-.114l-.177-.216a8.764 8.764 0 0 1-.08-.1l-.142-.19a7.116 7.116 0 0 1-.064-.09l-.114-.167-.144-.229-.082-.14-.215-.39a.787.787 0 0 1 .205-1.006l.935-.731a.26.26 0 0 0 .056-.346Z" clip-rule="evenodd"/>
</svg>
