<svg xmlns="http://www.w3.org/2000/svg" width="16" height="16" fill="none" viewBox="0 0 16 16">
  <path fill="#242424" d="M16 1.333A.337.337 0 0 0 15.66 1H5.34c-.188 0-.34.15-.34.333v7.334c0 .184.152.333.34.333h10.32c.188 0 .34-.15.34-.333V1.333Zm-10.421.238h9.842V8.43H5.579V1.57Zm8.854.529c.126-.1.31-.08.41.044.1.123.08.301-.045.4L10.5 5.937 6.202 2.544a.281.281 0 0 1-.045-.4.295.295 0 0 1 .41-.044L10.5 5.205 14.433 2.1Zm-1.496 3.473a.295.295 0 0 0-.412 0 .28.28 0 0 0 0 .401l1.906 1.882a.295.295 0 0 0 .413 0 .28.28 0 0 0 0-.402l-1.907-1.881Zm-4.462 0a.295.295 0 0 0-.412 0L6.156 7.454a.28.28 0 0 0 0 .402.295.295 0 0 0 .413 0l1.906-1.882a.28.28 0 0 0 0-.401ZM.942 4.138l.887-.532a1.142 1.142 0 0 1 1.536.347l1.42 2.129c.329.497.22 1.163-.251 1.532L3.91 8.1l.13.226c.137.226.276.423.449.632l.176.205.096.106.218.232.258.261.136.135c.505.496.837.771 1.205 1.003l.194.118.129.072.488-.626c.345-.44.95-.56 1.437-.303l.095.057 2.127 1.417c.507.338.659 1.014.346 1.538l-.528.879c-.232.397-.608.69-1.058.817-1.88.517-4.12-.486-6.656-3.02C.616 9.31-.385 7.072.133 5.184c.126-.441.417-.818.81-1.047Zm3.241 2.344L2.764 4.353a.42.42 0 0 0-.564-.127l-.89.534c-.234.137-.407.36-.481.62-.435 1.58.462 3.585 2.834 5.956 2.371 2.372 4.376 3.27 5.95 2.837.268-.076.492-.25.632-.49l.53-.883a.42.42 0 0 0-.128-.565L8.522 10.82a.421.421 0 0 0-.564.089l-.62.796a.462.462 0 0 1-.59.126l-.118-.065-.226-.127-.205-.124c-.423-.266-.794-.573-1.334-1.104l-.278-.278-.25-.26c-.077-.081-.148-.16-.216-.235l-.184-.215c-.2-.242-.36-.467-.518-.729l-.123-.212-.123-.223a.462.462 0 0 1 .118-.592l.799-.621a.42.42 0 0 0 .093-.563Z"/>
</svg>
