<svg width="16" height="16" viewBox="0 0 16 16" fill="none" xmlns="http://www.w3.org/2000/svg">
<path fill-rule="evenodd" clip-rule="evenodd" d="M15.5 0C15.7761 0 16 0.223858 16 0.5V8.81726C16 9.09341 15.7761 9.31726 15.5 9.31726H4.32857C4.38894 9.39771 4.4531 9.47932 4.5223 9.56354L4.73358 9.81108C4.92275 10.0252 5.14689 10.2616 5.42275 10.5393L5.58354 10.6998C6.20819 11.3181 6.61841 11.656 7.07614 11.9466L7.31018 12.089C7.39033 12.1358 7.473 12.1825 7.55942 12.23L7.69812 12.3067C7.74923 12.3355 7.81356 12.3221 7.85188 12.2718L8.58029 11.329C8.87533 10.9506 9.40928 10.8633 9.81057 11.13L12.3062 12.805C12.713 13.078 12.8354 13.6245 12.5839 14.0471L11.9623 15.0905C11.7456 15.4646 11.3936 15.7398 10.974 15.8602C9.02999 16.3984 6.56544 15.4114 3.57425 12.3995C0.583707 9.38834 -0.396143 6.90752 0.13927 4.94449C0.257054 4.52811 0.530183 4.17373 0.89465 3.95957L1.93912 3.32851C2.35831 3.07637 2.9003 3.19933 3.17152 3.60821L3.4409 4.01489V0.5C3.4409 0.223858 3.66476 0 3.9409 0H15.5ZM4.10191 8.65174V7.78042L4.63628 7.36193C5.01463 7.06357 5.10142 6.52515 4.83758 6.12346L4.10191 5.01281V0.665519H15.339V8.65174H4.10191ZM4.28623 6.49056L2.62183 3.97783C2.5462 3.86381 2.39502 3.82952 2.27812 3.89984L1.23477 4.53022C1.01079 4.66187 0.846041 4.87563 0.774994 5.12679C0.768524 5.15051 0.762279 5.17457 0.756276 5.19897L0.72328 5.34941L0.696849 5.50802C0.685404 5.58937 0.67671 5.67382 0.671202 5.76138L0.664565 5.94069C0.663855 6.00185 0.66469 6.06441 0.667198 6.12838L0.679874 6.32452C0.796584 7.62705 1.59876 9.46919 4.04167 11.929C6.23402 14.1364 7.93251 15.0139 9.19327 15.2555L9.40512 15.2909C9.43972 15.2958 9.47396 15.3002 9.50785 15.3041L9.70695 15.3222C9.93432 15.3371 10.1445 15.3305 10.3379 15.3079L10.4997 15.2849L10.6532 15.2548L10.7987 15.2185C11.0482 15.1469 11.2606 14.9809 11.3913 14.7553L12.0171 13.7048C12.0871 13.5871 12.053 13.4348 11.9396 13.3587L9.44393 11.6838C9.3323 11.6096 9.18283 11.634 9.10022 11.7399L8.37363 12.6804C8.13818 12.9894 7.71316 13.0776 7.37552 12.8876L7.05298 12.7088L6.84807 12.5888L6.69943 12.4954L6.53924 12.3881L6.36584 12.264L6.17758 12.1203L5.97279 11.9543L5.74984 11.763C5.67231 11.6948 5.59148 11.6218 5.50706 11.5438L5.2428 11.2937C5.15095 11.2049 5.05525 11.1104 4.95541 11.01L4.67355 10.7207L4.42512 10.4546L4.20732 10.2102C4.17342 10.1712 4.14067 10.133 4.10903 10.0956L3.93194 9.88049C3.90447 9.84614 3.87799 9.81251 3.85244 9.77957L3.70976 9.59C3.68768 9.5597 3.66641 9.53002 3.6459 9.50093L3.53135 9.33316L3.38726 9.10434L3.30562 8.96459L3.09032 8.57309C2.90156 8.23324 2.98919 7.80542 3.29603 7.56842L4.23043 6.83662C4.33578 6.75354 4.36004 6.60293 4.28623 6.49056ZM14.6794 1.33276C14.5648 1.18858 14.3548 1.16524 14.2113 1.28074L9.72045 4.89755L5.22956 1.28074C5.08614 1.16524 4.8761 1.18858 4.76155 1.33276C4.64805 1.47559 4.67113 1.68325 4.8132 1.79769L9.72045 5.75029L14.6277 1.79769C14.7698 1.68325 14.7928 1.47559 14.6794 1.33276ZM12.0324 5.32575C12.1621 5.19518 12.3733 5.19518 12.503 5.32575L14.6796 7.51723C14.808 7.64656 14.808 7.8553 14.6796 7.98462C14.5499 8.1152 14.3387 8.1152 14.209 7.98462L12.0324 5.79314C11.9039 5.66382 11.9039 5.45507 12.0324 5.32575ZM7.40852 5.32575C7.27883 5.19518 7.06763 5.19518 6.93794 5.32575L4.76132 7.51723C4.63287 7.64656 4.63287 7.8553 4.76132 7.98462C4.89101 8.1152 5.10221 8.1152 5.2319 7.98462L7.40852 5.79314C7.53697 5.66382 7.53697 5.45507 7.40852 5.32575Z" fill="#242424"/>
</svg>
