<svg width="16" height="16" viewBox="0 0 16 16" fill="none" xmlns="http://www.w3.org/2000/svg">
<path fill-rule="evenodd" clip-rule="evenodd" d="M8.00097 5.64706C7.23627 5.64706 6.61636 6.27913 6.61636 7.05882C6.61636 7.83852 7.23627 8.47059 8.00097 8.47059C8.76567 8.47059 9.38558 7.83852 9.38558 7.05882C9.38558 6.27913 8.76567 5.64706 8.00097 5.64706ZM5.69328 7.05882C5.69328 5.75933 6.72647 4.70588 8.00097 4.70588C9.27547 4.70588 10.3087 5.75933 10.3087 7.05882C10.3087 8.35832 9.27547 9.41177 8.00097 9.41177C6.72647 9.41177 5.69328 8.35832 5.69328 7.05882Z" fill="#242424"/>
<path fill-rule="evenodd" clip-rule="evenodd" d="M5.55986 10.182C5.83857 9.99253 6.18944 9.88235 6.61636 9.88235H9.38558C10.0899 9.88235 10.5746 10.1921 10.8678 10.6074C11.1441 10.9987 11.2317 11.4541 11.2317 11.7647V13.1765C11.2317 13.4364 11.0251 13.6471 10.7702 13.6471C10.5153 13.6471 10.3087 13.4364 10.3087 13.1765V11.7647C10.3087 11.6047 10.2578 11.3543 10.1187 11.1573C9.9966 10.9844 9.789 10.8235 9.38558 10.8235H6.61636C6.35096 10.8235 6.18261 10.8898 6.07189 10.9651C5.95829 11.0423 5.87679 11.1486 5.81763 11.2693C5.75757 11.3918 5.72523 11.5199 5.70863 11.6215C5.70052 11.6711 5.69664 11.7115 5.69481 11.7376C5.6939 11.7505 5.69352 11.7597 5.69336 11.7645L5.69328 11.7676V12.7059H9.38558C9.64048 12.7059 9.84712 12.9166 9.84712 13.1765C9.84712 13.4364 9.64048 13.6471 9.38558 13.6471H5.23174C4.97684 13.6471 4.7702 13.4364 4.7702 13.1765V11.7647H5.23174C4.7702 11.7647 4.7702 11.7647 4.7702 11.7647L4.77021 11.7626L4.77022 11.7599L4.77031 11.7531L4.7708 11.7332C4.77132 11.7173 4.77229 11.6962 4.77408 11.6705C4.77766 11.6194 4.7846 11.5495 4.79812 11.4668C4.82479 11.3036 4.879 11.0788 4.99201 10.8484C5.10592 10.6161 5.28404 10.3695 5.55986 10.182Z" fill="#242424"/>
<path fill-rule="evenodd" clip-rule="evenodd" d="M3.38559 0.941176C3.13069 0.941176 2.92405 1.15187 2.92405 1.41176V14.5882C2.92405 14.8481 3.13069 15.0588 3.38559 15.0588H12.6163C12.8712 15.0588 13.0779 14.8481 13.0779 14.5882V7.52941C13.0779 7.26951 13.2845 7.05882 13.5394 7.05882C13.7943 7.05882 14.001 7.26951 14.001 7.52941V14.5882C14.001 15.3679 13.3811 16 12.6163 16H3.38559C2.62089 16 2.00098 15.3679 2.00098 14.5882V1.41176C2.00098 0.632069 2.62089 0 3.38559 0H10.3087C10.4311 0 10.5485 0.0495797 10.635 0.137832L13.8658 3.43195C13.9978 3.56654 14.0373 3.76895 13.9658 3.94479C13.8944 4.12064 13.7261 4.23529 13.5394 4.23529H10.3087C10.0538 4.23529 9.84712 4.0246 9.84712 3.76471V0.941176H3.38559ZM10.7702 1.60669L12.4252 3.29412H10.7702V1.60669Z" fill="#242424"/>
</svg>
