<svg xmlns="http://www.w3.org/2000/svg" width="16" height="16" viewBox="0 0 16 16"><path fill="#242424" fill-rule="evenodd" d="M7.66873895,0.709257072 L7.62601422,0.780051304 L7.57167996,0.86014022 C7.38056921,1.15810895 7.27908154,1.5024922 7.27908154,1.86066975 C7.27908154,2.65390434 7.78367425,3.35817589 8.53204703,3.61761623 C8.74409004,3.69112574 8.87973725,3.89856149 8.8620656,4.1222905 C8.85558614,4.20432266 8.85233033,4.28714182 8.85233033,4.37025276 C8.85233033,6.08233561 10.2394858,7.47387528 11.9575782,7.48466591 C12.1652112,7.48596997 12.3497753,7.61721836 12.4191722,7.81291748 C12.6820076,8.55411353 13.3867737,9.05321865 14.1803077,9.05321865 C14.558126,9.05321865 14.9205858,8.94163831 15.2297039,8.73186537 C15.5863087,8.48986715 16.0599044,8.78965582 15.9937604,9.21551739 C15.3888041,13.1104669 12.0131115,15.9995764 8.0446374,15.9995764 C3.60196353,15.9995764 0,12.4083531 0,7.97777833 C0,3.88009841 3.10054137,0.440639623 7.17253291,0.00261330916 C7.56782559,-0.0399085358 7.83643045,0.372567913 7.66873895,0.709257072 Z M6.369,1.156 L6.32919213,1.16518747 C3.24151045,1.93324899 1,4.71999904 1,7.97777833 C1,11.8552434 4.15342493,14.9995764 8.0446374,14.9995764 C11.1043088,14.9995764 13.7648647,13.0378787 14.7167493,10.2386741 L14.797,9.986 L14.6086199,10.0214296 C14.5381574,10.0319748 14.4671504,10.0399221 14.3957235,10.045233 L14.1803077,10.0532186 C13.0929337,10.0532186 12.1111399,9.44141605 11.6264607,8.49471894 L11.614,8.468 L11.5442069,8.46227852 C9.53583983,8.25310184 7.95710215,6.60718861 7.85733798,4.5747465 L7.853,4.414 L7.68888005,4.32432576 C6.88176541,3.84931328 6.34891,3.00165042 6.28545586,2.05190069 L6.27908154,1.86066975 C6.27908154,1.65496241 6.30099981,1.45159401 6.34470326,1.2523477 L6.369,1.156 Z M5.33319883,12.6662166 C5.5172891,12.6662166 5.66652376,12.815453 5.66652376,12.9995455 C5.66652376,13.183638 5.5172891,13.3328744 5.33319883,13.3328744 C5.14910856,13.3328744 4.9998739,13.183638 4.9998739,12.9995455 C4.9998739,12.815453 5.14910856,12.6662166 5.33319883,12.6662166 Z M9.66642288,12.3328877 C9.85051315,12.3328877 9.9997478,12.4821241 9.9997478,12.6662166 C9.9997478,12.8503091 9.85051315,12.9995455 9.66642288,12.9995455 C9.4823326,12.9995455 9.33309795,12.8503091 9.33309795,12.6662166 C9.33309795,12.4821241 9.4823326,12.3328877 9.66642288,12.3328877 Z M4.66654898,10.3329141 C5.2188198,10.3329141 5.66652376,10.7806235 5.66652376,11.3329009 C5.66652376,11.8851784 5.2188198,12.3328877 4.66654898,12.3328877 C4.11427815,12.3328877 3.66657419,11.8851784 3.66657419,11.3329009 C3.66657419,10.7806235 4.11427815,10.3329141 4.66654898,10.3329141 Z M10.6663977,9.66625631 C11.2186685,9.66625631 11.6663724,10.1139656 11.6663724,10.6662431 C11.6663724,11.2185205 11.2186685,11.6662298 10.6663977,11.6662298 C10.1141268,11.6662298 9.66642288,11.2185205 9.66642288,10.6662431 C9.66642288,10.1139656 10.1141268,9.66625631 10.6663977,9.66625631 Z M8.6664481,10.999572 C8.85053837,10.999572 8.99977302,11.1488084 8.99977302,11.3329009 C8.99977302,11.5169934 8.85053837,11.6662298 8.6664481,11.6662298 C8.48235782,11.6662298 8.33312317,11.5169934 8.33312317,11.3329009 C8.33312317,11.1488084 8.48235782,10.999572 8.6664481,10.999572 Z M5.99984868,6.99962494 C6.18393896,6.99962494 6.33317361,7.14886138 6.33317361,7.33295386 C6.33317361,7.51704634 6.18393896,7.66628278 5.99984868,7.66628278 C5.81575841,7.66628278 5.66652376,7.51704634 5.66652376,7.33295386 C5.66652376,7.14886138 5.81575841,6.99962494 5.99984868,6.99962494 Z M3.66657419,5.33298034 C4.21884502,5.33298034 4.66654898,5.78068966 4.66654898,6.3329671 C4.66654898,6.88524454 4.21884502,7.33295386 3.66657419,7.33295386 C3.11430337,7.33295386 2.66659941,6.88524454 2.66659941,6.3329671 C2.66659941,5.78068966 3.11430337,5.33298034 3.66657419,5.33298034 Z M14.3329719,6.66629602 C14.5170621,6.66629602 14.6662968,6.81553246 14.6662968,6.99962494 C14.6662968,7.18371742 14.5170621,7.33295386 14.3329719,7.33295386 C14.1488816,7.33295386 13.9996469,7.18371742 13.9996469,6.99962494 C13.9996469,6.81553246 14.1488816,6.66629602 14.3329719,6.66629602 Z M12.3330223,5.33298034 C12.5171126,5.33298034 12.6663472,5.48221678 12.6663472,5.66630926 C12.6663472,5.85040174 12.5171126,5.99963818 12.3330223,5.99963818 C12.148932,5.99963818 11.9996974,5.85040174 11.9996974,5.66630926 C11.9996974,5.48221678 12.148932,5.33298034 12.3330223,5.33298034 Z M13.9996469,3.99966465 C14.1837372,3.99966465 14.3329719,4.14890109 14.3329719,4.33299357 C14.3329719,4.51708605 14.1837372,4.66632249 13.9996469,4.66632249 C13.8155567,4.66632249 13.666322,4.51708605 13.666322,4.33299357 C13.666322,4.14890109 13.8155567,3.99966465 13.9996469,3.99966465 Z M12.3330223,2.33302005 C12.5171126,2.33302005 12.6663472,2.48225649 12.6663472,2.66634897 C12.6663472,2.85044145 12.5171126,2.99967789 12.3330223,2.99967789 C12.148932,2.99967789 11.9996974,2.85044145 11.9996974,2.66634897 C11.9996974,2.48225649 12.148932,2.33302005 12.3330223,2.33302005 Z M10.3330727,1.99969113 C10.517163,1.99969113 10.6663977,2.14892757 10.6663977,2.33302005 C10.6663977,2.51711253 10.517163,2.66634897 10.3330727,2.66634897 C10.1489825,2.66634897 9.9997478,2.51711253 9.9997478,2.33302005 C9.9997478,2.14892757 10.1489825,1.99969113 10.3330727,1.99969113 Z M5.33319883,1.99969113 C5.5172891,1.99969113 5.66652376,2.14892757 5.66652376,2.33302005 C5.66652376,2.51711253 5.5172891,2.66634897 5.33319883,2.66634897 C5.14910856,2.66634897 4.9998739,2.51711253 4.9998739,2.33302005 C4.9998739,2.14892757 5.14910856,1.99969113 5.33319883,1.99969113 Z"/></svg>