<svg width="16" height="16" viewBox="0 0 16 16" fill="none" xmlns="http://www.w3.org/2000/svg">
<path fill-rule="evenodd" clip-rule="evenodd" d="M7.17253 0.00260966C7.56783 -0.0399122 7.83643 0.372564 7.66874 0.709253L7.62601 0.780048L7.57168 0.860137C7.38057 1.15811 7.27908 1.50249 7.27908 1.86067C7.27908 2.6539 7.78367 3.35817 8.53205 3.61761C8.74409 3.69112 8.87974 3.89856 8.86207 4.12229C8.85559 4.20432 8.85233 4.28714 8.85233 4.37025C8.85233 6.08233 10.2395 7.47387 11.9576 7.48466C12.1652 7.48597 12.3498 7.61721 12.4192 7.81291C12.682 8.55411 13.3868 9.05322 14.1803 9.05322C14.5581 9.05322 14.9206 8.94164 15.2297 8.73186C15.5863 8.48986 16.0599 8.78965 15.9938 9.21551C15.3888 13.1105 12.0131 15.9996 8.04464 15.9996C3.60196 15.9996 0 12.4083 0 7.97777C0 3.88009 3.10054 0.440636 7.17253 0.00260966ZM6.3447 1.25234L6.369 1.156L6.32919 1.16518C3.24151 1.93325 1 4.72 1 7.97777C1 11.8552 4.15342 14.9996 8.04464 14.9996C11.1043 14.9996 13.7649 13.0379 14.7167 10.2387L14.797 9.986L14.6086 10.0214C14.5382 10.032 14.4672 10.0399 14.3957 10.0452L14.1803 10.0532C13.0929 10.0532 12.1111 9.44141 11.6265 8.49471L11.614 8.468L11.5442 8.46227C9.53584 8.2531 7.9571 6.60718 7.85734 4.57474L7.853 4.414L7.68888 4.32432C6.88177 3.84931 6.34891 3.00165 6.28546 2.0519L6.27908 1.86067C6.27908 1.65496 6.301 1.45159 6.3447 1.25234ZM10.3331 2.66635C10.5172 2.66635 10.6664 2.51711 10.6664 2.33302C10.6664 2.14892 10.5172 1.99969 10.3331 1.99969C10.149 1.99969 9.99975 2.14892 9.99975 2.33302C9.99975 2.51711 10.149 2.66635 10.3331 2.66635ZM3.66657 7.33295C4.21885 7.33295 4.66655 6.88524 4.66655 6.33296C4.66655 5.78069 4.21885 5.33298 3.66657 5.33298C3.1143 5.33298 2.6666 5.78069 2.6666 6.33296C2.6666 6.88524 3.1143 7.33295 3.66657 7.33295ZM4.66655 12.3329C5.21882 12.3329 5.66652 11.8852 5.66652 11.3329C5.66652 10.7806 5.21882 10.3329 4.66655 10.3329C4.11428 10.3329 3.66657 10.7806 3.66657 11.3329C3.66657 11.8852 4.11428 12.3329 4.66655 12.3329ZM11.6664 10.6662C11.6664 11.2185 11.2187 11.6662 10.6664 11.6662C10.1141 11.6662 9.66642 11.2185 9.66642 10.6662C9.66642 10.114 10.1141 9.66625 10.6664 9.66625C11.2187 9.66625 11.6664 10.114 11.6664 10.6662ZM6.33317 7.33295C6.33317 7.51704 6.18394 7.66628 5.99985 7.66628C5.81576 7.66628 5.66652 7.51704 5.66652 7.33295C5.66652 7.14886 5.81576 6.99962 5.99985 6.99962C6.18394 6.99962 6.33317 7.14886 6.33317 7.33295ZM9.66642 12.9995C9.85051 12.9995 9.99975 12.8503 9.99975 12.6662C9.99975 12.4821 9.85051 12.3329 9.66642 12.3329C9.48233 12.3329 9.3331 12.4821 9.3331 12.6662C9.3331 12.8503 9.48233 12.9995 9.66642 12.9995ZM8.99977 11.3329C8.99977 11.517 8.85054 11.6662 8.66645 11.6662C8.48236 11.6662 8.33312 11.517 8.33312 11.3329C8.33312 11.1488 8.48236 10.9996 8.66645 10.9996C8.85054 10.9996 8.99977 11.1488 8.99977 11.3329ZM5.3332 2.66635C5.51729 2.66635 5.66652 2.51711 5.66652 2.33302C5.66652 2.14892 5.51729 1.99969 5.3332 1.99969C5.14911 1.99969 4.99987 2.14892 4.99987 2.33302C4.99987 2.51711 5.14911 2.66635 5.3332 2.66635ZM5.66652 12.9995C5.66652 13.1836 5.51729 13.3329 5.3332 13.3329C5.14911 13.3329 4.99987 13.1836 4.99987 12.9995C4.99987 12.8154 5.14911 12.6662 5.3332 12.6662C5.51729 12.6662 5.66652 12.8154 5.66652 12.9995ZM12.333 2.99967C12.5171 2.99967 12.6663 2.85044 12.6663 2.66635C12.6663 2.48225 12.5171 2.33302 12.333 2.33302C12.1489 2.33302 11.9997 2.48225 11.9997 2.66635C11.9997 2.85044 12.1489 2.99967 12.333 2.99967ZM14.333 4.33299C14.333 4.51708 14.1837 4.66632 13.9996 4.66632C13.8156 4.66632 13.6663 4.51708 13.6663 4.33299C13.6663 4.1489 13.8156 3.99966 13.9996 3.99966C14.1837 3.99966 14.333 4.1489 14.333 4.33299ZM12.333 5.99963C12.5171 5.99963 12.6663 5.8504 12.6663 5.66631C12.6663 5.48221 12.5171 5.33298 12.333 5.33298C12.1489 5.33298 11.9997 5.48221 11.9997 5.66631C11.9997 5.8504 12.1489 5.99963 12.333 5.99963ZM14.6663 6.99962C14.6663 7.18371 14.5171 7.33295 14.333 7.33295C14.1489 7.33295 13.9996 7.18371 13.9996 6.99962C13.9996 6.81553 14.1489 6.66629 14.333 6.66629C14.5171 6.66629 14.6663 6.81553 14.6663 6.99962Z" fill="#242424"/>
</svg>
