<svg width="16" height="16" fill="none" viewBox="0 0 16 16">
  <path fill="#242424" fill-rule="evenodd" d="M3.667 7.333a1 1 0 1 0 0-2 1 1 0 0 0 0 2Zm1 5a1 1 0 1 0 0-2 1 1 0 0 0 0 2Zm6.999-1.666a1 1 0 1 1-2 0 1 1 0 0 1 2 0ZM6.333 7.333a.333.333 0 1 1-.666 0 .333.333 0 0 1 .666 0ZM9.666 13a.333.333 0 1 0 0-.667.333.333 0 0 0 0 .667ZM9 11.333a.333.333 0 1 1-.667 0 .333.333 0 0 1 .667 0ZM5.333 2.667a.333.333 0 1 0 0-.667.333.333 0 0 0 0 .667ZM5.667 13A.333.333 0 1 1 5 13a.333.333 0 0 1 .667 0Z M7.173.003a.493.493 0 0 1 .496.707l-.043.07-.054.08a1.861 1.861 0 0 0 .96 2.757.495.495 0 0 1 .33.506 3.12 3.12 0 0 0 3.096 3.362.493.493 0 0 1 .461.328 1.868 1.868 0 0 0 2.81.92.493.493 0 0 1 .765.483C15.389 13.11 12.014 16 8.044 16 3.603 16 0 12.409 0 7.978 0 3.881 3.1.441 7.173.003Zm-.828 1.25.024-.097-.04.01A7.031 7.031 0 0 0 1 7.978C1 11.856 4.153 15 8.045 15a7.05 7.05 0 0 0 6.672-4.76l.08-.254-.188.036c-.07.01-.142.018-.213.024l-.216.008a2.87 2.87 0 0 1-2.553-1.559l-.013-.027-.07-.005a4.12 4.12 0 0 1-3.687-3.888l-.004-.16-.164-.09a2.86 2.86 0 0 1-1.404-2.273l-.006-.19c0-.207.022-.41.066-.61Z M10.333 2.667a.333.333 0 1 0 0-.667.333.333 0 0 0 0 .667Zm2 .333a.333.333 0 1 0 0-.667.333.333 0 0 0 0 .667Zm2 1.333a.333.333 0 1 1-.667 0 .333.333 0 0 1 .667 0Zm-2 1.667a.333.333 0 1 0 0-.667.333.333 0 0 0 0 .667Zm2.333 1A.333.333 0 1 1 14 7a.333.333 0 0 1 .666 0Z" clip-rule="evenodd"/>
</svg>
