<svg width="16" height="16" viewBox="0 0 16 16" fill="none" xmlns="http://www.w3.org/2000/svg">
<path fill-rule="evenodd" clip-rule="evenodd" d="M2.5 0L6.53959 0.00156876L6.58988 0.00805567L6.65473 0.024544L6.72679 0.0543895L6.75236 0.0682647L6.82214 0.117594L7.70511 1H6H4H2.5C2.25454 1 2.05039 1.17688 2.00806 1.41012L2 1.5V12.5C2 12.7455 2.17688 12.9496 2.41012 12.9919L2.5 13H4V14H2.5C1.7203 14 1.07955 13.4051 1.00687 12.6445L1 12.5V1.5C1 0.720304 1.59489 0.0795513 2.35554 0.00686658L2.5 0ZM11 4.46491C11.0013 4.48598 11.0013 4.50705 11 4.52798V6H13.293L11 3.707V4.46491ZM10.5396 2.00157L6.5 2L6.35554 2.00687C5.59489 2.07955 5 2.7203 5 3.5V14.5L5.00687 14.6445C5.07955 15.4051 5.7203 16 6.5 16H13.5L13.6445 15.9931C14.4051 15.9204 15 15.2797 15 14.5V9L14.9919 8.91012C14.9496 8.67688 14.7455 8.5 14.5 8.5C14.2239 8.5 14 8.72386 14 9V14.5L13.9919 14.5899C13.9496 14.8231 13.7455 15 13.5 15H6.5L6.41012 14.9919C6.17688 14.9496 6 14.7455 6 14.5V3.5L6.00806 3.41012C6.05039 3.17688 6.25454 3 6.5 3H10V6.5L10.0081 6.58988C10.0504 6.82312 10.2545 7 10.5 7H14.5L14.586 6.99304C14.9728 6.92918 15.1475 6.44043 14.8536 6.14645L10.8221 2.11759L10.7524 2.06826L10.7268 2.05439L10.6547 2.02454L10.5899 2.00806L10.5396 2.00157Z" fill="#242424"/>
</svg>
