<svg xmlns="http://www.w3.org/2000/svg" width="16" height="16" fill="none" viewBox="0 0 16 16">
  <path fill="#242424" d="m2.5 0 4.04.002.05.006.064.017.072.03.026.013.07.05.883.882H2.5a.5.5 0 0 0-.492.41L2 1.5v11a.5.5 0 0 0 .41.492L2.5 13H4v1H2.5a1.5 1.5 0 0 1-1.494-1.355L1 12.5v-11A1.5 1.5 0 0 1 2.355.007L2.5 0Z M10.54 2.002 6.5 2l-.145.007A1.5 1.5 0 0 0 5 3.5v11l.006.145A1.5 1.5 0 0 0 6.5 16h7l.144-.007a1.5 1.5 0 0 0 1.355-1.493V9l-.008-.09A.5.5 0 0 0 14 9v5.5l-.008.09a.5.5 0 0 1-.492.41h-7l-.09-.008A.5.5 0 0 1 6 14.5v-11l.009-.09A.5.5 0 0 1 6.5 3H10v3.5l.008.09A.5.5 0 0 0 10.5 7h.5V3.7L13.3 6H11v1h3.5l.085-.007a.5.5 0 0 0 .268-.847l-4.031-4.028-.07-.05-.026-.014-.072-.03-.065-.016-.05-.006Z"/>
</svg>