<svg width="16" height="16" fill="none" viewBox="0 0 16 16">
  <path fill="#242424" fill-rule="evenodd" d="M5.541.002 1.501 0l-.144.007A1.5 1.5 0 0 0 .001 1.5v11l.007.145A1.5 1.5 0 0 0 1.501 14h1.5v-1h-1.5l-.09-.008a.5.5 0 0 1-.41-.492v-11l.009-.09A.5.5 0 0 1 1.5 1h5.206L5.824.118l-.07-.05-.026-.014-.072-.03-.065-.016-.05-.006Z m5.501 2 4.04.002.05.006.065.017.072.03.026.013.07.05 4.031 4.028a.5.5 0 0 1-.268.847L13.502 7h-4a.5.5 0 0 1-.492-.41L9 6.5V3H5.5a.5.5 0 0 0-.491.41L5 3.5v11a.5.5 0 0 0 .41.492L5.5 15h7a.5.5 0 0 0 .492-.41L13 14.5V14a.5.5 0 0 1 .992-.09L14 14v.5a1.5 1.5 0 0 1-1.355 1.493L12.5 16h-7a1.5 1.5 0 0 1-1.493-1.355L4 14.5v-11a1.5 1.5 0 0 1 1.356-1.493L5.501 2Zm4.5 2.528a.51.51 0 0 0 0-.063v-.758L12.294 6h-2.293V4.528Z m13.645 7.846-.07-.057a.5.5 0 0 0-.637.057l-.058.07a.5.5 0 0 0 .058.638L14.083 9.7H8.291l-.09.008a.5.5 0 0 0 .09.992h5.792l-1.145 1.147-.058.069a.5.5 0 0 0 .765.638l2.354-2.354-2.354-2.354Z" clip-rule="evenodd"/>
</svg>
