<svg width="16" height="16" viewBox="0 0 16 16" fill="none" xmlns="http://www.w3.org/2000/svg">
<path fill-rule="evenodd" clip-rule="evenodd" d="M5.53959 0.00156876L1.5 0L1.35554 0.00686658C0.594888 0.0795513 0 0.720304 0 1.5V12.5L0.00686658 12.6445C0.0795513 13.4051 0.720304 14 1.5 14H3V13H1.5L1.41012 12.9919C1.17688 12.9496 1 12.7455 1 12.5V1.5L1.00806 1.41012C1.05039 1.17688 1.25454 1 1.5 1H3H5H6.70511L5.82214 0.117594L5.75236 0.0682647L5.72679 0.0543895L5.65473 0.024544L5.58988 0.00805567L5.53959 0.00156876ZM10 4.52798C10.0013 4.50705 10.0013 4.48598 10 4.46491V3.707L12.293 6H10V4.52798ZM5.5 2L9.53959 2.00157L9.58988 2.00806L9.65473 2.02454L9.72679 2.05439L9.75236 2.06826L9.82214 2.11759L13.8536 6.14645C14.1475 6.44043 13.9728 6.92918 13.586 6.99304L13.5 7H9.5C9.25454 7 9.05039 6.82312 9.00806 6.58988L9 6.5V3H5.5C5.25454 3 5.05039 3.17688 5.00806 3.41012L5 3.5V14.5C5 14.7455 5.17688 14.9496 5.41012 14.9919L5.5 15H12.5C12.7455 15 12.9496 14.8231 12.9919 14.5899L13 14.5V14C13 13.7239 13.2239 13.5 13.5 13.5C13.7455 13.5 13.9496 13.6769 13.9919 13.9101L14 14V14.5C14 15.2797 13.4051 15.9204 12.6445 15.9931L12.5 16H5.5C4.7203 16 4.07955 15.4051 4.00687 14.6445L4 14.5V3.5C4 2.7203 4.59489 2.07955 5.35554 2.00687L5.5 2ZM10.1435 7.84646L10.2128 7.7886C10.4076 7.65361 10.6771 7.67289 10.8506 7.84646L10.9085 7.91571C11.0435 8.11057 11.0242 8.38 10.8506 8.55357L9.70509 9.70001H15.4971L15.587 9.70807C15.8202 9.7504 15.9971 9.95455 15.9971 10.2C15.9971 10.4762 15.7732 10.7 15.4971 10.7H9.70509L10.8506 11.8465L10.9085 11.9157C11.0435 12.1106 11.0242 12.38 10.8506 12.5536C10.6554 12.7488 10.3388 12.7488 10.1435 12.5536L7.78998 10.2L10.1435 7.84646Z" fill="#242424"/>
</svg>
