<svg xmlns="http://www.w3.org/2000/svg" width="16" height="16" fill="none" viewBox="0 0 16 16">
  <path fill="#242424" d="m1.5 0 4.04.002.05.006.065.017.072.03.025.013.07.05.883.882H1.5a.5.5 0 0 0-.492.41L1 1.5v11a.5.5 0 0 0 .41.492L1.5 13H3v1H1.5a1.5 1.5 0 0 1-1.493-1.355L0 12.5v-11A1.5 1.5 0 0 1 1.356.007L1.5 0Zm12.077 8.5.07.058L16 10.91l-2.354 2.354a.5.5 0 0 1-.764-.638l.057-.07 1.146-1.146H8.293a.5.5 0 0 1-.09-.992l.09-.008h5.792l-1.146-1.146a.5.5 0 0 1-.057-.638l.057-.07a.5.5 0 0 1 .638-.057Z M9.54 2.002 5.5 2l-.144.007A1.5 1.5 0 0 0 4 3.5v11l.007.145A1.5 1.5 0 0 0 5.5 16h8a.5.5 0 0 0 0-1h-8l-.09-.008A.5.5 0 0 1 5 14.5v-11l.008-.09A.5.5 0 0 1 5.5 3H9v3.5l.008.09A.5.5 0 0 0 9.5 7h.5V3.707L12.293 6H9.75v1h3.75l.086-.007a.5.5 0 0 0 .268-.847L9.822 2.118l-.07-.05-.025-.014-.072-.03-.065-.016-.05-.006Z"/>
</svg>
