<svg width="16" height="16" fill="none" viewBox="0 0 16 16">
  <path fill="#242424" fill-rule="evenodd" d="M5.541.003 1.501 0l-.144.007A1.5 1.5 0 0 0 .001 1.5v11l.007.144A1.5 1.5 0 0 0 1.501 14h1.5v-1h-1.5l-.09-.008a.5.5 0 0 1-.41-.492v-11l.009-.09A.5.5 0 0 1 1.501 1h5.206L5.824.119l-.07-.05-.026-.014-.072-.03L5.591.01l-.05-.006Zm5.501 2.001 4.04.002.05.006.065.017.072.03.026.013.07.05 4.031 4.028a.5.5 0 0 1-.268.847l-.085.007h-4a.5.5 0 0 1-.492-.41L9 6.5V3H5.5a.5.5 0 0 0-.491.41L5 3.501v11a.5.5 0 0 0 .41.492l.09.008h7a.5.5 0 0 0 .492-.41l.008-.09v-.5a.5.5 0 0 1 .992-.09l.008.09v.5a1.5 1.5 0 0 1-1.355 1.493l-.145.007h-7a1.5 1.5 0 0 1-1.493-1.356L4 14.501v-11a1.5 1.5 0 0 1 1.356-1.493L5.501 2Zm4.5 2.528a.51.51 0 0 0 0-.063v-.758l2.293 2.293h-2.293V4.529Z m10.145 7.847.07-.057a.5.5 0 0 1 .637.057l.058.07a.5.5 0 0 1-.058.638L9.707 9.7h5.792l.09.008a.5.5 0 0 1-.09.992H9.707l1.145 1.146.058.07a.5.5 0 0 1-.765.638L7.791 10.2l2.354-2.354Z" clip-rule="evenodd"/>
</svg>