<svg width="16" height="16" fill="none" viewBox="0 0 16 16">
  <path fill="#242424" d="M14.986 4.099A8 8 0 1 0 16 8a.5.5 0 0 0-1 0 7 7 0 1 1-.887-3.413.5.5 0 1 0 .873-.488Z M10.995 9.358H9.698a2.484 2.484 0 0 1-.238.861 1.194 1.194 0 0 1-.524.53c-.228.12-.527.181-.897.181a1.55 1.55 0 0 1-.783-.187 1.522 1.522 0 0 1-.54-.53 2.663 2.663 0 0 1-.31-.817 5.347 5.347 0 0 1-.1-1.07v-.658c0-.413.037-.78.11-1.101.076-.325.188-.597.337-.818.148-.221.333-.389.555-.503.221-.114.48-.171.778-.171.363 0 .656.064.881.192.225.125.394.307.508.546.118.239.194.526.229.86H11a3.427 3.427 0 0 0-.425-1.384 2.431 2.431 0 0 0-.965-.947C9.195 4.114 8.687 4 8.086 4c-.474 0-.901.086-1.281.257-.377.17-.7.419-.97.743-.27.32-.477.708-.622 1.16A5.07 5.07 0 0 0 5 7.68v.646c0 .56.07 1.066.207 1.519.142.453.346.84.612 1.16.267.318.586.564.96.738a2.99 2.99 0 0 0 1.26.257c.608 0 1.125-.114 1.55-.342a2.5 2.5 0 0 0 .99-.936c.236-.4.374-.854.416-1.364Z"/>
</svg>
