<svg width="16" height="16" viewBox="0 0 16 16" fill="none" xmlns="http://www.w3.org/2000/svg">
<path fill-rule="evenodd" clip-rule="evenodd" d="M14.9859 4.09882C13.5813 1.58861 10.9296 0 8 0C3.58172 0 0 3.58172 0 8C0 12.4183 3.58172 16 8 16C12.4183 16 16 12.4183 16 8C16 7.72386 15.7761 7.5 15.5 7.5C15.2239 7.5 15 7.72386 15 8C15 11.866 11.866 15 8 15C4.13401 15 1 11.866 1 8C1 4.13401 4.13401 1 8 1C10.5639 1 12.8837 2.38979 14.1132 4.58713C14.248 4.82812 14.5527 4.91416 14.7937 4.77931C15.0347 4.64447 15.1207 4.3398 14.9859 4.09882ZM10.9948 9.35829H9.69836C9.66033 9.69697 9.58081 9.98396 9.45981 10.2193C9.34226 10.451 9.16768 10.6275 8.93604 10.7487C8.70786 10.8699 8.40882 10.9305 8.03889 10.9305C7.73466 10.9305 7.47364 10.8681 7.25583 10.7433C7.03803 10.6185 6.85825 10.4421 6.71651 10.2139C6.57822 9.98574 6.4745 9.71301 6.40536 9.39572C6.33967 9.07487 6.30683 8.71836 6.30683 8.3262V7.66845C6.30683 7.2549 6.34313 6.8877 6.41573 6.56684C6.49179 6.24242 6.60415 5.9697 6.75281 5.74866C6.90147 5.52763 7.08643 5.36007 7.30769 5.24599C7.52895 5.13191 7.78825 5.07487 8.08557 5.07487C8.44857 5.07487 8.74244 5.13904 8.96716 5.26738C9.19188 5.39216 9.36128 5.57398 9.47537 5.81283C9.59291 6.05169 9.66897 6.33868 9.70354 6.6738H11C10.9481 6.1533 10.8064 5.69162 10.5748 5.28877C10.3466 4.88592 10.0251 4.57041 9.6102 4.34225C9.19533 4.11408 8.68712 4 8.08557 4C7.61193 4 7.18496 4.08556 6.80467 4.25668C6.42783 4.42781 6.10458 4.67558 5.83492 5C5.56526 5.32086 5.35782 5.70766 5.21262 6.16043C5.07087 6.61319 5 7.11943 5 7.67914V8.3262C5 8.88592 5.06914 9.39216 5.20743 9.84492C5.34918 10.2977 5.55315 10.6845 5.81936 11.0053C6.08557 11.3226 6.40536 11.5686 6.77874 11.7433C7.15212 11.9144 7.57217 12 8.03889 12C8.64736 12 9.16422 11.8859 9.58946 11.6578C10.0147 11.4296 10.3449 11.1176 10.5799 10.7219C10.815 10.3226 10.9533 9.86809 10.9948 9.35829Z" fill="#242424"/>
</svg>
