<svg width="16" height="16" viewBox="0 0 16 16" fill="none" xmlns="http://www.w3.org/2000/svg">
<path fill-rule="evenodd" clip-rule="evenodd" d="M9.14645 9.14645C8.97288 9.32001 8.9536 9.58944 9.08859 9.78431L9.14645 9.85355L13.292 14H11.5C11.2545 14 11.0504 14.1769 11.0081 14.4101L11 14.5C11 14.7455 11.1769 14.9496 11.4101 14.9919L11.5 15H14.5L14.5534 14.9972L14.6281 14.9834L14.691 14.9622L14.767 14.9228L14.8221 14.8824L14.8536 14.8536L14.891 14.8117L14.9333 14.7498L14.9624 14.6906L14.9834 14.6281L14.9979 14.5458L15 14.5V11.5C15 11.2239 14.7761 11 14.5 11C14.2545 11 14.0504 11.1769 14.0081 11.4101L14 11.5L13.999 13.293L9.85355 9.14645C9.65829 8.95118 9.34171 8.95118 9.14645 9.14645ZM1.5 1L1.44657 1.00282L1.37185 1.01661L1.30896 1.03779L1.23299 1.07719L1.17786 1.11758L1.14645 1.14645L1.10896 1.18834L1.06675 1.25023L1.03761 1.3094L1.01661 1.37186L1.00209 1.45421L1 1.5V4.5C1 4.77614 1.22386 5 1.5 5C1.74546 5 1.94961 4.82312 1.99194 4.58988L2 4.5L2.001 2.707L6.14645 6.85355C6.34171 7.04882 6.65829 7.04882 6.85355 6.85355C7.02712 6.67999 7.0464 6.41056 6.91141 6.21569L6.85355 6.14645L2.708 2H4.5C4.74546 2 4.94961 1.82312 4.99194 1.58988L5 1.5C5 1.25454 4.82312 1.05039 4.58988 1.00806L4.5 1H1.5Z" fill="#242424"/>
</svg>
