<svg xmlns="http://www.w3.org/2000/svg" width="16" height="16" viewBox="0 0 16 16"><path fill="#242424" fill-rule="evenodd" d="M3.5,0 C3.74545989,0 3.94960837,0.176875161 3.99194433,0.410124368 L4,0.5 L4,12 L15.5,12 C15.7454599,12 15.9496084,12.1768752 15.9919443,12.4101244 L16,12.5 C16,12.7454599 15.8231248,12.9496084 15.5898756,12.9919443 L15.5,13 L13,13 L13,15.5 C13,15.7761424 12.7761424,16 12.5,16 C12.2545401,16 12.0503916,15.8231248 12.0080557,15.5898756 L12,15.5 L12,13 L3.5,13 C3.25454011,13 3.05039163,12.8231248 3.00805567,12.5898756 L3,12.5 L3,4 L0.5,4 C0.223857625,4 -3.55271368e-15,3.77614237 -3.55271368e-15,3.5 C-3.55271368e-15,3.25454011 0.176875161,3.05039163 0.410124368,3.00805567 L0.5,3 L3,3 L3,0.5 C3,0.223857625 3.22385763,0 3.5,0 Z M12.5,3 C12.7454599,3 12.9496084,3.17687516 12.9919443,3.41012437 L13,3.5 L13,10 C13,10.2761424 12.7761424,10.5 12.5,10.5 C12.2545401,10.5 12.0503916,10.3231248 12.0080557,10.0898756 L12,10 L12,4 L6,4 C5.75454011,4 5.55039163,3.82312484 5.50805567,3.58987563 L5.5,3.5 C5.5,3.25454011 5.67687516,3.05039163 5.91012437,3.00805567 L6,3 L12.5,3 Z"/></svg>