<svg width="16" height="16" fill="none" viewBox="0 0 16 16">
  <path fill="#242424" fill-rule="evenodd" d="M9.146 9.147a.5.5 0 0 0-.057.638l.057.07L13.292 14H11.5a.5.5 0 0 0-.492.41L11 14.5a.5.5 0 0 0 .41.492l.09.008h3l.053-.003.075-.014.063-.02.076-.04.055-.04.032-.03.037-.041.042-.062.03-.06.02-.062.015-.082L15 14.5v-3a.5.5 0 0 0-.992-.09L14 11.5l-.001 1.793-4.145-4.147a.5.5 0 0 0-.708 0ZM1.5 1.001l-.053.003-.075.014-.063.02-.076.04-.055.04-.032.03-.037.041-.042.062-.03.06-.02.062-.015.082L1 1.501v3a.5.5 0 0 0 .992.09L2 4.5l.001-1.793 4.145 4.147a.5.5 0 0 0 .765-.638l-.057-.07L2.708 2H4.5a.5.5 0 0 0 .492-.41L5 1.5a.5.5 0 0 0-.41-.492L4.5 1h-3Z" clip-rule="evenodd"/>
</svg>
