<svg width="16" height="16" viewBox="0 0 16 16" fill="none" xmlns="http://www.w3.org/2000/svg">
<path fill-rule="evenodd" clip-rule="evenodd" d="M3.99194 0.410124C3.94961 0.176875 3.74546 0 3.5 0C3.22386 0 3 0.223858 3 0.5V3H0.5L0.410124 3.00806C0.176875 3.05039 0 3.25454 0 3.5C0 3.77614 0.223858 4 0.5 4H3V12.5L3.00806 12.5899C3.05039 12.8231 3.25454 13 3.5 13H12V15.5L12.0081 15.5899C12.0504 15.8231 12.2545 16 12.5 16C12.7761 16 13 15.7761 13 15.5V13H15.5L15.5899 12.9919C15.8231 12.9496 16 12.7455 16 12.5L15.9919 12.4101C15.9496 12.1769 15.7455 12 15.5 12H12.5H4V3.5V0.5L3.99194 0.410124ZM12.0081 10.0899C12.0504 10.3231 12.2545 10.5 12.5 10.5C12.7761 10.5 13 10.2761 13 10V3.5L12.9919 3.41012C12.9496 3.17688 12.7455 3 12.5 3H6L5.91012 3.00806C5.67688 3.05039 5.5 3.25454 5.5 3.5L5.50806 3.58988C5.55039 3.82312 5.75454 4 6 4H12V10L12.0081 10.0899Z" fill="#242424"/>
</svg>
