<svg width="16" height="16" viewBox="0 0 16 16" fill="none" xmlns="http://www.w3.org/2000/svg">
<path fill-rule="evenodd" clip-rule="evenodd" d="M14.9859 4.09882C13.5813 1.58861 10.9296 0 8 0C3.58172 0 0 3.58172 0 8C0 12.4183 3.58172 16 8 16C12.4183 16 16 12.4183 16 8C16 7.72386 15.7761 7.5 15.5 7.5C15.2239 7.5 15 7.72386 15 8C15 11.866 11.866 15 8 15C4.13401 15 1 11.866 1 8C1 4.13401 4.13401 1 8 1C10.5639 1 12.8837 2.38979 14.1132 4.58713C14.248 4.82812 14.5527 4.91416 14.7937 4.77931C15.0347 4.64447 15.1207 4.3398 14.9859 4.09882ZM4.46447 11.5355C4.2692 11.3403 4.2692 11.0237 4.46447 10.8284L7.29289 8L4.46447 5.17157C4.2692 4.97631 4.2692 4.65973 4.46447 4.46447C4.65973 4.2692 4.97631 4.2692 5.17157 4.46447L8 7.29289L10.8284 4.46447C11.0237 4.2692 11.3403 4.2692 11.5355 4.46447C11.7308 4.65973 11.7308 4.97631 11.5355 5.17157L8.70711 8L11.5355 10.8284C11.7308 11.0237 11.7308 11.3403 11.5355 11.5355C11.3403 11.7308 11.0237 11.7308 10.8284 11.5355L8 8.70711L5.17157 11.5355C4.97631 11.7308 4.65973 11.7308 4.46447 11.5355Z" fill="#242424"/>
</svg>
