<svg width="16" height="16" fill="none" viewBox="0 0 16 16">
  <path fill="#242424" fill-rule="evenodd" d="M9.54.003 3.5 0l-.145.007A1.5 1.5 0 0 0 2 1.5v13l.006.144A1.5 1.5 0 0 0 3.5 16.001h9l.144-.007a1.5 1.5 0 0 0 1.355-1.493v-7.5l-.008-.09a.5.5 0 0 0-.992.09v7.5l-.008.09a.5.5 0 0 1-.492.41h-9l-.09-.008A.5.5 0 0 1 3 14.5v-13l.009-.09A.5.5 0 0 1 3.501 1H9v3.5l.008.09A.5.5 0 0 0 9.5 5h4l.085-.007a.5.5 0 0 0 .268-.847L9.822.12l-.07-.05-.026-.014-.072-.03L9.59.01 9.54.003ZM10 4V1.708l2.293 2.293H10Z M7.25 7.501h1.499c.53 0 .893.51.696.98l-1.5 3.57c-.306.73-1.445.521-1.445-.265v-3.57c0-.395.335-.715.75-.715Z" clip-rule="evenodd"/>
</svg>
