<svg width="16" height="16" viewBox="0 0 16 16" fill="none" xmlns="http://www.w3.org/2000/svg">
<path fill-rule="evenodd" clip-rule="evenodd" d="M9.53959 0.00156876L3.5 0L3.35554 0.00686658C2.59489 0.0795513 2 0.720304 2 1.5V14.5L2.00687 14.6445C2.07955 15.4051 2.7203 16 3.5 16H12.5L12.6445 15.9931C13.4051 15.9204 14 15.2797 14 14.5V7L13.9919 6.91012C13.9496 6.67688 13.7455 6.5 13.5 6.5C13.2239 6.5 13 6.72386 13 7V14.5L12.9919 14.5899C12.9496 14.8231 12.7455 15 12.5 15H3.5L3.41012 14.9919C3.17688 14.9496 3 14.7455 3 14.5V1.5L3.00806 1.41012C3.05039 1.17688 3.25454 1 3.5 1H9V4.5L9.00806 4.58988C9.05039 4.82312 9.25454 5 9.5 5H13.5L13.586 4.99304C13.9728 4.92918 14.1475 4.44043 13.8536 4.14645L9.82214 0.117594L9.75236 0.0682647L9.72679 0.0543895L9.65473 0.024544L9.58988 0.00805567L9.53959 0.00156876ZM10 4V1.707L12.293 4H10ZM7.24981 7.5H8.74945C9.27991 7.5 9.64264 8.01029 9.44563 8.4794L7.946 12.0502C7.63939 12.7803 6.5 12.5713 6.5 11.785V8.21416C6.5 7.81974 6.8357 7.5 7.24981 7.5Z" fill="#242424"/>
</svg>
