<svg xmlns="http://www.w3.org/2000/svg" width="16" height="16" viewBox="0 0 16 16"><path fill="#242424" fill-rule="evenodd" d="M7.3433622,9.16797954 C7.51705696,9.34141739 7.53654151,9.61082744 7.40168971,9.80579544 L7.34388553,9.87508613 L5.27378247,11.9482556 L4.91997313,11.5915694 C4.5465256,11.2150853 4.04094162,11 3.5,11 C2.3954305,11 1.5,11.8954305 1.5,13 C1.5,14.1045695 2.3954305,15 3.5,15 C4.6045695,15 5.5,14.1045695 5.5,13 C5.5,12.7238576 5.72385763,12.5 6,12.5 C6.27614237,12.5 6.5,12.7238576 6.5,13 C6.5,14.6568543 5.15685425,16 3.5,16 C1.84314575,16 0.5,14.6568543 0.5,13 C0.5,11.3431458 1.84314575,10 3.5,10 C4.10773277,10 4.68732486,10.1819344 5.17511103,10.5107938 L5.245,10.562 L6.63625561,9.16850287 C6.83137319,8.97309626 7.14795559,8.97286196 7.3433622,9.16797954 Z M3.5,-1.86517468e-14 C5.15685425,-1.86517468e-14 6.5,1.34314575 6.5,3 C6.5,3.60773277 6.31806558,4.18732486 5.98920619,4.67511103 L5.938,4.746 L15.3532916,14.146185 C15.5269864,14.3196229 15.5464709,14.5890329 15.4116191,14.7840009 L15.353815,14.8532916 C15.1803771,15.0269864 14.9109671,15.0464709 14.7159991,14.9116191 L14.6467084,14.853815 L4.55174439,4.77378247 L4.90843062,4.41997313 C5.28491473,4.0465256 5.5,3.54094162 5.5,3 C5.5,1.8954305 4.6045695,1 3.5,1 C2.3954305,1 1.5,1.8954305 1.5,3 C1.5,4.1045695 2.3954305,5 3.5,5 C3.77614237,5 4,5.22385763 4,5.5 C4,5.77614237 3.77614237,6 3.5,6 C1.84314575,6 0.5,4.65685425 0.5,3 C0.5,1.34314575 1.84314575,-1.86517468e-14 3.5,-1.86517468e-14 Z M15.3532916,1.14618504 C15.5486982,1.34130262 15.5489325,1.65788502 15.353815,1.85329163 L10.3443976,6.87012942 C10.14928,7.06553603 9.83269761,7.06577033 9.637291,6.87065275 C9.48530809,6.71889464 9.45139237,6.4936578 9.53562833,6.30910648 L9.57896349,6.23283685 L9.63676767,6.16354617 L14.646185,1.14670837 C14.8413026,0.951301766 15.157885,0.951067464 15.3532916,1.14618504 Z"/></svg>