<svg width="16" height="16" fill="none" viewBox="0 0 16 16">
  <path fill="#242424" d="M6.5 3a3 3 0 1 0-3 3 .5.5 0 0 0 0-1 2 2 0 1 1 1.408-.58l-.356.354 10.095 10.08.069.058a.5.5 0 0 0 .638-.059l.058-.069a.5.5 0 0 0-.059-.638l-9.415-9.4.051-.07A2.99 2.99 0 0 0 6.5 3Z M.5 13a3 3 0 0 1 4.675-2.49l.07.052 1.391-1.393a.5.5 0 0 1 .766.637l-.058.07-2.07 2.072-.354-.356A2 2 0 1 0 5.5 13a.5.5 0 0 1 1 0 3 3 0 1 1-6 0Zm9.079-6.767.058-.07 5.01-5.016a.5.5 0 1 1 .707.706l-5.01 5.017a.5.5 0 0 1-.808-.56l.043-.077Z"/>
</svg>
