<svg width="16" height="16" viewBox="0 0 16 16" fill="none" xmlns="http://www.w3.org/2000/svg">
<path fill-rule="evenodd" clip-rule="evenodd" d="M6.5 3C6.5 1.34315 5.15685 0 3.5 0C1.84315 0 0.5 1.34315 0.5 3C0.5 4.65685 1.84315 6 3.5 6C3.77614 6 4 5.77614 4 5.5C4 5.22386 3.77614 5 3.5 5C2.39543 5 1.5 4.10457 1.5 3C1.5 1.89543 2.39543 1 3.5 1C4.60457 1 5.5 1.89543 5.5 3C5.5 3.54094 5.28491 4.04653 4.90843 4.41997L4.55174 4.77378L14.6467 14.8538L14.716 14.9116C14.911 15.0465 15.1804 15.027 15.3538 14.8533L15.4116 14.784C15.5465 14.589 15.527 14.3196 15.3533 14.1462L5.938 4.746L5.98921 4.67511C6.31807 4.18732 6.5 3.60773 6.5 3ZM0.5 13C0.5 11.3431 1.84315 10 3.5 10C4.10773 10 4.68732 10.1819 5.17511 10.5108L5.245 10.562L6.63626 9.1685C6.83137 8.9731 7.14796 8.97286 7.34336 9.16798C7.51706 9.34142 7.53654 9.61083 7.40169 9.8058L7.34389 9.87509L5.27378 11.9483L4.91997 11.5916C4.54653 11.2151 4.04094 11 3.5 11C2.39543 11 1.5 11.8954 1.5 13C1.5 14.1046 2.39543 15 3.5 15C4.60457 15 5.5 14.1046 5.5 13C5.5 12.7239 5.72386 12.5 6 12.5C6.27614 12.5 6.5 12.7239 6.5 13C6.5 14.6569 5.15685 16 3.5 16C1.84315 16 0.5 14.6569 0.5 13ZM9.57896 6.23284L9.63677 6.16355L14.6462 1.14671C14.8413 0.951302 15.1579 0.951068 15.3533 1.14618C15.5487 1.3413 15.5489 1.65789 15.3538 1.85329L10.3444 6.87013C10.1493 7.06554 9.8327 7.06577 9.63729 6.87065C9.48531 6.71889 9.45139 6.49366 9.53563 6.30911L9.57896 6.23284Z" fill="#242424"/>
</svg>
