<svg width="16" height="16" fill="none" viewBox="0 0 16 16">
  <path fill="#242424" fill-rule="evenodd" d="M7 .5a.5.5 0 0 0-.5-.5h-6a.5.5 0 0 0-.5.5v8a.5.5 0 0 0 .5.5h6a.5.5 0 0 0 .5-.5v-8ZM1 1h5v7H1V1Zm6 10.5a.5.5 0 0 0-.5-.5h-6a.5.5 0 0 0-.5.5v4a.5.5 0 0 0 .5.5h6a.5.5 0 0 0 .5-.5v-4ZM1 12h5v3H1v-3Zm15-4.5a.5.5 0 0 0-.5-.5h-6a.5.5 0 0 0-.5.5v8a.5.5 0 0 0 .5.5h6a.5.5 0 0 0 .5-.5v-8ZM10 8h5v7h-5V8Zm6-7.5a.5.5 0 0 0-.5-.5h-6a.5.5 0 0 0-.5.5v4a.5.5 0 0 0 .5.5h6a.5.5 0 0 0 .5-.5v-4ZM10 1h5v3h-5V1Z" clip-rule="evenodd"/>
</svg>
