<svg xmlns="http://www.w3.org/2000/svg" width="16" height="16" viewBox="0 0 16 16"><path fill="#242424" fill-rule="evenodd" d="M1.86654215,9.4785263 L8.0001874,13.3276231 L14.1328232,9.4785263 L14.2624388,9.4785263 C14.5385812,9.4785263 14.7624388,9.70238392 14.7624388,9.9785263 C14.7624388,10.1505703 14.6739876,10.3105305 14.5282748,10.4020015 L8.0001874,14.5 L1.4713002,10.4020166 C1.23741298,10.2552127 1.16681798,9.94660159 1.31362186,9.71271436 C1.40508995,9.56698786 1.56505801,9.4785263 1.73711214,9.4785263 L1.86654215,9.4785263 Z M7.73436653,1.66685547 C7.89689738,1.56483503 8.10347742,1.56483503 8.26600827,1.66685547 L8.26600827,1.66685547 L15.3253379,6.09798903 C15.38909,6.13800618 15.4429846,6.1919007 15.4830017,6.25565283 C15.6298105,6.48953696 15.559222,6.79814956 15.3253379,6.94495837 L15.3253379,6.94495837 L8.26600827,11.3760919 C8.10347742,11.4781124 7.89689738,11.4781124 7.73436653,11.3760919 L7.73436653,11.3760919 L0.675036903,6.94495837 C0.611284765,6.90494122 0.557390249,6.85104671 0.517373101,6.78729457 C0.370564289,6.55341044 0.441152778,6.24479784 0.675036903,6.09798903 L0.675036903,6.09798903 Z M8.0001874,2.67139122 L1.86654215,6.5214737 L7.99917791,10.3705705 L14.1328232,6.5214737 L8.0001874,2.67139122 Z"/></svg>