<svg width="16" height="16" fill="none" viewBox="0 0 16 16">
  <path fill="#242424" fill-rule="evenodd" d="M15.325 5.553a.5.5 0 0 1 0 .847l-7.06 4.43a.5.5 0 0 1-.53 0L.674 6.4a.5.5 0 0 1 0-.847l7.06-4.431a.5.5 0 0 1 .53 0l7.06 4.43Zm-1.192.423L8 2.126l-6.134 3.85L8 9.826l6.134-3.85Z M15.354 10.6a.496.496 0 0 1 0 .702l-1.403 1.403 1.403 1.403a.496.496 0 1 1-.701.701l-1.404-1.403-1.402 1.403a.496.496 0 1 1-.702-.701l1.402-1.404-1.402-1.402a.496.496 0 0 1 .702-.702l1.403 1.403 1.403-1.403a.496.496 0 0 1 .701 0ZM2.015 9.03a.5.5 0 1 0-.53.849L8 13.944l1.34-.8a.5.5 0 0 0-.529-.85l-.81.472L2.014 9.03Z" clip-rule="evenodd"/>
</svg>
