<svg width="16" height="16" viewBox="0 0 16 16" fill="none" xmlns="http://www.w3.org/2000/svg">
<path fill-rule="evenodd" clip-rule="evenodd" d="M15.3253 6.09798C15.6376 6.29397 15.6376 6.74896 15.3253 6.94495L8.26601 11.3761C8.10348 11.4781 7.8969 11.4781 7.73437 11.3761L0.675036 6.94495C0.362797 6.74896 0.362797 6.29397 0.675036 6.09798L7.73437 1.66685C7.8969 1.56483 8.10348 1.56483 8.26601 1.66685L15.3253 6.09798ZM14.1328 6.52147L8.00019 2.67138L1.86654 6.52147L7.99918 10.3706L14.1328 6.52147ZM15.3547 11.1453C15.5484 11.339 15.5484 11.6531 15.3547 11.8469L13.9516 13.25L15.3547 14.6531C15.5484 14.8469 15.5484 15.161 15.3547 15.3547C15.161 15.5484 14.8469 15.5484 14.6531 15.3547L13.2493 13.9509L11.8469 15.3547C11.6531 15.5484 11.339 15.5484 11.1453 15.3547C10.9516 15.161 10.9516 14.8469 11.1453 14.6531L12.5477 13.2493L11.1453 11.8469C10.9516 11.6531 10.9516 11.339 11.1453 11.1453C11.339 10.9516 11.6531 10.9516 11.8469 11.1453L13.25 12.5484L14.6531 11.1453C14.8469 10.9516 15.161 10.9516 15.3547 11.1453ZM2.01469 9.57582C1.78042 9.42963 1.472 9.50104 1.32581 9.73531C1.17962 9.96959 1.25103 10.278 1.4853 10.4242L7.99976 14.4892L9.33994 13.6888C9.57433 13.5428 9.646 13.2344 9.5 13C9.35401 12.7656 9.04564 12.6939 8.81125 12.8399L8.00024 13.3108L2.01469 9.57582Z" fill="#242424"/>
</svg>
