<svg width="16" height="16" viewBox="0 0 16 16" fill="none" xmlns="http://www.w3.org/2000/svg">
<path fill-rule="evenodd" clip-rule="evenodd" d="M15.3253 6.09798L8.26601 1.66685C8.10348 1.56483 7.8969 1.56483 7.73437 1.66685L0.675036 6.09798C0.362797 6.29397 0.362797 6.74896 0.675036 6.94495L7.73437 11.3761C7.8969 11.4781 8.10348 11.4781 8.26601 11.3761L15.3253 6.94495C15.6376 6.74896 15.6376 6.29397 15.3253 6.09798ZM8.00019 2.67138L14.1328 6.52147L7.99918 10.3706L1.86654 6.52147L8.00019 2.67138ZM14.5283 10.402C14.9533 10.1352 14.7643 9.47852 14.2624 9.47852H14.1328L8.00019 13.3276L1.86654 9.47852H1.73711C1.23527 9.47852 1.04625 10.1352 1.4713 10.402L8.00019 14.5L14.5283 10.402Z" fill="#242424"/>
</svg>
