<svg width="16" height="16" fill="none" viewBox="0 0 16 16">
  <path fill="#242424" d="M9.794.095A.5.5 0 0 0 9.5 0h-3l-.079.006a.5.5 0 0 0-.275.14L4.792 1.5H2l-.09.008A.5.5 0 0 0 2 2.5h3l.079-.006a.5.5 0 0 0 .275-.14L6.706 1h2.587l1.353 1.354.06.05A.5.5 0 0 0 11 2.5h3l.09-.008A.5.5 0 0 0 14.5 2l-.008-.09A.5.5 0 0 0 14 1.5h-2.793L9.854.146l-.06-.05Zm3.698 3.815A.5.5 0 0 0 12.5 4v9.5l-.007.145A1.5 1.5 0 0 1 11 15H5l-.144-.007A1.5 1.5 0 0 1 3.5 13.5V4l-.008-.09A.5.5 0 0 0 2.5 4v9.5l.005.164A2.5 2.5 0 0 0 5 16h6l.164-.005A2.5 2.5 0 0 0 13.5 13.5V4l-.008-.09Z M10.652 6.098a.5.5 0 0 1 .058.638l-.058.07L8.707 8.75l1.945 1.944a.5.5 0 0 1-.638.765l-.07-.057L8 9.457l-1.945 1.945a.5.5 0 0 1-.765-.638l.058-.07L7.293 8.75 5.348 6.805a.5.5 0 0 1 .638-.765l.07.058L8 8.043l1.945-1.945a.5.5 0 0 1 .707 0Z"/>
</svg>
