<svg width="16" height="16" fill="none" viewBox="0 0 16 16">
  <path fill="#242424" d="M9.5 0a.5.5 0 0 1 .294.095l.06.051L11.207 1.5H14a.5.5 0 0 1 .492.41L14.5 2a.5.5 0 0 1-.41.492L14 2.5h-3a.5.5 0 0 1-.293-.095l-.06-.051L9.292 1H6.706L5.354 2.354a.5.5 0 0 1-.275.14L5 2.5H2a.5.5 0 0 1-.09-.992L2 1.5h2.792L6.146.146a.5.5 0 0 1 .275-.14L6.5 0h3ZM13 3.5a.5.5 0 0 1 .492.41L13.5 4v9.5a2.5 2.5 0 0 1-2.336 2.495L11 16H5a2.5 2.5 0 0 1-2.495-2.336L2.5 13.5V4a.5.5 0 0 1 .992-.09L3.5 4v9.5a1.5 1.5 0 0 0 1.356 1.493L5 15h6a1.5 1.5 0 0 0 1.493-1.355l.007-.145V4a.5.5 0 0 1 .5-.5Z M8.492 5.41a.5.5 0 0 0-.992.09V12l.008.09A.5.5 0 0 0 8.5 12V5.5l-.008-.09ZM5.5 5a.5.5 0 0 1 .492.41L6 5.5V12a.5.5 0 0 1-.992.09L5 12V5.5a.5.5 0 0 1 .5-.5Zm5.492.41A.5.5 0 0 0 10 5.5V12l.008.09A.5.5 0 0 0 11 12V5.5l-.008-.09Z"/>
</svg>
