<svg width="16" height="16" viewBox="0 0 16 16" fill="none" xmlns="http://www.w3.org/2000/svg">
<path fill-rule="evenodd" clip-rule="evenodd" d="M9.79351 0.0952092C9.7087 0.0337142 9.60609 0 9.5 0H6.5L6.42131 0.0062287C6.31786 0.022715 6.22146 0.0714321 6.14645 0.146447L4.792 1.5H2L1.91012 1.50806C1.67688 1.55039 1.5 1.75454 1.5 2C1.5 2.27614 1.72386 2.5 2 2.5H5L5.07869 2.49377C5.18214 2.47729 5.27854 2.42857 5.35355 2.35355L6.706 1H9.293L10.6464 2.35355L10.7065 2.40479C10.7913 2.46629 10.8939 2.5 11 2.5H14L14.0899 2.49194C14.3231 2.44961 14.5 2.24546 14.5 2L14.4919 1.91012C14.4496 1.67688 14.2455 1.5 14 1.5H11.207L9.85355 0.146447L9.79351 0.0952092ZM13.4919 3.91012C13.4496 3.67688 13.2455 3.5 13 3.5C12.7239 3.5 12.5 3.72386 12.5 4V13.5L12.4931 13.6445C12.4204 14.4051 11.7797 15 11 15H5L4.85554 14.9931C4.09489 14.9204 3.5 14.2797 3.5 13.5V4L3.49194 3.91012C3.44961 3.67688 3.24546 3.5 3 3.5C2.72386 3.5 2.5 3.72386 2.5 4V13.5L2.50532 13.6644C2.58996 14.9685 3.67452 16 5 16H11L11.1644 15.9947C12.4685 15.91 13.5 14.8255 13.5 13.5V4L13.4919 3.91012ZM10.6517 6.09835C10.8252 6.27192 10.8445 6.54134 10.7095 6.73621L10.6517 6.80546L8.70711 8.75L10.6517 10.6945C10.8469 10.8898 10.8469 11.2064 10.6517 11.4017C10.4781 11.5752 10.2087 11.5945 10.0138 11.4595L9.94454 11.4017L8 9.45711L6.05546 11.4017C5.86019 11.5969 5.54361 11.5969 5.34835 11.4017C5.17478 11.2281 5.1555 10.9587 5.29049 10.7638L5.34835 10.6945L7.29289 8.75L5.34835 6.80546C5.15309 6.61019 5.15309 6.29361 5.34835 6.09835C5.52192 5.92478 5.79134 5.9055 5.98621 6.04049L6.05546 6.09835L8 8.04289L9.94454 6.09835C10.1398 5.90309 10.4564 5.90309 10.6517 6.09835Z" fill="#242424"/>
</svg>
