<svg width="16" height="16" viewBox="0 0 16 16" fill="none" xmlns="http://www.w3.org/2000/svg">
<path fill-rule="evenodd" clip-rule="evenodd" d="M2 2.45833C2 2.2052 2.20664 2 2.46154 2H13.5385C13.7934 2 14 2.2052 14 2.45833V13.5417C14 13.7948 13.7934 14 13.5385 14H2.46154C2.20664 14 2 13.7948 2 13.5417V2.45833ZM2.92308 2.91667V13.0833H13.0769V2.91667H10.4872V8.95833C10.4872 9.13194 10.3884 9.29064 10.232 9.36828C10.0757 9.44592 9.88857 9.42916 9.74872 9.325C9.74872 9.325 8.7168 8.5 8 8.5C7.2832 8.5 6.25128 9.325 6.25128 9.325C6.11143 9.42916 5.92432 9.44592 5.76795 9.36828C5.61159 9.29064 5.51282 9.13194 5.51282 8.95833V2.91667H2.92308ZM6.4359 2.91667V8.04167L6.72308 7.82778C6.80513 7.76667 7.40256 7.5 8 7.5C8.59744 7.5 9.19487 7.76667 9.27692 7.82778L9.5641 8.04167V2.91667H6.4359Z" fill="#242424"/>
</svg>
