<svg width="16" height="16" fill="none" viewBox="0 0 16 16">
  <path fill="#242424" d="M.5 4.751a.5.5 0 0 1-.492-.41L0 4.25v-1.5a.5.5 0 0 1 .992-.09L1 2.75v1h14v-2.5H.5A.5.5 0 0 1 .008.84L0 .75A.5.5 0 0 1 .41.259L.5.251h15a.5.5 0 0 1 .492.41l.008.09v3.5a.5.5 0 0 1-.41.492l-.09.008H.5Zm0 11a.5.5 0 0 1-.492-.41L0 15.25v-1.5a.5.5 0 0 1 .992-.09l.008.09v1h14v-2.5H.5a.5.5 0 0 1-.492-.41L0 11.75a.5.5 0 0 1 .41-.492l.09-.008h15a.5.5 0 0 1 .492.41l.008.09v3.5a.5.5 0 0 1-.41.492l-.09.008H.5ZM.008 9.84a.5.5 0 0 0 .492.411h15l.09-.008A.5.5 0 0 0 16 9.75v-3.5l-.008-.09a.5.5 0 0 0-.492-.41H.5l-.09.008A.5.5 0 0 0 0 6.25l.008.09a.5.5 0 0 0 .492.41H15v2.5H1v-1l-.008-.09A.5.5 0 0 0 0 8.25v1.5l.008.09Z"/>
</svg>
