<svg width="16" height="16" viewBox="0 0 16 16" fill="none" xmlns="http://www.w3.org/2000/svg">
<g clip-path="url(#clip0_1478_44352)">
<path d="M15 1.5V2.5H0.5C0.223858 2.5 0 2.72386 0 3C0 3.27614 0.223858 3.5 0.5 3.5H15.5L15.5899 3.49194C15.8231 3.44961 16 3.24546 16 3V1L15.9919 0.910125C15.9496 0.676876 15.7455 0.5 15.5 0.5H0.5L0.410124 0.508056C0.176875 0.550392 0 0.75454 0 1L0.00805569 1.08988C0.0503916 1.32312 0.25454 1.5 0.5 1.5H15Z" fill="#242424"/>
<path d="M15 5.5V6.5H0.5C0.223858 6.5 0 6.72386 0 7C0 7.27614 0.223858 7.5 0.5 7.5H15.5L15.5899 7.49194C15.8231 7.44961 16 7.24546 16 7V5L15.9919 4.91012C15.9496 4.67688 15.7455 4.5 15.5 4.5H0.5L0.410124 4.50806C0.176875 4.55039 0 4.75454 0 5L0.00805569 5.08988C0.0503916 5.32312 0.25454 5.5 0.5 5.5H15Z" fill="#242424"/>
<path d="M15 9.5V10.5H0.5C0.223858 10.5 0 10.7239 0 11C0 11.2761 0.223858 11.5 0.5 11.5H15.5L15.5899 11.4919C15.8231 11.4496 16 11.2455 16 11V9L15.9919 8.91012C15.9496 8.67688 15.7455 8.5 15.5 8.5H0.5L0.410124 8.50806C0.176875 8.55039 0 8.75454 0 9L0.00805569 9.08988C0.0503916 9.32312 0.25454 9.5 0.5 9.5H15Z" fill="#242424"/>
<path d="M15 13.5V14.5H0.5C0.223858 14.5 0 14.7239 0 15C0 15.2761 0.223858 15.5 0.5 15.5H15.5L15.5899 15.4919C15.8231 15.4496 16 15.2455 16 15V13L15.9919 12.9101C15.9496 12.6769 15.7455 12.5 15.5 12.5H0.5L0.410124 12.5081C0.176875 12.5504 0 12.7545 0 13L0.00805569 13.0899C0.0503916 13.3231 0.25454 13.5 0.5 13.5H15Z" fill="#242424"/>
</g>
<defs>
<clipPath id="clip0_1478_44352">
<rect width="16" height="16" fill="white"/>
</clipPath>
</defs>
</svg>
