<svg width="16" height="16" fill="none" viewBox="0 0 16 16">
  <path fill="#242424" d="M15 1.501v1H.5a.5.5 0 1 0 0 1h15l.09-.008A.5.5 0 0 0 16 3V1l-.008-.09A.5.5 0 0 0 15.5.5H.5L.41.509a.5.5 0 0 0-.41.492l.008.09A.5.5 0 0 0 .5 1.5H15Zm0 4v1H.5a.5.5 0 1 0 0 1h15l.09-.008A.5.5 0 0 0 16 7V5l-.008-.09a.5.5 0 0 0-.492-.41H.5l-.09.008A.5.5 0 0 0 0 5l.008.09A.5.5 0 0 0 .5 5.5H15Zm0 4v1H.5a.5.5 0 1 0 0 1h15l.09-.008A.5.5 0 0 0 16 11V9l-.008-.09a.5.5 0 0 0-.492-.41H.5l-.09.008A.5.5 0 0 0 0 9l.008.09A.5.5 0 0 0 .5 9.5H15Zm0 4v1H.5a.5.5 0 1 0 0 1h15l.09-.008A.5.5 0 0 0 16 15v-2l-.008-.09a.5.5 0 0 0-.492-.41H.5l-.09.008A.5.5 0 0 0 0 13l.008.09a.5.5 0 0 0 .492.41H15Z"/>
</svg>
