<svg width="16" height="16" viewBox="0 0 16 16" fill="none" xmlns="http://www.w3.org/2000/svg">
<g clip-path="url(#clip0_1478_44350)">
<path d="M0.00805569 7.08988C0.0503916 7.32313 0.25454 7.5 0.5 7.5H15.5L15.5899 7.49194C15.8231 7.44961 16 7.24546 16 7V1L15.9919 0.910125C15.9496 0.676876 15.7455 0.5 15.5 0.5H0.5L0.410124 0.508056C0.176875 0.550392 0 0.75454 0 1L0.00805569 1.08988C0.0503916 1.32312 0.25454 1.5 0.5 1.5H15V6.5H1V3L0.991944 2.91012C0.949608 2.67688 0.74546 2.5 0.5 2.5C0.223858 2.5 0 2.72386 0 3V7L0.00805569 7.08988Z" fill="#242424"/>
<path d="M0.00805569 15.0899C0.0503916 15.3231 0.25454 15.5 0.5 15.5H15.5L15.5899 15.4919C15.8231 15.4496 16 15.2455 16 15V9L15.9919 8.91012C15.9496 8.67688 15.7455 8.5 15.5 8.5H0.5L0.410124 8.50806C0.176875 8.55039 0 8.75454 0 9L0.00805569 9.08988C0.0503916 9.32312 0.25454 9.5 0.5 9.5H15V14.5H1V11L0.991944 10.9101C0.949608 10.6769 0.74546 10.5 0.5 10.5C0.223858 10.5 0 10.7239 0 11V15L0.00805569 15.0899Z" fill="#242424"/>
</g>
<defs>
<clipPath id="clip0_1478_44350">
<rect width="16" height="16" fill="white"/>
</clipPath>
</defs>
</svg>
