<svg width="16" height="16" viewBox="0 0 16 16" fill="none" xmlns="http://www.w3.org/2000/svg">
<g clip-path="url(#clip0_1478_44351)">
<path d="M0.5 4.75C0.25454 4.75 0.0503916 4.57312 0.00805569 4.33988L0 4.25V2.75C0 2.47386 0.223858 2.25 0.5 2.25C0.74546 2.25 0.949608 2.42687 0.991944 2.66012L1 2.75V3.75H15V1.25H0.5C0.25454 1.25 0.0503916 1.07313 0.00805569 0.839876L0 0.75C0 0.50454 0.176875 0.300392 0.410124 0.258056L0.5 0.25H15.5C15.7455 0.25 15.9496 0.426875 15.9919 0.660124L16 0.75V4.25C16 4.49546 15.8231 4.69961 15.5899 4.74194L15.5 4.75H0.5Z" fill="#242424"/>
<path d="M0.5 15.75C0.25454 15.75 0.0503916 15.5731 0.00805569 15.3399L0 15.25V13.75C0 13.4739 0.223858 13.25 0.5 13.25C0.74546 13.25 0.949608 13.4269 0.991944 13.6601L1 13.75V14.75H15V12.25H0.5C0.25454 12.25 0.0503916 12.0731 0.00805569 11.8399L0 11.75C0 11.5045 0.176875 11.3004 0.410124 11.2581L0.5 11.25H15.5C15.7455 11.25 15.9496 11.4269 15.9919 11.6601L16 11.75V15.25C16 15.4955 15.8231 15.6996 15.5899 15.7419L15.5 15.75H0.5Z" fill="#242424"/>
<path d="M0.00805569 9.83988C0.0503916 10.0731 0.25454 10.25 0.5 10.25H15.5L15.5899 10.2419C15.8231 10.1996 16 9.99546 16 9.75V6.25L15.9919 6.16012C15.9496 5.92687 15.7455 5.75 15.5 5.75H0.5L0.410124 5.75806C0.176875 5.80039 0 6.00454 0 6.25L0.00805569 6.33988C0.0503916 6.57313 0.25454 6.75 0.5 6.75H15V9.25H1V8.25L0.991944 8.16012C0.949608 7.92687 0.74546 7.75 0.5 7.75C0.223858 7.75 0 7.97386 0 8.25V9.75L0.00805569 9.83988Z" fill="#242424"/>
</g>
<defs>
<clipPath id="clip0_1478_44351">
<rect width="16" height="16" fill="white"/>
</clipPath>
</defs>
</svg>
