<svg width="16" height="16" viewBox="0 0 16 16" fill="none" xmlns="http://www.w3.org/2000/svg">
<path fill-rule="evenodd" clip-rule="evenodd" d="M8 11H1V3H15V11H11L10.9101 11.0081C10.6769 11.0504 10.5 11.2545 10.5 11.5C10.5 11.7761 10.7239 12 11 12H15.5L15.5899 11.9919C15.8231 11.9496 16 11.7455 16 11.5V2.5C16 2.46932 15.9972 2.43928 15.9919 2.41012C15.9496 2.17688 15.7455 2 15.5 2H15H1H0.5C0.469318 2 0.439281 2.00276 0.410124 2.00806C0.176875 2.05039 0 2.25454 0 2.5V11.5L0.00805567 11.5899C0.0503916 11.8231 0.25454 12 0.5 12H7.5V13.5H5L4.91012 13.5081C4.67688 13.5504 4.5 13.7545 4.5 14C4.5 14.2761 4.72386 14.5 5 14.5H8H11L11.0899 14.4919C11.3231 14.4496 11.5 14.2455 11.5 14C11.5 13.7239 11.2761 13.5 11 13.5H8.5V11.5L8.49194 11.4101C8.44961 11.1769 8.24546 11 8 11Z" fill="#242424"/>
</svg>
