<svg xmlns="http://www.w3.org/2000/svg" width="16" height="16" viewBox="0 0 16 16"><path fill="#242424" fill-rule="evenodd" d="M2.26516504,13.359835 C2.39069071,13.4853606 2.40862295,13.6777363 2.31896176,13.8223619 L2.26516504,13.890165 L1.90466991,14.25 L14.0946699,14.25 L13.734835,13.890165 C13.6093093,13.7646394 13.5913771,13.5722637 13.6810382,13.4276381 L13.734835,13.359835 C13.8603606,13.2343093 14.0527363,13.2163771 14.1973619,13.3060382 L14.265165,13.359835 L15.5303301,14.625 L14.265165,15.890165 C14.1187184,16.0366117 13.8812816,16.0366117 13.734835,15.890165 C13.6093093,15.7646394 13.5913771,15.5722637 13.6810382,15.4276381 L13.734835,15.359835 L14.0936699,15 L1.90566991,15 L2.26516504,15.359835 C2.39069071,15.4853606 2.40862295,15.6777363 2.31896176,15.8223619 L2.26516504,15.890165 C2.13963938,16.0156907 1.94726373,16.0336229 1.80263807,15.9439618 L1.73483496,15.890165 L0.469669914,14.625 L1.73483496,13.359835 C1.88128157,13.2133883 2.11871843,13.2133883 2.26516504,13.359835 Z M15.5,4.5 C15.7454599,4.5 15.9496084,4.67687516 15.9919443,4.91012437 L16,5 L16,7.5 C16,7.77614237 15.7761424,8 15.5,8 C15.2545401,8 15.0503916,7.82312484 15.0080557,7.58987563 L15,7.5 L15,5.5 L13,5.5 L13,10 L15.5,10 C15.7454599,10 15.9496084,10.1768752 15.9919443,10.4101244 L16,10.5 C16,10.7454599 15.8231248,10.9496084 15.5898756,10.9919443 L15.5,11 L12.5,11 C12.2545401,11 12.0503916,10.8231248 12.0080557,10.5898756 L12,10.5 L12,5 C12,4.75454011 12.1768752,4.55039163 12.4101244,4.50805567 L12.5,4.5 L15.5,4.5 Z M12.5,1.5 C12.7454599,1.5 12.9496084,1.67687516 12.9919443,1.91012437 L13,2 L13,3 C13,3.27614237 12.7761424,3.5 12.5,3.5 C12.2545401,3.5 12.0503916,3.32312484 12.0080557,3.08987563 L12,3 L12,2.5 L8,2.5 L8,9 L11,9 C11.2761424,9 11.5,9.22385763 11.5,9.5 L11.5,10.5 C11.5,10.7761424 11.2761424,11 11,11 L7.5,11 C7.25454011,11 7.05039163,10.8231248 7.00805567,10.5898756 L7,10.5 L7,2 C7,1.75454011 7.17687516,1.55039163 7.41012437,1.50805567 L7.5,1.5 L12.5,1.5 Z M11.5,0 C11.7761424,0 12,0.223857625 12,0.5 C12,0.776142375 11.7761424,1 11.5,1 L1,1 L1,6.5 L5,6.5 C5.24545989,6.5 5.44960837,6.67687516 5.49194433,6.91012437 L5.5,7 L5.5,10 L6,10 C6.27614237,10 6.5,10.2238576 6.5,10.5 C6.5,10.7454599 6.32312484,10.9496084 6.08987563,10.9919443 L6,11 L3,11 C2.72385763,11 2.5,10.7761424 2.5,10.5 C2.5,10.2545401 2.67687516,10.0503916 2.91012437,10.0080557 L3,10 L4.5,10 L4.5,7.5 L0.5,7.5 C0.254540111,7.5 0.0503916296,7.32312484 0.00805566941,7.08987563 L0,7 L0,0.5 C0,0.254540111 0.176875161,0.0503916296 0.410124368,0.00805566941 L0.5,0 L11.5,0 Z M10,9.55 C9.72385763,9.55 9.5,9.77385763 9.5,10.05 C9.5,10.3261424 9.72385763,10.55 10,10.55 C10.2761424,10.55 10.5,10.3261424 10.5,10.05 C10.5,9.77385763 10.2761424,9.55 10,9.55 Z"/></svg>