<svg width="16" height="16" viewBox="0 0 16 16" fill="none" xmlns="http://www.w3.org/2000/svg">
<path fill-rule="evenodd" clip-rule="evenodd" d="M1 6.5H5C5.24546 6.5 5.44961 6.67688 5.49194 6.91012L5.5 7V10H6C6.27614 10 6.5 10.2239 6.5 10.5C6.5 10.7455 6.32312 10.9496 6.08988 10.9919L6 11H5H3C2.72386 11 2.5 10.7761 2.5 10.5C2.5 10.2545 2.67688 10.0504 2.91012 10.0081L3 10H4.5V7.5H0.5C0.25454 7.5 0.0503916 7.32312 0.00805567 7.08988L0 7V0.5C0 0.25454 0.176875 0.0503916 0.410124 0.00805567C0.439281 0.00276367 0.469318 0 0.5 0H1H11.5C11.7761 0 12 0.223858 12 0.5C12 0.776142 11.7761 1 11.5 1H1V6.5ZM12.9919 1.91012C12.9496 1.67688 12.7455 1.5 12.5 1.5H7.5L7.41012 1.50806C7.17688 1.55039 7 1.75454 7 2V10.5L7.00806 10.5899C7.05039 10.8231 7.25454 11 7.5 11H8H8.5H11C11.2761 11 11.5 10.7761 11.5 10.5V9.5C11.5 9.22386 11.2761 9 11 9H8V2.5H12V3L12.0081 3.08988C12.0504 3.32312 12.2545 3.5 12.5 3.5C12.7761 3.5 13 3.27614 13 3V2L12.9919 1.91012ZM10.5 10.05C10.5 10.3261 10.2761 10.55 10 10.55C9.72386 10.55 9.5 10.3261 9.5 10.05C9.5 9.77386 9.72386 9.55 10 9.55C10.2761 9.55 10.5 9.77386 10.5 10.05ZM15.9919 4.91012C15.9496 4.67688 15.7455 4.5 15.5 4.5H12.5L12.4101 4.50806C12.1769 4.55039 12 4.75454 12 5V10.5L12.0081 10.5899C12.0504 10.8231 12.2545 11 12.5 11H15.5L15.5899 10.9919C15.8231 10.9496 16 10.7455 16 10.5L15.9919 10.4101C15.9496 10.1769 15.7455 10 15.5 10H13V5.5H15V7.5L15.0081 7.58988C15.0504 7.82312 15.2545 8 15.5 8C15.7761 8 16 7.77614 16 7.5V5L15.9919 4.91012ZM2.26517 13.3598C2.11872 13.2134 1.88128 13.2134 1.73484 13.3598L0.46967 14.625L1.73484 15.8902L1.80264 15.944C1.94726 16.0336 2.13964 16.0157 2.26517 15.8902L2.31896 15.8224C2.40862 15.6777 2.39069 15.4854 2.26517 15.3598L1.90566 15H14.0943L13.7348 15.3598L13.681 15.4276C13.5914 15.5723 13.6093 15.7646 13.7348 15.8902C13.8813 16.0366 14.1187 16.0366 14.2652 15.8902L15.5303 14.625L14.2652 13.3598L14.1974 13.306C14.0527 13.2164 13.8604 13.2343 13.7348 13.3598L13.681 13.4276C13.5914 13.5723 13.6093 13.7646 13.7348 13.8902L14.0943 14.25H1.90566L2.26517 13.8902L2.31896 13.8224C2.40862 13.6777 2.39069 13.4854 2.26517 13.3598Z" fill="#242424"/>
</svg>
