<svg width="16" height="16" viewBox="0 0 16 16" fill="none" xmlns="http://www.w3.org/2000/svg">
<path fill-rule="evenodd" clip-rule="evenodd" d="M0 2.5C0 2.25454 0.176875 2.05039 0.410124 2.00806L0.5 2H10.5C10.7761 2 11 2.22386 11 2.5C11 2.74546 10.8231 2.94961 10.5899 2.99194L10.5 3H1V13H13V2.5C13 2.22386 13.2239 2 13.5 2H15.5C15.7455 2 15.9496 2.17688 15.9919 2.41012L16 2.5V13.5C16 13.7455 15.8231 13.9496 15.5899 13.9919L15.5 14H0.5C0.25454 14 0.0503916 13.8231 0.00805567 13.5899L0 13.5V2.5ZM13.75 8C13.75 8.41421 14.0858 8.75 14.5 8.75C14.9142 8.75 15.25 8.41421 15.25 8C15.25 7.58579 14.9142 7.25 14.5 7.25C14.0858 7.25 13.75 7.58579 13.75 8Z" fill="#242424"/>
</svg>
