<svg width="16" height="16" fill="none" viewBox="0 0 16 16">
  <path fill="#242424" fill-rule="evenodd" d="M1 6.501h4a.5.5 0 0 1 .492.41l.008.09v3H6a.5.5 0 0 1 .09.992L6 11H3a.5.5 0 0 1-.09-.992L3 10h1.5V7.5h-4a.5.5 0 0 1-.492-.41L0 7V.5A.5.5 0 0 1 .5 0h11a.5.5 0 0 1 0 1H1v5.5Z M12.992 1.911a.5.5 0 0 0-.492-.41h-5l-.09.008a.5.5 0 0 0-.41.492v8.5l.008.09A.5.5 0 0 0 7.5 11H11a.5.5 0 0 0 .5-.5v-1A.5.5 0 0 0 11 9H8V2.5h4V3l.008.09A.5.5 0 0 0 13 3V2l-.008-.09Zm-2.492 8.14a.5.5 0 1 1-1 0 .5.5 0 0 1 1 0Z M15.992 4.911a.5.5 0 0 0-.492-.41h-3l-.09.008a.5.5 0 0 0-.41.492v5.5l.008.09a.5.5 0 0 0 .492.41h3l.09-.008A.5.5 0 0 0 16 10.5l-.008-.09A.5.5 0 0 0 15.5 10H13V5.5h2v2l.008.09A.5.5 0 0 0 16 7.5V5l-.008-.09ZM2.265 13.36a.375.375 0 0 0-.53 0L.47 14.627l1.265 1.265.068.054c.144.09.337.072.462-.054l.054-.068a.375.375 0 0 0-.054-.462l-.36-.36h12.19l-.36.36-.054.068a.375.375 0 0 0 .584.462l1.265-1.265-1.265-1.265-.068-.054a.375.375 0 0 0-.462.054l-.054.068a.375.375 0 0 0 .054.462l.36.36H1.904l.36-.36.054-.068a.375.375 0 0 0-.054-.462Z" clip-rule="evenodd"/>
</svg>
