<svg width="16" height="16" viewBox="0 0 16 16" fill="none" xmlns="http://www.w3.org/2000/svg">
<path fill-rule="evenodd" clip-rule="evenodd" d="M12.5 0C12.7455 0 12.9496 0.176875 12.9919 0.410124L13 0.5V10.5C13 10.7761 12.7761 11 12.5 11C12.2545 11 12.0504 10.8231 12.0081 10.5899L12 10.5V1H4V13H12.5C12.7761 13 13 13.2239 13 13.5V15.5C13 15.7455 12.8231 15.9496 12.5899 15.9919C12.5607 15.9972 12.5307 16 12.5 16H4H3.5C3.25454 16 3.05039 15.8231 3.00806 15.5899L3 15.5V0.5C3 0.25454 3.17688 0.0503916 3.41012 0.00805567L3.5 0H12.5ZM8 15.25C8.41421 15.25 8.75 14.9142 8.75 14.5C8.75 14.0858 8.41421 13.75 8 13.75C7.58579 13.75 7.25 14.0858 7.25 14.5C7.25 14.9142 7.58579 15.25 8 15.25Z" fill="#242424"/>
</svg>
