<svg width="16" height="16" viewBox="0 0 16 16" fill="none" xmlns="http://www.w3.org/2000/svg">
<path d="M14.9859 4.09882C13.5813 1.58861 10.9296 0 8 0C3.58172 0 0 3.58172 0 8C0 12.4183 3.58172 16 8 16C12.4183 16 16 12.4183 16 8C16 7.72386 15.7761 7.5 15.5 7.5C15.2239 7.5 15 7.72386 15 8C15 11.866 11.866 15 8 15C6.24696 15 4.64443 14.3556 3.41637 13.2907L13.2912 3.41587C13.6014 3.77383 13.8773 4.16563 14.1132 4.58713C14.248 4.82812 14.5527 4.91416 14.7937 4.77931C15.0347 4.64447 15.1207 4.3398 14.9859 4.09882ZM12.5842 2.70866L2.70926 12.5836C1.64441 11.3556 1 9.75304 1 8C1 4.13401 4.13401 1 8 1C9.72427 1 11.3381 1.62859 12.5842 2.70866Z" fill="#242424"/>
</svg>
