<svg width="16" height="16" fill="none" viewBox="0 0 16 16">
  <path fill="#242424" fill-rule="evenodd" d="M7 2a.5.5 0 0 1 0 1c-.79 0-1.58 1.311-1.98 3.25H6.5a.5.5 0 0 1 .09.992l-.09.008H4.856a14.372 14.372 0 0 0 0 3.501l8.244-.001a.5.5 0 0 1 .5.5c0 .057-.026.155-.077.296A7.002 7.002 0 0 1 0 9a7 7 0 0 1 7-7Zm1.982 9.751H5.02C5.42 13.69 6.21 15 7 15c.75 0 1.57-1.26 1.982-3.249Zm-7.316 0a6.019 6.019 0 0 0 3.386 2.926c-.471-.741-.834-1.753-1.056-2.926h-2.33Zm8.336 0c-.224 1.181-.584 2.188-1.05 2.924a6.009 6.009 0 0 0 3.382-2.924h-2.332ZM3.846 7.25H1.26A6 6 0 0 0 1 9a6 6 0 0 0 .26 1.75l2.586.001a15.927 15.927 0 0 1-.042-3.077l.042-.424ZM12.5 0A2.5 2.5 0 0 1 15 2.5h.5a.5.5 0 0 1 .492.41L16 3v2.5a.5.5 0 0 1-.992.09L15 5.5v-2h-5v4h5.5a.5.5 0 0 1 .492.41L16 8a.5.5 0 0 1-.41.492l-.09.008h-6a.5.5 0 0 1-.492-.41L9 8V3a.5.5 0 0 1 .41-.492L9.5 2.5h.5A2.5 2.5 0 0 1 12.5 0ZM5.052 3.323l-.19.07A6.021 6.021 0 0 0 1.666 6.25h2.33c.221-1.174.584-2.185 1.056-2.927ZM12.5 4.75a.75.75 0 1 1 0 1.5.75.75 0 0 1 0-1.5Zm0-3.75A1.5 1.5 0 0 0 11 2.5h3A1.5 1.5 0 0 0 12.5 1Z" clip-rule="evenodd"/>
</svg>
