<svg width="16" height="16" fill="none" viewBox="0 0 16 16">
  <path fill="#242424" fill-rule="evenodd" d="M8 0a8 8 0 1 1 0 16A8 8 0 0 1 8 0ZM6.116 1.256A7.017 7.017 0 0 0 1.674 5h3.08c.274-1.548.754-2.854 1.362-3.744ZM1 8c0-.695.101-1.366.29-2h3.32c-.072.64-.11 1.31-.11 2s.038 1.36.11 2H1.29A7.001 7.001 0 0 1 1 8Zm.674 3a7.018 7.018 0 0 0 4.442 3.744c-.608-.89-1.088-2.196-1.362-3.744h-3.08Zm4.1 0c.452 2.384 1.389 4 2.226 4s1.774-1.616 2.227-4H5.773Zm5.472 0c-.274 1.548-.754 2.854-1.362 3.744A7.018 7.018 0 0 0 14.326 11h-3.08Zm3.464-1h-3.32c.072-.64.11-1.31.11-2s-.038-1.36-.11-2h3.32c.189.634.29 1.305.29 2 0 .695-.101 1.366-.29 2Zm-4.329 0H5.62a16.695 16.695 0 0 1-.12-2c0-.698.043-1.369.119-2h4.762a16.764 16.764 0 0 1 0 4Zm.865-5h3.08a7.017 7.017 0 0 0-4.442-3.744c.608.89 1.088 2.196 1.362 3.744ZM8 1c-.837 0-1.774 1.616-2.227 4h4.454C9.774 2.616 8.837 1 8 1Z" clip-rule="evenodd"/>
</svg>
