<svg xmlns="http://www.w3.org/2000/svg" width="16" height="16" fill="none" viewBox="0 0 16 16">
  <path fill="#242424" d="M16 8A8 8 0 1 0 0 8a8 8 0 0 0 16 0ZM1.674 5a7.017 7.017 0 0 1 4.442-3.744c-.567.885-1.1 2.27-1.362 3.744H1.68c-.155.32-.286.654-.39 1h3.32c-.072.64-.11 1.31-.11 2s.038 1.36.11 2H1.29c.104.346.235.68.39 1h3.074c.262 1.475.795 2.86 1.362 3.744.504.15 1.026.219 1.57.25-.402-.224-.881-.88-1.224-1.666-.278-.636-.518-1.427-.689-2.328h.002a15.09 15.09 0 0 1-.156-1A16.649 16.649 0 0 1 5.5 8c0-.698.043-1.369.12-2a15.226 15.226 0 0 1 .22-1.327c.392-1.837 1.106-3.281 1.797-3.664a7.109 7.109 0 0 1 .726 0c.691.383 1.406 1.83 1.799 3.669.022.106.044.213.064.322H5.784c-.06.32-.113.655-.155 1h4.752c.072.592.114 1.219.118 1.87l.001.097v.166A16.65 16.65 0 0 1 10.38 10H5.63c.042.345.094.68.155 1h4.442c-.171.9-.411 1.692-.69 2.328-.342.786-.821 1.442-1.224 1.665.545-.03 1.067-.1 1.57-.25.568-.884 1.101-2.268 1.363-3.743h3.074a6.85 6.85 0 0 0 .39-1h-3.32c.072-.64.11-1.31.11-2s-.038-1.36-.11-2h3.32a6.854 6.854 0 0 0-.39-1h-3.074c-.262-1.475-.795-2.86-1.362-3.744A7.018 7.018 0 0 1 14.71 6c.189.634.29 1.305.29 2a7.001 7.001 0 0 1-.674 3 7.018 7.018 0 0 1-4.442 3.744 7.052 7.052 0 0 1-3.768 0A7.018 7.018 0 0 1 1.29 10 7.001 7.001 0 0 1 1 8a7.001 7.001 0 0 1 .674-3Z"/>
</svg>
