<svg width="16" height="16" viewBox="0 0 16 16" fill="none" xmlns="http://www.w3.org/2000/svg">
<g clip-path="url(#clip0_1249_19487)">
<path fill-rule="evenodd" clip-rule="evenodd" d="M7 2C7.27614 2 7.5 2.22386 7.5 2.5C7.5 2.77614 7.27614 3 7 3C6.20989 3 5.41981 4.31149 5.01942 6.24965L6.5 6.25C6.77614 6.25 7 6.47386 7 6.75C7 6.99546 6.82312 7.19961 6.58988 7.24194L6.5 7.25L4.85569 7.24994C4.78752 7.80252 4.75 8.38989 4.75 9C4.75 9.61048 4.78756 10.1982 4.85582 10.7511L13.1 10.75C13.3761 10.75 13.6 10.9739 13.6 11.25C13.6 11.3066 13.5742 11.4051 13.5226 11.5455C12.4822 14.2097 9.90844 16 7 16C3.13401 16 0 12.866 0 9C0 5.13401 3.13401 2 7 2ZM8.98203 11.7514L5.01963 11.7514C5.42008 13.689 6.21002 15 7 15C7.74948 15 8.5701 13.7405 8.98203 11.7514ZM1.66638 11.7509C2.37087 13.1141 3.58258 14.1725 5.05182 14.6766C4.58061 13.9356 4.21753 12.9243 3.99599 11.7513L1.66638 11.7509ZM10.0018 11.7501C9.77813 12.9323 9.41771 13.9385 8.95193 14.6748C10.4037 14.1752 11.6217 13.1314 12.3339 11.7511L10.0018 11.7501ZM3.84617 7.24973L1.2592 7.25007C1.09065 7.8037 1 8.39126 1 9C1 9.60911 1.09076 10.197 1.2595 10.7509L3.84628 10.7513C3.78308 10.1907 3.75 9.60373 3.75 9C3.75 8.54747 3.76859 8.10435 3.80451 7.67472L3.84617 7.24973ZM12.5 0C13.8807 0 15 1.11929 15 2.5H15.5C15.7455 2.5 15.9496 2.67688 15.9919 2.91012L16 3V5.5C16 5.77614 15.7761 6 15.5 6C15.2545 6 15.0504 5.82312 15.0081 5.58988L15 5.5V3.5H10V7.5H15.5C15.7455 7.5 15.9496 7.67688 15.9919 7.91012L16 8C16 8.24546 15.8231 8.44961 15.5899 8.49194L15.5 8.5H9.5C9.25454 8.5 9.05039 8.32312 9.00806 8.08988L9 8V3C9 2.75454 9.17688 2.55039 9.41012 2.50806L9.5 2.5H10C10 1.11929 11.1193 0 12.5 0ZM5.05207 3.32309L4.86205 3.39209C3.47803 3.92004 2.33972 4.94562 1.66587 6.25008L3.9958 6.24974C4.21732 5.07623 4.58048 4.06461 5.05207 3.32309ZM12.5 4.75C12.9142 4.75 13.25 5.08579 13.25 5.5C13.25 5.91421 12.9142 6.25 12.5 6.25C12.0858 6.25 11.75 5.91421 11.75 5.5C11.75 5.08579 12.0858 4.75 12.5 4.75ZM12.5 1C11.6716 1 11 1.67157 11 2.5H14C14 1.67157 13.3284 1 12.5 1Z" fill="#242424"/>
</g>
<defs>
<clipPath id="clip0_1249_19487">
<rect width="16" height="16" fill="white"/>
</clipPath>
</defs>
</svg>
