<svg width="16" height="16" viewBox="0 0 16 16" fill="none" xmlns="http://www.w3.org/2000/svg">
<path fill-rule="evenodd" clip-rule="evenodd" d="M8 0C12.4183 0 16 3.58172 16 8C16 12.4183 12.4183 16 8 16C3.58172 16 0 12.4183 0 8C0 3.58172 3.58172 0 8 0ZM6.11623 1.25639C4.15114 1.80416 2.53452 3.18779 1.67363 5H4.75441C5.02848 3.45245 5.50825 2.14553 6.11623 1.25639ZM1 8C1 7.30503 1.10128 6.63371 1.28988 6H4.61027C4.53828 6.63924 4.5 7.3094 4.5 8C4.5 8.6906 4.53828 9.36076 4.61027 10H1.28988C1.10128 9.36629 1 8.69497 1 8ZM1.67363 11C2.53452 12.8122 4.15115 14.1958 6.11623 14.7436C5.50825 13.8545 5.02848 12.5476 4.75441 11H1.67363ZM5.77345 11C6.22574 13.3842 7.16294 15 8 15C8.83706 15 9.77426 13.3842 10.2266 11H5.77345ZM11.2456 11C10.9715 12.5476 10.4917 13.8545 9.88377 14.7436C11.8489 14.1958 13.4655 12.8122 14.3264 11H11.2456ZM14.7101 10H11.3897C11.4617 9.36076 11.5 8.6906 11.5 8C11.5 7.3094 11.4617 6.63924 11.3897 6H14.7101C14.8987 6.63371 15 7.30503 15 8C15 8.69497 14.8987 9.36629 14.7101 10ZM10.3811 10H5.61889C5.54251 9.36853 5.5 8.69769 5.5 8C5.5 7.30231 5.54251 6.63147 5.61889 6H10.3811C10.4575 6.63147 10.5 7.30231 10.5 8C10.5 8.69769 10.4575 9.36853 10.3811 10ZM11.2456 5H14.3264C13.4655 3.18778 11.8489 1.80415 9.88377 1.25639C10.4917 2.14553 10.9715 3.45245 11.2456 5ZM8 1C7.16294 1 6.22574 2.61582 5.77345 5H10.2266C9.77426 2.61582 8.83706 1 8 1Z" fill="#242424"/>
</svg>
