<svg width="16" height="16" fill="none" viewBox="0 0 16 16">
  <path fill="#242424" d="M5.277 1.333a3.803 3.803 0 0 0-.573.94 2.819 2.819 0 0 0-.498-.132c-.638-.104-1.47.015-2.107.872-.664.893-.686 1.721-.502 2.339.042.14.093.266.148.378a3.657 3.657 0 0 0-.545.337C.609 6.51 0 7.27 0 8.467c0 .667.296 1.177.734 1.54.42.35.964.561 1.494.694 1.052.266 2.227.266 2.76.266H5a.5.5 0 1 0 0-1c-.54 0-1.605-.002-2.528-.235-.462-.117-.843-.28-1.1-.494A.946.946 0 0 1 1 8.467c0-.804.391-1.293.8-1.6a2.724 2.724 0 0 1 .814-.413l.01-.003.851-.213-.618-.621-.002-.002a1.302 1.302 0 0 1-.1-.13 1.538 1.538 0 0 1-.2-.419c-.098-.33-.12-.83.346-1.456.363-.488.781-.541 1.143-.482a1.94 1.94 0 0 1 .675.252l.006.004.626.418.14-.74.003-.013.016-.064a2.502 2.502 0 0 1 .161-.425 2.8 2.8 0 0 1 .374-.586c.431-.516 1.212-1.05 2.667-.921 1.408.124 2.168.93 2.596 1.738a4.813 4.813 0 0 1 .502 1.574l.003.022v.002l.04.456h.479l.082.005a3.48 3.48 0 0 1 1.272.334c.34.167.664.408.904.76.236.347.411.832.411 1.523 0 .645-.227 1.096-.559 1.432-.344.347-.823.59-1.342.755a7.322 7.322 0 0 1-2.045.3h-.039a.5.5 0 1 0-.03.999h.019a3.201 3.201 0 0 0 .2 0c.131-.003.318-.01.542-.03a7.773 7.773 0 0 0 1.655-.316c.606-.192 1.252-.5 1.751-1.005.512-.517.848-1.22.848-2.135 0-.87-.224-1.556-.585-2.086a3.283 3.283 0 0 0-1.29-1.095 4.48 4.48 0 0 0-1.382-.407 5.867 5.867 0 0 0-.551-1.556C11.653 1.307 10.636.218 8.799.057 7.01-.101 5.913.572 5.277 1.333Z M10.837 12.136c.193.2.215.51.065.735l-.065.08L8 15.966 5.163 12.95a.591.591 0 0 1 0-.814.541.541 0 0 1 .708-.067l.077.066L7.5 13.802V5.967a.5.5 0 0 1 .992-.09l.008.09V13.8l1.552-1.665a.541.541 0 0 1 .708-.067l.077.066Z"/>
</svg>
