<svg width="16" height="16" viewBox="0 0 16 16" fill="none" xmlns="http://www.w3.org/2000/svg">
<path d="M5.27731 1.29963C5.00105 1.63051 4.82004 1.96778 4.70412 2.23888C4.55906 2.18657 4.39044 2.13823 4.20585 2.10799C3.56782 2.00344 2.73594 2.12284 2.09879 2.97954C1.43488 3.87223 1.41318 4.70105 1.5971 5.3182C1.6389 5.45846 1.69037 5.58502 1.7446 5.69655C1.57713 5.7811 1.38913 5.89154 1.20001 6.03338C0.609019 6.4766 0 7.23691 0 8.4333C0 9.10051 0.295839 9.61041 0.733616 9.9741C1.15388 10.3232 1.69807 10.5345 2.22776 10.6681C3.27991 10.9333 4.45456 10.9333 4.98767 10.9333H5C5.27614 10.9333 5.5 10.7094 5.5 10.4333C5.5 10.1572 5.27614 9.9333 5 9.9333C4.46048 9.9333 3.39522 9.93113 2.47223 9.69843C2.01025 9.58196 1.62945 9.41826 1.37263 9.20491C1.13333 9.0061 1 8.76603 1 8.4333C1 7.62978 1.39098 7.14014 1.79999 6.83339C2.0086 6.67694 2.21985 6.57095 2.3798 6.50431C2.45912 6.47126 2.52399 6.44865 2.56707 6.4348C2.58855 6.42789 2.60446 6.42322 2.61384 6.42056L2.62347 6.41791L3.47526 6.20497L2.85709 5.5834L2.85549 5.58166C2.8521 5.57799 2.84534 5.57049 2.83595 5.55934C2.81708 5.53696 2.78817 5.50055 2.755 5.45162C2.68797 5.35272 2.60812 5.20937 2.55545 5.0326C2.45688 4.70185 2.43517 4.20294 2.90121 3.57631C3.26406 3.08842 3.68218 3.03552 4.04415 3.09483C4.23625 3.1263 4.41029 3.19147 4.53898 3.25138C4.60229 3.28086 4.65197 3.30781 4.68428 3.3264C4.70037 3.33565 4.71194 3.34271 4.71854 3.34682L4.72463 3.35067L5.35075 3.76809L5.49097 3.02799L5.49377 3.01534C5.49676 3.00238 5.50203 2.98071 5.5101 2.95164C5.52627 2.89336 5.5534 2.80625 5.59529 2.70069C5.61675 2.64662 5.64187 2.58826 5.67109 2.52685C5.75669 2.34698 5.87753 2.14102 6.04492 1.94055C6.47611 1.42412 7.25672 0.891096 8.71168 1.01925C10.1196 1.14331 10.8802 1.9502 11.3082 2.75782C11.525 3.16678 11.6526 3.57167 11.7256 3.87626C11.7619 4.02771 11.7842 4.15208 11.7972 4.23669C11.8037 4.27894 11.8079 4.31109 11.8104 4.33154L11.8128 4.35319L11.8131 4.35595L11.8535 4.81174H12.3098L12.3124 4.81177L12.3306 4.81224C12.3482 4.81281 12.3763 4.81403 12.4133 4.81662C12.4874 4.82181 12.5966 4.83241 12.7289 4.85399C12.9958 4.89754 13.3439 4.98371 13.6857 5.15104C14.0259 5.31752 14.3493 5.55888 14.5885 5.91013C14.8252 6.25771 15 6.74268 15 7.43338C15 8.07849 14.7733 8.52995 14.4415 8.86521C14.0973 9.213 13.6182 9.45598 13.099 9.62045C12.5833 9.78381 12.06 9.85965 11.6605 9.89382C11.4621 9.91079 11.2974 9.91722 11.1836 9.91943C11.1268 9.92054 11.0829 9.92059 11.054 9.92039L11.0224 9.92L11.0147 9.91984C10.7389 9.91169 10.5085 10.1287 10.5002 10.4046C10.4919 10.6806 10.7098 10.9111 10.9858 10.9194L10.9871 10.9195L10.991 10.9196L11.0035 10.9198C11.0139 10.92 11.0285 10.9202 11.0471 10.9204C11.0841 10.9206 11.1369 10.9205 11.2031 10.9192C11.3354 10.9167 11.5223 10.9093 11.7457 10.8902C12.19 10.8522 12.7917 10.7668 13.401 10.5738C14.0068 10.3819 14.6527 10.0734 15.1523 9.56863C15.6642 9.05131 16 8.34908 16 7.43338C16 6.56326 15.7762 5.87761 15.415 5.34724C15.0563 4.82052 14.5824 4.47657 14.1254 4.25285C13.67 4.02998 13.2209 3.92104 12.8899 3.86704C12.8382 3.8586 12.789 3.85145 12.7428 3.8454C12.7302 3.7833 12.7154 3.71557 12.698 3.64307C12.6113 3.2816 12.4584 2.79245 12.1918 2.28951C11.6532 1.27331 10.6359 0.184927 8.79943 0.0231109C7.00995 -0.134513 5.91279 0.538534 5.27731 1.29963Z" fill="#242424"/>
<path d="M10.8373 12.1021C11.0301 12.3021 11.0516 12.6125 10.9016 12.8371L10.8373 12.9168L8 15.9333L5.16272 12.9168C4.94576 12.6918 4.94576 12.3271 5.16272 12.1021C5.35557 11.9021 5.65493 11.8798 5.87145 12.0354L5.94839 12.1021L7.5 13.7673L7.5 5.93332C7.5 5.65718 7.72386 5.43332 8 5.43332C8.24546 5.43332 8.44961 5.61019 8.49195 5.84344L8.5 5.93332L8.5 13.7673L10.0516 12.1021C10.2445 11.9021 10.5438 11.8798 10.7603 12.0354L10.8373 12.1021Z" fill="#242424"/>
</svg>
