<svg xmlns="http://www.w3.org/2000/svg" width="16" height="16" viewBox="0 0 16 16"><path fill="#242424" fill-rule="evenodd" d="M13.5,13.5 C13.7761424,13.5 14,13.7238576 14,14 C14,14.2454599 13.8231248,14.4496084 13.5898756,14.4919443 L13.5,14.5 L2.5,14.5 C2.22385763,14.5 2,14.2761424 2,14 C2,13.7545401 2.17687516,13.5503916 2.41012437,13.5080557 L2.5,13.5 L13.5,13.5 Z M3.23966055,5.60208105 C3.42911569,5.46597298 3.68199542,5.46597298 3.87145056,5.60208105 L3.94839266,5.66874623 L8,9.87056526 L12.0516073,5.66874623 L12.1285494,5.60208105 C12.3450696,5.44652897 12.64443,5.4687507 12.8372815,5.66874623 C13.030133,5.86874177 13.051561,6.17919179 12.9015654,6.40373277 L12.8372815,6.48352512 L8,11.5 L3.16271845,6.48352512 L3.09843462,6.40373277 C2.96718846,6.20725941 2.96718846,5.94501195 3.09843462,5.74853859 L3.16271845,5.66874623 L3.23966055,5.60208105 Z M8,1 C8.24545989,1 8.44960837,1.17687516 8.49194433,1.41012437 L8.5,1.5 L8.5,7.5 L8.49194433,7.58987563 C8.44960837,7.82312484 8.24545989,8 8,8 C7.75454011,8 7.55039163,7.82312484 7.50805567,7.58987563 L7.5,7.5 L7.5,1.5 L7.50805567,1.41012437 C7.55039163,1.17687516 7.75454011,1 8,1 Z"/></svg>