<svg width="16" height="16" viewBox="0 0 16 16" fill="none" xmlns="http://www.w3.org/2000/svg">
<path fill-rule="evenodd" clip-rule="evenodd" d="M6 2C6.55228 2 7 1.55228 7 1C7 0.447715 6.55228 0 6 0C5.44772 0 5 0.447715 5 1C5 1.55228 5.44772 2 6 2ZM10 2C10.5523 2 11 1.55228 11 1C11 0.447715 10.5523 0 10 0C9.44772 0 9 0.447715 9 1C9 1.55228 9.44772 2 10 2ZM7 5.66669C7 6.21897 6.55228 6.66669 6 6.66669C5.44772 6.66669 5 6.21897 5 5.66669C5 5.1144 5.44772 4.66669 6 4.66669C6.55228 4.66669 7 5.1144 7 5.66669ZM10 6.66669C10.5523 6.66669 11 6.21897 11 5.66669C11 5.1144 10.5523 4.66669 10 4.66669C9.44772 4.66669 9 5.1144 9 5.66669C9 6.21897 9.44772 6.66669 10 6.66669ZM7 10.3334C7 10.8857 6.55228 11.3334 6 11.3334C5.44772 11.3334 5 10.8857 5 10.3334C5 9.78109 5.44772 9.33337 6 9.33337C6.55228 9.33337 7 9.78109 7 10.3334ZM10 11.3334C10.5523 11.3334 11 10.8857 11 10.3334C11 9.78109 10.5523 9.33337 10 9.33337C9.44772 9.33337 9 9.78109 9 10.3334C9 10.8857 9.44772 11.3334 10 11.3334ZM7 15C7 15.5523 6.55228 16 6 16C5.44772 16 5 15.5523 5 15C5 14.4477 5.44772 14 6 14C6.55228 14 7 14.4477 7 15ZM10 16C10.5523 16 11 15.5523 11 15C11 14.4477 10.5523 14 10 14C9.44772 14 9 14.4477 9 15C9 15.5523 9.44772 16 10 16Z" fill="#242424"/>
</svg>
