<svg width="16" height="16" viewBox="0 0 16 16" fill="none" xmlns="http://www.w3.org/2000/svg">
<path d="M13.9101 5.5289C13.6551 5.40259 13.3451 5.50499 13.2176 5.75761C13.0902 6.01024 13.1935 6.31743 13.4485 6.44375C13.5772 6.50753 13.7056 6.56632 13.8313 6.62032C14.0296 6.70543 14.2214 6.77863 14.398 6.84069L14.5524 6.90927L14.398 6.97366C13.876 7.29481 13.2817 7.35493 12.8773 7.27479C12.6409 7.22795 12.4033 7.34947 12.3049 7.56753C12.2065 7.78559 12.2735 8.04209 12.4664 8.18541C12.7836 8.42114 13.0501 8.87355 13.1486 9.47355C13.2458 10.0652 13.1702 10.7572 12.8551 11.4171C12.2407 12.7034 10.6503 13.9772 7.35676 13.9772C4.82982 13.9772 3.17838 12.8404 2.1951 11.4046C1.40108 10.2452 1.03224 9.18268 1.03224 7.95528C1.03224 7.95528 3.6309 8.59758 5.75397 8.28203C6.03587 8.24013 6.23011 7.97973 6.18782 7.70041C6.14554 7.42109 5.88274 7.22862 5.60084 7.27052C3.12084 7.63912 1.72977 7.13706 0.905372 6.48226C0.762433 6.36873 0.569469 6.33878 0.39834 6.40357C0.227212 6.46836 0.103566 6.61817 0.0734489 6.79722C-0.174855 8.27344 0.196332 10.3076 1.34093 11.9789C2.50279 13.6755 4.46426 15 7.35676 15C10.9372 15 12.9597 13.5889 13.7881 11.8546C14.1943 11.0042 14.2976 10.102 14.1675 9.3093C14.1071 8.9416 13.9944 8.58756 13.8313 8.27031C14.5707 8.1306 15.3641 7.72563 15.9133 6.90927C16.0081 6.76838 16.0264 6.59012 15.9621 6.43322C15.918 6.32553 15.8385 6.2374 15.739 6.18122L15.4567 6.09314C15.4567 6.09314 15.2328 6.03434 15.0731 5.98528C14.7519 5.88663 14.3288 5.73637 13.9101 5.5289Z" fill="#242424"/>
<path fill-rule="evenodd" clip-rule="evenodd" d="M9.9043 2.02709C8.20152 2.11551 6.88496 3.57164 6.97587 5.29037C7.01599 6.04896 7.32333 6.72815 7.80119 7.24332C8.26767 7.74621 8.89487 8.09089 9.5923 8.19979C9.87388 8.24376 10.0662 8.50558 10.0218 8.78458C9.97743 9.06358 9.7132 9.25412 9.43162 9.21015C8.49589 9.06405 7.65988 8.60246 7.04118 7.93547C6.40609 7.25079 5.99811 6.34767 5.94502 5.3439C5.82483 3.07137 7.56781 1.12419 9.85027 1.00566C12.1327 0.887139 14.0716 2.64313 14.1918 4.91565C14.254 6.09248 13.8167 7.18146 13.0649 7.97402C12.8697 8.17983 12.543 8.18985 12.3353 7.99641C12.1276 7.80297 12.1175 7.47932 12.3127 7.27351C12.8786 6.677 13.2079 5.8579 13.1609 4.96918C13.07 3.25046 11.6071 1.93867 9.9043 2.02709Z" fill="#242424"/>
<path fill-rule="evenodd" clip-rule="evenodd" d="M6.9151 9.33751C7.04258 9.59014 6.93924 9.89733 6.68428 10.0236C6.36547 10.1816 5.97239 10.243 5.61065 10.2654C5.23787 10.2885 4.84385 10.2728 4.49124 10.2437C4.32467 10.2299 4.16497 10.213 4.01817 10.1951C4.18672 10.5435 4.46037 10.9114 4.87376 11.2127C5.57315 11.7223 6.73733 12.087 8.6192 11.748C8.89965 11.6975 9.16834 11.8818 9.21933 12.1597C9.27032 12.4376 9.08431 12.7038 8.80385 12.7543C6.71152 13.1313 5.24129 12.7501 4.26219 12.0367C3.29596 11.3326 2.87079 10.3492 2.78002 9.62966C2.75944 9.46654 2.81926 9.30356 2.94077 9.19164C3.06226 9.07975 3.23061 9.03253 3.39325 9.06472C3.39321 9.06471 3.3933 9.06472 3.39325 9.06472L3.3977 9.06558L3.41447 9.06879C3.42965 9.07166 3.45268 9.07594 3.48266 9.0813C3.54267 9.09204 3.63037 9.10709 3.73878 9.12387C3.95623 9.15754 4.25394 9.19771 4.57696 9.22439C4.90178 9.25121 5.24162 9.26346 5.54626 9.24459C5.86195 9.22504 6.08983 9.1746 6.22264 9.1088C6.4776 8.98249 6.78762 9.08489 6.9151 9.33751Z" fill="#242424"/>
<path fill-rule="evenodd" clip-rule="evenodd" d="M10.9696 5.078C10.9696 5.08244 10.9696 5.08689 10.9696 5.09135C10.9696 5.09581 10.9696 5.10026 10.9696 5.1047C10.9732 5.59282 11.174 5.98632 11.4212 5.98632C11.6684 5.98632 11.8692 5.59282 11.8728 5.1047C11.8728 5.10026 11.8728 5.09581 11.8728 5.09135C11.8728 5.08689 11.8728 5.08244 11.8728 5.078C11.8692 4.58988 11.6684 4.19638 11.4212 4.19638C11.174 4.19638 10.9732 4.58988 10.9696 5.078Z" fill="#242424"/>
</svg>
