<svg width="16" height="16" viewBox="0 0 16 16" fill="none" xmlns="http://www.w3.org/2000/svg">
<path fill-rule="evenodd" clip-rule="evenodd" d="M2.5 0L6.53959 0.00156876L6.58988 0.00805567L6.65473 0.024544L6.72679 0.0543895L6.75236 0.0682647L6.82214 0.117594L7.70511 1H6H4H2.5C2.25454 1 2.05039 1.17688 2.00806 1.41012L2 1.5V12.5C2 12.7455 2.17688 12.9496 2.41012 12.9919L2.5 13H4V14H2.5C1.7203 14 1.07955 13.4051 1.00687 12.6445L1 12.5V1.5C1 0.720304 1.59489 0.0795513 2.35554 0.00686658L2.5 0ZM11 4.46491C11.0013 4.48598 11.0013 4.50705 11 4.52798V6H13.293L11 3.707V4.46491ZM6.5 2L10.5396 2.00157L10.5899 2.00806L10.6547 2.02454L10.7268 2.05439L10.7524 2.06826L10.8221 2.11759L14.8536 6.14645C15.1475 6.44043 14.9728 6.92918 14.586 6.99304L14.5 7H10.5C10.2545 7 10.0504 6.82312 10.0081 6.58988L10 6.5V3H6.5C6.25454 3 6.05039 3.17688 6.00806 3.41012L6 3.5V6H5V3.5C5 2.7203 5.59489 2.07955 6.35554 2.00687L6.5 2ZM5 13H6V14.5C6 14.7455 6.17688 14.9496 6.41012 14.9919L6.5 15H13.5C13.7455 15 13.9496 14.8231 13.9919 14.5899L14 14.5V9C14 8.72386 14.2239 8.5 14.5 8.5C14.7455 8.5 14.9496 8.67688 14.9919 8.91012L15 9V14.5C15 15.2797 14.4051 15.9204 13.6445 15.9931L13.5 16H6.5C5.7203 16 5.07955 15.4051 5.00687 14.6445L5 14.5V13ZM9.762 9.94511C9.82609 9.90752 9.881 9.85237 9.92188 9.78523L10.2071 9.5L9.92188 9.21477C9.881 9.14763 9.82609 9.09248 9.762 9.05489L7.85355 7.14645L7.78431 7.08859C7.58944 6.9536 7.32001 6.97288 7.14645 7.14645L7.08859 7.21569C6.9536 7.41056 6.97288 7.67999 7.14645 7.85355L8.29297 9H3.4375L3.35886 9.00806C3.15477 9.05039 3 9.25454 3 9.5C3 9.77614 3.19588 10 3.4375 10H8.29297L7.14645 11.1464L7.08859 11.2157C6.9536 11.4106 6.97288 11.68 7.14645 11.8536C7.34171 12.0488 7.65829 12.0488 7.85355 11.8536L9.762 9.94511Z" fill="#242424"/>
</svg>
