<svg xmlns="http://www.w3.org/2000/svg" width="16" height="16" fill="none" viewBox="0 0 16 16">
  <path fill="#242424" d="M6.54.002 2.5 0l-.145.007A1.5 1.5 0 0 0 .999 1.5v11l.007.145A1.5 1.5 0 0 0 2.5 14H4v-1H2.5l-.09-.008A.5.5 0 0 1 2 12.5v-11l.009-.09a.5.5 0 0 1 .49-.41h5.206L6.822.118l-.07-.05-.026-.014-.072-.03L6.59.009 6.54.002ZM5 13v1.5l.006.145A1.5 1.5 0 0 0 6.5 16h7l.144-.007a1.5 1.5 0 0 0 1.355-1.493V9l-.008-.09A.5.5 0 0 0 14 9v5.5l-.008.09a.5.5 0 0 1-.492.41h-7l-.09-.008A.5.5 0 0 1 6 14.5V13H5Z M5 6h1V3.5l.008-.09A.5.5 0 0 1 6.5 3H10v3.5l.008.09A.5.5 0 0 0 10.5 7h.5V3.7L13.3 6h-2.2v1h3.4l.085-.007a.5.5 0 0 0 .268-.847l-4.031-4.028-.07-.05-.026-.014-.072-.03-.065-.016-.05-.006L6.5 2l-.144.007A1.5 1.5 0 0 0 4.999 3.5V6Zm4.761 3.945a.464.464 0 0 0 .16-.16l.286-.285-.286-.285a.464.464 0 0 0-.16-.16L7.853 7.146l-.07-.057a.5.5 0 0 0-.637.057l-.058.07a.5.5 0 0 0 .058.638L8.292 9H3.437l-.079.008C3.154 9.05 3 9.255 3 9.5c0 .276.196.5.438.5h4.855l-1.146 1.146-.058.07a.5.5 0 0 0 .765.638l1.908-1.909Z"/>
</svg>
