<svg width="16" height="16" fill="none" viewBox="0 0 16 16">
  <path fill="#242424" fill-rule="evenodd" d="m2.5 0 4.04.002.05.006.064.017.072.03.026.013.07.05.883.882H2.5a.5.5 0 0 0-.492.41L2 1.5v11a.5.5 0 0 0 .41.492L2.5 13H4v1H2.5a1.5 1.5 0 0 1-1.494-1.355L1 12.5v-11A1.5 1.5 0 0 1 2.355.007L2.5 0Z m6.5 2 4.04.002.05.006.064.017.072.03.026.013.07.05 4.031 4.028a.5.5 0 0 1-.268.847L14.5 7h-4a.5.5 0 0 1-.491-.41L10 6.5V3H6.5a.5.5 0 0 0-.492.41L6 3.5V6H5V3.5a1.5 1.5 0 0 1 1.355-1.493L6.5 2ZM11 4.465a.492.492 0 0 1 0 .063V6h2.293L11 3.707v.758Z M5 13h1v1.5a.5.5 0 0 0 .41.492L6.5 15h7a.5.5 0 0 0 .492-.41l.007-.09V9a.5.5 0 0 1 .992-.09L15 9v5.5a1.5 1.5 0 0 1-1.355 1.493L13.5 16h-7a1.5 1.5 0 0 1-1.493-1.355L5 14.5V13Z M9.762 9.945a.464.464 0 0 0 .16-.16l.285-.285-.286-.285a.464.464 0 0 0-.16-.16L7.854 7.146l-.07-.057a.5.5 0 0 0-.637.057l-.058.07a.5.5 0 0 0 .058.638L8.292 9H3.437l-.079.008C3.154 9.05 3 9.255 3 9.5c0 .276.195.5.437.5h4.855l-1.146 1.146-.058.07a.5.5 0 0 0 .765.638l1.909-1.909Z" clip-rule="evenodd"/>
</svg>
