<svg xmlns="http://www.w3.org/2000/svg" width="16" height="16" fill="none" viewBox="0 0 16 16">
  <path fill="#242424" d="M5.57 1.002 1.53 1l-.145.007A1.5 1.5 0 0 0 .029 2.5v11l.007.145A1.5 1.5 0 0 0 1.53 15h8a.5.5 0 0 0 0-1h-8l-.09-.008a.5.5 0 0 1-.41-.492v-11l.009-.09a.5.5 0 0 1 .49-.41h3.5v3.5l.009.09a.5.5 0 0 0 .491.41h4l.087-.007a.5.5 0 0 0 .267-.847L5.852 1.118l-.07-.05-.026-.014-.072-.03-.065-.016-.05-.006ZM6.03 5V2.707L8.321 5H6.03Z M13.222 3.155a.549.549 0 0 1 .776 0l1.812 1.812a.549.549 0 0 1 0 .777l-7.311 7.311H5.91v-2.588l7.312-7.312Zm-6.013 7.307-.384.384v1.294H8.12l.384-.384-1.294-1.294Zm6.401-6.4L7.856 9.814 9.15 11.11l5.754-5.754-1.294-1.294Z"/>
</svg>
