<svg width="16" height="16" fill="none" viewBox="0 0 16 16">
  <path fill="#242424" fill-rule="evenodd" d="M5.54 1.002 1.5 1l-.144.007A1.5 1.5 0 0 0 0 2.5v11l.007.145A1.5 1.5 0 0 0 1.5 15h8a.5.5 0 0 0 0-1h-8l-.09-.008A.5.5 0 0 1 1 13.5v-11l.008-.09A.5.5 0 0 1 1.5 2H5v3.5l.008.09A.5.5 0 0 0 5.5 6h4l.086-.007a.5.5 0 0 0 .268-.847L5.822 1.118l-.07-.05-.025-.014-.072-.03-.065-.016-.05-.006ZM6 5V2.707L8.293 5H6Z M13.147 3.146a.5.5 0 0 1 .707 0l2 2a.5.5 0 0 1 0 .708L8.707 13H6v-2.707l7.147-7.147ZM14.793 5.5 13.5 4.207 8.207 9.5 9.5 10.793 14.793 5.5ZM7 10.706l.5-.5L8.793 11.5l-.5.5H7v-1.294Z" clip-rule="evenodd"/>
</svg>
