<svg width="16" height="16" viewBox="0 0 16 16" fill="none" xmlns="http://www.w3.org/2000/svg">
<path fill-rule="evenodd" clip-rule="evenodd" d="M11.6464 0.646447C11.8417 0.451185 12.1583 0.451184 12.3536 0.646446L14.3536 2.64645C14.5488 2.84171 14.5488 3.15829 14.3536 3.35355L4.20711 13.5H1.5V10.7929L11.6464 0.646447ZM13.293 3L12 1.707L3.70662 9.99951L4.99962 11.2925L13.293 3ZM2.5 11.206L2.99947 10.7066L4.29247 11.9996L3.792 12.5H2.5V11.206ZM14 15.5C14 15.2239 13.7761 15 13.5 15H2.5C2.22386 15 2 15.2239 2 15.5C2 15.7761 2.22386 16 2.5 16H13.5C13.7761 16 14 15.7761 14 15.5Z" fill="#242424"/>
</svg>
