<svg width="16" height="16" viewBox="0 0 16 16" fill="none" xmlns="http://www.w3.org/2000/svg">
<path fill-rule="evenodd" clip-rule="evenodd" d="M13.8536 3.14645C13.6583 2.95118 13.3417 2.95118 13.1464 3.14645L6 10.2929V13H8.70711L15.8536 5.85355C16.0488 5.65829 16.0488 5.34171 15.8536 5.14645L13.8536 3.14645ZM13.5 4.207L14.793 5.5L9.49965 10.7925L8.20665 9.49954L13.5 4.207ZM7.49948 10.2066L7 10.706V12H8.292L8.79249 11.4996L7.49948 10.2066Z" fill="#242424"/>
<path fill-rule="evenodd" clip-rule="evenodd" d="M1.5 1L5.53959 1.00157L5.58988 1.00806L5.65473 1.02454L5.72679 1.05439L5.75236 1.06826L5.82214 1.11759L9.85355 5.14645C10.1475 5.44043 9.97281 5.92918 9.58603 5.99304L9.5 6H5.5C5.25454 6 5.05039 5.82312 5.00806 5.58988L5 5.5V2H1.5C1.25454 2 1.05039 2.17688 1.00806 2.41012L1 2.5V13.5C1 13.7455 1.17688 13.9496 1.41012 13.9919L1.5 14H9.5C9.77614 14 10 14.2239 10 14.5C10 14.7761 9.77614 15 9.5 15H1.5C0.720304 15 0.0795513 14.4051 0.00686658 13.6445L0 13.5V2.5C0 1.7203 0.594888 1.07955 1.35554 1.00687L1.5 1ZM6 2.707V5H8.293L6 2.707Z" fill="#242424"/>
</svg>
