<svg width="16" height="16" viewBox="0 0 16 16" fill="none" xmlns="http://www.w3.org/2000/svg">
<path fill-rule="evenodd" clip-rule="evenodd" d="M8.20954 2.04689C8.07551 1.98435 7.92068 1.98435 7.78665 2.04689L0.286652 5.54689C0.036416 5.66367 -0.0717738 5.96119 0.0450027 6.21143C0.161779 6.46166 0.459302 6.56985 0.709537 6.45308L7.99809 3.05175L14.3157 5.99998L8.0056 8.94472L4.2217 7.05277C4.06671 6.97527 3.88264 6.98356 3.73523 7.07466C3.58782 7.16576 3.49809 7.3267 3.49809 7.49998V12C3.49809 12.1326 3.55077 12.2598 3.64454 12.3535L3.99809 12C3.64454 12.3535 3.64536 12.3544 3.64563 12.3546L3.64681 12.3558L3.64946 12.3584L3.65595 12.3647C3.6608 12.3693 3.66672 12.3748 3.67372 12.3812C3.68773 12.3939 3.7061 12.41 3.72907 12.4289C3.77503 12.4668 3.83931 12.5159 3.92387 12.5723C4.09317 12.6851 4.34262 12.8263 4.6874 12.9642C5.37784 13.2404 6.44174 13.5 7.99809 13.5C9.55468 13.5 10.733 13.2404 11.5312 12.9743C11.93 12.8414 12.2331 12.7071 12.4405 12.6034C12.5441 12.5516 12.6239 12.5074 12.6797 12.4748C12.7076 12.4586 12.7296 12.4452 12.7455 12.4352L12.765 12.4229L12.7713 12.4187L12.7737 12.4172L12.7754 12.416C12.7756 12.4159 12.7754 12.416 12.4981 12L12.7754 12.416C12.9145 12.3233 12.9981 12.1672 12.9981 12V7.71842L15.7095 6.45308C15.8856 6.37093 15.9981 6.19425 15.9981 5.99998C15.9981 5.80572 15.8856 5.62904 15.7095 5.54689L8.20954 2.04689ZM5.05879 12.0357C4.79426 11.9299 4.61187 11.827 4.49809 11.7531V8.309L7.77449 9.9472C7.91101 10.0155 8.07123 10.0176 8.20954 9.95308L11.9981 8.18508V11.7066L11.9932 11.709C11.8256 11.7928 11.5662 11.9086 11.215 12.0256C10.5132 12.2596 9.44151 12.5 7.99809 12.5C6.55445 12.5 5.61835 12.2596 5.05879 12.0357ZM8.03962 6.49826C8.31481 6.47533 8.5193 6.23365 8.49637 5.95846C8.47344 5.68327 8.23176 5.47878 7.95657 5.50171L1.95657 6.00171C1.69743 6.02331 1.49809 6.23994 1.49809 6.49998V10.5C1.49809 10.5431 1.50355 10.585 1.51382 10.6249C1.20627 10.7954 0.998097 11.1234 0.998097 11.5C0.998097 12.0523 1.44581 12.5 1.9981 12.5C2.55038 12.5 2.9981 12.0523 2.9981 11.5C2.9981 11.1234 2.78992 10.7954 2.48237 10.6249C2.49264 10.5849 2.49809 10.5431 2.49809 10.5V6.96005L8.03962 6.49826Z" fill="#242424"/>
</svg>
