<svg width="16" height="16" fill="none" viewBox="0 0 16 16">
  <path fill="#000" fill-rule="evenodd" d="M8.212 2.297a.5.5 0 0 0-.423 0l-7.5 3.5a.5.5 0 1 0 .423.906L8 3.302l6.318 2.948-6.31 2.945-3.784-1.892a.5.5 0 0 0-.724.447v4.5a.5.5 0 0 0 .147.354L4 12.25c-.353.354-.352.355-.352.355l.003.003.007.007a1.36 1.36 0 0 0 .073.064c.046.038.11.087.195.143.17.113.419.254.763.392.69.276 1.755.536 3.311.536 1.557 0 2.735-.26 3.533-.526.399-.133.702-.267.91-.37a4.307 4.307 0 0 0 .305-.169l.019-.012.006-.004.003-.002.002-.001-.278-.416.277.416A.5.5 0 0 0 13 12.25V7.968l2.712-1.265a.5.5 0 0 0 0-.906l-7.5-3.5ZM5.06 12.286a3.239 3.239 0 0 1-.56-.283V8.56l3.276 1.638a.5.5 0 0 0 .435.006L12 8.435v3.522l-.005.002c-.167.084-.427.2-.778.317-.702.234-1.773.474-3.217.474-1.444 0-2.38-.24-2.94-.464Z M8.042 6.748a.5.5 0 1 0-.083-.996l-6 .5a.5.5 0 0 0-.459.498v4c0 .043.006.085.016.125a1 1 0 1 0 .968 0 .501.501 0 0 0 .016-.125V7.21l5.542-.462Z" clip-rule="evenodd"/>
</svg>
