<svg width="16" height="16" viewBox="0 0 16 16" fill="none" xmlns="http://www.w3.org/2000/svg">
<path fill-rule="evenodd" clip-rule="evenodd" d="M14.9859 4.09882C13.5813 1.58861 10.9296 0 8 0C3.58172 0 0 3.58172 0 8C0 12.4183 3.58172 16 8 16C12.4183 16 16 12.4183 16 8C16 7.72386 15.7761 7.5 15.5 7.5C15.2239 7.5 15 7.72386 15 8C15 11.866 11.866 15 8 15C4.13401 15 1 11.866 1 8C1 4.13401 4.13401 1 8 1C10.5639 1 12.8837 2.38979 14.1132 4.58713C14.248 4.82812 14.5527 4.91416 14.7937 4.77931C15.0347 4.64447 15.1207 4.3398 14.9859 4.09882ZM8 4.75C8.24546 4.75 8.44961 4.92688 8.49194 5.16012L8.5 5.25V8.75C8.5 9.02614 8.27614 9.25 8 9.25C7.75454 9.25 7.55039 9.07312 7.50806 8.83988L7.5 8.75V5.25C7.5 4.97386 7.72386 4.75 8 4.75ZM8 10.25C8.27614 10.25 8.5 10.4739 8.5 10.75C8.5 11.0261 8.27614 11.25 8 11.25C7.72386 11.25 7.5 11.0261 7.5 10.75C7.5 10.4739 7.72386 10.25 8 10.25Z" fill="#242424"/>
</svg>
