<svg xmlns="http://www.w3.org/2000/svg" width="16" height="16" viewBox="0 0 16 16"><path fill="#242424" fill-rule="evenodd" d="M8,0 C10.9296247,0 13.581254,1.58861071 14.9858712,4.09882317 C15.1207147,4.33980414 15.0346734,4.64447011 14.7936924,4.77931368 C14.5527114,4.91415724 14.2480455,4.82811588 14.1132019,4.58713492 C12.8836552,2.3897936 10.5638815,1 8,1 C4.13400675,1 1,4.13400675 1,8 C1,11.8659932 4.13400675,15 8,15 C11.8659932,15 15,11.8659932 15,8 C15,7.72385763 15.2238576,7.5 15.5,7.5 C15.7761424,7.5 16,7.72385763 16,8 C16,12.418278 12.418278,16 8,16 C3.581722,16 0,12.418278 0,8 C0,3.581722 3.581722,0 8,0 Z M8,10.25 C8.27614237,10.25 8.5,10.4738576 8.5,10.75 C8.5,11.0261424 8.27614237,11.25 8,11.25 C7.72385763,11.25 7.5,11.0261424 7.5,10.75 C7.5,10.4738576 7.72385763,10.25 8,10.25 Z M8,4.75 C8.24545989,4.75 8.44960837,4.92687516 8.49194433,5.16012437 L8.5,5.25 L8.5,8.75 C8.5,9.02614237 8.27614237,9.25 8,9.25 C7.75454011,9.25 7.55039163,9.07312484 7.50805567,8.83987563 L7.5,8.75 L7.5,5.25 C7.5,4.97385763 7.72385763,4.75 8,4.75 Z"/></svg>