<svg width="16" height="16" viewBox="0 0 16 16" fill="none" xmlns="http://www.w3.org/2000/svg">
<path fill-rule="evenodd" clip-rule="evenodd" d="M8.20749 0.0102341L0.527494 1.40332C0.22226 1.45868 0 1.72834 0 2.0433V13.9568C0 14.2718 0.22226 14.5414 0.527494 14.5968L8.20749 15.9899C8.24463 15.9966 8.28228 16 8.32 16C8.67346 16 8.96 15.7089 8.96 15.3499V0.650216C8.96 0.611898 8.95666 0.573655 8.95003 0.535933C8.8879 0.182481 8.55545 -0.0528824 8.20749 0.0102341ZM5.57052 10.8893H7.36L5.40998 8.01982L7.22295 5.03832H5.45697L4.46238 6.84723L3.42863 5.03832H1.71356L3.49912 7.89576L1.6 10.8893H3.35032L4.45455 9.06035L5.57052 10.8893ZM15.36 2.31163H10.24V3.61184H11.84C11.9284 3.61184 12 3.68348 12 3.77184V4.427C12 4.51537 11.9284 4.587 11.84 4.587H10.24V5.56216H11.84C11.9284 5.56216 12 5.63379 12 5.72216V6.37732C12 6.46568 11.9284 6.53732 11.84 6.53732H10.24V7.51248H11.84C11.9284 7.51248 12 7.58411 12 7.67248V8.32763C12 8.416 11.9284 8.48763 11.84 8.48763H10.24V9.46279H11.84C11.9284 9.46279 12 9.53443 12 9.62279V10.278C12 10.3663 11.9284 10.438 11.84 10.438H10.24V11.4131H11.84C11.9284 11.4131 12 11.4847 12 11.5731V12.2283C12 12.3166 11.9284 12.3883 11.84 12.3883H10.24V13.6885H15.36C15.7135 13.6885 16 13.3974 16 13.0384V2.96174C16 2.60269 15.7135 2.31163 15.36 2.31163ZM13.28 3.77184C13.28 3.68348 13.3516 3.61184 13.44 3.61184H14.88C14.9684 3.61184 15.04 3.68348 15.04 3.77184V4.427C15.04 4.51537 14.9684 4.587 14.88 4.587H13.44C13.3516 4.587 13.28 4.51537 13.28 4.427V3.77184ZM13.28 5.72216C13.28 5.63379 13.3516 5.56216 13.44 5.56216H14.88C14.9684 5.56216 15.04 5.63379 15.04 5.72216V6.37732C15.04 6.46568 14.9684 6.53732 14.88 6.53732H13.44C13.3516 6.53732 13.28 6.46568 13.28 6.37732V5.72216ZM13.28 7.67248C13.28 7.58411 13.3516 7.51248 13.44 7.51248H14.88C14.9684 7.51248 15.04 7.58411 15.04 7.67248V8.32763C15.04 8.416 14.9684 8.48763 14.88 8.48763H13.44C13.3516 8.48763 13.28 8.416 13.28 8.32763V7.67248ZM13.28 9.62279C13.28 9.53443 13.3516 9.46279 13.44 9.46279H14.88C14.9684 9.46279 15.04 9.53443 15.04 9.62279V10.278C15.04 10.3663 14.9684 10.438 14.88 10.438H13.44C13.3516 10.438 13.28 10.3663 13.28 10.278V9.62279ZM13.28 11.5731C13.28 11.4847 13.3516 11.4131 13.44 11.4131H14.88C14.9684 11.4131 15.04 11.4847 15.04 11.5731V12.2283C15.04 12.3166 14.9684 12.3883 14.88 12.3883H13.44C13.3516 12.3883 13.28 12.3166 13.28 12.2283V11.5731Z" fill="#242424"/>
</svg>
