<svg xmlns="http://www.w3.org/2000/svg" width="16" height="18" fill="none" viewBox="0 0 16 18">
  <path fill="#242424" d="M0 2.936a.55.55 0 0 1 .45-.54l7.9-1.45a.55.55 0 0 1 .65.541v15.026a.55.55 0 0 1-.653.54l-7.9-1.5A.55.55 0 0 1 0 15.012V2.936Zm1.5 3.042 1.9 2.85-1.9 3h1.8l1.05-1.85 1.05 1.85h1.8l-1.9-3 1.9-2.85H5.4l-1.05 1.8-1.05-1.8H1.5Zm13.9-2.7H10v1.3h1.85a.15.15 0 0 1 .15.15v.7a.15.15 0 0 1-.15.15H10v.95h1.85a.15.15 0 0 1 .15.15v.7a.15.15 0 0 1-.15.15H10v.95h1.85a.15.15 0 0 1 .15.15v.7a.15.15 0 0 1-.15.15H10v.95h1.85a.15.15 0 0 1 .15.15v.7a.15.15 0 0 1-.15.15H10v.95h1.85a.15.15 0 0 1 .15.151v.7a.15.15 0 0 1-.15.15H10v1.289h5.4a.6.6 0 0 0 .6-.6V3.878a.6.6 0 0 0-.6-.6Zm-2.12 1.45a.15.15 0 0 1 .15-.15h1.45a.15.15 0 0 1 .15.15v.7a.15.15 0 0 1-.15.15h-1.45a.15.15 0 0 1-.15-.15v-.7Zm0 1.95a.15.15 0 0 1 .15-.15h1.45a.15.15 0 0 1 .15.15v.7a.15.15 0 0 1-.15.15h-1.45a.15.15 0 0 1-.15-.15v-.7Zm0 1.95a.15.15 0 0 1 .15-.15h1.45a.15.15 0 0 1 .15.15v.7a.15.15 0 0 1-.15.15h-1.45a.15.15 0 0 1-.15-.15v-.7Zm0 1.95a.15.15 0 0 1 .15-.15h1.45a.15.15 0 0 1 .15.15v.7a.15.15 0 0 1-.15.15h-1.45a.15.15 0 0 1-.15-.15v-.7Zm0 1.95a.15.15 0 0 1 .15-.15h1.45a.15.15 0 0 1 .15.15v.7a.15.15 0 0 1-.15.15h-1.45a.15.15 0 0 1-.15-.15v-.7Z"/>
</svg>
