<svg width="16" height="16" fill="none" viewBox="0 0 16 16">
  <path fill="#242424" fill-rule="evenodd" d="M8.207.011.527 1.404a.647.647 0 0 0-.527.64v11.914c0 .315.222.584.527.64l7.68 1.393a.645.645 0 0 0 .753-.64V.65a.64.64 0 0 0-.753-.64Zm-2.636 10.88H7.36L5.41 8.02l1.813-2.982H5.457l-.995 1.81-1.033-1.81H1.714l1.785 2.858L1.6 10.89h1.75l1.105-1.829 1.116 1.83Zm9.789-8.578h-5.12v1.3h1.6a.16.16 0 0 1 .16.16v.655a.16.16 0 0 1-.16.16h-1.6v.975h1.6a.16.16 0 0 1 .16.16v.655a.16.16 0 0 1-.16.16h-1.6v.975h1.6a.16.16 0 0 1 .16.16v.656a.16.16 0 0 1-.16.16h-1.6v.975h1.6a.16.16 0 0 1 .16.16v.655a.16.16 0 0 1-.16.16h-1.6v.975h1.6a.16.16 0 0 1 .16.16v.655a.16.16 0 0 1-.16.16h-1.6v1.3h5.12c.354 0 .64-.29.64-.65V2.963a.645.645 0 0 0-.64-.65Zm-2.08 1.46a.16.16 0 0 1 .16-.16h1.44a.16.16 0 0 1 .16.16v.655a.16.16 0 0 1-.16.16h-1.44a.16.16 0 0 1-.16-.16v-.655Zm0 1.95a.16.16 0 0 1 .16-.16h1.44a.16.16 0 0 1 .16.16v.655a.16.16 0 0 1-.16.16h-1.44a.16.16 0 0 1-.16-.16v-.655Zm0 1.95a.16.16 0 0 1 .16-.16h1.44a.16.16 0 0 1 .16.16v.656a.16.16 0 0 1-.16.16h-1.44a.16.16 0 0 1-.16-.16v-.656Zm0 1.95a.16.16 0 0 1 .16-.16h1.44a.16.16 0 0 1 .16.16v.656a.16.16 0 0 1-.16.16h-1.44a.16.16 0 0 1-.16-.16v-.655Zm0 1.951a.16.16 0 0 1 .16-.16h1.44a.16.16 0 0 1 .16.16v.655a.16.16 0 0 1-.16.16h-1.44a.16.16 0 0 1-.16-.16v-.655Z" clip-rule="evenodd"/>
</svg>
