<svg xmlns="http://www.w3.org/2000/svg" width="16" height="16" viewBox="0 0 16 16"><path fill="#242424" fill-rule="evenodd" d="M7.55814966,1.69955488 L7.60631003,1.77871714 L9.54594199,5.711 L10.6562879,5.87259318 C10.8991967,5.9078899 11.0757892,6.11228301 11.0841443,6.3491959 L11.0791923,6.43929585 C11.0438956,6.68220468 10.8395024,6.8587971 10.6025896,6.86715222 L10.5124896,6.8622002 L9.14329122,6.66324403 C9.01300715,6.64431264 8.89684935,6.57506417 8.81830812,6.4725653 L8.76682234,6.38972338 L7.15794199,3.13 L5.54906165,6.38972338 C5.49079684,6.50778076 5.38904289,6.59685444 5.26729011,6.6398777 L5.17259277,6.66324403 L1.57494199,7.185 L4.17825003,9.7235163 C4.27252447,9.81541116 4.32579487,9.9397102 4.32908874,10.0687989 L4.32204835,10.166082 L3.70694199,13.748 L6.92527143,12.0574343 C7.04180104,11.996171 7.17647791,11.9839184 7.30026642,12.0206763 L7.39061256,12.0574343 L10.607942,13.748 L9.99383564,10.166082 C9.97158046,10.0363244 10.0015449,9.90445279 10.0747566,9.79808175 L10.137634,9.7235163 L11.5819475,8.31565851 C11.7796893,8.12290791 12.096246,8.12695406 12.2889966,8.32469585 C12.4603304,8.50046633 12.4761706,8.7701152 12.338695,8.96324208 L12.2799592,9.03174488 L11.022942,10.255 L11.7652429,14.5785964 C11.8306278,14.9598193 11.4615273,15.2565683 11.1137902,15.1376501 L11.0397682,15.1056847 L7.15794199,13.064 L3.27611579,15.1056847 C2.93375635,15.2856737 2.53747292,15.0263388 2.54311419,14.6588734 L2.55064106,14.5785964 L3.29194199,10.255 L0.151540533,7.19492422 C-0.12402094,6.92631817 -0.00250696944,6.47257255 0.344615257,6.36140909 L0.42864722,6.34207753 L4.76894199,5.711 L6.70957395,1.77871714 C6.87887258,1.43568066 7.34342705,1.40929324 7.55814966,1.69955488 Z M13,1 C13.2761424,1 13.5,1.22385763 13.5,1.5 L13.5,3.5 L15.5,3.5 C15.7761424,3.5 16,3.72385763 16,4 C16,4.27614237 15.7761424,4.5 15.5,4.5 L13.499,4.5 L13.5,6.5 C13.5,6.77614237 13.2761424,7 13,7 C12.7238576,7 12.5,6.77614237 12.5,6.5 L12.499,4.5 L10.5,4.5 C10.2238576,4.5 10,4.27614237 10,4 C10,3.72385763 10.2238576,3.5 10.5,3.5 L12.5,3.5 L12.5,1.5 C12.5,1.22385763 12.7238576,1 13,1 Z"/></svg>