<svg width="16" height="16" viewBox="0 0 16 16" fill="none" xmlns="http://www.w3.org/2000/svg">
<g clip-path="url(#clip0_1249_19520)">
<path fill-rule="evenodd" clip-rule="evenodd" d="M5.32996 5.02674L0.479073 5.7426L0.385156 5.76453C-0.0028019 5.89063 -0.138611 6.40534 0.169368 6.71003L3.6792 10.1812L2.8507 15.0857L2.84229 15.1768C2.83598 15.5936 3.27888 15.8878 3.66152 15.6836L8 13.3676L12.3385 15.6836L12.4212 15.7198C12.8099 15.8547 13.2224 15.5181 13.1493 15.0857L12.3197 10.1812L15.8306 6.71003L15.8939 6.63626C16.1348 6.3028 15.9465 5.80537 15.5209 5.7426L10.6689 5.02674L8.50111 0.566162C8.29613 0.144613 7.70387 0.144613 7.49889 0.566162L5.32996 5.02674Z" fill="#242424"/>
</g>
<defs>
<clipPath id="clip0_1249_19520">
<rect width="16" height="16" fill="white"/>
</clipPath>
</defs>
</svg>
