<svg width="16" height="16" viewBox="0 0 16 16" fill="none" xmlns="http://www.w3.org/2000/svg">
<path fill-rule="evenodd" clip-rule="evenodd" d="M13 1C13.2761 1 13.5 1.22386 13.5 1.5V3.5H15.5C15.7761 3.5 16 3.72386 16 4C16 4.27614 15.7761 4.5 15.5 4.5H13.5V6.5C13.5 6.77614 13.2761 7 13 7C12.7239 7 12.5 6.77614 12.5 6.5V4.5H10.5C10.2239 4.5 10 4.27614 10 4C10 3.72386 10.2239 3.5 10.5 3.5H12.5V1.5C12.5 1.22386 12.7239 1 13 1ZM7.55815 1.69955C7.34343 1.40929 6.87887 1.43568 6.70957 1.77872L4.76894 5.711L0.428647 6.34208L0.344615 6.36141C-0.00250697 6.47257 -0.124021 6.92632 0.151541 7.19492L3.29194 10.255L2.55064 14.5786L2.54311 14.6589C2.53747 15.0263 2.93376 15.2857 3.27612 15.1057L7.15794 13.064L11.0398 15.1057L11.1138 15.1377C11.4615 15.2566 11.8306 14.9598 11.7652 14.5786L11.0229 10.255L12.28 9.03174L12.3387 8.96324C12.4762 8.77012 12.4603 8.50047 12.289 8.3247C12.0962 8.12695 11.7797 8.12291 11.5819 8.31566L10.1376 9.72352L10.0748 9.79808C10.0015 9.90445 9.97158 10.0363 9.99384 10.1661L10.6079 13.748L7.39061 12.0574L7.30027 12.0207C7.17648 11.9839 7.0418 11.9962 6.92527 12.0574L3.70694 13.748L4.32205 10.1661L4.32909 10.0688C4.32579 9.93971 4.27252 9.81541 4.17825 9.72352L1.57494 7.185L5.17259 6.66324L5.26729 6.63988C5.38904 6.59685 5.4908 6.50778 5.54906 6.38972L7.15794 3.13L8.76682 6.38972L8.81831 6.47257C8.89685 6.57506 9.01301 6.64431 9.14329 6.66324L10.5125 6.8622L10.6026 6.86715C10.8395 6.8588 11.0439 6.6822 11.0792 6.4393L11.0841 6.3492C11.0758 6.11228 10.8992 5.90789 10.6563 5.87259L9.54594 5.711L7.60631 1.77872L7.55815 1.69955Z" fill="#242424"/>
</svg>
