<svg width="16" height="16" viewBox="0 0 16 16" fill="none" xmlns="http://www.w3.org/2000/svg">
<path fill-rule="evenodd" clip-rule="evenodd" d="M12.9994 3.28565L10.8617 1.14784C10.6646 0.95072 10.345 0.95072 10.1478 1.14784C9.95072 1.34496 9.95072 1.66455 10.1478 1.86167L12.2856 3.99937L10.1478 6.13833C9.95072 6.33545 9.95072 6.65504 10.1478 6.85216C10.345 7.04928 10.6646 7.04928 10.8617 6.85216L12.9994 4.7131L15.1383 6.85216C15.3354 7.04928 15.655 7.04928 15.8522 6.85216C16.0493 6.65504 16.0493 6.33545 15.8522 6.13833L13.7131 3.99937L15.8522 1.86167C16.0493 1.66455 16.0493 1.34496 15.8522 1.14784C15.655 0.95072 15.3354 0.95072 15.1383 1.14784L12.9994 3.28565ZM7.55815 1.69955C7.34343 1.40929 6.87887 1.43568 6.70957 1.77872L4.76894 5.711L0.428647 6.34208L0.344615 6.36141C-0.00250697 6.47257 -0.124021 6.92632 0.151541 7.19492L3.29194 10.255L2.55064 14.5786L2.54311 14.6589C2.53747 15.0263 2.93376 15.2857 3.27612 15.1057L7.15794 13.064L11.0398 15.1057L11.1138 15.1377C11.4615 15.2566 11.8306 14.9598 11.7652 14.5786L11.0229 10.255L12.28 9.03174L12.3387 8.96324C12.4762 8.77012 12.4603 8.50047 12.289 8.3247C12.0962 8.12695 11.7797 8.12291 11.5819 8.31566L10.1376 9.72352L10.0748 9.79808C10.0015 9.90445 9.97158 10.0363 9.99384 10.1661L10.6079 13.748L7.39061 12.0574L7.30027 12.0207C7.17648 11.9839 7.0418 11.9962 6.92527 12.0574L3.70694 13.748L4.32205 10.1661L4.32909 10.0688C4.32579 9.93971 4.27252 9.81541 4.17825 9.72352L1.57494 7.185L5.17259 6.66324L5.26729 6.63988C5.38904 6.59685 5.4908 6.50778 5.54906 6.38972L7.15794 3.13L8.09235 5.02309L8.13935 5.10012C8.28054 5.29054 8.54189 5.35881 8.762 5.25017C9.00963 5.12796 9.1113 4.82815 8.98908 4.58052L7.60631 1.77872L7.55815 1.69955Z" fill="#242424"/>
</svg>
