<svg xmlns="http://www.w3.org/2000/svg" width="16" height="16" viewBox="0 0 16 16"><path fill="#242424" fill-rule="evenodd" d="M7.55814966,1.69955488 L7.60631003,1.77871714 L8.98908384,4.5805229 C9.11129498,4.82814973 9.00962548,5.12796265 8.76199865,5.25017379 C8.54188591,5.35880592 8.28053973,5.2905447 8.13934744,5.10011817 L8.09234776,5.02308861 L7.15794199,3.13 L5.54906165,6.38972338 C5.49079684,6.50778076 5.38904289,6.59685444 5.26729011,6.6398777 L5.17259277,6.66324403 L1.57494199,7.185 L4.17825003,9.7235163 C4.27252447,9.81541116 4.32579487,9.9397102 4.32908874,10.0687989 L4.32204835,10.166082 L3.70694199,13.748 L6.92527143,12.0574343 C7.04180104,11.996171 7.17647791,11.9839184 7.30026642,12.0206763 L7.39061256,12.0574343 L10.607942,13.748 L9.99383564,10.166082 C9.97158046,10.0363244 10.0015449,9.90445279 10.0747566,9.79808175 L10.137634,9.7235163 L11.5819475,8.31565851 C11.7796893,8.12290791 12.096246,8.12695406 12.2889966,8.32469585 C12.4603304,8.50046633 12.4761706,8.7701152 12.338695,8.96324208 L12.2799592,9.03174488 L11.022942,10.255 L11.7652429,14.5785964 C11.8306278,14.9598193 11.4615273,15.2565683 11.1137902,15.1376501 L11.0397682,15.1056847 L7.15794199,13.064 L3.27611579,15.1056847 C2.93375635,15.2856737 2.53747292,15.0263388 2.54311419,14.6588734 L2.55064106,14.5785964 L3.29194199,10.255 L0.151540533,7.19492422 C-0.12402094,6.92631817 -0.00250696944,6.47257255 0.344615257,6.36140909 L0.42864722,6.34207753 L4.76894199,5.711 L6.70957395,1.77871714 C6.87887258,1.43568066 7.34342705,1.40929324 7.55814966,1.69955488 Z M10.8616724,1.14783961 L12.9993729,3.28564792 L15.1383276,1.14783961 C15.3354471,0.950720131 15.6550409,0.950720131 15.8521604,1.14783961 C16.0492799,1.34495908 16.0492799,1.66455289 15.8521604,1.86167237 L13.7130979,3.99937289 L15.8521604,6.13832763 C16.0492799,6.33544711 16.0492799,6.65504092 15.8521604,6.85216039 C15.6550409,7.04927987 15.3354471,7.04927987 15.1383276,6.85216039 L12.9993729,4.71309785 L10.8616724,6.85216039 C10.6645529,7.04927987 10.3449591,7.04927987 10.1478396,6.85216039 C9.95072013,6.65504092 9.95072013,6.33544711 10.1478396,6.13832763 L12.2856479,3.99937289 L10.1478396,1.86167237 C9.95072013,1.66455289 9.95072013,1.34495908 10.1478396,1.14783961 C10.3449591,0.950720131 10.6645529,0.950720131 10.8616724,1.14783961 Z"/></svg>