<svg width="16" height="16" fill="none" viewBox="0 0 16 16">
  <path fill="#242424" d="M13 .918a.5.5 0 0 1 .5.5v2h2a.5.5 0 1 1 0 1h-2v2a.5.5 0 1 1-1 0v-2h-2a.5.5 0 0 1 0-1h2v-2a.5.5 0 0 1 .5-.5Zm-5.442.7a.5.5 0 0 0-.848.079L4.77 5.629.428 6.26l-.084.02a.5.5 0 0 0-.193.833l3.14 3.06-.741 4.324-.008.08a.5.5 0 0 0 .733.447l3.882-2.042 3.882 2.042.074.032a.5.5 0 0 0 .651-.56l-.742-4.323L12.28 8.95l.059-.069a.5.5 0 0 0-.757-.647L10.138 9.64l-.063.075a.5.5 0 0 0-.081.368l.614 3.582-3.217-1.69-.09-.037a.5.5 0 0 0-.376.036l-3.218 1.691.615-3.582.007-.097a.5.5 0 0 0-.15-.346L1.574 7.103l3.598-.522.094-.023a.5.5 0 0 0 .282-.25l1.61-3.26 1.608 3.26.051.083a.5.5 0 0 0 .325.19l1.37.2.09.004a.5.5 0 0 0 .476-.428l.005-.09a.5.5 0 0 0-.428-.476l-1.11-.162-1.94-3.932-.048-.08Z"/>
</svg>
