<svg width="16" height="16" fill="none" viewBox="0 0 16 16">
  <path fill="#242424" d="m13 3.204-2.138-2.138a.505.505 0 1 0-.714.714l2.138 2.137-2.138 2.14a.505.505 0 1 0 .714.713l2.137-2.139 2.14 2.14a.505.505 0 0 0 .713-.715l-2.139-2.139 2.14-2.137a.505.505 0 0 0-.715-.714L13 3.204Z M7.558 1.618a.5.5 0 0 0-.848.079L4.77 5.629.428 6.26l-.084.02a.5.5 0 0 0-.193.833l3.14 3.06-.741 4.324-.008.08a.5.5 0 0 0 .733.447l3.882-2.042 3.882 2.042.074.032a.5.5 0 0 0 .651-.56l-.742-4.323L12.28 8.95l.059-.069a.5.5 0 0 0-.757-.647L10.138 9.64l-.063.075a.5.5 0 0 0-.081.368l.614 3.582-3.217-1.69-.09-.037a.5.5 0 0 0-.376.036l-3.218 1.691.615-3.582.007-.097a.5.5 0 0 0-.15-.346L1.574 7.103l3.598-.522.094-.023a.5.5 0 0 0 .282-.25l1.61-3.26.933 1.893.047.077a.5.5 0 0 0 .85-.52L7.606 1.697l-.048-.08Z"/>
</svg>
