<svg width="16" height="16" viewBox="0 0 16 16" fill="none" xmlns="http://www.w3.org/2000/svg">
<path fill-rule="evenodd" clip-rule="evenodd" d="M9.53959 0.00156876L3.5 0L3.35554 0.00686658C2.59489 0.0795513 2 0.720304 2 1.5V14.5L2.00687 14.6445C2.07955 15.4051 2.7203 16 3.5 16H9.5C9.77614 16 10 15.7761 10 15.5C10 15.2239 9.77614 15 9.5 15H3.5L3.41012 14.9919C3.17688 14.9496 3 14.7455 3 14.5V1.5L3.00806 1.41012C3.05039 1.17688 3.25454 1 3.5 1H9V4.5L9.00806 4.58988C9.05039 4.82312 9.25454 5 9.5 5H13.5L13.586 4.99304C13.9728 4.92918 14.1475 4.44043 13.8536 4.14645L9.82214 0.117594L9.75236 0.0682647L9.72679 0.0543895L9.65473 0.024544L9.58988 0.00805567L9.53959 0.00156876ZM14 10V7C14 6.72386 13.7761 6.5 13.5 6.5C13.2239 6.5 13 6.72386 13 7V10C13 10.2761 13.2239 10.5 13.5 10.5C13.7761 10.5 14 10.2761 14 10ZM10 4V1.707L12.293 4H10ZM15.6047 12.0969C15.7984 11.9031 15.7984 11.589 15.6047 11.3953C15.411 11.2016 15.0969 11.2016 14.9031 11.3953L13.5 12.7984L12.0969 11.3953C11.9031 11.2016 11.589 11.2016 11.3953 11.3953C11.2016 11.589 11.2016 11.9031 11.3953 12.0969L12.7977 13.4993L11.3953 14.9031C11.2016 15.0969 11.2016 15.411 11.3953 15.6047C11.589 15.7984 11.9031 15.7984 12.0969 15.6047L13.4993 14.2009L14.9031 15.6047C15.0969 15.7984 15.411 15.7984 15.6047 15.6047C15.7984 15.411 15.7984 15.0969 15.6047 14.9031L14.2016 13.5L15.6047 12.0969Z" fill="#242424"/>
</svg>
