<svg width="16" height="16" fill="none" viewBox="0 0 16 16">
  <path fill="#242424" fill-rule="evenodd" d="M9.625 15.001a.5.5 0 1 1 0 1h-7a.5.5 0 0 1 0-1h7Zm2.597-3.605 1.403 1.403 1.403-1.403a.496.496 0 1 1 .702.702L14.327 13.5l1.403 1.403a.496.496 0 0 1-.702.702l-1.404-1.404-1.402 1.404a.496.496 0 0 1-.702-.702l1.403-1.404-1.403-1.402a.496.496 0 1 1 .702-.702Zm-10.697-.5 3.133 1.848 3.133-1.849h.072a.5.5 0 0 1 .26.928l-3.465 2.094-3.464-2.094a.5.5 0 0 1 .258-.928h.073ZM4.4 5.072a.5.5 0 0 1 .517 0L8.95 7.51a.5.5 0 0 1 0 .856l-4.033 2.437a.5.5 0 0 1-.517 0L.366 8.366a.5.5 0 0 1 0-.856L4.4 5.073ZM13.625 6.5a.5.5 0 0 1 .5.5v3a.5.5 0 0 1-1 0V7a.5.5 0 0 1 .5-.5Zm-8.967-.413-3.133 1.85 3.132 1.85 3.134-1.85-3.133-1.85ZM3.625.001l6.04.002.05.006.065.017.072.03.025.013.07.05 4.032 4.028a.5.5 0 0 1-.268.847l-.086.007h-4a.5.5 0 0 1-.492-.41l-.008-.09v-3.5h-5.5a.5.5 0 0 0-.492.41l-.008.09v2a.5.5 0 0 1-1 0v-2A1.5 1.5 0 0 1 3.481.008L3.625 0Zm6.5 1.707v2.293h2.293l-2.293-2.293Z" clip-rule="evenodd"/>
</svg>
