<svg width="16" height="16" viewBox="0 0 16 16" fill="none" xmlns="http://www.w3.org/2000/svg">
<g clip-path="url(#clip0_1249_19506)">
<path fill-rule="evenodd" clip-rule="evenodd" d="M9.5 15C9.77614 15 10 15.2239 10 15.5C10 15.7761 9.77614 16 9.5 16H2.5C2.22386 16 2 15.7761 2 15.5C2 15.2239 2.22386 15 2.5 15H9.5ZM12.0969 11.3953L13.5 12.7984L14.9031 11.3953C15.0969 11.2016 15.411 11.2016 15.6047 11.3953C15.7984 11.589 15.7984 11.9031 15.6047 12.0969L14.2016 13.5L15.6047 14.9031C15.7984 15.0969 15.7984 15.411 15.6047 15.6047C15.411 15.7984 15.0969 15.7984 14.9031 15.6047L13.4993 14.2009L12.0969 15.6047C11.9031 15.7984 11.589 15.7984 11.3953 15.6047C11.2016 15.411 11.2016 15.0969 11.3953 14.9031L12.7977 13.4993L11.3953 12.0969C11.2016 11.9031 11.2016 11.589 11.3953 11.3953C11.589 11.2016 11.9031 11.2016 12.0969 11.3953ZM1.39952 10.8943L4.53316 12.7434L7.6658 10.8943H7.73843C8.01457 10.8943 8.23843 11.1182 8.23843 11.3943C8.23843 11.5694 8.14688 11.7317 7.99706 11.8222L4.53316 13.9158L1.0686 11.8223C0.83226 11.6794 0.756441 11.3721 0.899256 11.1357C0.989801 10.9859 1.15212 10.8943 1.32719 10.8943H1.39952ZM4.27456 5.07207C4.43357 4.97598 4.63275 4.97598 4.79177 5.07207L8.82485 7.50934C8.89418 7.55123 8.95229 7.60934 8.99418 7.67866C9.137 7.915 9.06119 8.22237 8.82485 8.36519L4.79177 10.8025C4.63275 10.8986 4.43357 10.8986 4.27456 10.8025L0.241469 8.36519C0.172146 8.3233 0.114038 8.26519 0.0721448 8.19587C-0.0706788 7.95953 0.00513022 7.65216 0.241469 7.50934L4.27456 5.07207ZM13.5 6.5C13.7761 6.5 14 6.72386 14 7V10C14 10.2761 13.7761 10.5 13.5 10.5C13.2239 10.5 13 10.2761 13 10V7C13 6.72386 13.2239 6.5 13.5 6.5ZM4.53316 6.08718L1.39952 7.93726L4.53215 9.78636L7.6658 7.93726L4.53316 6.08718ZM3.5 0L9.53959 0.00156876L9.58988 0.00805567L9.65473 0.024544L9.72679 0.0543895L9.75236 0.0682647L9.82214 0.117594L13.8536 4.14645C14.1475 4.44043 13.9728 4.92918 13.586 4.99304L13.5 5H9.5C9.25454 5 9.05039 4.82312 9.00806 4.58988L9 4.5V1H3.5C3.25454 1 3.05039 1.17688 3.00806 1.41012L3 1.5V3.5C3 3.77614 2.77614 4 2.5 4C2.22386 4 2 3.77614 2 3.5V1.5C2 0.720304 2.59489 0.0795513 3.35554 0.00686658L3.5 0ZM10 1.707V4H12.293L10 1.707Z" fill="#242424"/>
</g>
<defs>
<clipPath id="clip0_1249_19506">
<rect width="16" height="16" fill="white"/>
</clipPath>
</defs>
</svg>
