<svg xmlns="http://www.w3.org/2000/svg" width="16" height="16" viewBox="0 0 16 16"><path fill="#242424" fill-rule="evenodd" d="M9.5,15 C9.77614237,15 10,15.2238576 10,15.5 C10,15.7761424 9.77614237,16 9.5,16 L2.5,16 C2.22385763,16 2,15.7761424 2,15.5 C2,15.2238576 2.22385763,15 2.5,15 L9.5,15 Z M12.0968662,11.3952993 L13.5,12.7984331 L14.9031338,11.3952993 C15.0968662,11.2015669 15.4109684,11.2015669 15.6047007,11.3952993 C15.7984331,11.5890316 15.7984331,11.9031338 15.6047007,12.0968662 L14.2015669,13.5 L15.6047007,14.9031338 C15.7984331,15.0968662 15.7984331,15.4109684 15.6047007,15.6047007 C15.4109684,15.7984331 15.0968662,15.7984331 14.9031338,15.6047007 L13.4992984,14.2008653 L12.0968662,15.6047007 C11.9031338,15.7984331 11.5890316,15.7984331 11.3952993,15.6047007 C11.2015669,15.4109684 11.2015669,15.0968662 11.3952993,14.9031338 L12.7977315,13.4992984 L11.3952993,12.0968662 C11.2015669,11.9031338 11.2015669,11.5890316 11.3952993,11.3952993 C11.5890316,11.2015669 11.9031338,11.2015669 12.0968662,11.3952993 Z M1.39951635,10.8943175 L4.53316161,12.7434143 L7.66579737,10.8943175 L7.73842959,10.8943175 C8.01457196,10.8943175 8.23842959,11.1181752 8.23842959,11.3943175 C8.23842959,11.5693743 8.14687745,11.7316827 7.9970587,11.8222322 L4.53316161,13.9157912 L1.06860329,11.8222553 C0.832259771,11.6794395 0.756440568,11.3720702 0.899256362,11.1357267 C0.989800776,10.9858862 1.15212144,10.8943175 1.32719416,10.8943175 L1.39951635,10.8943175 Z M4.70928451,5.03203146 L4.79176668,5.07207078 L8.82485422,7.50933572 C8.89417743,7.55122894 8.95228515,7.60933666 8.99417837,7.67865987 C9.12113272,7.88873879 9.07534028,8.15494262 8.89760857,8.31181506 L8.82485422,8.36519416 L4.79176668,10.8024591 C4.65925577,10.8825377 4.49884842,10.8958842 4.3570387,10.8424984 L4.27455654,10.8024591 L0.241468991,8.36519416 C0.172145783,8.32330094 0.11403806,8.26519322 0.07214484,8.19587001 C-0.0548095034,7.98579109 -0.00901706883,7.71958726 0.168714646,7.56271482 L0.241468991,7.50933572 L4.27455654,5.07207078 C4.40706744,4.99199214 4.56747479,4.9786457 4.70928451,5.03203146 Z M13.5,6.5 C13.7761424,6.5 14,6.72385763 14,7 L14,10 C14,10.2761424 13.7761424,10.5 13.5,10.5 C13.2238576,10.5 13,10.2761424 13,10 L13,7 C13,6.72385763 13.2238576,6.5 13.5,6.5 Z M4.53316161,6.08718246 L1.39951635,7.93726494 L4.53215212,9.78636174 L7.66579737,7.93726494 L4.53316161,6.08718246 Z M3.5,0 L9.53959156,0.00156876395 L9.58987563,0.00805566941 L9.65473232,0.024543968 L9.72678591,0.0543895452 L9.75235957,0.0682646574 L9.82214364,0.117593731 L13.8535534,4.14644661 C14.147537,4.44043021 13.9728055,4.92918427 13.586032,4.99304488 L13.5,5 L9.5,5 C9.25454011,5 9.05039163,4.82312484 9.00805567,4.58987563 L9,4.5 L9,1 L3.5,1 C3.25454011,1 3.05039163,1.17687516 3.00805567,1.41012437 L3,1.5 L3,3.5 C3,3.77614237 2.77614237,4 2.5,4 C2.22385763,4 2,3.77614237 2,3.5 L2,1.5 C2,0.720303883 2.59488808,0.0795513218 3.35553999,0.00686657806 L3.5,0 Z M10,1.707 L10,4 L12.293,4 L10,1.707 Z"/></svg>