<svg width="16" height="16" fill="none" viewBox="0 0 16 16">
  <path fill="#242424" fill-rule="evenodd" d="M14.5 6.501a.5.5 0 0 1 .492.41l.007.09v7.5a1.5 1.5 0 0 1-1.355 1.493l-.145.007h-10a.5.5 0 0 1 0-1h10a.5.5 0 0 0 .492-.41L14 14.5V7a.5.5 0 0 1 .5-.5Zm-10.5-3a.5.5 0 0 1-1 0v-2A1.5 1.5 0 0 1 4.355.008L4.5 0l6.04.002.05.006.064.017.072.03.026.013.07.05 4.031 4.028a.5.5 0 0 1-.268.847L14.499 5h-4a.5.5 0 0 1-.491-.41L10 4.5V1H4.5a.5.5 0 0 0-.492.41L4 1.501v2Zm-1.601 7.394 3.134 1.85 3.132-1.85h.073a.5.5 0 0 1 .259.928l-3.464 2.094-3.465-2.094a.5.5 0 0 1 .259-.928h.072Zm2.875-5.822a.5.5 0 0 1 .517 0L9.824 7.51a.5.5 0 0 1 0 .856l-4.033 2.437a.5.5 0 0 1-.517 0L1.241 8.366a.5.5 0 0 1 0-.856l4.033-2.437Zm.259 1.015-3.134 1.85 3.133 1.85 3.133-1.85-3.132-1.85Zm5.466-4.38 2.293 2.293H11V1.708Z" clip-rule="evenodd"/>
</svg>
