<svg xmlns="http://www.w3.org/2000/svg" width="16" height="16" fill="none" viewBox="0 0 16 16">
  <path fill="#242424" d="M10.54.003 4.5 0l-.145.007A1.5 1.5 0 0 0 3 1.5v2a.5.5 0 0 0 1 0v-2l.008-.09A.5.5 0 0 1 4.5 1H10v3.5l.008.09A.5.5 0 0 0 10.5 5h4l.085-.007a.5.5 0 0 0 .268-.847L10.822.12l-.07-.05-.026-.014-.072-.03L10.59.01l-.05-.006ZM11 4V1.708l2.293 2.293H11Zm3.992 2.911a.5.5 0 0 0-.993.09v7.5l-.008.09a.5.5 0 0 1-.492.41h-10a.5.5 0 0 0 0 1h10l.145-.007a1.5 1.5 0 0 0 1.355-1.493v-7.5l-.008-.09ZM5.274 5.073a.5.5 0 0 1 .517 0L9.824 7.51a.5.5 0 0 1 0 .856l-4.033 2.437a.5.5 0 0 1-.517 0L1.241 8.366a.5.5 0 0 1 0-.856l4.033-2.437Zm.259 1.015-3.134 1.85 3.133 1.85 3.133-1.85-3.132-1.85Z M5.533 12.85 2.4 11.001h-.073a.5.5 0 0 0-.258.928l3.464 2.093 3.464-2.093A.5.5 0 0 0 8.738 11h-.072l-3.133 1.85Z"/>
</svg>
