<svg width="16" height="16" fill="none" viewBox="0 0 16 16">
  <path fill="#242424" fill-rule="evenodd" d="M8.665.003 2.625 0l-.144.007A1.5 1.5 0 0 0 1.125 1.5v13l.007.144A1.5 1.5 0 0 0 2.625 16h6a.5.5 0 0 0 0-1h-6l-.09-.008a.5.5 0 0 1-.41-.492v-13l.008-.09A.5.5 0 0 1 2.625 1h5.5v3.5l.008.09a.5.5 0 0 0 .492.41h4l.086-.007a.5.5 0 0 0 .268-.847L8.947.12l-.07-.05-.025-.014-.072-.03L8.715.01l-.05-.006ZM9.125 4V1.708l2.293 2.293H9.125Z M13.125 10.001v-3a.5.5 0 0 0-1 0v3a.5.5 0 0 0 1 0Zm1.605 2.097a.496.496 0 1 0-.702-.702L12.625 12.8l-1.403-1.403a.496.496 0 1 0-.702.702l1.403 1.402-1.403 1.404a.496.496 0 0 0 .702.702l1.402-1.404 1.404 1.404a.496.496 0 0 0 .702-.702l-1.403-1.403 1.403-1.403Z" clip-rule="evenodd"/>
</svg>
