<svg width="16" height="16" fill="none" viewBox="0 0 16 16">
  <path fill="#242424" fill-rule="evenodd" d="M.5 1.999h9a.5.5 0 1 1 0 1h-9a.5.5 0 0 1 0-1Zm12-1a.5.5 0 0 1 .5.5v.5h2.5a.5.5 0 1 1 0 1H13v.5a.5.5 0 1 1-1 0v-2a.5.5 0 0 1 .5-.5Zm-8 5a.5.5 0 0 1 .5.5v.5h2.5a.5.5 0 1 1 0 1H5v.5a.5.5 0 0 1-1 0v-.5H.5a.5.5 0 0 1 0-1H4v-.5a.5.5 0 0 1 .5-.5Zm2 5a.5.5 0 0 1 .5.5v2a.5.5 0 1 1-1 0v-.5H.5a.5.5 0 1 1 0-1H6v-.5a.5.5 0 0 1 .5-.5Zm5.401-5.342c1.804 0 2.413 1.933 1.655 3.112l-.098.144-.074.091a1.874 1.874 0 0 1-.044.048l-.105.105-.14.127-.184.156-.65.525 1.88 2.284.027-.05c.202-.391.328-.794.353-1.146l.005-.13a.5.5 0 1 1 1 0c0 .628-.226 1.358-.623 2.026l-.082.132.905 1.104a.5.5 0 1 1-.774.633l-.767-.936c-.602.612-1.374 1.053-2.248 1.113l-.203.007c-2.376 0-3.34-2.192-2.427-3.693.128-.21.325-.435.613-.706l.27-.243.154-.132.343-.285.154-.125-.58-.695c-1.171-1.381-.309-3.466 1.64-3.466Zm1.638 7.438-2.06-2.507-.326.267-.299.254-.247.223c-.223.208-.37.371-.446.497-.533.877.036 2.173 1.573 2.173.656 0 1.262-.348 1.741-.838l.064-.07Zm-1.638-6.438c-1.071 0-1.513 1.07-.877 1.82l.6.717.57-.46.235-.2.152-.143.068-.073.05-.064.016-.026c.38-.591.071-1.571-.814-1.571Z" clip-rule="evenodd"/>
</svg>
