<svg width="16" height="16" viewBox="0 0 16 16" fill="none" xmlns="http://www.w3.org/2000/svg">
<path fill-rule="evenodd" clip-rule="evenodd" d="M0.5 2.5H9.5C9.77614 2.5 10 2.72386 10 3C10 3.27614 9.77614 3.5 9.5 3.5H0.5C0.223858 3.5 0 3.27614 0 3C0 2.72386 0.223858 2.5 0.5 2.5ZM12.5 1.5C12.7761 1.5 13 1.72386 13 2V2.5H15.5C15.7761 2.5 16 2.72386 16 3C16 3.27614 15.7761 3.5 15.5 3.5H13V4C13 4.27614 12.7761 4.5 12.5 4.5C12.2239 4.5 12 4.27614 12 4V2C12 1.72386 12.2239 1.5 12.5 1.5ZM4.5 6.5C4.77614 6.5 5 6.72386 5 7V7.5H7.5C7.77614 7.5 8 7.72386 8 8C8 8.27614 7.77614 8.5 7.5 8.5H5V9C5 9.27614 4.77614 9.5 4.5 9.5C4.22386 9.5 4 9.27614 4 9V8.5H0.5C0.223858 8.5 0 8.27614 0 8C0 7.72386 0.223858 7.5 0.5 7.5H4V7C4 6.72386 4.22386 6.5 4.5 6.5ZM6.5 11.5C6.77614 11.5 7 11.7239 7 12V14C7 14.2761 6.77614 14.5 6.5 14.5C6.22386 14.5 6 14.2761 6 14V13.5H0.5C0.223858 13.5 0 13.2761 0 13C0 12.7239 0.223858 12.5 0.5 12.5H6V12C6 11.7239 6.22386 11.5 6.5 11.5ZM11.9009 6.15822C13.7047 6.15822 14.3137 8.09114 13.5563 9.27022L13.4577 9.41427L13.3836 9.50573C13.37 9.5213 13.3556 9.53717 13.3403 9.55352L13.2345 9.65896L13.0948 9.78515L12.911 9.94127L12.261 10.466L14.14 12.751L14.1676 12.7012C14.3699 12.3092 14.4954 11.9066 14.5208 11.5539L14.5255 11.4241C14.5255 11.148 14.7494 10.9241 15.0255 10.9241C15.3017 10.9241 15.5255 11.148 15.5255 11.4241C15.5255 12.052 15.3001 12.7826 14.9029 13.4506L14.821 13.582L15.7254 14.6863C15.9003 14.9 15.8689 15.2151 15.6552 15.39C15.4415 15.5649 15.1265 15.5334 14.9516 15.3197L14.185 14.383C13.583 14.9958 12.811 15.4363 11.9371 15.4961L11.7337 15.503C9.35741 15.503 8.39455 13.3111 9.30642 11.8109C9.43467 11.5999 9.63167 11.375 9.92019 11.1047L10.1904 10.8612C10.2394 10.8185 10.2903 10.7748 10.3434 10.7298L10.6868 10.4447L10.841 10.319L10.261 9.62464C9.08986 8.24335 9.95185 6.15822 11.9009 6.15822ZM13.539 13.596L11.479 11.09L11.1532 11.3562L10.8543 11.6103L10.6067 11.8333C10.3843 12.0412 10.2373 12.2048 10.1609 12.3303C9.62775 13.2075 10.1968 14.503 11.7337 14.503C12.3897 14.503 12.9962 14.1556 13.4751 13.6651L13.539 13.596ZM11.9009 7.15822C10.8298 7.15822 10.3876 8.2277 11.0237 8.97795L11.624 9.695L12.193 9.23536L12.4293 9.03452L12.5813 8.89247L12.6487 8.81916L12.698 8.75507L12.7149 8.72978C13.0949 8.13822 12.7862 7.15822 11.9009 7.15822Z" fill="#242424"/>
</svg>
