<svg xmlns="http://www.w3.org/2000/svg" width="16" height="16" viewBox="0 0 16 16"><path fill="#242424" fill-rule="evenodd" d="M7.5,11.5 C7.77614237,11.5 8,11.7238576 8,12 L8,14 C8,14.2761424 7.77614237,14.5 7.5,14.5 C7.22385763,14.5 7,14.2761424 7,14 L7,13.5 L0.5,13.5 C0.223857625,13.5 3.38176876e-17,13.2761424 0,13 C-3.38176876e-17,12.7238576 0.223857625,12.5 0.5,12.5 L7,12.5 L7,12 C7,11.7238576 7.22385763,11.5 7.5,11.5 Z M15.5,12.5 C15.7761424,12.5 16,12.7238576 16,13 C16,13.2761424 15.7761424,13.5 15.5,13.5 L10.5,13.5 C10.2238576,13.5 10,13.2761424 10,13 C10,12.7238576 10.2238576,12.5 10.5,12.5 L15.5,12.5 Z M4.5,6.5 C4.77614237,6.5 5,6.72385763 5,7 L5,9 C5,9.27614237 4.77614237,9.5 4.5,9.5 C4.22385763,9.5 4,9.27614237 4,9 L4,8.5 L0.5,8.5 C0.223857625,8.5 3.38176876e-17,8.27614237 0,8 C-3.38176876e-17,7.72385763 0.223857625,7.5 0.5,7.5 L4,7.5 L4,7 C4,6.72385763 4.22385763,6.5 4.5,6.5 Z M15.5,7.5 C15.7761424,7.5 16,7.72385763 16,8 C16,8.27614237 15.7761424,8.5 15.5,8.5 L7.5,8.5 C7.22385763,8.5 7,8.27614237 7,8 C7,7.72385763 7.22385763,7.5 7.5,7.5 L15.5,7.5 Z M12.5,1.5 C12.7761424,1.5 13,1.72385763 13,2 L13,2.5 L15.5,2.5 C15.7761424,2.5 16,2.72385763 16,3 C16,3.27614237 15.7761424,3.5 15.5,3.5 L13,3.5 L13,4 C13,4.27614237 12.7761424,4.5 12.5,4.5 C12.2238576,4.5 12,4.27614237 12,4 L12,2 C12,1.72385763 12.2238576,1.5 12.5,1.5 Z M9.5,2.5 C9.77614237,2.5 10,2.72385763 10,3 C10,3.27614237 9.77614237,3.5 9.5,3.5 L0.5,3.5 C0.223857625,3.5 3.38176876e-17,3.27614237 0,3 C-3.38176876e-17,2.72385763 0.223857625,2.5 0.5,2.5 L9.5,2.5 Z"/></svg>