<svg width="16" height="16" viewBox="0 0 16 16" fill="none" xmlns="http://www.w3.org/2000/svg">
<path fill-rule="evenodd" clip-rule="evenodd" d="M12.5 1.5C12.2239 1.5 12 1.72386 12 2V3V4C12 4.27614 12.2239 4.5 12.5 4.5C12.7761 4.5 13 4.27614 13 4V3.5H15.5C15.7761 3.5 16 3.27614 16 3C16 2.72386 15.7761 2.5 15.5 2.5H13V2C13 1.72386 12.7761 1.5 12.5 1.5ZM0 3C0 2.72386 0.223858 2.5 0.5 2.5H9.5C9.77614 2.5 10 2.72386 10 3C10 3.27614 9.77614 3.5 9.5 3.5H0.5C0.223858 3.5 0 3.27614 0 3ZM0.5 7.5C0.223858 7.5 0 7.72386 0 8C0 8.27614 0.223858 8.5 0.5 8.5H4V9C4 9.27614 4.22386 9.5 4.5 9.5C4.77614 9.5 5 9.27614 5 9V8V7C5 6.72386 4.77614 6.5 4.5 6.5C4.22386 6.5 4 6.72386 4 7V7.5H0.5ZM7 8C7 7.72386 7.22386 7.5 7.5 7.5H15.5C15.7761 7.5 16 7.72386 16 8C16 8.27614 15.7761 8.5 15.5 8.5H7.5C7.22386 8.5 7 8.27614 7 8ZM7.5 11.5C7.22386 11.5 7 11.7239 7 12V12.5H0.5C0.223858 12.5 0 12.7239 0 13C0 13.2761 0.223858 13.5 0.5 13.5H7V14C7 14.2761 7.22386 14.5 7.5 14.5C7.77614 14.5 8 14.2761 8 14V13V12C8 11.7239 7.77614 11.5 7.5 11.5ZM10.5 12.5C10.2239 12.5 10 12.7239 10 13C10 13.2761 10.2239 13.5 10.5 13.5H15.5C15.7761 13.5 16 13.2761 16 13C16 12.7239 15.7761 12.5 15.5 12.5H10.5Z" fill="#242424"/>
</svg>
