<svg width="16" height="16" viewBox="0 0 16 16" fill="none" xmlns="http://www.w3.org/2000/svg">
<g clip-path="url(#clip0_11047_371)">
<path d="M12.4393 14.5607C13.0251 15.1464 13.9749 15.1464 14.5607 14.5607C15.1464 13.9749 15.1464 13.0251 14.5607 12.4393C13.9749 11.8536 13.0251 11.8536 12.4393 12.4393C11.8536 13.0251 11.8536 13.9749 12.4393 14.5607ZM11.7322 15.2678C10.7559 14.2915 10.7559 12.7085 11.7322 11.7322C12.7085 10.7559 14.2915 10.7559 15.2678 11.7322C16.2441 12.7085 16.2441 14.2915 15.2678 15.2678C14.2915 16.2441 12.7085 16.2441 11.7322 15.2678Z" fill="black"/>
<path d="M4 2.5C4 1.67157 3.32843 1 2.5 1C1.67157 1 1 1.67157 1 2.5C1 3.32843 1.67157 4 2.5 4C3.32843 4 4 3.32843 4 2.5ZM5 2.5C5 3.88071 3.88071 5 2.5 5C1.11929 5 0 3.88071 0 2.5C0 1.11929 1.11929 0 2.5 0C3.88071 0 5 1.11929 5 2.5Z" fill="black"/>
<path d="M5.16119 5.16107C5.34905 4.97321 5.63926 4.94929 5.85264 5.0902L5.93854 5.16107L9.83281 9.05534L9.82637 8.83952L9.83281 8.72786C9.87556 8.47588 10.0914 8.28065 10.3568 8.27154C10.6222 8.26256 10.8499 8.44282 10.9097 8.69135L10.9247 8.80194L10.9999 10.9998L10.4115 10.9805L8.80099 10.9246L8.69148 10.9096C8.44283 10.8499 8.2616 10.6221 8.27059 10.3566C8.28102 10.0532 8.53622 9.81582 8.83965 9.82624L9.05546 9.83269L5.16119 5.93842L5.09032 5.85252C4.94941 5.63914 4.97333 5.34892 5.16119 5.16107Z" fill="black"/>
</g>
<defs>
<clipPath id="clip0_11047_371">
<rect width="16" height="16" fill="white"/>
</clipPath>
</defs>
</svg>
