<svg width="16" height="16" viewBox="0 0 16 16" fill="none" xmlns="http://www.w3.org/2000/svg">
<path fill-rule="evenodd" clip-rule="evenodd" d="M0.410124 2.00806C0.176875 2.05039 0 2.25454 0 2.5V13.5L0.00805567 13.5899C0.0503916 13.8231 0.25454 14 0.5 14H15.5L15.5899 13.9919C15.8231 13.9496 16 13.7455 16 13.5V2.5L15.9919 2.41012C15.9496 2.17688 15.7455 2 15.5 2L15.4101 2.00806C15.1769 2.05039 15 2.25454 15 2.5V13H1V3H12.5L12.5899 2.99194C12.8231 2.94961 13 2.74546 13 2.5C13 2.22386 12.7761 2 12.5 2H0.5L0.410124 2.00806ZM8 10C9.10457 10 10 9.10457 10 8C10 6.89543 9.10457 6 8 6C6.89543 6 6 6.89543 6 8C6 9.10457 6.89543 10 8 10Z" fill="#242424"/>
</svg>
