<svg xmlns="http://www.w3.org/2000/svg" width="16" height="16" viewBox="0 0 16 16"><path fill="#952F80" d="M14.75 6.667a.5.5 0 0 1-.683-.183l-.567-.982-.567.982a.5.5 0 1 1-.866-.5l.567-.982H11.5a.5.5 0 0 1 0-1h1.134l-.567-.982a.5.5 0 0 1 .866-.5l.567.982.567-.982a.5.5 0 0 1 .866.5l-.567.982H15.5a.5.5 0 0 1 0 1h-1.134l.567.982a.5.5 0 0 1-.183.683ZM6.794 2.095A.5.5 0 0 0 6.5 2h-6l-.09.008A.5.5 0 0 0 0 2.5v11l.008.09A.5.5 0 0 0 .5 14H8l.09-.008a.5.5 0 0 0 .41-.492l-.008-.09A.5.5 0 0 0 8 13H1V3h5.293l1.853 1.854A.498.498 0 0 0 8.5 5h1a.5.5 0 0 0 0-1h-.793L6.854 2.146l-.06-.05ZM15 13h-2l-.09.008A.5.5 0 0 0 13 14h2.5l.09-.008A.5.5 0 0 0 16 13.5v-5a.5.5 0 0 0-1 0V13Z"/></svg>