<svg width="16" height="16" viewBox="0 0 16 16" fill="none" xmlns="http://www.w3.org/2000/svg">
<path d="M14.75 6.6672C14.5109 6.80527 14.2051 6.72333 14.067 6.48419L13.5 5.50214L12.933 6.48419C12.7949 6.72333 12.4892 6.80527 12.25 6.6672C12.0109 6.52913 11.9289 6.22333 12.067 5.98418L12.634 5.00216H11.5C11.2239 5.00216 11 4.7783 11 4.50216C11 4.22602 11.2239 4.00216 11.5 4.00216H12.634L12.067 3.02008C11.9289 2.78094 12.0109 2.47514 12.25 2.33707C12.4891 2.199 12.7949 2.28094 12.933 2.52008L13.5 3.50214L14.067 2.52008C14.2051 2.28094 14.5109 2.199 14.75 2.33707C14.9892 2.47514 15.0711 2.78094 14.933 3.02008L14.366 4.00216H15.5C15.7761 4.00216 16 4.22602 16 4.50216C16 4.7783 15.7761 5.00216 15.5 5.00216H14.366L14.933 5.98418C15.0711 6.22333 14.9891 6.52913 14.75 6.6672Z" fill="#242424"/>
<path d="M6.79351 2.09521C6.7087 2.03371 6.60609 2 6.5 2H0.5L0.410124 2.00806C0.176875 2.05039 0 2.25454 0 2.5V13.5L0.00805567 13.5899C0.0503916 13.8231 0.25454 14 0.5 14H8L8.08988 13.9919C8.32312 13.9496 8.5 13.7455 8.5 13.5L8.49194 13.4101C8.44961 13.1769 8.24546 13 8 13H1V3H6.293L8.14645 4.85355C8.23257 4.93968 8.34997 4.99452 8.48015 4.99961C8.48675 4.99987 8.49337 5 8.5 5H9.5C9.77614 5 10 4.77614 10 4.5C10 4.22386 9.77614 4 9.5 4H8.707L6.85355 2.14645L6.79351 2.09521Z" fill="#242424"/>
<path d="M15 13H13L12.9101 13.0081C12.6769 13.0504 12.5 13.2545 12.5 13.5C12.5 13.7761 12.7239 14 13 14H15.5L15.5899 13.9919C15.8231 13.9496 16 13.7455 16 13.5V8.5C16 8.22386 15.7761 8 15.5 8C15.2239 8 15 8.22386 15 8.5V13Z" fill="#242424"/>
</svg>
