<svg width="16" height="16" fill="none" viewBox="0 0 16 16">
  <path fill="#242424" fill-rule="evenodd" d="M12 10.501a3.5 3.5 0 0 1 3.495 3.308L15.5 14v.5a.5.5 0 0 1-.992.09l-.008-.09V14a2.5 2.5 0 0 0-4.995-.164L9.5 14h3.15a.5.5 0 0 1 .492.41l.008.09a.5.5 0 0 1-.41.492l-.09.008H9a.5.5 0 0 1-.492-.41L8.5 14.5V14a3.5 3.5 0 0 1 3.5-3.5Zm-5.5-9.5a.5.5 0 0 1 .294.095l.06.051 1.853 1.854H15.5a.5.5 0 0 1 .492.41l.008.09v3a.5.5 0 0 1-.992.09L15 6.5V4H8.5a.5.5 0 0 1-.294-.095l-.06-.051L6.293 2H1v10h6a.5.5 0 0 1 .492.41l.008.09a.5.5 0 0 1-.41.492L7 13H.5a.5.5 0 0 1-.492-.41L0 12.5v-11a.5.5 0 0 1 .41-.492L.5 1h6Zm5.5 5a2 2 0 1 1 0 4 2 2 0 0 1 0-4Zm0 1a1 1 0 1 0 0 2 1 1 0 0 0 0-2Z" clip-rule="evenodd"/>
</svg>
