<svg width="16" height="16" viewBox="0 0 16 16" fill="none" xmlns="http://www.w3.org/2000/svg">
<path fill-rule="evenodd" clip-rule="evenodd" d="M12 10.5C13.8686 10.5 15.3951 11.9643 15.4948 13.808L15.5 14V14.5C15.5 14.7761 15.2761 15 15 15C14.7545 15 14.5504 14.8231 14.5081 14.5899L14.5 14.5V14C14.5 12.6193 13.3807 11.5 12 11.5C10.6745 11.5 9.58996 12.5315 9.50532 13.8356L9.5 14H12.6501C12.8956 14 13.0997 14.1769 13.142 14.4101L13.1501 14.5C13.1501 14.7455 12.9732 14.9496 12.74 14.9919L12.6501 15H9C8.75454 15 8.55039 14.8231 8.50806 14.5899L8.5 14.5V14C8.5 12.067 10.067 10.5 12 10.5ZM6.5 1C6.60609 1 6.7087 1.03371 6.79351 1.09521L6.85355 1.14645L8.707 3H15.5C15.7455 3 15.9496 3.17688 15.9919 3.41012L16 3.5V6.5C16 6.77614 15.7761 7 15.5 7C15.2545 7 15.0504 6.82312 15.0081 6.58988L15 6.5V4H8.5C8.39391 4 8.2913 3.96629 8.20649 3.90479L8.14645 3.85355L6.293 2H1V12H7C7.24546 12 7.44961 12.1769 7.49194 12.4101L7.5 12.5C7.5 12.7455 7.32312 12.9496 7.08988 12.9919L7 13H0.5C0.25454 13 0.0503916 12.8231 0.00805567 12.5899L0 12.5V1.5C0 1.25454 0.176875 1.05039 0.410124 1.00806L0.5 1H6.5ZM12 6C13.1046 6 14 6.89543 14 8C14 9.10457 13.1046 10 12 10C10.8954 10 10 9.10457 10 8C10 6.89543 10.8954 6 12 6ZM12 7C11.4477 7 11 7.44772 11 8C11 8.55228 11.4477 9 12 9C12.5523 9 13 8.55228 13 8C13 7.44772 12.5523 7 12 7Z" fill="#242424"/>
</svg>
