<svg width="16" height="16" viewBox="0 0 16 16" fill="none" xmlns="http://www.w3.org/2000/svg">
<path fill-rule="evenodd" clip-rule="evenodd" d="M6.5 2C6.60609 2 6.7087 2.03371 6.79351 2.09521L6.85355 2.14645L8.707 4H15.5C15.7455 4 15.9496 4.17688 15.9919 4.41012L16 4.5V13.5C16 13.7455 15.8231 13.9496 15.5899 13.9919L15.5 14H13C12.7239 14 12.5 13.7761 12.5 13.5C12.5 13.2545 12.6769 13.0504 12.9101 13.0081L13 13H15V5H8.5C8.39391 5 8.2913 4.96629 8.20649 4.90479L8.14645 4.85355L6.293 3H1V13H8C8.24546 13 8.44961 13.1769 8.49194 13.4101L8.5 13.5C8.5 13.7455 8.32312 13.9496 8.08988 13.9919L8 14H0.5C0.25454 14 0.0503916 13.8231 0.00805567 13.5899L0 13.5V2.5C0 2.25454 0.176875 2.05039 0.410124 2.00806L0.5 2H6.5Z" fill="#242424"/>
</svg>
