<svg width="16" height="16" viewBox="0 0 16 16" fill="none" xmlns="http://www.w3.org/2000/svg">
<path fill-rule="evenodd" clip-rule="evenodd" d="M12.5 6.5C13.8807 6.5 15 7.61929 15 9H15.5C15.7455 9 15.9496 9.17688 15.9919 9.41012L16 9.5V12C16 12.2761 15.7761 12.5 15.5 12.5C15.2545 12.5 15.0504 12.3231 15.0081 12.0899L15 12V10H10V14H15.5C15.7455 14 15.9496 14.1769 15.9919 14.4101L16 14.5C16 14.7455 15.8231 14.9496 15.5899 14.9919L15.5 15H9.5C9.25454 15 9.05039 14.8231 9.00806 14.5899L9 14.5V9.5C9 9.25454 9.17688 9.05039 9.41012 9.00806L9.5 9H14C14 8.17157 13.3284 7.5 12.5 7.5C12.0934 7.5 11.7137 7.66186 11.4334 7.94527C11.2393 8.14161 10.9227 8.14336 10.7263 7.94918C10.53 7.755 10.5283 7.43843 10.7224 7.24209C11.1887 6.77063 11.8235 6.5 12.5 6.5ZM6.5 1C6.60609 1 6.7087 1.03371 6.79351 1.09521L6.85355 1.14645L8.707 3H15.5C15.7455 3 15.9496 3.17688 15.9919 3.41012L16 3.5V6.5C16 6.77614 15.7761 7 15.5 7C15.2545 7 15.0504 6.82312 15.0081 6.58988L15 6.5V4H8.5C8.39391 4 8.2913 3.96629 8.20649 3.90479L8.14645 3.85355L6.293 2H1V12H7C7.24546 12 7.44961 12.1769 7.49194 12.4101L7.5 12.5C7.5 12.7455 7.32312 12.9496 7.08988 12.9919L7 13H0.5C0.25454 13 0.0503916 12.8231 0.00805567 12.5899L0 12.5V1.5C0 1.25454 0.176875 1.05039 0.410124 1.00806L0.5 1H6.5ZM12.5 11.25C12.9142 11.25 13.25 11.5858 13.25 12C13.25 12.4142 12.9142 12.75 12.5 12.75C12.0858 12.75 11.75 12.4142 11.75 12C11.75 11.5858 12.0858 11.25 12.5 11.25Z" fill="#242424"/>
</svg>
