<svg width="16" height="16" fill="none" viewBox="0 0 16 16">
  <path fill="#242424" fill-rule="evenodd" d="M12.5 6.501a2.5 2.5 0 0 1 2.5 2.5h.5a.5.5 0 0 1 .492.41l.008.09v2.5a.5.5 0 0 1-.992.09L15 12v-2h-5v4h5.5a.5.5 0 0 1 .492.41l.008.09a.5.5 0 0 1-.41.492L15.5 15h-6a.5.5 0 0 1-.492-.41L9 14.5v-5a.5.5 0 0 1 .41-.492L9.5 9H14a1.5 1.5 0 0 0-2.567-1.055.5.5 0 1 1-.71-.703A2.494 2.494 0 0 1 12.5 6.5Zm-6-5.5a.5.5 0 0 1 .294.095l.06.051 1.853 1.854H15.5a.5.5 0 0 1 .492.41l.008.09v3a.5.5 0 0 1-.992.09L15 6.5V4H8.5a.5.5 0 0 1-.294-.095l-.06-.051L6.293 2H1v10h6a.5.5 0 0 1 .492.41l.008.09a.5.5 0 0 1-.41.492L7 13H.5a.5.5 0 0 1-.492-.41L0 12.5v-11a.5.5 0 0 1 .41-.492L.5 1h6Zm6 10.25a.75.75 0 1 1 0 1.5.75.75 0 0 1 0-1.5Z" clip-rule="evenodd"/>
</svg>
