<svg width="16" height="16" viewBox="0 0 16 16" fill="none" xmlns="http://www.w3.org/2000/svg">
<path fill-rule="evenodd" clip-rule="evenodd" d="M13.5 2C13.7455 2 13.9496 2.17688 13.9919 2.41012L14 2.5V13.5C14 13.7455 13.8231 13.9496 13.5899 13.9919L13.5 14H9.78876C9.51262 14 9.28876 13.7761 9.28876 13.5C9.28876 13.2545 9.46564 13.0504 9.69889 13.0081L9.78876 13H13V3H3V13H5.98192C6.22738 13 6.43153 13.1769 6.47387 13.4101L6.48192 13.5C6.48192 13.7455 6.30505 13.9496 6.0718 13.9919L5.98192 14H2.5C2.25454 14 2.05039 13.8231 2.00806 13.5899L2 13.5V2.5C2 2.25454 2.17688 2.05039 2.41012 2.00806L2.5 2H13.5Z" fill="#242424"/>
</svg>
