<svg width="16" height="16" viewBox="0 0 16 16" fill="none" xmlns="http://www.w3.org/2000/svg">
<path fill-rule="evenodd" clip-rule="evenodd" d="M15.5 2.5C15.7455 2.5 15.9496 2.67688 15.9919 2.91012L16 3V13C16 13.2455 15.8231 13.4496 15.5899 13.4919L15.5 13.5H13.1665C12.8904 13.5 12.6665 13.2761 12.6665 13C12.6665 12.7545 12.8434 12.5504 13.0766 12.5081L13.1665 12.5H15V3.5H1V12.5H7.97535C8.22081 12.5 8.42496 12.6769 8.4673 12.9101L8.47535 13C8.47535 13.2455 8.29848 13.4496 8.06523 13.4919L7.97535 13.5H0.5C0.25454 13.5 0.0503916 13.3231 0.00805567 13.0899L0 13V3C0 2.75454 0.176875 2.55039 0.410124 2.50806L0.5 2.5H15.5Z" fill="#242424"/>
</svg>
