<svg xmlns="http://www.w3.org/2000/svg" width="16" height="16" viewBox="0 0 16 16"><path fill="#0F0F0F" fill-rule="evenodd" d="M15.5,2.5 C15.7454599,2.5 15.9496084,2.67687516 15.9919443,2.91012437 L16,3 L16,13 C16,13.2454599 15.8231248,13.4496084 15.5898756,13.4919443 L15.5,13.5 L13.1664945,13.5 C12.8903522,13.5 12.6664945,13.2761424 12.6664945,13 C12.6664945,12.7545401 12.8433697,12.5503916 13.0766189,12.5080557 L13.1664945,12.5 L15,12.5 L15,3.5 L1,3.5 L1,12.5 L7.97535182,12.5 C8.22081171,12.5 8.42496019,12.6768752 8.46729615,12.9101244 L8.47535182,13 C8.47535182,13.2454599 8.29847666,13.4496084 8.06522745,13.4919443 L7.97535182,13.5 L0.5,13.5 C0.254540111,13.5 0.0503916296,13.3231248 0.00805566941,13.0898756 L0,13 L0,3 C0,2.75454011 0.176875161,2.55039163 0.410124368,2.50805567 L0.5,2.5 L15.5,2.5 Z" transform="matrix(0 1 1 0 0 0)"/></svg>