<svg width="16" height="16" viewBox="0 0 16 16" fill="none" xmlns="http://www.w3.org/2000/svg">
<path fill-rule="evenodd" clip-rule="evenodd" d="M2.5 15.5C2.5 15.7455 2.67688 15.9496 2.91012 15.9919L3 16H13C13.2455 16 13.4496 15.8231 13.4919 15.5899L13.5 15.5V13.1665C13.5 12.8904 13.2761 12.6665 13 12.6665C12.7545 12.6665 12.5504 12.8434 12.5081 13.0766L12.5 13.1665V15H3.5V1H12.5V7.97535C12.5 8.22081 12.6769 8.42496 12.9101 8.4673L13 8.47535C13.2455 8.47535 13.4496 8.29848 13.4919 8.06523L13.5 7.97535V0.5C13.5 0.25454 13.3231 0.0503916 13.0899 0.00805567L13 0H3C2.75454 0 2.55039 0.176875 2.50806 0.410124L2.5 0.5V15.5Z" fill="#242424"/>
</svg>
