<svg width="16" height="16" viewBox="0 0 16 16" fill="none" xmlns="http://www.w3.org/2000/svg">
<path fill-rule="evenodd" clip-rule="evenodd" d="M6 3.00001V4.5L7 5.1V3.90101L13.557 7.99901L9.43421 10.5765L9.36226 10.631C9.1869 10.7905 9.14511 11.0574 9.27521 11.2655C9.42156 11.4997 9.73004 11.5709 9.9642 11.4245L14.765 8.42401L14.8368 8.36992C15.0762 8.15393 15.0522 7.75552 14.765 7.57601L6.765 2.57601L6.69232 2.53815C6.37247 2.40285 6 2.63534 6 3.00001ZM1.69232 2.53815C1.37247 2.40285 1 2.63534 1 3.00001V13L1.00806 13.0899C1.05039 13.3231 1.25454 13.5 1.5 13.5L1.58988 13.492C1.82312 13.4496 2 13.2455 2 13V3.90101L8.557 7.99901L4.43421 10.5765L4.36226 10.631C4.1869 10.7905 4.14511 11.0574 4.27521 11.2655C4.42156 11.4997 4.73004 11.5709 4.9642 11.4245L9.765 8.42401L9.83681 8.36992C10.0762 8.15393 10.0522 7.75552 9.765 7.57601L1.765 2.57601L1.69232 2.53815Z" fill="#242424"/>
</svg>
