<svg width="16" height="16" fill="none" viewBox="0 0 16 16">
  <path fill="#242424" fill-rule="evenodd" d="M6.5 0a.5.5 0 0 1 .5.5v6a.5.5 0 0 1-.5.5h-6a.5.5 0 0 1-.5-.5v-6A.5.5 0 0 1 .5 0h6ZM6 1H1v5h5V1Zm.5 8a.5.5 0 0 1 .5.5v6a.5.5 0 0 1-.5.5h-6a.5.5 0 0 1-.5-.5v-6A.5.5 0 0 1 .5 9h6ZM6 10H1v5h5v-5Zm10-.5a.5.5 0 0 0-.5-.5h-6a.5.5 0 0 0-.5.5v6a.5.5 0 0 0 .5.5h6a.5.5 0 0 0 .5-.5v-6Zm-6 .5h5v5h-5v-5Zm5.5-10a.5.5 0 0 1 .5.5v6a.5.5 0 0 1-.5.5h-6a.5.5 0 0 1-.5-.5v-6a.5.5 0 0 1 .5-.5h6ZM15 1h-5v5h5V1Z" clip-rule="evenodd"/>
</svg>
