<svg width="16" height="16" viewBox="0 0 16 16" fill="none" xmlns="http://www.w3.org/2000/svg">
<path fill-rule="evenodd" clip-rule="evenodd" d="M6.5 0C6.77614 0 7 0.223858 7 0.5V6.5C7 6.77614 6.77614 7 6.5 7H0.5C0.223858 7 0 6.77614 0 6.5V0.5C0 0.223858 0.223858 0 0.5 0H6.5ZM6 1H1V6H6V1ZM6.5 9C6.77614 9 7 9.22386 7 9.5V15.5C7 15.7761 6.77614 16 6.5 16H0.5C0.223858 16 0 15.7761 0 15.5V9.5C0 9.22386 0.223858 9 0.5 9H6.5ZM6 10H1V15H6V10ZM16 9.5C16 9.22386 15.7761 9 15.5 9H9.5C9.22386 9 9 9.22386 9 9.5V15.5C9 15.7761 9.22386 16 9.5 16H15.5C15.7761 16 16 15.7761 16 15.5V9.5ZM10 10H15V15H10V10ZM15.5 0C15.7761 0 16 0.223858 16 0.5V6.5C16 6.77614 15.7761 7 15.5 7H9.5C9.22386 7 9 6.77614 9 6.5V0.5C9 0.223858 9.22386 0 9.5 0H15.5ZM15 1H10V6H15V1Z" fill="#242424"/>
</svg>
