<svg width="16" height="16" fill="none" viewBox="0 0 16 16">
  <path fill="#242424" d="M16 7c0-.276-.15-.5-.333-.5H.333C.15 6.5 0 6.724 0 7s.15.5.333.5h15.334c.184 0 .333-.224.333-.5Zm0-6c0-.276-.15-.5-.333-.5H.333C.15.5 0 .724 0 1s.15.5.333.5h15.334c.184 0 .333-.224.333-.5ZM2.855 10.354a.5.5 0 0 1-.765-.638l.058-.07 1-1a.5.5 0 0 1 .765.638l-.058.07-1 1Zm1 5a.5.5 0 0 1-.638.057l-.07-.057-3-3a.5.5 0 0 1 .268-.847l.086-.007h10a.5.5 0 0 1 .09.992l-.09.008H1.708l2.147 2.146a.5.5 0 0 1 .058.638l-.058.07Z"/>
</svg>
