<svg width="16" height="16" viewBox="0 0 16 16" fill="none" xmlns="http://www.w3.org/2000/svg">
    <path fill-rule="evenodd" fill="#242424" clip-rule="evenodd" d="M16 7.5C16 7.22386 15.8508 7 15.6667 7H0.333333C0.149238 7 0 7.22386 0 7.5C0 7.77614 0.149238 8 0.333333 8H15.6667C15.8508 8 16 7.77614 16 7.5ZM16 1.5C16 1.22386 15.8508 1 15.6667 1H0.333333C0.149238 1 0 1.22386 0 1.5C0 1.77614 0.149238 2 0.333333 2H15.6667C15.8508 2 16 1.77614 16 1.5ZM7.14645 9.14645C7.32001 8.97288 7.58944 8.9536 7.78431 9.08859L7.85355 9.14645L10.8536 12.1464C11.1475 12.4404 10.9728 12.9292 10.586 12.993L10.5 13H0.5C0.223858 13 0 12.7761 0 12.5C0 12.2545 0.176875 12.0504 0.410124 12.0081L0.5 12H9.293L7.14645 9.85355C6.97288 9.67999 6.9536 9.41056 7.08859 9.21569L7.14645 9.14645ZM8.14645 14.1464C8.34171 13.9512 8.65829 13.9512 8.85355 14.1464C9.02712 14.32 9.0464 14.5894 8.91141 14.7843L8.85355 14.8536L7.85355 15.8536C7.65829 16.0488 7.34171 16.0488 7.14645 15.8536C6.97288 15.68 6.9536 15.4106 7.08859 15.2157L7.14645 15.1464L8.14645 14.1464Z"/>
</svg>
