<svg width="16" height="16" viewBox="0 0 16 16" fill="none" xmlns="http://www.w3.org/2000/svg">
<path fill-rule="evenodd" clip-rule="evenodd" d="M16 6.5C16 6.22386 15.8508 6 15.6667 6H0.333333C0.149238 6 0 6.22386 0 6.5C0 6.77614 0.149238 7 0.333333 7H15.6667C15.8508 7 16 6.77614 16 6.5ZM16 0.5C16 0.223858 15.8508 0 15.6667 0H0.333333C0.149238 0 0 0.223858 0 0.5C0 0.776142 0.149238 1 0.333333 1H15.6667C15.8508 1 16 0.776142 16 0.5ZM7.14645 8.14645C7.32001 7.97288 7.58944 7.9536 7.78431 8.08859L7.85355 8.14645L10.8536 11.1464C11.1475 11.4404 10.9728 11.9292 10.586 11.993L10.5 12H0.5C0.223858 12 0 11.7761 0 11.5C0 11.2545 0.176875 11.0504 0.410124 11.0081L0.5 11H9.293L7.14645 8.85355C6.97288 8.67999 6.9536 8.41056 7.08859 8.21569L7.14645 8.14645ZM8.14645 13.1464C8.34171 12.9512 8.65829 12.9512 8.85355 13.1464C9.02712 13.32 9.0464 13.5894 8.91141 13.7843L8.85355 13.8536L7.85355 14.8536C7.65829 15.0488 7.34171 15.0488 7.14645 14.8536C6.97288 14.68 6.9536 14.4106 7.08859 14.2157L7.14645 14.1464L8.14645 13.1464Z" fill="#242424"/>
</svg>
