<svg width="16" height="16" viewBox="0 0 16 16" fill="none" xmlns="http://www.w3.org/2000/svg">
<path fill-rule="evenodd" clip-rule="evenodd" d="M16 7.5C16 7.22386 15.8508 7 15.6667 7H0.333333C0.149238 7 0 7.22386 0 7.5C0 7.77614 0.149238 8 0.333333 8H15.6667C15.8508 8 16 7.77614 16 7.5ZM16 1.5C16 1.22386 15.8508 1 15.6667 1H0.333333C0.149238 1 0 1.22386 0 1.5C0 1.77614 0.149238 2 0.333333 2H15.6667C15.8508 2 16 1.77614 16 1.5ZM2.85456 10.8536C2.65929 11.0488 2.34271 11.0488 2.14745 10.8536C1.97388 10.68 1.9546 10.4106 2.08959 10.2157L2.14745 10.1464L3.14745 9.14645C3.34271 8.95118 3.65929 8.95118 3.85456 9.14645C4.02812 9.32001 4.04741 9.58944 3.91241 9.78431L3.85456 9.85355L2.85456 10.8536ZM3.85456 15.8536C3.68099 16.0271 3.41156 16.0464 3.2167 15.9114L3.14745 15.8536L0.147449 12.8536C-0.146535 12.5596 0.0281975 12.0708 0.414971 12.007L0.501002 12H10.501C10.7771 12 11.001 12.2239 11.001 12.5C11.001 12.7455 10.8241 12.9496 10.5909 12.9919L10.501 13H1.708L3.85456 15.1464C4.02812 15.32 4.04741 15.5894 3.91241 15.7843L3.85456 15.8536Z" fill="#242424"/>
</svg>
