<svg width="16" height="16" fill="none" viewBox="0 0 16 16">
  <path fill="#242424" fill-rule="evenodd" d="M8 0a7.997 7.997 0 0 1 6.986 4.099.5.5 0 0 1-.873.488 5.881 5.881 0 0 0-.038-.067l-2.96 1.883a3.498 3.498 0 0 1 .001 3.194l2.96 1.883A6.968 6.968 0 0 0 15 8a.5.5 0 0 1 1 0 8 8 0 1 1-8-8Zm3.48 14.075-1.883-2.96A3.485 3.485 0 0 1 8 11.5a3.485 3.485 0 0 1-1.597-.385l-1.883 2.96A6.967 6.967 0 0 0 8 15a6.967 6.967 0 0 0 3.48-.925ZM1.925 11.48l2.96-1.883A3.485 3.485 0 0 1 4.5 8c0-.575.139-1.118.385-1.597L1.925 4.52A6.968 6.968 0 0 0 1 8c0 1.267.337 2.455.925 3.48ZM4.52 1.925l1.883 2.96A3.485 3.485 0 0 1 8 4.5c.575 0 1.118.139 1.597.385l1.883-2.96A6.987 6.987 0 0 0 8 1a6.968 6.968 0 0 0-3.48.925ZM10.5 8a2.5 2.5 0 1 0-5 0 2.5 2.5 0 0 0 5 0Z" clip-rule="evenodd"/>
</svg>
