<svg width="16" height="16" viewBox="0 0 16 16" fill="none" xmlns="http://www.w3.org/2000/svg">
<path fill-rule="evenodd" clip-rule="evenodd" d="M8 0C10.9296 0 13.5813 1.58861 14.9859 4.09882C15.1207 4.3398 15.0347 4.64447 14.7937 4.77931C14.5527 4.91416 14.248 4.82812 14.1132 4.58713C14.1006 4.5646 14.0879 4.54214 14.075 4.51977L11.1153 6.4032C11.3612 6.88196 11.5 7.42477 11.5 8C11.5 8.57523 11.3612 9.11804 11.1153 9.5968L14.0749 11.4802C14.6635 10.4551 15 9.26683 15 8C15 7.72386 15.2239 7.5 15.5 7.5C15.7761 7.5 16 7.72386 16 8C16 12.4183 12.4183 16 8 16C3.58172 16 0 12.4183 0 8C0 3.58172 3.58172 0 8 0ZM11.4802 14.0749L9.5968 11.1153C9.11804 11.3612 8.57523 11.5 8 11.5C7.42477 11.5 6.88196 11.3612 6.4032 11.1153L4.51982 14.0749C5.54493 14.6635 6.73317 15 8 15C9.26683 15 10.4551 14.6635 11.4802 14.0749ZM1.92505 11.4802L4.88465 9.5968C4.63877 9.11804 4.5 8.57523 4.5 8C4.5 7.42477 4.63877 6.88196 4.88465 6.4032L1.92505 4.51982C1.33652 5.54493 1 6.73317 1 8C1 9.26683 1.33652 10.4551 1.92505 11.4802ZM4.51982 1.92505L6.4032 4.88465C6.88196 4.63877 7.42477 4.5 8 4.5C8.57523 4.5 9.11804 4.63877 9.5968 4.88465L11.4803 1.92494C10.4438 1.33086 9.25096 1 8 1C6.73317 1 5.54493 1.33652 4.51982 1.92505ZM10.5 8C10.5 6.61929 9.38071 5.5 8 5.5C6.61929 5.5 5.5 6.61929 5.5 8C5.5 9.38071 6.61929 10.5 8 10.5C9.38071 10.5 10.5 9.38071 10.5 8Z" fill="#242424"/>
</svg>
