<svg width="16" height="16" viewBox="0 0 16 16" fill="none" xmlns="http://www.w3.org/2000/svg">
<g clip-path="url(#clip0_1249_19516)">
<path fill-rule="evenodd" clip-rule="evenodd" d="M8.28431 0.0885912L8.35355 0.146447L15.3536 7.14645C15.4286 7.22146 15.4773 7.31786 15.4938 7.42131L15.5 7.5V9.5C15.5 9.77614 15.2761 10 15 10C14.7545 10 14.5504 9.82312 14.5081 9.58988L14.5 9.5V7.707L8 1.207L1.5 7.706V15H5.5V10.5C5.5 10.2545 5.67688 10.0504 5.91012 10.0081L6 10H10C10.2455 10 10.4496 10.1769 10.4919 10.4101L10.5 10.5V15.5C10.5 15.7455 10.3231 15.9496 10.0899 15.9919L10 16C9.75454 16 9.55039 15.8231 9.50806 15.5899L9.5 15.5V11H6.5V15.5C6.5 15.7455 6.32312 15.9496 6.08988 15.9919L6 16H1C0.75454 16 0.550392 15.8231 0.508056 15.5899L0.5 15.5V7.5C0.5 7.39391 0.533714 7.2913 0.595209 7.20649L0.646447 7.14645L7.64645 0.146447C7.82001 -0.0271197 8.08944 -0.0464049 8.28431 0.0885912ZM12.0969 11.3953L13.5 12.7984L14.9031 11.3953C15.0969 11.2016 15.411 11.2016 15.6047 11.3953C15.7984 11.589 15.7984 11.9031 15.6047 12.0969L14.2016 13.5L15.6047 14.9031C15.7984 15.0969 15.7984 15.411 15.6047 15.6047C15.411 15.7984 15.0969 15.7984 14.9031 15.6047L13.4993 14.2009L12.0969 15.6047C11.9031 15.7984 11.589 15.7984 11.3953 15.6047C11.2016 15.411 11.2016 15.0969 11.3953 14.9031L12.7977 13.4993L11.3953 12.0969C11.2016 11.9031 11.2016 11.589 11.3953 11.3953C11.589 11.2016 11.9031 11.2016 12.0969 11.3953Z" fill="#242424"/>
</g>
<defs>
<clipPath id="clip0_1249_19516">
<rect width="16" height="16" fill="white"/>
</clipPath>
</defs>
</svg>
