<svg width="16" height="16" fill="none" viewBox="0 0 16 16">
  <path fill="#242424" fill-rule="evenodd" d="M7.647.146A.5.5 0 0 1 8.284.09l.07.057 7 7a.5.5 0 0 1 .14.275l.006.079v8a.5.5 0 0 1-.992.09l-.008-.09V7.707L8 1.207 1.5 7.706V15h4v-4.5a.5.5 0 0 1 .41-.492L6 10h4a.5.5 0 0 1 .492.41l.008.09V15H12a.5.5 0 0 1 .492.41l.008.09a.5.5 0 0 1-.41.492L12 16h-2a.5.5 0 0 1-.492-.41L9.5 15.5V11h-3v4.5a.5.5 0 0 1-.41.492L6 16H1a.5.5 0 0 1-.492-.41L.5 15.5v-8a.5.5 0 0 1 .095-.294l.052-.06 7-7Z" clip-rule="evenodd"/>
</svg>
