<svg width="16" height="16" fill="none" viewBox="0 0 16 16">
  <path fill="#242424" fill-rule="evenodd" d="m8.16.089.069.057 7 7a.5.5 0 0 1 .14.275l.006.079v2a.5.5 0 0 1-.992.09l-.008-.09V7.707l-6.5-6.5-6.5 6.499V15h4v-4.5a.5.5 0 0 1 .41-.492l.09-.008h4a.5.5 0 0 1 .492.41l.008.09v5a.5.5 0 0 1-.41.492l-.09.008a.5.5 0 0 1-.492-.41l-.008-.09V11h-3v4.5a.5.5 0 0 1-.41.492l-.09.008h-5a.5.5 0 0 1-.492-.41l-.008-.09v-8a.5.5 0 0 1 .096-.294l.05-.06 7-7A.5.5 0 0 1 8.16.09Zm3.812 11.306 1.403 1.403 1.403-1.403a.496.496 0 0 1 .702.702L14.077 13.5l1.403 1.403a.496.496 0 0 1-.702.702L13.375 14.2l-1.403 1.404a.496.496 0 1 1-.701-.702l1.402-1.404-1.402-1.402a.496.496 0 1 1 .701-.702Z" clip-rule="evenodd"/>
</svg>
