<svg width="16" height="16" viewBox="0 0 16 16" fill="none" xmlns="http://www.w3.org/2000/svg">
<path fill-rule="evenodd" clip-rule="evenodd" d="M7.64645 0.146447C7.82001 -0.0271197 8.08944 -0.0464049 8.28431 0.0885912L8.35355 0.146447L15.3536 7.14645C15.4286 7.22146 15.4773 7.31786 15.4938 7.42131L15.5 7.5V15.5C15.5 15.7761 15.2761 16 15 16C14.7545 16 14.5504 15.8231 14.5081 15.5899L14.5 15.5V7.707L8 1.207L1.5 7.706V15H5.5V10.5C5.5 10.2545 5.67688 10.0504 5.91012 10.0081L6 10H10C10.2455 10 10.4496 10.1769 10.4919 10.4101L10.5 10.5V15H12C12.2455 15 12.4496 15.1769 12.4919 15.4101L12.5 15.5C12.5 15.7455 12.3231 15.9496 12.0899 15.9919L12 16H10C9.75454 16 9.55039 15.8231 9.50806 15.5899L9.5 15.5V11H6.5V15.5C6.5 15.7455 6.32312 15.9496 6.08988 15.9919L6 16H1C0.75454 16 0.550392 15.8231 0.508056 15.5899L0.5 15.5V7.5C0.5 7.39391 0.533714 7.2913 0.595209 7.20649L0.646447 7.14645L7.64645 0.146447Z" fill="#242424"/>
</svg>
