<svg width="16" height="16" viewBox="0 0 16 16" fill="none" xmlns="http://www.w3.org/2000/svg">
<path d="M3.82617 3.72461C3.82622 4.88541 4.42697 5.97088 5.42969 6.62207L6.98828 7.63379L7.06934 7.69922C7.15149 7.77996 7.20038 7.88331 7.21289 7.99121V8.20801C7.2005 8.31625 7.15168 8.42005 7.06934 8.50098L6.98828 8.56641L5.42969 9.57812C4.42704 10.2293 3.82622 11.3148 3.82617 12.4756V14.5H13.2178L13.2979 14.5039C13.6923 14.5425 14 14.8618 14 15.25C14 15.6382 13.6923 15.9575 13.2979 15.9961L13.2178 16H2.78223C2.35018 15.9998 2 15.6641 2 15.25C2 14.8359 2.35018 14.5002 2.78223 14.5V12.4756C2.78228 10.9831 3.55459 9.58726 4.84375 8.75L5.84473 8.09961L4.84375 7.4502C3.55452 6.61295 2.78228 5.21709 2.78223 3.72461V2.5H3.82617V3.72461ZM13.2979 0.00390625C13.6923 0.0425275 14 0.361833 14 0.75C14 1.13817 13.6923 1.45747 13.2979 1.49609L13.2178 1.5V3.72461C13.2177 5.21709 12.4455 6.61295 11.1562 7.4502L10.1543 8.09961L11.1562 8.75C12.4454 9.58726 13.2177 10.9831 13.2178 12.4756V13.5H12.1738V12.4756C12.1738 11.3148 11.573 10.2293 10.5703 9.57812L9.01172 8.56641C8.84675 8.45923 8.76866 8.27723 8.78809 8.09961C8.76896 7.92222 8.84698 7.74082 9.01172 7.63379L10.5703 6.62207C11.573 5.97088 12.1738 4.88541 12.1738 3.72461V1.5H2.78223C2.35018 1.4998 2 1.16409 2 0.75C2 0.335909 2.35018 0.000197841 2.78223 0H13.2178L13.2979 0.00390625ZM10.6084 3.65527C10.6084 4.53684 9.89112 5.24362 9.04688 5.59375C8.57182 5.79065 8.13756 6.08016 8 6.5C7.86244 6.08016 7.42818 5.79065 6.95312 5.59375C6.10887 5.24362 5.3916 4.53684 5.3916 3.65527V2.75H10.6084V3.65527Z" fill="#242424"/>
</svg>
