<svg width="16" height="16" fill="none" viewBox="0 0 16 16">
  <path fill="#242424" fill-rule="evenodd" d="m3.5.001 6.04.002.05.006.064.017.072.03.026.013.07.05 4.031 4.028a.5.5 0 0 1-.268.847l-.086.007h-4a.5.5 0 0 1-.491-.41L9 4.5V1H3.5a.5.5 0 0 0-.492.41L3 1.501v13a.5.5 0 0 0 .41.492L3.5 15h9a.5.5 0 0 0 .492-.41l.007-.09V7a.5.5 0 0 1 .992-.09l.008.09v7.5a1.5 1.5 0 0 1-1.355 1.493l-.145.007h-9a1.5 1.5 0 0 1-1.493-1.356L2 14.501v-13A1.5 1.5 0 0 1 3.355.008L3.5 0ZM10 1.708v2.293h2.293L10 1.708Z M9.029 7.023a.448.448 0 0 0-.562.271l-1.778 5.143-.018.075c-.03.201.092.4.3.467a.448.448 0 0 0 .561-.271L9.31 7.565l.019-.075a.428.428 0 0 0-.3-.467Zm-3.122.961a.456.456 0 0 1 .629 0c.154.148.171.38.051.546l-.051.06L5.072 10l1.464 1.411c.154.149.171.38.051.547l-.051.06a.457.457 0 0 1-.567.049l-.062-.05-1.777-1.714a.417.417 0 0 1-.052-.547l.052-.06 1.777-1.713Zm4.185 0a.456.456 0 0 0-.629 0 .417.417 0 0 0-.051.546l.051.06L10.927 10l-1.464 1.411a.417.417 0 0 0-.051.547l.051.06a.457.457 0 0 0 .567.049l.062-.05 1.777-1.714a.417.417 0 0 0 .052-.547l-.052-.06-1.777-1.713Z" clip-rule="evenodd"/>
</svg>
