<svg width="16" height="16" viewBox="0 0 16 16" fill="none" xmlns="http://www.w3.org/2000/svg">
<path fill-rule="evenodd" clip-rule="evenodd" d="M3.5 0L9.53959 0.00156876L9.58988 0.00805567L9.65473 0.024544L9.72679 0.0543895L9.75236 0.0682647L9.82214 0.117594L13.8536 4.14645C14.1475 4.44043 13.9728 4.92918 13.586 4.99304L13.5 5H9.5C9.25454 5 9.05039 4.82312 9.00806 4.58988L9 4.5V1H3.5C3.25454 1 3.05039 1.17688 3.00806 1.41012L3 1.5V14.5C3 14.7455 3.17688 14.9496 3.41012 14.9919L3.5 15H12.5C12.7455 15 12.9496 14.8231 12.9919 14.5899L13 14.5V7C13 6.72386 13.2239 6.5 13.5 6.5C13.7455 6.5 13.9496 6.67688 13.9919 6.91012L14 7V14.5C14 15.2797 13.4051 15.9204 12.6445 15.9931L12.5 16H3.5C2.7203 16 2.07955 15.4051 2.00687 14.6445L2 14.5V1.5C2 0.720304 2.59489 0.0795513 3.35554 0.00686658L3.5 0ZM10 1.707V4H12.293L10 1.707Z" fill="#242424"/>
<path fill-rule="evenodd" clip-rule="evenodd" d="M9.02943 7.02211C8.79657 6.94726 8.54487 7.06861 8.46725 7.29315L6.68947 12.4358L6.671 12.5111C6.64114 12.7122 6.76358 12.9114 6.97057 12.9779C7.20343 13.0527 7.45513 12.9314 7.53275 12.7069L9.31053 7.56419L9.329 7.48893C9.35886 7.28779 9.23642 7.08864 9.02943 7.02211ZM5.90795 7.98275C6.08152 7.81539 6.36293 7.81539 6.53649 7.98275C6.69077 8.13151 6.70792 8.36244 6.58792 8.52946L6.53649 8.58881L5.07289 10L6.53649 11.4112C6.69077 11.56 6.70792 11.7909 6.58792 11.9579L6.53649 12.0173C6.38221 12.166 6.14272 12.1825 5.96951 12.0668L5.90795 12.0173L4.13017 10.303C3.97589 10.1543 3.95875 9.92334 4.07875 9.75632L4.13017 9.69697L5.90795 7.98275ZM10.092 7.98275C9.91848 7.81539 9.63707 7.81539 9.46351 7.98275C9.30923 8.13151 9.29208 8.36244 9.41208 8.52946L9.46351 8.58881L10.9271 10L9.46351 11.4112C9.30923 11.56 9.29208 11.7909 9.41208 11.9579L9.46351 12.0173C9.61779 12.166 9.85728 12.1825 10.0305 12.0668L10.092 12.0173L11.8698 10.303C12.0241 10.1543 12.0412 9.92334 11.9213 9.75632L11.8698 9.69697L10.092 7.98275Z" fill="#242424"/>
</svg>
