<svg xmlns="http://www.w3.org/2000/svg" width="16" height="16" viewBox="0 0 16 16"><path fill="#0F0F0F" fill-rule="evenodd" d="M15,9.5 C15,9.22385763 15.2238576,9 15.5,9 C15.7761424,9 16,9.22385763 16,9.5 C16,11.709139 14.209139,13.5 12,13.5 C11.0754545,13.5 10.2241705,13.1863305 9.54676096,12.6596044 L8.3542917,13.8542904 C8.44770205,14.049855 8.5,14.2688201 8.5,14.5 C8.5,15.3284271 7.82842712,16 7,16 C6.17157288,16 5.5,15.3284271 5.5,14.5 C5.5,13.6715729 6.17157288,13 7,13 C7.2311799,13 7.45014496,13.0522979 7.64570963,13.1457083 L8.84039558,11.953239 C8.31366954,11.2758295 8,10.4245455 8,9.5 C8,8.77913166 8.1906899,8.10280133 8.52437861,7.51870011 L3.2491831,3.56199724 C2.90690934,3.8360814 2.47259729,4 2,4 C0.8954305,4 0,3.1045695 0,2 C0,0.8954305 0.8954305,0 2,0 C3.1045695,0 4,0.8954305 4,2 C4,2.2698185 3.9465695,2.52715765 3.84971183,2.76201409 L9.12509907,6.71881823 C9.74324594,6.07997327 10.5724071,5.64655896 11.5002409,5.53091685 L11.5002925,3.91475048 C10.9175435,3.70891488 10.5,3.15321869 10.5,2.5 C10.5,1.67157288 11.1715729,1 12,1 C12.8284271,1 13.5,1.67157288 13.5,2.5 C13.5,3.1528467 13.0829319,3.70828193 12.500703,3.91439849 L12.5008991,5.53116242 C13.3751762,5.6406212 14.1820457,6.03451567 14.8073449,6.65064579 C15.0040439,6.84446046 15.006382,7.16103432 14.8125674,7.35773328 C14.6187527,7.55443225 14.3021788,7.55677043 14.1054799,7.36295575 L14.0663454,7.32508546 C14.0356023,7.29586765 14.0042402,7.26729486 13.9722811,7.23938878 L14.1054799,7.36295575 C14.0483535,7.30666702 13.9892304,7.25285819 13.9282605,7.20161153 C13.8941236,7.17301912 13.8593276,7.14508626 13.8239083,7.11792556 C13.8089619,7.10630525 13.793537,7.09469795 13.7780099,7.08324613 C13.7422902,7.05710225 13.7063449,7.03181277 13.6698314,7.00730433 C13.6512224,6.99458366 13.6323886,6.9822403 13.6134253,6.97011541 C13.589428,6.95501842 13.5652745,6.94005991 13.5408961,6.92543785 C13.4935164,6.89675621 13.4451473,6.86953733 13.3960669,6.84369286 C13.3622055,6.82611135 13.3281426,6.80899456 13.2937164,6.79251502 C13.2733814,6.78255688 13.253108,6.77313776 13.2327284,6.76394689 C13.1974956,6.74825421 13.1615102,6.73285049 13.125171,6.71813813 C13.101047,6.70820913 13.0773898,6.69899591 13.0536084,6.69008333 C13.0149193,6.67570985 12.9752683,6.66177145 12.9352463,6.64865218 C12.9162711,6.64233679 12.8975612,6.63641702 12.8787846,6.63067989 C12.8371399,6.61802136 12.7948792,6.60610065 12.7522513,6.59509348 C12.7310775,6.5895923 12.7102859,6.58447081 12.6894244,6.57956996 C12.6285232,6.56526425 12.5664269,6.55270616 12.5036681,6.54209696 L12.5006992,6.54160262 L12.3498634,6.52018319 C12.2350929,6.50685278 12.1183467,6.5 12,6.5 C11.7593376,6.5 11.5252939,6.52833812 11.3010237,6.58185956 L11.5002947,6.5414298 C11.4086881,6.55678906 11.318489,6.57629982 11.2298973,6.59976203 C11.1843363,6.61183084 11.1393537,6.62489628 11.0948202,6.63897274 C11.0743629,6.64543945 11.0540495,6.6521028 11.033833,6.65897587 C10.9818312,6.67665518 10.9304727,6.69572134 10.8797996,6.71613092 C10.8680102,6.72087697 10.8557943,6.7258895 10.843619,6.73097999 C10.7233603,6.78128591 10.6075388,6.83892746 10.4962516,6.90351856 C10.4693661,6.91912697 10.4430366,6.93495963 10.4169741,6.95118091 C10.3841914,6.97157803 10.3514604,6.99284098 10.3191783,7.01471639 C10.2997346,7.0278975 10.280925,7.04096516 10.2622739,7.05424084 C10.2437531,7.0674178 10.2248853,7.08117551 10.206186,7.0951462 C10.1518239,7.13578549 10.0995428,7.17766183 10.048735,7.22120791 C10.017053,7.24836416 9.98604339,7.27607706 9.95562337,7.30441459 L9.93365457,7.32508546 L9.93365457,7.32508546 C9.69118162,7.55552783 9.48720436,7.82609415 9.33236347,8.12614374 L9.33288175,8.12513989 L9.32207507,8.14626679 C9.30146846,8.18694983 9.28176167,8.22816586 9.26298087,8.2698887 L9.33288175,8.12513989 C9.30053984,8.18775376 9.27033808,8.25165261 9.24237322,8.31673968 C9.19369976,8.42995178 9.15159563,8.54744405 9.11685503,8.66805594 C9.11125874,8.6874824 9.10582552,8.70709483 9.10058759,8.72678686 C9.08907054,8.7700827 9.07848803,8.81380669 9.06887484,8.85789282 C9.06546329,8.87354685 9.06224252,8.88890601 9.05913972,8.90430788 C9.05073687,8.9459897 9.04313596,8.98837838 9.03643523,9.03106578 C9.03166025,9.06149937 9.02736989,9.09186939 9.02353779,9.12238198 C9.02128656,9.14028768 9.01915059,9.15863934 9.017181,9.17704077 C9.01256063,9.22021605 9.00886006,9.26360478 9.00609264,9.307247 C9.00204474,9.37118548 9,9.43535395 9,9.5 C9,9.56396196 9.0020017,9.6274564 9.00594586,9.6904241 L9,9.5 C9,9.5843277 9.00347933,9.66784277 9.01030225,9.75040946 C9.0139827,9.7948654 9.01857439,9.83859137 9.02409489,9.88202745 C9.02747174,9.90863597 9.03128,9.93567124 9.03544607,9.9625883 C9.04221927,10.0063132 9.04986187,10.0493532 9.05841149,10.0920657 C9.06238799,10.1119377 9.06659847,10.1319087 9.0710065,10.1518054 C9.11294931,10.34104 9.17265103,10.5232993 9.24831868,10.6970029 C9.25514017,10.7126647 9.26215677,10.7284 9.26930418,10.7440632 C9.28837793,10.785861 9.30836791,10.8271148 9.32926152,10.8678286 C9.33995518,10.8886604 9.35071728,10.9090413 9.36170551,10.9292815 C9.37695473,10.9573845 9.39295149,10.9857488 9.40939152,11.0138221 C9.42491752,11.0403175 9.44038774,11.0658351 9.45622392,11.0910998 C9.69736083,11.4759919 10.0240081,11.8026392 10.4094532,12.0441226 L10.2618047,11.9454251 C10.3306158,11.9944239 10.4015833,12.0405909 10.474537,12.0837562 C10.5068013,12.1028364 10.5388511,12.1210026 10.5712613,12.1385891 C10.5909587,12.1492827 10.6113396,12.1600448 10.6318576,12.1705774 C10.6728852,12.1916321 10.714139,12.2116221 10.7559064,12.230682 C10.7716,12.2378432 10.7873353,12.2448598 10.8031415,12.2517442 C10.9187563,12.3021076 11.0383151,12.3454432 11.1611251,12.3811395 C11.1766675,12.385653 11.1915456,12.3898484 11.2064702,12.3939314 C11.2527247,12.4065972 11.3001085,12.4183355 11.3479214,12.428933 C11.3651284,12.4327451 11.382116,12.4363536 11.3991561,12.4398177 C11.4445789,12.4490558 11.4906305,12.4573073 11.5370335,12.4644954 C11.5643288,12.46872 11.591364,12.4725283 11.6185125,12.4759737 C11.649506,12.4799128 11.6811922,12.4834311 11.7130234,12.4864519 C11.7459815,12.4895755 11.7787117,12.4921421 11.8115853,12.4941793 C11.8739018,12.4980409 11.9367221,12.5 12,12.5 C13.6568542,12.5 15,11.1568542 15,9.5 Z"/></svg>