<svg width="16" height="16" viewBox="0 0 16 16" fill="none" xmlns="http://www.w3.org/2000/svg">
<path fill-rule="evenodd" clip-rule="evenodd" d="M3.84963 2.76222C3.94654 2.52731 4 2.2699 4 2C4 0.895431 3.10457 0 2 0C0.895431 0 0 0.895431 0 2C0 3.10457 0.895431 4 2 4C2.47263 4 2.90697 3.83606 3.24925 3.56194L8.52454 7.51841C8.19075 8.10258 8 8.77901 8 9.5C8 10.4244 8.31354 11.2755 8.84007 11.9528L7.64671 13.1462C7.45089 13.0525 7.23157 13 7 13C6.17157 13 5.5 13.6716 5.5 14.5C5.5 15.3284 6.17157 16 7 16C7.82843 16 8.5 15.3284 8.5 14.5C8.5 14.2684 8.44752 14.0491 8.35381 13.8533L9.54718 12.6599C10.2245 13.1865 11.0756 13.5 12 13.5C14.2091 13.5 16 11.7091 16 9.5C16 9.22386 15.7761 9 15.5 9C15.2239 9 15 9.22386 15 9.5C15 11.1569 13.6569 12.5 12 12.5C11.3521 12.5 10.7521 12.2946 10.2617 11.9454C9.98847 11.7508 9.74922 11.5115 9.55463 11.2383C9.20539 10.7479 9 10.1479 9 9.5C9 9.00434 9.12021 8.53675 9.33306 8.12479C9.4878 7.82532 9.69149 7.55525 9.93356 7.32517C10.3571 6.92259 10.8982 6.64244 11.5 6.54148C11.6626 6.5142 11.8296 6.5 12 6.5C12.189 6.5 12.374 6.51748 12.5533 6.55092C13.1404 6.66031 13.6787 6.94242 14.1055 7.36296C14.3022 7.55677 14.6188 7.55443 14.8126 7.35773C15.0064 7.16103 15.004 6.84446 14.8073 6.65065C14.1818 6.0343 13.3746 5.64035 12.5 5.53105V3.91465C13.0826 3.70873 13.5 3.15311 13.5 2.5C13.5 1.67157 12.8284 1 12 1C11.1716 1 10.5 1.67157 10.5 2.5C10.5 3.15311 10.9174 3.70873 11.5 3.91465V5.53095C10.5723 5.64663 9.74319 6.08003 9.1251 6.71882L3.84963 2.76222Z" fill="#242424"/>
</svg>
