<svg width="16" height="16" viewBox="0 0 16 16" fill="none" xmlns="http://www.w3.org/2000/svg">
<g clip-path="url(#clip0_1249_19509)">
<path fill-rule="evenodd" clip-rule="evenodd" d="M2 14V16H0V14H2ZM6 14V16H4V14H6ZM10 14V16H8V14H10ZM14 14V16H12V14H14ZM4 12V14H2V12H4ZM8 12V14H6V12H8ZM12 12V14H10V12H12ZM16 12V14H14V12H16ZM6 10V12H4V10H6ZM10 10V12H8V10H10ZM14 10V12H12V10H14ZM8 8V10H6V8H8ZM12 8V10H10V8H12ZM16 8V10H14V8H16ZM10 6V8H8V6H10ZM14 6V8H12V6H14ZM12 4V6H10V4H12ZM16 4V6H14V4H16ZM14 2V4H12V2H14ZM16 0V2H14V0H16Z" fill="#242424"/>
</g>
<defs>
<clipPath id="clip0_1249_19509">
<rect width="16" height="16" fill="white"/>
</clipPath>
</defs>
</svg>
