<svg width="16" height="16" viewBox="0 0 16 16" fill="none" xmlns="http://www.w3.org/2000/svg">
<g clip-path="url(#clip0_1249_19485)">
<path d="M9 6.5H7C6.72386 6.5 6.5 6.72386 6.5 7V9C6.5 9.27614 6.72386 9.5 7 9.5H9C9.27614 9.5 9.5 9.27614 9.5 9V7C9.5 6.72386 9.27614 6.5 9 6.5Z" fill="#242424"/>
<path d="M14.5 0H12.5C12.2239 0 12 0.223858 12 0.5V2.5C12 2.77614 12.2239 3 12.5 3H14.5C14.7761 3 15 2.77614 15 2.5V0.5C15 0.223858 14.7761 0 14.5 0Z" fill="#242424"/>
<path d="M3.5 13H1.5C1.22386 13 1 13.2239 1 13.5V15.5C1 15.7761 1.22386 16 1.5 16H3.5C3.77614 16 4 15.7761 4 15.5V13.5C4 13.2239 3.77614 13 3.5 13Z" fill="#242424"/>
<path d="M9 8C5.41015 8 2.5 10.9101 2.5 14.5M7 8C10.5899 8 13.5 5.08985 13.5 1.5" stroke="#242424"/>
<path d="M1 8H15" stroke="#242424"/>
<path d="M1.5 9.5C2.32843 9.5 3 8.82843 3 8C3 7.17157 2.32843 6.5 1.5 6.5C0.671573 6.5 0 7.17157 0 8C0 8.82843 0.671573 9.5 1.5 9.5Z" fill="#242424"/>
<path d="M14.5 9.5C15.3284 9.5 16 8.82843 16 8C16 7.17157 15.3284 6.5 14.5 6.5C13.6716 6.5 13 7.17157 13 8C13 8.82843 13.6716 9.5 14.5 9.5Z" fill="#242424"/>
</g>
<defs>
<clipPath id="clip0_1249_19485">
<rect width="16" height="16" fill="white"/>
</clipPath>
</defs>
</svg>
