<svg fill="none" height="16" viewBox="0 0 16 16" width="16" xmlns="http://www.w3.org/2000/svg">
    <path clip-rule="evenodd"
          d="m12.5 3h-1.0354c-.2427-1.69615-1.70136-3-3.4646-3s-3.22194 1.30385-3.46456 3h-1.03544c-.27614 0-.5.22386-.5.5s.22386.5.5.5h9c.2761 0 .5-.22386.5-.5s-.2239-.5-.5-.5zm-7.32929 2c-.11056.31278-.17071.64936-.17071 1 0 1.65685 1.34315 3 3 3s3-1.34315 3-3c0-.35064-.0602-.68722-.1707-1h-1.09686c.17017.29417.26756.63571.26756 1 0 1.10457-.89543 2-2 2s-2-.89543-2-2c0-.36429.09739-.70583.26756-1zm4.32929 5c1.8686 0 3.3951 1.4643 3.4948 3.308l.0052.192v2c0 .2761-.2239.5-.5.5-.2455 0-.4496-.1769-.4919-.4101l-.0081-.0899v-2c0-1.3255-1.0315-2.41-2.33562-2.4947l-.16438-.0053h-3c-1.32548 0-2.41004 1.0315-2.49468 2.3356l-.00532.1644v1.5h6c.2455 0 .4496.1769.4919.4101l.0081.0899c0 .2455-.1769.4496-.4101.4919l-.0899.0081h-6.5c-.24546 0-.44961-.1769-.49194-.4101l-.00806-.0899v-2c0-1.8686 1.46428-3.3951 3.30796-3.4948l.19204-.0052h1.5z"
          fill="#242424" fill-rule="evenodd"/>
</svg>