<svg width="16" height="16" viewBox="0 0 16 16" fill="none" xmlns="http://www.w3.org/2000/svg">
<path fill-rule="evenodd" clip-rule="evenodd" d="M12.5 3H11.4646C11.2219 1.30385 9.76324 0 8 0C6.23676 0 4.77806 1.30385 4.53544 3H3.5C3.22386 3 3 3.22386 3 3.5C3 3.77614 3.22386 4 3.5 4H12.5C12.7761 4 13 3.77614 13 3.5C13 3.22386 12.7761 3 12.5 3ZM5.17071 5C5.06015 5.31278 5 5.64936 5 6C5 7.65685 6.34315 9 8 9C9.65685 9 11 7.65685 11 6C11 5.64936 10.9398 5.31278 10.8293 5H9.73244C9.90261 5.29417 10 5.63571 10 6C10 7.10457 9.10457 8 8 8C6.89543 8 6 7.10457 6 6C6 5.63571 6.09739 5.29417 6.26756 5H5.17071ZM9.5 10C11.3686 10 12.8951 11.4643 12.9948 13.308L13 13.5V15.5C13 15.7761 12.7761 16 12.5 16C12.2545 16 12.0504 15.8231 12.0081 15.5899L12 15.5V13.5C12 12.1745 10.9685 11.09 9.66438 11.0053L9.5 11H6.5C5.17452 11 4.08996 12.0315 4.00532 13.3356L4 13.5V15H10C10.2455 15 10.4496 15.1769 10.4919 15.4101L10.5 15.5C10.5 15.7455 10.3231 15.9496 10.0899 15.9919L10 16H3.5C3.25454 16 3.05039 15.8231 3.00806 15.5899L3 15.5V13.5C3 11.6314 4.46428 10.1049 6.30796 10.0052L6.5 10H8H9.5Z" fill="#242424"/>
</svg>
