<svg width="16" height="16" viewBox="0 0 16 16" fill="none" xmlns="http://www.w3.org/2000/svg">
<g clip-path="url(#clip0_1249_19497)">
<path fill-rule="evenodd" clip-rule="evenodd" d="M8 0C12.4183 0 16 3.58172 16 8C16 12.4183 12.4183 16 8 16C3.58172 16 0 12.4183 0 8C0 3.58172 3.58172 0 8 0ZM8 6C7.72386 6 7.5 6.22386 7.5 6.5V12.5C7.5 12.7761 7.72386 13 8 13C8.27614 13 8.5 12.7761 8.5 12.5V6.5C8.5 6.22386 8.27614 6 8 6ZM8 3C7.44772 3 7 3.44772 7 4C7 4.55228 7.44772 5 8 5C8.55229 5 9 4.55228 9 4C9 3.44772 8.55229 3 8 3Z" fill="#242424"/>
</g>
<defs>
<clipPath id="clip0_1249_19497">
<rect width="16" height="16" fill="white"/>
</clipPath>
</defs>
</svg>
