<svg xmlns="http://www.w3.org/2000/svg" width="16" height="16" viewBox="0 0 16 16"><path fill="#242424" fill-rule="evenodd" d="M8,0 C12.418278,0 16,3.581722 16,8 C16,12.418278 12.418278,16 8,16 C3.581722,16 0,12.418278 0,8 C0,3.581722 3.581722,0 8,0 Z M8,6 C7.72385763,6 7.5,6.22385763 7.5,6.5 L7.5,6.5 L7.5,12.5 C7.5,12.7761424 7.72385763,13 8,13 C8.27614237,13 8.5,12.7761424 8.5,12.5 L8.5,12.5 L8.5,6.5 C8.5,6.22385763 8.27614237,6 8,6 Z M8,3 C7.44771525,3 7,3.44771525 7,4 C7,4.55228475 7.44771525,5 8,5 C8.55228475,5 9,4.55228475 9,4 C9,3.44771525 8.55228475,3 8,3 Z"/></svg>