<svg xmlns="http://www.w3.org/2000/svg" width="16" height="16" viewBox="0 0 16 16"><path fill="#242424" fill-rule="evenodd" d="M12.5,13.5 C12.7761424,13.5 13,13.7238576 13,14 C13,14.2761424 12.7761424,14.5 12.5,14.5 L11.5,14.5 C11.2238576,14.5 11,14.2761424 11,14 C11,13.7238576 11.2238576,13.5 11.5,13.5 L12.5,13.5 Z M9.5,13.5 C9.77614237,13.5 10,13.7238576 10,14 C10,14.2761424 9.77614237,14.5 9.5,14.5 L8.5,14.5 C8.22385763,14.5 8,14.2761424 8,14 C8,13.7238576 8.22385763,13.5 8.5,13.5 L9.5,13.5 Z M6.5,13.5 C6.77614237,13.5 7,13.7238576 7,14 C7,14.2761424 6.77614237,14.5 6.5,14.5 L5.5,14.5 C5.22385763,14.5 5,14.2761424 5,14 C5,13.7238576 5.22385763,13.5 5.5,13.5 L6.5,13.5 Z M3.5,13.5 C3.77614237,13.5 4,13.7238576 4,14 C4,14.2761424 3.77614237,14.5 3.5,14.5 L2.5,14.5 C2.22385763,14.5 2,14.2761424 2,14 C2,13.7238576 2.22385763,13.5 2.5,13.5 L3.5,13.5 Z M0.5,12.5 C0.776142375,12.5 1,12.7238576 1,13 L1,14 C1,14.2761424 0.776142375,14.5 0.5,14.5 C0.223857625,14.5 0,14.2761424 0,14 L0,13 C0,12.7238576 0.223857625,12.5 0.5,12.5 Z M14.3535534,3.64644661 C14.5271197,3.82001296 14.5464049,4.08943736 14.4114088,4.2843055 L14.3535534,4.35355339 L13.4428286,5.26374592 C14.3134289,5.92004295 15.1658194,6.83196441 16,7.99951031 C14.095219,10.6665034 12.095219,12 10,12 C9.36862491,12 8.7458758,11.878911 8.13175265,11.6367331 L8.91943034,10.8492534 C9.22167357,10.9340857 9.52473323,10.9829318 9.82864119,10.9962515 L9.99985307,11 C11.5417333,11 13.0615042,10.0896556 14.5633224,8.20909015 L14.7266934,7.99925 L14.5633371,7.79025718 C13.9545284,7.02817831 13.3427967,6.4254643 12.7278658,5.97812978 L9.54322463,9.16391296 C9.68471461,9.2194838 9.83879358,9.25 10,9.25 C10.3491004,9.25 10.664776,9.10689112 10.8915615,8.87613857 L12.2070807,7.56041717 C12.235237,7.70258351 12.25,7.84956771 12.25,8 C12.25,9.24264069 11.2426407,10.25 10,10.25 C9.55966135,10.25 9.14886675,10.1235069 8.80197079,9.90487526 L6.35355339,12.3535534 C6.15829124,12.5488155 5.84170876,12.5488155 5.64644661,12.3535534 C5.47288026,12.179987 5.45359511,11.9105626 5.58859116,11.7156945 L5.64644661,11.6464466 L6.55717136,10.7362541 C5.68657109,10.0799571 4.83418064,9.16803559 4,8.00048969 C5.90478103,5.33349656 7.90478103,4 10,4 C10.6313751,4 11.2541242,4.12108898 11.8682474,4.36326694 L11.0802758,5.1507466 C10.7780326,5.06591429 10.4749729,5.01706819 10.1710649,5.00374846 L9.99985307,5 C8.45797283,5 6.93820192,5.91034444 5.43638371,7.79090985 L5.27230661,8 L5.43636905,8.20974282 C6.04550772,8.97223474 6.65757257,9.57518901 7.27284026,10.0225975 L10.4559001,6.83574367 C10.3146501,6.78039051 10.1608741,6.75 10,6.75 C9.65040924,6.75 9.33433732,6.89351115 9.10748345,7.12483422 L9.10643005,7.12580299 L7.79272309,8.4385909 C7.76469444,8.29673283 7.75,8.15008245 7.75,8 C7.75,6.75735931 8.75735931,5.75 10,5.75 C10.4403387,5.75 10.8511333,5.87649311 11.1980292,6.09512474 L13.6464466,3.64644661 C13.8417088,3.45118446 14.1582912,3.45118446 14.3535534,3.64644661 Z M0.5,9.5 C0.776142375,9.5 1,9.72385763 1,10 L1,11 C1,11.2761424 0.776142375,11.5 0.5,11.5 C0.223857625,11.5 0,11.2761424 0,11 L0,10 C0,9.72385763 0.223857625,9.5 0.5,9.5 Z M0.5,6.5 C0.776142375,6.5 1,6.72385763 1,7 L1,8 C1,8.27614237 0.776142375,8.5 0.5,8.5 C0.223857625,8.5 0,8.27614237 0,8 L0,7 C0,6.72385763 0.223857625,6.5 0.5,6.5 Z M0.5,3.5 C0.776142375,3.5 1,3.72385763 1,4 L1,5 C1,5.27614237 0.776142375,5.5 0.5,5.5 C0.223857625,5.5 0,5.27614237 0,5 L0,4 C0,3.72385763 0.223857625,3.5 0.5,3.5 Z M12.5,1.5 C12.7761424,1.5 13,1.72385763 13,2 L13,3 C13,3.27614237 12.7761424,3.5 12.5,3.5 C12.2238576,3.5 12,3.27614237 12,3 L12,2 C12,1.72385763 12.2238576,1.5 12.5,1.5 Z M1.5,1.5 C1.77614237,1.5 2,1.72385763 2,2 C2,2.27614237 1.77614237,2.5 1.5,2.5 L0.5,2.5 C0.223857625,2.5 0,2.27614237 0,2 C0,1.72385763 0.223857625,1.5 0.5,1.5 L1.5,1.5 Z M4.5,1.5 C4.77614237,1.5 5,1.72385763 5,2 C5,2.27614237 4.77614237,2.5 4.5,2.5 L3.5,2.5 C3.22385763,2.5 3,2.27614237 3,2 C3,1.72385763 3.22385763,1.5 3.5,1.5 L4.5,1.5 Z M7.5,1.5 C7.77614237,1.5 8,1.72385763 8,2 C8,2.27614237 7.77614237,2.5 7.5,2.5 L6.5,2.5 C6.22385763,2.5 6,2.27614237 6,2 C6,1.72385763 6.22385763,1.5 6.5,1.5 L7.5,1.5 Z M10.5,1.5 C10.7761424,1.5 11,1.72385763 11,2 C11,2.27614237 10.7761424,2.5 10.5,2.5 L9.5,2.5 C9.22385763,2.5 9,2.27614237 9,2 C9,1.72385763 9.22385763,1.5 9.5,1.5 L10.5,1.5 Z"/></svg>