<svg width="16" height="16" viewBox="0 0 16 16" fill="none" xmlns="http://www.w3.org/2000/svg">
<path fill-rule="evenodd" clip-rule="evenodd" d="M14 2C13.8047 1.80474 13.4882 1.80474 13.2929 2L9.73827 5.55463C9.24786 5.2054 8.64791 5 8 5C6.34315 5 5 6.34315 5 8C5 8.26874 5.03534 8.52922 5.10161 8.77706L6.00385 7.87483C6.06846 6.82857 6.93747 6 8 6C8.3709 6 8.71823 6.10096 9.01598 6.27691L4.40147 10.8914C3.43037 10.2795 2.46494 9.4114 1.50465 8.27966L1.27231 8L1.50467 7.72121C3.63149 5.21379 5.78375 4 7.96731 4L8.20977 4.005C8.68751 4.02471 9.16377 4.10279 9.63861 4.24007L10.4309 3.44773C9.62103 3.14924 8.79982 3 7.96731 3C5.1851 3 2.52933 4.66687 0 8.00061C1.1979 9.57889 2.42407 10.7835 3.67852 11.6144L2 13.2929C1.80474 13.4882 1.80474 13.8047 2 14C2.19526 14.1953 2.51184 14.1953 2.70711 14L6.26173 10.4454C6.75214 10.7946 7.35208 11 8 11C9.65685 11 11 9.65685 11 8C11 7.73126 10.9647 7.47077 10.8984 7.22293L9.99615 8.12517C9.93154 9.17143 9.06253 10 8 10C7.6291 10 7.28177 9.89904 6.98402 9.72309L11.5732 5.13395C12.5308 5.74437 13.4829 6.60415 14.43 7.72034L14.6613 7.999L14.4299 8.27879C12.3031 10.7862 10.1509 12 7.96731 12L7.72484 11.995C7.26417 11.976 6.80488 11.9027 6.34691 11.7744L5.55157 12.5697C6.34596 12.8566 7.15121 13 7.96731 13C10.7495 13 13.4053 11.3331 15.9346 7.99939C14.7492 6.43758 13.5361 5.2417 12.2953 4.41176L14 2.70711C14.1953 2.51184 14.1953 2.19526 14 2Z" fill="#242424"/>
</svg>
