<svg width="16" height="16" viewBox="0 0 16 16" fill="none" xmlns="http://www.w3.org/2000/svg">
<path fill-rule="evenodd" clip-rule="evenodd" d="M12.5 3.5C12.7761 3.5 13 3.27614 13 3V2C13 1.72386 12.7761 1.5 12.5 1.5C12.2239 1.5 12 1.72386 12 2V3C12 3.27614 12.2239 3.5 12.5 3.5ZM11 14C11 14.2761 11.2239 14.5 11.5 14.5H12.5C12.7761 14.5 13 14.2761 13 14C13 13.7239 12.7761 13.5 12.5 13.5H11.5C11.2239 13.5 11 13.7239 11 14ZM8.5 14.5C8.22386 14.5 8 14.2761 8 14C8 13.7239 8.22386 13.5 8.5 13.5H9.5C9.77614 13.5 10 13.7239 10 14C10 14.2761 9.77614 14.5 9.5 14.5H8.5ZM5 14C5 14.2761 5.22386 14.5 5.5 14.5H6.5C6.77614 14.5 7 14.2761 7 14C7 13.7239 6.77614 13.5 6.5 13.5H5.5C5.22386 13.5 5 13.7239 5 14ZM2.5 14.5C2.22386 14.5 2 14.2761 2 14C2 13.7239 2.22386 13.5 2.5 13.5H3.5C3.77614 13.5 4 13.7239 4 14C4 14.2761 3.77614 14.5 3.5 14.5H2.5ZM0.5 12.5C0.223858 12.5 0 12.7239 0 13V14C0 14.2761 0.223858 14.5 0.5 14.5C0.776142 14.5 1 14.2761 1 14V13C1 12.7239 0.776142 12.5 0.5 12.5ZM0 10C0 9.72386 0.223858 9.5 0.5 9.5C0.776142 9.5 1 9.72386 1 10V11C1 11.2761 0.776142 11.5 0.5 11.5C0.223858 11.5 0 11.2761 0 11V10ZM0.5 6.5C0.223858 6.5 0 6.72386 0 7V8C0 8.27614 0.223858 8.5 0.5 8.5C0.776142 8.5 1 8.27614 1 8V7C1 6.72386 0.776142 6.5 0.5 6.5ZM0 4C0 3.72386 0.223858 3.5 0.5 3.5C0.776142 3.5 1 3.72386 1 4V5C1 5.27614 0.776142 5.5 0.5 5.5C0.223858 5.5 0 5.27614 0 5V4ZM2 2C2 1.72386 1.77614 1.5 1.5 1.5H0.5C0.223858 1.5 0 1.72386 0 2C0 2.27614 0.223858 2.5 0.5 2.5H1.5C1.77614 2.5 2 2.27614 2 2ZM4.5 1.5C4.77614 1.5 5 1.72386 5 2C5 2.27614 4.77614 2.5 4.5 2.5H3.5C3.22386 2.5 3 2.27614 3 2C3 1.72386 3.22386 1.5 3.5 1.5H4.5ZM8 2C8 1.72386 7.77614 1.5 7.5 1.5H6.5C6.22386 1.5 6 1.72386 6 2C6 2.27614 6.22386 2.5 6.5 2.5H7.5C7.77614 2.5 8 2.27614 8 2ZM10.5 1.5C10.7761 1.5 11 1.72386 11 2C11 2.27614 10.7761 2.5 10.5 2.5H9.5C9.22386 2.5 9 2.27614 9 2C9 1.72386 9.22386 1.5 9.5 1.5H10.5ZM16 7.99951C14.095 5.33317 12.095 4 10 4C7.90478 4 5.90478 5.3335 4 8.00049C5.90503 10.6668 7.90503 12 10 12C12.0952 12 14.0952 10.6665 16 7.99951ZM5.43638 7.79091C6.9382 5.91034 8.45797 5 9.99985 5L10.1711 5.00375C11.6541 5.06875 13.117 5.97977 14.5633 7.79026L14.7267 7.99925L14.5633 8.20909C13.0615 10.0897 11.5417 11 9.99985 11L9.82864 10.9963C8.34558 10.9313 6.88273 10.0202 5.43637 8.20974L5.27231 8L5.43638 7.79091ZM12.25 8C12.25 6.75736 11.2426 5.75 10 5.75C8.75736 5.75 7.75 6.75736 7.75 8C7.75 9.24264 8.75736 10.25 10 10.25C11.2426 10.25 12.25 9.24264 12.25 8ZM8.75 8C8.75 7.30964 9.30964 6.75 10 6.75C10.6904 6.75 11.25 7.30964 11.25 8C11.25 8.69036 10.6904 9.25 10 9.25C9.30964 9.25 8.75 8.69036 8.75 8Z" fill="#242424"/>
</svg>
