<svg width="16" height="16" fill="none" viewBox="0 0 16 16">
  <path fill="#242424" d="M12.5 3.501a.5.5 0 0 0 .5-.5v-1a.5.5 0 0 0-1 0v1a.5.5 0 0 0 .5.5Zm-1.5 10.5a.5.5 0 0 0 .5.5h1a.5.5 0 0 0 0-1h-1a.5.5 0 0 0-.5.5Zm-2.5.5a.5.5 0 0 1 0-1h1a.5.5 0 1 1 0 1h-1Zm-3.5-.5a.5.5 0 0 0 .5.5h1a.5.5 0 0 0 0-1h-1a.5.5 0 0 0-.5.5Zm-2.5.5a.5.5 0 0 1 0-1h1a.5.5 0 1 1 0 1h-1Zm-2-2a.5.5 0 0 0-.5.5v1a.5.5 0 0 0 1 0v-1a.5.5 0 0 0-.5-.5Zm-.5-2.5a.5.5 0 1 1 1 0v1a.5.5 0 0 1-1 0v-1Zm.5-3.5a.5.5 0 0 0-.5.5v1a.5.5 0 0 0 1 0v-1a.5.5 0 0 0-.5-.5Zm-.5-2.5a.5.5 0 1 1 1 0v1a.5.5 0 0 1-1 0v-1Zm2-2a.5.5 0 0 0-.5-.5h-1a.5.5 0 1 0 0 1h1a.5.5 0 0 0 .5-.5Zm2.5-.5a.5.5 0 1 1 0 1h-1a.5.5 0 0 1 0-1h1Zm3.5.5a.5.5 0 0 0-.5-.5h-1a.5.5 0 1 0 0 1h1a.5.5 0 0 0 .5-.5Zm2.5-.5a.5.5 0 0 1 0 1h-1a.5.5 0 0 1 0-1h1Zm3.146 2.146a.5.5 0 0 1 .765.638l-.057.07-.91.91C14.313 5.92 15.165 6.833 16 8c-1.905 2.668-3.905 4.001-6 4.001a5.055 5.055 0 0 1-1.869-.364l.788-.787a4 4 0 0 0 .91.147l.17.004c1.543 0 3.063-.91 4.564-2.79l.164-.21-.164-.21c-.608-.762-1.22-1.364-1.835-1.811L9.543 9.165a1.247 1.247 0 0 0 1.35-.289l1.314-1.314a2.25 2.25 0 0 1-3.405 2.344l-2.448 2.449a.5.5 0 0 1-.765-.638l.057-.07.91-.91C5.687 10.081 4.835 9.169 4 8.001c1.905-2.667 3.905-4 6-4 .632 0 1.255.121 1.869.363l-.788.788a4.003 4.003 0 0 0-.91-.147L10 5c-1.542 0-3.062.91-4.564 2.79L5.272 8l.164.21c.609.762 1.22 1.364 1.835 1.812l3.186-3.186a1.247 1.247 0 0 0-1.35.29L7.793 8.44a2.25 2.25 0 0 1 3.405-2.344l2.448-2.449Z"/>
</svg>
