<svg width="16" height="16" fill="none" viewBox="0 0 16 16">
  <path fill="#242424" fill-rule="evenodd" d="M12.5 3.501a.5.5 0 0 0 .5-.5v-1a.5.5 0 0 0-1 0v1a.5.5 0 0 0 .5.5Zm-1.5 10.5a.5.5 0 0 0 .5.5h1a.5.5 0 0 0 0-1h-1a.5.5 0 0 0-.5.5Zm-2.5.5a.5.5 0 0 1 0-1h1a.5.5 0 1 1 0 1h-1Zm-3.5-.5a.5.5 0 0 0 .5.5h1a.5.5 0 0 0 0-1h-1a.5.5 0 0 0-.5.5Zm-2.5.5a.5.5 0 0 1 0-1h1a.5.5 0 1 1 0 1h-1Zm-2-2a.5.5 0 0 0-.5.5v1a.5.5 0 0 0 1 0v-1a.5.5 0 0 0-.5-.5Zm-.5-2.5a.5.5 0 1 1 1 0v1a.5.5 0 0 1-1 0v-1Zm.5-3.5a.5.5 0 0 0-.5.5v1a.5.5 0 0 0 1 0v-1a.5.5 0 0 0-.5-.5Zm-.5-2.5a.5.5 0 1 1 1 0v1a.5.5 0 0 1-1 0v-1Zm2-2a.5.5 0 0 0-.5-.5h-1a.5.5 0 1 0 0 1h1a.5.5 0 0 0 .5-.5Zm2.5-.5a.5.5 0 1 1 0 1h-1a.5.5 0 0 1 0-1h1Zm3.5.5a.5.5 0 0 0-.5-.5h-1a.5.5 0 1 0 0 1h1a.5.5 0 0 0 .5-.5Zm2.5-.5a.5.5 0 0 1 0 1h-1a.5.5 0 0 1 0-1h1Z M12.25 8.001a2.25 2.25 0 1 0-4.5 0 2.25 2.25 0 0 0 4.5 0Zm-3.5 0a1.25 1.25 0 1 1 2.5 0 1.25 1.25 0 0 1-2.5 0Z M16 8c-1.905-2.666-3.905-3.999-6-3.999s-4.095 1.333-6 4c1.905 2.667 3.905 4 6 4s4.095-1.333 6-4ZM5.436 7.792C6.938 5.912 8.458 5 10 5l.171.004c1.483.065 2.946.976 4.392 2.786l.164.21-.164.21C13.061 10.09 11.542 11 10 11l-.171-.004c-1.483-.065-2.946-.976-4.393-2.786L5.272 8l.164-.21Z" clip-rule="evenodd"/>
</svg>
