<svg width="16" height="16" fill="none" viewBox="0 0 16 16">
  <path fill="#242424" d="M14.033 2a.5.5 0 0 0-.707 0L9.77 5.557a3 3 0 0 0-4.637 3.222l.903-.902a2 2 0 0 1 3.012-1.598l-4.615 4.614c-.97-.611-1.936-1.48-2.897-2.611L1.305 8l.232-.279C3.664 5.215 5.817 4.001 8 4.001l.242.005c.478.02.954.098 1.43.235l.792-.792A7.076 7.076 0 0 0 8 3C5.218 3 2.562 4.668.033 8c1.197 1.58 2.424 2.785 3.677 3.616l-1.678 1.679A.5.5 0 1 0 2.74 14l3.554-3.555a3 3 0 0 0 4.637-3.222l-.902.902a2 2 0 0 1-3.012 1.598l4.589-4.59c.957.611 1.91 1.471 2.857 2.587l.231.279-.231.28C12.336 10.787 10.183 12 8 12l-.242-.004a6.01 6.01 0 0 1-1.378-.22l-.796.795c.795.287 1.6.43 2.416.43 2.782 0 5.438-1.667 7.967-5-1.185-1.562-2.398-2.758-3.639-3.588l1.705-1.705a.5.5 0 0 0 0-.707Z"/>
</svg>
