<svg width="16" height="16" viewBox="0 0 16 16" fill="none" xmlns="http://www.w3.org/2000/svg">
<path fill-rule="evenodd" clip-rule="evenodd" d="M12.5 3.5C12.7761 3.5 13 3.27614 13 3V2C13 1.72386 12.7761 1.5 12.5 1.5C12.2239 1.5 12 1.72386 12 2V3C12 3.27614 12.2239 3.5 12.5 3.5ZM11 14C11 14.2761 11.2239 14.5 11.5 14.5H12.5C12.7761 14.5 13 14.2761 13 14C13 13.7239 12.7761 13.5 12.5 13.5H11.5C11.2239 13.5 11 13.7239 11 14ZM8.5 14.5C8.22386 14.5 8 14.2761 8 14C8 13.7239 8.22386 13.5 8.5 13.5H9.5C9.77614 13.5 10 13.7239 10 14C10 14.2761 9.77614 14.5 9.5 14.5H8.5ZM5 14C5 14.2761 5.22386 14.5 5.5 14.5H6.5C6.77614 14.5 7 14.2761 7 14C7 13.7239 6.77614 13.5 6.5 13.5H5.5C5.22386 13.5 5 13.7239 5 14ZM2.5 14.5C2.22386 14.5 2 14.2761 2 14C2 13.7239 2.22386 13.5 2.5 13.5H3.5C3.77614 13.5 4 13.7239 4 14C4 14.2761 3.77614 14.5 3.5 14.5H2.5ZM0.5 12.5C0.223858 12.5 0 12.7239 0 13V14C0 14.2761 0.223858 14.5 0.5 14.5C0.776142 14.5 1 14.2761 1 14V13C1 12.7239 0.776142 12.5 0.5 12.5ZM0 10C0 9.72386 0.223858 9.5 0.5 9.5C0.776142 9.5 1 9.72386 1 10V11C1 11.2761 0.776142 11.5 0.5 11.5C0.223858 11.5 0 11.2761 0 11V10ZM0.5 6.5C0.223858 6.5 0 6.72386 0 7V8C0 8.27614 0.223858 8.5 0.5 8.5C0.776142 8.5 1 8.27614 1 8V7C1 6.72386 0.776142 6.5 0.5 6.5ZM0 4C0 3.72386 0.223858 3.5 0.5 3.5C0.776142 3.5 1 3.72386 1 4V5C1 5.27614 0.776142 5.5 0.5 5.5C0.223858 5.5 0 5.27614 0 5V4ZM2 2C2 1.72386 1.77614 1.5 1.5 1.5H0.5C0.223858 1.5 0 1.72386 0 2C0 2.27614 0.223858 2.5 0.5 2.5H1.5C1.77614 2.5 2 2.27614 2 2ZM4.5 1.5C4.77614 1.5 5 1.72386 5 2C5 2.27614 4.77614 2.5 4.5 2.5H3.5C3.22386 2.5 3 2.27614 3 2C3 1.72386 3.22386 1.5 3.5 1.5H4.5ZM8 2C8 1.72386 7.77614 1.5 7.5 1.5H6.5C6.22386 1.5 6 1.72386 6 2C6 2.27614 6.22386 2.5 6.5 2.5H7.5C7.77614 2.5 8 2.27614 8 2ZM10.5 1.5C10.7761 1.5 11 1.72386 11 2C11 2.27614 10.7761 2.5 10.5 2.5H9.5C9.22386 2.5 9 2.27614 9 2C9 1.72386 9.22386 1.5 9.5 1.5H10.5ZM13.6464 3.64645C13.8417 3.45118 14.1583 3.45118 14.3536 3.64645C14.5271 3.82001 14.5464 4.08944 14.4114 4.28431L14.3536 4.35355L13.4431 5.26397C14.3136 5.92026 15.1659 6.8321 16 7.99951C14.0952 10.6665 12.0952 12 10 12C9.36845 12 8.74553 11.8788 8.13124 11.6365L8.91871 10.8491C9.2212 10.934 9.52449 10.9829 9.82864 10.9963L9.99985 11C11.5417 11 13.0615 10.0897 14.5633 8.20909L14.7267 7.99925L14.5633 7.79026C13.9547 7.02844 13.3432 6.42589 12.7285 5.9786L9.5432 9.1639C9.6847 9.21948 9.83879 9.25 10 9.25C10.3495 9.25 10.6654 9.1066 10.8922 8.87544L10.8923 8.87543L12.2071 7.56064C12.2353 7.70274 12.25 7.84965 12.25 8C12.25 9.24264 11.2426 10.25 10 10.25C9.55973 10.25 9.14899 10.1235 8.80213 9.90498L6.35355 12.3536C6.15829 12.5488 5.84171 12.5488 5.64645 12.3536C5.47288 12.18 5.4536 11.9106 5.58859 11.7157L5.64645 11.6464L6.55687 10.736C5.68637 10.0797 4.83408 9.1679 4 8.00049C5.90478 5.3335 7.90478 4 10 4C10.6316 4 11.2545 4.12116 11.8688 4.36347L11.0812 5.15101C10.7787 5.06602 10.4753 5.01708 10.1711 5.00375L9.99985 5C8.45797 5 6.9382 5.91034 5.43638 7.79091L5.27231 8L5.43637 8.20974C6.04502 8.97163 6.6566 9.57423 7.27137 10.0215L10.4568 6.8361C10.3153 6.78052 10.1612 6.75 10 6.75C9.64993 6.75 9.33346 6.89391 9.10654 7.12579L9.10643 7.1258L7.79287 8.43936C7.76475 8.29726 7.75 8.15035 7.75 8C7.75 6.75736 8.75736 5.75 10 5.75C10.4403 5.75 10.851 5.87645 11.1979 6.09502L13.6464 3.64645Z" fill="#242424"/>
</svg>
