<svg width="16" height="16" viewBox="0 0 16 16" fill="none" xmlns="http://www.w3.org/2000/svg">
<path fill-rule="evenodd" clip-rule="evenodd" d="M1.5 1C1.22386 1 1 1.22386 1 1.5V2.36667C1 2.64281 0.776142 2.86667 0.5 2.86667C0.223858 2.86667 0 2.64281 0 2.36667V1.5C0 0.671573 0.671573 0 1.5 0H2.36667C2.64281 0 2.86667 0.223858 2.86667 0.5C2.86667 0.776142 2.64281 1 2.36667 1H1.5ZM4.46667 0.5C4.46667 0.223858 4.69052 0 4.96667 0H6.7C6.97614 0 7.2 0.223858 7.2 0.5C7.2 0.776142 6.97614 1 6.7 1H4.96667C4.69052 1 4.46667 0.776142 4.46667 0.5ZM8.8 0.5C8.8 0.223858 9.02386 0 9.3 0H11.0333C11.3095 0 11.5333 0.223858 11.5333 0.5C11.5333 0.776142 11.3095 1 11.0333 1H9.3C9.02386 1 8.8 0.776142 8.8 0.5ZM13.1333 0.5C13.1333 0.223858 13.3572 0 13.6333 0H14.5C15.3284 0 16 0.671573 16 1.5V2.36667C16 2.64281 15.7761 2.86667 15.5 2.86667C15.2239 2.86667 15 2.64281 15 2.36667V1.5C15 1.22386 14.7761 1 14.5 1H13.6333C13.3572 1 13.1333 0.776142 13.1333 0.5ZM15.5 4.46667C15.7761 4.46667 16 4.69052 16 4.96667V6.7C16 6.97614 15.7761 7.2 15.5 7.2C15.2239 7.2 15 6.97614 15 6.7V4.96667C15 4.69052 15.2239 4.46667 15.5 4.46667ZM0.5 4.46667C0.776142 4.46667 1 4.69052 1 4.96667V6.7C1 6.97614 0.776142 7.2 0.5 7.2C0.223858 7.2 0 6.97614 0 6.7V4.96667C0 4.69052 0.223858 4.46667 0.5 4.46667ZM0.5 8.8C0.776142 8.8 1 9.02386 1 9.3V11.0333C1 11.3095 0.776142 11.5333 0.5 11.5333C0.223858 11.5333 0 11.3095 0 11.0333V9.3C0 9.02386 0.223858 8.8 0.5 8.8ZM0.5 13.1333C0.776142 13.1333 1 13.3572 1 13.6333V14.5C1 14.7761 1.22386 15 1.5 15H2.36667C2.64281 15 2.86667 15.2239 2.86667 15.5C2.86667 15.7761 2.64281 16 2.36667 16H1.5C0.671573 16 0 15.3284 0 14.5V13.6333C0 13.3572 0.223858 13.1333 0.5 13.1333ZM4.46667 15.5C4.46667 15.2239 4.69052 15 4.96667 15H6.7C6.97614 15 7.2 15.2239 7.2 15.5C7.2 15.7761 6.97614 16 6.7 16H4.96667C4.69052 16 4.46667 15.7761 4.46667 15.5ZM8.79999 15.5C8.79999 15.2239 9.02385 15 9.29999 15H11.0333C11.3095 15 11.5333 15.2239 11.5333 15.5C11.5333 15.7761 11.3095 16 11.0333 16H9.29999C9.02385 16 8.79999 15.7761 8.79999 15.5ZM15.5 8.79999C15.7761 8.79999 16 9.02385 16 9.29999V11.0333C16 11.3095 15.7761 11.5333 15.5 11.5333C15.2239 11.5333 15 11.3095 15 11.0333V9.29999C15 9.02385 15.2239 8.79999 15.5 8.79999ZM8 6H11C12.1046 6 13 6.89543 13 8V11C13 12.1046 12.1046 13 11 13H8C6.89543 13 6 12.1046 6 11V8C6 6.89543 6.89543 6 8 6ZM8 7C7.44772 7 7 7.44772 7 8V11C7 11.5523 7.44772 12 8 12H11C11.5523 12 12 11.5523 12 11V8C12 7.44772 11.5523 7 11 7H8ZM5 3H8C9.10457 3 10 3.89543 10 5H9C9 4.44772 8.55228 4 8 4H5C4.44772 4 4 4.44772 4 5V8C4 8.55228 4.44772 9 5 9V10C3.89543 10 3 9.10457 3 8V5C3 3.89543 3.89543 3 5 3Z" fill="#242424"/>
</svg>
