<svg width="16" height="16" fill="none" viewBox="0 0 16 16">
  <path fill="#242424" d="M2.492.41A.5.5 0 0 0 1.5.5v15l.008.09a.5.5 0 0 0 .992-.09V4.309L8.038 1.54l5.182 1.727-1.636 2.456-.043.077a.5.5 0 0 0 .011.424l1.46 2.919-4.854-1.617-.096-.022a.5.5 0 0 0-.286.049l-4 2-.077.047a.5.5 0 0 0-.147.624l.048.076a.5.5 0 0 0 .623.147L8.038 8.54l5.803 1.934.084.02a.5.5 0 0 0 .522-.718l-1.87-3.74 1.839-2.759.042-.077a.5.5 0 0 0-.3-.674l-6-2-.096-.022a.5.5 0 0 0-.286.049L2.5 3.19V.5L2.492.41Z"/>
</svg>
