<svg width="16" height="16" viewBox="0 0 16 16" fill="none" xmlns="http://www.w3.org/2000/svg">
<path fill-rule="evenodd" clip-rule="evenodd" d="M2.49193 0.410124C2.4496 0.176875 2.24545 0 1.99999 0C1.72385 0 1.49999 0.223858 1.49999 0.5V3.98994C1.49984 3.99689 1.49984 4.00386 1.49999 4.01083V15.5L1.50804 15.5899C1.55038 15.8231 1.75453 16 1.99999 16C2.27613 16 2.49999 15.7761 2.49999 15.5V4.30902L8.03799 1.54L13.22 3.267L11.584 5.72265L11.5415 5.80045C11.483 5.93482 11.4859 6.08987 11.5528 6.22361L13.012 9.143L8.1581 7.52566L8.06206 7.50387C7.96481 7.4917 7.86534 7.50831 7.77638 7.55279L3.77638 9.55279L3.6996 9.60019C3.5099 9.74236 3.443 10.0041 3.55277 10.2236L3.60017 10.3004C3.74235 10.4901 4.00405 10.557 4.22359 10.4472L8.03799 8.54L13.8419 10.4743L13.9257 10.4949C14.3128 10.5567 14.6331 10.1483 14.4472 9.77639L12.577 6.036L14.416 3.27735L14.4583 3.20036C14.5741 2.93742 14.4424 2.62044 14.1581 2.52566L8.1581 0.525658L8.06206 0.503866C7.96481 0.4917 7.86534 0.508308 7.77638 0.552786L2.49999 3.19098V0.5L2.49193 0.410124Z" fill="#242424"/>
</svg>
