<svg width="16" height="16" viewBox="0 0 16 16" fill="none" xmlns="http://www.w3.org/2000/svg">
<path fill-rule="evenodd" clip-rule="evenodd" d="M6.25 1.75C6.25 0.783502 7.0335 0 8 0C8.9665 0 9.75 0.783502 9.75 1.75C9.75 2.7165 8.9665 3.5 8 3.5C7.0335 3.5 6.25 2.7165 6.25 1.75ZM8.75 1.75C8.75 1.33579 8.41421 1 8 1C7.58579 1 7.25 1.33579 7.25 1.75C7.25 2.16421 7.58579 2.5 8 2.5C8.41421 2.5 8.75 2.16421 8.75 1.75Z" fill="black"/>
<path d="M8 4.25C9.32548 4.25 10.41 5.28154 10.4947 6.58562L10.5 6.75V7.75C10.5 8.02614 10.2761 8.25 10 8.25C9.75454 8.25 9.55039 8.07312 9.50806 7.83988L9.5 7.75V6.75C9.5 5.92157 8.82843 5.25 8 5.25C7.2203 5.25 6.57955 5.84489 6.50687 6.60554L6.5 6.75V7.25H8C8.24546 7.25 8.44961 7.42688 8.49194 7.66012L8.5 7.75C8.5 7.99546 8.32312 8.19961 8.08988 8.24194L8 8.25H5.5V6.75C5.5 5.36929 6.61929 4.25 8 4.25Z" fill="black"/>
<path fill-rule="evenodd" clip-rule="evenodd" d="M1.5 4C0.671573 4 0 3.32843 0 2.5C0 1.67157 0.671573 1 1.5 1C2.32843 1 3 1.67157 3 2.5C3 2.60865 2.98845 2.71461 2.9665 2.81671L3.36598 3.03648C3.43995 2.92103 3.51811 2.80853 3.60025 2.6992C3.76612 2.47843 4.07956 2.43392 4.30034 2.59979C4.52111 2.76567 4.56562 3.0791 4.39975 3.29988C3.83466 4.052 3.5 4.98621 3.5 6.00003C3.5 8.48531 5.51472 10.5 8 10.5C10.4853 10.5 12.5 8.48531 12.5 6.00003C12.5 4.98621 12.1653 4.052 11.6003 3.29988C11.4344 3.0791 11.4789 2.76567 11.6997 2.59979C11.9204 2.43392 12.2339 2.47843 12.3997 2.6992C12.9964 3.4934 13.3833 4.45494 13.4776 5.5H14.1338C14.3067 5.2011 14.6299 5 15 5C15.5523 5 16 5.44772 16 6C16 6.55228 15.5523 7 15 7C14.6299 7 14.3067 6.7989 14.1338 6.5H13.4776C13.3286 8.15311 12.4482 9.59531 11.1625 10.5005L12.221 12.1574C12.4604 12.056 12.7237 12 13 12C14.1046 12 15 12.8954 15 14C15 15.1046 14.1046 16 13 16C11.8954 16 11 15.1046 11 14C11 13.5353 11.1585 13.1075 11.4244 12.768L10.2948 10.9999C9.59639 11.321 8.8191 11.5 8 11.5C6.64079 11.5 5.39673 11.007 4.43693 10.19L2.83294 11.8114C2.9397 12.0176 3 12.2518 3 12.5C3 13.3284 2.32843 14 1.5 14C0.671573 14 0 13.3284 0 12.5C0 11.6716 0.671573 11 1.5 11C1.71481 11 1.91908 11.0452 2.10383 11.1265L3.73706 9.47554C2.96377 8.5282 2.5 7.31827 2.5 6.00003C2.5 5.26597 2.64401 4.56505 2.90528 3.92438L2.44045 3.66864C2.1832 3.87592 1.85609 4 1.5 4ZM14 14C14 14.5523 13.5523 15 13 15C12.4477 15 12 14.5523 12 14C12 13.4477 12.4477 13 13 13C13.5523 13 14 13.4477 14 14ZM1.5 3C1.22386 3 1 2.77614 1 2.5C1 2.22386 1.22386 2 1.5 2C1.77614 2 2 2.22386 2 2.5C2 2.77614 1.77614 3 1.5 3ZM1.5 13C1.22386 13 1 12.7761 1 12.5C1 12.2239 1.22386 12 1.5 12C1.77614 12 2 12.2239 2 12.5C2 12.7761 1.77614 13 1.5 13Z" fill="black"/>
</svg>
