<svg width="16" height="16" viewBox="0 0 16 16" fill="none" xmlns="http://www.w3.org/2000/svg">
<path fill-rule="evenodd" clip-rule="evenodd" d="M5.56249 5.81993C5.69778 5.99549 5.85006 6.15455 6.01924 6.29715C5.8342 6.4777 5.64043 6.69469 5.48379 6.93676C5.2038 7.36946 5.03745 7.89074 5.26432 8.42825C5.37816 8.69799 5.63891 8.94605 5.95867 9.15482C6.27973 9.36444 6.66644 9.53847 7.04125 9.65766L8.39576 10.0888C8.88859 10.2502 9.27068 10.5165 9.54471 10.8868C9.81902 11.2678 9.95658 11.7091 9.95658 12.2126C9.95658 12.7969 9.77494 13.244 9.41653 13.5612C9.05696 13.8793 8.55834 14.0414 7.91437 14.0414C7.28225 14.0414 6.78397 13.8598 6.41387 13.5011C6.14257 13.2381 5.80795 12.5554 6.36586 11.7938C6.48729 11.6281 6.45884 11.3875 6.26986 11.2775L6.01832 11.1312C5.81477 11.0128 5.53859 11.0431 5.39727 11.2364C4.96459 11.8284 4.88983 12.4526 4.98879 12.991C5.08745 13.5278 5.35892 13.9808 5.62181 14.2352C6.18507 14.78 6.94622 15.05 7.89931 15.05C8.53774 15.05 9.09797 14.9306 9.5778 14.6903C10.0475 14.4501 10.4109 14.1099 10.6668 13.6702C10.923 13.2402 11.05 12.728 11.05 12.1356C11.05 11.3868 10.8465 10.7345 10.4382 10.1809L10.4375 10.1801C10.3022 10.0045 10.15 9.84548 9.98078 9.70288C10.1658 9.52233 10.3596 9.30533 10.5162 9.06326C10.7962 8.63056 10.9626 8.10929 10.7357 7.57177C10.6219 7.30204 10.3611 7.05398 10.0414 6.8452C9.72029 6.63558 9.33359 6.46156 8.95877 6.34236L7.60433 5.91124C7.11144 5.74983 6.72932 5.48351 6.45528 5.11313C6.18099 4.73216 6.04344 4.29089 6.04344 3.78741C6.04344 3.20312 6.22509 2.756 6.5835 2.43886C6.94307 2.12068 7.44169 1.95861 8.08566 1.95861C8.71777 1.95861 9.21606 2.14018 9.58616 2.49891C9.85745 2.76188 10.1921 3.44463 9.63416 4.20618C9.51273 4.37193 9.54119 4.61255 9.73017 4.72248L9.98171 4.86881C10.1853 4.98722 10.4614 4.95697 10.6028 4.76361C11.0354 4.17161 11.1102 3.54742 11.0112 3.00898C10.9126 2.47218 10.6411 2.01918 10.3782 1.76487C9.81495 1.22002 9.05381 0.950012 8.10071 0.950012C7.46229 0.950012 6.90205 1.06946 6.42223 1.3097C5.95254 1.54997 5.5891 1.89013 5.33322 2.32984C5.07701 2.75985 4.95001 3.27206 4.95001 3.86441C4.95001 4.61324 5.15352 5.26556 5.56184 5.8191L5.56249 5.81993ZM9.85682 8.88603C9.7856 9.05612 9.67062 9.22839 9.5219 9.38018C9.27351 9.23522 8.99823 9.11621 8.69675 9.02323L7.34251 8.59216L7.34149 8.59186C6.82915 8.44065 6.43246 8.16941 6.14858 7.77882C6.03176 7.61808 6.03414 7.37449 6.14321 7.114C6.21442 6.9439 6.32941 6.77163 6.47813 6.61985C6.72652 6.76481 7.00179 6.88381 7.30328 6.97679L8.65751 7.40787L8.65853 7.40817C9.17087 7.55937 9.56757 7.83062 9.85144 8.22121C9.96826 8.38194 9.96588 8.62554 9.85682 8.88603Z" fill="#242424"/>
</svg>
