<svg width="16" height="16" viewBox="0 0 16 16" fill="none" xmlns="http://www.w3.org/2000/svg">
<path fill-rule="evenodd" clip-rule="evenodd" d="M0.476892 5.26764C0.240375 5.43658 0.100006 5.70934 0.100006 6V15C0.100006 15.4971 0.50295 15.9 1.00001 15.9H15C15.4971 15.9 15.9 15.4971 15.9 15V6C15.9 5.70934 15.7596 5.43658 15.5231 5.26764L14.4 4.46541V3C14.4 2.50294 13.9971 2.1 13.5 2.1H11.0884L8.52312 0.267638C8.21019 0.0441185 7.78982 0.0441185 7.47689 0.267638L4.91158 2.1H2.50001C2.00295 2.1 1.60001 2.50294 1.60001 3V4.46541L0.476892 5.26764ZM13.5 3.82255V4.92857V6L7.99998 10L2.50001 6V3H13.5V3.82255ZM15 6L14.4 5.57142V6C14.4 6.27341 14.2757 6.53199 14.0622 6.70278L8.5622 10.7028C8.23351 10.9657 7.76645 10.9657 7.43775 10.7028L1.93778 6.70278C1.72429 6.53199 1.60001 6.27341 1.60001 6V5.57143L1.00001 6V15H15V6ZM8.00001 0.999998L9.54001 2.1H6.46L8.00001 0.999998ZM5.35355 11.3536C5.54882 11.1583 5.54882 10.8417 5.35355 10.6464C5.15829 10.4512 4.84171 10.4512 4.64645 10.6464L2.14645 13.1464C1.95118 13.3417 1.95118 13.6583 2.14645 13.8536C2.34171 14.0488 2.65829 14.0488 2.85355 13.8536L5.35355 11.3536ZM10.6464 10.6464C10.4512 10.8417 10.4512 11.1583 10.6464 11.3536L13.1464 13.8536C13.3417 14.0488 13.6583 14.0488 13.8536 13.8536C14.0488 13.6583 14.0488 13.3417 13.8536 13.1464L11.3536 10.6464C11.1583 10.4512 10.8417 10.4512 10.6464 10.6464ZM4.55001 4.5C4.30148 4.5 4.10001 4.70147 4.10001 4.95C4.10001 5.19853 4.30148 5.4 4.55001 5.4H11.55C11.7985 5.4 12 5.19853 12 4.95C12 4.70147 11.7985 4.5 11.55 4.5H4.55001ZM5.95001 6.5C5.70148 6.5 5.50001 6.70147 5.50001 6.95C5.50001 7.19853 5.70148 7.4 5.95001 7.4H10C10.2485 7.4 10.45 7.19853 10.45 6.95C10.45 6.70147 10.2485 6.5 10 6.5H5.95001Z" fill="#242424"/>
</svg>
