<svg width="18" height="16" fill="none" viewBox="0 0 18 16">
  <path fill="#242424" fill-rule="evenodd" d="M15.387 3.716a.427.427 0 0 0-.603-.067L9 8.309l-5.784-4.66a.427.427 0 0 0-.536.666L9 9.406l6.32-5.09a.427.427 0 0 0 .067-.6ZM11.978 8.86a.427.427 0 0 1 .606 0l2.803 2.822a.427.427 0 1 1-.606.602L11.978 9.46a.427.427 0 0 1 0-.602Zm-5.955 0a.427.427 0 0 0-.606 0l-2.804 2.822a.427.427 0 1 0 .606.602L6.023 9.46a.427.427 0 0 0 0-.602Z M16.588 2a.5.5 0 0 1 .5.5v11a.5.5 0 0 1-.5.5H1.413a.5.5 0 0 1-.5-.5v-11a.5.5 0 0 1 .5-.5h15.175Zm-.351.857H1.764v10.286h14.473V2.857Z" clip-rule="evenodd"/>
</svg>