<svg width="17" height="16" viewBox="0 0 17 16" fill="none" xmlns="http://www.w3.org/2000/svg">
<path fill-rule="evenodd" clip-rule="evenodd" d="M16.5 2C16.7762 2 17 2.22386 17 2.5V13.5C17 13.7761 16.7762 14 16.5 14H1.32477C1.04862 14 0.824768 13.7761 0.824768 13.5V2.5C0.824768 2.22386 1.04863 2 1.32477 2H16.5ZM16.1487 2.85713H1.67609V13.1428H16.1487V2.85713ZM15.2991 3.71649C15.1516 3.5308 14.8811 3.50074 14.6964 3.6495L8.91242 8.30771L3.12846 3.6495C2.94374 3.50074 2.67323 3.5308 2.52569 3.71649C2.37952 3.90045 2.40923 4.1679 2.59222 4.31529L8.91242 9.40598L15.2326 4.31529C15.4156 4.16791 15.4453 3.90045 15.2991 3.71649ZM11.89 8.8592C12.057 8.69103 12.3291 8.69103 12.4961 8.8592L15.2994 11.6817C15.4649 11.8482 15.4649 12.1171 15.2994 12.2836C15.1324 12.4518 14.8604 12.4518 14.6933 12.2836L11.89 9.46117C11.7246 9.29461 11.7246 9.02576 11.89 8.8592ZM5.9348 8.8592C5.76777 8.69103 5.49575 8.69103 5.32872 8.8592L2.52538 11.6817C2.35995 11.8482 2.35995 12.1171 2.52538 12.2836C2.69241 12.4518 2.96443 12.4518 3.13146 12.2836L5.9348 9.46117C6.10023 9.29461 6.10023 9.02576 5.9348 8.8592Z" fill="#242424"/>
</svg>
