<svg xmlns="http://www.w3.org/2000/svg" width="16" height="16" viewBox="0 0 16 16"><path fill="#0F0F0F" fill-rule="evenodd" d="M8.6469478,3.14744899 C8.82051415,2.97388263 9.08993855,2.95459748 9.28480669,3.08959354 L9.35405458,3.14744899 L11.3540546,5.14744899 C11.5493167,5.34271113 11.5493167,5.65929362 11.3540546,5.85455577 C11.1804882,6.02812212 10.9110638,6.04740727 10.7161957,5.91241122 L10.6469478,5.85455577 L8.6469478,3.85455577 C8.45168565,3.65929362 8.45168565,3.34271113 8.6469478,3.14744899 Z M7.49354607,1.41497035 L7.50050119,1.50100238 L7.50050119,14 L13.5,14 C13.7761424,14 14,14.2238576 14,14.5 C14,14.7761424 13.7761424,15 13.5,15 L7.01081882,15.000898 C7.00738798,15.0009675 7.00394866,15.0010024 7.00050119,15.0010024 C6.81640627,15.0010024 6.65554902,14.9015101 6.56876585,14.753362 C6.52487307,14.6782855 6.5,14.5920475 6.5,14.5 L6.50050119,14.489 L6.50050119,2.70800238 L3.35405458,5.85455577 C3.18048823,6.02812212 2.91106383,6.04740727 2.71619569,5.91241122 L2.6469478,5.85455577 C2.47338145,5.68098942 2.4540963,5.41156501 2.58909235,5.21669687 L2.6469478,5.14744899 L6.6469478,1.14744899 C6.9409314,0.853465385 7.42968545,1.0281969 7.49354607,1.41497035 Z"/></svg>