<svg width="16" height="16" viewBox="0 0 16 16" fill="none" xmlns="http://www.w3.org/2000/svg">
<path fill-rule="evenodd" clip-rule="evenodd" d="M7.49353 1.41497L7.50049 1.501V14H13.5C13.7761 14 14 14.2239 14 14.5C14 14.7761 13.7761 15 13.5 15L7.01081 15.0009C7.00738 15.001 7.00394 15.001 7.00049 15.001C6.81639 15.001 6.65554 14.9015 6.56875 14.7534C6.52486 14.6783 6.49999 14.592 6.49999 14.5L6.50049 14.489V2.708L3.35404 5.85456C3.18048 6.02812 2.91105 6.04741 2.71618 5.91241L2.64693 5.85456C2.47337 5.68099 2.45408 5.41156 2.58908 5.2167L2.64693 5.14745L6.64693 1.14745C6.94092 0.853465 7.42967 1.0282 7.49353 1.41497ZM9.28479 3.08959L9.35404 3.14745L11.354 5.14745C11.5493 5.34271 11.5493 5.65929 11.354 5.85456C11.1805 6.02812 10.9111 6.04741 10.7162 5.91241L10.6469 5.85456L8.64693 3.85456C8.45167 3.65929 8.45167 3.34271 8.64693 3.14745C8.8205 2.97388 9.08993 2.9546 9.28479 3.08959Z" fill="#242424"/>
</svg>
