<svg width="16" height="16" viewBox="0 0 16 16" fill="none" xmlns="http://www.w3.org/2000/svg">
<path fill-rule="evenodd" clip-rule="evenodd" d="M8 1.37258C9.83011 -0.457528 12.7973 -0.457528 14.6274 1.37258C16.4052 3.1504 16.456 6.00126 14.7798 7.8404L14.6274 8L14.2592 8.36819C14.0559 8.57154 13.7262 8.57154 13.5228 8.36819C13.3421 8.18744 13.322 7.90686 13.4626 7.70392L13.5228 7.63181L13.891 7.26362C15.3145 5.8402 15.3145 3.53238 13.891 2.10896C12.5151 0.732991 10.3127 0.687125 8.8816 1.97137L8.73638 2.10896L5.42267 5.42267C5.21933 5.62602 4.88964 5.62602 4.68629 5.42267C4.50554 5.24192 4.48546 4.96134 4.62604 4.75841L4.68629 4.68629L8 1.37258ZM1.74077 7.63181C1.94412 7.42846 2.27381 7.42846 2.47715 7.63181C2.6579 7.81256 2.67799 8.09314 2.5374 8.29607L2.47715 8.36819L2.10896 8.73638C0.685543 10.1598 0.685543 12.4676 2.10896 13.891C3.48493 15.267 5.68733 15.3129 7.1184 14.0286L7.26362 13.891L10.5773 10.5773C10.7807 10.374 11.1104 10.374 11.3137 10.5773C11.4945 10.7581 11.5145 11.0387 11.374 11.2416L11.3137 11.3137L8 14.6274C6.16989 16.4575 3.20269 16.4575 1.37258 14.6274C-0.405239 12.8496 -0.456034 9.99874 1.2202 8.1596L1.37258 8L1.74077 7.63181ZM10.5773 4.68629C10.7807 4.48295 11.1104 4.48295 11.3137 4.68629C11.4945 4.86704 11.5145 5.14762 11.374 5.35056L11.3137 5.42267L5.42267 11.3137C5.21933 11.5171 4.88964 11.5171 4.68629 11.3137C4.50554 11.133 4.48546 10.8524 4.62604 10.6494L4.68629 10.5773L10.5773 4.68629Z" fill="#242424"/>
</svg>
