<svg width="16" height="16" fill="none" viewBox="0 0 16 16">
  <path fill="#242424" fill-rule="evenodd" d="M8 1.374a4.686 4.686 0 0 1 6.78 6.467l-.153.16-.368.368a.52.52 0 0 1-.796-.664l.06-.072.368-.368a3.645 3.645 0 0 0-5.01-5.293l-.145.138-3.313 3.314a.52.52 0 0 1-.797-.665l.06-.072L8 1.374ZM1.74 7.633a.52.52 0 0 1 .797.664l-.06.072-.368.368a3.645 3.645 0 0 0 5.01 5.293l.145-.138 1.313-1.314a.52.52 0 0 1 .797.665l-.06.072L8 14.628a4.686 4.686 0 0 1-6.78-6.467L1.373 8l.368-.368Zm8.837-2.946a.52.52 0 0 1 .797.665l-.06.072-5.891 5.89a.52.52 0 0 1-.797-.664l.06-.072 5.891-5.89Zm5.028 6.71a.496.496 0 0 1 0 .7l-1.403 1.404 1.403 1.403a.496.496 0 0 1-.702.702L13.5 14.202l-1.402 1.404a.496.496 0 0 1-.702-.702l1.403-1.404-1.403-1.402a.496.496 0 1 1 .702-.702L13.5 12.8l1.403-1.403a.496.496 0 0 1 .702 0Z" clip-rule="evenodd"/>
</svg>
