<svg width="16" height="16" viewBox="0 0 16 16" fill="none" xmlns="http://www.w3.org/2000/svg">
<path fill-rule="evenodd" clip-rule="evenodd" d="M6.87662 2.20061L6.93934 2.19672L13.3033 2.19672C13.3411 2.19672 13.378 2.20092 13.4134 2.20888L13.4979 2.23601L13.5573 2.26597L13.6021 2.29572L13.678 2.36565L13.7273 2.43155L13.7611 2.49532L13.7841 2.55911L13.8027 2.67113L13.8033 9.06068C13.8033 9.33682 13.5794 9.56068 13.3033 9.56068C13.0484 9.56068 12.8381 9.36994 12.8072 9.1234L12.8033 9.06068L12.802 3.90516L3.05025 13.6569C2.85499 13.8521 2.53841 13.8521 2.34315 13.6569C2.14789 13.4616 2.14789 13.145 2.34315 12.9498L12.0963 3.19664L6.93934 3.19672C6.68444 3.19672 6.47409 3.00597 6.44324 2.75944L6.43934 2.69672C6.43934 2.44182 6.63008 2.23147 6.87662 2.20061Z" fill="#242424"/>
</svg>
