<svg width="16" height="16" fill="none" viewBox="0 0 16 16">
  <path fill="#242424" fill-rule="evenodd" d="M8 1.373a4.686 4.686 0 0 1 6.78 6.467l-.152.16-.368.368a.52.52 0 0 1-.797-.664l.06-.072.368-.368A3.645 3.645 0 0 0 8.882 1.97l-.145.138-3.314 3.314a.52.52 0 0 1-.797-.665l.06-.072L8 1.373ZM1.741 7.632a.52.52 0 0 1 .797.664l-.06.072-.369.368a3.645 3.645 0 0 0 5.01 5.293l.145-.138 3.314-3.314a.52.52 0 0 1 .796.665l-.06.072L8 14.627A4.686 4.686 0 0 1 1.22 8.16L1.374 8l.368-.368Zm8.837-2.946a.52.52 0 0 1 .796.665l-.06.072-5.891 5.89a.52.52 0 0 1-.797-.664l.06-.072 5.892-5.89Z" clip-rule="evenodd"/>
</svg>
