<svg width="16" height="16" viewBox="0 0 16 16" fill="none" xmlns="http://www.w3.org/2000/svg">
<path fill-rule="evenodd" clip-rule="evenodd" d="M1.5 5.5C2.32843 5.5 3 4.82843 3 4C3 3.17157 2.32843 2.5 1.5 2.5C0.671573 2.5 0 3.17157 0 4C0 4.82843 0.671573 5.5 1.5 5.5ZM4.5 3.5H15.5C15.7761 3.5 16 3.72386 16 4C16 4.27614 15.7761 4.5 15.5 4.5H4.5C4.22386 4.5 4 4.27614 4 4C4 3.72386 4.22386 3.5 4.5 3.5ZM1.5 9.5C2.32843 9.5 3 8.82843 3 8C3 7.17157 2.32843 6.5 1.5 6.5C0.671573 6.5 0 7.17157 0 8C0 8.82843 0.671573 9.5 1.5 9.5ZM4.5 7.5H15.5C15.7761 7.5 16 7.72386 16 8C16 8.27614 15.7761 8.5 15.5 8.5H4.5C4.22386 8.5 4 8.27614 4 8C4 7.72386 4.22386 7.5 4.5 7.5ZM3 12C3 12.8284 2.32843 13.5 1.5 13.5C0.671573 13.5 0 12.8284 0 12C0 11.1716 0.671573 10.5 1.5 10.5C2.32843 10.5 3 11.1716 3 12ZM10.5 11.5H4.5C4.22386 11.5 4 11.7239 4 12C4 12.2761 4.22386 12.5 4.5 12.5H10.5C10.7761 12.5 11 12.2761 11 12C11 11.7239 10.7761 11.5 10.5 11.5Z" fill="#242424"/>
</svg>
