<svg xmlns="http://www.w3.org/2000/svg" width="16" height="16" viewBox="0 0 16 16"><path fill="#242424" fill-rule="evenodd" d="M8,0 C8.27614237,1.69088438e-17 8.5,0.223857625 8.5,0.5 L8.50021177,1.01769234 C10.5133003,1.16047508 12.3457807,2.1601344 13.5619482,3.74918298 C13.7297791,3.96847139 13.6880645,4.28229358 13.4687761,4.45012447 C13.2494877,4.61795536 12.9356655,4.5762408 12.7678346,4.35695239 C11.7391427,3.01286009 10.1982271,2.16132655 8.50057467,2.02066725 L8.5,2.5 C8.5,2.77614237 8.27614237,3 8,3 C7.72385763,3 7.5,2.77614237 7.5,2.5 L7.50009733,2.02052886 C4.58545439,2.26093454 2.26149415,4.58458865 2.02061151,7.49909633 L2.5,7.5 C2.77614237,7.5 3,7.72385763 3,8 C3,8.27614237 2.77614237,8.5 2.5,8.5 L2.02052886,8.49990267 C2.26096206,11.4148793 4.58512071,13.7390379 7.50009733,13.9794711 L7.5,13.5 C7.5,13.2238576 7.72385763,13 8,13 C8.27614237,13 8.5,13.2238576 8.5,13.5 L8.50090367,13.9793885 C11.4150777,13.7385334 13.7385334,11.4150777 13.9793885,8.50090367 L13.5,8.5 C13.2238576,8.5 13,8.27614237 13,8 C13,7.72385763 13.2238576,7.5 13.5,7.5 L15.5,7.5 C15.7761424,7.5 16,7.72385763 16,8 C16,8.27614237 15.7761424,8.5 15.5,8.5 L14.9823903,8.50039243 C14.7375005,11.9675652 11.9675652,14.7375005 8.50039243,14.9823903 L8.5,15.5 C8.5,15.7761424 8.27614237,16 8,16 C7.72385763,16 7.5,15.7761424 7.5,15.5 L7.50061334,14.9824612 C4.0326352,14.7380125 1.26198751,11.9673648 1.01753877,8.49938666 L0.5,8.5 C0.223857625,8.5 3.38176876e-17,8.27614237 0,8 C-3.38176876e-17,7.72385763 0.223857625,7.5 0.5,7.5 L1.01760973,7.49960757 C1.26252322,4.03209953 4.03297047,1.26196388 7.50061334,1.01753877 L7.5,0.5 C7.5,0.223857625 7.72385763,-1.69088438e-17 8,0 Z"/></svg>