<svg width="16" height="16" viewBox="0 0 16 16" fill="none" xmlns="http://www.w3.org/2000/svg">
<path fill-rule="evenodd" clip-rule="evenodd" d="M8.5 0.5C8.5 0.223858 8.27614 0 8 0C7.72386 0 7.5 0.223858 7.5 0.5V1.01758C4.03251 1.2623 1.2623 4.03251 1.01758 7.5H0.5C0.223858 7.5 0 7.72386 0 8C0 8.27614 0.223858 8.5 0.5 8.5H1.01758C1.2623 11.9675 4.03251 14.7377 7.5 14.9824V15.5C7.5 15.7761 7.72386 16 8 16C8.27614 16 8.5 15.7761 8.5 15.5V14.9824C11.9675 14.7377 14.7377 11.9675 14.9824 8.5H15.5C15.7761 8.5 16 8.27614 16 8C16 7.72386 15.7761 7.5 15.5 7.5H14.5H13.5C13.2239 7.5 13 7.72386 13 8C13 8.27614 13.2239 8.5 13.5 8.5H13.9795C13.739 11.4149 11.4149 13.739 8.5 13.9795V13.5C8.5 13.2239 8.27614 13 8 13C7.72386 13 7.5 13.2239 7.5 13.5V13.9795C4.5851 13.739 2.26101 11.4149 2.02054 8.5H2.5C2.77614 8.5 3 8.27614 3 8C3 7.72386 2.77614 7.5 2.5 7.5H2.02054C2.26101 4.5851 4.5851 2.26101 7.5 2.02054V2.5C7.5 2.77614 7.72386 3 8 3C8.27614 3 8.5 2.77614 8.5 2.5V2.02062C10.1979 2.16113 11.739 3.01271 12.7678 4.35695C12.9357 4.57624 13.2495 4.61796 13.4688 4.45012C13.6881 4.28229 13.7298 3.96847 13.5619 3.74918C12.3457 2.16008 10.5132 1.16041 8.5 1.01768V0.5Z" fill="#242424"/>
</svg>
