<svg width="16" height="16" fill="none" viewBox="0 0 16 16">
  <path fill="#242424" d="M8.5.5a.5.5 0 0 0-1 0v.518A7.001 7.001 0 0 0 1.018 7.5H.5a.5.5 0 0 0 0 1h.518A7.001 7.001 0 0 0 7.5 14.982v.518a.5.5 0 0 0 1 0v-.518A7.001 7.001 0 0 0 14.982 8.5h.518a.5.5 0 1 0 0-1h-2a.5.5 0 0 0 0 1h.48a6.002 6.002 0 0 1-5.48 5.48v-.48a.5.5 0 0 0-1 0v.48A6.001 6.001 0 0 1 2.02 8.5h.48a.5.5 0 0 0 0-1h-.48A6.001 6.001 0 0 1 7.5 2.02v.48a.5.5 0 0 0 1 0v-.48a5.988 5.988 0 0 1 4.268 2.337.5.5 0 1 0 .794-.608A6.988 6.988 0 0 0 8.5 1.018V.5Z"/>
</svg>
