<svg width="16" height="16" viewBox="0 0 16 16" fill="none" xmlns="http://www.w3.org/2000/svg">
<path fill-rule="evenodd" clip-rule="evenodd" d="M8 0C11.0376 0 13.5 2.46243 13.5 5.5C13.5 5.77614 13.2761 6 13 6C12.7239 6 12.5 5.77614 12.5 5.5C12.5 3.01472 10.4853 1 8 1C5.51472 1 3.5 3.01472 3.5 5.5C3.5 6.35205 3.91057 7.59854 4.73173 9.22608L5.02066 9.78268C5.07135 9.8778 5.12331 9.97408 5.17653 10.0715L5.51108 10.6703C5.56937 10.7724 5.62893 10.8757 5.68976 10.9801L6.06993 11.6208L6.48052 12.2892L6.92152 12.9853L7.39294 13.7089L7.991 14.603L8.87629 13.2441L9.42865 12.3795L9.90944 11.6117L10.3186 10.941L10.5514 10.5479L10.7524 10.198L10.9173 9.89898C11.0481 9.65579 11.3513 9.56469 11.5945 9.6955C11.8377 9.82632 11.9288 10.1295 11.798 10.3727L11.633 10.6721L11.3323 11.193L10.9676 11.7999L10.5388 12.4931L10.2173 13.0032L9.28871 14.447L8.41718 15.7756C8.22197 16.0711 7.78988 16.0756 7.5886 15.7842L7.05336 15.0011L6.54785 14.2445L6.07208 13.5143C5.99526 13.3948 5.91968 13.2764 5.84534 13.1591L5.41417 12.4684C5.06725 11.9037 4.7513 11.3663 4.46633 10.8558L4.13923 10.2563C3.04642 8.203 2.5 6.62407 2.5 5.5C2.5 2.46243 4.96243 0 8 0ZM8 2.5C9.38071 2.5 10.5 3.61929 10.5 5C10.5 6.38071 9.38071 7.5 8 7.5C6.61929 7.5 5.5 6.38071 5.5 5C5.5 4.72386 5.72386 4.5 6 4.5C6.27614 4.5 6.5 4.72386 6.5 5C6.5 5.82843 7.17157 6.5 8 6.5C8.82843 6.5 9.5 5.82843 9.5 5C9.5 4.17157 8.82843 3.5 8 3.5C7.72386 3.5 7.5 3.27614 7.5 3C7.5 2.72386 7.72386 2.5 8 2.5Z" fill="#242424"/>
</svg>
