<svg width="16" height="16" fill="none" viewBox="0 0 16 16">
  <path fill="#242424" fill-rule="evenodd" d="M8 .001a5.5 5.5 0 0 1 5.5 5.5.5.5 0 0 1-1 0 4.5 4.5 0 1 0-9 0c0 .852.41 2.099 1.232 3.726l.289.557c.05.095.102.191.156.288l.334.6.179.31.38.64.41.668.442.696.47.724.599.894.885-1.359.553-.864.48-.768.41-.671.232-.393.201-.35.165-.299a.5.5 0 1 1 .881.474l-.165.3-.3.52-.365.607-.43.693-.32.51-.93 1.444-.87 1.329a.5.5 0 0 1-.83.008l-.535-.783-.505-.757-.476-.73-.227-.355-.43-.69a44.916 44.916 0 0 1-.949-1.613l-.327-.6C3.046 8.204 2.5 6.625 2.5 5.501A5.5 5.5 0 0 1 8 .001Zm0 2.5a2.5 2.5 0 1 1-2.5 2.5.5.5 0 1 1 1 0 1.5 1.5 0 1 0 1.5-1.5.5.5 0 0 1 0-1Z" clip-rule="evenodd"/>
</svg>
