<svg width="16" height="16" viewBox="0 0 16 16" fill="none" xmlns="http://www.w3.org/2000/svg">
<path fill-rule="evenodd" clip-rule="evenodd" d="M8 0C5.51472 0 3.5 2.01472 3.5 4.5L3.50806 4.58988C3.55039 4.82313 3.75454 5 4 5C4.27614 5 4.5 4.77614 4.5 4.5L4.50518 4.30796C4.60487 2.46428 6.13144 1 8 1C9.933 1 11.5 2.567 11.5 4.5L11.5081 4.58988C11.5504 4.82312 11.7545 5 12 5C12.2761 5 12.5 4.77614 12.5 4.5L12.4951 4.28816C12.3845 1.90124 10.4143 0 8 0ZM2.41012 6.00806C2.17688 6.05039 2 6.25454 2 6.5V15.5L2.00806 15.5899C2.05039 15.8231 2.25454 16 2.5 16H13.5L13.5899 15.9919C13.8231 15.9496 14 15.7455 14 15.5V6.5L13.9919 6.41012C13.9496 6.17688 13.7455 6 13.5 6L13.4101 6.00806C13.1769 6.05039 13 6.25454 13 6.5V15H3V7H10.5L10.5899 6.99194C10.8231 6.94961 11 6.74546 11 6.5C11 6.22386 10.7761 6 10.5 6H2.5L2.41012 6.00806Z" fill="#242424"/>
</svg>
