<svg width="16" height="16" viewBox="0 0 16 16" fill="none" xmlns="http://www.w3.org/2000/svg">
<path fill-rule="evenodd" clip-rule="evenodd" d="M13.5 0C13.7455 0 13.9496 0.176875 13.9919 0.410124L14 0.5V15.5C14 15.7455 13.8231 15.9496 13.5899 15.9919L13.5 16H2.5C2.25454 16 2.05039 15.8231 2.00806 15.5899L2 15.5V10.5C2 10.2239 2.22386 10 2.5 10C2.74546 10 2.94961 10.1769 2.99194 10.4101L3 10.5V15H13V1H3V5C3 5.24546 2.82312 5.44961 2.58988 5.49194L2.5 5.5C2.25454 5.5 2.05039 5.32312 2.00806 5.08988L2 5V0.5C2 0.25454 2.17688 0.0503916 2.41012 0.00805567L2.5 0H13.5ZM8.85382 7.85329C8.85364 7.85346 8.85347 7.85364 8.8533 7.85381L6.85355 9.85355C6.65829 10.0488 6.34171 10.0488 6.14645 9.85355C5.97288 9.67999 5.9536 9.41056 6.08859 9.21569L6.14645 9.14645L7.29297 8H1.5C1.22386 8 1 7.77614 1 7.5C1 7.25454 1.17688 7.05039 1.41012 7.00806L1.5 7H7.29297L6.14645 5.85355C5.97288 5.67999 5.9536 5.41056 6.08859 5.21569L6.14645 5.14645C6.32001 4.97288 6.58944 4.9536 6.78431 5.08859L6.85355 5.14645L8.8532 7.14609C8.85343 7.14633 8.85367 7.14657 8.85391 7.1468L9.20711 7.5L8.85382 7.85329Z" fill="#242424"/>
</svg>
