<svg xmlns="http://www.w3.org/2000/svg" width="16" height="16" viewBox="0 0 16 16"><path fill="#242424" fill-rule="evenodd" d="M13.5,0 C13.7454599,0 13.9496084,0.176875161 13.9919443,0.410124368 L14,0.5 L14,15.5 C14,15.7454599 13.8231248,15.9496084 13.5898756,15.9919443 L13.5,16 L2.5,16 C2.25454011,16 2.05039163,15.8231248 2.00805567,15.5898756 L2,15.5 L2,10.5 C2,10.2238576 2.22385763,10 2.5,10 C2.74545989,10 2.94960837,10.1768752 2.99194433,10.4101244 L3,10.5 L3,15 L13,15 L13,1 L3,1 L3,5 C3,5.24545989 2.82312484,5.44960837 2.58987563,5.49194433 L2.5,5.5 C2.25454011,5.5 2.05039163,5.32312484 2.00805567,5.08987563 L2,5 L2,0.5 C2,0.254540111 2.17687516,0.0503916296 2.41012437,0.00805566941 L2.5,0 L13.5,0 Z M6.7843055,5.08859116 L6.85355339,5.14644661 L9.20710678,7.5 L6.85355339,9.85355339 C6.65829124,10.0488155 6.34170876,10.0488155 6.14644661,9.85355339 C5.97288026,9.67998704 5.95359511,9.41056264 6.08859116,9.2156945 L6.14644661,9.14644661 L7.292,8 L1.5,8 C1.22385763,8 1,7.77614237 1,7.5 C1,7.25454011 1.17687516,7.05039163 1.41012437,7.00805567 L1.5,7 L7.292,7 L6.14644661,5.85355339 C5.97288026,5.67998704 5.95359511,5.41056264 6.08859116,5.2156945 L6.14644661,5.14644661 C6.32001296,4.97288026 6.58943736,4.95359511 6.7843055,5.08859116 Z"/></svg>