<svg width="16" height="16" fill="none" viewBox="0 0 16 16">
  <path fill="#242424" d="M11.21 2.091c.164.076.324.157.48.245l-.74.74A5.414 5.414 0 0 0 10.793 3a.5.5 0 0 1 .417-.909Zm2.685 2.283-.723.723a5.5 5.5 0 0 1-2.379 7.905.5.5 0 0 0 .417.909 6.5 6.5 0 0 0 2.685-9.537Z m12.007 6.262-.736.736c.146.303.227.645.227 1.003 0 .875-.483 1.652-1.215 2.005a.5.5 0 1 0 .434.9c1.08-.52 1.781-1.648 1.781-2.905 0-.633-.177-1.232-.491-1.739ZM9 2.001v3.025l-1 1V3.207L4.854 6.355a.5.5 0 0 1-.275.14L4.5 6.5H2v3h2.525l-1 1H1.5a.5.5 0 0 1-.492-.41L1 10V6a.5.5 0 0 1 .41-.492L1.5 5.5h2.792l3.854-3.854a.5.5 0 0 1 .847.268L9 2.001Zm0 7.268-1 1v2.525l-.856-.856-.07-.058a.5.5 0 0 0-.637.765l1.71 1.71.065.056A.5.5 0 0 0 9 14V9.269Zm5-7.122a.5.5 0 0 0-.707 0L2 13.44a.5.5 0 1 0 .707.707L14 2.855a.5.5 0 0 0 0-.708Z"/>
</svg>
