<svg width="16" height="16" viewBox="0 0 16 16" fill="none" xmlns="http://www.w3.org/2000/svg">
<path fill-rule="evenodd" clip-rule="evenodd" d="M11.2102 2.09041C11.3743 2.16576 11.5343 2.24747 11.69 2.3352L10.9505 3.07461C10.8985 3.04868 10.8459 3.02351 10.7928 2.99914C10.5419 2.88388 10.4319 2.58702 10.5472 2.33608C10.6624 2.08514 10.9593 1.97515 11.2102 2.09041ZM13.8949 4.37292L13.1718 5.096C13.7011 5.94723 14 6.94645 14 8.00003C14 10.1707 12.7312 12.1106 10.7928 13.0009C10.5419 13.1162 10.4319 13.413 10.5472 13.664C10.6624 13.9149 10.9593 14.0249 11.2102 13.9096C13.5005 12.8577 15 10.565 15 8.00003C15 6.67352 14.5989 5.41983 13.8949 4.37292ZM12.0065 6.26134L11.2711 6.99669C11.4173 7.29983 11.4985 7.64175 11.4985 8.00003C11.4985 8.87454 11.0148 9.65164 10.2827 10.005C10.034 10.125 9.92968 10.4239 10.0497 10.6726C10.1697 10.9213 10.4686 11.0256 10.7173 10.9056C11.7964 10.3848 12.4985 9.25688 12.4985 8.00003C12.4985 7.36748 12.3207 6.76761 12.0065 6.26134ZM9 2.00003V5.02515L8 6.02515V3.20603L4.85355 6.35358C4.77854 6.42859 4.68214 6.47731 4.57869 6.4938L4.5 6.50003H2V9.50003H4.5C4.50823 9.50003 4.51641 9.50022 4.52453 9.50062L3.52513 10.5H1.5C1.25454 10.5 1.05039 10.3232 1.00806 10.0899L1 10V6.00003C1 5.75457 1.17688 5.55042 1.41012 5.50808L1.5 5.50003H4.292L8.14645 1.64647C8.44043 1.35249 8.92918 1.52722 8.99304 1.91399L9 2.00003ZM9 9.26779L8 10.2678V12.793L7.14382 11.9367L7.07457 11.8789C6.87971 11.7439 6.61028 11.7632 6.43671 11.9367C6.24145 12.132 6.24145 12.4486 6.43671 12.6438L8.14645 14.3536L8.2122 14.4095C8.53084 14.6378 9 14.4158 9 14V9.26779ZM14 2.14647C13.8047 1.95121 13.4882 1.95121 13.2929 2.14647L2 13.4394C1.80474 13.6346 1.80474 13.9512 2 14.1465C2.19526 14.3417 2.51184 14.3417 2.70711 14.1465L14 2.85358C14.1953 2.65832 14.1953 2.34173 14 2.14647Z" fill="#242424"/>
</svg>
