<svg xmlns="http://www.w3.org/2000/svg" width="16" height="16" viewBox="0 0 16 16"><path fill="#242424" fill-rule="evenodd" d="M10.2430449,1.91396798 L10.25,2 L10.25,14 C10.25,14.4157556 9.78084485,14.6378031 9.46219845,14.4094692 L9.39644661,14.3535534 L7.68671455,12.6438213 C7.49145241,12.4485592 7.49145241,12.1319767 7.68671455,11.9367146 C7.86028091,11.7631482 8.12970531,11.7438631 8.32457345,11.8788591 L8.39382133,11.9367146 L9.25,12.793 L9.25,3.206 L6.10355339,6.35355339 C6.02853884,6.42856794 5.93214268,6.47728504 5.82868937,6.4937713 L5.75,6.5 L3.25,6.5 L3.25,9.5 L5.75,9.5 C5.99545989,9.5 6.19960837,9.67687516 6.24194433,9.91012437 L6.25,10 C6.25,10.2454599 6.07312484,10.4496084 5.83987563,10.4919443 L5.75,10.5 L2.75,10.5 C2.50454011,10.5 2.30039163,10.3231248 2.25805567,10.0898756 L2.25,10 L2.25,6 C2.25,5.75454011 2.42687516,5.55039163 2.66012437,5.50805567 L2.75,5.5 L5.542,5.5 L9.39644661,1.64644661 C9.69043021,1.35246301 10.1791843,1.52719453 10.2430449,1.91396798 Z M11.967328,5.09444727 C13.0464477,5.6152642 13.7484682,6.74314534 13.7484682,8 C13.7484682,9.25685466 13.0464477,10.3847358 11.967328,10.9055527 C11.7186352,11.0255797 11.4197287,10.9212754 11.2997017,10.6725825 C11.1796748,10.4238896 11.2839791,10.1249832 11.532672,10.0049562 C12.2647803,9.65161782 12.7484682,8.87451446 12.7484682,8 C12.7484682,7.12548554 12.2647803,6.34838218 11.532672,5.99504381 C11.2839791,5.87501685 11.1796748,5.57611038 11.2997017,5.32741751 C11.4197287,5.07872465 11.7186352,4.97442032 11.967328,5.09444727 Z"/></svg>