<svg xmlns="http://www.w3.org/2000/svg" width="16" height="16" viewBox="0 0 16 16"><path fill="#242424" fill-rule="evenodd" d="M9,9.26699762 L9,14 C9,14.4157556 8.53084485,14.6378031 8.21219845,14.4094692 L8.14644661,14.3535534 L6.43671455,12.6438213 C6.24145241,12.4485592 6.24145241,12.1319767 6.43671455,11.9367146 C6.61028091,11.7631482 6.87970531,11.7438631 7.07457345,11.8788591 L7.14382133,11.9367146 L8,12.793 L8,10.2669976 L9,9.26699762 Z M14,2.14644661 C14.1952621,2.34170876 14.1952621,2.65829124 14,2.85355339 L2.70710678,14.1464466 C2.51184464,14.3417088 2.19526215,14.3417088 2,14.1464466 C1.80473785,13.9511845 1.80473785,13.634602 2,13.4393398 L13.2928932,2.14644661 C13.4881554,1.95118446 13.8047379,1.95118446 14,2.14644661 Z M15,8 C15,10.5649709 13.5004974,12.8576796 11.2102249,13.9096191 C10.9592863,14.0248771 10.6624252,13.9148862 10.5471672,13.6639475 C10.4319092,13.4130089 10.5419001,13.1161479 10.7928387,13.0008899 C12.7312336,12.1105705 14,10.1706527 14,8 C14,6.9465399 13.7011611,5.94742594 13.1719705,5.09626221 L13.8952155,4.3734065 C14.5990774,5.42021108 15,6.67370812 15,8 Z M12.4984682,8 C12.4984682,9.25685466 11.7964477,10.3847358 10.717328,10.9055527 C10.4686352,11.0255797 10.1697287,10.9212754 10.0497017,10.6725825 C9.92967478,10.4238896 10.0339791,10.1249832 10.282672,10.0049562 C11.0147803,9.65161782 11.4984682,8.87451446 11.4984682,8 C11.4984682,7.64180846 11.4173232,7.29995892 11.2711993,6.99687644 L12.006279,6.26103658 C12.3205914,6.76736077 12.4984682,7.36734084 12.4984682,8 Z M8.99304488,1.91396798 L9,2 L9,5.02499762 L8,6.02499762 L8,3.206 L4.85355339,6.35355339 C4.77853884,6.42856794 4.68214268,6.47728504 4.57868937,6.4937713 L4.5,6.5 L2,6.5 L2,9.5 L4.5,9.5 L4.522,9.50199762 L3.524,10.4999976 L1.5,10.5 C1.25454011,10.5 1.05039163,10.3231248 1.00805567,10.0898756 L1,10 L1,6 C1,5.75454011 1.17687516,5.55039163 1.41012437,5.50805567 L1.5,5.5 L4.292,5.5 L8.14644661,1.64644661 C8.44043021,1.35246301 8.92918427,1.52719453 8.99304488,1.91396798 Z M11.2102249,2.09038093 C11.3745781,2.16586959 11.5348591,2.24774785 11.6908059,2.33565778 L10.9510734,3.07485037 C10.8988422,3.04882272 10.8460932,3.02357032 10.7928387,2.99911015 C10.5419001,2.88385214 10.4319092,2.5869911 10.5471672,2.33605245 C10.6624252,2.08511381 10.9592863,1.97512292 11.2102249,2.09038093 Z"/></svg>