<svg width="16" height="16" fill="none" viewBox="0 0 16 16">
  <path fill="#242424" d="M10.244 1.915a.5.5 0 0 0-.847-.268L5.543 5.501H2.75l-.09.008a.5.5 0 0 0-.41.492v4l.008.09a.5.5 0 0 0 .492.41h3l.09-.008A.5.5 0 0 0 6.25 10l-.008-.09a.5.5 0 0 0-.492-.41h-2.5v-3h2.5l.078-.006a.5.5 0 0 0 .275-.14L9.25 3.206v9.587l-.856-.856-.07-.058a.5.5 0 0 0-.638.765l1.71 1.71.066.056a.5.5 0 0 0 .788-.41V2l-.007-.086Zm1.724 3.18a.5.5 0 0 0-.435.901c.732.353 1.216 1.13 1.216 2.005s-.484 1.652-1.216 2.005a.5.5 0 1 0 .435.9c1.08-.52 1.781-1.648 1.781-2.905s-.702-2.385-1.78-2.906Z"/>
</svg>
