<svg width="16" height="16" fill="none" viewBox="0 0 16 16">
  <path fill="#242424" d="M8.146 1.647a.5.5 0 0 1 .847.268L9 2.001v12a.5.5 0 0 1-.788.41l-.066-.056-1.71-1.71a.5.5 0 0 1 .639-.765l.069.058.856.856V3.207L4.854 6.355a.5.5 0 0 1-.275.14L4.5 6.5H2v3h2.5a.5.5 0 0 1 .492.41L5 10a.5.5 0 0 1-.41.492l-.09.008h-3a.5.5 0 0 1-.492-.41L1 10V6a.5.5 0 0 1 .41-.492L1.5 5.5h2.792l3.854-3.854Zm2.401.69a.5.5 0 0 1 .663-.246A6.5 6.5 0 0 1 15 8.001a6.5 6.5 0 0 1-3.79 5.91.5.5 0 1 1-.417-.91 5.5 5.5 0 0 0 0-10.002.5.5 0 0 1-.246-.662Z M10.717 5.095a.5.5 0 1 0-.434.901c.732.353 1.216 1.13 1.216 2.005s-.484 1.652-1.216 2.005a.5.5 0 1 0 .434.9c1.08-.52 1.781-1.648 1.781-2.905s-.702-2.385-1.78-2.906Z"/>
</svg>
