<svg width="16" height="16" viewBox="0 0 16 16" fill="none" xmlns="http://www.w3.org/2000/svg">
<path fill-rule="evenodd" clip-rule="evenodd" d="M8.14645 1.64647C8.44043 1.35249 8.92918 1.52722 8.99304 1.91399L9 2.00003V14C9 14.4158 8.53084 14.6378 8.2122 14.4095L8.14645 14.3536L6.43671 12.6438C6.24145 12.4486 6.24145 12.132 6.43671 11.9367C6.61028 11.7632 6.87971 11.7439 7.07457 11.8789L7.14382 11.9367L8 12.793V3.20603L4.85355 6.35358C4.77854 6.42859 4.68214 6.47731 4.57869 6.4938L4.5 6.50003H2V9.50003H4.5C4.74546 9.50003 4.94961 9.6769 4.99194 9.91015L5 10C5 10.2455 4.82312 10.4496 4.58988 10.492L4.5 10.5H1.5C1.25454 10.5 1.05039 10.3232 1.00806 10.0899L1 10V6.00003C1 5.75457 1.17688 5.55042 1.41012 5.50808L1.5 5.50003H4.292L8.14645 1.64647ZM10.5472 2.33608C10.6624 2.08514 10.9593 1.97515 11.2102 2.09041C13.5005 3.14235 15 5.43505 15 8.00003C15 10.565 13.5005 12.8577 11.2102 13.9096C10.9593 14.0249 10.6624 13.9149 10.5472 13.664C10.4319 13.413 10.5419 13.1162 10.7928 13.0009C12.7312 12.1106 14 10.1707 14 8.00003C14 5.82937 12.7312 3.88946 10.7928 2.99914C10.5419 2.88388 10.4319 2.58702 10.5472 2.33608ZM10.7173 5.09447C10.4686 4.97445 10.1697 5.07875 10.0497 5.32744C9.92968 5.57614 10.034 5.87504 10.2827 5.99507C11.0148 6.34841 11.4985 7.12551 11.4985 8.00003C11.4985 8.87454 11.0148 9.65164 10.2827 10.005C10.034 10.125 9.92968 10.4239 10.0497 10.6726C10.1697 10.9213 10.4686 11.0256 10.7173 10.9056C11.7964 10.3848 12.4985 9.25688 12.4985 8.00003C12.4985 6.74317 11.7964 5.61529 10.7173 5.09447Z" fill="#242424"/>
</svg>
