<svg width="16" height="16" viewBox="0 0 16 16" fill="none" xmlns="http://www.w3.org/2000/svg">
<path fill-rule="evenodd" clip-rule="evenodd" d="M10.243 1.91399C10.1792 1.52722 9.69043 1.35249 9.39645 1.64647L5.542 5.50003H2.75L2.66012 5.50808C2.42688 5.55042 2.25 5.75457 2.25 6.00003V10L2.25806 10.0899C2.30039 10.3232 2.50454 10.5 2.75 10.5H5.75L5.83988 10.492C6.07312 10.4496 6.25 10.2455 6.25 10L6.24194 9.91015C6.19961 9.6769 5.99546 9.50003 5.75 9.50003H3.25V6.50003H5.75L5.82869 6.4938C5.93214 6.47731 6.02854 6.42859 6.10355 6.35358L9.25 3.20603V12.793L8.39382 11.9367L8.32457 11.8789C8.12971 11.7439 7.86028 11.7632 7.68671 11.9367C7.49145 12.132 7.49145 12.4486 7.68671 12.6438L9.39645 14.3536L9.4622 14.4095C9.78084 14.6378 10.25 14.4158 10.25 14V2.00003L10.243 1.91399ZM11.9673 5.09447C11.7186 4.97445 11.4197 5.07875 11.2997 5.32744C11.1797 5.57614 11.284 5.87504 11.5327 5.99507C12.2648 6.34841 12.7485 7.12551 12.7485 8.00003C12.7485 8.87454 12.2648 9.65164 11.5327 10.005C11.284 10.125 11.1797 10.4239 11.2997 10.6726C11.4197 10.9213 11.7186 11.0256 11.9673 10.9056C13.0464 10.3848 13.7485 9.25688 13.7485 8.00003C13.7485 6.74317 13.0464 5.61529 11.9673 5.09447Z" fill="#242424"/>
</svg>
