<svg width="16" height="16" viewBox="0 0 16 16" fill="none" xmlns="http://www.w3.org/2000/svg">
<path fill-rule="evenodd" clip-rule="evenodd" d="M11.1464 1.64647C11.4404 1.35249 11.9292 1.52722 11.993 1.91399L12 2.00003V14C12 14.4158 11.5308 14.6378 11.2122 14.4095L11.1464 14.3536L9.43671 12.6438C9.24145 12.4486 9.24145 12.132 9.43671 11.9367C9.61028 11.7632 9.87971 11.7439 10.0746 11.8789L10.1438 11.9367L11 12.793V3.20603L7.85355 6.35358C7.77854 6.42859 7.68214 6.47731 7.57869 6.4938L7.5 6.50003H5V9.50003H7.5C7.74546 9.50003 7.94961 9.6769 7.99194 9.91015L8 10C8 10.2455 7.82312 10.4496 7.58988 10.492L7.5 10.5H4.5C4.25454 10.5 4.05039 10.3232 4.00806 10.0899L4 10V6.00003C4 5.75457 4.17688 5.55042 4.41012 5.50808L4.5 5.50003H7.292L11.1464 1.64647Z" fill="#242424"/>
</svg>
