<svg xmlns="http://www.w3.org/2000/svg" width="16" height="16" viewBox="0 0 16 16"><path fill="#242424" fill-rule="evenodd" d="M15.5,2 L15.5898756,2.00805567 C15.8231248,2.05039163 16,2.25454011 16,2.5 L16,2.5 L16,13.5 L15.9919443,13.5898756 C15.9496084,13.8231248 15.7454599,14 15.5,14 L15.5,14 L0.5,14 L0.410124368,13.9919443 C0.176875161,13.9496084 0,13.7454599 0,13.5 L0,13.5 L0,2.5 L0.000261626077,2.48238885 C0.000952766753,2.46226166 0.00285883091,2.44213213 0.00599761938,2.42211597 L0.00805566941,2.41012437 C0.00892729212,2.40532218 0.00986750319,2.40054388 0.010875251,2.39579054 C0.0147627698,2.37731945 0.0198648886,2.35861739 0.0260954189,2.34016047 C0.030405414,2.32738482 0.0351589516,2.31498044 0.0403806115,2.30282469 C0.0456274526,2.29064264 0.0515475302,2.27827051 0.0580186852,2.26608043 C0.0657587054,2.25142511 0.0741451915,2.23735261 0.0831799596,2.22374789 C0.0875478919,2.21724656 0.092084643,2.21074479 0.0967975021,2.20431817 L0.106054671,2.19205666 C0.116836589,2.17828302 0.128325162,2.16508917 0.140465835,2.15252966 L0.0967975021,2.20431817 C0.117308684,2.17634837 0.140180015,2.15113224 0.164936277,2.12874289 C0.178566827,2.11656183 0.192811986,2.10504052 0.207669885,2.09431537 C0.216131313,2.08809162 0.224913374,2.08217797 0.233848477,2.07656535 C0.248746488,2.06726868 0.263984932,2.05874929 0.279687394,2.0510294 C0.289814225,2.0460771 0.300266305,2.0413949 0.31084934,2.03708235 C0.325891242,2.03087116 0.341121641,2.02549088 0.356669657,2.02084671 C0.369658015,2.01707978 0.382775527,2.01373783 0.396000624,2.01093035 C0.42940349,2.00374903 0.464263928,2 0.5,2 L0.435030837,2.00423818 C0.452070563,2.00200273 0.469228432,2.00063989 0.486431832,2.00016085 L0.5,2 L0.518617511,2.0002972 C0.538409295,2.00101664 0.558201473,2.00291114 0.577884029,2.00599762 L0.589875632,2.00805567 C0.594677822,2.00892729 0.599456116,2.0098675 0.604209463,2.01087525 C0.622680554,2.01476277 0.641382606,2.01986489 0.659839535,2.02609542 C0.672615179,2.03040541 0.685019559,2.03515895 0.69717531,2.04038061 C0.704090093,2.04336683 0.711294215,2.04666352 0.718441843,2.05014445 L0.734078704,2.05806458 C0.747489067,2.06518239 0.760536837,2.07289271 0.773187114,2.08116067 L0.795681832,2.0967975 L7.999,7.379 L12.6447692,3.97380011 C12.8427092,3.82864405 13.1119331,3.85055107 13.2840082,4.01360844 L13.3436535,4.08132077 C13.4888096,4.27926085 13.4669025,4.54848475 13.3038452,4.72055979 L13.2361328,4.7802051 L8.29568183,8.4032025 C8.14482858,8.51382821 7.94741243,8.52963189 7.78325549,8.45061352 L7.70431817,8.4032025 L1,3.487 L1,13 L15,13 L15,3 L3.5,3 L3.41012437,2.99194433 C3.17687516,2.94960837 3,2.74545989 3,2.5 C3,2.22385763 3.22385763,2 3.5,2 L3.5,2 L15.5,2 Z"/></svg>