<svg width="16" height="16" viewBox="0 0 16 16" fill="none" xmlns="http://www.w3.org/2000/svg">
    <path d="M15.5 2.12988C15.7759 2.1301 15.9999 2.35393 16 2.62988V13.6299C15.9999 13.9058 15.7759 14.1297 15.5 14.1299H0.5C0.223996 14.1298 0.000133138 13.9059 0 13.6299V2.62988C6.73912e-05 2.35384 0.223955 2.12995 0.5 2.12988H15.5ZM0.841797 13.2725H15.1572V2.9873H0.841797V13.2725ZM4.45215 8.99219C4.61856 8.82304 4.8912 8.82305 5.05762 8.99219C5.21996 9.15743 5.21996 9.42264 5.05762 9.58789L2.28516 12.4102C2.11869 12.5796 1.84517 12.5796 1.67871 12.4102C1.5165 12.2449 1.51641 11.9797 1.67871 11.8145L4.45215 8.99219ZM10.9424 8.99219C11.1088 8.82311 11.3815 8.82298 11.5479 8.99219L14.3213 11.8145C14.4835 11.9796 14.4834 12.2449 14.3213 12.4102C14.1548 12.5796 13.8813 12.5796 13.7148 12.4102L10.9424 9.58789C10.78 9.42264 10.78 9.15743 10.9424 8.99219ZM13.7168 3.7832C13.9012 3.63303 14.1733 3.6627 14.3203 3.84961C14.4638 4.03216 14.4339 4.29675 14.2539 4.44336L8 9.53613L1.74609 4.44336C1.56605 4.29675 1.53621 4.03216 1.67969 3.84961C1.82674 3.66274 2.09878 3.63304 2.2832 3.7832L8 8.4375L13.7168 3.7832Z" fill="#242424"/>
</svg>
