<svg width="16" height="16" fill="none" viewBox="0 0 16 16">
  <path fill="#242424" fill-rule="evenodd" d="M8 .251a2 2 0 0 1 .962 3.754l2.101 2.102 1.047-.699a2 2 0 1 1 2.16 1.325l-.708 6.018H14a.5.5 0 0 1 .492.41l.008.09v2a.5.5 0 0 1-.41.492l-.09.008H2a.5.5 0 0 1-.492-.41l-.008-.09v-2a.5.5 0 0 1 .41-.492l.09-.008h.437l-.708-6.018a2 2 0 1 1 2.16-1.324l1.047.698 2.102-2.102A2 2 0 0 1 8 .25Zm5.5 13.5h-11v1h11v-1ZM8 4.458 5.354 7.105a.5.5 0 0 1-.554.104l-.077-.042-1.39-.926a2 2 0 0 1-.61.375l.72 6.135h9.112l.72-6.135a1.999 1.999 0 0 1-.61-.376l-1.388.927a.5.5 0 0 1-.563-.006l-.068-.056L8 4.458Zm0 4.793.7.7-.7.7-.7-.7.7-.7Zm-3 0 .7.7-.7.7-.7-.7.7-.7Zm6 0 .7.7-.7.7-.7-.7.7-.7Zm-9-5.5a1 1 0 1 0 0 2 1 1 0 0 0 0-2Zm12 0a1 1 0 1 0 0 2 1 1 0 0 0 0-2Zm-6-2.5a1 1 0 1 0 0 2 1 1 0 0 0 0-2Z" clip-rule="evenodd"/>
</svg>