<svg width="16" height="16" viewBox="0 0 16 16" fill="none" xmlns="http://www.w3.org/2000/svg">
<g clip-path="url(#clip0_1249_19502)">
<path fill-rule="evenodd" clip-rule="evenodd" d="M8 0C9.10457 0 10 0.89543 10 2C10 2.75593 9.58062 3.4139 8.96184 3.75396L11.063 5.856L12.1105 5.15717C12.0389 4.95134 12 4.73021 12 4.5C12 3.39543 12.8954 2.5 14 2.5C15.1046 2.5 16 3.39543 16 4.5C16 5.51275 15.2472 6.34969 14.2707 6.48183L13.5618 12.5H14C14.2455 12.5 14.4496 12.6769 14.4919 12.9101L14.5 13V15C14.5 15.2455 14.3231 15.4496 14.0899 15.4919L14 15.5H2C1.75454 15.5 1.55039 15.3231 1.50806 15.0899L1.5 15V13C1.5 12.7545 1.67688 12.5504 1.91012 12.5081L2 12.5H2.43676L1.72927 6.48183C0.752751 6.34969 0 5.51275 0 4.5C0 3.39543 0.89543 2.5 2 2.5C3.10457 2.5 4 3.39543 4 4.5C4 4.73058 3.96098 4.95205 3.88918 5.15817L4.936 5.856L7.03816 3.75396C6.41938 3.4139 6 2.75593 6 2C6 0.89543 6.89543 0 8 0ZM13.5 13.5H2.5V14.5H13.5V13.5ZM8 4.207L5.35355 6.85355C5.20609 7.00102 4.98548 7.03947 4.79978 6.95821L4.72265 6.91603L3.3337 5.99041C3.15584 6.14968 2.9493 6.27758 2.72278 6.36541L3.44376 12.5H12.5548L13.2752 6.36462C13.049 6.27665 12.8428 6.14872 12.6653 5.98949L11.2774 6.91603C11.1038 7.03171 10.88 7.02615 10.7138 6.91005L10.6464 6.85355L8 4.207ZM8 9L8.7 9.7L8 10.4L7.3 9.7L8 9ZM5 9L5.7 9.7L5 10.4L4.3 9.7L5 9ZM11 9L11.7 9.7L11 10.4L10.3 9.7L11 9ZM2 3.5C1.44772 3.5 1 3.94772 1 4.5C1 5.05228 1.44772 5.5 2 5.5C2.55228 5.5 3 5.05228 3 4.5C3 3.94772 2.55228 3.5 2 3.5ZM14 3.5C13.4477 3.5 13 3.94772 13 4.5C13 5.05228 13.4477 5.5 14 5.5C14.5523 5.5 15 5.05228 15 4.5C15 3.94772 14.5523 3.5 14 3.5ZM8 1C7.44772 1 7 1.44772 7 2C7 2.55228 7.44772 3 8 3C8.55229 3 9 2.55228 9 2C9 1.44772 8.55229 1 8 1Z" fill="#242424"/>
</g>
<defs>
<clipPath id="clip0_1249_19502">
<rect width="16" height="16" fill="white"/>
</clipPath>
</defs>
</svg>
