<svg width="16" height="16" fill="none" viewBox="0 0 16 16">
  <path fill="#242424" fill-rule="evenodd" d="M16 4.751a2 2 0 0 1-1.73 1.982l-.708 6.018H14a.5.5 0 0 1 .492.41l.008.09v2a.5.5 0 0 1-.41.492l-.09.008-11.232-.001 1-1 9.732.001v-1l-8.732-.001 1-1 6.787.001.72-6.135a1.999 1.999 0 0 1-.61-.376l-1.165.778 1.686-1.686a1 1 0 0 0 .697.412l.117.007a1 1 0 0 0 .581-1.814l.713-.711c.432.367.706.914.706 1.525Zm-1-3.354a.5.5 0 0 1 0 .708L1.707 15.397A.5.5 0 1 1 1 14.69L14.293 1.397a.5.5 0 0 1 .707 0ZM8 .251a2 2 0 0 1 .962 3.754l.654.654-.707.708L8 4.458 5.354 7.105a.5.5 0 0 1-.554.104l-.077-.042-1.39-.926a2 2 0 0 1-.61.375l.518 4.418-.901.901-.61-5.202a2 2 0 1 1 2.16-1.324l1.046.698 2.102-2.102A2 2 0 0 1 8 .25Zm3 9 .7.7-.7.7-.7-.7.7-.7Zm-9-5.5a1 1 0 1 0 0 2 1 1 0 0 0 0-2Zm6-2.5a1 1 0 1 0 0 2 1 1 0 0 0 0-2Z" clip-rule="evenodd"/>
</svg>