<svg width="16" height="16" viewBox="0 0 16 16" fill="none" xmlns="http://www.w3.org/2000/svg">
<path d="M14.5 1H11.5L11.4101 1.00806C11.1769 1.05039 11 1.25454 11 1.5L11.0081 1.58988C11.0504 1.82312 11.2545 2 11.5 2H13.292L9.14645 6.14645L9.08859 6.21569C8.9536 6.41056 8.97288 6.67999 9.14645 6.85355C9.34171 7.04882 9.65829 7.04882 9.85355 6.85355L13.999 2.707L14 4.5L14.0081 4.58988C14.0504 4.82312 14.2545 5 14.5 5C14.7761 5 15 4.77614 15 4.5V1.5L14.9979 1.45421L14.9834 1.37186L14.9624 1.3094L14.9333 1.25024L14.891 1.18834L14.8536 1.14645L14.8221 1.11758L14.767 1.07719L14.691 1.03779L14.6281 1.01661L14.5534 1.00282L14.5 1Z" fill="#242424"/>
<path d="M1.5 15H4.5L4.58988 14.9919C4.82312 14.9496 5 14.7455 5 14.5L4.99194 14.4101C4.94961 14.1769 4.74546 14 4.5 14H2.708L6.85355 9.85355L6.91141 9.78431C7.0464 9.58944 7.02712 9.32001 6.85355 9.14645C6.65829 8.95118 6.34171 8.95118 6.14645 9.14645L2.001 13.293L2 11.5L1.99194 11.4101C1.94961 11.1769 1.74546 11 1.5 11C1.22386 11 1 11.2239 1 11.5V14.5L1.00209 14.5458L1.01661 14.6281L1.03761 14.6906L1.06675 14.7498L1.10896 14.8117L1.14645 14.8536L1.17786 14.8824L1.23299 14.9228L1.30896 14.9622L1.37185 14.9834L1.44657 14.9972L1.5 15Z" fill="#242424"/>
</svg>
