<svg width="16" height="16" fill="none" viewBox="0 0 16 16">
  <path fill="#242424" d="M14.5 1.001h-3l-.09.008a.5.5 0 0 0-.41.492l.008.09A.5.5 0 0 0 11.5 2h1.792L9.146 6.147l-.057.07a.5.5 0 0 0 .765.638l4.145-4.147L14 4.501l.008.09A.5.5 0 0 0 15 4.5v-3l-.002-.046-.015-.082-.02-.063-.03-.059-.042-.062-.037-.042-.032-.028-.055-.04-.076-.04-.063-.021-.075-.014L14.5 1Zm-13 14h3l.09-.008A.5.5 0 0 0 5 14.5l-.008-.09A.5.5 0 0 0 4.5 14H2.708l4.146-4.146.057-.07a.5.5 0 0 0-.765-.638l-4.145 4.147L2 11.501l-.008-.09a.5.5 0 0 0-.992.09v3l.002.046.015.082.02.063.03.059.042.062.037.041.032.03.055.04.076.04.063.02.075.014.053.003Z"/>
</svg>