<svg width="16" height="16" viewBox="0 0 16 16" fill="none" xmlns="http://www.w3.org/2000/svg">
<path fill-rule="evenodd" clip-rule="evenodd" d="M5 3.5C5 1.84315 6.34315 0.5 8 0.5C9.65685 0.5 11 1.84315 11 3.5V7C11 8.65685 9.65685 10 8 10C6.34315 10 5 8.65685 5 7V3.5ZM8 1.5C6.89543 1.5 6 2.39543 6 3.5V7C6 8.10457 6.89543 9 8 9C9.10457 9 10 8.10457 10 7V3.5C10 2.39543 9.10457 1.5 8 1.5ZM7.50049 12.4776C7.50016 12.485 7.5 12.4925 7.5 12.5V14.5H5L4.91012 14.5081C4.67688 14.5504 4.5 14.7545 4.5 15C4.5 15.2761 4.72386 15.5 5 15.5H11L11.0899 15.4919C11.3231 15.4496 11.5 15.2455 11.5 15C11.5 14.7239 11.2761 14.5 11 14.5H8.5V12.5C8.5 12.4925 8.49984 12.485 8.49951 12.4776C10.5393 12.294 12.2572 10.9967 13.0421 9.20019C13.1527 8.94715 13.0372 8.65239 12.7841 8.54183C12.5311 8.43127 12.2363 8.54677 12.1258 8.79982C11.4309 10.3902 9.84449 11.5 7.99998 11.5C6.15547 11.5 4.56905 10.3902 3.8742 8.79982C3.76364 8.54677 3.46888 8.43127 3.21583 8.54183C2.96279 8.65239 2.84728 8.94715 2.95784 9.20019C3.74279 10.9967 5.46069 12.294 7.50049 12.4776Z" fill="#242424"/>
</svg>
