<svg width="16" height="16" viewBox="0 0 16 16" fill="none" xmlns="http://www.w3.org/2000/svg">
<path fill-rule="evenodd" clip-rule="evenodd" d="M9.5 7H12.5L12.5899 6.99194C12.8231 6.94961 13 6.74546 13 6.5L12.9919 6.41012C12.9496 6.17688 12.7455 6 12.5 6H10.708L14.8536 1.85355L14.9114 1.78431C15.0464 1.58944 15.0271 1.32001 14.8536 1.14645C14.6583 0.951184 14.3417 0.951184 14.1464 1.14645L10.001 5.293L10 3.5L9.99194 3.41012C9.94961 3.17688 9.74546 3 9.5 3C9.22386 3 9 3.22386 9 3.5V6.5L9.00209 6.54579L9.01661 6.62814L9.03761 6.6906L9.06675 6.74976L9.10896 6.81166L9.14645 6.85355L9.17786 6.88242L9.23299 6.92281L9.30896 6.96221L9.37185 6.98339L9.44657 6.99718L9.5 7ZM6.5 9H3.5L3.41012 9.00806C3.17688 9.05039 3 9.25454 3 9.5L3.00806 9.58988C3.05039 9.82312 3.25454 10 3.5 10H5.292L1.14645 14.1464L1.08859 14.2157C0.953595 14.4106 0.97288 14.68 1.14645 14.8536C1.34171 15.0488 1.65829 15.0488 1.85355 14.8536L5.999 10.707L6 12.5L6.00806 12.5899C6.05039 12.8231 6.25454 13 6.5 13C6.77614 13 7 12.7761 7 12.5V9.5L6.99791 9.45421L6.98339 9.37186L6.96239 9.3094L6.93325 9.25023L6.89104 9.18834L6.85355 9.14645L6.82214 9.11758L6.76701 9.07719L6.69104 9.03779L6.62815 9.01661L6.55343 9.00282L6.5 9Z" fill="#242424"/>
</svg>
