<svg width="16" height="16" fill="none" viewBox="0 0 16 16">
  <path fill="#242424" d="M9.5 7.001h3l.09-.008A.5.5 0 0 0 13 6.5l-.008-.09A.5.5 0 0 0 12.5 6h-1.792l4.146-4.146.057-.07a.5.5 0 0 0-.765-.638l-4.145 4.147L10 3.501l-.008-.09a.5.5 0 0 0-.992.09v3l.002.046.015.082.02.063.03.059.042.062.037.042.032.028.055.04.076.04.063.021.075.014.053.003Zm-3 2h-3l-.09.008a.5.5 0 0 0-.41.492l.008.09A.5.5 0 0 0 3.5 10h1.792l-4.146 4.146-.057.07a.5.5 0 0 0 .765.637l4.145-4.146L6 12.501l.008.09A.5.5 0 0 0 7 12.5v-3l-.002-.046-.015-.082-.02-.063-.03-.059-.042-.062-.037-.042-.032-.028-.055-.04-.076-.04-.063-.021-.075-.014L6.5 9Z"/>
</svg>