<svg width="16" height="16" viewBox="0 0 16 16" fill="none" xmlns="http://www.w3.org/2000/svg">
<path fill-rule="evenodd" clip-rule="evenodd" d="M6.5 2C6.5 1.72386 6.72386 1.5 7 1.5H9C9.27614 1.5 9.5 1.72386 9.5 2V4C9.5 4.27614 9.27614 4.5 9 4.5H7C6.72386 4.5 6.5 4.27614 6.5 4V2ZM6.5 7C6.5 6.72386 6.72386 6.5 7 6.5H9C9.27614 6.5 9.5 6.72386 9.5 7V9C9.5 9.27614 9.27614 9.5 9 9.5H7C6.72386 9.5 6.5 9.27614 6.5 9V7ZM7 11.5C6.72386 11.5 6.5 11.7239 6.5 12V14C6.5 14.2761 6.72386 14.5 7 14.5H9C9.27614 14.5 9.5 14.2761 9.5 14V12C9.5 11.7239 9.27614 11.5 9 11.5H7Z" fill="#242424"/>
</svg>
