<svg xmlns="http://www.w3.org/2000/svg" width="16" height="16" viewBox="0 0 16 16"><path fill="#242424" fill-rule="evenodd" d="M9,11.5 C9.27614237,11.5 9.5,11.7238576 9.5,12 L9.5,14 C9.5,14.2761424 9.27614237,14.5 9,14.5 L7,14.5 C6.72385763,14.5 6.5,14.2761424 6.5,14 L6.5,12 C6.5,11.7238576 6.72385763,11.5 7,11.5 L9,11.5 Z M9,6.5 C9.27614237,6.5 9.5,6.72385763 9.5,7 L9.5,9 C9.5,9.27614237 9.27614237,9.5 9,9.5 L7,9.5 C6.72385763,9.5 6.5,9.27614237 6.5,9 L6.5,7 C6.5,6.72385763 6.72385763,6.5 7,6.5 L9,6.5 Z M9,1.5 C9.27614237,1.5 9.5,1.72385763 9.5,2 L9.5,4 C9.5,4.27614237 9.27614237,4.5 9,4.5 L7,4.5 C6.72385763,4.5 6.5,4.27614237 6.5,4 L6.5,2 C6.5,1.72385763 6.72385763,1.5 7,1.5 L9,1.5 Z"/></svg>