<svg width="16" height="16" viewBox="0 0 16 16" fill="none" xmlns="http://www.w3.org/2000/svg">
<path d="M2 9.5C1.72386 9.5 1.5 9.27614 1.5 9V7C1.5 6.72386 1.72386 6.5 2 6.5H4C4.27614 6.5 4.5 6.72386 4.5 7V9C4.5 9.27614 4.27614 9.5 4 9.5H2Z" fill="#242424"/>
<path d="M7 9.5C6.72386 9.5 6.5 9.27614 6.5 9V7C6.5 6.72386 6.72386 6.5 7 6.5H9C9.27614 6.5 9.5 6.72386 9.5 7V9C9.5 9.27614 9.27614 9.5 9 9.5H7Z" fill="#242424"/>
<path d="M11.5 9C11.5 9.27614 11.7239 9.5 12 9.5H14C14.2761 9.5 14.5 9.27614 14.5 9V7C14.5 6.72386 14.2761 6.5 14 6.5H12C11.7239 6.5 11.5 6.72386 11.5 7V9Z" fill="#242424"/>
</svg>
