<svg width="16" height="16" fill="none" viewBox="0 0 16 16">
  <path fill="#242424" d="M10.25.001a.5.5 0 0 1 .293.095l.06.051 1.354 1.354h2.793a.5.5 0 0 1 .492.41l.008.09a.5.5 0 0 1-.41.492l-.09.008h-3a.5.5 0 0 1-.293-.095l-.06-.051L10.042 1H7.456L6.104 2.355a.5.5 0 0 1-.275.14L5.75 2.5h-3a.5.5 0 0 1-.09-.992l.09-.008h2.792L6.896.147a.5.5 0 0 1 .275-.14L7.25.001h3Zm3.5 3.5a.5.5 0 0 1 .492.41l.008.09v9.5a2.5 2.5 0 0 1-2.336 2.495L11.75 16h-6a2.5 2.5 0 0 1-2.495-2.336L3.25 13.5V12a.5.5 0 0 1 .992-.09l.008.09v1.5a1.5 1.5 0 0 0 1.356 1.493L5.75 15h6a1.5 1.5 0 0 0 1.493-1.356l.007-.144V4a.5.5 0 0 1 .5-.5Z M9.242 5.411a.5.5 0 0 0-.992.09v6.5l.008.09A.5.5 0 0 0 9.25 12V5.5l-.008-.09Zm2.008-.41a.5.5 0 0 1 .492.41l.008.09v6.5a.5.5 0 0 1-.992.09L10.75 12V5.5a.5.5 0 0 1 .5-.5ZM4.656 9.912l.072-.057L7.158 7.5l-2.43-2.354a.528.528 0 0 0-.73 0 .489.489 0 0 0-.06.638l.06.07L5.18 7H1.266a.508.508 0 0 0-.516.5c0 .245.183.45.423.492L1.266 8H5.18L3.998 9.147a.489.489 0 0 0-.06.638l.06.07c.18.173.457.192.658.057Z"/>
</svg>
