<svg width="16" height="16" viewBox="0 0 16 16" fill="none" xmlns="http://www.w3.org/2000/svg">
<path fill-rule="evenodd" clip-rule="evenodd" d="M6 6.79C6.24546 6.79 6.44961 6.96688 6.49194 7.20012L6.5 7.29V13.083L7.64645 11.9364C7.82001 11.7629 8.08944 11.7436 8.28431 11.8786L8.35355 11.9364C8.52712 12.11 8.5464 12.3794 8.41141 12.5743L8.35355 12.6436L6 14.9971L3.64645 12.6436C3.45118 12.4483 3.45118 12.1317 3.64645 11.9364C3.82001 11.7629 4.08944 11.7436 4.28431 11.8786L4.35355 11.9364L5.5 13.083V7.29C5.5 7.01386 5.72386 6.79 6 6.79ZM10 1L12.3536 3.35355C12.5488 3.54882 12.5488 3.8654 12.3536 4.06066C12.18 4.23423 11.9106 4.25351 11.7157 4.11852L11.6464 4.06066L10.5 2.91411V8.70711C10.5 8.98325 10.2761 9.20711 10 9.20711C9.75454 9.20711 9.55039 9.03023 9.50806 8.79698L9.5 8.70711V2.91411L8.35355 4.06066C8.17999 4.23423 7.91056 4.25351 7.71569 4.11852L7.64645 4.06066C7.47288 3.88709 7.4536 3.61767 7.58859 3.4228L7.64645 3.35355L10 1Z" fill="#242424"/>
</svg>
