<svg width="16" height="16" viewBox="0 0 16 16" fill="none" xmlns="http://www.w3.org/2000/svg">
<path fill-rule="evenodd" clip-rule="evenodd" d="M3.5 0L9.53959 0.00156876L9.58988 0.00805567L9.65473 0.024544L9.72679 0.0543895L9.75236 0.0682647L9.82214 0.117594L13.8536 4.14645C14.1475 4.44043 13.9728 4.92918 13.586 4.99304L13.5 5H9.5C9.25454 5 9.05039 4.82312 9.00806 4.58988L9 4.5V1H3.5C3.25454 1 3.05039 1.17688 3.00806 1.41012L3 1.5V2V2.5V3C3 3.27614 2.77614 3.5 2.5 3.5C2.22386 3.5 2 3.27614 2 3V2.5V2V1.5C2 0.720304 2.59489 0.0795513 3.35554 0.00686658L3.5 0ZM3 12V14.5C3 14.7455 3.17688 14.9496 3.41012 14.9919L3.5 15H11.5H12H13.5C13.7761 15 14 15.2239 14 15.5C14 15.7761 13.7761 16 13.5 16H12H11.5H3.5C2.7203 16 2.07955 15.4051 2.00687 14.6445L2 14.5V12V11.5V11C2 10.7239 2.22386 10.5 2.5 10.5C2.77614 10.5 3 10.7239 3 11V11.5V12ZM10 4V1.707L12.293 4H10ZM12.9365 7.04147C13.11 6.8679 13.3794 6.84861 13.5743 6.98361L13.6436 7.04147L15.6433 9.04117L15.6439 9.04176L15.9971 9.39502L15.6438 9.74831L15.6434 9.74878L13.6436 11.7486C13.4483 11.9438 13.1317 11.9438 12.9365 11.7486C12.7629 11.575 12.7436 11.3056 12.8786 11.1107L12.9365 11.0415L14.083 9.89502H8.29001C8.01386 9.89502 7.79001 9.67116 7.79001 9.39502C7.79001 9.14956 7.96688 8.94541 8.20013 8.90308L8.29001 8.89502H14.083L12.9365 7.74857C12.7629 7.57501 12.7436 7.30558 12.8786 7.11071L12.9365 7.04147ZM0 6.99854L0.352777 6.64576L0.354328 6.64421L2.35355 4.64498C2.54882 4.44972 2.8654 4.44972 3.06066 4.64498C3.23423 4.81855 3.25351 5.08798 3.11852 5.28284L3.06066 5.35209L1.91414 6.49854H7.70711C7.98325 6.49854 8.20711 6.72239 8.20711 6.99854C8.20711 7.244 8.03023 7.44814 7.79698 7.49048L7.70711 7.49854H1.91414L3.06066 8.64498C3.23423 8.81855 3.25351 9.08797 3.11852 9.28284L3.06066 9.35209C2.88709 9.52566 2.61767 9.54494 2.4228 9.40995L2.35355 9.35209L0 6.99854Z" fill="#242424"/>
</svg>
