<svg width="16" height="16" fill="none" viewBox="0 0 16 16">
  <path fill="#242424" fill-rule="evenodd" d="M6 6.792a.5.5 0 0 1 .492.41l.008.09v5.793l1.146-1.146a.5.5 0 0 1 .638-.058l.07.058a.5.5 0 0 1 .057.638l-.057.069L6 14.999l-2.354-2.353a.5.5 0 0 1 .638-.765l.07.058L5.5 13.085V7.292a.5.5 0 0 1 .5-.5Zm4-5.79 2.354 2.354a.5.5 0 0 1-.638.765l-.07-.058L10.5 2.917V8.71a.5.5 0 0 1-.992.09L9.5 8.71V2.917L8.354 4.063a.5.5 0 0 1-.638.058l-.07-.058a.5.5 0 0 1-.057-.638l.057-.069L10 1.002Z" clip-rule="evenodd"/>
</svg>
