<svg width="16" height="16" fill="none" viewBox="0 0 16 16">
  <path fill="#242424" fill-rule="evenodd" d="m3.501.001 6.04.002.05.006.065.017.072.03.026.013.07.05 4.031 4.028a.5.5 0 0 1-.268.847l-.085.007h-4a.5.5 0 0 1-.492-.41L9 4.5V1H3.5a.5.5 0 0 0-.491.41L3 1.501v1.5a.5.5 0 1 1-1 0v-1.5A1.5 1.5 0 0 1 3.357.008L3.501 0Zm6.5 4V1.708l2.293 2.293h-2.293Z M3.001 14.501a.5.5 0 0 0 .41.492l.09.008h10a.5.5 0 1 1 0 1h-10a1.5 1.5 0 0 1-1.493-1.356l-.007-.144v-3.5a.5.5 0 1 1 1 0v3.5Zm9.937-7.459a.5.5 0 0 1 .638-.057l.069.057 2.354 2.354-2.354 2.353a.5.5 0 0 1-.765-.637l.058-.07 1.146-1.146H8.291a.5.5 0 0 1-.09-.992l.09-.008h5.793L12.938 7.75a.5.5 0 0 1-.058-.638l.058-.07ZM.001 7l2.354-2.354a.5.5 0 0 1 .765.638l-.058.07L1.916 6.5h5.793a.5.5 0 0 1 .09.991l-.09.009H1.916l1.146 1.146a.5.5 0 0 1 .058.638l-.058.07a.5.5 0 0 1-.638.057l-.069-.058L.001 7Z" clip-rule="evenodd"/>
</svg>
