<svg width="16" height="16" viewBox="0 0 16 16" fill="none" xmlns="http://www.w3.org/2000/svg">
<path fill-rule="evenodd" clip-rule="evenodd" d="M9.5 0C9.60609 0 9.7087 0.0337142 9.79351 0.0952092L9.85355 0.146447L11.207 1.5H14C14.2455 1.5 14.4496 1.67688 14.4919 1.91012L14.5 2C14.5 2.24546 14.3231 2.44961 14.0899 2.49194L14 2.5H11C10.8939 2.5 10.7913 2.46629 10.7065 2.40479L10.6464 2.35355L9.293 1H6.706L5.35355 2.35355C5.27854 2.42857 5.18214 2.47729 5.07869 2.49377L5 2.5H2C1.72386 2.5 1.5 2.27614 1.5 2C1.5 1.75454 1.67688 1.55039 1.91012 1.50806L2 1.5H4.792L6.14645 0.146447C6.22146 0.0714321 6.31786 0.022715 6.42131 0.0062287L6.5 0H9.5ZM13 3.5C13.2455 3.5 13.4496 3.67688 13.4919 3.91012L13.5 4V13.5C13.5 14.8255 12.4685 15.91 11.1644 15.9947L11 16H5C3.67452 16 2.58996 14.9685 2.50532 13.6644L2.5 13.5V12C2.5 11.7239 2.72386 11.5 3 11.5C3.24546 11.5 3.44961 11.6769 3.49194 11.9101L3.5 12V13.5C3.5 14.2797 4.09489 14.9204 4.85554 14.9931L5 15H11C11.7797 15 12.4204 14.4051 12.4931 13.6445L12.5 13.5V4C12.5 3.72386 12.7239 3.5 13 3.5ZM8.49194 5.41012C8.44961 5.17688 8.24546 5 8 5C7.72386 5 7.5 5.22386 7.5 5.5V12L7.50806 12.0899C7.55039 12.3231 7.75454 12.5 8 12.5C8.27614 12.5 8.5 12.2761 8.5 12V5.5L8.49194 5.41012ZM10.5 5C10.7455 5 10.9496 5.17688 10.9919 5.41012L11 5.5V12C11 12.2761 10.7761 12.5 10.5 12.5C10.2545 12.5 10.0504 12.3231 10.0081 12.0899L10 12V5.5C10 5.22386 10.2239 5 10.5 5ZM3.90638 9.91141L3.97786 9.85355L6.40734 7.5L3.97786 5.14645C3.7763 4.95118 3.44951 4.95118 3.24794 5.14645C3.06878 5.32001 3.04887 5.58944 3.18822 5.78431L3.24794 5.85355L4.43045 7L0.516129 7C0.231079 7 0 7.22386 0 7.5C0 7.74546 0.18258 7.94961 0.423354 7.99194L0.516129 8L4.43045 8L3.24794 9.14645C3.06878 9.32001 3.04887 9.58944 3.18822 9.78431L3.24794 9.85355C3.42711 10.0271 3.70523 10.0464 3.90638 9.91141Z" fill="#242424"/>
</svg>
