<svg xmlns="http://www.w3.org/2000/svg" width="16" height="16" viewBox="0 0 16 16"><path fill="#242424" fill-rule="evenodd" d="M6,12.2502463 C6,13.3548158 5.1045695,14.2502463 4,14.2502463 C2.8954305,14.2502463 2,13.3548158 2,12.2502463 C2,11.1456768 2.8954305,10.2502463 4,10.2502463 C4.364732,10.2502463 4.70666076,10.3478786 5.0010775,10.5184344 L5,4.2502463 C5,4.04949171 5.11955134,3.87127885 5.29855273,3.79258404 L5.37873219,3.76517505 L13.3787322,1.76517505 C13.6656171,1.69345383 13.9443375,1.88418911 13.992643,2.16385285 L14,2.2502463 L14,10.2502463 C14,11.3548158 13.1045695,12.2502463 12,12.2502463 C10.8954305,12.2502463 10,11.3548158 10,10.2502463 C10,9.1456768 10.8954305,8.2502463 12,8.2502463 C12.364732,8.2502463 12.7066608,8.3478786 13.0010775,8.51843444 L13,2.8902463 L6,4.6402463 Z"/></svg>