<svg width="16" height="16" viewBox="0 0 16 16" fill="none" xmlns="http://www.w3.org/2000/svg">
<path fill-rule="evenodd" clip-rule="evenodd" d="M13.9926 2.16385C13.9443 1.88419 13.6656 1.69345 13.3787 1.76518L5.37873 3.76518L5.29855 3.79258C5.11955 3.87128 5 4.04949 5 4.25025V10.5178C4.70583 10.3476 4.36429 10.2502 4 10.2502C2.89543 10.2502 2 11.1457 2 12.2502C2 13.3548 2.89543 14.2502 4 14.2502C5.10457 14.2502 6 13.3548 6 12.2502V4.64025L13 2.89025V8.51781C12.7058 8.34764 12.3643 8.25025 12 8.25025C10.8954 8.25025 10 9.14568 10 10.2502C10 11.3548 10.8954 12.2502 12 12.2502C13.1046 12.2502 14 11.3548 14 10.2502V2.25025L13.9926 2.16385Z" fill="#242424"/>
</svg>
