<svg width="16" height="16" fill="none" viewBox="0 0 16 16">
  <path fill="#242424" fill-rule="evenodd" d="M.502 3.5h.01a.5.5 0 0 1 .059.005l.02.003a.49.49 0 0 1 .02.004l.036.01c.017.005.033.01.049.017l.013.007.016.007a.5.5 0 0 1 .057.033L6.001 7.26l2.574-1.812a.5.5 0 0 1 .639.052l.058.068a.5.5 0 0 1-.052.639l-.069.058L6.29 8.281a.5.5 0 0 1-.499.045l-.077-.044-4.713-3.318V11.5h10v-1a.5.5 0 0 1 1 0V12l-.007.09a.5.5 0 0 1-.492.41h-11l-.09-.008A.5.5 0 0 1 .002 12V3.958a.497.497 0 0 1 .062-.203l.01-.014a.5.5 0 0 1 .171-.172c.004 0 .007-.002.01-.004a.373.373 0 0 1 .062-.03l.023-.008A.53.53 0 0 1 .502 3.5l-.08.006A.503.503 0 0 1 .49 3.5H.5Zm13.074 2.589.07.057L15.998 8.5l-2.354 2.354a.5.5 0 0 1-.765-.638l.058-.07L14.085 9H8.292a.5.5 0 0 1-.09-.992L8.292 8h5.793l-1.147-1.146a.5.5 0 0 1-.058-.638l.058-.07a.5.5 0 0 1 .638-.057ZM11.502 3.5l.09.008a.5.5 0 0 1 .41.492v2.5a.5.5 0 1 1-1 0v-2h-7.5l-.09-.008a.5.5 0 0 1 .09-.992h8Z" clip-rule="evenodd"/>
</svg>
