<svg width="16" height="16" viewBox="0 0 16 16" fill="none" xmlns="http://www.w3.org/2000/svg">
<path d="M8.5 0.5C8.77614 0.5 9 0.723858 9 1C9 1.27614 8.77614 1.5 8.5 1.5H3C2.72386 1.5 2.5 1.72386 2.5 2V13.5C2.5 14.0523 2.94772 14.5 3.5 14.5H12.4199V2C12.4199 1.72394 12.1961 1.5 11.9199 1.5H11C10.7239 1.5 10.5 1.27614 10.5 1C10.5 0.723858 10.7239 0.5 11 0.5H11.9199C12.7483 0.5 13.4199 1.17149 13.4199 2V6.5H14C14.8285 6.5 15.5 7.17165 15.5 8V12.9199C15.5 14.3448 14.3448 15.5 12.9199 15.5H3.5C2.39543 15.5 1.5 14.6046 1.5 13.5V2C1.5 1.17157 2.17157 0.5 3 0.5H8.5ZM13.4199 14.417C14.0472 14.2076 14.5 13.6176 14.5 12.9199V8C14.5 7.72378 14.2761 7.5 14 7.5H13.4199V14.417ZM10.6006 12.0098C10.8286 12.0563 11 12.2583 11 12.5C11 12.7417 10.8286 12.9437 10.6006 12.9902L10.5 13L4.5 13.0098C4.22386 13.0098 4 12.7859 4 12.5098C4 12.2336 4.22386 12.0098 4.5 12.0098L10.5 12L10.6006 12.0098ZM10.6006 10.0098C10.8286 10.0563 11 10.2583 11 10.5C11 10.7417 10.8286 10.9437 10.6006 10.9902L10.5 11L4.5 11.0098C4.22386 11.0098 4 10.7859 4 10.5098C4 10.2336 4.22386 10.0098 4.5 10.0098L10.5 10L10.6006 10.0098ZM9.10059 8.00977C9.32855 8.05629 9.5 8.25829 9.5 8.5C9.5 8.74171 9.32855 8.94371 9.10059 8.99023L9 9L4.5 9.00977C4.22386 9.00977 4 8.78591 4 8.50977C4 8.23362 4.22386 8.00977 4.5 8.00977L9 8L9.10059 8.00977ZM10.5 2.5C11.0523 2.5 11.5 2.94772 11.5 3.5V5.5C11.5 6.05228 11.0523 6.5 10.5 6.5H4.5C3.98232 6.5 3.55621 6.10667 3.50488 5.60254L3.5 5.5V3.5C3.5 2.94772 3.94772 2.5 4.5 2.5H10.5ZM4.5 5.5H10.5V3.5H4.5V5.5Z" fill="#242424"/>
</svg>
