<svg width="16" height="16" viewBox="0 0 16 16" fill="none" xmlns="http://www.w3.org/2000/svg">
<g clip-path="url(#clip0_1249_19482)">
<path fill-rule="evenodd" clip-rule="evenodd" d="M0.499999 3.5L0.511073 3.50012C0.530429 3.50062 0.5498 3.50224 0.569083 3.505L0.589875 3.50806C0.59647 3.50925 0.603019 3.51058 0.609521 3.51203C0.621224 3.51517 0.633334 3.51841 0.645353 3.52212C0.662376 3.52664 0.678447 3.53247 0.69411 3.53908C0.698259 3.5418 0.702871 3.54385 0.707462 3.54598L0.723282 3.5525C0.743077 3.5624 0.762123 3.57357 0.780313 3.58591L5.999 7.261L8.57361 5.44858C8.77429 5.30724 9.04305 5.33431 9.21196 5.50063L9.2703 5.56947C9.41164 5.77016 9.38458 6.03891 9.21825 6.20783L9.14941 6.26617L6.2879 8.28145C6.13993 8.38566 5.94953 8.40057 5.78941 8.32617L5.71222 8.28153L0.999508 4.964L0.999999 11.5H11V10.5C11 10.2239 11.2239 10 11.5 10C11.7761 10 12 10.2239 12 10.5V12L11.9919 12.0899C11.9496 12.3231 11.7455 12.5 11.5 12.5H0.499999L0.410123 12.4919C0.176874 12.4496 -9.59553e-07 12.2455 -9.59553e-07 12L-0.000492096 3.95788C0.00534478 3.88805 0.0259355 3.81869 0.0621171 3.75463C0.0665218 3.75058 0.0692389 3.74593 0.0720282 3.74132C0.0761661 3.73102 0.0823682 3.72154 0.0889341 3.71222C0.113866 3.67679 0.142561 3.64559 0.174098 3.61878C0.200772 3.59681 0.221562 3.58232 0.243192 3.56954C0.246709 3.56879 0.250023 3.56686 0.253361 3.56496C0.273274 3.55255 0.294056 3.54274 0.315351 3.53442C0.322746 3.53226 0.33044 3.52941 0.338222 3.52675C0.358296 3.51937 0.378798 3.5139 0.399557 3.50975C0.432137 3.50346 0.465664 3.5 0.499999 3.5L0.41979 3.50612C0.442726 3.5025 0.465919 3.50046 0.489188 3.50004L0.499999 3.5ZM13.5743 6.08859L13.6436 6.14645L15.9971 8.5L13.6436 10.8536C13.4483 11.0488 13.1317 11.0488 12.9364 10.8536C12.7629 10.68 12.7436 10.4106 12.8786 10.2157L12.9364 10.1464L14.083 9H8.29C8.01386 9 7.79 8.77614 7.79 8.5C7.79 8.25454 7.96687 8.05039 8.20012 8.00806L8.29 8H14.083L12.9364 6.85355C12.7629 6.67999 12.7436 6.41056 12.8786 6.21569L12.9364 6.14645C13.11 5.97288 13.3794 5.9536 13.5743 6.08859ZM11.5 3.5L11.5899 3.50806C11.8231 3.55039 12 3.75454 12 4V6.5C12 6.77614 11.7761 7 11.5 7C11.2239 7 11 6.77614 11 6.5V4.5H3.5L3.41012 4.49194C3.17687 4.44961 3 4.24546 3 4C3 3.72386 3.22386 3.5 3.5 3.5H11.5Z" fill="#242424"/>
</g>
<defs>
<clipPath id="clip0_1249_19482">
<rect width="16" height="16" fill="white"/>
</clipPath>
</defs>
</svg>
