<svg width="16" height="16" fill="none" viewBox="0 0 16 16">
  <path fill="#242424" fill-rule="evenodd" d="M8 .501a.5.5 0 0 0-.5.5v1.027a4.5 4.5 0 0 0-4 4.473v.82a4.5 4.5 0 0 1-.475 2.012l-.749 1.497a1.5 1.5 0 0 0 1.342 2.171H5.5a2.5 2.5 0 0 0 5 0h1.882a1.5 1.5 0 0 0 1.342-2.17l-.277-.554a.5.5 0 1 0-.894.448l.276.552a.5.5 0 0 1-.447.724H3.618a.5.5 0 0 1-.447-.724l.748-1.497A5.5 5.5 0 0 0 4.5 7.32v-.819a3.5 3.5 0 1 1 7 0v2a.5.5 0 1 0 1 0v-2a4.5 4.5 0 0 0-4-4.473V1.001a.5.5 0 0 0-.5-.5Zm0 14a1.5 1.5 0 0 1-1.5-1.5h3a1.5 1.5 0 0 1-1.5 1.5Z" clip-rule="evenodd"/>
</svg>
