<svg width="16" height="16" viewBox="0 0 16 16" fill="none" xmlns="http://www.w3.org/2000/svg">
<path fill-rule="evenodd" clip-rule="evenodd" d="M8 0.5C7.72386 0.5 7.5 0.723858 7.5 1V2.02746C5.25003 2.27619 3.50001 4.18373 3.50001 6.5V7.31966C3.50001 8.01826 3.33735 8.70727 3.02493 9.33212L2.2764 10.8292C1.77772 11.8265 2.50297 13 3.61804 13H5.5C5.5 14.3807 6.61929 15.5 8 15.5C9.38071 15.5 10.5 14.3807 10.5 13H12.382C13.497 13 14.2223 11.8265 13.7236 10.8292L13.4472 10.2764C13.3237 10.0294 13.0234 9.92929 12.7764 10.0528C12.5294 10.1763 12.4293 10.4766 12.5528 10.7236L12.8292 11.2764C12.9954 11.6088 12.7537 12 12.382 12H3.61804C3.24635 12 3.0046 11.6088 3.17083 11.2764L3.91936 9.77934C4.30121 9.01563 4.50001 8.17351 4.50001 7.31966V6.5C4.50001 4.567 6.06701 3 8.00001 3C9.933 3 11.5 4.567 11.5 6.5V8.5C11.5 8.77614 11.7239 9 12 9C12.2761 9 12.5 8.77614 12.5 8.5V6.5C12.5 4.18372 10.75 2.27618 8.5 2.02746V1C8.5 0.723858 8.27614 0.5 8 0.5ZM8 14.5C7.17157 14.5 6.5 13.8284 6.5 13H9.5C9.5 13.8284 8.82843 14.5 8 14.5Z" fill="#242424"/>
</svg>
