<svg width="16" height="16" fill="none" viewBox="0 0 16 16">
  <path fill="#242424" d="M9.06.249c.262-.448.924-.244.931.236l-.006.093-.912 5.924H11.5a.5.5 0 0 1 .47.672l-.037.078-1.196 2.072-.733-.732.629-1.09H8.914l-.872-.873.557-3.622L7.053 5.64l-.73-.73L9.058.249Zm-.09 10.136.728.729a.5.5 0 0 1-.863-.48l.038-.081.096-.168Zm-.94-.938-.944-.945H5.373l.634-1.08-.73-.73L4.068 8.75l-.038.078a.5.5 0 0 0 .469.675h2.51l-.91 5.924-.007.09a.5.5 0 0 0 .994.062l.944-6.131ZM2 2.002a.5.5 0 0 1 .707 0L14 13.295a.5.5 0 0 1-.707.707L2 2.709a.5.5 0 0 1 0-.707Z"/>
</svg>
