<svg width="16" height="16" viewBox="0 0 16 16" fill="none" xmlns="http://www.w3.org/2000/svg">
<path fill-rule="evenodd" clip-rule="evenodd" d="M9.05921 0.246851C9.32185 -0.200492 9.98405 0.00326064 9.99118 0.482946L9.98458 0.576029L9.07296 6.5H11.5C11.8552 6.5 12.0875 6.855 11.9698 7.1718L11.933 7.24997L10.7366 9.32246L10.0041 8.58997L10.633 7.5H8.91418L8.04179 6.62761L8.59896 3.005L7.05281 5.63863L6.32245 4.90827L9.05921 0.246851ZM8.96936 10.3836L9.69753 11.1118C9.54611 11.303 9.27346 11.3594 9.05594 11.2338C8.84336 11.1111 8.75498 10.8559 8.83493 10.6327L8.87288 10.5508L8.96936 10.3836ZM8.03069 9.44494L7.08575 8.5H5.37296L6.00654 7.42079L5.27615 6.6904L4.06878 8.74685L4.03123 8.82508C3.91093 9.14228 4.14317 9.5 4.49996 9.5H7.00996L6.09908 15.424L6.09337 15.514C6.09975 15.751 6.27463 15.9569 6.51724 15.9942C6.79017 16.0362 7.04546 15.849 7.08745 15.576L8.03069 9.44494ZM1.99996 2C2.19522 1.80474 2.51181 1.80474 2.70707 2L14 13.2929C14.1952 13.4882 14.1952 13.8047 14 14C13.8047 14.1953 13.4881 14.1953 13.2929 14L1.99996 2.70711C1.8047 2.51184 1.8047 2.19526 1.99996 2Z" fill="#242424"/>
</svg>
