<svg width="16" height="16" viewBox="0 0 16 16" fill="none" xmlns="http://www.w3.org/2000/svg">
<path d="M9.05928 0.246851C9.32192 -0.200492 9.98411 0.00326064 9.99124 0.482946L9.98464 0.576029L9.07303 6.5H11.5C11.8553 6.5 12.0876 6.855 11.9699 7.1718L11.9331 7.24997L9.73901 11.0508C9.60095 11.2899 9.29516 11.3719 9.056 11.2338C8.84342 11.1111 8.75504 10.8559 8.83499 10.6327L8.87295 10.5508L10.633 7.5H8.49046C8.21466 7.5 7.99726 7.27875 7.99051 7.0137L7.99627 6.92397L8.59903 3.005L5.37303 8.5H7.59333C7.86912 8.5 8.08652 8.72125 8.09327 8.9863L8.08751 9.07603L7.08751 15.576C7.04552 15.849 6.79023 16.0362 6.5173 15.9942C6.27469 15.9569 6.09981 15.751 6.09344 15.514L6.09914 15.424L7.01003 9.5H4.50003C4.14324 9.5 3.91099 9.14228 4.03129 8.82508L4.06885 8.74685L9.05928 0.246851Z" fill="#242424"/>
</svg>
