<svg width="16" height="16" fill="none" viewBox="0 0 16 16">
  <path fill="#242424" d="M.5 2.001h9a.5.5 0 1 1 0 1H1v10.5a.5.5 0 0 1-.41.492L.5 14a.5.5 0 0 1-.492-.41L0 13.5v-11a.5.5 0 0 1 .41-.492L.5 2Zm14.5 11v-4.5a.5.5 0 0 1 1 0v5a.5.5 0 0 1-.41.492L15.5 14h-10a.5.5 0 0 1-.09-.992L5.5 13H15Zm.5-11h-3l-.09.008a.5.5 0 0 0-.41.492l.008.09A.5.5 0 0 0 12.5 3h1.792L9.146 8.147l-.057.07a.5.5 0 0 0 .765.638l5.145-5.147L15 5.501l.008.09A.5.5 0 0 0 16 5.5v-3l-.002-.046-.015-.082-.02-.063-.03-.059-.042-.062-.037-.042-.032-.028-.055-.04-.076-.04-.063-.021-.075-.014L15.5 2Z"/>
</svg>
