<svg width="16" height="16" viewBox="0 0 16 16" fill="none" xmlns="http://www.w3.org/2000/svg">
<path fill-rule="evenodd" clip-rule="evenodd" d="M15.5899 13.9919C15.8231 13.9496 16 13.7455 16 13.5V5V3V2.5L15.9919 2.41012C15.9496 2.17688 15.7455 2 15.5 2H15H9H0.5L0.410124 2.00806C0.176875 2.05039 0 2.25454 0 2.5V13.5L0.00805567 13.5899C0.0503916 13.8231 0.25454 14 0.5 14L0.589876 13.9919C0.823125 13.9496 1 13.7455 1 13.5V3H8V5C8 5.55228 8.44771 6 9 6H15V13H5.5L5.41012 13.0081C5.17688 13.0504 5 13.2545 5 13.5C5 13.7761 5.22386 14 5.5 14H15.5L15.5899 13.9919Z" fill="#242424"/>
</svg>
