<svg width="16" height="16" viewBox="0 0 16 16" fill="none" xmlns="http://www.w3.org/2000/svg">
<path d="M0.5 2H9.5C9.77614 2 10 2.22386 10 2.5C10 2.77614 9.77614 3 9.5 3L1 3V13.5C1 13.7455 0.823125 13.9496 0.589876 13.9919L0.5 14C0.25454 14 0.0503916 13.8231 0.00805567 13.5899L0 13.5V2.5C0 2.25454 0.176875 2.05039 0.410124 2.00806L0.5 2Z" fill="#242424"/>
<path d="M15 13V8.5C15 8.22386 15.2239 8 15.5 8C15.7761 8 16 8.22386 16 8.5V13.5C16 13.7455 15.8231 13.9496 15.5899 13.9919L15.5 14H5.5C5.22386 14 5 13.7761 5 13.5C5 13.2545 5.17688 13.0504 5.41012 13.0081L5.5 13H15Z" fill="#242424"/>
<path d="M15.5 2H12.5L12.4101 2.00806C12.1769 2.05039 12 2.25454 12 2.5L12.0081 2.58988C12.0504 2.82312 12.2545 3 12.5 3L14.292 3L9.1464 8.1464L9.0886 8.2157C8.9536 8.4106 8.9729 8.68 9.1464 8.8536C9.3417 9.0488 9.6583 9.0488 9.8536 8.8536L14.999 3.707L15 5.5L15.0081 5.58988C15.0504 5.82312 15.2545 6 15.5 6C15.7761 6 16 5.77614 16 5.5V2.5L15.9979 2.45421L15.9834 2.37186L15.9624 2.3094L15.9332 2.25024L15.891 2.18834L15.8535 2.14645L15.8221 2.11758L15.767 2.07719L15.691 2.03779L15.6281 2.01661L15.5534 2.00282L15.5 2Z" fill="#242424"/>
</svg>
