<svg width="16" height="16" viewBox="0 0 16 16" fill="none" xmlns="http://www.w3.org/2000/svg">
<path fill-rule="evenodd" clip-rule="evenodd" d="M6 2C6 1.72386 5.77614 1.5 5.5 1.5H0.5C0.223858 1.5 0 1.72386 0 2V7C0 7.27614 0.223858 7.5 0.5 7.5H5.5C5.77614 7.5 6 7.27614 6 7V5H7.5V12H10V14C10 14.2761 10.2239 14.5 10.5 14.5H15.5C15.7761 14.5 16 14.2761 16 14V9C16 8.72386 15.7761 8.5 15.5 8.5H10.5C10.2239 8.5 10 8.72386 10 9V11H8.5V5H10V7C10 7.27614 10.2239 7.5 10.5 7.5H15.5C15.7761 7.5 16 7.27614 16 7V2C16 1.72386 15.7761 1.5 15.5 1.5H10.5C10.2239 1.5 10 1.72386 10 2V4H6V2ZM11 13.5H15V9.5H11V13.5ZM5 6.5H1V2.5H5V6.5ZM11 6.5V2.5H15V6.5H11Z" fill="#242424"/>
</svg>
