<svg xmlns="http://www.w3.org/2000/svg" width="16" height="16" viewBox="0 0 16 16"><path fill="#0F0F0F" fill-rule="evenodd" d="M8,0 C8.93191279,0 9.71495822,0.63737692 9.93698631,1.49998077 L12.5,1.5 C13.2796961,1.5 13.9204487,2.09488808 13.9931334,2.85553999 L14,3 L14,4.5 C14,4.77614237 13.7761424,5 13.5,5 C13.2545401,5 13.0503916,4.82312484 13.0080557,4.58987563 L13,4.5 L13,3 C13,2.75454011 12.8231248,2.55039163 12.5898756,2.50805567 L12.5,2.5 L12,2.5 L12,2.5 L12,4 C12,4.27614237 11.7761424,4.5 11.5,4.5 L4.5,4.5 C4.22385763,4.5 4,4.27614237 4,4 L4,2.5 L3.5,2.5 C3.25454011,2.5 3.05039163,2.67687516 3.00805567,2.91012437 L3,3 L3,14.5 C3,14.7454599 3.17687516,14.9496084 3.41012437,14.9919443 L3.5,15 L12.5,15 C12.7454599,15 12.9496084,14.8231248 12.9919443,14.5898756 L13,14.5 L13,7.5 C13,7.22385763 13.2238576,7 13.5,7 C13.7454599,7 13.9496084,7.17687516 13.9919443,7.41012437 L14,7.5 L14,14.5 C14,15.2796961 13.4051119,15.9204487 12.64446,15.9931334 L12.5,16 L3.5,16 C2.72030388,16 2.07955132,15.4051119 2.00686658,14.64446 L2,14.5 L2,3 C2,2.22030388 2.59488808,1.57955132 3.35553999,1.50686658 L3.5,1.5 L6.06301369,1.49998077 C6.28504178,0.63737692 7.06808721,0 8,0 Z M8,7 C8.27614237,7 8.5,7.22385763 8.5,7.5 L8.5,9.499 L10.5,9.5 C10.7761424,9.5 11,9.72385763 11,10 C11,10.2761424 10.7761424,10.5 10.5,10.5 L8.5,10.499 L8.5,12.5 C8.5,12.7761424 8.27614237,13 8,13 C7.72385763,13 7.5,12.7761424 7.5,12.5 L7.5,10.499 L5.5,10.5 C5.22385763,10.5 5,10.2761424 5,10 C5,9.72385763 5.22385763,9.5 5.5,9.5 L7.5,9.499 L7.5,7.5 C7.5,7.22385763 7.72385763,7 8,7 Z M8,1 C7.44771525,1 7,1.44771525 7,2 C7,2.55228475 7.44771525,3 8,3 C8.55228475,3 9,2.55228475 9,2 C9,1.44771525 8.55228475,1 8,1 Z"/></svg>