<svg width="16" height="16" fill="none" viewBox="0 0 16 16">
  <path fill="#242424" fill-rule="evenodd" d="M8 .001a2 2 0 0 0-1.937 1.5H3.5l-.144.007A1.5 1.5 0 0 0 2 3v11.5l.007.144A1.5 1.5 0 0 0 3.5 16.001h9l.145-.007A1.5 1.5 0 0 0 14 14.501v-7l-.008-.09a.5.5 0 0 0-.992.09v7l-.008.09a.5.5 0 0 1-.492.41h-9l-.09-.008A.5.5 0 0 1 3 14.5V3l.008-.09A.5.5 0 0 1 3.5 2.5H4V4a.5.5 0 0 0 .5.5h7A.5.5 0 0 0 12 4V2.5h.5l.09.008A.5.5 0 0 1 13 3v1.5l.008.09A.5.5 0 0 0 14 4.5V3l-.007-.144A1.5 1.5 0 0 0 12.5 1.5H9.937A2 2 0 0 0 8 .001Zm1 2a1 1 0 1 0-2 0 1 1 0 0 0 2 0Z M5 10.001a.5.5 0 0 1 .5-.5h2v-2a.5.5 0 1 1 1 0v2h2a.5.5 0 0 1 0 1h-2v2a.5.5 0 0 1-1 0v-2h-2a.5.5 0 0 1-.5-.5Z" clip-rule="evenodd"/>
</svg>
