<svg width="16" height="16" viewBox="0 0 16 16" fill="none" xmlns="http://www.w3.org/2000/svg">
<path fill-rule="evenodd" clip-rule="evenodd" d="M8 0C7.06808 0 6.28503 0.637386 6.06301 1.5H3.5L3.35554 1.50687C2.59489 1.57955 2 2.2203 2 3V14.5L2.00687 14.6445C2.07955 15.4051 2.7203 16 3.5 16H12.5L12.6445 15.9931C13.4051 15.9204 14 15.2797 14 14.5V7.5L13.9919 7.41012C13.9496 7.17688 13.7455 7 13.5 7C13.2239 7 13 7.22386 13 7.5V14.5L12.9919 14.5899C12.9496 14.8231 12.7455 15 12.5 15H3.5L3.41012 14.9919C3.17688 14.9496 3 14.7455 3 14.5V3L3.00806 2.91012C3.05039 2.67688 3.25454 2.5 3.5 2.5H4V4C4 4.27614 4.22386 4.5 4.5 4.5H11.5C11.7761 4.5 12 4.27614 12 4V2.5H12.5L12.5899 2.50806C12.8231 2.55039 13 2.75454 13 3V4.5L13.0081 4.58988C13.0504 4.82312 13.2545 5 13.5 5C13.7761 5 14 4.77614 14 4.5V3L13.9931 2.85554C13.9204 2.09489 13.2797 1.5 12.5 1.5H9.93699C9.71497 0.637386 8.93192 0 8 0ZM9 2C9 1.44772 8.55228 1 8 1C7.44772 1 7 1.44772 7 2C7 2.55228 7.44772 3 8 3C8.55228 3 9 2.55228 9 2ZM5 10C5 9.72386 5.22386 9.5 5.5 9.5H7.5V7.5C7.5 7.22386 7.72386 7 8 7C8.27614 7 8.5 7.22386 8.5 7.5V9.5H10.5C10.7761 9.5 11 9.72386 11 10C11 10.2761 10.7761 10.5 10.5 10.5H8.5V12.5C8.5 12.7761 8.27614 13 8 13C7.72386 13 7.5 12.7761 7.5 12.5V10.5H5.5C5.22386 10.5 5 10.2761 5 10Z" fill="#242424"/>
</svg>
