<svg xmlns="http://www.w3.org/2000/svg" width="16" height="16" viewBox="0 0 16 16"><path fill="#242424" fill-rule="evenodd" d="M12.5,1.5 C12.7454599,1.5 12.9496084,1.67687516 12.9919443,1.91012437 L13,2 L13,10 C13,10.2761424 12.7761424,10.5 12.5,10.5 C12.2545401,10.5 12.0503916,10.3231248 12.0080557,10.0898756 L12,10 L12,2.5 L10,2.5 L10,13.5 L12.5,13.5 C12.7454599,13.5 12.9496084,13.6768752 12.9919443,13.9101244 L13,14 C13,14.2454599 12.8231248,14.4496084 12.5898756,14.4919443 L12.5,14.5 L9.5,14.5 C9.25454011,14.5 9.05039163,14.3231248 9.00805567,14.0898756 L9,14 L9,2 C9,1.75454011 9.17687516,1.55039163 9.41012437,1.50805567 L9.5,1.5 L12.5,1.5 Z M6.5,1.5 C6.74545989,1.5 6.94960837,1.67687516 6.99194433,1.91012437 L7,2 L7,10 C7,10.2761424 6.77614237,10.5 6.5,10.5 C6.25454011,10.5 6.05039163,10.3231248 6.00805567,10.0898756 L6,10 L6,2.5 L4,2.5 L4,13.5 L6.5,13.5 C6.74545989,13.5 6.94960837,13.6768752 6.99194433,13.9101244 L7,14 C7,14.2454599 6.82312484,14.4496084 6.58987563,14.4919443 L6.5,14.5 L3.5,14.5 C3.25454011,14.5 3.05039163,14.3231248 3.00805567,14.0898756 L3,14 L3,2 C3,1.75454011 3.17687516,1.55039163 3.41012437,1.50805567 L3.5,1.5 L6.5,1.5 Z"/></svg>