<svg width="16" height="16" viewBox="0 0 16 16" fill="none" xmlns="http://www.w3.org/2000/svg">
<path fill-rule="evenodd" clip-rule="evenodd" d="M6.99194 1.91012C6.94961 1.67688 6.74546 1.5 6.5 1.5H3.5L3.41012 1.50806C3.17688 1.55039 3 1.75454 3 2V14L3.00806 14.0899C3.05039 14.3231 3.25454 14.5 3.5 14.5H6.5L6.58988 14.4919C6.82312 14.4496 7 14.2455 7 14L6.99194 13.9101C6.94961 13.6769 6.74546 13.5 6.5 13.5H4V2.5H6V10L6.00806 10.0899C6.05039 10.3231 6.25454 10.5 6.5 10.5C6.77614 10.5 7 10.2761 7 10V2L6.99194 1.91012ZM12.9919 1.91012C12.9496 1.67688 12.7455 1.5 12.5 1.5H9.5L9.41012 1.50806C9.17688 1.55039 9 1.75454 9 2V14L9.00806 14.0899C9.05039 14.3231 9.25454 14.5 9.5 14.5H12.5L12.5899 14.4919C12.8231 14.4496 13 14.2455 13 14L12.9919 13.9101C12.9496 13.6769 12.7455 13.5 12.5 13.5H10V2.5H12V10L12.0081 10.0899C12.0504 10.3231 12.2545 10.5 12.5 10.5C12.7761 10.5 13 10.2761 13 10V2L12.9919 1.91012Z" fill="#242424"/>
</svg>
