<svg width="16" height="16" fill="none" viewBox="0 0 16 16">
  <path fill="#242424" fill-rule="evenodd" d="M9.54.003 3.5 0l-.145.007A1.5 1.5 0 0 0 2 1.5v13l.006.144A1.5 1.5 0 0 0 3.5 16.001h9l.144-.007a1.5 1.5 0 0 0 1.355-1.493v-7.5l-.008-.09a.5.5 0 0 0-.992.09v7.5l-.008.09a.5.5 0 0 1-.492.41h-9l-.09-.008A.5.5 0 0 1 3 14.5v-13l.009-.09A.5.5 0 0 1 3.501 1H9v3.5l.008.09A.5.5 0 0 0 9.5 5h4l.085-.007a.5.5 0 0 0 .268-.847L9.822.12l-.07-.05-.026-.014-.072-.03L9.59.01 9.54.003ZM10 4V1.708l2.293 2.293H10Z M9.918 10.188c.626 0 1.034.037 1.05.038.048.002.577.031.861.364.135.158.191.36.163.585l-.005.026c-.1.393-.368.618-.736.618-.258 0-.478-.109-.502-.12l-.016-.01a23.72 23.72 0 0 1-1.54-1.051c-1.01.049-2.405.223-3.52.764l-.078.298c-.32 1.175-.916 1.3-1.157 1.3a.45.45 0 0 1-.087-.007l-.035-.01a.46.46 0 0 1-.276-.26c-.111-.272.037-.61.069-.675l.012-.027.02-.023a4.07 4.07 0 0 1 1.16-.894c.199-.773.61-2.383.767-3.129a16.26 16.26 0 0 1-.38-.38c-.392-.434-.541-.809-.449-1.117.084-.279.347-.416.488-.453a.575.575 0 0 1 .596.155c.227.25.307.758.235 1.51-.003.035-.01.08-.02.138a31.189 31.189 0 0 0 2.791 2.37c.195-.008.393-.011.59-.011Zm1.333 1.198c.117 0 .246-.034.312-.278a.298.298 0 0 0-.065-.238c-.137-.16-.457-.208-.557-.212h-.007a12.51 12.51 0 0 0-1.016-.037H9.91c.352.248.701.481 1.043.694.03.014.161.07.298.07Zm-5.434-.545-.006.025c.925-.38 1.971-.553 2.847-.626l-.015-.012h.01A32.014 32.014 0 0 1 6.44 8.333v.003l-.006-.005c-.157.693-.428 1.773-.617 2.51Zm-.163-4.236c-.02.07-.026.278.352.696 0 0 .047.05.136.14.032-.561-.048-.867-.14-.969-.041-.044-.087-.048-.163-.028 0 0-.151.045-.185.161ZM4.442 12.56a.027.027 0 0 0 .005.008c.092-.004.45-.072.695-.865a3.45 3.45 0 0 0-.653.557c-.042.102-.07.242-.047.3Z" clip-rule="evenodd"/>
</svg>