<svg width="16" height="16" viewBox="0 0 16 16" fill="none" xmlns="http://www.w3.org/2000/svg">
<path fill-rule="evenodd" clip-rule="evenodd" d="M9.53959 0.00156876L3.5 0L3.35554 0.00686658C2.59489 0.0795513 2 0.720304 2 1.5V14.5L2.00687 14.6445C2.07955 15.4051 2.7203 16 3.5 16H12.5L12.6445 15.9931C13.4051 15.9204 14 15.2797 14 14.5V7L13.9919 6.91012C13.9496 6.67688 13.7455 6.5 13.5 6.5C13.2239 6.5 13 6.72386 13 7V14.5L12.9919 14.5899C12.9496 14.8231 12.7455 15 12.5 15H3.5L3.41012 14.9919C3.17688 14.9496 3 14.7455 3 14.5V1.5L3.00806 1.41012C3.05039 1.17688 3.25454 1 3.5 1H9V4.5L9.00806 4.58988C9.05039 4.82312 9.25454 5 9.5 5H13.5L13.586 4.99304C13.9728 4.92918 14.1475 4.44043 13.8536 4.14645L9.82214 0.117594L9.75236 0.0682647L9.72679 0.0543895L9.65473 0.024544L9.58988 0.00805567L9.53959 0.00156876ZM10 4V1.707L12.293 4H10ZM11.2512 11.3848C11.3688 11.3848 11.4971 11.3514 11.5637 11.1069C11.5736 11.0084 11.553 10.9327 11.499 10.8695C11.3614 10.7081 11.042 10.6611 10.9411 10.6573C10.9402 10.6572 10.9379 10.6571 10.9344 10.6568C10.8775 10.652 10.4874 10.6196 9.91858 10.6196H9.91011C10.2626 10.8684 10.6119 11.101 10.9533 11.3145C10.9832 11.3281 11.1147 11.3848 11.2512 11.3848ZM5.81771 10.8402L5.8112 10.865C6.73634 10.4847 7.78254 10.3125 8.65845 10.2388L8.64307 10.2272L8.65352 10.2267C7.7237 9.50309 6.94712 8.80735 6.44066 8.33165L6.4401 8.33496L6.43444 8.32962C6.27789 9.02322 6.00564 10.103 5.81685 10.8405L5.81771 10.8402ZM5.65492 6.60446C5.63463 6.67433 5.62898 6.88188 6.00604 7.30044C6.00604 7.30044 6.05371 7.35023 6.14273 7.43942C6.17411 6.87857 6.09468 6.57277 6.00221 6.47147C5.96134 6.42668 5.91539 6.42265 5.83974 6.4432C5.83845 6.44357 5.6882 6.48772 5.65492 6.60446ZM4.44276 12.5588C4.44389 12.5617 4.44493 12.5641 4.44718 12.5668C4.53998 12.5631 4.89699 12.4945 5.14251 11.7019C4.8904 11.8696 4.67193 12.0559 4.48992 12.2589C4.44753 12.3613 4.41872 12.5012 4.44276 12.5588ZM9.91858 10.1867C10.5446 10.1867 10.9524 10.2238 10.9694 10.2254C11.0169 10.227 11.5457 10.256 11.8297 10.5889C11.9645 10.747 12.021 10.9492 11.993 11.1735L11.9879 11.2003C11.8879 11.5929 11.6191 11.8181 11.2511 11.8181C10.9937 11.8178 10.7738 11.7096 10.7495 11.6971L10.7331 11.6877C10.2317 11.3748 9.71422 11.0215 9.1942 10.6369C8.18326 10.6855 6.78848 10.86 5.67269 11.4009L5.59527 11.6986C5.27558 12.8735 4.67964 13 4.43818 13C4.38306 13 4.3517 12.9932 4.3517 12.9932L4.31695 12.9839C4.1873 12.9366 4.09183 12.8464 4.04091 12.7229C3.92936 12.4513 4.07792 12.1132 4.10903 12.0481L4.12179 12.021L4.14156 11.9984C4.4434 11.6538 4.8333 11.3534 5.30125 11.1041C5.50049 10.331 5.91115 8.72113 6.06799 7.97512C5.82663 7.73993 5.6938 7.60109 5.68758 7.59451C5.29616 7.16058 5.14717 6.78639 5.23986 6.47808C5.32384 6.19908 5.58602 6.06203 5.72767 6.02504C5.95579 5.96287 6.17451 6.01715 6.32345 6.18018C6.55093 6.42973 6.63038 6.93787 6.55889 7.69062C6.55572 7.72531 6.54892 7.7705 6.53903 7.82762C7.08111 8.34656 8.09365 9.27254 9.3299 10.1978C9.5249 10.1905 9.72245 10.1867 9.91858 10.1867Z" fill="#242424"/>
</svg>
