<svg width="16" height="16" fill="none" viewBox="0 0 16 16">
  <path fill="#242424" fill-rule="evenodd" d="M2.532.224 1.304.961A2.46 2.46 0 0 0 .184 2.41c-.718 2.614.668 5.714 4.18 9.225 3.51 3.51 6.611 4.9 9.216 4.183a2.472 2.472 0 0 0 1.465-1.132l.73-1.217a1.581 1.581 0 0 0-.479-2.128l-2.944-1.963-.132-.079a1.584 1.584 0 0 0-1.99.42l-.676.867-.178-.1-.269-.163c-.51-.321-.97-.702-1.669-1.39l-.188-.186a27.472 27.472 0 0 1-.356-.362l-.302-.321-.134-.148-.243-.283a7.016 7.016 0 0 1-.621-.875l-.182-.313.865-.671a1.585 1.585 0 0 0 .348-2.122L4.658.703A1.582 1.582 0 0 0 2.532.224Zm1.294 1.035 1.966 2.946a.583.583 0 0 1-.13.78l-1.105.86a.64.64 0 0 0-.164.82l.17.31.17.293c.22.362.44.674.717 1.01l.256.297c.093.104.192.213.299.326l.346.36.385.384c.748.736 1.261 1.16 1.846 1.529l.284.171.313.177.163.089a.64.64 0 0 0 .818-.175l.858-1.102a.583.583 0 0 1 .781-.123l2.943 1.962a.581.581 0 0 1 .175.782l-.733 1.222a1.473 1.473 0 0 1-.874.678c-2.18.6-4.956-.644-8.24-3.927C1.788 7.644.546 4.869 1.148 2.679a1.46 1.46 0 0 1 .666-.858l1.232-.74a.581.581 0 0 1 .781.178Z" clip-rule="evenodd"/>
</svg>