<svg width="16" height="16" viewBox="0 0 16 16" fill="none" xmlns="http://www.w3.org/2000/svg">
<g clip-path="url(#clip0_1249_19483)">
<path fill-rule="evenodd" clip-rule="evenodd" d="M2.5315 0.223958L1.30368 0.960752C0.760866 1.27752 0.35754 1.79912 0.183645 2.40964C-0.534455 5.02432 0.852303 8.12391 4.36344 11.635C7.87435 15.1459 10.9752 16.5345 13.5795 15.8183C14.202 15.641 14.7235 15.2372 15.0448 14.6863L15.775 13.4692C16.2089 12.7448 15.998 11.8084 15.296 11.3405L12.3517 9.37795L12.2194 9.2994C11.5463 8.94184 10.7071 9.11028 10.2297 9.71839L9.55421 10.586L9.37564 10.4852L9.10699 10.3228C8.5978 10.0017 8.13745 9.62097 7.43797 8.93341L7.24985 8.74686C7.12116 8.61821 7.00291 8.49797 6.89368 8.38465L6.59167 8.06395C6.54538 8.01346 6.50099 7.96433 6.45833 7.91636L6.21466 7.63273C5.97524 7.34321 5.78272 7.07137 5.59361 6.75815L5.41221 6.44504L6.2769 5.77372C6.9293 5.26279 7.07984 4.34071 6.62447 3.65216L4.65783 0.703491C4.18975 0.00266582 3.25473 -0.208064 2.5315 0.223958ZM3.82607 1.25863L5.79145 4.20541C5.95801 4.45726 5.9026 4.79669 5.66164 4.9854L4.55643 5.845C4.30475 6.03805 4.23703 6.38743 4.3926 6.66574L4.56302 6.97452L4.73324 7.26775C4.95199 7.63021 5.17308 7.94238 5.45022 8.27735L5.70552 8.57455C5.79881 8.67949 5.89791 8.78768 6.00475 8.90124L6.35042 9.26008L6.73541 9.64503C7.4836 10.3805 7.99694 10.805 8.58175 11.1737L8.86591 11.3455L9.17908 11.5217L9.34143 11.6109C9.61825 11.7657 9.96593 11.6894 10.1602 11.4363L11.0176 10.3341C11.2038 10.097 11.543 10.0423 11.799 10.2113L14.7414 12.1726C14.9994 12.3445 15.0769 12.6887 14.9173 12.955L14.1841 14.1772C13.99 14.5099 13.6801 14.7499 13.3099 14.8553C11.1305 15.4546 8.35395 14.2113 5.07054 10.9279C1.78685 7.64424 0.545218 4.86904 1.14667 2.67902C1.24874 2.32074 1.48843 2.01076 1.81295 1.82134L3.04518 1.08194C3.31025 0.923602 3.65406 1.00109 3.82607 1.25863Z" fill="#242424"/>
</g>
<defs>
<clipPath id="clip0_1249_19483">
<rect width="16" height="16" fill="white"/>
</clipPath>
</defs>
</svg>
