<svg width="16" height="16" fill="none" viewBox="0 0 16 16">
  <path fill="#242424" d="M0 2.501a.5.5 0 0 1 .41-.492l.09-.008h12a.5.5 0 0 1 .09.992L12.5 3H1v10h14V2.5a.5.5 0 0 1 .41-.492L15.5 2a.5.5 0 0 1 .492.41L16 2.5v11a.5.5 0 0 1-.41.492L15.5 14H.5a.5.5 0 0 1-.492-.41L0 13.5v-11Z M9.077 5.59a.5.5 0 0 0-.638.057l-.058.07a.5.5 0 0 0 .058.638L9.586 7.5H3.793l-.09.008a.5.5 0 0 0 .09.992h5.793L8.439 9.647l-.058.07a.5.5 0 0 0 .765.637L11.5 8.002 9.146 5.647l-.069-.057Zm4.918-1.589h-1v8h1v-8Z"/>
</svg>