<svg width="16" height="16" fill="none" viewBox="0 0 16 16">
  <path fill="#242424" d="M0 2.501a.5.5 0 0 1 .41-.492l.09-.008h12a.5.5 0 0 1 .09.992L12.5 3H1v10h14V2.5a.5.5 0 0 1 .41-.492L15.5 2a.5.5 0 0 1 .492.41L16 2.5v11a.5.5 0 0 1-.41.492L15.5 14H.5a.5.5 0 0 1-.492-.41L0 13.5v-11Z M1.995 4.001h1v8h-1v-8ZM7.56 5.647a.5.5 0 0 0-.637-.057l-.07.057L4.5 8.001l2.354 2.354a.5.5 0 0 0 .765-.638l-.058-.07-1.147-1.146h5.793a.5.5 0 0 0 .09-.992l-.09-.008H6.414l1.147-1.146a.5.5 0 0 0 .058-.638l-.058-.07Z"/>
</svg>
