<svg width="16" height="16" viewBox="0 0 16 16" fill="none" xmlns="http://www.w3.org/2000/svg">
<path fill-rule="evenodd" clip-rule="evenodd" d="M0 2.5C0 2.25454 0.176875 2.05039 0.410124 2.00806L0.5 2H12.5C12.7761 2 13 2.22386 13 2.5C13 2.74546 12.8231 2.94961 12.5899 2.99194L12.5 3H1V13H15V2.5C15 2.25454 15.1769 2.05039 15.4101 2.00806L15.5 2C15.7455 2 15.9496 2.17688 15.9919 2.41012L16 2.5V13.5C16 13.7455 15.8231 13.9496 15.5899 13.9919L15.5 14H0.5C0.25454 14 0.0503916 13.8231 0.00805569 13.5899L0 13.5V2.5ZM1.99496 4H2.99496V12H1.99496V4ZM7.56066 5.64645C7.38709 5.47288 7.11767 5.4536 6.9228 5.58859L6.85355 5.64645L4.85329 7.64671L4.5 8L4.85376 8.35376L6.85355 10.3536C7.04882 10.5488 7.3654 10.5488 7.56066 10.3536C7.73423 10.18 7.75351 9.91056 7.61852 9.71569L7.56066 9.64645L6.41414 8.5H12.2071C12.4832 8.5 12.7071 8.27614 12.7071 8C12.7071 7.75454 12.5302 7.55039 12.297 7.50806L12.2071 7.5H6.41414L7.56066 6.35355C7.73423 6.17999 7.75351 5.91056 7.61852 5.71569L7.56066 5.64645Z" fill="#242424"/>
</svg>
