<svg width="16" height="16" viewBox="0 0 16 16" fill="none" xmlns="http://www.w3.org/2000/svg">
<path fill-rule="evenodd" clip-rule="evenodd" d="M3.05176e-05 2.5C3.05176e-05 2.25454 0.176906 2.05039 0.410155 2.00806L0.500031 2H12.5C12.7762 2 13 2.22386 13 2.5C13 2.74546 12.8232 2.94961 12.5899 2.99194L12.5 3H1.00003V13H15V2.5C15 2.25454 15.1769 2.05039 15.4102 2.00806L15.5 2C15.7455 2 15.9496 2.17688 15.992 2.41012L16 2.5V13.5C16 13.7455 15.8232 13.9496 15.5899 13.9919L15.5 14H0.500031C0.254571 14 0.0504222 13.8231 0.0080862 13.5899L3.05176e-05 13.5V2.5ZM9.0772 5.58859C8.88233 5.4536 8.61291 5.47288 8.43934 5.64645L8.38148 5.71569C8.24649 5.91056 8.26577 6.17999 8.43934 6.35355L9.58586 7.5H3.79289L3.70302 7.50806C3.46977 7.55039 3.29289 7.75454 3.29289 8C3.29289 8.27614 3.51675 8.5 3.79289 8.5H9.58586L8.43934 9.64645L8.38148 9.71569C8.24649 9.91056 8.26577 10.18 8.43934 10.3536C8.6346 10.5488 8.95118 10.5488 9.14645 10.3536L11.1462 8.35376L11.5 8L11.1467 7.64671L9.14645 5.64645L9.0772 5.58859ZM13.995 4H12.995V12H13.995V4Z" fill="#242424"/>
</svg>
