<svg xmlns="http://www.w3.org/2000/svg" width="16" height="16" viewBox="0 0 16 16"><path fill="#242424" fill-rule="evenodd" d="M4.5,3 C4.5,2.6353335 4.87246864,2.40284603 5.19231611,2.53814261 L5.26499947,2.57600085 L13.2649995,7.57600085 C13.5522223,7.75551514 13.5761576,8.15391926 13.3368052,8.36991519 L13.2649995,8.42399915 L8.46420475,11.4244958 C8.23003649,11.570851 7.9215613,11.4996644 7.77520613,11.2654962 C7.64511265,11.0573466 7.68690401,10.7904854 7.86226093,10.6309627 L7.93420581,10.5764975 L12.057,7.999 L5.5,3.901 L5.5,13 C5.5,13.2454599 5.32312484,13.4496084 5.08987563,13.4919443 L5,13.5 C4.75454011,13.5 4.55039163,13.3231248 4.50805567,13.0898756 L4.5,13 L4.5,3 Z"/></svg>