<svg width="16" height="16" viewBox="0 0 16 16" fill="none" xmlns="http://www.w3.org/2000/svg">
<path fill-rule="evenodd" clip-rule="evenodd" d="M4.5 3.00001C4.5 2.63534 4.87247 2.40285 5.19232 2.53815L5.265 2.57601L13.265 7.57601C13.5522 7.75552 13.5762 8.15393 13.3368 8.36992L13.265 8.42401L8.4642 11.4245C8.23004 11.5709 7.92156 11.4997 7.77521 11.2655C7.64511 11.0574 7.6869 10.7905 7.86226 10.631L7.93421 10.5765L12.057 7.99901L5.5 3.90101V13C5.5 13.2455 5.32312 13.4496 5.08988 13.492L5 13.5C4.75454 13.5 4.55039 13.3231 4.50806 13.0899L4.5 13V3.00001Z" fill="#242424"/>
</svg>
