<svg xmlns="http://www.w3.org/2000/svg" width="16" height="16" viewBox="0 0 16 16"><path fill="#242424" fill-rule="evenodd" d="M8.95003365,0.535933402 C8.9566649,0.573654762 8.96,0.611897801 8.96,0.650215866 L8.96,15.3498945 C8.96,15.7089378 8.67346224,16 8.32,16 C8.28227757,16 8.24462899,15.9966122 8.20749399,15.9898763 L0.527493991,14.596793 C0.22226007,14.5414263 0,14.2717694 0,13.9568112 L0,2.04329912 C0,1.72834093 0.22226007,1.45868402 0.527493991,1.40331732 L8.20749399,0.0102340683 C8.55545197,-0.0528823937 8.8878983,0.182481215 8.95003365,0.535933402 Z M15.36,2.3116319 C15.7134622,2.3116319 16,2.60269406 16,2.96173742 L16,13.0383729 C16,13.3974163 15.7134622,13.6884784 15.36,13.6884784 L10.24,13.6884784 L10.24,12.3882674 L14.4,12.3882674 C14.5546397,12.3882674 14.6836599,12.2768452 14.7134987,12.1287241 L14.72,12.0632147 L14.72,11.7381619 C14.72,11.5810804 14.6103098,11.450023 14.4644912,11.4197131 L14.4,11.4131091 L10.24,11.4131091 L10.24,10.4379509 L14.4,10.4379509 C14.5546397,10.4379509 14.6836599,10.3265286 14.7134987,10.1784076 L14.72,10.1128981 L14.72,9.78784535 C14.72,9.63076387 14.6103098,9.49970646 14.4644912,9.4693965 L14.4,9.46279259 L10.24,9.46279259 L10.2394585,8.33242144 C10.5739433,8.51213404 10.9552722,8.6138981 11.36,8.6138981 C12.6324641,8.6138981 13.6736371,7.60798729 13.754895,6.33629472 L13.76,6.17600241 L11.36,6.17600241 L11.36,3.73810672 L11.2021993,3.7432923 C10.856168,3.76610658 10.5301258,3.86341313 10.2394585,4.01958338 L10.24,2.3116319 L15.36,2.3116319 Z M4.56950495,5.03831776 L2.72,5.03831776 L2.72,10.8892674 L3.94772277,10.8892674 L3.94772277,8.80821828 L4.47445545,8.80821828 C5.19261085,8.80821828 5.74640069,8.64146922 6.13584158,8.30796609 C6.52528248,7.97446296 6.72,7.49289166 6.72,6.86323776 C6.72,6.25759607 6.53716354,5.80203763 6.17148515,5.49654876 C5.80580675,5.1910599 5.27181869,5.03831776 4.56950495,5.03831776 L4.56950495,5.03831776 Z M4.50613861,6.05483021 C4.84145382,6.05483021 5.08765598,6.12419782 5.24475248,6.26293512 C5.40184897,6.40167243 5.48039604,6.61644522 5.48039604,6.90725995 C5.48039604,7.19540665 5.3866676,7.41484842 5.19920792,7.56559184 C5.01174824,7.71633525 4.72924281,7.79170583 4.35168317,7.79170583 L4.35168317,7.79170583 L3.94772277,7.79170583 L3.94772277,6.05483021 Z M11.84,3.25052758 L11.84,5.68842327 L14.24,5.68842327 L14.234895,5.52813096 C14.1536371,4.25643839 13.1124641,3.25052758 11.84,3.25052758 Z"/></svg>