<svg width="16" height="16" viewBox="0 0 16 16" fill="none" xmlns="http://www.w3.org/2000/svg">
<path fill-rule="evenodd" clip-rule="evenodd" d="M8.20749 0.0102341L0.527494 1.40332C0.22226 1.45868 0 1.72834 0 2.0433V13.9568C0 14.2718 0.22226 14.5414 0.527494 14.5968L8.20749 15.9899C8.24463 15.9966 8.28228 16 8.32 16C8.67346 16 8.96 15.7089 8.96 15.3499V0.650216C8.96 0.611898 8.95666 0.573655 8.95003 0.535933C8.8879 0.182481 8.55545 -0.0528824 8.20749 0.0102341ZM6.72 6.86324C6.72 7.49289 6.52528 7.97446 6.13584 8.30797C5.7464 8.64147 5.19261 8.80822 4.47446 8.80822H3.94772V10.8893H2.72V5.03832H4.5695C5.27182 5.03832 5.80581 5.19106 6.17148 5.49655C6.53716 5.80204 6.72 6.2576 6.72 6.86324ZM3.94772 7.79171H4.35168C4.72924 7.79171 5.01175 7.71634 5.19921 7.56559C5.38667 7.41485 5.4804 7.19541 5.4804 6.90726C5.4804 6.61645 5.40185 6.40167 5.24475 6.26294C5.08766 6.1242 4.84145 6.05483 4.50614 6.05483H3.94772V7.79171ZM15.36 2.31163H10.24V4.01929C10.5744 3.83976 10.9555 3.73811 11.36 3.73811V6.176H13.76C13.76 7.52242 12.6855 8.6139 11.36 8.6139C10.9555 8.6139 10.5744 8.51224 10.24 8.33271V9.46279H14.4C14.5767 9.46279 14.72 9.60832 14.72 9.78785V10.1129C14.72 10.2924 14.5767 10.438 14.4 10.438H10.24V11.4131H14.4C14.5767 11.4131 14.72 11.5586 14.72 11.7382V12.0632C14.72 12.2427 14.5767 12.3883 14.4 12.3883H10.24V13.6885H15.36C15.7135 13.6885 16 13.3974 16 13.0384V2.96174C16 2.60269 15.7135 2.31163 15.36 2.31163ZM11.84 3.25053V5.68842H14.24C14.24 4.34201 13.1655 3.25053 11.84 3.25053Z" fill="#242424"/>
</svg>
