<svg width="16" height="16" fill="none" viewBox="0 0 16 16">
  <path fill="#242424" fill-rule="evenodd" d="M3.948 7.793h.404c.377 0 .66-.076.847-.226.188-.151.281-.37.281-.659 0-.29-.078-.505-.235-.644-.157-.139-.404-.208-.739-.208h-.558v1.737Z M8.207.011.527 1.404a.647.647 0 0 0-.527.64v11.914c0 .315.222.584.527.64l7.68 1.393a.645.645 0 0 0 .753-.64V.65a.64.64 0 0 0-.753-.64ZM6.72 6.864c0 .63-.195 1.111-.584 1.445-.39.333-.943.5-1.662.5h-.526v2.081H2.72V5.04h1.85c.702 0 1.236.152 1.601.458.366.305.549.76.549 1.366Zm8.64-4.551h-5.12V4.02a2.36 2.36 0 0 1 1.12-.28v2.437h2.4c0 1.346-1.075 2.438-2.4 2.438a2.36 2.36 0 0 1-1.12-.281v1.13h4.16c.177 0 .32.145.32.325v.325c0 .18-.143.325-.32.325h-4.16v.975h4.16c.177 0 .32.146.32.325v.325c0 .18-.143.325-.32.325h-4.16v1.3h5.12c.354 0 .64-.29.64-.65V2.963a.645.645 0 0 0-.64-.65Zm-3.52.938V5.69h2.4c0-1.346-1.075-2.438-2.4-2.438Z" clip-rule="evenodd"/>
</svg>