<svg width="16" height="16" viewBox="0 0 16 16" fill="none" xmlns="http://www.w3.org/2000/svg">
<path fill-rule="evenodd" clip-rule="evenodd" d="M8 3.5C9.10457 3.5 10 4.39543 10 5.5C10 6.60457 9.10457 7.5 8 7.5C6.89543 7.5 6 6.60457 6 5.5C6 4.39543 6.89543 3.5 8 3.5ZM8 4.5C7.44772 4.5 7 4.94772 7 5.5C7 6.05228 7.44772 6.5 8 6.5C8.55228 6.5 9 6.05228 9 5.5C9 4.94772 8.55228 4.5 8 4.5Z" fill="#242424"/>
<path fill-rule="evenodd" clip-rule="evenodd" d="M8 1.5C10.095 1.5 12.095 2.83317 14 5.49951C12.0952 8.1665 10.0952 9.5 8 9.5C5.90503 9.5 3.90503 8.16683 2 5.50049C3.90478 2.8335 5.90478 1.5 8 1.5ZM7.99985 2.5C6.45797 2.5 4.9382 3.41034 3.43638 5.29091L3.27231 5.5L3.43637 5.70974C4.88273 7.52023 6.34558 8.43125 7.82864 8.49625L7.99985 8.5C9.54173 8.5 11.0615 7.58966 12.5633 5.70909L12.7267 5.49925L12.5633 5.29026C11.117 3.47977 9.65412 2.56875 8.17106 2.50375L7.99985 2.5Z" fill="#242424"/>
<path d="M1 11H8C8.24546 11 8.44961 11.1769 8.49194 11.4101L8.5 11.5V13.5H11C11.2761 13.5 11.5 13.7239 11.5 14C11.5 14.2455 11.3231 14.4496 11.0899 14.4919L11 14.5H5C4.72386 14.5 4.5 14.2761 4.5 14C4.5 13.7545 4.67688 13.5504 4.91012 13.5081L5 13.5H7.5V12H0.5C0.25454 12 0.0503916 11.8231 0.00805567 11.5899L0 11.5V2.5C0 2.25454 0.176875 2.05039 0.410124 2.00806C0.439281 2.00276 0.469318 2 0.5 2H1.5C1.77614 2 2 2.22386 2 2.5C2 2.77614 1.77614 3 1.5 3H1V11Z" fill="#242424"/>
<path d="M15.9919 2.41012C15.9496 2.17688 15.7455 2 15.5 2H14.5C14.2239 2 14 2.22386 14 2.5C14 2.77614 14.2239 3 14.5 3H15V11H11L10.9101 11.0081C10.6769 11.0504 10.5 11.2545 10.5 11.5C10.5 11.7761 10.7239 12 11 12H15.5L15.5899 11.9919C15.8231 11.9496 16 11.7455 16 11.5V2.5C16 2.46932 15.9972 2.43928 15.9919 2.41012Z" fill="#242424"/>
</svg>
