<svg width="16" height="16" viewBox="0 0 16 16" fill="none" xmlns="http://www.w3.org/2000/svg">
<path fill-rule="evenodd" clip-rule="evenodd" d="M8 1.5C8.72777 1.5 9.44407 1.66088 10.1489 1.98265L9.38352 2.74805C8.98083 2.6026 8.5767 2.52153 8.17106 2.50375L7.99985 2.5C6.45797 2.5 4.9382 3.41034 3.43638 5.29091L3.27231 5.5L3.43637 5.70974C3.92225 6.31794 4.40998 6.82463 4.89972 7.23185L4.39934 7.73223C4.32796 7.80361 4.26528 7.8804 4.21129 7.96127C3.4605 7.33325 2.7234 6.51299 2 5.50049C3.90478 2.8335 5.90478 1.5 8 1.5ZM12.5885 3.78576L11.8758 4.49845C12.1054 4.74002 12.3346 5.00389 12.5633 5.29026L12.7267 5.49925L12.5633 5.70909C11.0615 7.58966 9.54173 8.5 7.99985 8.5L7.87691 8.49731L6.98094 9.39328C7.31809 9.46443 7.65778 9.5 8 9.5C10.0952 9.5 12.0952 8.1665 14 5.49951C13.5351 4.84888 13.0646 4.27763 12.5885 3.78576ZM8 3.5C8.19216 3.5 8.37799 3.5271 8.55388 3.57769L7.49471 4.63687C7.347 4.72352 7.22352 4.847 7.13687 4.99471L6.07769 6.05388C6.0271 5.878 6 5.69216 6 5.5C6 4.39543 6.89543 3.5 8 3.5ZM1 11H8C8.24546 11 8.44961 11.1769 8.49194 11.4101L8.5 11.5V13.5H11C11.2761 13.5 11.5 13.7239 11.5 14C11.5 14.2455 11.3231 14.4496 11.0899 14.4919L11 14.5H8H5C4.72386 14.5 4.5 14.2761 4.5 14C4.5 13.7545 4.67688 13.5504 4.91012 13.5081L5 13.5H7.5V12H0.5C0.25454 12 0.0503916 11.8231 0.00805567 11.5899L0 11.5V2.5C0 2.25454 0.176875 2.05039 0.410124 2.00806C0.439281 2.00276 0.469318 2 0.5 2H1H1.5C1.77614 2 2 2.22386 2 2.5C2 2.77614 1.77614 3 1.5 3H1V11ZM15.9919 2.41012C15.9496 2.17688 15.7455 2 15.5 2H15H14.5C14.2239 2 14 2.22386 14 2.5C14 2.77614 14.2239 3 14.5 3H15V11H11L10.9101 11.0081C10.6769 11.0504 10.5 11.2545 10.5 11.5C10.5 11.7761 10.7239 12 11 12H15.5L15.5899 11.9919C15.8231 11.9496 16 11.7455 16 11.5V2.5C16 2.46932 15.9972 2.43928 15.9919 2.41012ZM12.0936 2.14646C11.8983 1.9512 11.5817 1.9512 11.3864 2.14646L4.09355 9.43935C3.89829 9.63462 3.89829 9.9512 4.09355 10.1465C4.28882 10.3417 4.6054 10.3417 4.80066 10.1465L12.0936 2.85357C12.2888 2.65831 12.2888 2.34172 12.0936 2.14646Z" fill="#242424"/>
</svg>
