<svg width="16" height="16" fill="none" viewBox="0 0 16 16">
  <path fill="#242424" fill-rule="evenodd" d="M8 3.501a2 2 0 1 1 0 4 2 2 0 0 1 0-4Zm0 1a1 1 0 1 0 0 2 1 1 0 0 0 0-2Z M8 1.501c2.095 0 4.095 1.333 6 4-1.905 2.666-3.905 4-6 4s-4.095-1.333-6-4c1.905-2.667 3.905-4 6-4Zm0 1c-1.542 0-3.062.91-4.564 2.79l-.164.21.164.21c1.447 1.81 2.91 2.721 4.393 2.786l.17.004c1.543 0 3.063-.91 4.564-2.79l.164-.21-.164-.21c-1.446-1.81-2.909-2.721-4.392-2.786L8 2.5Z M1 11.001h7a.5.5 0 0 1 .492.41l.008.09v2H11a.5.5 0 0 1 .09.992L11 14.5H5a.5.5 0 0 1-.09-.992L5 13.5h2.5V12h-7a.5.5 0 0 1-.492-.41L0 11.5v-9A.5.5 0 0 1 .5 2h1a.5.5 0 1 1 0 1H1v8Zm14.992-8.59a.5.5 0 0 0-.492-.41h-1a.5.5 0 0 0 0 1h.5v8h-4l-.09.008a.5.5 0 0 0 .09.992h4.5l.09-.008A.5.5 0 0 0 16 11.5v-9c0-.03-.003-.06-.008-.09Z" clip-rule="evenodd"/>
</svg>