<svg xmlns="http://www.w3.org/2000/svg" width="16" height="16" fill="none" viewBox="0 0 16 16">
  <path fill="#242424" d="M3 1.501v3H1a1 1 0 0 0-1 1v6a1 1 0 0 0 1 1h2v.5a.5.5 0 0 0 .992.09L4 13V8.5h8v6H3.5a.5.5 0 0 0-.492.41L3 15a.5.5 0 0 0 .41.492l.09.008h9a.5.5 0 0 0 .492-.41L13 15v-2.5h2a1 1 0 0 0 1-1v-6a1 1 0 0 0-1-1H4v-3h8v3h1v-3a1 1 0 0 0-1-1H4a1 1 0 0 0-1 1Zm0 10H1v-6h14v6h-2v-3.5a.5.5 0 0 0-.41-.492l-.09-.008h-9a.5.5 0 0 0-.492.41L3 8.001v3.5Z M5 10.001a.5.5 0 0 1 .5-.5h5a.5.5 0 0 1 0 1h-5a.5.5 0 0 1-.5-.5Zm.5 1.5a.5.5 0 1 0 0 1h5a.5.5 0 0 0 0-1h-5Z"/>
</svg>
