<svg width="16" height="16" viewBox="0 0 16 16" fill="none" xmlns="http://www.w3.org/2000/svg">
<path fill-rule="evenodd" clip-rule="evenodd" d="M3 1V4H1C0.447715 4 0 4.44772 0 5V11C0 11.5523 0.447715 12 1 12H3V12.5C3 12.7761 3.22386 13 3.5 13C3.74546 13 3.94961 12.8231 3.99194 12.5899L4 12.5L4 8H12V14H3.5C3.25454 14 3.05039 14.1769 3.00806 14.4101L3 14.5C3 14.7455 3.17687 14.9496 3.41012 14.9919L3.5 15H12.5C12.7455 15 12.9496 14.8231 12.9919 14.5899L13 14.5V12H15C15.5523 12 16 11.5523 16 11V5C16 4.44772 15.5523 4 15 4H13V1C13 0.447715 12.5523 0 12 0H4C3.44772 0 3 0.447715 3 1ZM12 1H4V4H12V1ZM13 11H15V5H1V11H3L3 7.5L3.00806 7.41012C3.05039 7.17688 3.25454 7 3.5 7L12.5 7L12.5899 7.00806C12.8231 7.05039 13 7.25454 13 7.5V11Z" fill="#242424"/>
<path d="M5 9.5C5 9.22386 5.22386 9 5.5 9H10.5C10.7761 9 11 9.22386 11 9.5C11 9.77614 10.7761 10 10.5 10H5.5C5.22386 10 5 9.77614 5 9.5Z" fill="#242424"/>
<path d="M5.5 11C5.22386 11 5 11.2239 5 11.5C5 11.7761 5.22386 12 5.5 12H10.5C10.7761 12 11 11.7761 11 11.5C11 11.2239 10.7761 11 10.5 11H5.5Z" fill="#242424"/>
</svg>
