<svg width="16" height="16" fill="none" viewBox="0 0 16 16">
  <path fill="#000" fill-rule="evenodd" d="m8.852 4.123-.967-1.705-.967 1.705-1.92.393L6.32 5.962 6.1 7.909l1.785-.81 1.784.81-.22-1.947 1.322-1.446-1.92-.393Z M12.944 5.453a5.06 5.06 0 0 1-4.187 4.984l1.936 3.353.24-.893a.505.505 0 0 1 .619-.358l.893.24-1.412-2.447.876-.506 2.023 3.505a.506.506 0 0 1-.569.741l-1.584-.424-.425 1.584a.506.506 0 0 1-.927.122l-2.782-4.819.047-.027A5.03 5.03 0 0 1 5.28 9.79l-1.725 2.99.893-.24a.506.506 0 0 1 .62.358l.239.893 1.413-2.447.876.506-2.023 3.505a.506.506 0 0 1-.927-.122l-.425-1.584-1.584.424a.506.506 0 0 1-.569-.741L4.464 9.18a5.058 5.058 0 1 1 8.48-3.726ZM7.885 9.512a4.058 4.058 0 1 0 0-8.117 4.058 4.058 0 0 0 0 8.117Z" clip-rule="evenodd"/>
</svg>