<svg width="16" height="16" fill="none" viewBox="0 0 16 16">
  <path fill="#242424" d="M8 .001A7.997 7.997 0 0 1 14.986 4.1a.5.5 0 0 1-.873.488A7 7 0 1 0 15 8.001a.5.5 0 0 1 1 0 8 8 0 1 1-8-8Z M8 5.701c-.576 0-1 .367-1 .833a.5.5 0 0 1-1 0c0-1.2 1.072-1.833 2-1.833.928 0 2 .633 2 1.833 0 .868-.59 1.29-1.007 1.52a6.449 6.449 0 0 1-.25.132l-.04.02a3.11 3.11 0 0 0-.202.11L8.5 9a.5.5 0 0 1-1 .001v-.8c0-.412.317-.636.468-.73.091-.058.192-.11.279-.155l.047-.024a6.61 6.61 0 0 0 .213-.111c.334-.186.493-.348.493-.647 0-.466-.424-.833-1-.833Zm.443 2.658.006-.006a.05.05 0 0 1-.006.006Zm.057 2.542a.5.5 0 1 0-1 0 .5.5 0 0 0 1 0Z"/>
</svg>
