<svg xmlns="http://www.w3.org/2000/svg" width="16" height="16" viewBox="0 0 16 16"><path fill="#242424" d="M5.01932626,0.577423641 C8.75442584,-0.922583545 13.0223563,0.586404666 14.9845514,4.10077239 C15.0800815,4.25708189 15.0824722,4.45312128 14.9907823,4.61171388 C14.8990923,4.77030649 14.7280073,4.86605132 14.5448798,4.8612556 C14.3617524,4.85645988 14.1959131,4.75189172 14.1126496,4.58871746 C12.3967116,1.51302438 8.66261179,0.191444746 5.39393946,1.50297519 C2.12526713,2.81450563 0.340266142,6.35058339 1.2261596,9.75932564 C2.11205306,13.1680679 5.39287095,15.3875968 8.88650648,14.9416801 C12.380142,14.4957634 14.9982717,11.5233113 14.9995497,8.00133327 C14.9995497,7.72522197 15.2233822,7.50138955 15.4994935,7.50138955 C15.7756048,7.50138955 15.9994372,7.72522197 15.9994372,8.00133327 C15.9989196,12.0263786 13.0076723,15.4241301 9.01514967,15.9347705 C5.02262707,16.445411 1.27251684,13.9098738 0.258987045,10.0145243 C-0.754542754,6.11917484 1.28422669,2.07743083 5.01932626,0.577423641 Z M8.00033772,10.4010631 C8.27644901,10.4010631 8.50028143,10.6248955 8.50028143,10.9010068 C8.50028143,11.1771181 8.27644901,11.4009505 8.00033772,11.4009505 C7.72422643,11.4009505 7.500394,11.1771181 7.500394,10.9010068 C7.500394,10.6248955 7.72422643,10.4010631 8.00033772,10.4010631 Z M7.99933783,4.70270462 C8.92723337,4.70270462 9.99911269,5.33563337 9.99911269,6.53549829 C9.99911269,7.40340058 9.40917911,7.82435319 8.99222605,8.05532719 L8.70225869,8.20731008 C8.63372324,8.24107986 8.56666906,8.27777618 8.50128132,8.31729769 L8.49928155,9.00022081 C8.49946016,9.1788335 8.40433647,9.34397371 8.24974265,9.43343474 C8.09514883,9.52289577 7.90457137,9.52308635 7.74979893,9.43393468 C7.5950265,9.34478302 7.49956296,9.17983338 7.49939411,9.0012207 L7.49939411,8.20131075 C7.49939411,7.79035702 7.81635843,7.56638223 7.96734143,7.47139293 L8.10230008,7.39314252 L8.50628076,7.18142557 C8.84024316,6.9964464 8.99922526,6.83446463 8.99922526,6.53549829 C8.99922526,6.06955075 8.57527299,5.70259206 7.99933783,5.70259206 C7.46454089,5.70259206 7.06079043,6.01813817 7.00584035,6.43708043 L6.9994504,6.53549829 C6.9994504,6.81160958 6.77561797,7.03544201 6.49950668,7.03544201 C6.22339539,7.03544201 5.99956296,6.81160958 5.99956296,6.53549829 C5.99956296,5.33563337 7.07144229,4.70270462 7.99933783,4.70270462 Z"/></svg>