<svg width="16" height="16" viewBox="0 0 16 16" fill="none" xmlns="http://www.w3.org/2000/svg">
<path d="M8 0C10.9296 0 13.5813 1.58861 14.9859 4.09882C15.1207 4.3398 15.0347 4.64447 14.7937 4.77931C14.5527 4.91416 14.248 4.82812 14.1132 4.58713C12.8837 2.38979 10.5639 1 8 1C4.13401 1 1 4.13401 1 8C1 11.866 4.13401 15 8 15C11.866 15 15 11.866 15 8C15 7.72386 15.2239 7.5 15.5 7.5C15.7761 7.5 16 7.72386 16 8C16 12.4183 12.4183 16 8 16C3.58172 16 0 12.4183 0 8C0 3.58172 3.58172 0 8 0Z" fill="#242424"/>
<path d="M8 5.7C7.42425 5.7 7 6.06667 7 6.53333C7 6.80947 6.77614 7.03333 6.5 7.03333C6.22386 7.03333 6 6.80947 6 6.53333C6 5.33333 7.07236 4.7 8 4.7C8.92764 4.7 9.99999 5.33333 10 6.53333C10 7.40127 9.40934 7.82235 8.99282 8.05374C8.90591 8.10203 8.81823 8.14665 8.74347 8.18471L8.70216 8.20576C8.6135 8.25108 8.54989 8.2849 8.50078 8.31582L8.50001 8.9991C8.50002 9.27525 8.27617 9.49999 8.00002 9.5C7.72388 9.50001 7.50002 9.27616 7.50001 9.00001L7.5 8.2C7.5 7.7885 7.81728 7.56447 7.96797 7.46959C8.05948 7.41197 8.15993 7.35985 8.24705 7.31533L8.29391 7.29143C8.36858 7.2534 8.43751 7.21829 8.50718 7.17958C8.84067 6.99431 9 6.83205 9 6.53333C9 6.06666 8.57575 5.7 8 5.7ZM8.44258 8.35825C8.4423 8.35825 8.4441 8.35627 8.44876 8.35234C8.44518 8.35629 8.44285 8.35826 8.44258 8.35825Z" fill="#242424"/>
<path d="M8.5 10.9C8.5 10.6239 8.27614 10.4 8 10.4C7.72386 10.4 7.5 10.6239 7.5 10.9C7.5 11.1761 7.72386 11.4 8 11.4C8.27614 11.4 8.5 11.1761 8.5 10.9Z" fill="#242424"/>
</svg>
