<svg xmlns="http://www.w3.org/2000/svg" width="16" height="16" viewBox="0 0 16 16"><path fill="#242424" fill-rule="evenodd" d="M8,0 C10.9296247,0 13.581254,1.58861071 14.9858712,4.09882317 C15.1207147,4.33980414 15.0346734,4.64447011 14.7936924,4.77931368 C14.5527114,4.91415724 14.2480455,4.82811588 14.1132019,4.58713492 C12.8836552,2.3897936 10.5638815,1 8,1 C4.13400675,1 1,4.13400675 1,8 C1,11.8659932 4.13400675,15 8,15 C11.8659932,15 15,11.8659932 15,8 C15,7.72385763 15.2238576,7.5 15.5,7.5 C15.7761424,7.5 16,7.72385763 16,8 C16,12.418278 12.418278,16 8,16 C3.581722,16 0,12.418278 0,8 C0,3.581722 3.581722,0 8,0 Z M11.5355339,4.46446609 C11.7307961,4.65972824 11.7307961,4.97631073 11.5355339,5.17157288 L8.70710678,8 L11.5355339,10.8284271 C11.7307961,11.0236893 11.7307961,11.3402718 11.5355339,11.5355339 C11.3402718,11.7307961 11.0236893,11.7307961 10.8284271,11.5355339 L7.99929289,8.70639967 L5.17157288,11.5355339 C4.97631073,11.7307961 4.65972824,11.7307961 4.46446609,11.5355339 C4.26920395,11.3402718 4.26920395,11.0236893 4.46446609,10.8284271 L7.29218611,7.99929289 L4.46446609,5.17157288 C4.26920395,4.97631073 4.26920395,4.65972824 4.46446609,4.46446609 C4.65972824,4.26920395 4.97631073,4.26920395 5.17157288,4.46446609 L8,7.29289322 L10.8284271,4.46446609 C11.0236893,4.26920395 11.3402718,4.26920395 11.5355339,4.46446609 Z"/></svg>