<svg xmlns="http://www.w3.org/2000/svg" width="16" height="16" viewBox="0 0 16 16"><path fill="#242424" fill-rule="evenodd" d="M4.83125377,8.16271845 C5.0312493,8.35556996 5.05347103,8.6549304 4.89791895,8.87145056 L4.83125377,8.94839266 L1.62943474,12 L4.83125377,15.0516073 C5.0312493,15.2444588 5.05347103,15.5438193 4.89791895,15.7603394 L4.83125377,15.8372815 C4.63125823,16.030133 4.32080821,16.051561 4.09626723,15.9015654 L4.01647488,15.8372815 L2.70894418e-14,12 L4.01647488,8.16271845 C4.24146985,7.94576052 4.60625879,7.94576052 4.83125377,8.16271845 Z M15.5,7.5 C15.7761424,7.5 16,7.72385763 16,8 C16,10.4142733 14.0987635,12.3844891 11.7118357,12.495102 L11.5,12.5 L3.5,12.5 C3.22385763,12.5 3,12.2761424 3,12 C3,11.7545401 3.17687516,11.5503916 3.41012437,11.5080557 L3.5,11.5 L11.5,11.5 C13.4329966,11.5 15,9.93299662 15,8 C15,7.72385763 15.2238576,7.5 15.5,7.5 Z M12.5,3.5 C12.7761424,3.5 13,3.72385763 13,4 C13,4.24545989 12.8231248,4.44960837 12.5898756,4.49194433 L12.5,4.5 L4.5,4.5 C2.56700338,4.5 1,6.06700338 1,8 C1,8.27614237 0.776142375,8.5 0.5,8.5 C0.223857625,8.5 0,8.27614237 0,8 C0,5.58572667 1.90123652,3.61551091 4.2881643,3.50489799 L4.5,3.5 L12.5,3.5 Z M11.9037328,0.0984346209 L11.9835251,0.162718455 L16,4 L11.9835251,7.83728155 C11.7585301,8.05423948 11.3937412,8.05423948 11.1687462,7.83728155 C10.9687507,7.64443004 10.946529,7.3450696 11.1020811,7.12854944 L11.1687462,7.05160734 L14.3705653,4 L11.1687462,0.948392656 C10.9687507,0.755541154 10.946529,0.456180708 11.1020811,0.239660552 L11.1687462,0.162718455 C11.3687418,-0.0301330472 11.6791918,-0.0515609919 11.9037328,0.0984346209 Z"/></svg>