<svg width="16" height="16" fill="none" viewBox="0 0 16 16">
  <path fill="#242424" d="M11.904.1a.592.592 0 0 0-.735.064l-.067.077a.541.541 0 0 0 .067.708l3.202 3.052-3.202 3.052-.067.077a.541.541 0 0 0 .067.708.59.59 0 0 0 .814 0L16 4.001 11.983.164l-.08-.065ZM4.096 15.902a.59.59 0 0 0 .735-.064l.067-.077a.54.54 0 0 0-.067-.708L1.63 12l3.202-3.052.067-.077a.541.541 0 0 0-.067-.708.591.591 0 0 0-.815 0L0 12l4.016 3.837.08.065Z M15.5 7.501a.5.5 0 0 1 .5.5 4.5 4.5 0 0 1-4.288 4.495l-.212.005h-8a.5.5 0 0 1-.09-.992l.09-.008h8a3.5 3.5 0 0 0 3.5-3.5.5.5 0 0 1 .5-.5Zm-15.5.5a.5.5 0 0 0 1 0 3.5 3.5 0 0 1 3.5-3.5h8l.09-.008a.5.5 0 0 0-.09-.992h-8l-.212.005A4.5 4.5 0 0 0 0 8Z"/>
</svg>
