<svg width="16" height="16" viewBox="0 0 16 16" fill="none" xmlns="http://www.w3.org/2000/svg">
<path fill-rule="evenodd" clip-rule="evenodd" d="M11.9037 0.0984344C11.6792 -0.0515614 11.3687 -0.0301332 11.1687 0.162718L11.1021 0.239661C10.9465 0.456181 10.9688 0.755541 11.1687 0.948393L14.3706 4L11.1687 7.05161L11.1021 7.12855C10.9465 7.34507 10.9688 7.64443 11.1687 7.83728C11.3937 8.05424 11.7585 8.05424 11.9835 7.83728L16 4L11.9835 0.162718L11.9037 0.0984344ZM4.09627 15.9016C4.32081 16.0516 4.63126 16.0301 4.83125 15.8373L4.89792 15.7603C5.05347 15.5438 5.03125 15.2445 4.83125 15.0516L1.62943 12L4.83125 8.94839L4.89792 8.87145C5.05347 8.65493 5.03125 8.35557 4.83125 8.16272C4.60626 7.94576 4.24147 7.94576 4.01647 8.16272L0 12L4.01647 15.8373L4.09627 15.9016ZM15.5 7.5C15.7761 7.5 16 7.72386 16 8C16 10.4143 14.0988 12.3845 11.7118 12.4951L11.5 12.5H3.5C3.22386 12.5 3 12.2761 3 12C3 11.7545 3.17688 11.5504 3.41012 11.5081L3.5 11.5H11.5C13.433 11.5 15 9.933 15 8C15 7.72386 15.2239 7.5 15.5 7.5ZM0 8C0 8.27614 0.223858 8.5 0.5 8.5C0.776142 8.5 1 8.27614 1 8C1 6.067 2.567 4.5 4.5 4.5H12.5L12.5899 4.49194C12.8231 4.44961 13 4.24546 13 4C13 3.72386 12.7761 3.5 12.5 3.5H4.5L4.28816 3.5049C1.90124 3.61551 0 5.58573 0 8Z" fill="#242424"/>
</svg>
