<svg xmlns="http://www.w3.org/2000/svg" width="16" height="16" viewBox="0 0 16 16"><path fill="#242424" fill-rule="evenodd" d="M4.83125377,6.41271845 C5.0312493,6.60556996 5.05347103,6.9049304 4.89791895,7.12145056 L4.83125377,7.19839266 L1.62943474,10.25 L4.83125377,13.3016073 C5.0312493,13.4944588 5.05347103,13.7938193 4.89791895,14.0103394 L4.83125377,14.0872815 C4.63125823,14.280133 4.32080821,14.301561 4.09626723,14.1515654 L4.01647488,14.0872815 L0,10.25 L4.01647488,6.41271845 C4.24146985,6.19576052 4.60625879,6.19576052 4.83125377,6.41271845 Z M11.5,1.75 C13.9852814,1.75 16,3.76471863 16,6.25 C16,8.66427333 14.0987635,10.6344891 11.7118357,10.745102 L11.5,10.75 L3.5,10.75 C3.22385763,10.75 3,10.5261424 3,10.25 C3,10.0045401 3.17687516,9.80039163 3.41012437,9.75805567 L3.5,9.75 L11.5,9.75 C13.4329966,9.75 15,8.18299662 15,6.25 C15,4.3814366 13.5357224,2.85487355 11.6920352,2.75517886 L11.5,2.75 L2.5,2.75 C2.22385763,2.75 2,2.52614237 2,2.25 C2,2.00454011 2.17687516,1.80039163 2.41012437,1.75805567 L2.5,1.75 L11.5,1.75 Z"/></svg>