<svg width="16" height="16" viewBox="0 0 16 16" fill="none" xmlns="http://www.w3.org/2000/svg">
<path fill-rule="evenodd" clip-rule="evenodd" d="M16 6.25C16 3.76472 13.9853 1.75 11.5 1.75H2.5L2.41012 1.75806C2.17688 1.80039 2 2.00454 2 2.25C2 2.52614 2.22386 2.75 2.5 2.75H11.5L11.692 2.75518C13.5357 2.85487 15 4.38144 15 6.25C15 8.183 13.433 9.75 11.5 9.75H3.5L3.41012 9.75806C3.17688 9.80039 3 10.0045 3 10.25C3 10.5261 3.22386 10.75 3.5 10.75H11.5L11.7118 10.7451C14.0988 10.6345 16 8.66427 16 6.25ZM4.09627 14.1516C4.32081 14.3016 4.63126 14.2801 4.83125 14.0873L4.89792 14.0103C5.05347 13.7938 5.03125 13.4945 4.83125 13.3016L1.62943 10.25L4.83125 7.19839L4.89792 7.12145C5.05347 6.90493 5.03125 6.60557 4.83125 6.41272C4.60626 6.19576 4.24147 6.19576 4.01647 6.41272L0 10.25L4.01647 14.0873L4.09627 14.1516Z" fill="#242424"/>
</svg>
