<svg xmlns="http://www.w3.org/2000/svg" width="16" height="16" viewBox="0 0 16 16"><path fill="#242424" fill-rule="evenodd" d="M13.8825365,2.17789336 L13.9341216,2.25193053 L15.9341216,5.75193053 L15.9578498,5.79875548 C15.9621317,5.80848312 15.9661127,5.8183731 15.969781,5.82841363 L15.9341216,5.75193053 C15.9758957,5.82503526 15.9971883,5.90424518 15.999809,5.98292444 L16,6 L16,15 C16,15.2454599 15.8231248,15.4496084 15.5898756,15.4919443 L15.5,15.5 L0.5,15.5 C0.254540111,15.5 0.0503916296,15.3231248 0.00805566941,15.0898756 L0,15 L0,6 L0.000100061703,5.98592465 C0.00149156034,5.93492593 0.0107211312,5.88366872 0.0282819078,5.83396116 C0.0338872845,5.8183731 0.0378682566,5.80848312 0.0421501508,5.79875548 L0.0658784289,5.75193053 L2.06587843,2.25193053 C2.20288341,2.01217181 2.50831075,1.92887344 2.74806947,2.06587843 C2.96118833,2.18766064 3.0506842,2.44251729 2.97171809,2.66603884 L2.93412157,2.74806947 L1.361,5.5 L5,5.5 C5.27614237,5.5 5.5,5.72385763 5.5,6 C5.5,6.24545989 5.32312484,6.44960837 5.08987563,6.49194433 L5,6.5 L1,6.5 L1,14.5 L15,14.5 L15,6.5 L11,6.5 C10.7545401,6.5 10.5503916,6.32312484 10.5080557,6.08987563 L10.5,6 C10.5,5.75454011 10.6768752,5.55039163 10.9101244,5.50805567 L11,5.5 L14.638,5.5 L13.0658784,2.74806947 C12.9288734,2.50831075 13.0121718,2.20288341 13.2519305,2.06587843 C13.4650494,1.94409622 13.7300546,1.99638085 13.8825365,2.17789336 Z M10.4114088,2.42280128 L10.3535534,2.35355339 L8,-1.0658141e-13 L5.64644661,2.35355339 C5.45118446,2.54881554 5.45118446,2.86539803 5.64644661,3.06066017 C5.82001296,3.23422652 6.08943736,3.25351167 6.2843055,3.11851562 L6.35355339,3.06066017 L7.5,1.91510678 L7.5,9.70710678 C7.5,9.98324916 7.72385763,10.2071068 8,10.2071068 C8.24545989,10.2071068 8.44960837,10.0302316 8.49194433,9.79698241 L8.5,9.70710678 L8.5,1.91510678 L9.64644661,3.06066017 C9.82001296,3.23422652 10.0894374,3.25351167 10.2843055,3.11851562 L10.3535534,3.06066017 C10.5271197,2.88709382 10.5464049,2.61766942 10.4114088,2.42280128 Z"/></svg>