<svg width="16" height="16" viewBox="0 0 16 16" fill="none" xmlns="http://www.w3.org/2000/svg">
<path d="M6.85355 2.42947L6.91141 2.50095C7.0464 2.70211 7.02712 2.98022 6.85355 3.15939L6.78431 3.21911C6.58944 3.35846 6.32001 3.33855 6.14645 3.15939L5 1.97688V5.8912L4.99194 5.98398C4.94961 6.22475 4.74546 6.40733 4.5 6.40733C4.22386 6.40733 4 6.17625 4 5.8912V1.97688L2.85355 3.15939L2.78431 3.21911C2.58944 3.35846 2.32001 3.33855 2.14645 3.15939C1.95118 2.95783 1.95118 2.63103 2.14645 2.42947L4.5 0L6.85355 2.42947Z" fill="#242424"/>
<path fill-rule="evenodd" clip-rule="evenodd" d="M7.49998 5.1613C7.49998 4.87625 7.72384 4.64517 7.99998 4.64517H13.2342L15.882 7.925C15.9372 7.99247 15.976 8.07477 15.9919 8.1653L16 8.25807V15.4839C16 15.7372 15.8231 15.948 15.5899 15.9917L15.5 16H0.5C0.25454 16 0.0503916 15.8174 0.00805567 15.5766L0 15.4839V8.25807C0 8.11555 0.0559621 7.98652 0.146441 7.89312L1.64642 6.34472C1.84169 6.14316 2.15827 6.14316 2.35353 6.34472C2.54879 6.54628 2.54879 6.87307 2.35353 7.07463L1.70707 7.74194H14.4325L12.7658 5.67743H7.99998C7.72384 5.67743 7.49998 5.44635 7.49998 5.1613ZM10.65 10.4434C10.2091 11.2659 9.36704 11.871 7.99999 11.871C6.63294 11.871 5.79085 11.2659 5.35 10.4434C5.05766 9.89807 4.95961 9.29169 4.96006 8.7742H1V14.9677H15V8.7742H11.0399C11.0404 9.29169 10.9423 9.89807 10.65 10.4434ZM10.0401 8.7742H5.95988C5.95952 9.15089 6.03049 9.58084 6.22498 9.94367C6.4758 10.4116 6.96704 10.8387 7.99999 10.8387C9.03294 10.8387 9.52418 10.4116 9.775 9.94367C9.96949 9.58084 10.0405 9.15089 10.0401 8.7742Z" fill="#242424"/>
</svg>
