<svg width="16" height="16" fill="none" viewBox="0 0 16 16">
  <path fill="#242424" fill-rule="evenodd" d="m6.854 2.43.057.072a.529.529 0 0 1-.057.658l-.07.06a.489.489 0 0 1-.638-.06L5 1.978v3.914l-.008.093a.505.505 0 0 1-.492.423.508.508 0 0 1-.5-.516V1.978L2.854 3.16l-.07.06a.489.489 0 0 1-.638-.06.528.528 0 0 1 0-.73L4.5.001l2.354 2.43Z M7.5 5.162c0-.285.224-.516.5-.516h5.234l2.648 3.28c.055.067.094.15.11.24L16 8.26v7.226a.512.512 0 0 1-.41.508L15.5 16H.5a.505.505 0 0 1-.492-.423L0 15.485V8.259c0-.142.056-.272.146-.365l1.5-1.548a.489.489 0 0 1 .708 0 .528.528 0 0 1 0 .73l-.647.667h12.726l-1.667-2.065H8a.508.508 0 0 1-.5-.516Zm3.15 5.282c-.44.823-1.283 1.428-2.65 1.428s-2.21-.605-2.65-1.428c-.292-.545-.39-1.151-.39-1.669H1v6.194h14V8.775h-3.96c0 .518-.098 1.124-.39 1.67Zm-.61-1.669H5.96c0 .377.07.807.265 1.17.25.467.742.895 1.775.895s1.524-.428 1.775-.895c.194-.363.265-.793.265-1.17Z" clip-rule="evenodd"/>
</svg>