<svg width="16" height="16" viewBox="0 0 16 16" fill="none" xmlns="http://www.w3.org/2000/svg">
<path fill-rule="evenodd" clip-rule="evenodd" d="M7.5 5H6.14286C5.31443 5 4.64286 5.67157 4.64286 6.5V6.73531H4C3.17157 6.73531 2.5 7.40688 2.5 8.23531V14C2.5 14.8284 3.17157 15.5 4 15.5H12C12.8284 15.5 13.5 14.8284 13.5 14V8.23531C13.5 7.40688 12.8284 6.73531 12 6.73531H11.3571V6.5C11.3571 5.67157 10.6856 5 9.85714 5H8.5V4H7.5V5ZM10.3571 6.73531V6.5C10.3571 6.22386 10.1333 6 9.85714 6H6.14286C5.86672 6 5.64286 6.22386 5.64286 6.5V6.73531H10.3571ZM4 7.73531C3.72386 7.73531 3.5 7.95917 3.5 8.23531V14C3.5 14.2762 3.72386 14.5 4 14.5H12C12.2761 14.5 12.5 14.2762 12.5 14V8.23531C12.5 7.95917 12.2761 7.73531 12 7.73531H4Z" fill="#242424"/>
<path fill-rule="evenodd" clip-rule="evenodd" d="M13.5 9.50001H13V8.50001H13.5C14.3284 8.50001 15 9.17159 15 10V12.5C15 13.3284 14.3284 14 13.5 14H13V13H13.5C13.7761 13 14 12.7762 14 12.5V10C14 9.72387 13.7761 9.50001 13.5 9.50001Z" fill="#242424"/>
<path fill-rule="evenodd" clip-rule="evenodd" d="M2.5 9.50001H3V8.50001H2.5C1.67157 8.50001 1 9.17159 1 10V12.5C1 13.3284 1.67157 14 2.5 14L3 14V13H2.5C2.22386 13 2 12.7762 2 12.5V10C2 9.72387 2.22386 9.50001 2.5 9.50001Z" fill="#242424"/>
<path fill-rule="evenodd" clip-rule="evenodd" d="M5.66896 11.6253C5.87591 11.4425 6.19189 11.462 6.37472 11.669C6.65724 11.9888 7.16411 12.3642 7.74061 12.4704C8.27401 12.5687 8.93406 12.4514 9.62528 11.669C9.80811 11.462 10.1241 11.4425 10.331 11.6253C10.538 11.8081 10.5575 12.1241 10.3747 12.3311C9.46594 13.3597 8.45932 13.6197 7.55939 13.4539C6.70255 13.296 6.00943 12.7659 5.62528 12.3311C5.44246 12.1241 5.46201 11.8081 5.66896 11.6253Z" fill="#242424"/>
<path fill-rule="evenodd" clip-rule="evenodd" d="M8 3.38235C8.55228 3.38235 9 2.93464 9 2.38235C9 1.83007 8.55228 1.38235 8 1.38235C7.44772 1.38235 7 1.83007 7 2.38235C7 2.93464 7.44772 3.38235 8 3.38235ZM8 4.38235C9.10457 4.38235 10 3.48692 10 2.38235C10 1.27778 9.10457 0.382352 8 0.382352C6.89543 0.382352 6 1.27778 6 2.38235C6 3.48692 6.89543 4.38235 8 4.38235Z" fill="#242424"/>
<path d="M7 9.75001C7 10.1642 6.66421 10.5 6.25 10.5C5.83579 10.5 5.5 10.1642 5.5 9.75001C5.5 9.3358 5.83579 9.00001 6.25 9.00001C6.66421 9.00001 7 9.3358 7 9.75001Z" fill="#242424"/>
<path d="M10.5 9.75001C10.5 10.1642 10.1642 10.5 9.75 10.5C9.33579 10.5 9 10.1642 9 9.75001C9 9.3358 9.33579 9.00001 9.75 9.00001C10.1642 9.00001 10.5 9.3358 10.5 9.75001Z" fill="#242424"/>
</svg>
