<svg width="16" height="16" fill="none" viewBox="0 0 16 16">
  <path fill="#242424" fill-rule="evenodd" d="m5.299 16.001.39-1.153c-.938-.305-1.423-1.139-1.456-2.502v-1.741c0-1.237-.469-2.107-1.407-2.608.938-.496 1.407-1.357 1.407-2.584V3.647c.033-1.362.518-2.196 1.456-2.501L5.3 0c-.955.273-1.677.711-2.168 1.316-.491.605-.745 1.398-.76 2.38V5.43c0 1.232-.524 1.847-1.571 1.847v1.456c1.047 0 1.57.613 1.57 1.84v1.74c.038 1.92 1.014 3.148 2.929 3.688Zm5.394 0c.982-.278 1.715-.729 2.2-1.353.486-.624.729-1.446.729-2.465v-1.61c0-1.227.526-1.84 1.578-1.84V7.277c-1.052 0-1.578-.613-1.578-1.84V3.804c0-1.009-.242-1.825-.724-2.449C12.415.73 11.68.28 10.693.001l-.39 1.145c.954.31 1.442 1.16 1.464 2.55V5.39c0 1.275.493 2.147 1.48 2.616-.987.469-1.48 1.333-1.48 2.592v1.7c-.022 1.39-.51 2.24-1.465 2.551l.39 1.153Z" clip-rule="evenodd"/>
</svg>
