<svg width="16" height="16" viewBox="0 0 16 16" fill="none" xmlns="http://www.w3.org/2000/svg">
<path fill-rule="evenodd" clip-rule="evenodd" d="M12 4H8.8V5.52001H12C13.368 5.52001 14.48 6.63201 14.48 8.00002C14.48 9.14402 13.696 10.104 12.632 10.384L13.8 11.552C15.104 10.888 16 9.56002 16 8.00002C16 5.79201 14.208 4 12 4ZM11.2 7.20001H9.448L11.048 8.80002H11.2V7.20001ZM0 1.81599L2.488 4.304C1.032 4.896 0 6.32801 0 8.00002C0 10.208 1.792 12 4 12H7.2V10.48H4C2.632 10.48 1.52 9.36802 1.52 8.00002C1.52 6.72801 2.488 5.68001 3.728 5.54401L5.384 7.20001H4.8V8.80002H6.984L8.8 10.616V12H10.184L13.392 15.2L14.4 14.192L1.016 0.799988L0 1.81599Z" fill="#242424"/>
</svg>
