<svg width="16" height="16" fill="none" viewBox="0 0 16 16">
  <path fill="#242424" d="M0 7.906v.19c0 .94.09 1.798.27 2.574a8.7 8.7 0 0 0 .737 2.036c.308.586.65 1.072 1.026 1.457.38.386.77.665 1.167.838l.404-1.13a3.519 3.519 0 0 1-.699-.763 5.49 5.49 0 0 1-.603-1.178 8.655 8.655 0 0 1-.43-1.648A13.655 13.655 0 0 1 1.72 8.11v-.218c0-.817.05-1.541.154-2.172.106-.631.25-1.18.43-1.648.179-.468.38-.86.602-1.178a3.52 3.52 0 0 1 .699-.763L3.2 1.001c-.398.168-.787.447-1.167.838-.376.385-.718.871-1.026 1.457a8.685 8.685 0 0 0-.738 2.043A11.34 11.34 0 0 0 0 7.906Zm16 0v.19c0 .895-.096 1.725-.289 2.492a8.744 8.744 0 0 1-.763 2.05c-.32.6-.68 1.099-1.077 1.498-.393.404-.797.693-1.212.865l-.417-1.13c.24-.187.47-.44.693-.763.226-.318.43-.71.609-1.178.18-.468.32-1.017.423-1.648a13.1 13.1 0 0 0 .16-2.172v-.218c0-.817-.053-1.541-.16-2.172a8.37 8.37 0 0 0-.423-1.648 5.307 5.307 0 0 0-.61-1.178 3.402 3.402 0 0 0-.692-.763l.417-1.13c.415.168.819.454 1.212.858.397.404.757.906 1.077 1.505.32.599.575 1.282.763 2.05.193.767.289 1.597.289 2.492Zm-4.519-.905v2h-7v-2h7Z"/>
</svg>
