<svg width="16" height="16" fill="none" viewBox="0 0 16 16">
  <path fill="#242424" fill-rule="evenodd" d="M12 4.001H8.8v1.52H12a2.482 2.482 0 0 1 2.48 2.48 2.47 2.47 0 0 1-1.848 2.384l1.168 1.168c1.304-.664 2.2-1.992 2.2-3.552 0-2.208-1.792-4-4-4Zm-.8 3.2H9.448l1.6 1.6h.152v-1.6ZM0 1.817l2.488 2.488A3.993 3.993 0 0 0 0 8.001c0 2.208 1.792 4 4 4h3.2v-1.52H4a2.482 2.482 0 0 1-2.48-2.48c0-1.272.968-2.32 2.208-2.456l1.656 1.656H4.8v1.6h2.184L8.8 10.617v1.384h1.384l3.208 3.2 1.008-1.008L1.016.801 0 1.817Z" clip-rule="evenodd"/>
</svg>
