<svg width="16" height="16" fill="none" viewBox="0 0 16 16">
  <path fill="#242424" fill-rule="evenodd" d="M1.716 6.836C1.043 6.836.5 7.387.5 8.07s.543 1.235 1.216 1.235c.673 0 1.216-.551 1.216-1.235S2.39 6.836 1.716 6.836Zm0-4.942C1.043 1.894.5 2.446.5 3.129c0 .684.543 1.236 1.216 1.236.673 0 1.216-.552 1.216-1.236 0-.683-.543-1.235-1.216-1.235Zm0 10.023c-.6 0-1.078.495-1.078 1.096 0 .601.486 1.095 1.078 1.095.592 0 1.079-.494 1.079-1.095s-.479-1.096-1.079-1.096Zm2.433 1.92H15.5v-1.648H4.149v1.647Zm0-4.942H15.5V7.247H4.149v1.648Zm0-6.59v1.648H15.5V2.306H4.149Z" clip-rule="evenodd"/>
</svg>
