<svg width="16" height="16" fill="none" viewBox="0 0 16 16">
  <path fill="#242424" d="M3.733 6.517c-1.066-2.045.445-4.445 2.578-4.89 2.756-.888 6.756.356 6.667 3.734H10.31c0-.267-.089-.533-.089-.711-.178-.533-.533-.8-1.066-.978-.712-.267-1.867-.178-2.49.267C5.334 5.094 6.579 6.249 8 6.694H3.911c-.089-.089-.089-.177-.178-.177ZM16 9.36V7.583H0v1.778h8.533c.178.089.356.089.534.178.533.266.977.444 1.155.978.09.355.178.8 0 1.155-.178.444-.533.622-.978.8-1.6.444-3.555-.178-3.466-2.133H3.11c-.089 2.31 1.867 3.91 4 4.178 3.378.71 7.378-1.423 5.6-5.245l3.29.089Z"/>
</svg>
