<svg width="16" height="16" viewBox="0 0 16 16" fill="none" xmlns="http://www.w3.org/2000/svg">
<g clip-path="url(#clip0_1510_28845)">
<path fill-rule="evenodd" clip-rule="evenodd" d="M11.9999 3.99997H8.79994V5.51998H11.9999C13.3679 5.51998 14.4799 6.63198 14.4799 7.99999C14.4799 9.14399 13.6959 10.104 12.6319 10.384L13.7999 11.552C15.1039 10.888 15.9999 9.55999 15.9999 7.99999C15.9999 5.79198 14.2079 3.99997 11.9999 3.99997ZM11.1999 7.19998H9.44794L11.0479 8.79999H11.1999V7.19998ZM-6.10352e-05 1.81596L2.48794 4.30397C1.03194 4.89597 -6.10352e-05 6.32798 -6.10352e-05 7.99999C-6.10352e-05 10.208 1.79194 12 3.99994 12H7.19994V10.48H3.99994C2.63194 10.48 1.51994 9.36799 1.51994 7.99999C1.51994 6.72798 2.48794 5.67998 3.72794 5.54398L5.38394 7.19998H4.79994V8.79999H6.98394L8.79994 10.616V12H10.1839L13.3919 15.2L14.3999 14.192L1.01594 0.799957L-6.10352e-05 1.81596Z" fill="#242424"/>
</g>
<defs>
<clipPath id="clip0_1510_28845">
<rect width="16" height="16" fill="white"/>
</clipPath>
</defs>
</svg>
