<svg width="16" height="16" viewBox="0 0 16 16" fill="none" xmlns="http://www.w3.org/2000/svg">
<path d="M7.79271 0C7.3785 0 7.04271 0.335787 7.04271 0.75V2.75C7.04271 3.16421 7.3785 3.5 7.79271 3.5C8.20692 3.5 8.54271 3.16421 8.54271 2.75V0.75C8.54271 0.335786 8.20692 0 7.79271 0Z" fill="#242424"/>
<path fill-rule="evenodd" clip-rule="evenodd" d="M2.3356 10.2929L4.74982 12.7071C4.93735 12.8946 5.04271 13.149 5.04271 13.4142V16H11.0427V13.4142C11.0427 13.149 11.1481 12.8946 11.3356 12.7071L13.7498 10.2929C13.9374 10.1054 14.0427 9.851 14.0427 9.58579V6H2.04271V9.58579C2.04271 9.851 2.14807 10.1054 2.3356 10.2929ZM5.81048 11.6464L3.54271 9.37868V7.5H12.5427V9.37868L10.2749 11.6464C9.8061 12.1153 9.54271 12.7512 9.54271 13.4142V14.5H6.54271V13.4142C6.54271 12.7512 6.27932 12.1153 5.81048 11.6464Z" fill="#242424"/>
<path d="M13.6677 2.14952C13.8748 1.7908 14.3335 1.66789 14.6922 1.875C15.0509 2.08211 15.1739 2.5408 14.9667 2.89952L13.9667 4.63157C13.7596 4.99029 13.3009 5.1132 12.9422 4.90609C12.5835 4.69898 12.4606 4.24029 12.6677 3.88157L13.6677 2.14952Z" fill="#242424"/>
<path d="M1.37513 1.875C1.73384 1.66789 2.19254 1.7908 2.39964 2.14952L3.39964 3.88157C3.60675 4.24029 3.48384 4.69898 3.12513 4.90609C2.76641 5.1132 2.30771 4.99029 2.10061 4.63157L1.10061 2.89952C0.893499 2.5408 1.01641 2.08211 1.37513 1.875Z" fill="#242424"/>
</svg>
