<svg width="16" height="16" viewBox="0 0 16 16" fill="none" xmlns="http://www.w3.org/2000/svg">
<path fill-rule="evenodd" clip-rule="evenodd" d="M1.52 7.99997C1.52 6.63197 2.632 5.51997 4 5.51997H7.2V3.99997H4C1.792 3.99997 0 5.79197 0 7.99997C0 10.208 1.792 12 4 12H7.2V10.48H4C2.632 10.48 1.52 9.36797 1.52 7.99997ZM4.8 8.79997H11.2V7.19997H4.8V8.79997ZM12 3.99997H8.8V5.51997H12C13.368 5.51997 14.48 6.63197 14.48 7.99997C14.48 9.36797 13.368 10.48 12 10.48H8.8V12H12C14.208 12 16 10.208 16 7.99997C16 5.79197 14.208 3.99997 12 3.99997Z" fill="#242424"/>
</svg>
