<svg width="16" height="16" viewBox="0 0 16 16" fill="none" xmlns="http://www.w3.org/2000/svg">
<g clip-path="url(#clip0_1510_28837)">
<path d="M0.0185547 7.90467V8.09533C0.0185547 9.03502 0.108334 9.893 0.287893 10.6693C0.471728 11.441 0.717553 12.1196 1.02537 12.7053C1.33318 13.2909 1.6752 13.7766 2.05142 14.1625C2.43191 14.5483 2.82096 14.8275 3.21855 15L3.62256 13.8696C3.38315 13.6835 3.15015 13.4293 2.92356 13.107C2.70125 12.7892 2.50032 12.3966 2.32076 11.929C2.1412 11.4614 1.99798 10.9121 1.8911 10.2811C1.78849 9.65013 1.73719 8.92607 1.73719 8.10895V7.89105C1.73719 7.07393 1.78849 6.34987 1.8911 5.71887C1.99798 5.08787 2.1412 4.53859 2.32076 4.07101C2.50032 3.60344 2.70125 3.21077 2.92356 2.893C3.15015 2.57069 3.38315 2.31647 3.62256 2.13035L3.21855 1C2.82096 1.16796 2.43191 1.44715 2.05142 1.83755C1.6752 2.22341 1.33318 2.70914 1.02537 3.29475C0.717553 3.88035 0.471728 4.56128 0.287893 5.33755C0.108334 6.10927 0.0185547 6.96498 0.0185547 7.90467Z" fill="#242424"/>
<path d="M16.0185 7.90467V8.09533C16.0185 8.98962 15.9223 9.82036 15.73 10.5875C15.5418 11.3547 15.2875 12.0379 14.9668 12.6372C14.6462 13.2364 14.2871 13.7357 13.8895 14.1352C13.4962 14.5392 13.0921 14.8275 12.6775 15L12.2606 13.8696C12.5 13.6835 12.7309 13.4293 12.9532 13.107C13.1798 12.7892 13.3829 12.3966 13.5624 11.929C13.742 11.4614 13.8831 10.9121 13.9857 10.2811C14.0926 9.65013 14.146 8.92607 14.146 8.10895V7.89105C14.146 7.07393 14.0926 6.34987 13.9857 5.71887C13.8831 5.08787 13.742 4.53859 13.5624 4.07101C13.3829 3.60344 13.1798 3.21077 12.9532 2.893C12.7309 2.57069 12.5 2.31647 12.2606 2.13035L12.6775 1C13.0921 1.16796 13.4962 1.45396 13.8895 1.85798C14.2871 2.262 14.6462 2.76362 14.9668 3.36284C15.2875 3.96206 15.5418 4.64527 15.73 5.41245C15.9223 6.17964 16.0185 7.01038 16.0185 7.90467Z" fill="#242424"/>
<path d="M11.5 7V9H4.5V7H11.5Z" fill="#242424"/>
</g>
<defs>
<clipPath id="clip0_1510_28837">
<rect width="16" height="16" fill="white"/>
</clipPath>
</defs>
</svg>
