<svg width="16" height="16" viewBox="0 0 16 16" fill="none" xmlns="http://www.w3.org/2000/svg">
<path d="M2.16663 15.5H13.8333V13.8333H2.16663V15.5ZM7.99997 12.1667C9.32605 12.1667 10.5978 11.6399 11.5355 10.7022C12.4732 9.76452 13 8.49275 13 7.16667V0.5H10.9166V7.16667C10.9166 7.94021 10.6093 8.68208 10.0624 9.22906C9.51538 9.77604 8.77351 10.0833 7.99997 10.0833C7.22642 10.0833 6.48455 9.77604 5.93757 9.22906C5.39059 8.68208 5.0833 7.94021 5.0833 7.16667V0.5H2.99996V7.16667C2.99996 8.49275 3.52675 9.76452 4.46443 10.7022C5.40211 11.6399 6.67388 12.1667 7.99997 12.1667Z" fill="#242424"/>
</svg>
