<svg width="16" height="16" viewBox="0 0 16 16" fill="none" xmlns="http://www.w3.org/2000/svg">
<path fill-rule="evenodd" clip-rule="evenodd" d="M1.41434 2.77843L3.18568 1.00708L3.89279 1.71419L2.12144 3.48553L1.41434 4.19264L0.00012207 2.77843L0.707229 2.07132L1.41434 2.77843ZM15.5 13.8497H4.50006V12.2024H15.5V13.8497ZM15.5 8.90794H4.50006V7.2607H15.5V8.90794ZM4.50006 3.9662V2.31896H15.5V3.9662H4.50006ZM3.18568 6.00708L1.41434 7.77843L0.707229 7.07132L0.00012207 7.77843L1.41434 9.19264L2.12144 8.48553L3.89279 6.71419L3.18568 6.00708ZM1.41434 12.7784L3.18568 11.0071L3.89279 11.7142L2.12144 13.4855L1.41434 14.1926L0.00012207 12.7784L0.707229 12.0713L1.41434 12.7784Z" fill="#242424"/>
</svg>
