<svg width="16" height="16" viewBox="0 0 16 16" fill="none" xmlns="http://www.w3.org/2000/svg">
<path d="M11.5 0C11.6061 0 11.7087 0.0337142 11.7935 0.0952092L11.8536 0.146447L15.8536 4.14645C16.0488 4.34171 16.0488 4.65829 15.8536 4.85355C15.68 5.02712 15.4106 5.0464 15.2157 4.91141L15.1464 4.85355L11.293 1H1V15H15V8.5C15 8.25454 15.1769 8.05039 15.4101 8.00806L15.5 8C15.7455 8 15.9496 8.17688 15.9919 8.41012L16 8.5V15.5C16 15.7455 15.8231 15.9496 15.5899 15.9919L15.5 16H0.5C0.25454 16 0.0503916 15.8231 0.00805567 15.5899L0 15.5V0.5C0 0.25454 0.176875 0.0503916 0.410124 0.00805567L0.5 0H11.5Z" fill="#242424"/>
<path d="M10 3C10.2761 3 10.5 3.22386 10.5 3.5C10.5 3.74546 10.3231 3.94961 10.0899 3.99194L10 4H3C2.72386 4 2.5 3.77614 2.5 3.5C2.5 3.25454 2.67688 3.05039 2.91012 3.00806L3 3H10Z" fill="#242424"/>
<path fill-rule="evenodd" clip-rule="evenodd" d="M8 7.5C6.61929 7.5 5.5 8.61929 5.5 10C5.5 11.3807 6.61929 12.5 8 12.5C9.38071 12.5 10.5 11.3807 10.5 10C10.5 8.61929 9.38071 7.5 8 7.5ZM8 8.5C8.82843 8.5 9.5 9.17157 9.5 10C9.5 10.8284 8.82843 11.5 8 11.5C7.17157 11.5 6.5 10.8284 6.5 10C6.5 9.17157 7.17157 8.5 8 8.5Z" fill="#242424"/>
</svg>
