<svg width="16" height="16" fill="none" viewBox="0 0 16 16">
  <path fill="#242424" fill-rule="evenodd" d="M11.5.001a.5.5 0 0 1 .293.095l.06.051 4 4a.5.5 0 0 1-.637.765l-.07-.057L11.293 1H1v14h14V8.5a.5.5 0 0 1 .41-.492L15.5 8a.5.5 0 0 1 .492.41L16 8.5v7a.5.5 0 0 1-.41.492L15.5 16H.5a.5.5 0 0 1-.492-.41L0 15.5V.5A.5.5 0 0 1 .41.009L.5.001h11Z M10 3.001a.5.5 0 0 1 .09.992L10 4H3a.5.5 0 0 1-.09-.992L3 3.001h7Z M8 7.501a2.5 2.5 0 1 0 0 5 2.5 2.5 0 0 0 0-5Zm0 1a1.5 1.5 0 1 1 0 3 1.5 1.5 0 0 1 0-3Z" clip-rule="evenodd"/>
</svg>