<svg width="16" height="16" fill="none" viewBox="0 0 16 16">
  <path fill="#242424" d="M.41 2.009a.5.5 0 0 0-.41.492v11l.008.09A.5.5 0 0 0 .5 14h15l.09-.008A.5.5 0 0 0 16 13.5v-11l-.008-.09A.5.5 0 0 0 15.5 2l-.09.008A.5.5 0 0 0 15 2.5V13H1V3h11.5l.09-.008A.5.5 0 0 0 12.5 2H.5l-.09.008Z M2 7.501v-3l.003-.053.014-.075.02-.063.04-.076.04-.055.03-.032.041-.037.062-.042.06-.03.062-.02.082-.015.046-.002h3a.5.5 0 0 1 .09.992L5.5 5l-1.793.001 3.147 3.145a.5.5 0 0 1-.638.765l-.07-.057L3 5.709v1.792a.5.5 0 0 1-.41.492L2.5 8a.5.5 0 0 1-.492-.41L2 7.5Zm12 1v3l-.003.053-.014.075-.02.063-.04.076-.04.055-.03.031-.041.038-.062.042-.06.03-.062.02-.082.015L13.5 12h-3a.5.5 0 0 1-.09-.992L10.5 11h1.793L9.146 7.855a.5.5 0 0 1 .638-.765l.07.057L13 10.293V8.501a.5.5 0 0 1 .41-.492l.09-.008a.5.5 0 0 1 .492.41l.008.09Z"/>
</svg>