<svg width="16" height="16" viewBox="0 0 16 16" fill="none" xmlns="http://www.w3.org/2000/svg">
<path fill-rule="evenodd" clip-rule="evenodd" d="M15.3536 0.646447C15.1583 0.451184 14.8417 0.451184 14.6464 0.646447L0.646447 14.6464L0.588591 14.7157C0.453595 14.9106 0.47288 15.18 0.646447 15.3536C0.841709 15.5488 1.15829 15.5488 1.35355 15.3536L15.3536 1.35355L15.4114 1.28431C15.5464 1.08944 15.5271 0.820013 15.3536 0.646447ZM16 13.5C16 13.7455 15.8231 13.9496 15.5899 13.9919L15.5 14H5.5C5.22386 14 5 13.7761 5 13.5C5 13.2545 5.17688 13.0504 5.41012 13.0081L5.5 13H15V3.5C15 3.25454 15.1769 3.05039 15.4101 3.00806L15.5 3C15.7455 3 15.9496 3.17688 15.9919 3.41012L16 3.5V13.5ZM0 2.5C0 2.25454 0.176875 2.05039 0.410124 2.00806L0.5 2H10.5C10.7761 2 11 2.22386 11 2.5C11 2.74546 10.8231 2.94961 10.5899 2.99194L10.5 3H1V12.5C1 12.7455 0.823125 12.9496 0.589876 12.9919L0.5 13C0.25454 13 0.0503916 12.8231 0.00805567 12.5899L0 12.5V2.5ZM2 4.5V7.5L2.00806 7.58988C2.05039 7.82312 2.25454 8 2.5 8L2.58988 7.99194C2.82312 7.94961 3 7.74546 3 7.5V5.708L5.14645 7.85355L5.21569 7.91141C5.41056 8.0464 5.67999 8.02712 5.85355 7.85355C6.04882 7.65829 6.04882 7.34171 5.85355 7.14645L3.707 5.001L5.5 5L5.58988 4.99194C5.82312 4.94961 6 4.74546 6 4.5C6 4.22386 5.77614 4 5.5 4H2.5L2.45421 4.00209L2.37186 4.01661L2.3094 4.03761L2.25023 4.06675L2.18834 4.10896L2.14645 4.14645L2.11758 4.17786L2.07719 4.23299L2.03779 4.30896L2.01661 4.37185L2.00282 4.44657L2 4.5ZM14 11.5V8.5L13.9919 8.41012C13.9496 8.17688 13.7455 8 13.5 8L13.4101 8.00806C13.1769 8.05039 13 8.25454 13 8.5V10.292L10.8536 8.14645L10.7843 8.08859C10.5894 7.9536 10.32 7.97288 10.1464 8.14645C9.95118 8.34171 9.95118 8.65829 10.1464 8.85355L12.293 10.999L10.5 11L10.4101 11.0081C10.1769 11.0504 10 11.2545 10 11.5C10 11.7761 10.2239 12 10.5 12H13.5L13.5458 11.9979L13.6281 11.9834L13.6906 11.9624L13.7498 11.9333L13.8117 11.891L13.8536 11.8536L13.8824 11.8221L13.9228 11.767L13.9622 11.691L13.9834 11.6281L13.9972 11.5534L14 11.5Z" fill="#242424"/>
</svg>
