<svg width="16" height="16" fill="none" viewBox="0 0 16 16">
  <path fill="#242424" d="M15.354.647a.5.5 0 0 0-.708 0l-14 14-.057.07a.5.5 0 0 0 .765.637l14-14 .057-.069a.5.5 0 0 0-.057-.638ZM16 13.501a.5.5 0 0 1-.41.492L15.5 14h-10a.5.5 0 0 1-.09-.992L5.5 13H15V3.5a.5.5 0 0 1 .41-.492L15.5 3a.5.5 0 0 1 .492.41L16 3.5v10Zm-16-11a.5.5 0 0 1 .41-.492l.09-.008h10a.5.5 0 0 1 .09.992L10.5 3H1v9.5a.5.5 0 0 1-.41.492L.5 13a.5.5 0 0 1-.492-.41L0 12.5v-10Z M2 4.501v3l.008.09A.5.5 0 0 0 2.5 8l.09-.008A.5.5 0 0 0 3 7.5V5.709l2.146 2.146.07.057a.5.5 0 0 0 .638-.765L3.707 5.002 5.5 5.001l.09-.008A.5.5 0 0 0 5.5 4h-3l-.046.002-.082.015-.063.02-.059.03-.062.042-.042.037-.028.032-.04.055-.04.076-.021.063-.014.075L2 4.5Zm12 7v-3l-.008-.09a.5.5 0 0 0-.492-.41l-.09.008a.5.5 0 0 0-.41.492v1.792l-2.146-2.146-.07-.057a.5.5 0 0 0-.638.765L12.293 11l-1.793.001-.09.008a.5.5 0 0 0 .09.992h3l.046-.002.082-.015.063-.02.059-.03.062-.042.042-.037.028-.032.04-.055.04-.076.021-.063.014-.075.003-.053Z"/>
</svg>
