<svg xmlns="http://www.w3.org/2000/svg" width="16" height="16" viewBox="0 0 16 16"><path fill="#242424" fill-rule="evenodd" d="M15.3535534,0.646446609 C15.5271197,0.820012961 15.5464049,1.08943736 15.4114088,1.2843055 L15.3535534,1.35355339 L1.35355339,15.3535534 C1.15829124,15.5488155 0.841708755,15.5488155 0.646446609,15.3535534 C0.472880258,15.179987 0.453595107,14.9105626 0.588591159,14.7156945 L0.646446609,14.6464466 L14.6464466,0.646446609 C14.8417088,0.451184464 15.1582912,0.451184464 15.3535534,0.646446609 Z M15.5,3 C15.7454599,3 15.9496084,3.17687516 15.9919443,3.41012437 L16,3.5 L16,13.5 C16,13.7454599 15.8231248,13.9496084 15.5898756,13.9919443 L15.5,14 L5.5,14 C5.22385763,14 5,13.7761424 5,13.5 C5,13.2545401 5.17687516,13.0503916 5.41012437,13.0080557 L5.5,13 L15,13 L15,3.5 C15,3.25454011 15.1768752,3.05039163 15.4101244,3.00805567 L15.5,3 Z M10.5,2 C10.7761424,2 11,2.22385763 11,2.5 C11,2.74545989 10.8231248,2.94960837 10.5898756,2.99194433 L10.5,3 L1,3 L1,12.5 C1,12.7454599 0.823124839,12.9496084 0.589875632,12.9919443 L0.5,13 C0.254540111,13 0.0503916296,12.8231248 0.00805566941,12.5898756 L0,12.5 L0,2.5 C0,2.25454011 0.176875161,2.05039163 0.410124368,2.00805567 L0.5,2 L10.5,2 Z M13.5,8 C13.7454599,8 13.9496084,8.17687516 13.9919443,8.41012437 L14,8.5 L14,11.5 L13.997179,11.5534276 L13.9833917,11.6281458 L13.9622078,11.6910366 L13.922812,11.7670103 L13.8824163,11.8221372 L13.8535534,11.8535534 L13.8116622,11.891039 L13.7497651,11.9332526 L13.6905951,11.9623894 L13.6281391,11.9833892 L13.5457862,11.997912 L13.5,12 L10.5,12 C10.2238576,12 10,11.7761424 10,11.5 C10,11.2545401 10.1768752,11.0503916 10.4101244,11.0080557 L10.5,11 L12.293,10.999 L10.1464466,8.85355339 C9.95118446,8.65829124 9.95118446,8.34170876 10.1464466,8.14644661 C10.320013,7.97288026 10.5894374,7.95359511 10.7843055,8.08859116 L10.8535534,8.14644661 L13,10.292 L13,8.5 C13,8.25454011 13.1768752,8.05039163 13.4101244,8.00805567 L13.5,8 Z M5.5,4 C5.77614237,4 6,4.22385763 6,4.5 C6,4.74545989 5.82312484,4.94960837 5.58987563,4.99194433 L5.5,5 L3.707,5.001 L5.85355339,7.14644661 C6.04881554,7.34170876 6.04881554,7.65829124 5.85355339,7.85355339 C5.67998704,8.02711974 5.41056264,8.04640489 5.2156945,7.91140884 L5.14644661,7.85355339 L3,5.708 L3,7.5 C3,7.74545989 2.82312484,7.94960837 2.58987563,7.99194433 L2.5,8 C2.25454011,8 2.05039163,7.82312484 2.00805567,7.58987563 L2,7.5 L2,4.5 L2.00282096,4.4465724 L2.01660826,4.37185423 L2.03779224,4.30896344 L2.07718801,4.23298968 L2.11758372,4.17786279 L2.14644661,4.14644661 L2.18833775,4.10896102 L2.25023485,4.06674743 L2.3094049,4.03761056 L2.37186086,4.01661082 L2.45421382,4.00208799 L2.5,4 L5.5,4 Z"/></svg>