<svg width="16" height="16" viewBox="0 0 16 16" fill="none" xmlns="http://www.w3.org/2000/svg">
<path fill-rule="evenodd" clip-rule="evenodd" d="M0.410124 2.00806C0.176875 2.05039 0 2.25454 0 2.5V13.5L0.00805567 13.5899C0.0503916 13.8231 0.25454 14 0.5 14H15.5L15.5899 13.9919C15.8231 13.9496 16 13.7455 16 13.5V2.5L15.9919 2.41012C15.9496 2.17688 15.7455 2 15.5 2L15.4101 2.00806C15.1769 2.05039 15 2.25454 15 2.5V13H1V3H12.5L12.5899 2.99194C12.8231 2.94961 13 2.74546 13 2.5C13 2.22386 12.7761 2 12.5 2H0.5L0.410124 2.00806ZM2 7.5V4.5L2.00282 4.44657L2.01661 4.37185L2.03779 4.30896L2.07719 4.23299L2.11758 4.17786L2.14645 4.14645L2.18834 4.10896L2.25023 4.06675L2.3094 4.03761L2.37186 4.01661L2.45421 4.00209L2.5 4H5.5C5.77614 4 6 4.22386 6 4.5C6 4.74546 5.82312 4.94961 5.58988 4.99194L5.5 5L3.707 5.001L6.85355 8.14645C7.04882 8.34171 7.04882 8.65829 6.85355 8.85355C6.67999 9.02712 6.41056 9.0464 6.21569 8.91141L6.14645 8.85355L3 5.708V7.5C3 7.74546 2.82312 7.94961 2.58988 7.99194L2.5 8C2.25454 8 2.05039 7.82312 2.00806 7.58988L2 7.5ZM14 8.5V11.5L13.9972 11.5534L13.9834 11.6281L13.9622 11.691L13.9228 11.767L13.8824 11.8221L13.8536 11.8536L13.8117 11.891L13.7498 11.9333L13.6906 11.9624L13.6281 11.9834L13.5458 11.9979L13.5 12H10.5C10.2239 12 10 11.7761 10 11.5C10 11.2545 10.1769 11.0504 10.4101 11.0081L10.5 11L12.293 10.999L9.14645 7.85355C8.95118 7.65829 8.95118 7.34171 9.14645 7.14645C9.32001 6.97288 9.58944 6.9536 9.78431 7.08859L9.85355 7.14645L13 10.292V8.5C13 8.25454 13.1769 8.05039 13.4101 8.00806L13.5 8C13.7455 8 13.9496 8.17688 13.9919 8.41012L14 8.5Z" fill="#242424"/>
</svg>
