<svg width="16" height="16" viewBox="0 0 16 16" fill="none" xmlns="http://www.w3.org/2000/svg">
<path fill-rule="evenodd" clip-rule="evenodd" d="M6.5 0C10.0899 0 13 2.91015 13 6.5C13 8.04935 12.4549 9.51343 11.4868 10.6696L11.441 10.72L15.8541 15.147C16.0274 15.3208 16.0463 15.5903 15.911 15.7849L15.853 15.8541C15.6792 16.0274 15.4097 16.0463 15.2151 15.911L15.1459 15.853L10.044 10.7354L10.3958 10.3824C11.4168 9.35781 12 7.97568 12 6.5C12 3.46243 9.53757 1 6.5 1C3.46243 1 1 3.46243 1 6.5C1 9.53757 3.46243 12 6.5 12C7.13919 12 7.76278 11.8911 8.35145 11.6807C8.61148 11.5878 8.89762 11.7233 8.99056 11.9833C9.0835 12.2433 8.94804 12.5295 8.68801 12.6224C7.9917 12.8713 7.2543 13 6.5 13C2.91015 13 0 10.0899 0 6.5C0 2.91015 2.91015 0 6.5 0Z" fill="#242424"/>
</svg>
