<svg width="16" height="16" viewBox="0 0 16 16" fill="none" xmlns="http://www.w3.org/2000/svg">
<path fill-rule="evenodd" clip-rule="evenodd" d="M7.97774 16L8.18512 15.9308L8.00053 15.3896L7.77493 15.9163L7.97774 16Z" fill="#242424"/>
<path d="M7.77493 15.9163L8.00053 15.3896L8.1874 15.9308L8.18967 15.9297C8.19183 15.929 8.19509 15.9276 8.19879 15.9264C8.20613 15.9239 8.21652 15.9208 8.22955 15.9163C8.25645 15.9071 8.29552 15.8937 8.34463 15.8761C8.44303 15.841 8.58427 15.789 8.7571 15.721C9.10212 15.5853 9.57792 15.3841 10.1039 15.1218C11.1405 14.605 12.4384 13.8177 13.2806 12.7786L13.3466 12.6971L13.3797 12.5956L13.3808 12.5922C13.3817 12.5894 13.3837 12.5852 13.3854 12.58C13.3887 12.5695 13.3929 12.5539 13.3991 12.5342C13.4114 12.4948 13.429 12.4371 13.4515 12.3624C13.4671 12.3106 13.4849 12.2506 13.5048 12.1828C13.5808 11.9228 13.4317 11.6516 13.1729 11.5715C12.902 11.4878 12.6163 11.645 12.5362 11.917C12.523 11.9619 12.5109 12.0026 12.5 12.0388C12.4784 12.1105 12.4412 12.1766 12.3912 12.2324C11.6901 13.0165 10.4834 13.8665 9.5551 14.3294C9.06627 14.5731 8.62264 14.7611 8.30175 14.8873C8.18326 14.9339 8.08129 14.9706 8.00095 15C7.9164 14.9631 7.80781 14.9162 7.68077 14.8583C7.35209 14.7084 6.89832 14.4928 6.40122 14.229C5.43017 13.7136 4.17069 12.6848 3.5 12C3.49235 11.975 3.48344 11.9462 3.47379 11.9141C3.43116 11.7722 3.36876 11.5619 3.29491 11.2926C3.14708 10.7533 2.98641 9.94309 2.78864 9C2.40828 7.18614 2.03074 5.03153 2.00095 2.5C3.47801 1.67642 5.80057 0.999998 8.00509 1C10.2109 1.00006 12.5299 1.67608 14.0009 2.5C13.9804 4.6671 13.3341 8.25397 13.0863 9.55517C13.0374 9.81225 13.1823 10.0654 13.4286 10.1537C13.7306 10.2619 14.0587 10.0786 14.1202 9.76374C14.5136 7.74939 15.0057 4.5714 14.9999 2.08327L14.9988 1.77307L14.7322 1.60457L14.3995 1.40707C12.6883 0.452109 10.3196 5.44256e-05 8.00509 0C5.53636 -2.28764e-06 3.00313 0.513986 1.2689 1.60346L1 1.77307V2.08439C1 4.83401 1.40776 7.46248 1.81354 9.39759C2.01672 10.3665 2.22007 11.1652 2.37299 11.723C2.44947 12.002 2.51363 12.2213 2.55871 12.3713C2.58118 12.446 2.5988 12.5037 2.61113 12.5431C2.6173 12.5629 2.62261 12.5784 2.62594 12.5889C2.62755 12.5939 2.62846 12.5984 2.62936 12.6012L2.6305 12.6045L2.63163 12.6056L2.67037 12.7239L2.75583 12.8165C3.5597 13.6845 4.83787 14.4616 5.86528 15.0069C6.3877 15.2842 6.86301 15.5104 7.2075 15.6675C7.37997 15.7461 7.52107 15.8084 7.61883 15.8505C7.66726 15.8713 7.70529 15.8874 7.73163 15.8985C7.7448 15.904 7.75528 15.9089 7.7624 15.9118C7.76596 15.9133 7.76953 15.9144 7.77151 15.9152L7.77493 15.9163Z" fill="#242424"/>
<path d="M10.8787 5.11389C11.0904 4.94808 11.3992 4.94534 11.6159 5.1217C11.8634 5.32344 11.8969 5.68368 11.6911 5.92622L7.93217 10.355L7.48552 10.0102L5.35482 8.36878C5.10173 8.17377 5.05793 7.81446 5.25683 7.5665C5.45604 7.31856 5.82286 7.27551 6.07607 7.47054L7.76012 8.76825L10.7944 5.19534L10.8787 5.11389Z" fill="#242424"/>
</svg>
