<svg width="16" height="16" viewBox="0 0 16 16" fill="none" xmlns="http://www.w3.org/2000/svg">
<path d="M1.5 1C1.22386 1 1 1.22386 1 1.5V2.36667C1 2.64281 0.776142 2.86667 0.5 2.86667C0.223858 2.86667 0 2.64281 0 2.36667V1.5C0 0.671573 0.671573 0 1.5 0H2.36667C2.64281 0 2.86667 0.223858 2.86667 0.5C2.86667 0.776142 2.64281 1 2.36667 1H1.5Z" fill="#242424"/>
<path d="M4.46667 0.5C4.46667 0.223858 4.69052 0 4.96667 0H6.7C6.97614 0 7.2 0.223858 7.2 0.5C7.2 0.776142 6.97614 1 6.7 1H4.96667C4.69052 1 4.46667 0.776142 4.46667 0.5Z" fill="#242424"/>
<path d="M8.8 0.5C8.8 0.223858 9.02386 0 9.3 0H11.0333C11.3095 0 11.5333 0.223858 11.5333 0.5C11.5333 0.776142 11.3095 1 11.0333 1H9.3C9.02386 1 8.8 0.776142 8.8 0.5Z" fill="#242424"/>
<path d="M13.1333 0.5C13.1333 0.223858 13.3572 0 13.6333 0H14.5C15.3284 0 16 0.671573 16 1.5V2.36667C16 2.64281 15.7761 2.86667 15.5 2.86667C15.2239 2.86667 15 2.64281 15 2.36667V1.5C15 1.22386 14.7761 1 14.5 1H13.6333C13.3572 1 13.1333 0.776142 13.1333 0.5Z" fill="#242424"/>
<path d="M15.5 4.46667C15.7761 4.46667 16 4.69052 16 4.96667V6.7C16 6.97614 15.7761 7.2 15.5 7.2C15.2239 7.2 15 6.97614 15 6.7V4.96667C15 4.69052 15.2239 4.46667 15.5 4.46667Z" fill="#242424"/>
<path d="M0.5 4.46667C0.776142 4.46667 1 4.69052 1 4.96667V6.7C1 6.97614 0.776142 7.2 0.5 7.2C0.223858 7.2 0 6.97614 0 6.7V4.96667C0 4.69052 0.223858 4.46667 0.5 4.46667Z" fill="#242424"/>
<path d="M0.5 8.8C0.776142 8.8 1 9.02386 1 9.3V11.0333C1 11.3095 0.776142 11.5333 0.5 11.5333C0.223858 11.5333 0 11.3095 0 11.0333V9.3C0 9.02386 0.223858 8.8 0.5 8.8Z" fill="#242424"/>
<path d="M0.5 13.1333C0.776142 13.1333 1 13.3572 1 13.6333V14.5C1 14.7761 1.22386 15 1.5 15H2.36667C2.64281 15 2.86667 15.2239 2.86667 15.5C2.86667 15.7761 2.64281 16 2.36667 16H1.5C0.671573 16 0 15.3284 0 14.5V13.6333C0 13.3572 0.223858 13.1333 0.5 13.1333Z" fill="#242424"/>
<path d="M4.46667 15.5C4.46667 15.2239 4.69052 15 4.96667 15H6.7C6.97614 15 7.2 15.2239 7.2 15.5C7.2 15.7761 6.97614 16 6.7 16H4.96667C4.69052 16 4.46667 15.7761 4.46667 15.5Z" fill="#242424"/>
<path d="M8.1 4.5C6.11177 4.5 4.5 6.11177 4.5 8.1C4.5 10.0882 6.11177 11.7 8.1 11.7C8.37218 11.7 8.63673 11.6699 8.89072 11.613C9.16019 11.5526 9.42756 11.7222 9.48791 11.9916C9.54827 12.2611 9.37875 12.5285 9.10928 12.5888C8.78403 12.6617 8.44619 12.7 8.1 12.7C5.55949 12.7 3.5 10.6405 3.5 8.1C3.5 5.55949 5.55949 3.5 8.1 3.5C10.6405 3.5 12.7 5.55949 12.7 8.1C12.7 9.18993 12.3204 10.1919 11.6871 10.98L14.3536 13.6464C14.5488 13.8417 14.5488 14.1583 14.3536 14.3536C14.1583 14.5488 13.8417 14.5488 13.6464 14.3536L10.6705 11.3776C10.6616 11.3699 10.653 11.3619 10.6446 11.3534C10.4494 11.1581 10.4495 10.8415 10.6448 10.6463C11.2973 9.99426 11.7 9.09464 11.7 8.1C11.7 6.11177 10.0882 4.5 8.1 4.5Z" fill="#242424"/>
</svg>
