<svg width="16" height="16" viewBox="0 0 16 16" fill="none" xmlns="http://www.w3.org/2000/svg">
<path d="M2.16663 1C1.89049 1 1.66663 1.22386 1.66663 1.5V2.36667C1.66663 2.64281 1.44277 2.86667 1.16663 2.86667C0.890484 2.86667 0.666626 2.64281 0.666626 2.36667V1.5C0.666626 0.671573 1.3382 0 2.16663 0H3.0333C3.30944 0 3.5333 0.223858 3.5333 0.5C3.5333 0.776142 3.30944 1 3.0333 1H2.16663ZM5.1333 0.5C5.1333 0.223858 5.35715 0 5.6333 0H7.36663C7.64277 0 7.86663 0.223858 7.86663 0.5C7.86663 0.776142 7.64277 1 7.36663 1H5.6333C5.35715 1 5.1333 0.776142 5.1333 0.5ZM9.46663 0.5C9.46663 0.223858 9.69049 0 9.96663 0H11.6999C11.9761 0 12.1999 0.223858 12.1999 0.5C12.1999 0.776142 11.9761 1 11.6999 1H9.96663C9.69049 1 9.46663 0.776142 9.46663 0.5ZM13.7999 0.5C13.7999 0.223858 14.0238 0 14.2999 0H15.1666C15.995 0 16.6666 0.671573 16.6666 1.5V2.36667C16.6666 2.64281 16.4427 2.86667 16.1666 2.86667C15.8905 2.86667 15.6666 2.64281 15.6666 2.36667V1.5C15.6666 1.22386 15.4427 1 15.1666 1H14.2999C14.0238 1 13.7999 0.776142 13.7999 0.5ZM16.1666 4.46667C16.4427 4.46667 16.6666 4.69052 16.6666 4.96667V6.7C16.6666 6.97614 16.4427 7.2 16.1666 7.2C15.8905 7.2 15.6666 6.97614 15.6666 6.7V4.96667C15.6666 4.69052 15.8905 4.46667 16.1666 4.46667ZM1.16663 4.46667C1.44277 4.46667 1.66663 4.69052 1.66663 4.96667V6.7C1.66663 6.97614 1.44277 7.2 1.16663 7.2C0.890484 7.2 0.666626 6.97614 0.666626 6.7V4.96667C0.666626 4.69052 0.890484 4.46667 1.16663 4.46667ZM1.16663 8.8C1.44277 8.8 1.66663 9.02386 1.66663 9.3V11.0333C1.66663 11.3095 1.44277 11.5333 1.16663 11.5333C0.890484 11.5333 0.666626 11.3095 0.666626 11.0333V9.3C0.666626 9.02386 0.890484 8.8 1.16663 8.8ZM1.16663 13.1333C1.44277 13.1333 1.66663 13.3572 1.66663 13.6333V14.5C1.66663 14.7761 1.89049 15 2.16663 15H3.0333C3.30944 15 3.5333 15.2239 3.5333 15.5C3.5333 15.7761 3.30944 16 3.0333 16H2.16663C1.3382 16 0.666626 15.3284 0.666626 14.5V13.6333C0.666626 13.3572 0.890484 13.1333 1.16663 13.1333ZM5.1333 15.5C5.1333 15.2239 5.35715 15 5.6333 15H7.36663C7.64277 15 7.86663 15.2239 7.86663 15.5C7.86663 15.7761 7.64277 16 7.36663 16H5.6333C5.35715 16 5.1333 15.7761 5.1333 15.5ZM9.46662 15.5C9.46662 15.2239 9.69048 15 9.96662 15H11.6999C11.9761 15 12.1999 15.2239 12.1999 15.5C12.1999 15.7761 11.9761 16 11.6999 16H9.96662C9.69048 16 9.46662 15.7761 9.46662 15.5ZM16.1666 8.79999C16.4427 8.79999 16.6666 9.02385 16.6666 9.29999V11.0333C16.6666 11.3095 16.4427 11.5333 16.1666 11.5333C15.8905 11.5333 15.6666 11.3095 15.6666 11.0333V9.29999C15.6666 9.02385 15.8905 8.79999 16.1666 8.79999ZM6.66663 9.5V6.5L6.66945 6.44657L6.68324 6.37185L6.70442 6.30896L6.74382 6.23299L6.78421 6.17786L6.81308 6.14645L6.85497 6.10896L6.91687 6.06675L6.97603 6.03761L7.03849 6.01661L7.12084 6.00209L7.16663 6H10.1666C10.4428 6 10.6666 6.22386 10.6666 6.5C10.6666 6.74546 10.4897 6.94961 10.2565 6.99194L10.1666 7L8.37363 7.001L13.5202 12.1464C13.7154 12.3417 13.7154 12.6583 13.5202 12.8536C13.3466 13.0271 13.0772 13.0464 12.8823 12.9114L12.813 12.8536L7.66663 7.708V9.5C7.66663 9.74546 7.48975 9.94961 7.25651 9.99194L7.16663 10C6.92117 10 6.71702 9.82312 6.67469 9.58988L6.66663 9.5Z" fill="#242424"/>
</svg>
