<svg width="16" height="16" fill="none" viewBox="0 0 16 16">
  <path fill="#242424" d="M1.5 1.001a.5.5 0 0 0-.5.5v.867a.5.5 0 0 1-1 0V1.5A1.5 1.5 0 0 1 1.5 0h.867a.5.5 0 0 1 0 1H1.5Zm2.967-.5a.5.5 0 0 1 .5-.5H6.7a.5.5 0 0 1 0 1H4.967a.5.5 0 0 1-.5-.5Zm4.333 0a.5.5 0 0 1 .5-.5h1.733a.5.5 0 1 1 0 1H9.3a.5.5 0 0 1-.5-.5Zm4.333 0a.5.5 0 0 1 .5-.5h.867a1.5 1.5 0 0 1 1.5 1.5v.867a.5.5 0 0 1-1 0V1.5a.5.5 0 0 0-.5-.5h-.867a.5.5 0 0 1-.5-.5ZM15.5 4.468a.5.5 0 0 1 .5.5V6.7a.5.5 0 0 1-1 0V4.968a.5.5 0 0 1 .5-.5Zm-15 0a.5.5 0 0 1 .5.5V6.7a.5.5 0 0 1-1 0V4.968a.5.5 0 0 1 .5-.5ZM.5 8.8a.5.5 0 0 1 .5.5v1.733a.5.5 0 1 1-1 0V9.301a.5.5 0 0 1 .5-.5Zm0 4.333a.5.5 0 0 1 .5.5v.867a.5.5 0 0 0 .5.5h.867a.5.5 0 0 1 0 1H1.5A1.5 1.5 0 0 1 0 14.5v-.867a.5.5 0 0 1 .5-.5ZM4.467 15.5a.5.5 0 0 1 .5-.5H6.7a.5.5 0 0 1 0 1H4.967a.5.5 0 0 1-.5-.5Zm4.333 0a.5.5 0 0 1 .5-.5h1.733a.5.5 0 1 1 0 1H9.3a.5.5 0 0 1-.5-.5Zm6.7-6.7a.5.5 0 0 1 .5.5v1.733a.5.5 0 1 1-1 0V9.301a.5.5 0 0 1 .5-.5ZM6 9.5v-3l.003-.053.014-.075.02-.063.04-.076.04-.055.03-.032.041-.037.062-.042.06-.03.062-.02.082-.015L6.5 6h3a.5.5 0 0 1 .09.992L9.5 7l-1.793.001 5.147 5.145a.5.5 0 0 1-.638.765l-.07-.057L7 7.709v1.792a.5.5 0 0 1-.41.492L6.5 10a.5.5 0 0 1-.492-.41L6 9.5Z"/>
</svg>
