<svg width="16" height="16" fill="none" viewBox="0 0 16 16">
  <path fill="#242424" d="M1.5 1.001a.5.5 0 0 0-.5.5v.867a.5.5 0 1 1-1 0V1.5A1.5 1.5 0 0 1 1.5 0h.867a.5.5 0 0 1 0 1H1.5Zm2.967-.5a.5.5 0 0 1 .5-.5H6.7a.5.5 0 0 1 0 1H4.967a.5.5 0 0 1-.5-.5Zm4.333 0a.5.5 0 0 1 .5-.5h1.733a.5.5 0 1 1 0 1H9.3a.5.5 0 0 1-.5-.5Zm4.333 0a.5.5 0 0 1 .5-.5h.867a1.5 1.5 0 0 1 1.5 1.5v.867a.5.5 0 0 1-1 0V1.5a.5.5 0 0 0-.5-.5h-.867a.5.5 0 0 1-.5-.5ZM15.5 4.468a.5.5 0 0 1 .5.5V6.7a.5.5 0 0 1-1 0V4.968a.5.5 0 0 1 .5-.5Zm-15 0a.5.5 0 0 1 .5.5V6.7a.5.5 0 0 1-1 0V4.968a.5.5 0 0 1 .5-.5Zm0 4.333a.5.5 0 0 1 .5.5v1.733a.5.5 0 1 1-1 0V9.301a.5.5 0 0 1 .5-.5Zm0 4.333a.5.5 0 0 1 .5.5v.867a.5.5 0 0 0 .5.5h.867a.5.5 0 1 1 0 1H1.5a1.5 1.5 0 0 1-1.5-1.5v-.867a.5.5 0 0 1 .5-.5Zm3.967 2.367a.5.5 0 0 1 .5-.5H6.7a.5.5 0 1 1 0 1H4.967a.5.5 0 0 1-.5-.5Zm3.633-11a3.6 3.6 0 1 0 .79 7.113.5.5 0 1 1 .22.976 4.6 4.6 0 1 1 2.578-1.609l2.666 2.666a.5.5 0 0 1-.708.707L10.67 11.38a.5.5 0 0 1-.026-.731A3.6 3.6 0 0 0 8.1 4.501Z"/>
</svg>
