<svg width="16" height="18" fill="none" viewBox="0 0 16 18">
  <path fill="#242424" d="M5.061 4.86a.635.635 0 0 1-.073-.81l.073-.089 2.425-2.425a.589.589 0 0 1 .204-.203L8.052.97l.363.363a.58.58 0 0 1 .2.2l2.427 2.427a.635.635 0 0 1-.81.972l-.088-.073-1.457-1.458v6.17c0 .307-.285.556-.635.556-.312 0-.571-.197-.625-.456l-.01-.1v-6.17L5.96 4.86a.636.636 0 0 1-.81.073l-.09-.073Z M1.375 6.97h4.53v.72h-4.28v8.621h12.75V7.689h-4.28v-.718h4.53a.5.5 0 0 1 .5.5v9.058a.5.5 0 0 1-.5.5H1.375a.5.5 0 0 1-.5-.5V7.471a.5.5 0 0 1 .5-.5Z M13.616 8.396a.365.365 0 0 0-.503-.056L8 12.258 2.888 8.34a.365.365 0 0 0-.445.58L8 13.179l5.557-4.26a.365.365 0 0 0 .059-.523Zm-2.979 4.312a.367.367 0 0 1 .507 0l2.47 2.366a.367.367 0 1 1-.508.53l-2.47-2.366a.367.367 0 0 1 0-.53Zm-5.273 0a.367.367 0 0 0-.508 0l-2.47 2.366a.367.367 0 1 0 .508.53l2.47-2.366a.367.367 0 0 0 0-.53Z"/>
</svg>