<svg width="16" height="17" viewBox="0 0 16 17" fill="none" xmlns="http://www.w3.org/2000/svg">
<path fill-rule="evenodd" clip-rule="evenodd" d="M5.18607 3.88885C4.96554 3.66832 4.94104 3.32599 5.11256 3.0784L5.18607 2.99041L7.61076 0.565721C7.65859 0.484085 7.72881 0.414161 7.81432 0.362163L8.17648 0L8.5397 0.363214C8.62386 0.414753 8.6931 0.483701 8.74057 0.564091L11.1669 2.99041C11.415 3.23851 11.415 3.64076 11.1669 3.88885C10.9464 4.10939 10.604 4.13389 10.3564 3.96237L10.2684 3.88885L8.81115 2.43146V8.60142C8.81115 8.90843 8.52685 9.15731 8.17615 9.15731C7.86441 9.15731 7.60515 8.96066 7.55138 8.70134L7.54115 8.60142V2.43213L6.08452 3.88885C5.86399 4.10939 5.52166 4.13389 5.27406 3.96237L5.18607 3.88885ZM1.5 6H6.02939V6.71847H1.75V15.3403H14.5V6.71847H10.2206V6H14.75C15.0261 6 15.25 6.22386 15.25 6.5V15.5588C15.25 15.8349 15.0261 16.0588 14.75 16.0588H1.5C1.22386 16.0588 1 15.8349 1 15.5588V6.5C1 6.22386 1.22386 6 1.5 6ZM13.7402 7.42521C13.6148 7.27499 13.3932 7.25038 13.2378 7.36943L8.12502 11.2873L3.01222 7.36943C2.85687 7.25038 2.63529 7.27499 2.50983 7.42521C2.37672 7.58461 2.40316 7.82279 2.56799 7.94911L8.12502 12.2079L13.6821 7.94911C13.8469 7.82279 13.8733 7.58461 13.7402 7.42521ZM10.7614 11.737C10.9033 11.6011 11.1271 11.6011 11.269 11.737L13.7386 14.1029C13.8894 14.2473 13.8894 14.4883 13.7386 14.6327C13.5968 14.7687 13.373 14.7687 13.2311 14.6327L10.7614 12.2668C10.6106 12.1224 10.6106 11.8814 10.7614 11.737ZM5.48862 11.737C5.34673 11.6011 5.12293 11.6011 4.98104 11.737L2.51137 14.1029C2.3606 14.2473 2.3606 14.4883 2.51137 14.6327C2.65326 14.7687 2.87706 14.7687 3.01895 14.6327L5.48862 12.2668C5.63939 12.1224 5.63939 11.8814 5.48862 11.737Z" fill="#242424"/>
</svg>
