<svg xmlns="http://www.w3.org/2000/svg" width="16" height="16" viewBox="0 0 16 16"><path fill="#242424" fill-rule="evenodd" d="M9,0 C9.55228475,0 10,0.44771525 10,1 L10.00037,2.34154222 C10.7023227,2.58969893 11.3443139,2.96477477 11.8987695,3.43919545 L13.0621778,2.76794919 C13.5404704,2.49180682 14.1520609,2.65568197 14.4282032,3.1339746 L15.4282032,4.8660254 C15.7043456,5.34431803 15.5404704,5.95590843 15.0621778,6.23205081 L13.9000582,6.90361036 C13.9656957,7.25908061 14,7.6255342 14,8 C14,8.3744658 13.9656957,8.74091939 13.9000582,9.09638964 L15.0621778,9.76794919 C15.5404704,10.0440916 15.7043456,10.655682 15.4282032,11.1339746 L14.4282032,12.8660254 C14.1520609,13.344318 13.5404704,13.5081932 13.0621778,13.2320508 L11.8987695,12.5608045 C11.3443139,13.0352252 10.7023227,13.4103011 10.00037,13.6584578 L10,15 C10,15.5522847 9.55228475,16 9,16 L7,16 C6.44771525,16 6,15.5522847 6,15 L5.99962995,13.6584578 C5.29757823,13.410266 4.6555048,13.0351193 4.10099564,12.5606036 L2.93782217,13.2320508 C2.45952955,13.5081932 1.84793914,13.344318 1.57179677,12.8660254 L0.57179677,11.1339746 C0.295654395,10.655682 0.45952955,10.0440916 0.937822174,9.76794919 L2.09994183,9.09638964 C2.03430432,8.74091939 2,8.3744658 2,8 C2,7.6255342 2.03430432,7.25908061 2.09994183,6.90361036 L0.937822174,6.23205081 C0.45952955,5.95590843 0.295654395,5.34431803 0.57179677,4.8660254 L1.57179677,3.1339746 C1.84793914,2.65568197 2.45952955,2.49180682 2.93782217,2.76794919 L4.10099564,3.43939639 C4.6555048,2.96488067 5.29757823,2.58973396 5.99962995,2.34154222 L6,1 C6,0.44771525 6.44771525,0 7,0 L9,0 Z M9,1 L6.99999996,1.00027584 L6.99943492,3.04873792 L6.33293818,3.28436014 C5.83652222,3.45985481 5.37187334,3.71319575 4.95534866,4.03349834 L4.7511724,4.19917938 L4.21370548,4.65911136 L2.43782217,3.6339746 L1.43816269,5.36622209 L3.21150195,6.39099 L3.08331797,7.08519055 C3.02805611,7.38446985 3,7.69018954 3,8 C3,8.20654031 3.01246938,8.41126249 3.03715619,8.61347037 L3.08331797,8.91480945 L3.21150195,9.60901 L1.43782217,10.6339746 L2.43788434,12.3659895 L4.21370548,11.3408886 L4.7511724,11.8008206 C5.15120132,12.1431414 5.60208062,12.4203146 6.08745319,12.6214557 L6.33293818,12.7156399 L6.99943492,12.9512621 L7,15 L9.00000004,14.9997242 L9.00056508,12.9512621 L9.66706182,12.7156399 C10.1634079,12.5401699 10.6279961,12.2868755 11.0444763,11.9666362 L11.2486317,11.8009883 L11.7859693,11.3412146 L13.5621778,12.3660254 L14.5618373,10.6337779 L12.7884981,9.60901 L12.916682,8.91480945 C12.9719439,8.61553015 13,8.30981046 13,8 C13,7.79345969 12.9875306,7.58873751 12.9628438,7.38652963 L12.916682,7.08519055 L12.7884981,6.39099 L14.5621778,5.3660254 L13.5619277,3.63411893 L11.7859693,4.6587854 L11.2486317,4.19901175 C10.8486417,3.85675975 10.3978186,3.57963935 9.91251266,3.37853012 L9.66706182,3.28436014 L9.00056508,3.04873792 L9,1 Z M8,5 C9.65685425,5 11,6.34314575 11,8 C11,9.65685425 9.65685425,11 8,11 C6.34314575,11 5,9.65685425 5,8 C5,6.34314575 6.34314575,5 8,5 Z M8,6 C6.8954305,6 6,6.8954305 6,8 C6,9.1045695 6.8954305,10 8,10 C9.1045695,10 10,9.1045695 10,8 C10,6.8954305 9.1045695,6 8,6 Z"/></svg>