<svg width="16" height="16" fill="none" viewBox="0 0 16 16">
  <path fill="#242424" fill-rule="evenodd" d="M8.871 1.031c.481 0 .871.39.871.871v1.17a5.202 5.202 0 0 1 1.655.955l1.013-.584a.871.871 0 0 1 1.19.318l.872 1.51a.87.87 0 0 1-.32 1.19l-1.012.585a5.256 5.256 0 0 1 0 1.91l1.013.585a.87.87 0 0 1 .319 1.19l-.871 1.51a.871.871 0 0 1-1.19.318l-1.014-.584a5.224 5.224 0 0 1-1.654.956V14.1c0 .48-.39.871-.872.871H7.13a.871.871 0 0 1-.872-.871v-1.17a5.22 5.22 0 0 1-1.654-.956l-1.013.585a.871.871 0 0 1-1.19-.318l-.872-1.51a.871.871 0 0 1 .319-1.19l1.013-.585a5.258 5.258 0 0 1 0-1.91L1.847 6.46a.871.871 0 0 1-.319-1.19L2.4 3.76a.871.871 0 0 1 1.19-.318l1.014.585a5.222 5.222 0 0 1 1.654-.957V1.902c0-.48.39-.871.872-.871h1.74Zm0 .871H7.13v1.785l-.581.206a4.345 4.345 0 0 0-1.2.652l-.179.145-.468.4-1.547-.893-.871 1.51 1.545.892-.112.605a4.386 4.386 0 0 0-.04 1.331l.04.263.112.605-1.545.893.871 1.509 1.547-.893.468.4c.349.299.742.54 1.165.715l.214.083.58.205V14.1h1.743v-1.785l.581-.205a4.345 4.345 0 0 0 1.2-.653l.178-.144.469-.401 1.547.893.87-1.51-1.544-.892.112-.605a4.381 4.381 0 0 0 .04-1.331l-.04-.263-.112-.605 1.545-.893-.871-1.509-1.547.893-.469-.4a4.357 4.357 0 0 0-1.164-.715l-.214-.083-.58-.205V1.902ZM8 5.387a2.614 2.614 0 1 1 0 5.228 2.614 2.614 0 0 1 0-5.228Zm0 .872a1.742 1.742 0 1 0 0 3.485 1.742 1.742 0 0 0 0-3.485Z" clip-rule="evenodd"/>
</svg>
