<svg width="16" height="16" viewBox="0 0 16 16" fill="none" xmlns="http://www.w3.org/2000/svg">
<path fill-rule="evenodd" clip-rule="evenodd" d="M8.45994 1C8.94112 1 9.33119 1.39007 9.33119 1.87125L9.33152 3.04007C9.94309 3.25628 10.5024 3.58306 10.9855 3.9964L11.9991 3.41158C12.4158 3.17099 12.9487 3.31376 13.1893 3.73048L14.0605 5.23952C14.3011 5.65624 14.1583 6.18909 13.7416 6.42967L12.7291 7.01477C12.7863 7.32447 12.8162 7.64375 12.8162 7.97C12.8162 8.29625 12.7863 8.61553 12.7291 8.92523L13.7416 9.51033C14.1583 9.75091 14.3011 10.2838 14.0605 10.7005L13.1893 12.2095C12.9487 12.6262 12.4158 12.769 11.9991 12.5284L10.9855 11.9436C10.5024 12.3569 9.94309 12.6837 9.33152 12.8999L9.33119 14.0687C9.33119 14.5499 8.94112 14.94 8.45994 14.94H6.71744C6.23627 14.94 5.84619 14.5499 5.84619 14.0687L5.84587 12.8999C5.23421 12.6837 4.6748 12.3568 4.19169 11.9434L3.17827 12.5284C2.76156 12.769 2.22871 12.6262 1.98812 12.2095L1.11687 10.7005C0.876282 10.2838 1.01906 9.75091 1.43577 9.51033L2.44827 8.92523C2.39108 8.61553 2.36119 8.29625 2.36119 7.97C2.36119 7.64375 2.39108 7.32447 2.44827 7.01477L1.43577 6.42967C1.01906 6.18909 0.876282 5.65624 1.11687 5.23952L1.98812 3.73048C2.22871 3.31376 2.76156 3.17099 3.17827 3.41158L4.19169 3.99657C4.6748 3.58315 5.23421 3.25631 5.84587 3.04007L5.84619 1.87125C5.84619 1.39007 6.23627 1 6.71744 1H8.45994ZM8.45994 1.87125L6.71744 1.87149L6.71695 3.65621L6.13627 3.8615C5.70376 4.0144 5.29894 4.23512 4.93604 4.51419L4.75815 4.65853L4.28988 5.05925L2.74265 4.1661L1.87169 5.67532L3.41671 6.56815L3.30503 7.17297C3.25689 7.43372 3.23244 7.70008 3.23244 7.97C3.23244 8.14995 3.24331 8.32831 3.26482 8.50449L3.30503 8.76703L3.41671 9.37185L1.8714 10.2649L2.7427 11.7739L4.28988 10.8807L4.75815 11.2815C5.10668 11.5797 5.49951 11.8212 5.92239 11.9964L6.13627 12.0785L6.71695 12.2838L6.71744 14.0687L8.45994 14.0685L8.46044 12.2838L9.04112 12.0785C9.47356 11.9256 9.87833 11.7049 10.2412 11.4259L10.4191 11.2816L10.8872 10.881L12.4347 11.7739L13.3057 10.2647L11.7607 9.37185L11.8724 8.76703C11.9205 8.50628 11.9449 8.23992 11.9449 7.97C11.9449 7.79005 11.9341 7.61169 11.9126 7.43551L11.8724 7.17297L11.7607 6.56815L13.306 5.67515L12.4345 4.16623L10.8872 5.05897L10.4191 4.65839C10.0706 4.3602 9.67779 4.11876 9.25497 3.94354L9.04112 3.8615L8.46044 3.65621L8.45994 1.87125ZM7.58869 5.35625C9.03223 5.35625 10.2024 6.52647 10.2024 7.97C10.2024 9.41353 9.03223 10.5837 7.58869 10.5837C6.14516 10.5837 4.97494 9.41353 4.97494 7.97C4.97494 6.52647 6.14516 5.35625 7.58869 5.35625ZM7.58869 6.2275C6.62634 6.2275 5.84619 7.00764 5.84619 7.97C5.84619 8.93236 6.62634 9.7125 7.58869 9.7125C8.55105 9.7125 9.33119 8.93236 9.33119 7.97C9.33119 7.00764 8.55105 6.2275 7.58869 6.2275Z" fill="#242424"/>
</svg>
