<svg xmlns="http://www.w3.org/2000/svg" width="16" height="16" viewBox="0 0 16 16"><path fill="#242424" fill-rule="evenodd" d="M6.48582003,9.01417997 C6.7619624,9.01417997 6.98582003,9.2380376 6.98582003,9.51417997 L6.98582003,14.5 C6.98582003,14.7761424 6.7619624,15 6.48582003,15 L1.5,15 C1.22385763,15 1,14.7761424 1,14.5 L1,9.51417997 C1,9.2380376 1.22385763,9.01417997 1.5,9.01417997 L6.48582003,9.01417997 Z M14.4669134,9.01417997 C14.7430558,9.01417997 14.9669134,9.2380376 14.9669134,9.51417997 L14.9669134,14.5 C14.9669134,14.7761424 14.7430558,15 14.4669134,15 L9.48109337,15 C9.204951,15 8.98109337,14.7761424 8.98109337,14.5 L8.98109337,9.51417997 C8.98109337,9.2380376 9.204951,9.01417997 9.48109337,9.01417997 L14.4669134,9.01417997 Z M5.98818336,10.0118166 L1.99763667,10.0118166 L1.99763667,14.0023633 L5.98818336,14.0023633 L5.98818336,10.0118166 Z M13.9692767,10.0118166 L9.97873004,10.0118166 L9.97873004,14.0023633 L13.9692767,14.0023633 L13.9692767,10.0118166 Z M12.3275568,0.146936071 L15.8530639,3.67244322 C16.0483261,3.86770537 16.0483261,4.18428786 15.8530639,4.37955 L12.3275568,7.90505716 C12.1322946,8.1003193 11.8157121,8.1003193 11.62045,7.90505716 L8.09494284,4.37955 C7.8996807,4.18428786 7.8996807,3.86770537 8.09494284,3.67244322 L11.62045,0.146936071 C11.8157121,-0.0483260751 12.1322946,-0.0483260751 12.3275568,0.146936071 Z M6.48582003,1.0330866 C6.7619624,1.0330866 6.98582003,1.25694422 6.98582003,1.5330866 L6.98582003,6.51890663 C6.98582003,6.795049 6.7619624,7.01890663 6.48582003,7.01890663 L1.5,7.01890663 C1.22385763,7.01890663 1,6.795049 1,6.51890663 L1,1.5330866 C1,1.25694422 1.22385763,1.0330866 1.5,1.0330866 L6.48582003,1.0330866 Z M11.9740034,1.20425399 L9.15226076,4.02599661 L11.9740034,6.84773924 L14.795746,4.02599661 L11.9740034,1.20425399 Z M5.98818336,2.03072327 L1.99763667,2.03072327 L1.99763667,6.02126996 L5.98818336,6.02126996 L5.98818336,2.03072327 Z"/></svg>