<svg width="16" height="16" fill="none" viewBox="0 0 16 16">
  <path fill="#242424" fill-rule="evenodd" d="m11.828.648 3.525 3.525a.5.5 0 0 1 0 .707l-3.525 3.526a.5.5 0 0 1-.707 0L7.595 4.88a.5.5 0 0 1 0-.707L11.121.648a.5.5 0 0 1 .707 0Zm2.468 3.879-2.822-2.822-2.822 2.822 2.822 2.821 2.822-2.821Zm-8.31-2.993a.5.5 0 0 1 .5.5V7.02a.5.5 0 0 1-.5.5H1a.5.5 0 0 1-.5-.5V2.034a.5.5 0 0 1 .5-.5h4.986Zm-.498.997h-3.99v3.991h3.99v-3.99Zm.498 6.984a.5.5 0 0 1 .5.5V15a.5.5 0 0 1-.5.5H1a.5.5 0 0 1-.5-.5v-4.986a.5.5 0 0 1 .5-.5h4.986Zm-.498.997h-3.99v3.991h3.99v-3.99Zm8.979-.497a.5.5 0 0 0-.5-.5H8.981a.5.5 0 0 0-.5.5V15a.5.5 0 0 0 .5.5h4.986a.5.5 0 0 0 .5-.5v-4.986Zm-4.988.497h3.99v3.991H9.48v-3.99Z" clip-rule="evenodd"/>
</svg>
