<svg width="16" height="16" viewBox="0 0 16 16" fill="none" xmlns="http://www.w3.org/2000/svg">
<path fill-rule="evenodd" clip-rule="evenodd" d="M12.3276 0.146935L15.8531 3.67244C16.0483 3.8677 16.0483 4.18429 15.8531 4.37955L12.3276 7.90506C12.1323 8.10032 11.8157 8.10032 11.6205 7.90506L8.09494 4.37955C7.89968 4.18429 7.89968 3.8677 8.09494 3.67244L11.6205 0.146935C11.8157 -0.0483274 12.1323 -0.0483271 12.3276 0.146935ZM14.7957 4.026L11.974 1.20425L9.15226 4.026L11.974 6.84774L14.7957 4.026ZM6.48582 1.03309C6.76196 1.03309 6.98582 1.25694 6.98582 1.53309V6.51891C6.98582 6.79505 6.76196 7.01891 6.48582 7.01891H1.5C1.22386 7.01891 1 6.79505 1 6.51891V1.53309C1 1.25694 1.22386 1.03309 1.5 1.03309H6.48582ZM5.98818 2.03072H1.99764V6.02127H5.98818V2.03072ZM6.48582 9.01418C6.76196 9.01418 6.98582 9.23804 6.98582 9.51418V14.5C6.98582 14.7761 6.76196 15 6.48582 15H1.5C1.22386 15 1 14.7761 1 14.5V9.51418C1 9.23804 1.22386 9.01418 1.5 9.01418H6.48582ZM5.98818 10.0118H1.99764V14.0024H5.98818V10.0118ZM14.9669 9.51418C14.9669 9.23804 14.7431 9.01418 14.4669 9.01418H9.48109C9.20495 9.01418 8.98109 9.23804 8.98109 9.51418V14.5C8.98109 14.7761 9.20495 15 9.48109 15H14.4669C14.7431 15 14.9669 14.7761 14.9669 14.5V9.51418ZM9.97873 10.0118H13.9693V14.0024H9.97873V10.0118Z" fill="#242424"/>
</svg>
