<svg width="16" height="16" viewBox="0 0 16 16" fill="none" xmlns="http://www.w3.org/2000/svg">
<path fill-rule="evenodd" clip-rule="evenodd" d="M0 4C0 3.72386 0.223858 3.5 0.5 3.5H15.5C15.7761 3.5 16 3.72386 16 4C16 4.27614 15.7761 4.5 15.5 4.5H0.5C0.223858 4.5 0 4.27614 0 4ZM0 8C0 7.72386 0.223858 7.5 0.5 7.5H11.5C11.7761 7.5 12 7.72386 12 8C12 8.27614 11.7761 8.5 11.5 8.5H0.5C0.223858 8.5 0 8.27614 0 8ZM0.5 11.5C0.223858 11.5 0 11.7239 0 12C0 12.2761 0.223858 12.5 0.5 12.5H7.5C7.77614 12.5 8 12.2761 8 12C8 11.7239 7.77614 11.5 7.5 11.5H0.5Z" fill="#242424"/>
</svg>
