<svg width="16" height="16" fill="none" viewBox="0 0 16 16">
  <path fill="#242424" d="M.5 1.001h8.84l-.428 1H1v4h6.198l-.429 1H.5a.5.5 0 0 1-.5-.5v-5a.5.5 0 0 1 .5-.5Zm13.016 5.001L11 6h4V2h-4V1h4.5a.5.5 0 0 1 .5.5v5a.5.5 0 0 1-.5.5h-2.412l.428-1ZM.5 9.001h5.412l-.429 1H1v4h7v1H.5a.5.5 0 0 1-.5-.5v-5a.5.5 0 0 1 .5-.5Z M5.483 10.001 8 10v.001H5.483Zm10.017-1h-3.27l-.428 1H15v4h-4.912l-.429 1H15.5a.5.5 0 0 0 .5-.5v-5a.5.5 0 0 0-.5-.5Zm-11.5-4v-2H2v2h2Zm0 8v-2H2v2h2Z M10 2.001v5h2l-3 7v-5H7l3-7Z"/>
</svg>