<svg width="16" height="16" viewBox="0 0 16 16" fill="none" xmlns="http://www.w3.org/2000/svg">
<path fill-rule="evenodd" clip-rule="evenodd" d="M0.5 1H9.3406L8.91203 2H1V6H7.19775L6.76918 7H0.5C0.223858 7 0 6.77614 0 6.5V1.5C0 1.22386 0.223858 1 0.5 1ZM15 6H11.0016L13.5162 6.00076L13.088 7H15.5C15.7761 7 16 6.77614 16 6.5V1.5C16 1.22386 15.7761 1 15.5 1H11V2H15V6ZM0.5 9H5.91203L5.48346 10H1V14H8V15H0.5C0.223858 15 0 14.7761 0 14.5V9.5C0 9.22386 0.223858 9 0.5 9ZM5.48346 10L8 9.999V10H5.48346ZM15.5 9H12.2308L11.8023 10H15V14H10.088L9.6594 15H15.5C15.7761 15 16 14.7761 16 14.5V9.5C16 9.22386 15.7761 9 15.5 9ZM4 5V3H2V5H4ZM4 13V11H2V13H4ZM10 2V7H12L9 14V9H7L10 2Z" fill="#242424"/>
</svg>
