<svg width="16" height="16" viewBox="0 0 16 16" fill="none" xmlns="http://www.w3.org/2000/svg">
<path fill-rule="evenodd" clip-rule="evenodd" d="M15.5 1C15.7761 1 16 1.22386 16 1.5V6.5C16 6.77614 15.7761 7 15.5 7H0.5C0.223858 7 0 6.77614 0 6.5V1.5C0 1.22386 0.223858 1 0.5 1H15.5ZM15 2H1V6H15V2ZM4 5V3H2V5H4ZM16 9.5C16 9.22386 15.7761 9 15.5 9H0.5C0.223858 9 0 9.22386 0 9.5V14.5C0 14.7761 0.223858 15 0.5 15H15.5C15.7761 15 16 14.7761 16 14.5V9.5ZM1 10H15V14H1V10ZM4 13V11H2V13H4Z" fill="#242424"/>
</svg>
