<svg width="16" height="16" viewBox="0 0 16 16" fill="none" xmlns="http://www.w3.org/2000/svg">
<g clip-path="url(#clip0_1249_19511)">
<path d="M1.71914 0.558098C3.1195 -0.2504 5.09254 0.258013 5.8298 1.53498C6.35116 2.43801 6.4395 3.38003 6.09485 4.32448L6.02388 4.50081L7.17862 6.50087L10.9743 5.75227C11.1391 5.71975 11.3059 5.78016 11.4119 5.90492L11.4595 5.97254L12.7402 8.19072C12.8666 8.40972 12.7916 8.68974 12.5726 8.81618C12.3779 8.92857 12.135 8.88177 11.9947 8.71618L11.9471 8.64859L10.83 6.71371L7.03563 7.46318C6.87088 7.4957 6.70405 7.43529 6.59806 7.31053L6.55043 7.24292L5.11391 4.7548C5.03727 4.62205 5.03214 4.45976 5.10024 4.32243C5.49987 3.51664 5.47868 2.75829 5.03675 1.99285C4.55436 1.15731 3.14275 0.793572 2.17701 1.35114C1.16224 1.93702 0.773164 3.23113 1.30287 4.14861C1.74281 4.91061 2.39909 5.30052 3.32333 5.3435C3.45319 5.34954 3.57304 5.41033 3.65452 5.50861L3.69858 5.57194L5.13509 8.06006C5.21927 8.20586 5.2157 8.38375 5.13127 8.52447L5.08235 8.59142L2.5035 11.5221L3.62014 13.4562C3.68799 13.5737 3.971 13.5777 4.38928 13.4924L4.65585 13.4307C4.70277 13.4186 4.75088 13.4058 4.80011 13.3921L5.10819 13.3004L5.43915 13.1901C5.496 13.1702 5.55365 13.1496 5.61201 13.1283L5.97011 12.9923L6.3415 12.8407C6.40429 12.8142 6.46748 12.7871 6.53098 12.7594L6.91513 12.5864L7.30298 12.4007C7.56194 12.2728 7.82082 12.1372 8.0745 11.9955L8.2637 11.888C8.74541 11.6099 9.28267 11.2612 9.78633 10.8967C10.0247 10.7242 10.2528 10.5502 10.4654 10.3782C10.662 10.2192 10.9503 10.2496 11.1094 10.4463C11.2684 10.6429 11.2379 10.9312 11.0413 11.0902C10.8155 11.2728 10.5744 11.4567 10.3232 11.6385C9.79428 12.0213 9.23066 12.3871 8.72157 12.6811L8.28721 12.9256L7.85437 13.1568C7.78248 13.1942 7.71073 13.2309 7.63917 13.267L7.21249 13.4755C7.07127 13.5423 6.93116 13.6063 6.79252 13.6672L6.38131 13.8407C4.75681 14.4966 3.39264 14.6828 2.88592 14.0035L2.82709 13.914L1.54642 11.6959C1.46224 11.5501 1.46581 11.3722 1.55024 11.2314L1.59917 11.1645L4.17773 8.23344L3.02574 6.23813L2.85805 6.21723C1.9003 6.07311 1.14429 5.59076 0.618873 4.78425L0.509822 4.60647C-0.279161 3.23991 0.276764 1.39086 1.71914 0.558098ZM15.6 15C15.8209 15 16 15.2238 16 15.5C16 15.7454 15.8585 15.9496 15.6719 15.9919L15.6 16H8.40003C8.17911 16 8.00003 15.7761 8.00003 15.5C8.00003 15.2545 8.14153 15.0504 8.32813 15.008L8.40003 15H15.6Z" fill="#242424"/>
</g>
<defs>
<clipPath id="clip0_1249_19511">
<rect width="16" height="16" fill="white"/>
</clipPath>
</defs>
</svg>
