<svg xmlns="http://www.w3.org/2000/svg" width="16" height="16" viewBox="0 0 16 16"><path fill="#242424" d="M15.6,15 C15.8209139,15 16,15.2238576 16,15.5 C16,15.7454599 15.8584999,15.9496084 15.6719005,15.9919443 L15.6,16 L8.4,16 C8.1790861,16 8,15.7761424 8,15.5 C8,15.2545401 8.14150013,15.0503916 8.32809949,15.0080557 L8.4,15 L15.6,15 Z M5.82976983,1.53500063 C6.35113658,2.43803434 6.43947173,3.38004902 6.09481948,4.32450211 L6.0238528,4.50082979 L7.17859073,6.50089456 L10.9742846,5.75229048 C11.139027,5.71976993 11.3058581,5.78017643 11.4118475,5.90494151 L11.4594807,5.972555 L12.7401525,8.1907436 C12.8665887,8.40973751 12.7915559,8.68976393 12.572562,8.81620013 C12.3779007,8.92858785 12.1350162,8.88179016 11.994645,8.71619675 L11.9471054,8.64860956 L10.8300047,6.71373425 L7.03559874,7.46319951 C6.87085627,7.49572006 6.70402521,7.43531356 6.59803579,7.31054848 L6.55040257,7.24293499 L5.11388579,4.75481495 C5.03724442,4.6220682 5.03211354,4.45977632 5.10021661,4.32245346 C5.49983853,3.51665685 5.47865191,2.75831039 5.03672273,1.99286659 C4.55432717,1.15733296 3.14272573,0.793590794 2.17698067,1.35116396 C1.16221328,1.93704019 0.77313528,3.23114833 1.30284042,4.14862454 C1.74278276,4.91062702 2.39906305,5.30053588 3.32329664,5.3435222 C3.45315656,5.34956202 3.57300753,5.41035372 3.65448962,5.50863288 L3.69854773,5.57196075 L5.13506451,8.06008079 C5.21924108,8.2058789 5.21567473,8.3837736 5.13124185,8.52449331 L5.08231838,8.59143454 L2.50346803,11.5221198 L3.62011095,13.4562021 C3.68796205,13.5737236 3.97096942,13.5777605 4.38925613,13.4924174 L4.65582266,13.4306789 C4.702743,13.4186658 4.75085638,13.4058071 4.80008292,13.3921269 L5.10816109,13.300381 L5.43912108,13.1900765 C5.49597489,13.1702101 5.55362235,13.1496187 5.6119836,13.1283263 L5.97007738,12.9923533 L6.34146775,12.8407143 C6.40426118,12.8141999 6.46744889,12.7870809 6.53095099,12.7593815 L6.91509731,12.5864129 L7.30295498,12.4006708 C7.56191186,12.272842 7.82078691,12.1372689 8.07446801,11.9954943 L8.2636751,11.8880246 C8.74538328,11.6099102 9.28264638,11.2611947 9.78630006,10.8966987 C10.0246298,10.7242186 10.2527545,10.5501948 10.4653909,10.3782132 C10.6620037,10.2191916 10.9503023,10.2496653 11.1093238,10.4462781 C11.2683454,10.6428908 11.2378718,10.9311894 11.041259,11.090211 C10.8154923,11.2728125 10.5743956,11.456732 10.3231744,11.6385416 C9.79424738,12.0213279 9.2306297,12.3871492 8.72154105,12.6810717 L8.28718523,12.925651 L7.85434598,13.1568444 C7.78244768,13.1941848 7.71069896,13.2309102 7.63914301,13.2669919 L7.21246625,13.4755297 C7.07124216,13.542315 6.93113474,13.6062968 6.79248956,13.6672459 L6.38128633,13.8407663 C4.75678488,14.496624 3.39260807,14.6828009 2.88589397,14.003515 L2.82706385,13.914068 L1.54639207,11.6958794 C1.4622155,11.5500813 1.46578185,11.3721866 1.55021473,11.2314669 L1.5991382,11.1645257 L4.17770053,8.23345933 L3.02570979,6.23815284 L2.85801838,6.21724759 C1.90026608,6.07312637 1.14426519,5.59078126 0.618843833,4.78427077 L0.509793326,4.6064905 C-0.279189991,3.23993131 0.276734998,1.39087519 1.71911472,0.558116867 C3.11947365,-0.25038074 5.0925121,0.2580328 5.82976983,1.53500063 Z"/></svg>