<svg width="16" height="16" viewBox="0 0 16 16" fill="none" xmlns="http://www.w3.org/2000/svg">
<path fill-rule="evenodd" clip-rule="evenodd" d="M8 16C12.4183 16 16 12.4183 16 8C16 3.58172 12.4183 0 8 0C3.58172 0 0 3.58172 0 8C0 12.4183 3.58172 16 8 16ZM13.0303 5.53033C13.3232 5.23744 13.3232 4.76256 13.0303 4.46967C12.7374 4.17678 12.2626 4.17678 11.9697 4.46967L6.5 9.93934L4.03033 7.46967C3.73744 7.17678 3.26256 7.17678 2.96967 7.46967C2.67678 7.76256 2.67678 8.23744 2.96967 8.53033L6.5 12.0607L13.0303 5.53033Z" fill="#242424"/>
</svg>
