<svg width="16" height="16" fill="none" viewBox="0 0 16 16">
  <path fill="#242424" d="M10.146 4.647a.5.5 0 0 1 .638-.057l.07.057L12 5.794l3.146-3.147a.5.5 0 0 1 .638-.057l.07.057a.5.5 0 0 1 .057.638l-.057.07-3.5 3.5a.5.5 0 0 1-.638.057l-.07-.057-1.5-1.5a.5.5 0 0 1 0-.708ZM.5 4.001h6a.5.5 0 1 1 0 1h-6a.5.5 0 0 1 0-1Zm0 6.5h6a.5.5 0 1 1 0 1h-6a.5.5 0 0 1 0-1Zm14.855-1.355a.496.496 0 0 1 0 .702l-1.403 1.403 1.403 1.403a.496.496 0 0 1-.702.702l-1.404-1.404-1.402 1.404a.496.496 0 0 1-.702-.702l1.403-1.404-1.403-1.402a.496.496 0 0 1 .702-.702l1.403 1.403 1.403-1.403a.496.496 0 0 1 .702 0Z"/>
</svg>
