<svg width="16" height="16" viewBox="0 0 16 16" fill="none" xmlns="http://www.w3.org/2000/svg">
<path fill-rule="evenodd" clip-rule="evenodd" d="M10.1464 4.64645C10.32 4.47288 10.5894 4.45359 10.7843 4.58859L10.8536 4.64645L12 5.793L15.1464 2.64645C15.32 2.47288 15.5894 2.4536 15.7843 2.58859L15.8536 2.64645C16.0271 2.82001 16.0464 3.08944 15.9114 3.28431L15.8536 3.35355L12.3536 6.85355C12.18 7.02712 11.9106 7.0464 11.7157 6.91141L11.6464 6.85355L10.1464 5.35355C9.95118 5.15829 9.95118 4.84171 10.1464 4.64645ZM0.5 4H6.5C6.77614 4 7 4.22386 7 4.5C7 4.77614 6.77614 5 6.5 5H0.5C0.223858 5 0 4.77614 0 4.5C0 4.22386 0.223858 4 0.5 4ZM0.5 10.5H6.5C6.77614 10.5 7 10.7239 7 11C7 11.2761 6.77614 11.5 6.5 11.5H0.5C0.223858 11.5 0 11.2761 0 11C0 10.7239 0.223858 10.5 0.5 10.5ZM15.3547 9.1453C15.5484 9.33903 15.5484 9.65313 15.3547 9.84687L13.9516 11.25L15.3547 12.6531C15.5484 12.8469 15.5484 13.161 15.3547 13.3547C15.161 13.5484 14.8469 13.5484 14.6531 13.3547L13.2493 11.9509L11.8469 13.3547C11.6531 13.5484 11.339 13.5484 11.1453 13.3547C10.9516 13.161 10.9516 12.8469 11.1453 12.6531L12.5477 11.2493L11.1453 9.84687C10.9516 9.65313 10.9516 9.33903 11.1453 9.1453C11.339 8.95157 11.6531 8.95157 11.8469 9.1453L13.25 10.5484L14.6531 9.1453C14.8469 8.95157 15.161 8.95157 15.3547 9.1453Z" fill="#242424"/>
</svg>
