<svg width="16" height="16" viewBox="0 0 16 16" fill="none" xmlns="http://www.w3.org/2000/svg">
<path fill-rule="evenodd" clip-rule="evenodd" d="M16 8C16 12.4183 12.4183 16 8 16C3.58172 16 0 12.4183 0 8C0 3.58172 3.58172 0 8 0C12.4183 0 16 3.58172 16 8ZM8.00171 3.25C8.41592 3.25 8.75171 3.58579 8.75171 4V9C8.75171 9.41421 8.41592 9.75 8.00171 9.75C7.5875 9.75 7.25171 9.41421 7.25171 9V4C7.25171 3.58579 7.5875 3.25 8.00171 3.25ZM8 12.75C8.55228 12.75 9 12.3023 9 11.75C9 11.1977 8.55228 10.75 8 10.75C7.44772 10.75 7 11.1977 7 11.75C7 12.3023 7.44772 12.75 8 12.75Z" fill="#242424"/>
</svg>
