<svg width="16" height="16" viewBox="0 0 16 16" fill="none" xmlns="http://www.w3.org/2000/svg">
<mask id="path-1-inside-1_4122_3491" fill="white">
<path d="M15 8C15 11.866 11.866 15 8 15C4.13401 15 1 11.866 1 8C1 4.13401 4.13401 1 8 1C11.866 1 15 4.13401 15 8Z"/>
</mask>
<path d="M13 8C13 10.7614 10.7614 13 8 13V17C12.9706 17 17 12.9706 17 8H13ZM8 13C5.23858 13 3 10.7614 3 8H-1C-1 12.9706 3.02944 17 8 17V13ZM3 8C3 5.23858 5.23858 3 8 3V-1C3.02944 -1 -1 3.02944 -1 8H3ZM8 3C10.7614 3 13 5.23858 13 8H17C17 3.02944 12.9706 -1 8 -1V3Z" fill="#242424" mask="url(#path-1-inside-1_4122_3491)"/>
</svg>
