<svg width="16" height="16" viewBox="0 0 16 16" fill="none" xmlns="http://www.w3.org/2000/svg">
<path fill-rule="evenodd" clip-rule="evenodd" d="M7.57131 1.24274L0.0720294 13.7415C-0.127909 14.0748 0.112125 14.4987 0.500735 14.4987H15.4993C15.8879 14.4987 16.1279 14.0748 15.928 13.7415L8.42872 1.24274C8.23453 0.919106 7.76549 0.919106 7.57131 1.24274ZM8.00171 4.25C8.41592 4.25 8.75171 4.58579 8.75171 5V9C8.75171 9.41421 8.41592 9.75 8.00171 9.75C7.5875 9.75 7.25171 9.41421 7.25171 9V5C7.25171 4.58579 7.5875 4.25 8.00171 4.25ZM8 12.75C8.55228 12.75 9 12.3023 9 11.75C9 11.1977 8.55228 10.75 8 10.75C7.44772 10.75 7 11.1977 7 11.75C7 12.3023 7.44772 12.75 8 12.75Z" fill="#242424"/>
</svg>
