<svg width="16" height="16" viewBox="0 0 16 16" fill="none" xmlns="http://www.w3.org/2000/svg">
<path fill-rule="evenodd" clip-rule="evenodd" d="M12.4878 0.0330811C12.764 0.0330811 12.9878 0.256939 12.9878 0.533081V5.5189C12.9878 5.79504 12.764 6.0189 12.4878 6.0189H0.502015C0.225872 6.0189 0.00201416 5.79504 0.00201416 5.5189V0.533081C0.00201416 0.256938 0.225872 0.0330811 0.502014 0.0330811H12.4878ZM11.9902 1.0307H0.999664V5.02125H11.9902V1.0307Z" fill="#242424"/>
<path d="M13 15C13 14.7239 12.7761 14.5 12.5 14.5H0.5C0.223858 14.5 0 14.7239 0 15C0 15.2761 0.223858 15.5 0.5 15.5H12.5C12.7761 15.5 13 15.2761 13 15Z" fill="#242424"/>
<path d="M14 9C14 8.72386 13.7245 8.5 13.3846 8.5H0.615385C0.275517 8.5 0 8.72386 0 9C0 9.27614 0.275517 9.5 0.615385 9.5H13.3846C13.7245 9.5 14 9.27614 14 9Z" fill="#242424"/>
<path d="M16 12C16 11.7239 15.7761 11.5 15.5 11.5H0.5C0.223858 11.5 0 11.7239 0 12C0 12.2761 0.223858 12.5 0.5 12.5H15.5C15.7761 12.5 16 12.2761 16 12Z" fill="#242424"/>
</svg>
