<svg width="16" height="16" fill="none" viewBox="0 0 16 16">
  <path fill="#242424" fill-rule="evenodd" d="M12.488.268a.5.5 0 0 1 .5.5v4.985a.5.5 0 0 1-.5.5H.502a.5.5 0 0 1-.5-.5V.768a.5.5 0 0 1 .5-.5h11.986Zm-.498.997H1v3.99h10.99v-3.99Z M13 15.235a.5.5 0 0 0-.5-.5H.5a.5.5 0 0 0 0 1h12a.5.5 0 0 0 .5-.5Zm1-6c0-.277-.275-.5-.615-.5H.615c-.34 0-.615.223-.615.5 0 .276.276.5.615.5h12.77c.34 0 .615-.224.615-.5Zm2 3a.5.5 0 0 0-.5-.5H.5a.5.5 0 0 0 0 1h15a.5.5 0 0 0 .5-.5Z" clip-rule="evenodd"/>
</svg>
