<svg width="16" height="16" viewBox="0 0 16 16" fill="none" xmlns="http://www.w3.org/2000/svg">
<path fill-rule="evenodd" clip-rule="evenodd" d="M2.8434 1H4.83699H5.85532H7.5H8.5H10.1447H11.163H13.1566C13.5704 1 13.9414 1.25483 14.0899 1.64102L15.7487 5.95382C16.1202 6.91961 15.6384 8.00366 14.6726 8.37512C14.458 8.45767 14.23 8.5 14 8.5C13.1375 8.5 12.3497 8.12302 11.8099 7.51216C11.5027 7.98971 11.0081 8.34557 10.4064 8.46128C10.2725 8.48703 10.1364 8.5 10 8.5C9.1822 8.5 8.45612 8.10733 8 7.50024C7.54389 8.10733 6.8178 8.5 6 8.5C5.2405 8.5 4.57289 8.10655 4.18988 7.51236C3.70274 8.06355 3.01368 8.42427 2.25 8.48938V13.5C2.25 13.7761 2.47386 14 2.75 14H13.25C13.5261 14 13.75 13.7761 13.75 13.5V12.5V12V10.5C13.75 10.2239 13.9739 10 14.25 10C14.5261 10 14.75 10.2239 14.75 10.5V12V12.5V13.5C14.75 14.3284 14.0784 15 13.25 15H2.75C1.92157 15 1.25 14.3284 1.25 13.5V8.34386C0.588582 8.05461 0.126404 7.39448 0.126404 6.6264C0.126404 6.39644 0.168737 6.16845 0.251287 5.95382L1.91006 1.64102C2.05859 1.25483 2.42963 1 2.8434 1ZM2.843 2H4.644L3.88669 5.94156C3.71273 6.84617 2.92118 7.5 2 7.5C1.51753 7.5 1.1264 7.10888 1.1264 6.6264L1.13295 6.51968C1.14165 6.449 1.15897 6.37952 1.18463 6.3128L2.843 2ZM5.663 2H7.5V6C7.5 6.82843 6.82843 7.5 6 7.5C5.36375 7.5 4.84797 6.98422 4.84797 6.34797L4.85316 6.2387L4.85964 6.18438L5.663 2ZM10.336 2H8.5V6C8.5 6.7797 9.09489 7.42045 9.85554 7.49313L10 7.5C10.073 7.5 10.1459 7.49306 10.2176 7.47927C10.8424 7.35912 11.2515 6.75521 11.1313 6.13041L10.336 2ZM11.355 2H13.156L14.8154 6.3128C14.9886 6.76311 14.7639 7.26857 14.3136 7.44177C14.2135 7.48026 14.1072 7.5 14 7.5L13.8389 7.49329C12.9878 7.42221 12.277 6.79296 12.1133 5.94156L11.355 2Z" fill="#242424"/>
</svg>
