<svg width="16" height="16" fill="none" viewBox="0 0 16 16">
  <path fill="#242424" fill-rule="evenodd" d="M2.843 1.001h10.313a1 1 0 0 1 .934.641l1.659 4.313a1.874 1.874 0 0 1-1.75 2.546 2.92 2.92 0 0 1-2.19-.988 2.146 2.146 0 0 1-1.81.988 2.496 2.496 0 0 1-2-1c-.455.607-1.181 1-2 1a2.15 2.15 0 0 1-1.81-.988 2.92 2.92 0 0 1-1.94.977v5.011a.5.5 0 0 0 .5.5h10.5a.5.5 0 0 0 .5-.5v-3a.5.5 0 1 1 1 0v3a1.5 1.5 0 0 1-1.5 1.5H2.75a1.5 1.5 0 0 1-1.5-1.5V8.345a1.874 1.874 0 0 1-.998-2.39L1.91 1.642a1 1 0 0 1 .933-.641Zm0 1h1.8l-.757 3.942A1.921 1.921 0 0 1 2 7.5a.874.874 0 0 1-.874-.874l.007-.106a.874.874 0 0 1 .051-.207L2.843 2Zm2.82 0H7.5v4a1.5 1.5 0 0 1-1.5 1.5 1.152 1.152 0 0 1-1.152-1.152l.005-.11.006-.054.804-4.184Zm4.673 0H8.5v4a1.5 1.5 0 0 0 1.355 1.493l.145.007a1.151 1.151 0 0 0 1.131-1.37l-.795-4.13Zm1.019 0h1.8l1.66 4.313A.874.874 0 0 1 14 7.5l-.161-.007a1.921 1.921 0 0 1-1.726-1.551L11.355 2Z" clip-rule="evenodd"/>
</svg>
