<svg xmlns="http://www.w3.org/2000/svg" width="16" height="16" fill="none" viewBox="0 0 16 16">
  <path fill="#242424" d="M2.843 1.001h10.313a1 1 0 0 1 .934.641l1.659 4.313a1.874 1.874 0 0 1-1.75 2.546 2.92 2.92 0 0 1-2.19-.988 2.146 2.146 0 0 1-1.81.988 2.496 2.496 0 0 1-2-1c-.455.607-1.181 1-2 1a2.15 2.15 0 0 1-1.81-.988c-.485.55-1.182.91-1.943.977V7.484a1.933 1.933 0 0 0 1.64-1.541L4.548 2.5h1.019l-.708 3.684-.006.055-.005.109C4.848 6.984 5.364 7.5 6 7.5A1.5 1.5 0 0 0 7.5 6V2.5h1V6a1.5 1.5 0 0 0 1.355 1.493L10 7.5a1.151 1.151 0 0 0 1.131-1.37l-.699-3.63h1.019l.662 3.442c.164.85.875 1.48 1.726 1.551l.16.007a.874.874 0 0 0 .816-1.187L13.155 2H2.844l-1.66 4.314a.874.874 0 0 0-.051.207l-.007.106c0 .483.391.874.874.874.083 0 .165-.005.246-.016v1.516h.004v4.5a.5.5 0 0 0 .5.5h10.5a.5.5 0 0 0 .5-.5v-3a.5.5 0 1 1 1 0v3a1.5 1.5 0 0 1-1.5 1.5H2.75a1.5 1.5 0 0 1-1.5-1.5V8.345a1.874 1.874 0 0 1-.999-2.39L1.91 1.642a1 1 0 0 1 .933-.641Z"/>
</svg>
