<svg width="16" height="16" viewBox="0 0 16 16" fill="none" xmlns="http://www.w3.org/2000/svg">
<path fill-rule="evenodd" clip-rule="evenodd" d="M14 13C14 14.1046 13.1046 15 12 15C10.8954 15 10 14.1046 10 13C10 11.8954 10.8954 11 12 11C13.1046 11 14 11.8954 14 13ZM12 14C12.3701 14 12.6933 13.7989 12.8662 13.5C12.9513 13.3529 13 13.1821 13 13C13 12.8179 12.9513 12.6471 12.8662 12.5C12.6933 12.2011 12.3701 12 12 12C11.6299 12 11.3067 12.2011 11.1338 12.5C11.0487 12.6471 11 12.8179 11 13C11 13.1821 11.0487 13.3529 11.1338 13.5C11.3067 13.7989 11.6299 14 12 14Z" fill="black"/>
<path fill-rule="evenodd" clip-rule="evenodd" d="M6 13C6 14.1046 5.10457 15 4 15C2.89543 15 2 14.1046 2 13C2 11.8954 2.89543 11 4 11C5.10457 11 6 11.8954 6 13ZM4 14C4.37014 14 4.69331 13.7989 4.86622 13.5C4.9513 13.3529 5 13.1821 5 13C5 12.8179 4.9513 12.6471 4.86622 12.5C4.69331 12.2011 4.37014 12 4 12C3.62986 12 3.30669 12.2011 3.13378 12.5C3.0487 12.6471 3 12.8179 3 13C3 13.1821 3.0487 13.3529 3.13378 13.5C3.30669 13.7989 3.62986 14 4 14Z" fill="black"/>
<path fill-rule="evenodd" clip-rule="evenodd" d="M5 4C5 3.44772 5.44772 3 6 3H15C15.5523 3 16 3.44772 16 4V12.5C16 13.0523 15.5523 13.5 15 13.5H12.8662C12.9513 13.3529 13 13.1821 13 13C13 12.8179 12.9513 12.6471 12.8662 12.5H15V4H6V12.5H11.1338C11.0487 12.6471 11 12.8179 11 13C11 13.1821 11.0487 13.3529 11.1338 13.5H4.86622C4.9513 13.3529 5 13.1821 5 13C5 12.8179 4.9513 12.6471 4.86622 12.5H5V6.5L2.3297 6.5L1 9.60263V12.5H3.13378C3.0487 12.6471 3 12.8179 3 13C3 13.1821 3.0487 13.3529 3.13378 13.5H1C0.447716 13.5 0 13.0523 0 12.5V9.39737L1.41055 6.10608C1.56813 5.7384 1.92967 5.5 2.3297 5.5H5V4Z" fill="black"/>
</svg>
