<svg width="18" height="16" fill="none" viewBox="0 0 18 16">
  <path fill="#242424" d="M13.154 1.1a.592.592 0 0 0-.735.064l-.067.077a.541.541 0 0 0 .067.708l3.202 3.052-3.202 3.052-.067.077a.541.541 0 0 0 .067.708.59.59 0 0 0 .814 0l4.017-3.837-4.017-3.837-.08-.065ZM4.846 14.902a.59.59 0 0 0 .735-.064l.067-.077a.54.54 0 0 0-.067-.708L2.38 11l3.202-3.052.067-.077a.541.541 0 0 0-.067-.708.591.591 0 0 0-.815 0L.75 11l4.016 3.837.08.065Z M7.75 4.501h6a.5.5 0 0 1 .09.992l-.09.008h-6v-1Zm-3.5 7h6v-1h-6l-.09.008a.5.5 0 0 0 .09.992Z"/>
</svg>