<svg width="17" height="16" viewBox="0 0 17 16" fill="none" xmlns="http://www.w3.org/2000/svg">
<path d="M12.9037 1.09843C12.6792 0.948439 12.3687 0.969867 12.1687 1.16272L12.1021 1.23966C11.9465 1.45618 11.9688 1.75554 12.1687 1.94839L15.3706 5L12.1687 8.05161L12.1021 8.12855C11.9465 8.34507 11.9688 8.64443 12.1687 8.83728C12.3937 9.05424 12.7585 9.05424 12.9835 8.83728L17 5L12.9835 1.16272L12.9037 1.09843Z" fill="#242424"/>
<path d="M4.59627 14.9016C4.82081 15.0516 5.13126 15.0301 5.33125 14.8373L5.39792 14.7603C5.55347 14.5438 5.53125 14.2445 5.33125 14.0516L2.12943 11L5.33125 7.94839L5.39792 7.87145C5.55347 7.65493 5.53125 7.35557 5.33125 7.16272C5.10626 6.94576 4.74147 6.94576 4.51647 7.16272L0.5 11L4.51647 14.8373L4.59627 14.9016Z" fill="#242424"/>
<path d="M7.5 4.5H13.5C13.7761 4.5 14 4.72386 14 5C14 5.24546 13.8231 5.44961 13.5899 5.49194L13.5 5.5H7.5V4.5Z" fill="#242424"/>
<path d="M4 11.5L10 11.5V10.5L4 10.5L3.91012 10.5081C3.67688 10.5504 3.5 10.7545 3.5 11C3.5 11.2761 3.72386 11.5 4 11.5Z" fill="#242424"/>
</svg>
