<svg width="16" height="16" viewBox="0 0 16 16" fill="none" xmlns="http://www.w3.org/2000/svg">
<path fill-rule="evenodd" clip-rule="evenodd" d="M5 0C3.34315 0 2 1.34315 2 3C2 4.65685 3.34315 6 5 6C6.65685 6 8 4.65685 8 3C8 1.34315 6.65685 0 5 0ZM5 1C6.10457 1 7 1.89543 7 3C7 4.10457 6.10457 5 5 5C3.89543 5 3 4.10457 3 3C3 1.89543 3.89543 1 5 1Z" fill="#242424"/>
<path d="M8.11203 7.6703C7.45241 6.93118 6.51041 6.5 5.5 6.5H4.5L4.30796 6.50518C2.46428 6.60487 1 8.13144 1 10V13L1.00806 13.0899C1.05039 13.3231 1.25454 13.5 1.5 13.5H6L6.08988 13.4919C6.32312 13.4496 6.5 13.2455 6.5 13L6.49194 12.9101C6.44961 12.6769 6.24546 12.5 6 12.5H2V10L2.00532 9.83562C2.08996 8.53154 3.17452 7.5 4.5 7.5H5.5L5.69566 7.50756C6.3429 7.55773 6.937 7.85551 7.36594 8.33614C7.54981 8.54217 7.86588 8.56013 8.07191 8.37626C8.27793 8.1924 8.2959 7.87632 8.11203 7.6703Z" fill="#242424"/>
<path fill-rule="evenodd" clip-rule="evenodd" d="M9 5C9 3.34315 10.3431 2 12 2C13.6569 2 15 3.34315 15 5C15 6.65685 13.6569 8 12 8C10.3431 8 9 6.65685 9 5ZM14 5C14 3.89543 13.1046 3 12 3C10.8954 3 10 3.89543 10 5C10 6.10457 10.8954 7 12 7C13.1046 7 14 6.10457 14 5Z" fill="#242424"/>
<path d="M15.9948 11.808C15.8951 9.96428 14.3686 8.5 12.5 8.5H11.5L11.308 8.50518C9.46428 8.60487 8 10.1314 8 12V15L8.00806 15.0899C8.05039 15.3231 8.25454 15.5 8.5 15.5H13L13.0899 15.4919C13.3231 15.4496 13.5 15.2455 13.5 15L13.4919 14.9101C13.4496 14.6769 13.2455 14.5 13 14.5H9V12L9.00532 11.8356C9.08996 10.5315 10.1745 9.5 11.5 9.5H12.5L12.6644 9.50532C13.9685 9.58996 15 10.6745 15 12V15L15.0081 15.0899C15.0504 15.3231 15.2545 15.5 15.5 15.5C15.7761 15.5 16 15.2761 16 15V12L15.9948 11.808Z" fill="#242424"/>
</svg>
