<svg width="16" height="16" fill="none" viewBox="0 0 16 16">
  <path fill="#242424" fill-rule="evenodd" d="M4.5.251a3 3 0 1 0 0 6 3 3 0 0 0 0-6Zm0 1a2 2 0 1 1 0 4 2 2 0 0 1 0-4Z M7.612 7.921A3.492 3.492 0 0 0 5 6.751H4l-.192.005A3.5 3.5 0 0 0 .5 10.251v3l.008.09a.5.5 0 0 0 .492.41h4.5l.09-.008A.5.5 0 0 0 6 13.25l-.008-.09a.5.5 0 0 0-.492-.41h-4v-2.5l.005-.164A2.5 2.5 0 0 1 4 7.75h1l.196.008c.647.05 1.241.347 1.67.828a.5.5 0 1 0 .746-.666Z M8.5 5.251a3 3 0 1 1 6 0 3 3 0 0 1-6 0Zm5 0a2 2 0 1 0-4 0 2 2 0 0 0 4 0Z M15.495 12.059A3.5 3.5 0 0 0 12 8.75h-1l-.192.005A3.5 3.5 0 0 0 7.5 12.251v3l.008.09a.5.5 0 0 0 .492.41h4.5l.09-.008a.5.5 0 0 0 .41-.492l-.008-.09a.5.5 0 0 0-.492-.41h-4v-2.5l.005-.164A2.5 2.5 0 0 1 11 9.75h1l.164.005A2.5 2.5 0 0 1 14.5 12.25v3l.008.09a.5.5 0 0 0 .992-.09v-3l-.005-.192Z" clip-rule="evenodd"/>
</svg>
