<svg xmlns="http://www.w3.org/2000/svg" width="16" height="16" viewBox="0 0 16 16"><path fill="#242424" fill-rule="evenodd" d="M7.52854352,0.401094777 C7.62696466,0.400862939 7.72249527,0.429657876 7.80365811,0.482810562 L7.8796066,0.543909571 L11.5272693,4.11703771 C11.7245365,4.31027402 11.7278042,4.62683965 11.5345679,4.82410682 C11.3628023,4.99945543 11.0935913,5.02152046 10.8973401,4.88854296 L10.8274988,4.83140535 L7.32559036,1.40153611 L1.33568882,1.41638535 L1.33851725,7.38436659 L8.81334303,14.8591924 L14.8074872,8.86504819 L13.2292459,7.18346724 C13.0612142,7.00453739 13.050397,6.73464034 13.1914443,6.54410642 L13.2514453,6.47670902 C13.4303751,6.30867729 13.7002722,6.29786014 13.8908061,6.43890747 L13.9582035,6.49890842 L15.8686826,8.53329642 C16.0329955,8.70826629 16.0474308,8.97110571 15.9145064,9.16145811 L15.8577571,9.22912923 L9.16722579,15.9196606 C8.99365944,16.0932269 8.72423504,16.1125121 8.5293669,15.977516 L8.46011901,15.9196606 L0.485636568,7.94517813 C0.410676191,7.87021775 0.361973513,7.77390466 0.345453356,7.67053146 L0.339190035,7.59190111 L0.335500589,0.917138449 C0.335365085,0.671991448 0.511693679,0.467895634 0.744575372,0.425111251 L0.834322733,0.416863464 L7.52854352,0.401094777 Z M5,4 C5.55228475,4 6,4.44771525 6,5 C6,5.55228475 5.55228475,6 5,6 C4.44771525,6 4,5.55228475 4,5 C4,4.44771525 4.44771525,4 5,4 Z"/></svg>