<svg width="16" height="16" fill="none" viewBox="0 0 16 16">
  <path fill="#242424" fill-rule="evenodd" d="M7.359.168a.5.5 0 0 1 .275.082l.076.061 3.647 3.573a.5.5 0 0 1-.63.772l-.07-.057-3.501-3.43-5.99.015.003 5.968 7.474 7.475 5.995-5.995-1.579-1.681a.5.5 0 0 1-.037-.64l.06-.067a.5.5 0 0 1 .639-.038l.067.06 1.91 2.035a.5.5 0 0 1 .047.628l-.057.067-6.69 6.691a.5.5 0 0 1-.638.058l-.07-.058L.316 7.713a.5.5 0 0 1-.14-.275l-.007-.079L.166.685A.5.5 0 0 1 .575.192l.09-.008L7.358.168Zm-2.529 3.6a1 1 0 1 1 0 2 1 1 0 0 1 0-2Z" clip-rule="evenodd"/>
</svg>
