<svg width="16" height="16" viewBox="0 0 16 16" fill="none" xmlns="http://www.w3.org/2000/svg">
<g clip-path="url(#clip0_1249_19486)">
<path fill-rule="evenodd" clip-rule="evenodd" d="M7.52854 0.401124C7.62696 0.400893 7.72249 0.429688 7.80365 0.48284L7.8796 0.543939L11.5273 4.11707C11.7245 4.3103 11.7278 4.62687 11.5346 4.82414C11.3628 4.99949 11.0936 5.02155 10.8973 4.88857L10.8275 4.83143L7.32558 1.40157L1.33568 1.41641L1.33851 7.3844L8.81334 14.8592L14.8075 8.86508L13.2292 7.1835C13.0612 7.00457 13.0504 6.73467 13.1914 6.54414L13.2514 6.47674C13.4304 6.30871 13.7003 6.29789 13.8908 6.43894L13.9582 6.49894L15.8687 8.53333C16.033 8.7083 16.0474 8.97114 15.9145 9.16149L15.8578 9.22916L9.16722 15.9197C8.99365 16.0933 8.72423 16.1125 8.52936 15.9775L8.46011 15.9197L0.485631 7.94521C0.410671 7.87025 0.361968 7.77393 0.345448 7.67056L0.339185 7.59193L0.335495 0.917168C0.33536 0.672021 0.511688 0.467925 0.74457 0.425141L0.834317 0.416893L7.52854 0.401124ZM4.99999 4.00003C5.55228 4.00003 5.99999 4.44774 5.99999 5.00003C5.99999 5.55231 5.55228 6.00003 4.99999 6.00003C4.44771 6.00003 3.99999 5.55231 3.99999 5.00003C3.99999 4.44774 4.44771 4.00003 4.99999 4.00003Z" fill="#242424"/>
</g>
<defs>
<clipPath id="clip0_1249_19486">
<rect width="16" height="16" fill="white"/>
</clipPath>
</defs>
</svg>
