<svg width="16" height="16" viewBox="0 0 16 16" fill="none" xmlns="http://www.w3.org/2000/svg">
<path fill-rule="evenodd" clip-rule="evenodd" d="M8 0C8.27614 0 8.5 0.223858 8.5 0.5V1.01758C11.9675 1.2623 14.7377 4.03251 14.9824 7.5H15.5C15.7761 7.5 16 7.72386 16 8C16 8.27614 15.7761 8.5 15.5 8.5H14.9823C14.8631 10.1848 14.1439 11.7483 12.965 12.9345C12.7703 13.1303 12.4537 13.1313 12.2579 12.9366C12.062 12.742 12.0611 12.4254 12.2557 12.2295C13.2501 11.2291 13.8623 9.91726 13.9794 8.5H13.5C13.2239 8.5 13 8.27614 13 8C13 7.72386 13.2239 7.5 13.5 7.5H13.9795C13.739 4.5851 11.4149 2.26101 8.5 2.02054V2.5C8.5 2.77614 8.27614 3 8 3C7.72386 3 7.5 2.77614 7.5 2.5V2.02054C4.5851 2.26101 2.26101 4.5851 2.02054 7.5H2.5C2.77614 7.5 3 7.72386 3 8C3 8.27614 2.77614 8.5 2.5 8.5H2.02054C2.26101 11.4149 4.5851 13.739 7.5 13.9795V13.5C7.5 13.2239 7.72386 13 8 13C8.27614 13 8.5 13.2239 8.5 13.5V14.5V15.5C8.5 15.7761 8.27614 16 8 16C7.72386 16 7.5 15.7761 7.5 15.5V14.9824C4.03251 14.7377 1.2623 11.9675 1.01758 8.5H0.5C0.223858 8.5 0 8.27614 0 8C0 7.72386 0.223858 7.5 0.5 7.5H1.01758C1.2623 4.03251 4.03251 1.2623 7.5 1.01758V0.5C7.5 0.223858 7.72386 0 8 0ZM8 8C9.32548 8 10.41 9.03154 10.4947 10.3356L10.5 10.5V11.5C10.5 11.7761 10.2761 12 10 12C9.75454 12 9.55039 11.8231 9.50806 11.5899L9.5 11.5V10.5C9.5 9.67157 8.82843 9 8 9C7.2203 9 6.57955 9.59489 6.50687 10.3555L6.5 10.5V11H8C8.24546 11 8.44961 11.1769 8.49194 11.4101L8.5 11.5C8.5 11.7455 8.32312 11.9496 8.08988 11.9919L8 12H5.5V10.5C5.5 9.11929 6.61929 8 8 8ZM8 3.75C7.0335 3.75 6.25 4.5335 6.25 5.5C6.25 6.4665 7.0335 7.25 8 7.25C8.9665 7.25 9.75 6.4665 9.75 5.5C9.75 4.5335 8.9665 3.75 8 3.75ZM8 4.75C8.41421 4.75 8.75 5.08579 8.75 5.5C8.75 5.91421 8.41421 6.25 8 6.25C7.58579 6.25 7.25 5.91421 7.25 5.5C7.25 5.08579 7.58579 4.75 8 4.75Z" fill="#242424"/>
</svg>
