<svg width="16" height="16" fill="none" viewBox="0 0 16 16">
  <path fill="#242424" fill-rule="evenodd" d="M8 .001a.5.5 0 0 1 .5.5v.518A7.001 7.001 0 0 1 14.982 7.5h.518a.5.5 0 0 1 0 1h-.518a6.975 6.975 0 0 1-2.017 4.434.5.5 0 1 1-.71-.705A5.976 5.976 0 0 0 13.979 8.5H13.5a.5.5 0 0 1 0-1h.48A6.001 6.001 0 0 0 8.5 2.02v.48a.5.5 0 0 1-1 0v-.48A6.001 6.001 0 0 0 2.02 7.5h.48a.5.5 0 1 1 0 1h-.48a6.001 6.001 0 0 0 5.48 5.48v-.48a.5.5 0 1 1 1 0v2a.5.5 0 0 1-1 0v-.518A7.001 7.001 0 0 1 1.018 8.5H.5a.5.5 0 0 1 0-1h.518A7.001 7.001 0 0 1 7.5 1.019V.5A.5.5 0 0 1 8 0Z M8 8.001a2.5 2.5 0 0 1 2.495 2.336l.005.164v1a.5.5 0 0 1-.992.09L9.5 11.5v-1a1.5 1.5 0 0 0-2.993-.144L6.5 10.5v.5H8a.5.5 0 0 1 .492.41l.008.09a.5.5 0 0 1-.41.492L8 12H5.5v-1.5A2.5 2.5 0 0 1 8 8Z M8 3.751a1.75 1.75 0 1 0 0 3.5 1.75 1.75 0 0 0 0-3.5Zm0 1a.75.75 0 1 1 0 1.5.75.75 0 0 1 0-1.5Z" clip-rule="evenodd"/>
</svg>
