<svg width="16" height="16" viewBox="0 0 16 16" fill="none" xmlns="http://www.w3.org/2000/svg">
<path fill-rule="evenodd" clip-rule="evenodd" d="M1 13.5001C1 14.3285 1.67157 15.0001 2.5 15.0001H3.5C4.32843 15.0001 5 14.3285 5 13.5001V8.00006C5 7.17163 4.32843 6.50006 3.5 6.50006H2.5C1.67157 6.50006 1 7.17163 1 8.00006V13.5001ZM2.5 14.0001C2.22386 14.0001 2 13.7762 2 13.5001V8.00006C2 7.72392 2.22386 7.50006 2.5 7.50006H3.5C3.77614 7.50006 4 7.72392 4 8.00006V13.5001C4 13.7762 3.77614 14.0001 3.5 14.0001H2.5Z" fill="#242424"/>
<path fill-rule="evenodd" clip-rule="evenodd" d="M7.07621 1.17483C7.12349 1.13296 7.2767 1.00006 7.5 1.00006C7.66225 1.00006 7.8278 1.04715 7.95894 1.09308C8.10081 1.14276 8.25307 1.20972 8.40355 1.28287C8.70514 1.42946 9.03158 1.61663 9.30915 1.78606C9.75212 2.05646 10 2.53722 10 3.03524V5.59507C10 5.85195 10.1946 6.06703 10.4502 6.09259L13.4524 6.39281C14.3343 6.48099 14.9478 7.31048 14.774 8.17954L13.6511 13.7942C13.5108 14.4954 12.8952 15.0001 12.1802 15.0001H6.5C6.22386 15.0001 6 14.7762 6 14.5001C6 14.2239 6.22386 14.0001 6.5 14.0001H12.1802C12.4185 14.0001 12.6237 13.8318 12.6705 13.5981L13.7934 7.98342C13.8514 7.69373 13.6468 7.41724 13.3529 7.38784L10.3507 7.08763C9.58394 7.01095 9 6.3657 9 5.59507V3.03524C9 2.86457 8.91595 2.71763 8.78814 2.63961C8.52448 2.47867 8.22807 2.30945 7.96638 2.18225C7.84283 2.12219 7.73407 2.07497 7.64468 2.04266C7.57665 2.13888 7.49109 2.27564 7.38999 2.45193C7.15147 2.86783 6.85783 3.44825 6.55122 4.09048C5.939 5.37282 5.29338 6.86291 4.96424 7.68576L4.03576 7.31437C4.37329 6.47054 5.02767 4.96063 5.64879 3.65964C5.95884 3.01021 6.2652 2.40312 6.52252 1.95444C6.64998 1.73218 6.77346 1.53453 6.88539 1.38713C6.94026 1.31488 7.00461 1.23824 7.07621 1.17483Z" fill="#242424"/>
</svg>
