<svg width="16" height="16" viewBox="0 0 16 16" fill="none" xmlns="http://www.w3.org/2000/svg">
<path fill-rule="evenodd" clip-rule="evenodd" d="M15 2.50006C15 1.67163 14.3284 1.00006 13.5 1.00006H12.5C11.6716 1.00006 11 1.67163 11 2.50006V8.00006C11 8.82849 11.6716 9.50006 12.5 9.50006H13.5C14.3284 9.50006 15 8.82849 15 8.00006V2.50006ZM13.5 2.00006C13.7761 2.00006 14 2.22392 14 2.50006V8.00006C14 8.2762 13.7761 8.50006 13.5 8.50006H12.5C12.2239 8.50006 12 8.2762 12 8.00006V2.50006C12 2.22392 12.2239 2.00006 12.5 2.00006H13.5Z" fill="#242424"/>
<path fill-rule="evenodd" clip-rule="evenodd" d="M8.92378 14.8253C8.87651 14.8672 8.7233 15.0001 8.49999 15.0001C8.33774 15.0001 8.1722 14.953 8.04105 14.907C7.89919 14.8574 7.74693 14.7904 7.59645 14.7173C7.29486 14.5707 6.96841 14.3835 6.69084 14.2141C6.24787 13.9437 5.99999 13.4629 5.99999 12.9649V10.405C5.99999 10.1482 5.80535 9.93309 5.54975 9.90753L2.5476 9.60732C1.66573 9.51913 1.05218 8.68965 1.22599 7.82059L2.34893 2.20589C2.48916 1.50475 3.10478 1.00006 3.8198 1.00006H9.49999C9.77614 1.00006 9.99999 1.22392 9.99999 1.50006C9.99999 1.7762 9.77614 2.00006 9.49999 2.00006H3.8198C3.58146 2.00006 3.37625 2.16829 3.32951 2.402L2.20657 8.0167C2.14863 8.30639 2.35315 8.58288 2.64711 8.61228L5.64925 8.91249C6.41605 8.98917 6.99999 9.63442 6.99999 10.405V12.9649C6.99999 13.1356 7.08405 13.2825 7.21186 13.3605C7.47552 13.5215 7.77192 13.6907 8.03361 13.8179C8.15717 13.8779 8.26592 13.9251 8.35531 13.9575C8.42334 13.8612 8.50891 13.7245 8.61001 13.5482C8.84853 13.1323 9.14217 12.5519 9.44878 11.9096C10.061 10.6273 10.7066 9.13721 11.0358 8.31437L11.9642 8.68576C11.6267 9.52958 10.9723 11.0395 10.3512 12.3405C10.0412 12.9899 9.7348 13.597 9.47748 14.0457C9.35001 14.2679 9.22653 14.4656 9.1146 14.613C9.05974 14.6852 8.99539 14.7619 8.92378 14.8253Z" fill="#242424"/>
</svg>
