<svg width="16" height="16" viewBox="0 0 16 16" fill="none" xmlns="http://www.w3.org/2000/svg">
<path fill-rule="evenodd" clip-rule="evenodd" d="M14.9859 4.09882C13.5813 1.58861 10.9296 0 8 0C3.58172 0 0 3.58172 0 8C0 12.4183 3.58172 16 8 16C12.4183 16 16 12.4183 16 8C16 7.72386 15.7761 7.5 15.5 7.5C15.2239 7.5 15 7.72386 15 8C15 11.866 11.866 15 8 15C4.13401 15 1 11.866 1 8C1 4.13401 4.13401 1 8 1C10.5639 1 12.8837 2.38979 14.1132 4.58713C14.248 4.82812 14.5527 4.91416 14.7937 4.77931C15.0347 4.64447 15.1207 4.3398 14.9859 4.09882ZM7.99194 3.41012C7.94961 3.17688 7.74546 3 7.5 3C7.22386 3 7 3.22386 7 3.5V9H11.5L11.5899 8.99194C11.8231 8.94961 12 8.74546 12 8.5L11.9919 8.41012C11.9496 8.17688 11.7455 8 11.5 8H8V3.5L7.99194 3.41012Z" fill="#242424"/>
</svg>
