<svg xmlns="http://www.w3.org/2000/svg" width="16" height="16" viewBox="0 0 16 16"><path fill="#242424" fill-rule="evenodd" d="M8,0 C10.9296247,0 13.581254,1.58861071 14.9858712,4.09882317 C15.1207147,4.33980414 15.0346734,4.64447011 14.7936924,4.77931368 C14.5527114,4.91415724 14.2480455,4.82811588 14.1132019,4.58713492 C12.8836552,2.3897936 10.5638815,1 8,1 C4.13400675,1 1,4.13400675 1,8 C1,11.8659932 4.13400675,15 8,15 C11.8659932,15 15,11.8659932 15,8 C15,7.72385763 15.2238576,7.5 15.5,7.5 C15.7761424,7.5 16,7.72385763 16,8 C16,12.418278 12.418278,16 8,16 C3.581722,16 0,12.418278 0,8 C0,3.581722 3.581722,0 8,0 Z M7.5,3 C7.74545989,3 7.94960837,3.17687516 7.99194433,3.41012437 L8,3.5 L8,8 L11.5,8 C11.7454599,8 11.9496084,8.17687516 11.9919443,8.41012437 L12,8.5 C12,8.74545989 11.8231248,8.94960837 11.5898756,8.99194433 L11.5,9 L7,9 L7,3.5 C7,3.22385763 7.22385763,3 7.5,3 Z"/></svg>