<svg width="16" height="16" viewBox="0 0 16 16" fill="none" xmlns="http://www.w3.org/2000/svg">
<path fill-rule="evenodd" clip-rule="evenodd" d="M16 8C16 5.51472 13.9853 3.5 11.5 3.5H4.5L4.28816 3.5049C1.90124 3.61551 0 5.58573 0 8C0 10.4853 2.01472 12.5 4.5 12.5H7L7.08988 12.4919C7.32312 12.4496 7.5 12.2455 7.5 12C7.5 11.7239 7.27614 11.5 7 11.5H4.5L4.30796 11.4948C2.46428 11.3951 1 9.86856 1 8C1 6.067 2.567 4.5 4.5 4.5H11.5L11.692 4.50518C13.5357 4.60487 15 6.13144 15 8C15 9.933 13.433 11.5 11.5 11.5H11L10.9101 11.5081C10.6769 11.5504 10.5 11.7545 10.5 12C10.5 12.2761 10.7239 12.5 11 12.5H11.5L11.7118 12.4951C14.0988 12.3845 16 10.4143 16 8ZM11.5 10.5C12.8807 10.5 14 9.38071 14 8C14 6.61929 12.8807 5.5 11.5 5.5C10.1193 5.5 9 6.61929 9 8C9 9.38071 10.1193 10.5 11.5 10.5Z" fill="#242424"/>
</svg>
