<svg xmlns="http://www.w3.org/2000/svg" width="16" height="16" fill="none" viewBox="0 0 16 16">
  <path fill="#242424" d="M5.5 1.001a.5.5 0 0 1 1 0v1H11a.5.5 0 0 1 0 1H9.853C9.262 4.562 8.21 6.082 7.079 7.403c.84.795 1.655 1.37 2.17 1.664a.5.5 0 1 1-.497.868c-.558-.319-1.433-.932-2.34-1.786-1.335 1.438-2.719 2.603-3.618 3.256a.5.5 0 0 1-.588-.808c.855-.623 2.203-1.756 3.502-3.158-.836-.902-1.634-1.997-2.168-3.241a.5.5 0 1 1 .92-.394c.468 1.094 1.172 2.07 1.915 2.884C7.354 5.537 8.23 4.27 8.775 3H1a.5.5 0 0 1 0-1h4.5V1Zm5.6 6.5-3.1 8h1.5l.725-2h1.525v-1h-1.162l1.162-3.207 1.162 3.207H11.75v1h1.525l.725 2h1.5l-3.1-8h-1.3Z"/>
</svg>