<svg width="16" height="16" viewBox="0 0 16 16" fill="none" xmlns="http://www.w3.org/2000/svg">
<path d="M5.5 1C5.5 0.723858 5.72386 0.5 6 0.5C6.27614 0.5 6.5 0.723858 6.5 1V2H9.48893C9.49625 1.99984 9.50358 1.99984 9.51094 2H11C11.2761 2 11.5 2.22386 11.5 2.5C11.5 2.77614 11.2761 3 11 3H9.85261C9.26153 4.56141 8.21147 6.0814 7.07913 7.40224C7.9199 8.19742 8.73445 8.77238 9.24808 9.06588C9.48783 9.20289 9.57113 9.50832 9.43413 9.74808C9.29712 9.98783 8.9917 10.0711 8.75194 9.93413C8.19416 9.6154 7.31878 9.00176 6.4127 8.14826C5.07659 9.5859 3.69299 10.7506 2.79409 11.4044C2.57076 11.5668 2.25806 11.5174 2.09564 11.2941C1.93322 11.0708 1.98259 10.7581 2.20592 10.5956C3.0614 9.97348 4.40918 8.83956 5.70763 7.43794C4.87204 6.53636 4.0738 5.44148 3.54043 4.19697C3.43166 3.94315 3.54923 3.64921 3.80305 3.54043C4.05686 3.43166 4.3508 3.54923 4.45958 3.80305C4.92831 4.89674 5.63174 5.87238 6.37525 6.68657C7.3538 5.53625 8.23012 4.27022 8.77446 3H1C0.723858 3 0.5 2.77614 0.5 2.5C0.5 2.22386 0.723858 2 1 2H5.5V1Z" fill="#242424"/>
<path fill-rule="evenodd" clip-rule="evenodd" d="M12.3891 7.5L15.5 15.5H14.0068L13.3404 13.6264H10.1524L9.48756 15.5H8L11.0995 7.5H12.3891ZM10.5403 12.533H12.9516L11.7446 9.13913L10.5403 12.533Z" fill="#242424"/>
</svg>
