<svg width="16" height="16" fill="none" viewBox="0 0 16 16">
  <path fill="#242424" fill-rule="evenodd" d="M5.5 1.001a.5.5 0 1 1 1 0v1H11a.5.5 0 0 1 0 1H9.853C9.262 4.562 8.21 6.082 7.079 7.403c.84.795 1.655 1.37 2.17 1.664a.5.5 0 0 1-.497.868c-.558-.319-1.433-.932-2.34-1.786-1.335 1.438-2.719 2.603-3.618 3.256a.5.5 0 0 1-.588-.808c.855-.623 2.203-1.756 3.502-3.158-.836-.902-1.634-1.997-2.168-3.241a.5.5 0 0 1 .92-.394c.468 1.094 1.172 2.07 1.915 2.884C7.354 5.538 8.23 4.27 8.775 3H1a.5.5 0 0 1 0-1h4.5V1Z m12.39 7.501 3.11 8h-1.493l-.667-1.874h-3.188l-.664 1.874H8l3.1-8h1.29Zm-1.85 5.033h2.412L11.745 9.14l-1.205 3.394Z" clip-rule="evenodd"/>
</svg>
