<svg width="16" height="16" fill="none" viewBox="0 0 16 16">
  <path fill="#242424" fill-rule="evenodd" d="M12.5 10.001a.5.5 0 1 1 0 1h-4a.5.5 0 0 1 0-1h4Z M13.5 5.001a2.5 2.5 0 0 1 2.5 2.5v6a2.5 2.5 0 0 1-2.5 2.5h-6a2.5 2.5 0 0 1-2.5-2.5v-6a2.5 2.5 0 0 1 2.5-2.5h6Zm0 1h-6a1.5 1.5 0 0 0-1.5 1.5v6a1.5 1.5 0 0 0 1.5 1.5h6a1.5 1.5 0 0 0 1.5-1.5v-6a1.5 1.5 0 0 0-1.5-1.5Z M11 2.501a2.5 2.5 0 0 1 2.292 1.5h-1.174A1.496 1.496 0 0 0 11 3.5H5A1.5 1.5 0 0 0 3.5 5v6c0 .444.193.843.5 1.118v1.174A2.5 2.5 0 0 1 2.5 11V5A2.5 2.5 0 0 1 5 2.5h6Z M8.5.001a2.5 2.5 0 0 1 2.292 1.5H9.618A1.496 1.496 0 0 0 8.5 1h-6A1.5 1.5 0 0 0 1 2.5v6c0 .444.193.843.5 1.118v1.174A2.5 2.5 0 0 1 0 8.501v-6a2.5 2.5 0 0 1 2.5-2.5h6Z" clip-rule="evenodd"/>
</svg>