<svg width="16" height="16" viewBox="0 0 16 16" fill="none" xmlns="http://www.w3.org/2000/svg">
<path fill-rule="evenodd" clip-rule="evenodd" d="M13.5 0H2.5C1.11929 0 0 1.11929 0 2.5V13.5C0 14.8807 1.11929 16 2.5 16H13.5C14.8807 16 16 14.8807 16 13.5V2.5C16 1.11929 14.8807 0 13.5 0ZM3 8C3 7.72386 3.22386 7.5 3.5 7.5H7.5V3.5C7.5 3.22386 7.72386 3 8 3C8.27614 3 8.5 3.22386 8.5 3.5V7.5H12.5C12.7761 7.5 13 7.72386 13 8C13 8.27614 12.7761 8.5 12.5 8.5H8.5V12.5C8.5 12.7761 8.27614 13 8 13C7.72386 13 7.5 12.7761 7.5 12.5V8.5H3.5C3.22386 8.5 3 8.27614 3 8Z" fill="#242424"/>
</svg>
