<svg width="16" height="16" fill="none" viewBox="0 0 16 16">
  <path fill="#242424" d="M13 10.501a.5.5 0 0 0-.5-.5H11v-1.5a.5.5 0 0 0-1 0v1.5H8.5a.5.5 0 1 0 0 1H10v1.5a.5.5 0 0 0 1 0v-1.5h1.5a.5.5 0 0 0 .5-.5Z M16 7.501a2.5 2.5 0 0 0-2.5-2.5h-6a2.5 2.5 0 0 0-2.5 2.5v6a2.5 2.5 0 0 0 2.5 2.5h6a2.5 2.5 0 0 0 2.5-2.5v-6Zm-8.5-1.5h6a1.5 1.5 0 0 1 1.5 1.5v6a1.5 1.5 0 0 1-1.5 1.5h-6a1.5 1.5 0 0 1-1.5-1.5v-6a1.5 1.5 0 0 1 1.5-1.5Z M13.292 4.001A2.5 2.5 0 0 0 11 2.501H5a2.5 2.5 0 0 0-2.5 2.5v6A2.5 2.5 0 0 0 4 13.293v-1.174A1.496 1.496 0 0 1 3.5 11V5A1.5 1.5 0 0 1 5 3.5h6c.444 0 .843.193 1.118.5h1.174Z M10.792 1.501A2.5 2.5 0 0 0 8.5.001h-6a2.5 2.5 0 0 0-2.5 2.5v6a2.5 2.5 0 0 0 1.5 2.292V9.619A1.496 1.496 0 0 1 1 8.5v-6A1.5 1.5 0 0 1 2.5 1h6c.444 0 .843.193 1.118.5h1.174Z"/>
</svg>
