<svg width="16" height="16" viewBox="0 0 16 16" fill="none" xmlns="http://www.w3.org/2000/svg">
<path d="M13 10.5C13 10.2239 12.7761 10 12.5 10H11V8.5C11 8.22386 10.7761 8 10.5 8C10.2239 8 10 8.22386 10 8.5V10H8.5C8.22386 10 8 10.2239 8 10.5C8 10.7761 8.22386 11 8.5 11H10V12.5C10 12.7761 10.2239 13 10.5 13C10.7761 13 11 12.7761 11 12.5V11H12.5C12.7761 11 13 10.7761 13 10.5Z" fill="#242424"/>
<path fill-rule="evenodd" clip-rule="evenodd" d="M16 7.5C16 6.11929 14.8807 5 13.5 5H7.5C6.11929 5 5 6.11929 5 7.5V13.5C5 14.8807 6.11929 16 7.5 16H13.5C14.8807 16 16 14.8807 16 13.5V7.5ZM7.5 6H13.5C14.3284 6 15 6.67157 15 7.5V13.5C15 14.3284 14.3284 15 13.5 15H7.5C6.67157 15 6 14.3284 6 13.5V7.5C6 6.67157 6.67157 6 7.5 6Z" fill="#242424"/>
<path d="M13.2921 4.00017C12.9063 3.11713 12.0252 2.5 11 2.5H5C3.61929 2.5 2.5 3.61929 2.5 5V11C2.5 12.0252 3.11713 12.9063 4.00017 13.2921L3.9999 12.118C3.69308 11.8433 3.5 11.4442 3.5 11V5C3.5 4.17157 4.17157 3.5 5 3.5H11C11.4442 3.5 11.8433 3.69308 12.118 3.9999L13.2921 4.00017Z" fill="#242424"/>
<path d="M10.7921 1.50017C10.4063 0.617129 9.52523 0 8.5 0H2.5C1.11929 0 0 1.11929 0 2.5V8.5C0 9.52523 0.617129 10.4063 1.50017 10.7921L1.4999 9.61796C1.19308 9.34331 1 8.9442 1 8.5V2.5C1 1.67157 1.67157 1 2.5 1H8.5C8.9442 1 9.34331 1.19308 9.61796 1.4999L10.7921 1.50017Z" fill="#242424"/>
</svg>
