<svg width="16" height="16" viewBox="0 0 16 16" fill="none" xmlns="http://www.w3.org/2000/svg">
<path fill-rule="evenodd" clip-rule="evenodd" d="M13.5 5C14.8807 5 16 6.11929 16 7.5V13.5C16 14.8807 14.8807 16 13.5 16H7.5C6.11929 16 5 14.8807 5 13.5V7.5C5 6.11929 6.11929 5 7.5 5H13.5ZM13.5 6H7.5C6.67157 6 6 6.67157 6 7.5V13.5C6 14.3284 6.67157 15 7.5 15H13.5C14.3284 15 15 14.3284 15 13.5V7.5C15 6.67157 14.3284 6 13.5 6ZM11 2.5C12.0252 2.5 12.9063 3.11713 13.2921 4.00017L12.118 3.9999C11.8433 3.69308 11.4442 3.5 11 3.5H5C4.17157 3.5 3.5 4.17157 3.5 5V11C3.5 11.4442 3.69308 11.8433 3.9999 12.118L4.00017 13.2921C3.11713 12.9063 2.5 12.0252 2.5 11V5C2.5 3.61929 3.61929 2.5 5 2.5H11ZM12.5 10C12.7761 10 13 10.2239 13 10.5C13 10.7761 12.7761 11 12.5 11H8.5C8.22386 11 8 10.7761 8 10.5C8 10.2239 8.22386 10 8.5 10H12.5ZM8.5 0C9.52523 0 10.4063 0.617129 10.7921 1.50017L9.61796 1.4999C9.34331 1.19308 8.9442 1 8.5 1H2.5C1.67157 1 1 1.67157 1 2.5V8.5C1 8.9442 1.19308 9.34331 1.4999 9.61796L1.50017 10.7921C0.617129 10.4063 0 9.52523 0 8.5V2.5C0 1.11929 1.11929 0 2.5 0H8.5Z" fill="#242424"/>
</svg>
