<svg xmlns="http://www.w3.org/2000/svg" width="16" height="16" viewBox="0 0 16 16"><path fill="#242424" fill-rule="evenodd" d="M13.5,0 C14.8807119,0 16,1.11928813 16,2.5 L16,2.5 L16,13.5 C16,14.8807119 14.8807119,16 13.5,16 L13.5,16 L2.5,16 C1.11928813,16 0,14.8807119 0,13.5 L0,13.5 L0,2.5 C0,1.11928813 1.11928813,0 2.5,0 L2.5,0 Z M8,3 C7.72385763,3 7.5,3.22385763 7.5,3.5 L7.5,3.5 L7.5,7.499 L3.5,7.5 C3.25454011,7.5 3.05039163,7.67687516 3.00805567,7.91012437 L3,8 C3,8.27614237 3.22385763,8.5 3.5,8.5 L3.5,8.5 L7.5,8.499 L7.5,12.5 C7.5,12.7454599 7.67687516,12.9496084 7.91012437,12.9919443 L8,13 C8.27614237,13 8.5,12.7761424 8.5,12.5 L8.5,12.5 L8.5,8.499 L12.5,8.5 C12.7454599,8.5 12.9496084,8.32312484 12.9919443,8.08987563 L13,8 C13,7.72385763 12.7761424,7.5 12.5,7.5 L12.5,7.5 L8.5,7.499 L8.5,3.5 C8.5,3.25454011 8.32312484,3.05039163 8.08987563,3.00805567 Z"/></svg>