<svg width="16" height="16" viewBox="0 0 16 16" fill="none" xmlns="http://www.w3.org/2000/svg">
<path fill-rule="evenodd" clip-rule="evenodd" d="M10.5 2.5C10.2239 2.5 10 2.72386 10 3C10 3.27614 10.2239 3.5 10.5 3.5H14V7C14 7.27614 14.2239 7.5 14.5 7.5C14.7761 7.5 15 7.27614 15 7V2.5H10.5ZM12.8536 5.35355C13.0488 5.15829 13.0488 4.84171 12.8536 4.64645C12.6583 4.45118 12.3417 4.45118 12.1464 4.64645L9 7.79289L6.5 5.29289L1.14645 10.6464C0.951184 10.8417 0.951184 11.1583 1.14645 11.3536C1.34171 11.5488 1.65829 11.5488 1.85355 11.3536L6.5 6.70711L9 9.20711L12.8536 5.35355Z" fill="#242424"/>
</svg>
