<svg width="16" height="16" viewBox="0 0 16 16" fill="none" xmlns="http://www.w3.org/2000/svg">
<path d="M10.5 12.5C10.2239 12.5 10 12.2761 10 12C10 11.7239 10.2239 11.5 10.5 11.5H14V8C14 7.72386 14.2239 7.5 14.5 7.5C14.7761 7.5 15 7.72386 15 8V12.5H10.5Z" fill="#242424"/>
<path d="M12.8536 9.64645C13.0488 9.84171 13.0488 10.1583 12.8536 10.3536C12.6583 10.5488 12.3417 10.5488 12.1464 10.3536L9 7.20711L6.5 9.70711L1.14645 4.35355C0.951184 4.15829 0.951184 3.84171 1.14645 3.64645C1.34171 3.45118 1.65829 3.45118 1.85355 3.64645L6.5 8.29289L9 5.79289L12.8536 9.64645Z" fill="#242424"/>
</svg>
