<svg xmlns="http://www.w3.org/2000/svg" width="16" height="16" viewBox="0 0 16 16"><path fill="#242424" fill-rule="evenodd" d="M8,0.5 C10.4852814,0.5 12.5,2.51471863 12.5,5 L14,5 C14.2454599,5 14.4496084,5.17687516 14.4919443,5.41012437 L14.5,5.5 L14.5,11 C14.5,11.2761424 14.2761424,11.5 14,11.5 C13.7545401,11.5 13.5503916,11.3231248 13.5080557,11.0898756 L13.5,11 L13.5,6 L2.5,6 L2.5,14 L14,14 C14.2454599,14 14.4496084,14.1768752 14.4919443,14.4101244 L14.5,14.5 C14.5,14.7454599 14.3231248,14.9496084 14.0898756,14.9919443 L14,15 L2,15 C1.75454011,15 1.55039163,14.8231248 1.50805567,14.5898756 L1.5,14.5 L1.5,5.5 C1.5,5.25454011 1.67687516,5.05039163 1.91012437,5.00805567 L2,5 L11.5,5 L11.5,5 C11.5,3.06700338 9.93299662,1.5 8,1.5 C7.07143459,1.5 6.2013598,1.86254126 5.55117204,2.49934985 C5.35389068,2.69257167 5.03732529,2.68928077 4.84410347,2.4919994 C4.65088164,2.29471804 4.65417254,1.97815266 4.85145391,1.78493083 C5.68670731,0.966864767 6.80715154,0.5 8,0.5 Z M8,8.5 C8.82842712,8.5 9.5,9.17157288 9.5,10 C9.5,10.8284271 8.82842712,11.5 8,11.5 C7.17157288,11.5 6.5,10.8284271 6.5,10 C6.5,9.17157288 7.17157288,8.5 8,8.5 Z"/></svg>