<svg width="16" height="16" viewBox="0 0 16 16" fill="none" xmlns="http://www.w3.org/2000/svg">
<path fill-rule="evenodd" clip-rule="evenodd" d="M8 0.5C10.4853 0.5 12.5 2.51472 12.5 5H14C14.2455 5 14.4496 5.17688 14.4919 5.41012L14.5 5.5V11C14.5 11.2761 14.2761 11.5 14 11.5C13.7545 11.5 13.5504 11.3231 13.5081 11.0899L13.5 11V6H2.5V14H14C14.2455 14 14.4496 14.1769 14.4919 14.4101L14.5 14.5C14.5 14.7455 14.3231 14.9496 14.0899 14.9919L14 15H2C1.75454 15 1.55039 14.8231 1.50806 14.5899L1.5 14.5V5.5C1.5 5.25454 1.67688 5.05039 1.91012 5.00806L2 5H11.5C11.5 3.067 9.933 1.5 8 1.5C7.07143 1.5 6.20136 1.86254 5.55117 2.49935C5.35389 2.69257 5.03733 2.68928 4.8441 2.492C4.65088 2.29472 4.65417 1.97815 4.85145 1.78493C5.68671 0.966865 6.80715 0.5 8 0.5ZM8 8.5C8.82843 8.5 9.5 9.17157 9.5 10C9.5 10.8284 8.82843 11.5 8 11.5C7.17157 11.5 6.5 10.8284 6.5 10C6.5 9.17157 7.17157 8.5 8 8.5Z" fill="#242424"/>
</svg>
