<svg width="16" height="16" viewBox="0 0 16 16" fill="none" xmlns="http://www.w3.org/2000/svg">
<path d="M5.27731 1.86631C5.00105 2.19719 4.82004 2.53446 4.70412 2.80556C4.55906 2.75325 4.39044 2.70491 4.20585 2.67467C3.56782 2.57012 2.73594 2.68952 2.09879 3.54622C1.43488 4.43891 1.41318 5.26773 1.5971 5.88488C1.6389 6.02514 1.69037 6.1517 1.7446 6.26323C1.57713 6.34778 1.38913 6.45822 1.20001 6.60006C0.609019 7.04328 0 7.80359 0 8.99998C0 9.66719 0.295839 10.1771 0.733616 10.5408C1.15388 10.8899 1.69807 11.1012 2.22776 11.2348C3.27991 11.5 4.45456 11.5 4.98767 11.5H5C5.27614 11.5 5.5 11.2761 5.5 11C5.5 10.7238 5.27614 10.5 5 10.5C4.46048 10.5 3.39522 10.4978 2.47223 10.2651C2.01025 10.1486 1.62945 9.98494 1.37263 9.77159C1.13333 9.57278 1 9.33271 1 8.99998C1 8.19646 1.39098 7.70682 1.79999 7.40007C2.0086 7.24362 2.21985 7.13764 2.3798 7.07099C2.45912 7.03794 2.52399 7.01533 2.56707 7.00148C2.58855 6.99457 2.60446 6.9899 2.61384 6.98724L2.62347 6.98459L3.47526 6.77165L2.85709 6.15008L2.85549 6.14834C2.8521 6.14467 2.84534 6.13717 2.83595 6.12603C2.81708 6.10364 2.78817 6.06723 2.755 6.0183C2.68797 5.9194 2.60812 5.77605 2.55545 5.59928C2.45688 5.26853 2.43517 4.76962 2.90121 4.14299C3.26406 3.6551 3.68218 3.6022 4.04415 3.66151C4.23625 3.69298 4.41029 3.75815 4.53898 3.81806C4.60229 3.84754 4.65197 3.87449 4.68428 3.89308C4.70037 3.90233 4.71194 3.90939 4.71854 3.9135L4.72463 3.91735L5.35075 4.33477L5.49097 3.59467L5.49377 3.58202C5.49676 3.56906 5.50203 3.54739 5.5101 3.51832C5.52627 3.46004 5.5534 3.37293 5.59529 3.26737C5.61675 3.2133 5.64187 3.15494 5.67109 3.09353C5.75669 2.91366 5.87753 2.7077 6.04492 2.50723C6.47611 1.99081 7.25672 1.45778 8.71168 1.58593C10.1196 1.70999 10.8802 2.51688 11.3082 3.3245C11.525 3.73346 11.6526 4.13835 11.7256 4.44294C11.7619 4.59439 11.7842 4.71876 11.7972 4.80337C11.8037 4.84562 11.8079 4.87777 11.8104 4.89822L11.8128 4.91987L11.8131 4.92263L11.8535 5.37842H12.3098L12.3124 5.37845L12.3306 5.37892C12.3482 5.37949 12.3763 5.38071 12.4133 5.3833C12.4874 5.38849 12.5966 5.39909 12.7289 5.42067C12.9958 5.46422 13.3439 5.55039 13.6857 5.71772C14.0259 5.8842 14.3493 6.12556 14.5885 6.47681C14.8252 6.82439 15 7.30936 15 8.00006C15 8.64517 14.7733 9.09663 14.4415 9.43189C14.0973 9.77968 13.6182 10.0227 13.099 10.1871C12.5833 10.3505 12.06 10.4263 11.6605 10.4605C11.4621 10.4775 11.2974 10.4839 11.1836 10.4861C11.1268 10.4872 11.0829 10.4873 11.054 10.4871L11.0224 10.4867L11.0147 10.4865C10.7389 10.4784 10.5085 10.6953 10.5002 10.9713C10.4919 11.2473 10.7098 11.4778 10.9858 11.4861L10.9871 11.4861L10.991 11.4862L11.0035 11.4865C11.0139 11.4867 11.0285 11.4869 11.0471 11.487C11.0841 11.4873 11.1369 11.4872 11.2031 11.4859C11.3354 11.4833 11.5223 11.476 11.7457 11.4569C12.19 11.4189 12.7917 11.3334 13.401 11.1404C14.0068 10.9486 14.6527 10.6401 15.1523 10.1353C15.6642 9.61799 16 8.91576 16 8.00006C16 7.12994 15.7762 6.44429 15.415 5.91392C15.0563 5.3872 14.5824 5.04325 14.1254 4.81953C13.67 4.59666 13.2209 4.48772 12.8899 4.43372C12.8382 4.42528 12.789 4.41813 12.7428 4.41208C12.7302 4.34998 12.7154 4.28225 12.698 4.20975C12.6113 3.84828 12.4584 3.35914 12.1918 2.85619C11.6532 1.83999 10.6359 0.751608 8.79943 0.589792C7.00995 0.432168 5.91279 1.10521 5.27731 1.86631Z" fill="#242424"/>
<path d="M5.16272 8.83125C4.96987 8.63126 4.94844 8.32081 5.09843 8.09627L5.16272 8.01647L8 5L10.8373 8.01647C11.0542 8.24147 11.0542 8.60626 10.8373 8.83125C10.6444 9.03125 10.3451 9.05347 10.1285 8.89792L10.0516 8.83125L8.5 7.16604V15C8.5 15.2761 8.27614 15.5 8 15.5C7.75454 15.5 7.55039 15.3231 7.50806 15.0899L7.5 15V7.16604L5.94839 8.83125C5.75554 9.03125 5.45618 9.05347 5.23966 8.89792L5.16272 8.83125Z" fill="#242424"/>
</svg>
