<svg width="16" height="16" viewBox="0 0 16 16" fill="none" xmlns="http://www.w3.org/2000/svg">
<path fill-rule="evenodd" clip-rule="evenodd" d="M11 2.5C11.2455 2.5 11.4496 2.67688 11.4919 2.91012L11.5 3V5.149L15.2572 3.06292C15.5648 2.89202 15.9374 3.0842 15.993 3.41464L16 3.5V12.5C16 12.8519 15.651 13.0843 15.3352 12.9724L15.2572 12.9371L10.7572 10.4371C10.5158 10.303 10.4288 9.99857 10.5629 9.75718C10.6821 9.54261 10.9359 9.45005 11.1603 9.52632L11.2428 9.56292L15 11.65V4.349L11.2428 6.43708C10.9352 6.60798 10.5626 6.4158 10.507 6.08536L10.5 6V3.5H1V12.5H11C11.2455 12.5 11.4496 12.6769 11.4919 12.9101L11.5 13C11.5 13.2455 11.3231 13.4496 11.0899 13.4919L11 13.5H0.5C0.25454 13.5 0.0503916 13.3231 0.00805567 13.0899L0 13V3C0 2.75454 0.176875 2.55039 0.410124 2.50806L0.5 2.5H11Z" fill="#242424"/>
</svg>
