<svg width="16" height="16" viewBox="0 0 16 16" fill="none" xmlns="http://www.w3.org/2000/svg">
<path fill-rule="evenodd" clip-rule="evenodd" d="M1.5 0L7.53959 0.00156876L7.58988 0.00805567L7.65473 0.024544L7.72679 0.0543895L7.75236 0.0682647L7.82214 0.117594L11.8536 4.14645C12.1475 4.44043 11.9728 4.92918 11.586 4.99304L11.5 5H7.5C7.25454 5 7.05039 4.82312 7.00806 4.58988L7 4.5V1H1.5C1.25454 1 1.05039 1.17688 1.00806 1.41012L1 1.5V14.5C1 14.7455 1.17688 14.9496 1.41012 14.9919L1.5 15H11.5C11.7761 15 12 15.2239 12 15.5C12 15.7455 11.8231 15.9496 11.5899 15.9919L11.5 16H1.5C0.720304 16 0.0795513 15.4051 0.00686658 14.6445L0 14.5V1.5C0 0.720304 0.594888 0.0795513 1.35554 0.00686658L1.5 0ZM9.5 6C11.433 6 13 7.567 13 9.5C13 10.2234 12.7791 10.9126 12.3805 11.4889L12.302 11.595L14.8536 14.1464C15.0271 14.32 15.0464 14.5894 14.9114 14.7843L14.8536 14.8536C14.68 15.0271 14.4106 15.0464 14.2157 14.9114L14.1464 14.8536L10.9142 11.6213L11.2678 11.2678C11.7339 10.8016 12 10.1725 12 9.5C12 8.11929 10.8807 7 9.5 7C8.11929 7 7 8.11929 7 9.5C7 10.8807 8.11929 12 9.5 12C9.77614 12 10 12.2239 10 12.5C10 12.7761 9.77614 13 9.5 13C7.567 13 6 11.433 6 9.5C6 7.567 7.567 6 9.5 6ZM8 1.707L10.293 4H8V1.707Z" fill="#242424"/>
</svg>
