<svg xmlns="http://www.w3.org/2000/svg" width="16" height="16" viewBox="0 0 16 16"><path fill="#242424" fill-rule="evenodd" d="M1.5,0 L7.53959156,0.00156876395 L7.58987563,0.00805566941 L7.65473232,0.024543968 L7.72678591,0.0543895452 L7.75235957,0.0682646574 L7.82214364,0.117593731 L11.8535534,4.14644661 C12.147537,4.44043021 11.9728055,4.92918427 11.586032,4.99304488 L11.5,5 L7.5,5 C7.25454011,5 7.05039163,4.82312484 7.00805567,4.58987563 L7,4.5 L7,1 L1.5,1 C1.25454011,1 1.05039163,1.17687516 1.00805567,1.41012437 L1,1.5 L1,14.5 C1,14.7454599 1.17687516,14.9496084 1.41012437,14.9919443 L1.5,15 L11.5,15 C11.7761424,15 12,15.2238576 12,15.5 C12,15.7454599 11.8231248,15.9496084 11.5898756,15.9919443 L11.5,16 L1.5,16 C0.720303883,16 0.0795513218,15.4051119 0.00686657806,14.64446 L0,14.5 L0,1.5 C0,0.720303883 0.594888083,0.0795513218 1.35553999,0.00686657806 L1.5,0 Z M9.5,6 C11.4329966,6 13,7.56700338 13,9.5 C13,10.2234263 12.7791068,10.912621 12.3804712,11.4888701 L12.302,11.595 L14.8535534,14.1464466 C15.0271197,14.320013 15.0464049,14.5894374 14.9114088,14.7843055 L14.8535534,14.8535534 C14.679987,15.0271197 14.4105626,15.0464049 14.2156945,14.9114088 L14.1464466,14.8535534 L10.9142136,11.6213203 L11.267767,11.267767 C11.7339065,10.8016274 12,10.1725117 12,9.5 C12,8.11928813 10.8807119,7 9.5,7 C8.11928813,7 7,8.11928813 7,9.5 C7,10.8807119 8.11928813,12 9.5,12 C9.77614237,12 10,12.2238576 10,12.5 C10,12.7761424 9.77614237,13 9.5,13 C7.56700338,13 6,11.4329966 6,9.5 C6,7.56700338 7.56700338,6 9.5,6 Z M8,1.707 L10.293,4 L8,4 L8,1.707 Z"/></svg>