<svg width="16" height="16" fill="none" viewBox="0 0 16 16">
  <path fill="#242424" fill-rule="evenodd" d="m2 .001 6.04.002.05.006.065.017.072.03.025.013.07.05 4.032 4.028a.5.5 0 0 1-.268.847L12 5.001H8a.5.5 0 0 1-.492-.41L7.5 4.5V1H2a.5.5 0 0 0-.492.41L1.5 1.5v13a.5.5 0 0 0 .41.492L2 15h10a.5.5 0 0 1 .09.992L12 16H2a1.5 1.5 0 0 1-1.493-1.356L.5 14.501v-13A1.5 1.5 0 0 1 1.856.008L2 0Zm8 6a3.5 3.5 0 0 1 2.88 5.489l-.078.106 2.552 2.551a.5.5 0 0 1 .057.638l-.057.07a.5.5 0 0 1-.638.057l-.07-.058-3.232-3.232.354-.353A2.5 2.5 0 1 0 10 12a.5.5 0 1 1 0 1 3.5 3.5 0 1 1 0-7ZM8.5 1.708l2.293 2.293H8.5V1.708Z" clip-rule="evenodd"/>
</svg>
