<svg xmlns="http://www.w3.org/2000/svg" width="16" height="16" fill="none" viewBox="0 0 16 16">
  <path fill="#242424" d="m2 .001 6.04.002.05.006.065.017.072.03.025.013.07.05 4.032 4.028a.5.5 0 0 1-.268.847L12 5.001H8a.5.5 0 0 1-.492-.41L7.5 4.5V1H2a.5.5 0 0 0-.492.41L1.5 1.5v13a.5.5 0 0 0 .41.492L2 15h10a.5.5 0 0 1 0 1H2a1.5 1.5 0 0 1-1.493-1.356L.5 14.501v-13A1.5 1.5 0 0 1 1.856.008L2 0Zm6.5 1.707v2.293h2.293L8.5 1.708Z M13.5 9.501a3.5 3.5 0 1 0-3.5 3.5.5.5 0 0 0 0-1 2.5 2.5 0 1 1 1.768-.732l-.354.353 3.232 3.232.07.058a.5.5 0 0 0 .638-.058l.057-.069a.5.5 0 0 0-.057-.637l-2.552-2.552.079-.106a3.493 3.493 0 0 0 .619-1.989Z"/>
</svg>
