<svg xmlns="http://www.w3.org/2000/svg" width="16" height="16" viewBox="0 0 16 16"><path fill="#242424" d="M13.1127088,0 C13.3231506,0 13.5075037,0.131095374 13.5800826,0.322212899 L13.6040946,0.407588025 L15.3799358,9.85033778 C15.4003696,9.95899129 15.3840979,10.0705342 15.3349877,10.1679075 L15.2920582,10.2380142 L13.5162171,12.664878 C13.353147,12.8877295 13.0402959,12.9361919 12.8174444,12.7731219 C12.6193542,12.6281707 12.5590529,12.364874 12.6626275,12.1516374 L12.7092006,12.0743492 L14.35655,9.822 L12.69755,1 L4.12354995,1 L1.49054995,15 L7.98057651,15 C8.2260364,15 8.43018488,15.1768752 8.47252084,15.4101244 L8.48057651,15.5 C8.48057651,15.7454599 8.30370135,15.9496084 8.07045214,15.9919443 L7.98057651,16 L0.888549951,16 C0.603841024,16 0.382843407,15.7647705 0.388397117,15.4907586 L0.397164128,15.407588 L3.21812387,0.407588025 C3.25701855,0.200771788 3.41992823,0.0438243841 3.62116743,0.00781903684 L3.70950969,0 L13.1127088,0 Z M13.4977649,9 C13.9171254,9 14.1501786,9.48518311 13.8880551,9.81252767 L13.8880551,9.81252767 L9.89029022,14.8050089 C9.59493703,15.1738513 9,14.9650045 9,14.4924812 L9,14.4924812 L9,9.5 C9,9.22385763 9.22385763,9 9.5,9 L9.5,9 Z M12.45555,10 L9.99954995,10 L9.99954995,13.067 L12.45555,10 Z"/></svg>