<svg xmlns="http://www.w3.org/2000/svg" width="16" height="16" viewBox="0 0 16 16" fill="none">
    <g clip-path="url(#clip0_7546_2518)">
        <path d="M32.375 -16H-15.625V32H32.375V-16Z" fill="#1AB7EA"/>
        <path d="M13.9323 5.24668C13.8803 6.37201 13.095 7.91334 11.5737 9.86934C10.0017 11.912 8.67099 12.9333 7.58432 12.9333C6.90966 12.9333 6.34032 12.312 5.87366 11.0667C5.56299 9.92668 5.25232 8.78534 4.94032 7.64534C4.59366 6.40134 4.22299 5.77868 3.82566 5.77868C3.73899 5.77868 3.43632 5.96134 2.91766 6.32268L2.37366 5.62268C2.94432 5.12134 3.50699 4.62001 4.06032 4.11868C4.82166 3.46134 5.39366 3.11601 5.77366 3.08001C6.67366 2.99334 7.22699 3.60801 7.43499 4.92534C7.66032 6.34534 7.81499 7.22934 7.90299 7.57468C8.16299 8.75334 8.44832 9.34134 8.76032 9.34134C9.00166 9.34134 9.36566 8.95868 9.85099 8.19468C10.335 7.43068 10.5937 6.84934 10.6297 6.44934C10.699 5.78934 10.439 5.45868 9.85099 5.45868C9.57366 5.45868 9.28832 5.52268 8.99499 5.64801C9.56299 3.78668 10.6497 2.88268 12.251 2.93468C13.439 2.96934 13.999 3.74001 13.931 5.24534L13.9323 5.24668Z" fill="white"/>
    </g>
    <defs>
        <clipPath id="clip0_7546_2518">
            <rect width="16" height="16" fill="white" transform="translate(0.375)"/>
        </clipPath>
    </defs>
</svg>