<svg width="16" height="16" viewBox="0 0 16 16" fill="none" xmlns="http://www.w3.org/2000/svg">
<g clip-path="url(#clip0_1_2)">
<g>
<path fill-rule="evenodd" clip-rule="evenodd" d="M0 0H16V16H0V0ZM11.1987 9.86933C12.72 7.91333 13.5054 6.372 13.5574 5.24667L13.556 5.24533C13.624 3.74 13.064 2.96932 11.876 2.93466C10.2747 2.88266 9.18803 3.78667 8.62003 5.648C8.91337 5.52267 9.1987 5.45867 9.47603 5.45867C10.064 5.45867 10.324 5.78933 10.2547 6.44933C10.2187 6.84933 9.96003 7.43067 9.47603 8.19467C8.9907 8.95867 8.6267 9.34133 8.38537 9.34133C8.07337 9.34133 7.78803 8.75333 7.52803 7.57467C7.44003 7.22933 7.28537 6.34533 7.06003 4.92533C6.85203 3.608 6.2987 2.99332 5.3987 3.07999C5.0187 3.11599 4.4467 3.46133 3.68537 4.11867C3.13203 4.62 2.56936 5.12133 1.9987 5.62267L2.5427 6.32267C3.06136 5.96133 3.36403 5.77867 3.4507 5.77867C3.84803 5.77867 4.2187 6.40133 4.56537 7.64533C4.8224 8.58447 5.07853 9.52453 5.3345 10.464C5.38923 10.6649 5.44397 10.8658 5.4987 11.0667C5.96537 12.312 6.5347 12.9333 7.20937 12.9333C8.29603 12.9333 9.6267 11.912 11.1987 9.86933Z" fill="#000"/>
</g>
</g>
<defs>
<clipPath id="clip0_1_2">
<rect width="16" height="16" fill="white"/>
</clipPath>
</defs>
</svg>
