<svg width="16" height="16" fill="none" viewBox="0 0 16 16">
  <path fill="#000" fill-rule="evenodd" d="M14.604 1.897a.5.5 0 0 1 0 .708l-3.853 3.853-1.854-1.853a.5.5 0 1 1 .707-.708l1.147 1.147 3.146-3.147a.5.5 0 0 1 .707 0ZM1.25 4.251a.5.5 0 0 1 .5-.5h4.5a.5.5 0 1 1 0 1h-4.5a.5.5 0 0 1-.5-.5Zm7.646 4.146a.5.5 0 0 1 .707 0l2.146 2.147 2.147-2.147a.5.5 0 1 1 .707.708l-2.146 2.146 2.146 2.146a.5.5 0 0 1-.707.707l-2.147-2.146-2.146 2.146a.5.5 0 1 1-.707-.707l2.146-2.146-2.146-2.146a.5.5 0 0 1 0-.708ZM1.25 11.251a.5.5 0 0 1 .5-.5h4.5a.5.5 0 1 1 0 1h-4.5a.5.5 0 0 1-.5-.5Z" clip-rule="evenodd"/>
</svg>
