<svg width="16" height="16" viewBox="0 0 16 16" fill="none" xmlns="http://www.w3.org/2000/svg">
<path fill-rule="evenodd" clip-rule="evenodd" d="M7.96731 3C10.7492 3 13.405 4.66646 15.9346 7.99939C13.4053 11.3331 10.7495 13 7.96731 13C5.18543 13 2.52966 11.3335 0 8.00061C2.52933 4.66687 5.1851 3 7.96731 3ZM7.96731 4C5.78375 4 3.63149 5.21379 1.50467 7.72121L1.27231 8L1.50465 8.27966C3.55293 10.6936 5.62458 11.9083 7.72484 11.995L7.96731 12C10.1509 12 12.3031 10.7862 14.4299 8.27879L14.6613 7.999L14.43 7.72034C12.3817 5.30636 10.31 4.09166 8.20977 4.005L7.96731 4ZM8 5C9.65685 5 11 6.34315 11 8C11 9.65685 9.65685 11 8 11C6.34315 11 5 9.65685 5 8C5 6.34315 6.34315 5 8 5ZM8 6C6.89543 6 6 6.89543 6 8C6 9.10457 6.89543 10 8 10C9.10457 10 10 9.10457 10 8C10 6.89543 9.10457 6 8 6Z" fill="#242424"/>
</svg>
