<svg width="16" height="16" fill="none" viewBox="0 0 16 16">
  <path fill="#242424" fill-rule="evenodd" d="M8.033 5.001a3 3 0 1 1 0 6 3 3 0 0 1 0-6Zm0 1a2 2 0 1 0 0 4 2 2 0 0 0 0-4Z M8 3.001c2.782 0 5.438 1.666 7.967 5-2.529 3.333-5.185 5-7.967 5s-5.438-1.666-7.967-5c2.529-3.333 5.185-5 7.967-5Zm0 1c-2.184 0-4.336 1.214-6.463 3.721l-.232.279.232.28c2.049 2.414 4.12 3.628 6.22 3.715l.243.005c2.184 0 4.336-1.214 6.463-3.721l.231-.28-.231-.279c-2.049-2.414-4.12-3.628-6.22-3.715L8 4.001Z" clip-rule="evenodd"/>
</svg>
