<svg width="16" height="16" viewBox="0 0 16 16" fill="none" xmlns="http://www.w3.org/2000/svg">
<path fill-rule="evenodd" clip-rule="evenodd" d="M14.3536 2.14645C14.5488 2.34171 14.5488 2.65829 14.3536 2.85355L10.5 6.70711L8.64648 4.85355C8.45121 4.65829 8.45121 4.34171 8.64648 4.14645C8.84174 3.95118 9.15832 3.95118 9.35358 4.14645L10.5 5.29289L13.6465 2.14645C13.8417 1.95118 14.1583 1.95118 14.3536 2.14645ZM0.999023 4.5C0.999023 4.22386 1.22288 4 1.49902 4H5.99902C6.27517 4 6.49902 4.22386 6.49902 4.5C6.49902 4.77614 6.27517 5 5.99902 5H1.49902C1.22288 5 0.999023 4.77614 0.999023 4.5ZM8.64547 8.64645C8.84073 8.45118 9.15732 8.45118 9.35258 8.64645L11.499 10.7929L13.6455 8.64645C13.8407 8.45118 14.1573 8.45118 14.3526 8.64645C14.5478 8.84171 14.5478 9.15829 14.3526 9.35355L12.2061 11.5L14.3526 13.6464C14.5478 13.8417 14.5478 14.1583 14.3526 14.3536C14.1573 14.5488 13.8407 14.5488 13.6455 14.3536L11.499 12.2071L9.35258 14.3536C9.15732 14.5488 8.84073 14.5488 8.64547 14.3536C8.45021 14.1583 8.45021 13.8417 8.64547 13.6464L10.7919 11.5L8.64547 9.35355C8.45021 9.15829 8.45021 8.84171 8.64547 8.64645ZM0.999023 11.5C0.999023 11.2239 1.22288 11 1.49902 11H5.99902C6.27517 11 6.49902 11.2239 6.49902 11.5C6.49902 11.7761 6.27517 12 5.99902 12H1.49902C1.22288 12 0.999023 11.7761 0.999023 11.5Z" fill="#242424"/>
</svg>
