<svg width="16" height="16" viewBox="0 0 16 16" fill="none" xmlns="http://www.w3.org/2000/svg">
<path d="M4.5 1C3.11929 1 2 2.11929 2 3.5V12.5C2 13.8807 3.11929 15 4.5 15H11.5C12.8807 15 14 13.8807 14 12.5V6H13V12.5C13 13.3284 12.3284 14 11.5 14H4.5C3.67157 14 3 13.3284 3 12.5V3.5C3 2.67157 3.67157 2 4.5 2H11.5C12.3284 2 13 2.67157 13 3.5V4H14V3.5C14 2.11929 12.8807 1 11.5 1H4.5Z" fill="#242424"/>
<path d="M4.44444 6.88889C4.6899 6.88889 4.88889 6.6899 4.88889 6.44444C4.88889 6.19898 4.6899 6 4.44444 6C4.19898 6 4 6.19898 4 6.44444C4 6.6899 4.19898 6.88889 4.44444 6.88889Z" fill="#242424"/>
<path d="M6.22222 6.88889C6.46768 6.88889 6.66667 6.6899 6.66667 6.44444C6.66667 6.19898 6.46768 6 6.22222 6C5.97676 6 5.77778 6.19898 5.77778 6.44444C5.77778 6.6899 5.97676 6.88889 6.22222 6.88889Z" fill="#242424"/>
<path d="M8.44444 6.44444C8.44444 6.6899 8.24546 6.88889 8 6.88889C7.75454 6.88889 7.55556 6.6899 7.55556 6.44444C7.55556 6.19898 7.75454 6 8 6C8.24546 6 8.44444 6.19898 8.44444 6.44444Z" fill="#242424"/>
<path d="M9.77778 6.88889C10.0232 6.88889 10.2222 6.6899 10.2222 6.44444C10.2222 6.19898 10.0232 6 9.77778 6C9.53232 6 9.33333 6.19898 9.33333 6.44444C9.33333 6.6899 9.53232 6.88889 9.77778 6.88889Z" fill="#242424"/>
<path d="M12 6.44444C12 6.6899 11.801 6.88889 11.5556 6.88889C11.3101 6.88889 11.1111 6.6899 11.1111 6.44444C11.1111 6.19898 11.3101 6 11.5556 6C11.801 6 12 6.19898 12 6.44444Z" fill="#242424"/>
</svg>
