<svg width="16" height="16" fill="none" viewBox="0 0 16 16">
  <path fill="#242424" d="M4.5 1.001a2.5 2.5 0 0 0-2.5 2.5v9a2.5 2.5 0 0 0 2.5 2.5h7a2.5 2.5 0 0 0 2.5-2.5v-6.5h-1v6.5a1.5 1.5 0 0 1-1.5 1.5h-7a1.5 1.5 0 0 1-1.5-1.5v-9a1.5 1.5 0 0 1 1.5-1.5h7a1.5 1.5 0 0 1 1.5 1.5v.5h1v-.5a2.5 2.5 0 0 0-2.5-2.5h-7Z M4.444 6.89a.444.444 0 1 0 0-.889.444.444 0 0 0 0 .889Zm1.778 0a.444.444 0 1 0 0-.889.444.444 0 0 0 0 .889Zm2.222-.445a.444.444 0 1 1-.888 0 .444.444 0 0 1 .888 0Zm1.334.445a.444.444 0 1 0 0-.889.444.444 0 0 0 0 .889ZM12 6.445a.444.444 0 1 1-.889 0 .444.444 0 0 1 .889 0Z"/>
</svg>
