<svg xmlns="http://www.w3.org/2000/svg" width="16" height="16" viewBox="0 0 16 16"><path fill="#242424" fill-rule="evenodd" d="M7.57125354,1.24275212 C7.76545523,0.919082626 8.23454477,0.919082626 8.42874646,1.24275212 L8.42874646,1.24275212 L15.9287465,13.7427521 C16.1287038,14.0760144 15.8886472,14.5 15.5,14.5 L15.5,14.5 L0.5,14.5 C0.111352762,14.5 -0.128703817,14.0760144 0.0712535371,13.7427521 L0.0712535371,13.7427521 Z M7.99922777,11 C7.44694302,11 6.99922777,11.4477153 6.99922777,12 C6.99922777,12.5522847 7.44694302,13 7.99922777,13 C8.55151252,13 8.99922777,12.5522847 8.99922777,12 C8.99922777,11.4477153 8.55151252,11 7.99922777,11 Z M7.99922777,4 C7.44694302,4 6.99922777,4.44771525 6.99922777,5 L6.99922777,5 L6.99922777,9 L7.01533911,9.17975126 C7.10001103,9.64624968 7.50830799,10 7.99922777,10 C8.55151252,10 8.99922777,9.55228475 8.99922777,9 L8.99922777,9 L8.99922777,5 L8.98311643,4.82024874 C8.89844451,4.35375032 8.49014754,4 7.99922777,4 Z"/></svg>