<svg width="16" height="16" viewBox="0 0 16 16" fill="none" xmlns="http://www.w3.org/2000/svg">
<path fill-rule="evenodd" clip-rule="evenodd" d="M8.00004 2.47183L14.6169 13.5H1.38314L8.00004 2.47183ZM7.57129 1.24275L0.0712934 13.7428C-0.128664 14.076 0.111393 14.5 0.50004 14.5H15.5C15.8887 14.5 16.1287 14.076 15.9288 13.7428L8.42879 1.24275C8.23458 0.919083 7.76549 0.919083 7.57129 1.24275ZM8 5.5C8.24546 5.5 8.44961 5.67688 8.49194 5.91012L8.5 6V9.5C8.5 9.77614 8.27614 10 8 10C7.75454 10 7.55039 9.82312 7.50806 9.58988L7.5 9.5V6C7.5 5.72386 7.72386 5.5 8 5.5ZM8 11C8.27614 11 8.5 11.2239 8.5 11.5C8.5 11.7761 8.27614 12 8 12C7.72386 12 7.5 11.7761 7.5 11.5C7.5 11.2239 7.72386 11 8 11Z" fill="#242424"/>
</svg>
