<svg xmlns="http://www.w3.org/2000/svg" width="16" height="16" viewBox="0 0 16 16"><path fill="#242424" fill-rule="evenodd" d="M7.57125354,1.24275212 L0.0712535371,13.7427521 C-0.128703817,14.0760144 0.111352762,14.5 0.5,14.5 L15.5,14.5 C15.8886472,14.5 16.1287038,14.0760144 15.9287465,13.7427521 L8.42874646,1.24275212 C8.23454477,0.919082626 7.76545523,0.919082626 7.57125354,1.24275212 Z M8,2.471 L14.617,13.5 L1.382,13.5 L8,2.471 Z M8,11 C7.72385763,11 7.5,11.2238576 7.5,11.5 C7.5,11.7761424 7.72385763,12 8,12 C8.27614237,12 8.5,11.7761424 8.5,11.5 C8.5,11.2238576 8.27614237,11 8,11 Z M8,5.5 C7.72385763,5.5 7.5,5.72385763 7.5,6 L7.5,6 L7.5,9.5 L7.50805567,9.58987563 C7.55039163,9.82312484 7.75454011,10 8,10 C8.27614237,10 8.5,9.77614237 8.5,9.5 L8.5,9.5 L8.5,6 L8.49194433,5.91012437 C8.44960837,5.67687516 8.24545989,5.5 8,5.5 Z"/></svg>