<svg width="16" height="16" viewBox="0 0 16 16" fill="none" xmlns="http://www.w3.org/2000/svg">
<path fill-rule="evenodd" clip-rule="evenodd" d="M0.0712933 13.7428L7.57129 1.24275C7.76549 0.919083 8.23458 0.919083 8.42879 1.24275L15.9288 13.7428C16.1287 14.076 15.8887 14.5 15.5 14.5H0.50004C0.111393 14.5 -0.128664 14.076 0.0712933 13.7428ZM7.99927 4C8.49019 4 8.89848 4.35375 8.98316 4.82025L8.99927 5V9C8.99927 9.55228 8.55155 10 7.99927 10C7.50835 10 7.10005 9.64625 7.01538 9.17975L6.99927 9V5C6.99927 4.44772 7.44698 4 7.99927 4ZM7.99927 11C8.55155 11 8.99927 11.4477 8.99927 12C8.99927 12.5523 8.55155 13 7.99927 13C7.44698 13 6.99927 12.5523 6.99927 12C6.99927 11.4477 7.44698 11 7.99927 11Z" fill="#242424"/>
</svg>
