<svg width="16" height="16" viewBox="0 0 16 16" fill="none" xmlns="http://www.w3.org/2000/svg">
<path fill-rule="evenodd" clip-rule="evenodd" d="M8.20749 0.0102341L0.527494 1.40332C0.22226 1.45868 0 1.72834 0 2.0433V13.9568C0 14.2718 0.22226 14.5414 0.527494 14.5968L8.20749 15.9899C8.24463 15.9966 8.28228 16 8.32 16C8.67346 16 8.96 15.7089 8.96 15.3499V0.650216C8.96 0.611898 8.95666 0.573655 8.95003 0.535933C8.8879 0.182481 8.55545 -0.0528824 8.20749 0.0102341ZM4.95517 5.07458L5.84241 9.23776L6.57002 5.07458H7.68L6.48093 10.9255H5.35981L4.48 7.0115L3.60019 10.9255H2.47907L1.28 5.07458H2.38998L3.1213 9.22972L4.01225 5.07458H4.95517ZM10.24 2.31163H15.36C15.7135 2.31163 16 2.60269 16 2.96174V13.0384C16 13.3974 15.7135 13.6885 15.36 13.6885H10.24V12.3883H14.4C14.5767 12.3883 14.72 12.2427 14.72 12.0632V11.7382C14.72 11.5586 14.5767 11.4131 14.4 11.4131H10.24V10.438H14.4C14.5767 10.438 14.72 10.2924 14.72 10.1129V9.78785C14.72 9.60832 14.5767 9.46279 14.4 9.46279H10.24V8.48763H14.4C14.5767 8.48763 14.72 8.3421 14.72 8.16258V7.83753C14.72 7.65801 14.5767 7.51248 14.4 7.51248H10.24V6.53732H14.4C14.5767 6.53732 14.72 6.39179 14.72 6.21227V5.88721C14.72 5.70769 14.5767 5.56216 14.4 5.56216H10.24V4.587H14.4C14.5767 4.587 14.72 4.44147 14.72 4.26195V3.9369C14.72 3.75737 14.5767 3.61184 14.4 3.61184H10.24V2.31163Z" fill="#242424"/>
</svg>
