<svg width="16" height="16" fill="none" viewBox="0 0 16 16">
  <path fill="#242424" fill-rule="evenodd" d="M8.207.011.527 1.404a.647.647 0 0 0-.527.64v11.914c0 .315.222.584.527.64l7.68 1.393a.645.645 0 0 0 .753-.64V.65a.64.64 0 0 0-.753-.64ZM4.955 5.076l.887 4.163.728-4.163h1.11l-1.2 5.85H5.36l-.88-3.914-.88 3.915H2.48l-1.2-5.851h1.11l.731 4.155.891-4.155h.943Z M10.24 2.313h5.12c.354 0 .64.29.64.65v10.076c0 .36-.287.65-.64.65h-5.12v-1.3h4.16c.177 0 .32-.145.32-.325v-.325a.323.323 0 0 0-.32-.325h-4.16v-.975h4.16c.177 0 .32-.146.32-.325v-.325a.323.323 0 0 0-.32-.325h-4.16v-.975h4.16c.177 0 .32-.146.32-.325v-.325a.323.323 0 0 0-.32-.326h-4.16v-.975h4.16c.177 0 .32-.145.32-.325v-.325a.323.323 0 0 0-.32-.325h-4.16v-.975h4.16c.177 0 .32-.146.32-.325v-.325a.323.323 0 0 0-.32-.325h-4.16v-1.3Z" clip-rule="evenodd"/>
</svg>
