<svg width="16" height="16" viewBox="0 0 16 16" fill="none" xmlns="http://www.w3.org/2000/svg">
<path fill-rule="evenodd" clip-rule="evenodd" d="M5 0C7.76142 0 10 2.23858 10 5C10 5.59267 9.89659 6.17113 9.69805 6.71487L9.619 6.912L12.6639 9.95675C12.8592 10.152 12.8592 10.4686 12.6639 10.6639C12.4904 10.8374 12.2209 10.8567 12.0261 10.7217L11.9568 10.6639L8.66799 7.37492C8.51544 7.22237 8.47794 6.98916 8.57498 6.79647C8.85315 6.24414 9 5.6331 9 5C9 2.79086 7.20914 1 5 1C4.92028 1 4.8409 1.00233 4.76192 1.00695L4.717 1.01L5.85356 2.14646C5.92857 2.22147 5.97729 2.31786 5.99377 2.42131L6 2.5V4.25C6 4.35609 5.96629 4.4587 5.90479 4.54351L5.85355 4.60355L4.60355 5.85355C4.52854 5.92857 4.43214 5.97728 4.32869 5.99377L4.25 6H2.5C2.39392 6 2.29131 5.96629 2.2065 5.9048L2.14646 5.85356L1.01 4.717L1.00695 4.76192L1 5C1 7.20914 2.79086 9 5 9C5.6331 9 6.24414 8.85315 6.79647 8.57498C6.96164 8.4918 7.15656 8.50747 7.30496 8.60971L7.37492 8.66799L13.5 14.793L15.1464 13.1464C15.32 12.9729 15.5894 12.9536 15.7843 13.0886L15.8536 13.1464C16.0271 13.32 16.0464 13.5894 15.9114 13.7843L15.8536 13.8536L13.8536 15.8536C13.68 16.0271 13.4106 16.0464 13.2157 15.9114L13.1465 15.8536L6.911 9.619L6.71487 9.69805C6.26175 9.8635 5.78452 9.96289 5.29505 9.99142L5 10C2.23858 10 0 7.76142 0 5C0 4.50288 0.0727123 4.01495 0.21427 3.54787C0.315395 3.2142 0.711213 3.09128 0.981583 3.2844L1.04632 3.33932L2.707 5H4.042L5 4.042V2.707L3.33932 1.04632C3.0928 0.799774 3.17109 0.39277 3.4689 0.245447L3.54787 0.21427C4.01495 0.0727123 4.50288 0 5 0Z" fill="#242424"/>
</svg>
