<svg width="16" height="16" fill="none" viewBox="0 0 16 16">
  <path fill="#242424" fill-rule="evenodd" d="M5 .001a5 5 0 0 1 4.698 6.715l-.079.197 3.045 3.045a.5.5 0 0 1-.638.765l-.07-.058-3.288-3.29a.5.5 0 0 1-.093-.578 4 4 0 0 0-3.813-5.79l-.045.004 1.137 1.136a.5.5 0 0 1 .14.275L6 2.501v1.75a.5.5 0 0 1-.095.293l-.051.06-1.25 1.25a.5.5 0 0 1-.275.14l-.079.007H2.5a.5.5 0 0 1-.293-.095l-.06-.051L1.01 4.718l-.003.045L1 5a4 4 0 0 0 5.796 3.575.5.5 0 0 1 .509.035l.07.058 6.125 6.125 1.646-1.647a.5.5 0 0 1 .638-.057l.07.057a.5.5 0 0 1 .057.638l-.057.07-2 2a.5.5 0 0 1-.638.057l-.07-.058L6.911 9.62l-.196.079a4.98 4.98 0 0 1-1.42.293L5 10.001A5 5 0 0 1 .214 3.549a.5.5 0 0 1 .768-.264l.064.055 1.661 1.661h1.335L5 4.043V2.708l-1.66-1.66a.5.5 0 0 1 .129-.802l.079-.03A5 5 0 0 1 5 0Z" clip-rule="evenodd"/>
</svg>
