<svg xmlns="http://www.w3.org/2000/svg" width="16" height="12" viewBox="0 0 16 12" fill="none">
    <path d="M15.767 2.3155C15.5826 1.62666 15.0413 1.08534 14.3524 0.900947C13.1038 0.566406 8.10022 0.566406 8.10022 0.566406C8.10022 0.566406 3.0966 0.566406 1.84931 0.900947C1.16048 1.08534 0.619153 1.62666 0.43476 2.3155C0.10022 3.56278 0.10022 6.16667 0.10022 6.16667C0.10022 6.16667 0.10022 8.77056 0.43476 10.0178C0.619153 10.7067 1.16048 11.248 1.84931 11.4324C3.0966 11.7669 8.10022 11.7669 8.10022 11.7669C8.10022 11.7669 13.1038 11.7669 14.3511 11.4324C15.04 11.248 15.5813 10.7067 15.7657 10.0178C16.1002 8.77056 16.1002 6.16667 16.1002 6.16667C16.1002 6.16667 16.1002 3.56278 15.7657 2.3155H15.767Z" fill="#FF0000"/>
    <path d="M6.5 8.56641L10.6581 6.16667L6.5 3.76694V8.56641Z" fill="white"/>
</svg>