<svg width="16" height="16" viewBox="0 0 16 16" xmlns="http://www.w3.org/2000/svg">
<path fill-rule="evenodd" clip-rule="evenodd" d="M14.2636 2.90095C14.9384 3.08534 15.4687 3.62667 15.6493 4.3155H15.6481C15.9758 5.5628 15.9758 8.16667 15.9758 8.16667C15.9758 8.16667 15.9758 10.7706 15.6481 12.0178C15.4674 12.7067 14.9371 13.248 14.2624 13.4324C13.0405 13.7669 8.13903 13.7669 8.13903 13.7669C8.13903 13.7669 3.23752 13.7669 2.01569 13.4324C1.34091 13.248 0.810634 12.7067 0.630004 12.0178C0.302292 10.7706 0.302292 8.16667 0.302292 8.16667C0.302292 8.16667 0.302292 5.5628 0.630004 4.3155C0.810634 3.62667 1.34091 3.08534 2.01569 2.90095C3.23752 2.56641 8.13903 2.56641 8.13903 2.56641C8.13903 2.56641 13.0405 2.56641 14.2636 2.90095ZM10.6446 8.16667L6.57142 10.5664V5.76693L10.6446 8.16667Z"/>
</svg>
