<svg width="16" height="16" fill="none" viewBox="0 0 16 16">
  <path fill="#242424" fill-rule="evenodd" d="m3.5.001 6.04.002.05.006.064.017.072.03.026.013.07.05 4.031 4.028a.5.5 0 0 1-.268.847l-.086.007h-4a.5.5 0 0 1-.491-.41L9 4.5V1H3.5a.5.5 0 0 0-.492.41L3 1.501v13a.5.5 0 0 0 .41.492L3.5 15h9a.5.5 0 0 0 .492-.41l.007-.09V7a.5.5 0 0 1 .992-.09l.008.09v7.5a1.5 1.5 0 0 1-1.355 1.493l-.145.007h-9a1.5 1.5 0 0 1-1.493-1.356L2 14.501v-13A1.5 1.5 0 0 1 3.355.008L3.5 0ZM10 1.708v2.293h2.293L10 1.708Zm-4.5.793a.5.5 0 1 1 1 0v1.5H7a.5.5 0 1 1 0 1h-.5v1H7a.5.5 0 1 1 0 1h-.5v1H7a.5.5 0 1 1 0 1h-.5v1H7a.5.5 0 1 1 0 1h-.5v1H7a.5.5 0 1 1 0 1h-.5v.5a.5.5 0 0 1-1 0v-1.5H5a.5.5 0 0 1 0-1h.5v-1H5a.5.5 0 0 1 0-1h.5v-1H5a.5.5 0 0 1 0-1h.5v-1H5a.5.5 0 0 1 0-1h.5v-1H5a.5.5 0 0 1 0-1h.5v-.5Z" clip-rule="evenodd"/>
</svg>
