<svg width="16" height="16" viewBox="0 0 16 16" fill="none" xmlns="http://www.w3.org/2000/svg">
<path fill-rule="evenodd" clip-rule="evenodd" d="M3.5 0L9.53959 0.00156876L9.58988 0.00805567L9.65473 0.024544L9.72679 0.0543895L9.75236 0.0682647L9.82214 0.117594L13.8536 4.14645C14.1475 4.44043 13.9728 4.92918 13.586 4.99304L13.5 5H9.5C9.25454 5 9.05039 4.82312 9.00806 4.58988L9 4.5V1H3.5C3.25454 1 3.05039 1.17688 3.00806 1.41012L3 1.5V14.5C3 14.7455 3.17688 14.9496 3.41012 14.9919L3.5 15H12.5C12.7455 15 12.9496 14.8231 12.9919 14.5899L13 14.5V7C13 6.72386 13.2239 6.5 13.5 6.5C13.7455 6.5 13.9496 6.67688 13.9919 6.91012L14 7V14.5C14 15.2797 13.4051 15.9204 12.6445 15.9931L12.5 16H3.5C2.7203 16 2.07955 15.4051 2.00687 14.6445L2 14.5V1.5C2 0.720304 2.59489 0.0795513 3.35554 0.00686658L3.5 0ZM10 1.707V4H12.293L10 1.707ZM5.5 2.5C5.5 2.22386 5.72386 2 6 2C6.27614 2 6.5 2.22386 6.5 2.5V3V4H7C7.27614 4 7.5 4.22386 7.5 4.5C7.5 4.77614 7.27614 5 7 5H6.5V6H7C7.27614 6 7.5 6.22386 7.5 6.5C7.5 6.77614 7.27614 7 7 7H6.5V8H7C7.27614 8 7.5 8.22386 7.5 8.5C7.5 8.77614 7.27614 9 7 9H6.5V10H7C7.27614 10 7.5 10.2239 7.5 10.5C7.5 10.7761 7.27614 11 7 11H6.5V12H7C7.27614 12 7.5 12.2239 7.5 12.5C7.5 12.7761 7.27614 13 7 13H6.5V13.5C6.5 13.7761 6.27614 14 6 14C5.72386 14 5.5 13.7761 5.5 13.5V13V12H5C4.72386 12 4.5 11.7761 4.5 11.5C4.5 11.2239 4.72386 11 5 11H5.5V10H5C4.72386 10 4.5 9.77614 4.5 9.5C4.5 9.22386 4.72386 9 5 9H5.5V8H5C4.72386 8 4.5 7.77614 4.5 7.5C4.5 7.22386 4.72386 7 5 7H5.5V6H5C4.72386 6 4.5 5.77614 4.5 5.5C4.5 5.22386 4.72386 5 5 5H5.5V4H5C4.72386 4 4.5 3.77614 4.5 3.5C4.5 3.22386 4.72386 3 5 3H5.5V2.5Z" fill="#242424"/>
</svg>
