<svg width="300" height="84" viewBox="0 0 300 84" xmlns="http://www.w3.org/2000/svg"><defs><linearGradient x1="50%" y1="0%" x2="50%" y2="100%" id="a"><stop stop-color="#14CC33" offset=".022%"/><stop stop-color="#29B6F6" offset="100%"/></linearGradient></defs><g fill="none" fill-rule="evenodd"><path d="M268.953802,76.6337228 C269.65043,76.6337228 270.278686,76.7853411 270.838919,77.087532 C271.398453,77.3900714 271.838337,77.8083286 272.157174,78.3412581 C272.47636,78.8752332 272.635779,79.4768266 272.635779,80.1470838 C272.635779,80.8173411 272.47636,81.419283 272.157174,81.952561 C271.838337,82.485839 271.398453,82.9037477 270.838919,83.2066357 C270.278686,83.5091751 269.65043,83.6600963 268.953802,83.6600963 C268.256826,83.6600963 267.62857,83.5091751 267.068337,83.2066357 C266.508453,82.9037477 266.068919,82.4844448 265.749733,81.9476813 C265.430895,81.4109178 265.271477,80.8103701 265.271477,80.1470838 C265.271477,79.483449 265.430895,78.8832498 265.749733,78.3464863 C266.068919,77.8097228 266.508453,77.3900714 267.068337,77.087532 C267.62857,76.7853411 268.256826,76.6337228 268.953802,76.6337228 Z M25.4697209,76.6338971 C26.0428605,76.6338971 26.5636744,76.728005 27.0328605,76.9165693 C27.5013488,77.1054822 27.895186,77.3818805 28.2143721,77.7464614 L27.4134419,78.5268598 C26.8922791,78.006478 26.2640233,77.7464614 25.5283256,77.7464614 C25.0462326,77.7464614 24.6185581,77.8471917 24.243907,78.0486523 C23.8692558,78.2504614 23.5762326,78.5334822 23.3648372,78.8980631 C23.153093,79.262644 23.0473953,79.6784614 23.0473953,80.1472581 C23.0473953,80.6024614 23.153093,81.0123535 23.3648372,81.3769344 C23.5762326,81.7411668 23.8692558,82.0273245 24.243907,82.2354075 C24.6185581,82.4434905 25.043093,82.5477062 25.5185581,82.5477062 C26.0522791,82.5477062 26.5214651,82.4305942 26.9250698,82.1967187 L26.9250698,80.0691834 L28.1264651,80.0691834 L28.1264651,82.7920382 C27.775186,83.0715734 27.3646047,83.2862788 26.8957674,83.4361544 C26.4269302,83.5856813 25.9448372,83.6602705 25.450186,83.6602705 C24.7532093,83.6602705 24.1253023,83.5090008 23.5650698,83.20681 C23.005186,82.903922 22.5656512,82.4860133 22.2464651,81.9523867 C21.9272791,81.4191087 21.7678605,80.8171668 21.7678605,80.1472581 C21.7678605,79.4770008 21.9272791,78.8750589 22.2464651,78.3414324 C22.5656512,77.8085029 23.0069302,77.3898971 23.5699535,77.0873577 C24.1329767,76.7851668 24.766814,76.6338971 25.4697209,76.6338971 Z M179.949942,76.6338622 C180.509477,76.6338622 181.020872,76.7314556 181.483081,76.9262938 C181.945291,77.1214805 182.335988,77.4048498 182.655174,77.7757046 L181.834709,78.5463436 C181.339709,78.0134141 180.730988,77.7464266 180.008547,77.7464266 C179.53936,77.7464266 179.11936,77.848551 178.748198,78.0534971 C178.377035,78.2587917 178.0875,78.5432066 177.878895,78.9077876 C177.670291,79.2720199 177.566686,79.685049 177.566686,80.1472232 C177.566686,80.609049 177.670291,81.022078 177.878895,81.3863104 C178.0875,81.7508913 178.377035,82.0356548 178.748198,82.2406008 C179.11936,82.4451983 179.53936,82.5476714 180.008547,82.5476714 C180.730988,82.5476714 181.339709,82.2778954 181.834709,81.7376465 L182.655174,82.5183934 C182.335988,82.8895967 181.943547,83.1722689 181.478198,83.3674556 C181.0125,83.5626423 180.500058,83.6602357 179.939826,83.6602357 C179.249826,83.6602357 178.626453,83.508966 178.06936,83.2067751 C177.512616,82.9038871 177.076221,82.4859784 176.760523,81.9523519 C176.444826,81.4190739 176.287151,80.8174805 176.287151,80.1472232 C176.287151,79.476966 176.44657,78.8750241 176.765407,78.3413975 C177.084593,77.808468 177.522733,77.3902108 178.079128,77.0873228 C178.635872,76.785132 179.259244,76.6338622 179.949942,76.6338622 Z M97.1843372,76.7312813 L98.9330581,79.161356 L100.661895,76.7312813 L102.038756,76.7312813 L99.6460814,80.0295884 L102.214919,83.5628166 L100.749802,83.5628166 L98.8939884,80.9668332 L97.0577093,83.5628166 L95.6117791,83.5628166 L98.1516628,80.0787336 L95.7488721,76.7312813 L97.1843372,76.7312813 Z M3.89194186,76.7312465 C4.62101163,76.7312465 5.26880233,76.8731054 5.83531395,77.1557776 C6.40182558,77.4387983 6.84136047,77.8389311 7.15426744,78.3565245 C7.46682558,78.8734207 7.62275581,79.470483 7.62275581,80.1470141 C7.62275581,80.8238938 7.46682558,81.4206075 7.15426744,81.9378523 C6.84136047,82.4550971 6.40182558,82.8555784 5.83531395,83.1382506 C5.26880233,83.4212714 4.62101163,83.5627817 3.89194186,83.5627817 L0.903104651,83.5627817 L0.903104651,76.7312465 L3.89194186,76.7312465 Z M292.321291,76.7312813 L295.03664,81.2599618 L297.703151,76.7312813 L298.748267,76.7312813 L298.758035,83.5628166 L297.55664,83.5628166 L297.547221,79.0344846 L295.30036,82.7820697 L294.733849,82.7820697 L292.487337,79.0930407 L292.487337,83.5628166 L291.276174,83.5628166 L291.276174,76.7312813 L292.321291,76.7312813 Z M47.9415698,76.7314556 L47.9415698,77.8049826 L45.6755233,77.8049826 L45.6755233,83.5629909 L44.4057558,83.5629909 L44.4057558,77.8049826 L42.1397093,77.8049826 L42.1397093,76.7314556 L47.9415698,76.7314556 Z M111.078767,76.731595 C111.671442,76.731595 112.187372,76.8288398 112.626907,77.0240266 C113.066442,77.2192133 113.403419,77.4994456 113.638186,77.863678 C113.872256,78.2279104 113.989465,78.6604581 113.989465,79.1613212 C113.989465,79.6559104 113.872256,80.0867154 113.638186,80.4544332 C113.403419,80.822151 113.066442,81.103429 112.626907,81.2986158 C112.187372,81.494151 111.671442,81.5913959 111.078767,81.5913959 L109.535512,81.5913959 L109.535512,83.5627817 L108.265744,83.5627817 L108.265744,76.731595 L111.078767,76.731595 Z M164.81864,76.7314207 L168.588872,81.3569975 L168.588872,76.7314207 L169.848872,76.7314207 L169.848872,83.562956 L168.803756,83.562956 L165.033523,78.9370307 L165.033523,83.562956 L163.773523,83.562956 L163.773523,76.7314207 L164.81864,76.7314207 Z M36.1084884,76.7313859 L36.1084884,83.5629212 L34.8387209,83.5629212 L34.8387209,76.7313859 L36.1084884,76.7313859 Z M281.871349,76.7313859 C282.463674,76.7313859 282.979605,76.8286307 283.41914,77.024166 C283.858674,77.2193527 284.196,77.4992365 284.430419,77.8634689 C284.664488,78.2277012 284.781698,78.660249 284.781698,79.1614606 C284.781698,79.6752199 284.656465,80.1178755 284.405651,80.4883817 C284.155186,80.8595851 283.795186,81.1359834 283.326698,81.3182739 L284.898907,83.5629212 L283.531465,83.5629212 L282.134721,81.5619087 C282.076465,81.5688797 281.988558,81.5720166 281.871349,81.5720166 L280.328093,81.5720166 L280.328093,83.5629212 L279.057977,83.5629212 L279.057977,76.7313859 L281.871349,76.7313859 Z M221.767814,76.7314207 L221.767814,82.489429 L225.342349,82.489429 L225.342349,83.562956 L220.497698,83.562956 L220.497698,76.7314207 L221.767814,76.7314207 Z M145.339186,76.7313859 L145.339186,83.5629212 L144.06907,83.5629212 L144.06907,76.7313859 L145.339186,76.7313859 Z M157.208128,76.731351 L157.208128,77.7951187 L153.486733,77.7951187 L153.486733,79.5713178 L156.788128,79.5713178 L156.788128,80.6155668 L153.486733,80.6155668 L153.486733,82.4991187 L157.344872,82.4991187 L157.344872,83.5628863 L152.216965,83.5628863 L152.216965,76.731351 L157.208128,76.731351 Z M259.559651,76.731351 L259.559651,77.7951187 L255.838256,77.7951187 L255.838256,79.8738573 L259.139651,79.8738573 L259.139651,80.9473842 L255.838256,80.9473842 L255.838256,83.5628863 L254.56814,83.5628863 L254.56814,76.731351 L259.559651,76.731351 Z M193.862267,76.731351 L193.862267,77.7951187 L190.140872,77.7951187 L190.140872,79.5713178 L193.442267,79.5713178 L193.442267,80.6155668 L190.140872,80.6155668 L190.140872,82.4991187 L193.999012,82.4991187 L193.999012,83.5628863 L188.871105,83.5628863 L188.871105,76.731351 L193.862267,76.731351 Z M134.669233,76.7313859 C135.261558,76.7313859 135.777488,76.8286307 136.217023,77.024166 C136.656907,77.2193527 136.993884,77.4992365 137.228302,77.8634689 C137.462372,78.2277012 137.579581,78.660249 137.579581,79.1614606 C137.579581,79.6752199 137.454349,80.1178755 137.203535,80.4883817 C136.95307,80.8595851 136.59307,81.1359834 136.124581,81.3182739 L137.696791,83.5629212 L136.329349,83.5629212 L134.932953,81.5619087 C134.874349,81.5688797 134.786442,81.5720166 134.669233,81.5720166 L133.125977,81.5720166 L133.125977,83.5629212 L131.85586,83.5629212 L131.85586,76.7313859 L134.669233,76.7313859 Z M67.007407,76.7314207 L67.007407,82.489429 L70.5822907,82.489429 L70.5822907,83.562956 L65.7376395,83.562956 L65.7376395,76.7314207 L67.007407,76.7314207 Z M248.536256,76.7314556 L248.536256,77.8049826 L246.270209,77.8049826 L246.270209,83.5629909 L245.000442,83.5629909 L245.000442,77.8049826 L242.734395,77.8049826 L242.734395,76.7314556 L248.536256,76.7314556 Z M15.3303488,76.7313859 L15.3303488,83.5629212 L14.0602326,83.5629212 L14.0602326,76.7313859 L15.3303488,76.7313859 Z M211.277477,76.731595 C211.869802,76.731595 212.385733,76.8288398 212.825267,77.0240266 C213.264802,77.2192133 213.602128,77.4994456 213.836547,77.863678 C214.070616,78.2279104 214.187826,78.6604581 214.187826,79.1613212 C214.187826,79.6559104 214.070616,80.0867154 213.836547,80.4544332 C213.602128,80.822151 213.264802,81.103429 212.825267,81.2986158 C212.385733,81.494151 211.869802,81.5913959 211.277477,81.5913959 L209.734221,81.5913959 L209.734221,83.5627817 L208.464105,83.5627817 L208.464105,76.731595 L211.277477,76.731595 Z M125.290221,76.731351 L125.290221,77.7951187 L121.568826,77.7951187 L121.568826,79.5713178 L124.870221,79.5713178 L124.870221,80.6155668 L121.568826,80.6155668 L121.568826,82.4991187 L125.426965,82.4991187 L125.426965,83.5628863 L120.299058,83.5628863 L120.299058,76.731351 L125.290221,76.731351 Z M235.254453,76.7314207 L238.341314,83.562956 L237.012593,83.562956 L236.328872,81.981595 L232.910267,81.981595 L232.236663,83.562956 L230.927826,83.562956 L234.004221,76.7314207 L235.254453,76.7314207 Z M89.6284186,76.731351 L89.6284186,77.7951187 L85.9070233,77.7951187 L85.9070233,79.5713178 L89.2084186,79.5713178 L89.2084186,80.6155668 L85.9070233,80.6155668 L85.9070233,82.4991187 L89.7651628,82.4991187 L89.7651628,83.5628863 L84.6372558,83.5628863 L84.6372558,76.731351 L89.6284186,76.731351 Z M56.6665116,76.7314207 L59.7530233,83.562956 L58.4246512,83.562956 L57.7409302,81.981595 L54.3223256,81.981595 L53.6483721,83.562956 L52.3395349,83.562956 L55.4162791,76.7314207 L56.6665116,76.7314207 Z M268.953802,77.7462871 C268.497872,77.7462871 268.08764,77.8484116 267.722756,78.0533577 C267.358221,78.2586523 267.071826,78.54481 266.863221,78.9125278 C266.654965,79.2802456 266.551012,79.6918805 266.551012,80.1470838 C266.551012,80.6026357 266.654965,81.013922 266.863221,81.3816398 C267.071826,81.7493577 267.358221,82.0355154 267.722756,82.2404614 C268.08764,82.4454075 268.497872,82.5478805 268.953802,82.5478805 C269.409384,82.5478805 269.819616,82.4454075 270.1845,82.2404614 C270.549035,82.0355154 270.83543,81.7493577 271.044035,81.3816398 C271.252291,81.013922 271.356244,80.6026357 271.356244,80.1470838 C271.356244,79.6918805 271.252291,79.2802456 271.044035,78.9125278 C270.83543,78.54481 270.549035,78.2586523 270.1845,78.0533577 C269.819616,77.8484116 269.409384,77.7462871 268.953802,77.7462871 Z M3.83333721,77.805122 L2.17252326,77.805122 L2.17252326,82.4892548 L3.83333721,82.4892548 C4.33461628,82.4892548 4.77554651,82.3934041 5.15682558,82.2013544 C5.53775581,82.0093046 5.83077907,81.7363917 6.03554651,81.3815701 C6.24066279,81.0270971 6.34322093,80.6154622 6.34322093,80.1470141 C6.34322093,79.678566 6.24066279,79.2672797 6.03554651,78.9124581 C5.83077907,78.5579851 5.53775581,78.2847237 5.15682558,78.0930224 C4.77554651,77.9009726 4.33461628,77.805122 3.83333721,77.805122 Z M56.0316279,78.0001344 L54.752093,80.9861427 L57.3209302,80.9861427 L56.0316279,78.0001344 Z M234.619919,78.0001344 L233.340384,80.9861427 L235.908872,80.9861427 L234.619919,78.0001344 Z M281.812744,77.8049129 L280.328093,77.8049129 L280.328093,80.5277676 L281.812744,80.5277676 C282.366,80.5277676 282.786,80.4089129 283.072395,80.1712033 C283.358791,79.9341909 283.502163,79.5974938 283.502163,79.1614606 C283.502163,78.7254274 283.358791,78.390473 283.072395,78.156249 C282.786,77.9220249 282.366,77.8049129 281.812744,77.8049129 Z M134.610628,77.8049129 L133.125977,77.8049129 L133.125977,80.5277676 L134.610628,80.5277676 C135.163884,80.5277676 135.583884,80.4089129 135.870628,80.1712033 C136.157023,79.9341909 136.300047,79.5974938 136.300047,79.1614606 C136.300047,78.7254274 136.157023,78.390473 135.870628,78.156249 C135.583884,77.9220249 135.163884,77.8049129 134.610628,77.8049129 Z M111.020163,77.805122 L109.535512,77.805122 L109.535512,80.5178689 L111.020163,80.5178689 C111.573767,80.5178689 111.993767,80.4007568 112.280163,80.1665328 C112.566558,79.9323087 112.70993,79.5973544 112.70993,79.1613212 C112.70993,78.725288 112.566558,78.3903336 112.280163,78.1561095 C111.993767,77.922234 111.573767,77.805122 111.020163,77.805122 Z M211.218872,77.805122 L209.734221,77.805122 L209.734221,80.5178689 L211.218872,80.5178689 C211.772128,80.5178689 212.192128,80.4007568 212.478523,80.1665328 C212.764919,79.9323087 212.908291,79.5973544 212.908291,79.1613212 C212.908291,78.725288 212.764919,78.3903336 212.478523,78.1561095 C212.192128,77.922234 211.772128,77.805122 211.218872,77.805122 Z" fill="#000"/><path d="M18.5253488,20.7417261 L19.0680463,20.7478277 C21.5861984,20.8047746 23.9022326,21.2603187 26.0155814,22.11361 L26.0155814,22.11361 L26.4638043,22.3025281 C28.534845,23.2114996 30.3165349,24.5034622 31.8080233,26.1801162 L31.8080233,26.1801162 L28.562093,29.3233195 L28.2876855,29.0426731 C25.7049466,26.4692496 22.5173577,25.1822241 18.7252326,25.1822241 L18.7252326,25.1822241 L18.2695764,25.1882663 C15.8532389,25.2527163 13.6581669,25.8327576 11.6846512,26.9280996 L11.6846512,26.9280996 L11.319245,27.1382236 C9.3957528,28.2832218 7.87772914,29.8176422 6.76604651,31.7429378 L6.76604651,31.7429378 L6.56356259,32.1064378 C5.51640058,34.0584741 4.99325581,36.2244003 4.99325581,38.6030539 L4.99325581,38.6030539 L4.99938663,39.0466707 C5.06478313,41.3992726 5.65337893,43.5382026 6.76604651,45.4631701 L6.76604651,45.4631701 L6.9792486,45.819593 C8.14172045,47.6961405 9.7104788,49.1826663 11.6846512,50.2780083 L11.6846512,50.2780083 L12.0572817,50.4774586 C14.0584908,51.5089317 16.281238,52.0242324 18.7252326,52.0242324 L18.7252326,52.0242324 L19.125942,52.0192479 C22.845387,51.9262047 25.9905613,50.5305732 28.562093,47.8332946 L28.562093,47.8332946 L31.8080233,50.9761494 L31.4838612,51.3296694 C29.9498403,52.9525342 28.1181628,54.1988448 25.990814,55.067751 L25.990814,55.067751 L25.5316185,55.2478669 C23.3747705,56.0593925 21.022814,56.4647303 18.4754651,56.4647303 L18.4754651,56.4647303 L17.953719,56.4589296 C14.6655174,56.385454 11.6849477,55.6139602 9.01290698,54.1444481 L9.01290698,54.1444481 L8.59546631,53.9081091 C5.98058634,52.3836609 3.91498256,50.3341419 2.39686047,47.7583568 L2.39686047,47.7583568 L2.16315083,47.3491993 C0.720950581,44.7416607 1.98951966e-12,41.8261793 1.98951966e-12,38.6030539 L1.98951966e-12,38.6030539 L0.00599132268,38.0967035 C0.081881686,34.9060545 0.878738372,32.0238672 2.39686047,29.447751 L2.39686047,29.447751 L2.6411792,29.045563 C4.21776192,26.525974 6.34974419,24.5308581 9.03802326,23.0620083 C11.867093,21.514805 15.03,20.7417261 18.5253488,20.7417261 L18.5253488,20.7417261 Z M82.3353488,20.7417261 L82.942013,20.7507326 C83.7458233,20.7745454 84.5296744,20.8447568 85.2976744,20.9515519 L85.2976744,20.9515519 L81.5396512,25.207668 L81.0922713,25.235569 C79.0164078,25.3944958 77.1073721,25.9557444 75.3694186,26.9280996 L75.3694186,26.9280996 L75.0068838,27.1382236 C73.098259,28.2832218 71.5879412,29.8176422 70.4759302,31.7429378 L70.4759302,31.7429378 L70.2735043,32.1064378 C69.2266331,34.0584741 68.7034884,36.2244003 68.7034884,38.6030539 L68.7034884,38.6030539 L68.7096191,39.0466707 C68.7750145,41.3992726 69.363591,43.5382026 70.4759302,45.4631701 L70.4759302,45.4631701 L70.6890999,45.819593 C71.8508993,47.6961405 73.4110055,49.1826663 75.3694186,50.2780083 L75.3694186,50.2780083 L75.7390075,50.4774551 C77.7235326,51.5088919 79.9222161,52.0238838 82.3353488,52.0238838 L82.3353488,52.0238838 L82.7848995,52.0178484 C85.1682848,51.9534687 87.3241518,51.3740063 89.2510465,50.2780083 L89.2510465,50.2780083 L89.6297895,50.0546209 C91.4981781,48.9118115 92.986657,47.380945 94.0946512,45.4631701 L94.0946512,45.4631701 L94.3122366,45.0708162 C94.943393,43.8848938 95.3802907,42.6192996 95.6267442,41.2760664 L95.6267442,41.2760664 L100.782209,36.8275519 L100.825413,37.4121051 C100.848566,37.8041826 100.860349,38.2010622 100.860349,38.6030539 L100.860349,38.6030539 L100.85436,39.1094118 C100.778501,42.3001527 99.9819593,45.183234 98.4638372,47.7583568 L98.4638372,47.7583568 L98.2195135,48.1606865 C96.6428695,50.6810785 94.5102907,52.6752672 91.8226744,54.1444481 L91.8226744,54.1444481 L91.3957134,54.3706756 C88.6758201,55.7667121 85.6555988,56.4647303 82.3353488,56.4647303 L82.3353488,56.4647303 L81.8086423,56.4589296 C78.489423,56.385454 75.485407,55.6139602 72.7977907,54.1444481 L72.7977907,54.1444481 L72.3779304,53.9080439 C69.7476488,52.3827703 67.6652267,50.3246091 66.1318605,47.7332614 L66.1318605,47.7332614 L65.8956548,47.3218347 C64.4380753,44.701115 63.7098837,41.7950539 63.7098837,38.6030539 L63.7098837,38.6030539 L63.7159353,38.1015741 C63.7925904,34.9405041 64.5975,32.0638631 66.1318605,29.4728465 L66.1318605,29.4728465 L66.3785335,29.0682116 C67.9696919,26.5335235 70.109843,24.5308581 72.7977907,23.0620083 C75.6268605,21.5151535 78.8065116,20.7417261 82.3353488,20.7417261 L82.3353488,20.7417261 Z M141.11686,21.1408133 L155.697209,45.6879834 L170.078372,21.1408133 L174.173023,21.1408133 L174.222907,56.0652946 L169.429186,56.0652946 L169.379651,30.6202656 L156.746163,51.8245145 L154.44907,51.8245145 L141.81593,30.7701411 L141.81593,56.0652946 L137.022558,56.0652946 L137.022558,21.1408133 L141.11686,21.1408133 Z M237.518023,21.1408133 L237.518023,25.481278 L217.844302,25.481278 L217.844302,36.2085311 L235.37093,36.2085311 L235.37093,40.4489627 L217.844302,40.4489627 L217.844302,51.7248299 L238.217093,51.7248299 L238.217093,56.0652946 L212.850698,56.0652946 L212.850698,21.1408133 L237.518023,21.1408133 Z M299.740116,21.1408133 L299.740116,25.481278 L287.756163,25.481278 L287.756163,56.0652946 L282.812791,56.0652946 L282.812791,25.481278 L270.828837,25.481278 L270.828837,21.1408133 L299.740116,21.1408133 Z M120.672209,10.01761 L95.8423256,37.7651452 L95.807911,37.2737954 C95.6808698,35.8094579 95.3397907,34.4324714 94.7884884,33.1413112 L94.7884884,33.1413112 L120.672209,10.01761 Z M121.786047,3.54976537e-15 L93.597907,30.9499917 L93.3434434,30.5855705 C92.6505082,29.6284365 91.8427907,28.7883762 90.9237209,28.0612282 L90.9237209,28.0612282 L121.786047,3.54976537e-15 Z M106.189884,6.67817427 L88.7556977,26.668083 L88.3350646,26.4619235 C87.2042463,25.932785 86.0003876,25.5686086 84.7234884,25.3693942 L84.7234884,25.3693942 L106.189884,6.67817427 Z" fill="url(#a)" fill-rule="nonzero"/></g></svg>