<svg xmlns="http://www.w3.org/2000/svg" width="16" height="16" viewBox="0 0 16 16"><path fill="#242424" fill-rule="evenodd" d="M11.9008765,6.15822457 C13.7046785,6.15822457 14.3136551,8.09114427 13.5563213,9.27021685 L13.4577118,9.4142671 L13.3836367,9.50572927 C13.370026,9.52130409 13.355641,9.53717166 13.3402689,9.55352273 L13.2344901,9.65895733 L13.0948099,9.78515277 L12.9110159,9.94126577 L12.261,10.466 L14.14,12.751 L14.1675755,12.7011591 C14.3699453,12.309196 14.4953827,11.906605 14.5207592,11.5539252 L14.5255399,11.4241282 C14.5255399,11.1479858 14.7493975,10.9241282 15.0255399,10.9241282 C15.3016823,10.9241282 15.5255399,11.1479858 15.5255399,11.4241282 C15.5255399,12.0520433 15.300094,12.7826184 14.9028677,13.4505578 L14.821,13.582 L15.7254255,14.6863443 C15.9003289,14.9000343 15.8688862,15.2150515 15.6551962,15.3899549 C15.4415062,15.5648583 15.126489,15.5334156 14.9515856,15.3197256 L14.185,14.383 C13.5830119,14.9958067 12.8110104,15.4362789 11.9371278,15.4960863 L11.7336851,15.50305 C9.35740726,15.50305 8.39455159,13.3110912 9.30642446,11.810917 C9.43467189,11.5999299 9.63166666,11.375012 9.92018724,11.1047336 L10.1904363,10.8612246 C10.2393907,10.818544 10.2903457,10.7747543 10.3433679,10.7297641 L10.6868373,10.4446821 L10.841,10.319 L10.2609587,9.62463705 C9.08985602,8.24334897 9.95184877,6.15822457 11.9008765,6.15822457 Z M11.479,11.09 L11.153168,11.3562002 L10.8542924,11.610252 L10.6066584,11.8332594 C10.3843033,12.0412219 10.2372716,12.2047654 10.1609458,12.3303333 C9.62775283,13.2075196 10.1968342,14.503035 11.7336851,14.503035 C12.3896974,14.503035 12.9962031,14.1556146 13.4751444,13.6650942 L13.539,13.596 L11.479,11.09 Z M6.5,11.5 C6.77614237,11.5 7,11.7238576 7,12 L7,14 C7,14.2761424 6.77614237,14.5 6.5,14.5 C6.22385763,14.5 6,14.2761424 6,14 L6,13.5 L0.5,13.5 C0.223857625,13.5 3.38176876e-17,13.2761424 0,13 C-3.38176876e-17,12.7238576 0.223857625,12.5 0.5,12.5 L6,12.5 L6,12 C6,11.7238576 6.22385763,11.5 6.5,11.5 Z M11.9008765,7.15822457 C10.8297542,7.15822457 10.3876302,8.22770393 11.0237128,8.97794837 L11.624,9.695 L12.1929671,9.23535727 L12.4293263,9.03452125 L12.5812861,8.89246945 L12.6486829,8.81915803 L12.698037,8.75507075 L12.7149347,8.72978315 C13.0949064,8.13821538 12.7861551,7.15822457 11.9008765,7.15822457 Z M4.5,6.5 C4.77614237,6.5 5,6.72385763 5,7 L5,7.5 L7.5,7.5 C7.77614237,7.5 8,7.72385763 8,8 C8,8.27614237 7.77614237,8.5 7.5,8.5 L5,8.5 L5,9 C5,9.27614237 4.77614237,9.5 4.5,9.5 C4.22385763,9.5 4,9.27614237 4,9 L4,8.5 L0.5,8.5 C0.223857625,8.5 3.38176876e-17,8.27614237 0,8 C-3.38176876e-17,7.72385763 0.223857625,7.5 0.5,7.5 L4,7.5 L4,7 C4,6.72385763 4.22385763,6.5 4.5,6.5 Z M12.5,1.5 C12.7761424,1.5 13,1.72385763 13,2 L13,2.5 L15.5,2.5 C15.7761424,2.5 16,2.72385763 16,3 C16,3.27614237 15.7761424,3.5 15.5,3.5 L13,3.5 L13,4 C13,4.27614237 12.7761424,4.5 12.5,4.5 C12.2238576,4.5 12,4.27614237 12,4 L12,2 C12,1.72385763 12.2238576,1.5 12.5,1.5 Z M9.5,2.5 C9.77614237,2.5 10,2.72385763 10,3 C10,3.27614237 9.77614237,3.5 9.5,3.5 L0.5,3.5 C0.223857625,3.5 3.38176876e-17,3.27614237 0,3 C-3.38176876e-17,2.72385763 0.223857625,2.5 0.5,2.5 L9.5,2.5 Z"/></svg>