<svg xmlns="http://www.w3.org/2000/svg" width="16" height="16" viewBox="0 0 16 16"><path fill="#242424" fill-rule="evenodd" d="M8,0 C12.418278,0 16,3.581722 16,8 C16,12.418278 12.418278,16 8,16 C3.581722,16 0,12.418278 0,8 C0,3.581722 3.581722,0 8,0 Z M8,3 C5.23857625,3 3,5.23857625 3,8 C3,10.7614237 5.23857625,13 8,13 C10.7614237,13 13,10.7614237 13,8 C13,5.23857625 10.7614237,3 8,3 Z M8,3.5 C8.24545989,3.5 8.44960837,3.67687516 8.49194433,3.91012437 L8.5,4 L8.50141313,6.3688999 C8.51031936,6.40669554 8.51493392,6.44613841 8.51471664,6.48668254 C8.51340127,6.7321389 8.33543465,6.93533661 8.10196192,6.97642202 L8.01204441,6.98399595 C7.74621285,6.98257138 7.49126099,7.085142 7.29952832,7.27687467 C6.90900403,7.66739896 6.90900403,8.30056394 7.29952832,8.69108823 C7.69005261,9.08161252 8.32321759,9.08161252 8.71374188,8.69108823 C8.92839102,8.47643909 9.03007528,8.18249801 9.00227312,7.8894878 L8.982382,7.76420288 C8.93794805,7.56561616 9.01834932,7.36819345 9.17157219,7.25393384 C9.21498225,7.20472889 9.26910134,7.16337446 9.33134357,7.13396932 L9.4160718,7.10292661 L11.7342938,6.48176091 C12.0010268,6.41029 12.2751953,6.56858125 12.3466662,6.8353143 C12.4101959,7.07241034 12.2921851,7.31538129 12.0778411,7.41664403 L11.9931128,7.44768673 L10.0067649,7.98039801 C10.0076113,8.402771 9.87489031,8.81809962 9.62132205,9.16442126 L9.66859744,9.21069508 L10.9541727,10.742784 C11.1316736,10.9543213 11.1040816,11.2696991 10.8925442,11.4472 C10.7045111,11.6049786 10.4344311,11.6007084 10.2520702,11.4492422 L10.1881282,11.3855716 L8.902553,9.85348269 L8.86024666,9.79327053 C8.31760121,10.0492594 7.68359462,10.0475403 7.14217626,9.78811322 L7.097447,9.85348269 L5.81187178,11.3855716 C5.63437089,11.5971089 5.31899309,11.6247009 5.10745576,11.4472 C4.91942257,11.2894214 4.87672892,11.0227031 4.9942274,10.8168108 L5.04582734,10.742784 L6.33140256,9.21069508 L6.38641348,9.15703818 C6.13189158,8.80639934 6.00530232,8.39175868 6.00664568,7.97745582 L5.93873882,7.96532482 L4.00688717,7.44768673 C3.74015412,7.37621583 3.58186288,7.10204735 3.65333378,6.8353143 C3.71686348,6.59821825 3.94054928,6.44680462 4.17680806,6.46628056 L4.26570622,6.48176091 L6.19755787,6.999399 L6.25382799,7.01974997 C6.34271866,6.85834005 6.45558318,6.70660625 6.59242154,6.56976789 C6.84794251,6.31424691 7.16132313,6.13746211 7.4992905,6.04908363 L7.5,4 C7.5,3.72385763 7.72385763,3.5 8,3.5 Z"/></svg>