<svg xmlns="http://www.w3.org/2000/svg" width="16" height="16" viewBox="0 0 16 16"><path fill="#242424" d="M8.5,0 C8.77614237,0 9,0.223857625 9,0.5 L8.99395244,0.565282415 C9.64483115,0.651464394 10.2693677,0.821115658 10.8564531,1.06312721 L10.8839746,1.00480947 L10.8839746,1.00480947 C11.0067045,0.792234972 11.2619572,0.703874781 11.4851249,0.783835368 L11.5669873,0.82179677 L12.4330127,1.32179677 C12.672159,1.45986796 12.7540966,1.76566316 12.6160254,2.00480947 L12.5774957,2.05844784 C13.088521,2.45273467 13.5472653,2.911479 13.9415522,3.42250427 L13.9951905,3.3839746 L13.9951905,3.3839746 C14.207765,3.26124465 14.4730004,3.31234879 14.626289,3.49318055 L14.6782032,3.5669873 L15.1782032,4.4330127 C15.3162744,4.67215901 15.2343368,4.97795422 14.9951905,5.1160254 L14.9368728,5.14354686 C15.1788843,5.73063229 15.3485356,6.35516885 15.4347176,7.00604756 L15.5,7 L15.5,7 C15.7454599,7 15.9496084,7.17687516 15.9919443,7.41012437 L16,7.5 L16,8.5 C16,8.77614237 15.7761424,9 15.5,9 L15.4347176,8.99395244 C15.3485356,9.64483115 15.1788843,10.2693677 14.9368728,10.8564531 C14.9565271,10.8633043 14.9760718,10.8729364 14.9951905,10.8839746 C15.207765,11.0067045 15.2961252,11.2619572 15.2161646,11.4851249 L15.1782032,11.5669873 L14.6782032,12.4330127 C14.540132,12.672159 14.2343368,12.7540966 13.9951905,12.6160254 L13.9415522,12.5774957 C13.5472653,13.088521 13.088521,13.5472653 12.5774957,13.9415522 C12.592077,13.956764 12.6046231,13.9754412 12.6160254,13.9951905 C12.7387553,14.207765 12.6876512,14.4730004 12.5068194,14.626289 L12.4330127,14.6782032 L11.5669873,15.1782032 C11.327841,15.3162744 11.0220458,15.2343368 10.8839746,14.9951905 L10.8564531,14.9368728 C10.2693677,15.1788843 9.64483115,15.3485356 8.99395244,15.4347176 C8.99851376,15.4553462 9,15.4774995 9,15.5 C9,15.7454599 8.82312484,15.9496084 8.58987563,15.9919443 L8.5,16 L7.5,16 C7.22385763,16 7,15.7761424 7,15.5 L7.00604756,15.4347176 C6.35516885,15.3485356 5.73063229,15.1788843 5.14354686,14.9368728 L5.1160254,14.9951905 L5.1160254,14.9951905 C4.99329546,15.207765 4.73804284,15.2961252 4.51487512,15.2161646 L4.4330127,15.1782032 L3.5669873,14.6782032 C3.32784099,14.540132 3.24590341,14.2343368 3.3839746,13.9951905 L3.42250427,13.9415522 C2.911479,13.5472653 2.45273467,13.088521 2.05844784,12.5774957 L2.00480947,12.6160254 L2.00480947,12.6160254 C1.79223497,12.7387553 1.52699962,12.6876512 1.373711,12.5068194 L1.32179677,12.4330127 L0.82179677,11.5669873 C0.683725582,11.327841 0.76566316,11.0220458 1.00480947,10.8839746 L1.06312721,10.8564531 C0.821115658,10.2693677 0.651464394,9.64483115 0.565282415,8.99395244 L0.5,9 L0.5,9 C0.254540111,9 0.0503916296,8.82312484 0.00805566941,8.58987563 L-2.27376165e-12,8.5 L-2.27370042e-12,7.5 C-2.27368351e-12,7.22385763 0.223857625,7 0.5,7 L0.565282415,7.00604756 C0.651464394,6.35516885 0.821115658,5.73063229 1.06312721,5.14354686 C1.04347293,5.13669568 1.02392821,5.12706362 1.00480947,5.1160254 C0.792234972,4.99329546 0.703874781,4.73804284 0.783835368,4.51487512 L0.82179677,4.4330127 L1.32179677,3.5669873 C1.45986796,3.32784099 1.76566316,3.24590341 2.00480947,3.3839746 L2.05844784,3.42250427 C2.45273467,2.911479 2.911479,2.45273467 3.42250427,2.05844784 C3.407923,2.04323597 3.39537687,2.02455879 3.3839746,2.00480947 C3.26124465,1.79223497 3.31234879,1.52699962 3.49318055,1.373711 L3.5669873,1.32179677 L4.4330127,0.82179677 C4.67215901,0.683725582 4.97795422,0.76566316 5.1160254,1.00480947 L5.14354686,1.06312721 C5.73063229,0.821115658 6.35516885,0.651464394 7.00604756,0.565282415 C7.00147412,0.544472815 7,0.522408557 7,0.5 C7,0.254540111 7.17687516,0.0503916296 7.41012437,0.00805566941 L7.5,0 L8.5,0 Z M8,10 C7.6911222,10 7.39859834,9.92998047 7.13743527,9.80494827 L5.50752878,11.7472541 C6.22108133,12.2228187 7.07817108,12.5 8,12.5 C8.92182892,12.5 9.77891867,12.2228187 10.4924712,11.7472541 L8.86256473,9.80494827 C8.60140166,9.92998047 8.3088778,10 8,10 Z M3.5,8 C3.5,9.20373217 3.97263187,10.2970753 4.74244535,11.104579 L6.37206341,9.16208562 C6.13783738,8.83454989 6,8.43337177 6,8 L6.001,7.981 L3.55027438,7.32508843 C3.51716283,7.54524097 3.5,7.77061619 3.5,8 Z M12.4497256,7.32508843 L9.99991108,7.980942 C9.99997032,7.98728765 10,7.99364036 10,8 C10,8.43337177 9.86216262,8.83454989 9.62793659,9.16208562 L11.2575546,11.104579 C12.0273681,10.2970753 12.5,9.20373217 12.5,8 C12.5,7.77061619 12.4828372,7.54524097 12.4497256,7.32508843 Z M8,7 C7.44771525,7 7,7.44771525 7,8 C7,8.55228475 7.44771525,9 8,9 C8.55228475,9 9,8.55228475 9,8 C9,7.44771525 8.55228475,7 8,7 Z M3.80866562,6.35878906 L6.25894714,7.01504694 C6.52308699,6.54914325 6.96883752,6.19972618 7.49998077,6.06301369 L7.50029704,3.52743156 C5.81274796,3.7138675 4.40640162,4.83345586 3.80866562,6.35878906 Z M8.50070744,3.52754265 L8.50102216,6.06327212 C9.03172359,6.20016613 9.47707928,6.54943652 9.74105286,7.01504694 L12.1913344,6.35878906 C11.593717,4.83375852 10.1878101,3.71431181 8.50070744,3.52754265 Z"/></svg>