<svg xmlns="http://www.w3.org/2000/svg" width="16" height="16" viewBox="0 0 16 16"><path fill="#242424" d="M7.04222767,0.5 C7.33176925,0.5 7.56077912,0.745169239 7.54106766,1.03403908 L7.54106766,1.03403908 L7.30473941,4.5 L8.79773941,4.5 L8.57290119,1.03232027 C8.55609637,0.772890586 8.73971716,0.549254915 8.98718781,0.507122077 L9.0718555,0.5 L11.375,0.5 C11.5743878,0.5 11.7517064,0.61796136 11.8311858,0.795234409 L11.8590373,0.874668911 L12.7977394,4.5 L15,4.5 C15.2454599,4.5 15.4496084,4.67687516 15.4919443,4.91012437 L15.5,5 L15.5,6 C15.5,6.27614237 15.2761424,6.5 15,6.5 C14.7545401,6.5 14.5503916,6.32312484 14.5080557,6.08987563 L14.5,6 L14.5,5.5 L13.0567394,5.5 L15.4840373,14.8746689 C15.5585564,15.1624666 15.3678179,15.4437983 15.0868291,15.492571 L15,15.5 L9.97871978,15.5 C9.74441341,15.5 9.54587904,15.338312 9.49268599,15.1176376 L9.47976548,15.0323203 L9.2874333,12.0631323 C9.2695833,11.7875675 9.47850247,11.5497077 9.75406733,11.5318578 C9.99901387,11.5159911 10.2141687,11.6793001 10.2714935,11.9093248 L10.2853419,11.9984918 L10.447,14.5 L14.353,14.5 L12.0227394,5.5 L9.86373941,5.5 L10.0240145,7.96416912 C10.0398812,8.20911565 9.87657223,8.42427049 9.64654745,8.48159526 L9.55738051,8.4954437 C9.31243397,8.51131036 9.09727914,8.34800138 9.03995436,8.11797661 L9.02610593,8.02880966 L8.86173941,5.5 L7.23573941,5.5 L6.58575701,15.0340391 C6.56984602,15.2672132 6.39582395,15.4540222 6.17268401,15.4926566 L6.08691701,15.5 L1,15.5 C0.672982328,15.5 0.433991727,15.1912464 0.515962689,14.8746689 L0.515962689,14.8746689 L2.94273941,5.5 L1.5,5.5 L1.5,6 C1.5,6.24545989 1.32312484,6.44960837 1.08987563,6.49194433 L1,6.5 C0.754540111,6.5 0.55039163,6.32312484 0.508055669,6.08987563 L0.5,6 L0.5,5 C0.5,4.75454011 0.676875161,4.55039163 0.910124368,4.50805567 L1,4.5 L3.20173941,4.5 L4.14096269,0.874668911 C4.19094168,0.681646597 4.34958414,0.539557448 4.54112015,0.507051134 L4.625,0.5 Z M6.23373941,5.5 L3.97573941,5.5 L1.646,14.5 L5.62,14.5 L6.23373941,5.5 Z M6.507,1.5 L5.012,1.5 L4.23473941,4.5 L6.30173941,4.5 L6.507,1.5 Z M10.987,1.5 L9.605,1.5 L9.79873941,4.5 L11.7637394,4.5 L10.987,1.5 Z"/></svg>