<svg viewBox="0 0 16 16" xmlns="http://www.w3.org/2000/svg" id="root">
    <path d="M2.5 3C2.5 2.72386 2.72386 2.5 3 2.5H5C5.27614 2.5 5.5 2.72386 5.5 3V5C5.5 5.27614 5.27614 5.5 5 5.5H3C2.72386 5.5 2.5 5.27614 2.5 5V3Z" fill="currentColor"/>
    <path d="M6.5 3C6.5 2.72386 6.72386 2.5 7 2.5H9C9.27614 2.5 9.5 2.72386 9.5 3V5C9.5 5.27614 9.27614 5.5 9 5.5H7C6.72386 5.5 6.5 5.27614 6.5 5V3Z" fill="currentColor"/>
    <path d="M10.5 3C10.5 2.72386 10.7239 2.5 11 2.5H13C13.2761 2.5 13.5 2.72386 13.5 3V5C13.5 5.27614 13.2761 5.5 13 5.5H11C10.7239 5.5 10.5 5.27614 10.5 5V3Z" fill="currentColor"/>
    <path d="M2.5 7C2.5 6.72386 2.72386 6.5 3 6.5H5C5.27614 6.5 5.5 6.72386 5.5 7V9C5.5 9.27614 5.27614 9.5 5 9.5H3C2.72386 9.5 2.5 9.27614 2.5 9V7Z" fill="currentColor"/>
    <path d="M6.5 7C6.5 6.72386 6.72386 6.5 7 6.5H9C9.27614 6.5 9.5 6.72386 9.5 7V9C9.5 9.27614 9.27614 9.5 9 9.5H7C6.72386 9.5 6.5 9.27614 6.5 9V7Z" fill="currentColor"/>
    <path d="M10.5 7C10.5 6.72386 10.7239 6.5 11 6.5H13C13.2761 6.5 13.5 6.72386 13.5 7V9C13.5 9.27614 13.2761 9.5 13 9.5H11C10.7239 9.5 10.5 9.27614 10.5 9V7Z" fill="currentColor"/>
    <path d="M2.5 11C2.5 10.7239 2.72386 10.5 3 10.5H5C5.27614 10.5 5.5 10.7239 5.5 11V13C5.5 13.2761 5.27614 13.5 5 13.5H3C2.72386 13.5 2.5 13.2761 2.5 13V11Z" fill="currentColor"/>
    <path d="M6.5 11C6.5 10.7239 6.72386 10.5 7 10.5H9C9.27614 10.5 9.5 10.7239 9.5 11V13C9.5 13.2761 9.27614 13.5 9 13.5H7C6.72386 13.5 6.5 13.2761 6.5 13V11Z" fill="currentColor"/>
    <path d="M10.5 11C10.5 10.7239 10.7239 10.5 11 10.5H13C13.2761 10.5 13.5 10.7239 13.5 11V13C13.5 13.2761 13.2761 13.5 13 13.5H11C10.7239 13.5 10.5 13.2761 10.5 13V11Z" fill="currentColor"/>
</svg>
