<svg xmlns="http://www.w3.org/2000/svg" width="16" height="16" viewBox="0 0 16 16"><path fill="#242424" fill-rule="evenodd" d="M9.5,8 C11.3685634,8 12.8951264,9.4642776 12.9948211,11.3079648 L13,11.5 L13,15.5 C13,15.7761424 12.7761424,16 12.5,16 C12.2545401,16 12.0503916,15.8231248 12.0080557,15.5898756 L12,15.5 L12,11.5 C12,10.1745166 10.9684641,9.08996133 9.66437569,9.00531768 L9.5,9 L6.5,9 C5.1745166,9 4.08996133,10.0315359 4.00531768,11.3356243 L4,11.5 L4,15 L10,15 C10.2454599,15 10.4496084,15.1768752 10.4919443,15.4101244 L10.5,15.5 C10.5,15.7454599 10.3231248,15.9496084 10.0898756,15.9919443 L10,16 L3.5,16 C3.25454011,16 3.05039163,15.8231248 3.00805567,15.5898756 L3,15.5 L3,11.5 C3,9.6314366 4.4642776,8.10487355 6.3079648,8.00517886 L6.5,8 L9.5,8 L9.5,8 Z M8,0 C9.93299662,0 11.5,1.56700338 11.5,3.5 C11.5,5.43299662 9.93299662,7 8,7 C6.06700338,7 4.5,5.43299662 4.5,3.5 C4.5,1.56700338 6.06700338,0 8,0 Z M8,1 C6.61928813,1 5.5,2.11928813 5.5,3.5 C5.5,4.88071187 6.61928813,6 8,6 C9.38071187,6 10.5,4.88071187 10.5,3.5 C10.5,2.11928813 9.38071187,1 8,1 Z"/></svg>