<svg xmlns="http://www.w3.org/2000/svg" width="16" height="16" viewBox="0 0 16 16"><path fill="#242424" fill-rule="evenodd" d="M13,10 C13.2761424,10 13.5,10.2238576 13.5,10.5 L13.5,12.5 L15.5,12.5 C15.7761424,12.5 16,12.7238576 16,13 C16,13.2761424 15.7761424,13.5 15.5,13.5 L13.499,13.5 L13.5,15.5 C13.5,15.7761424 13.2761424,16 13,16 C12.7238576,16 12.5,15.7761424 12.5,15.5 L12.499,13.5 L10.5,13.5 C10.2238576,13.5 10,13.2761424 10,13 C10,12.7238576 10.2238576,12.5 10.5,12.5 L12.5,12.5 L12.5,10.5 C12.5,10.2238576 12.7238576,10 13,10 Z M8.5,4.5 C8.3939134,4.5 8.29130283,4.46628581 8.20649276,4.40479082 L8.14644661,4.35355339 L6.293,2.5 L1,2.5 L1,12.5 L8,12.5 C8.24545989,12.5 8.44960837,12.6768752 8.49194433,12.9101244 L8.5,13 C8.5,13.2454599 8.32312484,13.4496084 8.08987563,13.4919443 L8,13.5 L0.5,13.5 C0.254540111,13.5 0.0503916296,13.3231248 0.00805566941,13.0898756 L0,13 L0,2 C0,1.75454011 0.176875161,1.55039163 0.410124368,1.50805567 L0.5,1.5 L6.5,1.5 C6.6060866,1.5 6.70869717,1.53371419 6.79350724,1.59520918 L6.85355339,1.64644661 L8.707,3.5 L15.5,3.5 C15.7454599,3.5 15.9496084,3.67687516 15.9919443,3.91012437 L16,4 L16,4.5 L16,4.5 L16,9.5 C16,9.77614237 15.7761424,10 15.5,10 C15.2238576,10 15,9.77614237 15,9.5 L15,4.5 L8.5,4.5 Z"/></svg>