<svg xmlns="http://www.w3.org/2000/svg" width="16" height="16" viewBox="0 0 16 16"><path fill="#242424" d="M8.1219362,1.58553134 C6.99220521,2.71526233 6.95185768,4.52184942 8.00089359,5.69992727 L8.1219362,5.82817203 L8.82975009,6.5345717 L2.71762009,12.6467017 C2.52235794,12.8419639 2.52235794,13.1585463 2.71762009,13.3538085 C2.89118644,13.5273748 3.16061084,13.54666 3.35547898,13.4116639 L3.42472687,13.3538085 L3.67777008,13.1007653 L5.44503196,14.8690373 C5.6402941,15.0642994 5.95687659,15.0642994 6.15213874,14.8690373 C6.32570509,14.695471 6.34499024,14.4260465 6.20999419,14.2311784 L6.15213874,14.1619305 L4.38487686,12.3936585 L5.29350907,11.4850263 L6.35416925,12.5456865 C6.54943139,12.7409486 6.86601388,12.7409486 7.06127603,12.5456865 C7.23484238,12.3721201 7.25412753,12.1026957 7.11913148,11.9078276 L7.06127603,11.8385797 L6.00061586,10.7779195 L9.53685687,7.24167848 L10.2432565,7.94949237 C11.4148294,9.12106525 13.3143244,9.12106525 14.4858972,7.94949237 C15.6574701,6.7779195 15.6574701,4.87842456 14.4858972,3.70685169 C14.2906351,3.51158954 13.9740526,3.51158954 13.7787904,3.70685169 C13.5835283,3.90211383 13.5835283,4.21869632 13.7787904,4.41395847 C14.559839,5.19500705 14.559839,6.46133701 13.7787904,7.24238559 C13.0332441,7.98793197 11.8455302,8.02182044 11.0597867,7.34405101 L10.9503633,7.24238559 L8.82904298,5.12106525 C8.0479944,4.34001666 8.0479944,3.07368671 8.82904298,2.29263812 C9.57458936,1.54709175 10.7623033,1.51320328 11.5480467,2.19097271 L11.6574701,2.29263812 L12.3224159,2.9575839 C12.517678,3.15284605 12.8342605,3.15284605 13.0295227,2.9575839 C13.203089,2.78401755 13.2223742,2.51459315 13.0873781,2.31972501 L13.0295227,2.25047712 L12.3645769,1.58553134 C11.193004,0.413958467 9.29350907,0.413958467 8.1219362,1.58553134 Z"/></svg>