<svg xmlns="http://www.w3.org/2000/svg" width="16" height="16" viewBox="0 0 16 16"><path fill="#242424" fill-rule="evenodd" d="M15.9997651,5.98165361 L16,6 L16,15 C16,15.2454599 15.8231248,15.4496084 15.5898756,15.4919443 L15.5,15.5 L0.5,15.5 C0.254540111,15.5 0.0503916296,15.3231248 0.00805566941,15.0898756 L0,15 L0,6 L0.000106210735,5.98570113 C0.00151854649,5.93477616 0.0107467871,5.88359609 0.0282819078,5.83396116 C0.0372455063,5.80951689 0.044007238,5.79388819 0.0515181842,5.77869598 L0.0658784289,5.75193053 L2.06587843,2.25193053 C2.20288341,2.01217181 2.50831075,1.92887344 2.74806947,2.06587843 C2.96118833,2.18766064 3.0506842,2.44251729 2.97171809,2.66603884 L2.93412157,2.74806947 L1.361,5.49991444 L5,5.5 C5.27614237,5.5 5.5,5.72385763 5.5,6 C5.5,6.24545989 5.32312484,6.44960837 5.08987563,6.49194433 L5,6.5 L1,6.5 L1,14.5 L15,14.5 L15,6.5 L11,6.5 C10.7545401,6.5 10.5503916,6.32312484 10.5080557,6.08987563 L10.5,6 C10.5,5.75454011 10.6768752,5.55039163 10.9101244,5.50805567 L11,5.5 L14.638,5.49991444 L13.0658784,2.74806947 C12.9288734,2.50831075 13.0121718,2.20288341 13.2519305,2.06587843 C13.4650494,1.94409622 13.7300546,1.99638085 13.8825365,2.17789336 L13.9341216,2.25193053 L15.9341216,5.75193053 L15.9484818,5.77869598 C15.9559928,5.79388819 15.9627545,5.80951689 15.9687187,5.8255338 L15.9341216,5.75193053 C15.9756708,5.82464167 15.9969584,5.90339245 15.9997651,5.98165361 Z M10.4114088,9.2843055 L10.3535534,9.35355339 L8,11.7071068 L5.64644661,9.35355339 C5.45118446,9.15829124 5.45118446,8.84170876 5.64644661,8.64644661 C5.82001296,8.47288026 6.08943736,8.45359511 6.2843055,8.58859116 L6.35355339,8.64644661 L7.5,9.792 L7.5,4 C7.5,3.72385763 7.72385763,3.5 8,3.5 C8.24545989,3.5 8.44960837,3.67687516 8.49194433,3.91012437 L8.5,4 L8.5,9.792 L9.64644661,8.64644661 C9.82001296,8.47288026 10.0894374,8.45359511 10.2843055,8.58859116 L10.3535534,8.64644661 C10.5271197,8.82001296 10.5464049,9.08943736 10.4114088,9.2843055 Z"/></svg>