<svg xmlns="http://www.w3.org/2000/svg" width="16" height="16" viewBox="0 0 16 16"><path fill="#242424" fill-rule="evenodd" d="M0.5,4 C0.776142375,4 1,4.22385763 1,4.5 L1,13 L13.5,13 C13.7761424,13 14,13.2238576 14,13.5 C14,13.7761424 13.7761424,14 13.5,14 L0.5,14 C0.223857625,14 3.38176876e-17,13.7761424 0,13.5 L0,4.5 C-3.38176876e-17,4.22385763 0.223857625,4 0.5,4 Z M10.5,2 C10.7761424,2 11,2.22385763 11,2.5 L11,4 L15.5,4 C15.7761424,4 16,4.22385763 16,4.5 L16,11.5 C16,11.7761424 15.7761424,12 15.5,12 L2.5,12 C2.22385763,12 2,11.7761424 2,11.5 L2,2.5 C2,2.22385763 2.22385763,2 2.5,2 L10.5,2 Z M10,3 L3,3 L3,11 L15,11 L15,5 L10,5 L10,3 Z M12,7 L14,10 L10,10 L12,7 Z M6.5,5 L9,10 L4,10 L6.5,5 Z"/></svg>