<svg xmlns="http://www.w3.org/2000/svg" width="16" height="16" viewBox="0 0 16 16"><path fill="#242424" fill-rule="evenodd" d="M15.0320332,2.72625759 C16.2279517,3.93244856 16.3225997,5.8089224 15.2775926,7.00068112 L15.1567888,7.13021215 L7.55708875,14.7951902 C5.89773122,16.4688009 3.12825316,16.3889933 1.37128636,14.6169349 C-0.334004942,12.8969959 -0.458702378,10.2150363 1.05264535,8.52852202 L1.19454915,8.37799928 L9.14613599,0.358111905 C9.34056134,0.162016531 9.65714094,0.160662708 9.85323631,0.355088056 C9.85424857,0.35609169 9.85525652,0.357099649 9.85626016,0.358111905 L9.90069201,0.402925406 C10.0939426,0.597835898 10.0939426,0.912091381 9.90069201,1.10700187 L1.94308322,9.13296292 L1.94308322,9.13296292 C0.674162756,10.4127828 0.734672361,12.5488103 2.07823521,13.9039137 C3.3754683,15.2122894 5.39449721,15.3142988 6.67432537,14.1678406 L6.80855468,14.0402266 L14.4082548,6.37524851 C15.1891289,5.58766703 15.1518922,4.27318861 14.3250843,3.4392788 C13.5358586,2.64327398 12.3124885,2.57287205 11.5237456,3.25310827 L11.4141185,3.35539395 L3.46094398,11.3768826 C3.16811618,11.6722257 3.18207993,12.1651551 3.4921329,12.4778713 C3.77634811,12.7645278 4.21070287,12.80025 4.50667358,12.5767237 L4.58374508,12.5093281 L10.4144854,6.62850436 C10.6089107,6.43240898 10.9254903,6.43105516 11.1215857,6.62548051 C11.122598,6.62648414 11.1236059,6.6274921 11.1246096,6.62850436 L11.1690414,6.67331786 C11.362292,6.86822835 11.362292,7.18248383 11.1690414,7.37739432 L5.33227915,13.2642917 L5.33227915,13.2642917 C4.64901429,13.9534255 3.50864097,13.9205636 2.78518405,13.1908925 C2.09789998,12.497705 2.03413044,11.4250184 2.61528591,10.7286366 L2.7124099,10.621919 L10.6655844,2.60043031 C11.8368956,1.41905808 13.7918213,1.47539287 15.0320332,2.72625759 Z"/></svg>