<svg xmlns="http://www.w3.org/2000/svg" width="16" height="16" viewBox="0 0 16 16"><path fill="#242424" fill-rule="evenodd" d="M12,1 C12.2761424,1 12.5,1.22385763 12.5,1.5 L12.5,3 L14.5,3 C14.7761424,3 15,3.22385763 15,3.5 L15,14.5 C15,14.7761424 14.7761424,15 14.5,15 L1.5,15 C1.22385763,15 1,14.7761424 1,14.5 L1,3.5 C1,3.22385763 1.22385763,3 1.5,3 L3.5,3 L3.5,1.5 C3.5,1.22385763 3.72385763,1 4,1 C4.27614237,1 4.5,1.22385763 4.5,1.5 L4.5,3 L11.5,3 L11.5,1.5 C11.5,1.22385763 11.7238576,1 12,1 Z M14,6 L2,6 L2,14 L14,14 L14,6 Z M9.14644661,9.14644661 C9.34170876,8.95118446 9.65829124,8.95118446 9.85355339,9.14644661 L9.85355339,9.14644661 L11,10.293 L12.1464466,9.14644661 C12.3417088,8.95118446 12.6582912,8.95118446 12.8535534,9.14644661 C13.0271197,9.32001296 13.0464049,9.58943736 12.9114088,9.7843055 L12.8535534,9.85355339 L11.707,11 L12.8535534,12.1464466 L12.9114088,12.2156945 C13.0464049,12.4105626 13.0271197,12.679987 12.8535534,12.8535534 C12.6582912,13.0488155 12.3417088,13.0488155 12.1464466,12.8535534 L12.1464466,12.8535534 L11,11.707 L9.85355339,12.8535534 C9.65829124,13.0488155 9.34170876,13.0488155 9.14644661,12.8535534 C8.97288026,12.679987 8.95359511,12.4105626 9.08859116,12.2156945 L9.14644661,12.1464466 L10.293,11 L9.14644661,9.85355339 L9.08859116,9.7843055 C8.95359511,9.58943736 8.97288026,9.32001296 9.14644661,9.14644661 Z"/></svg>