<svg xmlns="http://www.w3.org/2000/svg" width="16" height="16" viewBox="0 0 16 16"><path fill="#242424" fill-rule="evenodd" d="M11.5269462,8.96727082 L11.5961941,9.02512627 L13.7175144,11.1464466 L13.7532987,11.1862203 L13.7963834,11.2488032 L13.8258745,11.308253 L13.8517391,11.3898316 L13.8621556,11.4573763 L13.863961,11.5 L13.8608458,11.5561278 L13.8469275,11.6297452 L13.8256908,11.6921876 L13.7963768,11.7511997 L13.7484137,11.8197012 L13.7175144,11.8535534 L11.5961941,13.9748737 C11.4009319,14.1701359 11.0843494,14.1701359 10.8890873,13.9748737 C10.7155209,13.8013074 10.6962358,13.531883 10.8312318,13.3370148 L10.8890873,13.267767 L12.1562226,11.9992174 L7.70710678,12 C7.43096441,12 7.20710678,11.7761424 7.20710678,11.5 C7.20710678,11.2545401 7.38398194,11.0503916 7.61723115,11.0080557 L7.70710678,11 L12.1562226,10.9993684 L10.8890873,9.73223305 C10.7155209,9.5586667 10.6962358,9.28924229 10.8312318,9.09437415 L10.8890873,9.02512627 C11.0626536,8.85155991 11.332078,8.83227476 11.5269462,8.96727082 Z M5.5,9 C5.77614237,9 6,9.22385763 6,9.5 L6,9.5 L6,13.5 C6,13.7761424 5.77614237,14 5.5,14 L5.5,14 L0.5,14 C0.223857625,14 0,13.7761424 0,13.5 L0,13.5 L0,9.5 C0,9.22385763 0.223857625,9 0.5,9 L0.5,9 Z M5,10 L1,10 L1,13 L5,13 L5,10 Z M5.14644661,2.02512627 C5.32001296,2.19869262 5.33929811,2.46811702 5.20430206,2.66298516 L5.14644661,2.73223305 L3.87931126,4.00078261 L8.32842712,4 C8.6045695,4 8.82842712,4.22385763 8.82842712,4.5 C8.82842712,4.74545989 8.65155196,4.94960837 8.41830276,4.99194433 L8.32842712,5 L3.87931126,5.0006316 L5.14644661,6.26776695 C5.32001296,6.4413333 5.33929811,6.71075771 5.20430206,6.90562585 L5.14644661,6.97487373 C4.97288026,7.14844009 4.70345586,7.16772524 4.50858772,7.03272918 L4.43933983,6.97487373 L2.31801948,4.85355339 L2.28223519,4.81377965 L2.23915055,4.75119684 L2.20965938,4.69174699 L2.18379484,4.61016842 L2.17337832,4.54262374 L2.17157288,4.5 L2.17468807,4.44387217 L2.18860641,4.3702548 L2.20984308,4.30781238 L2.23915706,4.24880029 L2.2871202,4.18029876 L2.31801948,4.14644661 L4.43933983,2.02512627 C4.63460197,1.82986412 4.95118446,1.82986412 5.14644661,2.02512627 Z M15.5,2 C15.7761424,2 16,2.22385763 16,2.5 L16,2.5 L16,6.5 C16,6.77614237 15.7761424,7 15.5,7 L15.5,7 L10.5,7 C10.2238576,7 10,6.77614237 10,6.5 L10,6.5 L10,2.5 C10,2.22385763 10.2238576,2 10.5,2 L10.5,2 Z M15,3 L11,3 L11,6 L15,6 L15,3 Z"/></svg>