<svg xmlns="http://www.w3.org/2000/svg" width="16" height="16" viewBox="0 0 16 16"><path fill="#242424" fill-rule="evenodd" d="M6.5,11 C6.77614237,11 7,11.2238576 7,11.5 L7,15.5 C7,15.7761424 6.77614237,16 6.5,16 L0.5,16 C0.223857625,16 3.38176876e-17,15.7761424 0,15.5 L0,11.5 C-3.38176876e-17,11.2238576 0.223857625,11 0.5,11 L6.5,11 Z M15.5,7 C15.7761424,7 16,7.22385763 16,7.5 L16,15.5 C16,15.7761424 15.7761424,16 15.5,16 L9.5,16 C9.22385763,16 9,15.7761424 9,15.5 L9,7.5 C9,7.22385763 9.22385763,7 9.5,7 L15.5,7 Z M6,12 L1,12 L1,15 L6,15 L6,12 Z M15,8 L10,8 L10,15 L15,15 L15,8 Z M6.5,0 C6.77614237,-5.07265313e-17 7,0.223857625 7,0.5 L7,8.5 C7,8.77614237 6.77614237,9 6.5,9 L0.5,9 C0.223857625,9 3.38176876e-17,8.77614237 0,8.5 L0,0.5 C-3.38176876e-17,0.223857625 0.223857625,5.07265313e-17 0.5,0 L6.5,0 Z M6,1 L1,1 L1,8 L6,8 L6,1 Z M15.5,0 C15.7761424,-5.07265313e-17 16,0.223857625 16,0.5 L16,4.5 C16,4.77614237 15.7761424,5 15.5,5 L9.5,5 C9.22385763,5 9,4.77614237 9,4.5 L9,0.5 C9,0.223857625 9.22385763,5.07265313e-17 9.5,0 L15.5,0 Z M15,1 L10,1 L10,4 L15,4 L15,1 Z"/></svg>