<svg xmlns="http://www.w3.org/2000/svg" width="16" height="16" viewBox="0 0 16 16"><path fill="#242424" fill-rule="evenodd" d="M5,14.5 C4.72385763,14.5 4.5,14.2761424 4.5,14 C4.5,13.7545401 4.67687516,13.5503916 4.91012437,13.5080557 L5,13.5 L7.5,13.5 L7.5,12 L0.5,12 C0.254540111,12 0.0503916296,11.8231248 0.00805566941,11.5898756 L0,11.5 L0,2.5 C0,2.25454011 0.176875161,2.05039163 0.410124368,2.00805567 L0.5,2 L15.5,2 L15.5,2 C15.7454599,2 15.9496084,2.17687516 15.9919443,2.41012437 L16,2.5 L16,11.5 C16,11.7454599 15.8231248,11.9496084 15.5898756,11.9919443 L15.5,12 L11,12 C10.7238576,12 10.5,11.7761424 10.5,11.5 C10.5,11.2545401 10.6768752,11.0503916 10.9101244,11.0080557 L11,11 L15,11 L15,3 L1,3 L1,11 L8,11 C8.24545989,11 8.44960837,11.1768752 8.49194433,11.4101244 L8.5,11.5 L8.5,13.5 L11,13.5 C11.2761424,13.5 11.5,13.7238576 11.5,14 C11.5,14.2454599 11.3231248,14.4496084 11.0898756,14.4919443 L11,14.5 L5,14.5 Z"/></svg>