<svg xmlns="http://www.w3.org/2000/svg" width="16" height="16" viewBox="0 0 16 16">
  <path fill="#242424" fill-rule="evenodd" d="M13.5,0 C13.7454599,0 13.9496084,0.176875161 13.9919443,0.410124368 L14,0.5 L14,10.5 C14,10.7761424 13.7761424,11 13.5,11 C13.2545401,11 13.0503916,10.8231248 13.0080557,10.5898756 L13,10.5 L13,1 L3,1 L3,13 L13.5,13 C13.7761424,13 14,13.2238576 14,13.5 L14,15.5 C14,15.7454599 13.8231248,15.9496084 13.5898756,15.9919443 L13.5,16 L2.5,16 C2.25454011,16 2.05039163,15.8231248 2.00805567,15.5898756 L2,15.5 L2,0.5 C2,0.254540111 2.17687516,0.0503916296 2.41012437,0.00805566941 L2.5,0 L13.5,0 Z M8,13.75 C7.58578644,13.75 7.25,14.0857864 7.25,14.5 C7.25,14.9142136 7.58578644,15.25 8,15.25 C8.41421356,15.25 8.75,14.9142136 8.75,14.5 C8.75,14.0857864 8.41421356,13.75 8,13.75 Z" transform="rotate(-90 8 8)"/>
</svg>
