<svg xmlns="http://www.w3.org/2000/svg" width="16" height="16" viewBox="0 0 16 16"><path fill="#232323" d="M5.27624254,6.68928265 L6.00624254,7.41928265 L5.373,8.5 L7.08624254,8.49928265 L8.03024254,9.44428265 L7.08748728,15.5760286 C7.04549785,15.8489599 6.79020415,16.0361753 6.51727284,15.9941858 C6.27466724,15.9568619 6.09978779,15.7510013 6.09341135,15.5140269 L6.09911559,15.4239714 L7.01,9.5 L4.5,9.5 C4.14321088,9.5 3.91096783,9.14227562 4.031269,8.82507587 L4.0688209,8.74685066 L5.27624254,6.68928265 Z M2,2 C2.19526215,1.80473785 2.51184464,1.80473785 2.70710678,2 L2.70710678,2 L14,13.2928932 C14.1952621,13.4881554 14.1952621,13.8047379 14,14 C13.8047379,14.1952621 13.4881554,14.1952621 13.2928932,14 L13.2928932,14 L2,2.70710678 C1.80473785,2.51184464 1.80473785,2.19526215 2,2 Z M8.96924254,10.3822826 L9.69624254,11.1102826 L9.68707066,11.1245899 C9.53379446,11.3054321 9.26856262,11.3565545 9.05597969,11.2338392 C8.84339676,11.1111238 8.75501903,10.8558773 8.83496428,10.6327041 L8.87292006,10.5508391 L8.96924254,10.3822826 Z M9.99121461,0.482945653 L9.98461647,0.576028592 L9.073,6.5 L11.5,6.5 C11.8552784,6.5 12.0875855,6.85500423 11.9698797,7.17179596 L11.9330299,7.24997025 L10.7362425,9.32128265 L10.0032425,8.58928265 L10.633,7.5 L8.91324254,7.49928265 L8.04124254,6.62728265 L8.599,3.005 L7.05224254,5.63728265 L6.32224254,4.90728265 L9.05925153,0.246850663 C9.32189055,-0.200491829 9.98408939,0.0032606043 9.99121461,0.482945653 Z"/></svg>