<svg xmlns="http://www.w3.org/2000/svg" width="16" height="16" viewBox="0 0 16 16"><path fill="#242424" fill-rule="evenodd" d="M8,0 C12.418278,0 16,3.581722 16,8 C16,12.418278 12.418278,16 8,16 C3.581722,16 0,12.418278 0,8 C0,3.581722 3.581722,0 8,0 Z M10.2265387,11.0000614 L5.77346131,11.0000614 C6.22575659,13.3842079 7.16294255,15 8,15 C8.83705745,15 9.77424341,13.3842079 10.2265387,11.0000614 Z M4.75449195,11.0004418 L1.6739809,11.0007361 C2.53477982,12.8122139 4.15074183,14.1953456 6.1150093,14.7432736 C5.50823118,13.8543472 5.0285477,12.5476776 4.75449195,11.0004418 Z M14.3260191,11.0007361 L11.245508,11.0004418 C10.9714523,12.5476776 10.4917688,13.8543472 9.88391798,14.7433983 C11.8492582,14.1953456 13.4652202,12.8122139 14.3260191,11.0007361 Z M4.61024944,6.00014087 L1.28989247,5.99995367 C1.10128247,6.63367669 1,7.30501045 1,8 C1,8.69535399 1.10138872,9.36702737 1.29018925,10.0010432 L4.61036275,10.0008652 C4.53831843,9.36136486 4.5,8.69091071 4.5,8 C4.5,7.30945159 4.53827825,6.6393383 4.61024944,6.00014087 Z M10.3811314,6.00017602 L5.61886861,6.00017602 C5.54249725,6.63159949 5.5,7.30237121 5.5,8 C5.5,8.69799908 5.54254238,9.36911258 5.61899025,10.0008294 L10.3810098,10.0008294 C10.4574576,9.36911258 10.5,8.69799908 10.5,8 C10.5,7.30237121 10.4575027,6.63159949 10.3811314,6.00017602 Z M14.7101075,5.99995367 L11.3897506,6.00014087 C11.4617217,6.6393383 11.5,7.30945159 11.5,8 C11.5,8.69091071 11.4616816,9.36136486 11.3896373,10.0008652 L14.7098107,10.0010432 C14.8986113,9.36702737 15,8.69535399 15,8 C15,7.30501045 14.8987175,6.63367669 14.7101075,5.99995367 Z M6.11608202,1.25660175 L5.91841413,1.31470614 C4.04275718,1.89809602 2.50530055,3.24910301 1.67350433,5.00026701 L4.75431608,5.00055135 C5.02834245,3.45288156 5.50810113,2.14584303 6.11608202,1.25660175 Z M8,1 C7.16282375,1 6.22549056,2.61625079 5.77326876,5.00095378 L10.2267312,5.00095378 C9.79010329,2.69848193 8.90124309,1.11237931 8.08693772,1.0057307 L8,1 L8,1 Z M9.8849907,1.25672636 L9.96927777,1.38550215 C10.5368007,2.26996249 10.9846123,3.52604834 11.2456839,5.00055135 L14.3264957,5.00026701 C13.4658167,3.18829674 11.8496207,1.80475553 9.8849907,1.25672636 Z"/></svg>