<svg xmlns="http://www.w3.org/2000/svg" width="16" height="16" viewBox="0 0 16 16"><path fill="#242424" fill-rule="evenodd" d="M5.16271845,10.1687462 C4.96986695,10.3687418 4.94843901,10.6791918 5.09843462,10.9037328 L5.16271845,10.9835251 L8,14 L10.8372815,10.9835251 C11.0542395,10.7585301 11.0542395,10.3937412 10.8372815,10.1687462 C10.64443,9.9687507 10.3450696,9.94652897 10.1285494,10.1020811 L10.0516073,10.1687462 L8,12.3705653 L5.94839266,10.1687462 C5.75554115,9.9687507 5.45618071,9.94652897 5.23966055,10.1020811 L5.16271845,10.1687462 Z M5.16271845,5.83125377 C4.96986695,5.63125823 4.94843901,5.32080821 5.09843462,5.09626723 L5.16271845,5.01647488 L8,2 L10.8372815,5.01647488 C11.0542395,5.24146985 11.0542395,5.60625879 10.8372815,5.83125377 C10.64443,6.0312493 10.3450696,6.05347103 10.1285494,5.89791895 L10.0516073,5.83125377 L8,3.62943474 L5.94839266,5.83125377 C5.75554115,6.0312493 5.45618071,6.05347103 5.23966055,5.89791895 L5.16271845,5.83125377 Z"/></svg>