<svg xmlns="http://www.w3.org/2000/svg" width="16" height="16" viewBox="0 0 16 16"><path fill="#242424" fill-rule="evenodd" d="M13.5,15 C13.7761424,15 14,15.2238576 14,15.5 C14,15.7761424 13.7761424,16 13.5,16 L2.5,16 C2.22385763,16 2,15.7761424 2,15.5 C2,15.2238576 2.22385763,15 2.5,15 L13.5,15 Z M12.2843055,0.588591159 L12.3535534,0.646446609 L14.3535534,2.64644661 C14.5271197,2.82001296 14.5464049,3.08943736 14.4114088,3.2843055 L14.3535534,3.35355339 L4.20710678,13.5 L1.5,13.5 L1.5,10.7928932 L11.6464466,0.646446609 C11.820013,0.472880258 12.0894374,0.453595107 12.2843055,0.588591159 Z M3,10.7068932 L2.5,11.206 L2.5,12.5 L3.792,12.5 L4.293,11.9998932 L3,10.7068932 Z M12,1.707 L3.707,9.99989322 L5,11.2928932 L13.293,3 L12,1.707 Z"/></svg>