<svg xmlns="http://www.w3.org/2000/svg" width="16" height="16" viewBox="0 0 16 16"><path fill="#242424" fill-rule="evenodd" d="M8.95003365,0.535933402 C8.9566649,0.573654762 8.96,0.611897801 8.96,0.650215866 L8.96,15.3498945 C8.96,15.7089378 8.67346224,16 8.32,16 C8.28227757,16 8.24462899,15.9966122 8.20749399,15.9898763 L0.527493991,14.596793 C0.22226007,14.5414263 0,14.2717694 0,13.9568112 L0,2.04329912 C0,1.72834093 0.22226007,1.45868402 0.527493991,1.40331732 L8.20749399,0.0102340683 C8.55545197,-0.0528823937 8.8878983,0.182481215 8.95003365,0.535933402 Z M15.36,2.3116319 C15.7134622,2.3116319 16,2.60269406 16,2.96173742 L16,13.0383729 C16,13.3974163 15.7134622,13.6884784 15.36,13.6884784 L10.24,13.6884784 L10.24,12.3882674 L11.84,12.3882674 C11.9283656,12.3882674 12,12.316633 12,12.2282674 L12,12.2282674 L12,11.5731091 C12,11.4847436 11.9283656,11.4131091 11.84,11.4131091 L11.84,11.4131091 L10.24,11.4131091 L10.24,10.4379509 L11.84,10.4379509 C11.9283656,10.4379509 12,10.3663164 12,10.2779509 L12,10.2779509 L12,9.62279259 C12,9.53442703 11.9283656,9.46279259 11.84,9.46279259 L11.84,9.46279259 L10.24,9.46279259 L10.24,8.48763431 L11.84,8.48763431 C11.9283656,8.48763431 12,8.41599987 12,8.32763431 L12,8.32763431 L12,7.67247604 C12,7.58411048 11.9283656,7.51247604 11.84,7.51247604 L11.84,7.51247604 L10.24,7.51247604 L10.24,6.53731776 L11.84,6.53731776 C11.9283656,6.53731776 12,6.46568332 12,6.37731776 L12,6.37731776 L12,5.72215949 C12,5.63379393 11.9283656,5.56215949 11.84,5.56215949 L11.84,5.56215949 L10.24,5.56215949 L10.24,4.58700121 L11.84,4.58700121 C11.9283656,4.58700121 12,4.51536677 12,4.42700121 L12,4.42700121 L12,3.77184294 C12,3.68347738 11.9283656,3.61184294 11.84,3.61184294 L11.84,3.61184294 L10.24,3.61184294 L10.24,2.3116319 L15.36,2.3116319 Z M14.88,11.4131091 L13.44,11.4131091 C13.3516344,11.4131091 13.28,11.4847436 13.28,11.5731091 L13.28,11.5731091 L13.28,12.2282674 C13.28,12.316633 13.3516344,12.3882674 13.44,12.3882674 L13.44,12.3882674 L14.88,12.3882674 C14.9683656,12.3882674 15.04,12.316633 15.04,12.2282674 L15.04,12.2282674 L15.04,11.5731091 C15.04,11.4847436 14.9683656,11.4131091 14.88,11.4131091 L14.88,11.4131091 Z M3.42863358,5.03831776 L1.7135554,5.03831776 L3.49911625,7.89575828 L1.6,10.8892674 L3.35031951,10.8892674 L4.45454793,9.06034539 L5.57052345,10.8892674 L7.36,10.8892674 L5.40997961,8.01982083 L7.22295037,5.03831776 L5.45696805,5.03831776 L4.46237933,6.84722969 L3.42863358,5.03831776 Z M14.88,9.46279259 L13.44,9.46279259 C13.3516344,9.46279259 13.28,9.53442703 13.28,9.62279259 L13.28,9.62279259 L13.28,10.2779509 C13.28,10.3663164 13.3516344,10.4379509 13.44,10.4379509 L13.44,10.4379509 L14.88,10.4379509 C14.9683656,10.4379509 15.04,10.3663164 15.04,10.2779509 L15.04,10.2779509 L15.04,9.62279259 C15.04,9.53442703 14.9683656,9.46279259 14.88,9.46279259 L14.88,9.46279259 Z M14.88,7.51247604 L13.44,7.51247604 C13.3516344,7.51247604 13.28,7.58411048 13.28,7.67247604 L13.28,7.67247604 L13.28,8.32763431 C13.28,8.41599987 13.3516344,8.48763431 13.44,8.48763431 L13.44,8.48763431 L14.88,8.48763431 C14.9683656,8.48763431 15.04,8.41599987 15.04,8.32763431 L15.04,8.32763431 L15.04,7.67247604 C15.04,7.58411048 14.9683656,7.51247604 14.88,7.51247604 L14.88,7.51247604 Z M14.88,5.56215949 L13.44,5.56215949 C13.3516344,5.56215949 13.28,5.63379393 13.28,5.72215949 L13.28,5.72215949 L13.28,6.37731776 C13.28,6.46568332 13.3516344,6.53731776 13.44,6.53731776 L13.44,6.53731776 L14.88,6.53731776 C14.9683656,6.53731776 15.04,6.46568332 15.04,6.37731776 L15.04,6.37731776 L15.04,5.72215949 C15.04,5.63379393 14.9683656,5.56215949 14.88,5.56215949 L14.88,5.56215949 Z M14.88,3.61184294 L13.44,3.61184294 C13.3516344,3.61184294 13.28,3.68347738 13.28,3.77184294 L13.28,3.77184294 L13.28,4.42700121 C13.28,4.51536677 13.3516344,4.58700121 13.44,4.58700121 L13.44,4.58700121 L14.88,4.58700121 C14.9683656,4.58700121 15.04,4.51536677 15.04,4.42700121 L15.04,4.42700121 L15.04,3.77184294 C15.04,3.68347738 14.9683656,3.61184294 14.88,3.61184294 L14.88,3.61184294 Z"/></svg>