<svg xmlns="http://www.w3.org/2000/svg" width="14" height="16" viewBox="0 0 14 16">
  <path fill="#242424" fill-rule="evenodd" d="M1.5 0l6.04.002.05.006.065.017.072.03.025.013.07.05 4.032 4.028a.5.5 0 01-.268.847L11.5 5h-4a.5.5 0 01-.492-.41L7 4.5V1H1.5a.5.5 0 00-.492.41L1 1.5v13a.5.5 0 00.41.492L1.5 15h6a.5.5 0 110 1h-6a1.5 1.5 0 01-1.493-1.356L0 14.5v-13A1.5 1.5 0 011.356.007L1.5 0zm10 6.5a.5.5 0 01.5.5v3a.5.5 0 11-1 0V7a.5.5 0 01.5-.5zm-1.403 4.895l1.403 1.403 1.403-1.403a.496.496 0 11.702.702L12.202 13.5l1.403 1.403a.496.496 0 11-.702.702L11.5 14.2l-1.402 1.404a.496.496 0 11-.702-.702l1.403-1.404-1.403-1.402a.496.496 0 11.702-.702zM8 1.707L10.293 4H8V1.707z"/>
</svg>