<svg xmlns="http://www.w3.org/2000/svg" width="16" height="16" viewBox="0 0 16 16"><path fill="#242424" fill-rule="evenodd" d="M3.5,0 L9.53959156,0.00156876395 L9.58987563,0.00805566941 L9.65473232,0.024543968 L9.72678591,0.0543895452 L9.75235957,0.0682646574 L9.82214364,0.117593731 L13.8535534,4.14644661 C14.147537,4.44043021 13.9728055,4.92918427 13.586032,4.99304488 L13.5,5 L9.5,5 C9.25454011,5 9.05039163,4.82312484 9.00805567,4.58987563 L9,4.5 L9,1 L3.5,1 C3.25454011,1 3.05039163,1.17687516 3.00805567,1.41012437 L3,1.5 L3,14.5 C3,14.7454599 3.17687516,14.9496084 3.41012437,14.9919443 L3.5,15 L9.5,15 C9.77614237,15 10,15.2238576 10,15.5 C10,15.7761424 9.77614237,16 9.5,16 L3.5,16 C2.72030388,16 2.07955132,15.4051119 2.00686658,14.64446 L2,14.5 L2,1.5 C2,0.720303883 2.59488808,0.0795513218 3.35553999,0.00686657806 L3.5,0 Z M13.5,6.5 C13.7761424,6.5 14,6.72385763 14,7 L14,10 C14,10.2761424 13.7761424,10.5 13.5,10.5 C13.2238576,10.5 13,10.2761424 13,10 L13,7 C13,6.72385763 13.2238576,6.5 13.5,6.5 Z M12.0968662,11.3952993 L13.5,12.7984331 L14.9031338,11.3952993 C15.0968662,11.2015669 15.4109684,11.2015669 15.6047007,11.3952993 C15.7984331,11.5890316 15.7984331,11.9031338 15.6047007,12.0968662 L14.2015669,13.5 L15.6047007,14.9031338 C15.7984331,15.0968662 15.7984331,15.4109684 15.6047007,15.6047007 C15.4109684,15.7984331 15.0968662,15.7984331 14.9031338,15.6047007 L13.4992984,14.2008653 L12.0968662,15.6047007 C11.9031338,15.7984331 11.5890316,15.7984331 11.3952993,15.6047007 C11.2015669,15.4109684 11.2015669,15.0968662 11.3952993,14.9031338 L12.7977315,13.4992984 L11.3952993,12.0968662 C11.2015669,11.9031338 11.2015669,11.5890316 11.3952993,11.3952993 C11.5890316,11.2015669 11.9031338,11.2015669 12.0968662,11.3952993 Z M10,1.707 L12.293,4 L10,4 L10,1.707 Z"/></svg>