<svg xmlns="http://www.w3.org/2000/svg" width="16" height="16" viewBox="0 0 16 16"><path fill="#0F0F0F" fill-rule="evenodd" d="M13.5,2 C13.7454599,2 13.9496084,2.17687516 13.9919443,2.41012437 L14,2.5 L14,13.5 C14,13.7454599 13.8231248,13.9496084 13.5898756,13.9919443 L13.5,14 L9.78876266,14 C9.51262029,14 9.28876266,13.7761424 9.28876266,13.5 C9.28876266,13.2545401 9.46563783,13.0503916 9.69888703,13.0080557 L9.78876266,13 L13,13 L13,3 L3,3 L3,13 L5.98192467,13 C6.22738456,13 6.43153304,13.1768752 6.473869,13.4101244 L6.48192467,13.5 C6.48192467,13.7454599 6.30504951,13.9496084 6.0718003,13.9919443 L5.98192467,14 L2.5,14 C2.25454011,14 2.05039163,13.8231248 2.00805567,13.5898756 L2,13.5 L2,2.5 C2,2.25454011 2.17687516,2.05039163 2.41012437,2.00805567 L2.5,2 L13.5,2 Z"/></svg>