<svg xmlns="http://www.w3.org/2000/svg" width="16" height="16" viewBox="0 0 16 16"><path fill="#242424" fill-rule="evenodd" d="M12.5,11 C12.7761424,11 13,11.2238576 13,11.5 C13,11.7761424 12.7761424,12 12.5,12 L0.5,12 C0.223857625,12 0,11.7761424 0,11.5 C0,11.2238576 0.223857625,11 0.5,11 L12.5,11 Z M15.5,7.5 C15.7761424,7.5 16,7.72385763 16,8 C16,8.27614237 15.7761424,8.5 15.5,8.5 L0.5,8.5 C0.223857625,8.5 0,8.27614237 0,8 C0,7.72385763 0.223857625,7.5 0.5,7.5 L15.5,7.5 Z M15.5,4 C15.7761424,4 16,4.22385763 16,4.5 C16,4.77614237 15.7761424,5 15.5,5 L0.5,5 C0.223857625,5 0,4.77614237 0,4.5 C0,4.22385763 0.223857625,4 0.5,4 L15.5,4 Z"/></svg>