<svg xmlns="http://www.w3.org/2000/svg" width="16" height="16" viewBox="0 0 16 16"><path fill="#242424" fill-rule="evenodd" d="M8.2843055,0.0885911588 L8.35355339,0.146446609 L15.3535534,7.14644661 C15.4285679,7.22146116 15.477285,7.31785732 15.4937713,7.42131063 L15.5,7.5 L15.5,9.5 C15.5,9.77614237 15.2761424,10 15,10 C14.7545401,10 14.5503916,9.82312484 14.5080557,9.58987563 L14.5,9.5 L14.5,7.707 L8,1.207 L1.5,7.706 L1.5,15 L5.5,15 L5.5,10.5 C5.5,10.2545401 5.67687516,10.0503916 5.91012437,10.0080557 L6,10 L10,10 C10.2454599,10 10.4496084,10.1768752 10.4919443,10.4101244 L10.5,10.5 L10.5,15.5 C10.5,15.7454599 10.3231248,15.9496084 10.0898756,15.9919443 L10,16 C9.75454011,16 9.55039163,15.8231248 9.50805567,15.5898756 L9.5,15.5 L9.5,11 L6.5,11 L6.5,15.5 C6.5,15.7454599 6.32312484,15.9496084 6.08987563,15.9919443 L6,16 L1,16 C0.754540111,16 0.55039163,15.8231248 0.508055669,15.5898756 L0.5,15.5 L0.5,7.5 C0.5,7.3939134 0.533714189,7.29130283 0.595209177,7.20649276 L0.646446609,7.14644661 L7.64644661,0.146446609 C7.82001296,-0.0271197425 8.08943736,-0.0464048927 8.2843055,0.0885911588 Z M12.0968662,11.3952993 L13.5,12.7984331 L14.9031338,11.3952993 C15.0968662,11.2015669 15.4109684,11.2015669 15.6047007,11.3952993 C15.7984331,11.5890316 15.7984331,11.9031338 15.6047007,12.0968662 L14.2015669,13.5 L15.6047007,14.9031338 C15.7984331,15.0968662 15.7984331,15.4109684 15.6047007,15.6047007 C15.4109684,15.7984331 15.0968662,15.7984331 14.9031338,15.6047007 L13.4992984,14.2008653 L12.0968662,15.6047007 C11.9031338,15.7984331 11.5890316,15.7984331 11.3952993,15.6047007 C11.2015669,15.4109684 11.2015669,15.0968662 11.3952993,14.9031338 L12.7977315,13.4992984 L11.3952993,12.0968662 C11.2015669,11.9031338 11.2015669,11.5890316 11.3952993,11.3952993 C11.5890316,11.2015669 11.9031338,11.2015669 12.0968662,11.3952993 Z"/></svg>