<svg xmlns="http://www.w3.org/2000/svg" width="16" height="16" viewBox="0 0 16 16"><path fill="#242424" fill-rule="evenodd" d="M14,2 C14.1952621,2.19526215 14.1952621,2.51184464 14,2.70710678 L12.2944372,4.41115133 C13.5355347,5.24112033 14.7489267,6.43719918 15.9346132,7.99938789 C13.4052841,11.3331293 10.7495153,13 7.96730661,13 C7.15122042,13 6.34598709,12.8565861 5.55160664,12.5697583 L6.34726132,11.7745133 C6.80511606,11.9027518 7.26429113,11.9759976 7.72484184,11.995002 L7.96730661,12 C10.1508681,12 12.303119,10.7862074 14.4299459,8.27878686 L14.6613066,7.999 L14.4299666,7.72034291 C13.4826106,6.6038493 12.5302568,5.7439024 11.5723863,5.13345273 L6.98439591,9.7233147 C7.28206812,9.89912109 7.62925329,10 8,10 C9.06211198,10 9.93085376,9.17208376 9.99607002,8.12640659 L10.8986025,7.22374857 C10.9647414,7.47134504 11,7.73155497 11,8 C11,9.65685425 9.65685425,11 8,11 C7.35212751,11 6.75222137,10.7946316 6.26182983,10.445443 L2.70710678,14 C2.51184464,14.1952621 2.19526215,14.1952621 2,14 C1.80473785,13.8047379 1.80473785,13.4881554 2,13.2928932 L3.68022466,11.6154973 C2.4251786,10.7845618 1.19843705,9.57960007 -1.59872116e-14,8.00061211 C2.52932908,4.6668707 5.18509796,3 7.96730661,3 C8.80015936,3 9.62170871,3.14936734 10.4319547,3.44810201 L9.63825619,4.23997241 C9.16353297,4.10275226 8.68739193,4.02470676 8.20977139,4.00499795 L7.96730661,4 C5.78374517,4 3.63149423,5.21379259 1.50466734,7.72121314 L1.27230661,8 L1.50464659,8.27965709 C2.46556099,9.41212978 3.43161728,10.2806599 4.40335701,10.892604 L9.0158337,6.27682094 C8.71811043,6.1009308 8.37084204,6 8,6 C6.93793969,6 6.06923077,6.82783569 6.0039395,7.87344081 L5.10139747,8.77625143 C5.03525862,8.52865496 5,8.26844503 5,8 C5,6.34314575 6.34314575,5 8,5 C8.64792913,5 9.24788351,5.2054043 9.73829877,5.55464854 L13.2928932,2 C13.4881554,1.80473785 13.8047379,1.80473785 14,2 Z"/></svg>