<svg xmlns="http://www.w3.org/2000/svg" width="16" height="16" viewBox="0 0 16 16"><path fill="#242424" fill-rule="evenodd" d="M2,0 C2.24545989,0 2.44960837,0.176875161 2.49194433,0.410124368 L2.5,0.5 L2.5,3.19 L7.7763932,0.552786405 C7.86534952,0.508308247 7.96482493,0.491699691 8.0620761,0.503866376 L8.15811388,0.525658351 L14.1581139,2.52565835 C14.4424487,2.62043662 14.5740992,2.93741624 14.4582873,3.20036322 L14.4160251,3.2773501 L12.577,6.036 L14.4472136,9.7763932 C14.6331452,10.1482563 14.3128227,10.5566742 13.9257027,10.4949492 L13.8418861,10.4743416 L8.038,8.54 L4.2236068,10.4472136 C4.0040608,10.5569866 3.74236387,10.4900826 3.60018522,10.3003914 L3.5527864,10.2236068 C3.44301341,10.0040608 3.50991738,9.74236387 3.6996086,9.60018522 L3.7763932,9.5527864 L7.7763932,7.5527864 C7.86534952,7.50830825 7.96482493,7.49169969 8.0620761,7.50386638 L8.15811388,7.52565835 L13.012,9.143 L11.5527864,6.2236068 C11.4859174,6.08986875 11.483038,5.93481674 11.5415335,5.80045099 L11.5839749,5.7226499 L13.22,3.267 L8.038,1.54 L2.5,4.308 L2.5,15.5 C2.5,15.7761424 2.27614237,16 2,16 C1.75454011,16 1.55039163,15.8231248 1.50805567,15.5898756 L1.5,15.5 L1.5,0.5 C1.5,0.223857625 1.72385763,0 2,0 Z"/></svg>