<svg xmlns="http://www.w3.org/2000/svg" width="16" height="16" viewBox="0 0 16 16"><path fill="#242424" fill-rule="evenodd" d="M1.5,10.5 C2.32842712,10.5 3,11.1715729 3,12 C3,12.8284271 2.32842712,13.5 1.5,13.5 C0.671572875,13.5 0,12.8284271 0,12 C0,11.1715729 0.671572875,10.5 1.5,10.5 Z M10.5,11.5 C10.7761424,11.5 11,11.7238576 11,12 C11,12.2761424 10.7761424,12.5 10.5,12.5 L10.5,12.5 L4.5,12.5 C4.22385763,12.5 4,12.2761424 4,12 C4,11.7238576 4.22385763,11.5 4.5,11.5 L4.5,11.5 Z M1.5,6.5 C2.32842712,6.5 3,7.17157288 3,8 C3,8.82842712 2.32842712,9.5 1.5,9.5 C0.671572875,9.5 0,8.82842712 0,8 C0,7.17157288 0.671572875,6.5 1.5,6.5 Z M15.5,7.5 C15.7761424,7.5 16,7.72385763 16,8 C16,8.27614237 15.7761424,8.5 15.5,8.5 L15.5,8.5 L4.5,8.5 C4.22385763,8.5 4,8.27614237 4,8 C4,7.72385763 4.22385763,7.5 4.5,7.5 L4.5,7.5 Z M1.5,2.5 C2.32842712,2.5 3,3.17157288 3,4 C3,4.82842712 2.32842712,5.5 1.5,5.5 C0.671572875,5.5 0,4.82842712 0,4 C0,3.17157288 0.671572875,2.5 1.5,2.5 Z M15.5,3.5 C15.7761424,3.5 16,3.72385763 16,4 C16,4.27614237 15.7761424,4.5 15.5,4.5 L15.5,4.5 L4.5,4.5 C4.22385763,4.5 4,4.27614237 4,4 C4,3.72385763 4.22385763,3.5 4.5,3.5 L4.5,3.5 Z"/></svg>