<svg xmlns="http://www.w3.org/2000/svg" width="16" height="16" viewBox="0 0 16 16"><path fill="#0F0F0F" fill-rule="evenodd" d="M16,4.5 C16,5.5127513 15.2472489,6.34968816 14.270725,6.48183221 L13.561764,12.5 L14,12.5 C14.2454599,12.5 14.4496084,12.6768752 14.4919443,12.9101244 L14.5,13 L14.5,15 C14.5,15.2454599 14.3231248,15.4496084 14.0898756,15.4919443 L14,15.5 L2.768,15.499 L3.768,14.499 L13.5,14.5 L13.5,13.5 L4.768,13.499 L5.768,12.499 L12.554764,12.5 L13.2752007,6.3646221 C13.0490411,6.27664838 12.8428435,6.14871541 12.6652791,5.98949459 L11.5,6.767 L13.1861314,5.08118225 C13.3461968,5.3049328 13.5962378,5.45992128 13.8833789,5.49327227 L14,5.5 C14.5522847,5.5 15,5.05228475 15,4.5 C15,4.16446264 14.8347439,3.86752291 14.5811823,3.68613144 L15.2936834,2.97469769 C15.725795,3.3415555 16,3.88875574 16,4.5 Z M15,1.14644661 C15.1952621,1.34170876 15.1952621,1.65829124 15,1.85355339 L1.70710678,15.1464466 C1.51184464,15.3417088 1.19526215,15.3417088 1,15.1464466 C0.804737854,14.9511845 0.804737854,14.634602 1,14.4393398 L14.2928932,1.14644661 C14.4881554,0.951184464 14.8047379,0.951184464 15,1.14644661 Z M8,-2.04281037e-13 C9.1045695,-2.04281037e-13 10,0.8954305 10,2 C10,2.7559272 9.58062191,3.4139034 8.96183875,3.75395559 L9.616,4.408 L8.909,5.116 L8,4.207 L5.35355339,6.85355339 C5.20608772,7.00101906 4.98548357,7.03947113 4.79978361,6.95821129 L4.7226499,6.91602515 L3.33370141,5.99040816 C3.15583805,6.14967885 2.94929695,6.27757832 2.72277726,6.36540739 L3.241,10.783 L2.34,11.684 L1.72927499,6.48183221 C0.752751117,6.34968816 0,5.5127513 0,4.5 C0,3.3954305 0.8954305,2.5 2,2.5 C3.1045695,2.5 4,3.3954305 4,4.5 C4,4.73058353 3.96097864,4.95205314 3.88917923,5.15816552 L4.936,5.856 L7.03816125,3.75395559 C6.41937809,3.4139034 6,2.7559272 6,2 C6,0.8954305 6.8954305,-2.04281037e-13 8,-2.04281037e-13 Z M11,9 L11.7,9.7 L11,10.4 L10.3,9.7 L11,9 Z M2,3.5 C1.44771525,3.5 1,3.94771525 1,4.5 C1,5.05228475 1.44771525,5.5 2,5.5 C2.55228475,5.5 3,5.05228475 3,4.5 C3,3.94771525 2.55228475,3.5 2,3.5 Z M8,1 C7.44771525,1 7,1.44771525 7,2 C7,2.55228475 7.44771525,3 8,3 C8.55228475,3 9,2.55228475 9,2 C9,1.44771525 8.55228475,1 8,1 Z"/></svg>