<svg xmlns="http://www.w3.org/2000/svg" width="16" height="16" viewBox="0 0 16 16"><path fill="#0F0F0F" fill-rule="evenodd" d="M8,-9.05941988e-14 C9.1045695,-9.05941988e-14 10,0.8954305 10,2 C10,2.7559272 9.58062191,3.4139034 8.96183875,3.75395559 L11.063,5.856 L12.1104736,5.15716808 C12.0388956,4.9513387 12,4.73021162 12,4.5 C12,3.3954305 12.8954305,2.5 14,2.5 C15.1045695,2.5 16,3.3954305 16,4.5 C16,5.5127513 15.2472489,6.34968816 14.270725,6.48183221 L13.561764,12.5 L14,12.5 C14.2454599,12.5 14.4496084,12.6768752 14.4919443,12.9101244 L14.5,13 L14.5,15 C14.5,15.2454599 14.3231248,15.4496084 14.0898756,15.4919443 L14,15.5 L2,15.5 C1.75454011,15.5 1.55039163,15.3231248 1.50805567,15.0898756 L1.5,15 L1.5,13 C1.5,12.7545401 1.67687516,12.5503916 1.91012437,12.5080557 L2,12.5 L2.43676398,12.5 L1.72927499,6.48183221 C0.752751117,6.34968816 0,5.5127513 0,4.5 C0,3.3954305 0.8954305,2.5 2,2.5 C3.1045695,2.5 4,3.3954305 4,4.5 C4,4.73058353 3.96097864,4.95205314 3.88917923,5.15816552 L4.936,5.856 L7.03816125,3.75395559 C6.41937809,3.4139034 6,2.7559272 6,2 C6,0.8954305 6.8954305,-9.05941988e-14 8,-9.05941988e-14 Z M13.5,13.5 L2.5,13.5 L2.5,14.5 L13.5,14.5 L13.5,13.5 Z M8,4.207 L5.35355339,6.85355339 C5.20608772,7.00101906 4.98548357,7.03947113 4.79978361,6.95821129 L4.7226499,6.91602515 L3.33370141,5.99040816 C3.15583805,6.14967885 2.94929695,6.27757832 2.72277726,6.36540739 L3.44376398,12.5 L12.554764,12.5 L13.2752007,6.3646221 C13.0490411,6.27664838 12.8428435,6.14871541 12.6652791,5.98949459 L11.2773501,6.91602515 C11.1038277,7.03170673 10.8799665,7.02614806 10.7138091,6.91004747 L10.6464466,6.85355339 L8,4.207 Z M8,9 L8.7,9.7 L8,10.4 L7.3,9.7 L8,9 Z M5,9 L5.7,9.7 L5,10.4 L4.3,9.7 L5,9 Z M11,9 L11.7,9.7 L11,10.4 L10.3,9.7 L11,9 Z M2,3.5 C1.44771525,3.5 1,3.94771525 1,4.5 C1,5.05228475 1.44771525,5.5 2,5.5 C2.55228475,5.5 3,5.05228475 3,4.5 C3,3.94771525 2.55228475,3.5 2,3.5 Z M14,3.5 C13.4477153,3.5 13,3.94771525 13,4.5 C13,5.05228475 13.4477153,5.5 14,5.5 C14.5522847,5.5 15,5.05228475 15,4.5 C15,3.94771525 14.5522847,3.5 14,3.5 Z M8,1 C7.44771525,1 7,1.44771525 7,2 C7,2.55228475 7.44771525,3 8,3 C8.55228475,3 9,2.55228475 9,2 C9,1.44771525 8.55228475,1 8,1 Z"/></svg>