<svg xmlns="http://www.w3.org/2000/svg" width="16" height="16" viewBox="0 0 16 16"><path fill="#242424" fill-rule="evenodd" d="M6.85355339,9.14644661 C7.02711974,9.32001296 7.04640489,9.58943736 6.91140884,9.7843055 L6.85355339,9.85355339 L2.708,14 L4.5,14 C4.74545989,14 4.94960837,14.1768752 4.99194433,14.4101244 L5,14.5 C5,14.7454599 4.82312484,14.9496084 4.58987563,14.9919443 L4.5,15 L1.5,15 L1.4465724,14.997179 L1.37185423,14.9833917 L1.30896344,14.9622078 L1.23298968,14.922812 L1.17786279,14.8824163 L1.14644661,14.8535534 L1.10896102,14.8116622 L1.06674743,14.7497651 L1.03761056,14.6905951 L1.01661082,14.6281391 L1.00208799,14.5457862 L1,14.5 L1,11.5 C1,11.2238576 1.22385763,11 1.5,11 C1.74545989,11 1.94960837,11.1768752 1.99194433,11.4101244 L2,11.5 L2.001,13.293 L6.14644661,9.14644661 C6.34170876,8.95118446 6.65829124,8.95118446 6.85355339,9.14644661 Z M14.5,1 L14.5534276,1.00282096 L14.6281458,1.01660826 L14.6910366,1.03779224 L14.7670103,1.07718801 L14.8221372,1.11758372 L14.8535534,1.14644661 L14.891039,1.18833775 L14.9332526,1.25023485 L14.9623894,1.3094049 L14.9833892,1.37186086 L14.997912,1.45421382 L15,1.5 L15,4.5 C15,4.77614237 14.7761424,5 14.5,5 C14.2545401,5 14.0503916,4.82312484 14.0080557,4.58987563 L14,4.5 L13.999,2.707 L9.85355339,6.85355339 C9.65829124,7.04881554 9.34170876,7.04881554 9.14644661,6.85355339 C8.97288026,6.67998704 8.95359511,6.41056264 9.08859116,6.2156945 L9.14644661,6.14644661 L13.292,2 L11.5,2 C11.2545401,2 11.0503916,1.82312484 11.0080557,1.58987563 L11,1.5 C11,1.25454011 11.1768752,1.05039163 11.4101244,1.00805567 L11.5,1 L14.5,1 Z"/></svg>