<svg xmlns="http://www.w3.org/2000/svg" width="16" height="16" viewBox="0 0 16 16"><path fill="#242424" fill-rule="evenodd" d="M8,2.999 L1,3 L1,13.5 C1,13.7454599 0.823124839,13.9496084 0.589875632,13.9919443 L0.5,14 C0.254540111,14 0.0503916296,13.8231248 0.00805566941,13.5898756 L0,13.5 L0,2.5 C0,2.25454011 0.176875161,2.05039163 0.410124368,2.00805567 L0.5,2 L15.5,2 C15.7454599,2 15.9496084,2.17687516 15.9919443,2.41012437 L16,2.5 L16,13.5 C16,13.7454599 15.8231248,13.9496084 15.5898756,13.9919443 L15.5,14 L5.5,14 C5.22385763,14 5,13.7761424 5,13.5 C5,13.2545401 5.17687516,13.0503916 5.41012437,13.0080557 L5.5,13 L15,13 L15,6 L15,6 L9,6 C8.44771525,6 8,5.55228475 8,5 L8,2.999 Z"/></svg>