<svg xmlns="http://www.w3.org/2000/svg" width="16" height="16" viewBox="0 0 16 16"><path fill="#242424" fill-rule="evenodd" stroke="#242424" d="M8,0.5 C10.0710678,0.5 11.9460678,1.33946609 13.3033009,2.69669914 C14.6605339,4.05393219 15.5,5.92893219 15.5,8 C15.5,10.0710678 14.6605339,11.9460678 13.3033009,13.3033009 C11.9460678,14.6605339 10.0710678,15.5 8,15.5 C5.92893219,15.5 4.05393219,14.6605339 2.69669914,13.3033009 C1.33946609,11.9460678 0.5,10.0710678 0.5,8 C0.5,5.92893219 1.33946609,4.05393219 2.69669914,2.69669914 C4.05393219,1.33946609 5.92893219,0.5 8,0.5 Z M8,2.5 C6.48121694,2.5 5.10621694,3.11560847 4.1109127,4.1109127 C3.11560847,5.10621694 2.5,6.48121694 2.5,8 C2.5,9.51878306 3.11560847,10.8937831 4.1109127,11.8890873 C5.10621694,12.8843915 6.48121694,13.5 8,13.5 C9.51878306,13.5 10.8937831,12.8843915 11.8890873,11.8890873 C12.8843915,10.8937831 13.5,9.51878306 13.5,8 C13.5,6.48121694 12.8843915,5.10621694 11.8890873,4.1109127 C10.8937831,3.11560847 9.51878306,2.5 8,2.5 Z"/></svg>