<svg xmlns="http://www.w3.org/2000/svg" width="16" height="16" viewBox="0 0 16 16"><path fill="#242424" fill-rule="evenodd" d="M12,8.75 C13.8685634,8.75 15.3951264,10.2142776 15.4948211,12.0579648 L15.5,12.25 L15.5,15.25 C15.5,15.5261424 15.2761424,15.75 15,15.75 C14.7545401,15.75 14.5503916,15.5731248 14.5080557,15.3398756 L14.5,15.25 L14.5,12.25 C14.5,10.9245166 13.4684641,9.83996133 12.1643757,9.75531768 L12,9.75 L11,9.75 C9.6745166,9.75 8.58996133,10.7815359 8.50531768,12.0856243 L8.5,12.25 L8.5,14.75 L12.5,14.75 C12.7454599,14.75 12.9496084,14.9268752 12.9919443,15.1601244 L13,15.25 C13,15.4954599 12.8231248,15.6996084 12.5898756,15.7419443 L12.5,15.75 L8,15.75 C7.75454011,15.75 7.55039163,15.5731248 7.50805567,15.3398756 L7.5,15.25 L7.5,12.25 C7.5,10.3814366 8.9642776,8.85487355 10.8079648,8.75517886 L11,8.75 L12,8.75 Z M5,6.75 C6.01040765,6.75 6.95240562,7.18118233 7.61202783,7.92029576 C7.7958964,8.12632236 7.77793376,8.44239485 7.57190715,8.62626341 C7.36588054,8.81013198 7.04980806,8.79216934 6.86593949,8.58614273 C6.43699708,8.10550838 5.84290261,7.80772762 5.19565641,7.75755784 L5,7.75 L4,7.75 C2.6745166,7.75 1.58996133,8.78153594 1.50531768,10.0856243 L1.5,10.25 L1.5,12.75 L5.5,12.75 C5.74545989,12.75 5.94960837,12.9268752 5.99194433,13.1601244 L6,13.25 C6,13.4954599 5.82312484,13.6996084 5.58987563,13.7419443 L5.5,13.75 L1,13.75 C0.754540111,13.75 0.55039163,13.5731248 0.508055669,13.3398756 L0.5,13.25 L0.5,10.25 C0.5,8.3814366 1.9642776,6.85487355 3.8079648,6.75517886 L4,6.75 L5,6.75 Z M11.5,2.25 C13.1568542,2.25 14.5,3.59314575 14.5,5.25 C14.5,6.90685425 13.1568542,8.25 11.5,8.25 C9.84314575,8.25 8.5,6.90685425 8.5,5.25 C8.5,3.59314575 9.84314575,2.25 11.5,2.25 Z M11.5,3.25 C10.3954305,3.25 9.5,4.1454305 9.5,5.25 C9.5,6.3545695 10.3954305,7.25 11.5,7.25 C12.6045695,7.25 13.5,6.3545695 13.5,5.25 C13.5,4.1454305 12.6045695,3.25 11.5,3.25 Z M4.5,0.25 C6.15685425,0.25 7.5,1.59314575 7.5,3.25 C7.5,4.90685425 6.15685425,6.25 4.5,6.25 C2.84314575,6.25 1.5,4.90685425 1.5,3.25 C1.5,1.59314575 2.84314575,0.25 4.5,0.25 Z M4.5,1.25 C3.3954305,1.25 2.5,2.1454305 2.5,3.25 C2.5,4.3545695 3.3954305,5.25 4.5,5.25 C5.6045695,5.25 6.5,4.3545695 6.5,3.25 C6.5,2.1454305 5.6045695,1.25 4.5,1.25 Z"/></svg>