<svg xmlns="http://www.w3.org/2000/svg" width="16" height="16" viewBox="0 0 16 16"><path fill="#242424" fill-rule="evenodd" d="M8.95003365,0.535933402 C8.9566649,0.573654762 8.96,0.611897801 8.96,0.650215866 L8.96,15.3498945 C8.96,15.7089378 8.67346224,16 8.32,16 C8.28227757,16 8.24462899,15.9966122 8.20749399,15.9898763 L0.527493991,14.596793 C0.22226007,14.5414263 0,14.2717694 0,13.9568112 L0,2.04329912 C0,1.72834093 0.22226007,1.45868402 0.527493991,1.40331732 L8.20749399,0.0102340683 C8.55545197,-0.0528823937 8.8878983,0.182481215 8.95003365,0.535933402 Z M15.36,2.3116319 C15.7134622,2.3116319 16,2.60269406 16,2.96173742 L16,13.0383729 C16,13.3974163 15.7134622,13.6884784 15.36,13.6884784 L10.24,13.6884784 L10.24,12.3882674 L14.4,12.3882674 C14.5546397,12.3882674 14.6836599,12.2768452 14.7134987,12.1287241 L14.72,12.0632147 L14.72,11.7381619 C14.72,11.5810804 14.6103098,11.450023 14.4644912,11.4197131 L14.4,11.4131091 L10.24,11.4131091 L10.24,10.4379509 L14.4,10.4379509 C14.5546397,10.4379509 14.6836599,10.3265286 14.7134987,10.1784076 L14.72,10.1128981 L14.72,9.78784535 C14.72,9.63076387 14.6103098,9.49970646 14.4644912,9.4693965 L14.4,9.46279259 L10.24,9.46279259 L10.24,8.48763431 L14.4,8.48763431 C14.5546397,8.48763431 14.6836599,8.37621208 14.7134987,8.22809102 L14.72,8.16258155 L14.72,7.8375288 C14.72,7.68044732 14.6103098,7.54938991 14.4644912,7.51907995 L14.4,7.51247604 L10.24,7.51247604 L10.24,6.53731776 L14.4,6.53731776 C14.5546397,6.53731776 14.6836599,6.42589553 14.7134987,6.27777447 L14.72,6.212265 L14.72,5.88721225 C14.72,5.73013077 14.6103098,5.59907336 14.4644912,5.5687634 L14.4,5.56215949 L10.24,5.56215949 L10.24,4.58700121 L14.4,4.58700121 C14.5546397,4.58700121 14.6836599,4.47557898 14.7134987,4.32745792 L14.72,4.26194845 L14.72,3.93689569 C14.72,3.77981422 14.6103098,3.64875681 14.4644912,3.61844685 L14.4,3.61184294 L10.24,3.61184294 L10.24,2.3116319 L15.36,2.3116319 Z M2.3899768,5.07458035 L1.28,5.07458035 L2.47907193,10.92553 L3.60018561,10.92553 L4.48,7.01150187 L5.35981439,10.92553 L6.48092807,10.92553 L7.68,5.07458035 L6.5700232,5.07458035 L5.84241299,9.23775606 L4.95517401,5.07458035 L4.01225058,5.07458035 L3.1212993,9.22971904 L2.3899768,5.07458035 Z"/></svg>